<svg width="944" height="235" viewBox="0 0 944 235" fill="none" xmlns="http://www.w3.org/2000/svg">
<rect width="944" height="235" rx="16" fill="white"/>
<path d="M0 16C0 7.16345 7.16344 0 16 0H928C936.837 0 944 7.16344 944 16V219C944 227.837 936.837 235 928 235H16C7.16347 235 0 227.837 0 219V16Z" fill="url(#paint0_linear_3954_194)"/>
<mask id="mask0_3954_194" style="mask-type:alpha" maskUnits="userSpaceOnUse" x="0" y="0" width="944" height="235">
<path d="M0 16C0 7.16345 7.16344 0 16 0H928C936.837 0 944 7.16344 944 16V219C944 227.837 936.837 235 928 235H16C7.16347 235 0 227.837 0 219V16Z" fill="url(#paint1_linear_3954_194)"/>
</mask>
<g mask="url(#mask0_3954_194)">
<path d="M605.565 93.6416C540.932 77.3636 488.369 110.631 470.104 155.355C469.4 157.078 469.803 159.042 471.075 160.402L603.331 301.848C605.543 304.213 609.416 303.796 611.181 301.081C651.69 238.759 692.936 234.822 742.563 230.363C751.126 229.594 754.41 219.042 747.862 213.47L609.409 95.637C608.299 94.6925 606.978 93.9975 605.565 93.6416Z" fill="#FFFFEE" fill-opacity="0.69"/>
<path d="M760.193 213.691L619.676 94.8776C616.732 92.3878 615.469 88.3769 616.812 84.7624C634.117 38.2095 690.702 18.5917 719.388 14.2396C720.48 14.0741 721.569 14.305 722.52 14.8656L878.225 106.681C882.741 109.344 880.423 117.842 875.265 118.779C828.357 127.298 793.189 175.744 776.016 210.179C773.054 216.119 765.262 217.976 760.193 213.691Z" fill="#FFFFEE" fill-opacity="0.69"/>
</g>
<path d="M849.851 61.1873C818.807 52.6511 786.723 70.8993 778.187 101.943C769.651 132.986 787.899 165.07 818.943 173.606L857.728 183.373C865.352 185.474 873.23 180.983 875.314 173.369L888.507 132.274C897.043 101.23 880.898 69.71 849.851 61.1873Z" fill="url(#paint2_linear_3954_194)" stroke="white" stroke-width="4" stroke-miterlimit="10"/>
<g filter="url(#filter0_d_3954_194)">
<path d="M856.791 105.137C854.286 103.361 854.108 102.775 858.805 97.1845C860.704 94.9301 861.517 93.7955 862.431 92.7171C862.925 92.1223 863.207 91.1219 862.937 90.395C862.81 90.0556 862.606 89.783 862.606 89.783C862.396 89.5375 862.02 89.2041 861.504 89.0659L855.464 87.4038C854.65 87.1856 853.849 87.7855 853.849 87.7855L835.473 103.831C833.98 101.425 832.015 99.3131 829.617 97.6816C827.112 95.9051 826.934 95.3195 831.631 89.7287C833.53 87.4743 834.343 86.3397 835.257 85.2614C835.751 84.6666 836.033 83.6662 835.763 82.9393C835.636 82.5998 835.432 82.3272 835.432 82.3272C835.222 82.0818 834.846 81.7483 834.33 81.6102L828.29 79.948C827.476 79.7299 826.675 80.3297 826.675 80.3297L806.705 97.7663C802.947 100.555 799.95 104.304 798.636 109.1C795.667 119.909 802.494 129.329 813.303 132.298C818.584 133.757 823.943 132.968 828.389 130.538C830.974 134.895 835.193 138.309 840.46 139.764C851.269 142.733 860.356 137.693 863.325 126.884C865.688 118.282 863.76 109.899 856.774 105.147L856.791 105.137Z" fill="#FFFFEF"/>
</g>
<path d="M849.901 108.554C849.419 108.236 848.936 107.976 848.47 107.764C850.181 110.927 846.148 113.337 846.148 113.337C846.148 113.337 842.034 116.044 840.01 113.015C838.797 111.192 839.313 109.644 840.177 108.537C837.367 110.504 835.789 113.571 835.789 113.571C834.156 116.246 830.432 123.74 837.651 128.22C844.834 132.675 850.919 122.991 850.919 122.991C850.919 122.991 857.495 113.483 849.901 108.554Z" fill="#141414"/>
<path d="M820.527 100.466C819.98 100.116 819.461 99.8317 818.94 99.6049C820.774 102.801 816.667 105.264 816.667 105.264C816.667 105.264 812.553 107.971 810.529 104.942C809.366 103.206 809.793 101.72 810.564 100.633C807.914 102.598 806.414 105.483 806.414 105.483C804.781 108.158 801.057 115.652 808.277 120.132C815.46 124.587 821.544 114.903 821.544 114.903C821.544 114.903 828.12 105.395 820.527 100.466Z" fill="#141414"/>
<path d="M554.889 74.9118L676.812 50.8054C683.004 49.5812 689.016 53.6334 690.236 59.8619L697.658 97.774C698.877 104.003 694.841 110.041 688.649 111.266L566.726 135.372C560.533 136.597 554.522 132.545 553.302 126.316L545.88 88.4038C544.66 82.1752 548.696 76.1364 554.889 74.9118Z" fill="white" stroke="#FF8B00"/>
<path d="M677.386 53.7763L555.471 77.8812C550.907 78.7836 547.935 83.2333 548.833 87.82L556.255 125.732C557.153 130.318 561.581 133.305 566.145 132.403L688.06 108.298C692.625 107.395 695.597 102.945 694.699 98.3588L687.276 60.4472C686.378 55.8605 681.95 52.8739 677.386 53.7763Z" fill="#FFF4D2"/>
<path d="M679.327 81.5842C678.384 80.2088 677.191 79.1985 675.872 78.6005C675.53 77.0053 674.763 75.5377 673.613 74.3468C672.015 72.693 669.787 71.7308 667.508 71.7107C666.913 71.707 666.315 71.7613 665.737 71.8763C664.511 72.1199 663.386 72.6231 662.408 73.3265C660.992 72.2745 659.265 71.6427 657.381 71.6302C656.786 71.6265 656.189 71.6807 655.61 71.7957C652.256 72.4623 649.654 75.0655 648.846 78.3157C648.812 78.3226 648.78 78.3432 648.739 78.3514C647.962 77.2728 647.007 76.4878 645.958 75.9937C645.442 73.2932 643.965 71.7445 642.787 70.9177C639.97 68.9255 636.802 69.5552 635.762 69.7618C633.2 70.271 631.448 71.4078 630.315 72.8159C627.74 71.3275 625.061 71.86 623.725 72.1255C620.812 72.7045 619.035 73.8964 617.958 75.2287C615.357 73.8245 612.649 74.3555 611.698 74.5444C609.198 75.0413 607.471 76.1229 606.337 77.4882C604.979 77.1702 603.487 77.1513 601.924 77.4621C601.524 77.5414 601.1 77.6401 600.605 77.7814C599.784 78.0092 598.854 78.2298 597.918 78.416C596.713 78.6555 595.517 78.8357 594.665 78.9048C594.228 78.9413 593.824 78.9931 593.438 79.0698C592.605 79.2354 591.761 79.5321 590.982 79.9737C588.698 79.13 586.514 79.557 585.68 79.7227C582.795 80.2962 580.937 81.6618 579.833 83.3292C577.205 81.529 574.276 82.1039 572.995 82.3585C569.552 83.0429 567.685 84.5036 566.692 86.0844C564.002 87.2141 561.607 89.9266 562.164 94.6619C562.258 95.5036 562.5 97.6849 563.88 99.6115C562.944 101.59 562.872 104.106 564.439 107.056C565.126 108.332 566.309 110.061 568.092 111.126C568.202 111.649 568.3 112.146 568.336 112.368C569.054 117.996 573.63 121.696 579.506 121.374C581.769 121.239 584.268 120.807 585.962 120.471C589.688 119.73 593.411 118.682 595.963 117.651C596.818 117.302 598.093 116.619 599.142 115.435C600.525 116.286 602.536 116.976 605.298 116.721C607.371 116.531 610.867 115.858 612.272 115.578C617.768 114.486 621.431 113.5 623.141 112.658C624.342 112.068 625.21 111.351 625.853 110.614C627.237 111.106 628.78 111.344 630.422 111.254C632.212 111.149 634.385 110.847 636.699 110.387C640.253 109.68 643.757 108.683 646.342 107.639C648.388 106.795 652.919 104.066 650.781 96.964C650.637 96.4837 650.466 96.0517 650.277 95.6375C653.688 97.4472 657.782 98.4758 662.025 98.5072C663.659 98.5194 665.316 98.3619 666.956 98.0362C671.336 97.1656 675.413 95.1151 678.431 92.2642C678.462 92.2367 678.491 92.2023 678.521 92.1747C681.322 89.4173 681.65 84.9648 679.317 81.6076L679.327 81.5842Z" fill="white" stroke="#FF8B00" stroke-miterlimit="10"/>
<path d="M570.099 96.3728C569.009 96.5052 568.567 95.5316 568.384 93.9172C568.218 92.4934 568.408 91.7878 569.803 91.6444C570.481 91.5657 571.297 91.4595 572.19 91.3091L571.944 90.2098C571.706 89.0014 572.472 88.7903 574.192 88.4453C576.015 88.0795 576.649 88.1749 576.755 89.5821L576.821 90.3513L577.56 90.1457C579.401 89.5825 580.707 89.5716 581.513 91.1184C582.46 92.9456 582.063 95.1785 580.621 97.7649L580.56 97.8919C581.646 98.3202 582.935 98.6214 583.727 98.685C585.175 98.8109 585.595 99.2363 585.464 100.856C585.327 102.7 585.062 103.205 583.919 103.212C582.436 103.201 580.057 102.558 578.841 102.048C578.389 101.859 578.073 101.671 577.816 101.385C576.335 102.939 574.5 104.513 572.531 105.554C571.396 106.147 570.829 105.701 569.947 104.055C569.196 102.641 569.248 102.071 570.498 101.339C573.775 99.4252 576.394 96.6029 577.016 95.0784C577.077 94.9514 577.099 94.8105 576.864 94.8864C575.176 95.5049 572.416 96.0873 570.081 96.3908L570.099 96.3728ZM580.662 110.232C583.512 109.998 588.89 108.696 591.855 107.484C593.456 106.826 594.005 107.362 594.413 108.708C594.896 110.32 595.045 111.187 593.596 111.779C589.928 113.269 583.183 114.823 579.162 115.07C576.432 115.222 574.84 113.783 574.552 111.487C574.515 111.157 574.138 109.244 573.834 108.135C573.447 106.755 574.283 106.028 575.948 105.694C577.613 105.36 578.389 105.341 578.801 106.995C578.951 107.611 579.258 109.171 579.328 109.524C579.418 109.979 579.788 110.3 580.669 110.231L580.662 110.232ZM590.682 105.2C589.258 105.486 588.262 105.657 587.841 103.954C587.073 100.749 585.264 91.5719 584.757 88.3141C584.5 86.5713 585.433 86.0826 586.857 85.7969C588.281 85.5112 589.472 85.4948 589.737 87.2363C590.243 90.494 592.043 99.6224 592.809 102.821C593.232 104.531 592.108 104.921 590.684 105.207L590.682 105.2Z" fill="#FF8B00"/>
<path d="M595.281 89.6876C594.176 89.7441 593.583 89.1309 593.434 87.5388C593.275 85.7547 593.731 85.2397 595.132 85.1239C597.024 84.9667 599.821 84.4631 602.254 83.7813C604.107 83.2734 605.693 83.1203 606.698 85.1006C607.568 86.8282 607.175 88.6439 605.887 90.8904C606.953 91.0714 608.259 91.1683 609.242 91.2223C610.424 91.2652 610.694 91.7997 610.608 93.4677C610.532 95.0764 610.059 95.7599 608.921 95.7942C607.198 95.8313 605.008 95.4595 603.786 94.9222C603.481 94.7896 603.23 94.6391 603.022 94.4582C601.548 95.9023 599.79 97.2885 598.253 98.2714C597.215 98.9534 596.215 98.9602 595.125 97.5281C593.92 95.9538 594.176 95.1129 595.367 94.3715C598.128 92.6693 601.003 90.2767 602.012 88.7537C602.139 88.5632 602.084 88.4306 601.849 88.5065C599.958 89.1083 597.402 89.5637 595.281 89.6876ZM607.874 106.333C611.378 105.716 616.783 104.294 618.246 103.664C619.584 103.087 620.256 103.117 620.965 104.575C621.479 105.621 621.752 106.319 620.41 106.983C618.228 108.067 607.88 110.172 604.755 110.461C602.129 110.708 601.277 109.364 601.209 107.311L601.142 105.702C600.705 105.481 600.572 105.063 600.564 104.476C600.564 103.5 600.934 103.088 602.946 102.85C606.048 102.479 610.249 101.693 613.491 100.763C613.742 99.7869 613.082 99.8117 611.816 100.173C609.756 100.752 604.216 101.784 602.055 101.995C600.604 102.142 599.841 101.936 599.758 100.245C599.709 99.1637 600.058 98.6487 601.551 98.4569C604.429 98.0734 610.392 96.906 612.939 96.1151C616.802 94.924 618.641 95.6174 618.677 99.6081C618.866 99.7352 619.052 99.9492 619.165 100.235C619.704 101.555 619.317 102.272 617.625 102.87C614.31 104.008 610.224 104.943 606.656 105.486L606.676 105.733C606.705 106.316 606.775 106.525 607.881 106.331L607.874 106.333ZM615.643 94.6684C614.219 94.954 613.223 95.1251 612.802 93.4224L611.992 89.752L610.059 90.1398C608.827 90.3868 608.312 89.6217 608.031 88.1994C607.751 86.7771 607.936 85.8644 609.167 85.6174L611.128 85.2241L610.78 83.1693C610.522 81.4266 611.455 80.938 612.879 80.6523C614.303 80.3667 615.495 80.3503 615.759 82.0915C616.266 85.3491 617.004 89.0913 617.771 92.2963C618.194 94.0059 617.07 94.3965 615.646 94.6822L615.643 94.6684Z" fill="#FF8B00"/>
<path d="M622.931 81.6169C622.776 80.9735 622.67 80.435 622.634 80.1119C622.495 78.8264 623.503 78.567 624.92 78.2828C626.337 77.9985 627.509 77.8496 627.709 79.1516L627.936 80.4481C628.675 80.2425 629.377 79.994 629.974 79.7594C631.608 79.1231 632.461 79.2033 633.031 80.5744C633.701 82.1195 633.646 82.8554 631.973 83.6933L631.798 83.7858C632.746 84.4928 633.433 85.5823 633.736 87.1218C634.441 90.6979 631.927 93.3624 628.116 94.1268C624.305 94.8912 621.137 93.3733 620.431 89.7903C620.16 88.4165 620.298 87.2691 620.718 86.3165L620.308 86.3413C618.761 86.4005 618.176 85.427 618.162 83.9441C618.17 82.5717 618.485 82.1713 620.42 81.9769C621.132 81.9204 621.969 81.7811 622.917 81.6196L622.931 81.6169ZM631.574 100.165C634.424 99.9307 639.267 98.737 642.232 97.5252C643.832 96.8668 644.382 97.4026 644.79 98.7488C645.272 100.36 645.422 101.227 643.972 101.819C640.304 103.309 634.095 104.755 630.075 105.001C627.344 105.154 625.752 103.715 625.463 101.419C625.427 101.089 625.103 99.4462 624.798 98.3375C624.412 96.9581 625.248 96.2306 626.913 95.8967C628.578 95.5628 629.244 95.5656 629.766 97.1977C629.971 97.8024 630.17 99.1045 630.239 99.4497C630.328 99.9053 630.699 100.226 631.579 100.157L631.574 100.165ZM629.021 87.2206C628.739 85.7915 627.896 85.322 626.904 85.4061L626.049 85.6062C625.162 85.9277 624.643 86.6705 624.914 88.0443C625.227 89.6322 626.248 89.9872 627.37 89.7623C628.491 89.5373 629.317 88.7546 629.014 87.222L629.021 87.2206ZM640.816 95.5699C639.392 95.8555 638.396 96.0266 637.974 94.3241C637.206 91.1194 635.344 81.6752 634.837 78.418C634.58 76.6755 635.513 76.1869 636.937 75.9013C638.361 75.6156 639.552 75.5992 639.81 77.3417C639.957 78.3745 640.253 80.0231 640.625 81.9078L642.262 81.5794C643.494 81.3324 643.927 82.114 644.209 83.543C644.49 84.9721 644.386 85.8544 643.154 86.1014L641.489 86.4353C642.059 89.1774 642.601 91.7815 642.936 93.1926C643.359 94.902 642.235 95.2926 640.817 95.5768L640.816 95.5699Z" fill="#FF8B00"/>
<path d="M657.311 77.9283C658.587 77.9378 659.71 79.0231 659.698 80.45C659.684 81.8989 658.543 82.9003 657.267 82.8908C655.913 82.8826 654.819 81.8704 654.832 80.4145C654.844 78.9876 655.963 77.9118 657.31 77.9214L657.311 77.9283ZM667.436 77.9923C668.712 78.0018 669.835 79.0871 669.823 80.514C669.809 81.9629 668.668 82.9643 667.392 82.9548C666.038 82.9466 664.944 81.9344 664.957 80.4785C664.969 79.0516 666.087 77.9758 667.435 77.9854L667.436 77.9923Z" fill="#FF8B00"/>
<path d="M649.898 87.701C649.459 87.2521 649.248 86.1492 649.875 85.1936C650.472 84.2656 651.161 84.0205 651.772 84.5424C654.309 86.6973 658.205 87.9792 662.017 88.004C665.851 88.0316 669.772 86.7539 672.296 84.5316C672.889 84.0194 673.553 84.2659 674.185 85.1843C674.842 86.1192 674.684 87.2028 674.162 87.715C671.109 90.594 666.548 92.2862 662.105 92.2586C657.24 92.2297 652.631 90.525 649.906 87.7065L649.898 87.701Z" fill="#FF8B00"/>
<path d="M755.546 147.598C757.038 147.75 758.456 148.22 759.752 148.988L759.753 148.989C762.108 150.373 763.811 152.65 764.516 155.268L764.557 155.426L764.685 155.529C765.787 156.413 766.706 157.515 767.379 158.781C768.374 160.656 768.772 162.767 768.541 164.855L768.526 164.983L768.576 165.102C768.739 165.498 768.883 165.898 769.003 166.305L769.116 166.715C769.374 167.74 769.47 168.798 769.409 169.863L769.406 169.924L769.416 169.984C769.54 170.637 769.609 171.288 769.61 171.941L769.61 172.016L769.632 172.088C769.876 172.878 770.028 173.692 770.078 174.521L770.114 175.115C770.118 176.523 769.842 177.923 769.294 179.217L769.264 179.287L769.257 179.362C769.255 179.379 769.251 179.401 769.242 179.445C769.237 179.476 769.229 179.522 769.223 179.573C768.296 184.657 763.9 188.249 758.765 188.123L758.764 188.122L753.176 187.99C752.903 187.983 752.629 187.968 752.367 187.942C750.643 187.765 749.009 187.152 747.604 186.195L747.195 185.917L746.912 186.323C744.822 189.331 741.219 191.139 737.345 190.742L731.032 190.096C728.993 189.887 727.034 189.122 725.367 187.917L725.122 187.741L724.852 187.874C723.131 188.726 721.19 189.088 719.231 188.888L716.006 188.558C711.767 188.124 708.327 185.115 707.134 181.194L707.043 180.893L706.732 180.844L706.245 180.759C705.762 180.664 705.291 180.541 704.833 180.392L704.735 180.36L704.632 180.369C703.682 180.457 702.742 180.45 701.831 180.356C701.272 180.299 700.723 180.209 700.185 180.086L699.81 179.999L699.631 180.339C697.713 183.98 693.73 186.277 689.409 185.834L686.183 185.504C683.139 185.192 680.451 183.571 678.747 181.124L678.518 180.794L678.146 180.948C676.596 181.586 674.918 181.827 673.219 181.653L654.318 179.717L654.168 179.818C652.174 181.162 649.764 181.775 647.346 181.527L644.176 181.203C639.971 180.772 636.449 177.753 635.271 173.768L635.224 173.61L635.092 173.511L634.838 173.312C633.58 172.298 632.565 170.999 631.887 169.528L631.81 169.36L631.642 169.283C627.689 167.458 625.188 163.223 625.642 158.751L625.934 155.866L625.989 155.424C626.646 150.881 630.226 147.331 634.633 146.622L634.839 146.588L634.96 146.418L637.132 143.365C639.297 140.339 642.933 138.69 646.621 139.068L650.307 139.445C653.15 139.736 655.715 141.196 657.437 143.409L657.675 143.716L658.031 143.561C659.628 142.866 661.407 142.581 663.185 142.763L671.515 143.616C672.96 143.764 674.347 144.217 675.594 144.933L675.753 145.025L675.933 144.991C676.901 144.813 677.888 144.772 678.867 144.873L683.825 145.38L683.968 145.292C685.884 144.116 688.115 143.6 690.393 143.833L693.62 144.164C696.697 144.479 699.403 146.135 701.098 148.602L701.265 148.845L701.558 148.817C702.237 148.751 702.923 148.753 703.603 148.823L706.829 149.153C707.225 149.194 707.614 149.255 707.991 149.34L708.051 149.353L708.111 149.352C708.498 149.345 708.892 149.364 709.287 149.405L712.042 149.687L712.208 149.538C714.366 147.586 717.281 146.593 720.223 146.894L723.448 147.225C724.735 147.356 725.97 147.72 727.1 148.301L727.289 148.399L727.49 148.331C728.908 147.846 730.428 147.664 731.918 147.816L739.648 148.608C741.978 148.846 744.127 149.766 745.886 151.27L746.268 151.596L746.593 151.212C748.803 148.598 752.15 147.25 755.546 147.598Z" fill="white" stroke="#C4C4C4"/>
<path d="M766.73 174.777C766.681 174.008 766.509 173.276 766.233 172.583C766.293 171.79 766.227 170.984 766.016 170.206C766.124 169.354 766.08 168.473 765.866 167.595C765.685 166.869 765.388 166.188 765.012 165.584C765.459 163.89 765.271 162.061 764.418 160.459C763.743 159.188 762.715 158.191 761.49 157.541C761.323 155.296 760.091 153.196 758.047 151.995C757.155 151.465 756.184 151.16 755.2 151.058C752.951 150.826 750.662 151.686 749.122 153.508L745.971 157.234C745.554 156.053 744.853 154.97 743.872 154.076C742.599 152.927 741.019 152.226 739.294 152.048L731.564 151.251C729.896 151.079 728.307 151.509 727.006 152.365C725.95 151.436 724.603 150.809 723.102 150.654L719.876 150.322C717.215 150.047 714.753 151.299 713.349 153.375C712.965 153.265 712.571 153.189 712.166 153.147L708.94 152.814C708.521 152.771 708.105 152.763 707.7 152.792C707.309 152.681 706.901 152.604 706.482 152.561L703.256 152.228C701.867 152.085 700.54 152.365 699.379 152.952C698.707 150.125 696.317 147.892 693.272 147.578L690.046 147.245C688.049 147.039 686.169 147.701 684.761 148.913L678.519 148.269C677.318 148.146 676.156 148.33 675.117 148.767C674.049 147.816 672.696 147.174 671.167 147.016L662.837 146.157C660.365 145.902 658.041 146.971 656.598 148.816C656.471 148.675 656.359 148.523 656.225 148.388C656.18 148.341 656.129 148.294 656.084 148.247C655.985 147.833 655.857 147.424 655.679 147.024C654.667 144.692 652.481 143.088 649.953 142.827L646.266 142.447C643.767 142.189 641.319 143.294 639.848 145.342L636.607 149.873C632.895 149.674 629.637 152.428 629.256 156.179L628.963 159.055C628.598 162.645 631 165.877 634.429 166.64C634.894 168.732 636.294 170.503 638.217 171.437C638.527 174.707 641.109 177.42 644.495 177.769L647.665 178.096C649.823 178.319 651.879 177.527 653.324 176.085C653.634 176.159 653.951 176.227 654.28 176.261L673.537 178.247C675.157 178.414 676.695 178.007 677.976 177.206C678.163 177.239 678.357 177.274 678.545 177.293L680.626 177.508C681.52 179.955 683.738 181.81 686.503 182.095L689.729 182.428C693.583 182.825 697.03 180.013 697.423 176.15L697.525 175.142C698.77 176.154 700.328 176.796 702.066 176.975C703.058 177.077 704.084 177.049 705.123 176.887C705.935 177.233 706.814 177.465 707.743 177.561C708.497 177.638 709.266 177.64 710.05 177.565C709.725 181.386 712.506 184.777 716.325 185.171L719.551 185.503C721.834 185.739 723.972 184.842 725.415 183.273C727.012 185.474 729.32 186.511 731.351 186.72L737.664 187.371C741.518 187.769 744.965 184.957 745.358 181.094L745.424 180.443C746.006 180.687 746.61 180.848 747.237 180.934C748.329 182.956 750.354 184.353 752.693 184.594C752.874 184.613 753.056 184.631 753.239 184.629L758.828 184.767C762.276 184.854 765.276 182.413 765.897 179.012C765.933 178.796 765.962 178.587 765.983 178.377C766.532 177.281 766.806 176.043 766.724 174.769L766.73 174.777Z" fill="#FFFECC"/>
<path d="M737.634 187.73L731.322 187.079C729.003 186.84 726.866 185.658 725.387 183.822C723.821 185.351 721.7 186.086 719.521 185.862L716.295 185.529C712.455 185.133 709.571 181.781 709.678 177.959C708.016 178.063 706.465 177.84 705.077 177.265C702.392 177.653 699.786 177.186 697.803 175.808L697.764 176.193C697.352 180.244 693.728 183.201 689.685 182.784L686.459 182.452C683.708 182.168 681.396 180.409 680.373 177.843L678.502 177.65C678.341 177.633 678.188 177.61 678.036 177.58C676.66 178.414 675.093 178.762 673.494 178.597L654.237 176.611C653.985 176.585 653.721 176.543 653.425 176.47C651.864 177.943 649.76 178.659 647.623 178.439L644.453 178.112C641.031 177.759 638.3 175.059 637.884 171.657C636.034 170.696 634.653 168.948 634.139 166.922C630.603 166.027 628.243 162.665 628.614 159.012L628.907 156.136C629.3 152.273 632.584 149.394 636.432 149.508L639.565 145.135C641.103 142.989 643.683 141.826 646.302 142.097L649.988 142.477C652.635 142.75 654.933 144.436 655.997 146.88C656.162 147.265 656.298 147.66 656.399 148.06L656.469 148.131C656.515 148.171 656.552 148.217 656.591 148.256C658.163 146.46 660.479 145.546 662.874 145.793L671.204 146.652C672.677 146.804 674.05 147.391 675.187 148.35C676.251 147.943 677.417 147.795 678.555 147.912L684.651 148.541C686.184 147.271 688.106 146.684 690.089 146.889L693.315 147.221C696.283 147.527 698.767 149.608 699.621 152.447C700.78 151.944 702.042 151.742 703.306 151.872L706.532 152.205C706.944 152.248 707.352 152.325 707.75 152.437C708.162 152.409 708.578 152.416 708.99 152.459L712.216 152.791C712.551 152.826 712.884 152.882 713.214 152.965C714.757 150.84 717.308 149.689 719.926 149.959L723.152 150.292C724.591 150.44 725.93 151.003 727.051 151.917C728.419 151.09 730.03 150.725 731.615 150.889L739.345 151.686C741.139 151.871 742.794 152.6 744.125 153.805C744.983 154.587 745.644 155.511 746.103 156.548L748.871 153.27C750.443 151.409 752.827 150.446 755.25 150.696C756.311 150.805 757.315 151.135 758.233 151.682C760.256 152.881 761.596 154.971 761.83 157.315C763.065 158.008 764.062 159.03 764.732 160.28C765.591 161.896 765.826 163.745 765.392 165.517C765.76 166.135 766.031 166.799 766.206 167.504C766.428 168.375 766.485 169.272 766.379 170.173C766.576 170.943 766.651 171.729 766.599 172.522C766.879 173.237 767.043 173.983 767.086 174.744C767.166 176.032 766.908 177.321 766.339 178.478C766.318 178.681 766.292 178.876 766.257 179.078C765.602 182.673 762.479 185.215 758.834 185.122L753.245 184.984C750.648 184.921 748.302 183.498 747.027 181.259C746.582 181.192 746.156 181.085 745.74 180.943L745.72 181.132C745.308 185.184 741.684 188.141 737.642 187.724L737.634 187.73ZM725.456 182.733L725.71 183.077C727.066 184.943 729.137 186.146 731.4 186.38L737.712 187.031C741.371 187.408 744.649 184.734 745.021 181.067L745.135 179.947L745.575 180.134C746.109 180.359 746.686 180.517 747.291 180.601L747.466 180.619L747.548 180.783C748.682 182.887 750.837 184.241 753.251 184.299L758.84 184.437C762.14 184.523 764.964 182.219 765.555 178.97C765.59 178.769 765.617 178.566 765.638 178.363L765.645 178.3L765.672 178.24C766.203 177.177 766.451 175.993 766.374 174.804C766.327 174.085 766.172 173.391 765.902 172.719L765.874 172.646L765.882 172.562C765.939 171.797 765.868 171.04 765.674 170.306L765.653 170.24L765.66 170.17C765.766 169.332 765.717 168.5 765.517 167.687C765.347 167.005 765.073 166.361 764.703 165.772L764.624 165.643L764.66 165.498C765.095 163.86 764.897 162.129 764.097 160.625C763.463 159.442 762.502 158.48 761.317 157.856L761.142 157.767L761.127 157.574C760.961 155.386 759.743 153.415 757.859 152.309C757.027 151.82 756.119 151.514 755.156 151.415C752.963 151.188 750.807 152.062 749.388 153.74L745.842 157.936L745.64 157.356C745.229 156.196 744.556 155.179 743.633 154.342C742.418 153.241 740.905 152.575 739.257 152.405L731.528 151.608C730.012 151.452 728.471 151.83 727.194 152.667L726.974 152.814L726.773 152.638C725.724 151.717 724.441 151.153 723.065 151.011L719.839 150.678C717.395 150.426 715.017 151.539 713.638 153.582L713.497 153.793L713.257 153.726C712.886 153.624 712.505 153.55 712.128 153.511L708.902 153.178C708.511 153.138 708.117 153.132 707.726 153.163L707.661 153.17L707.6 153.15C707.223 153.04 706.836 152.965 706.445 152.925L703.219 152.592C701.955 152.461 700.682 152.698 699.536 153.28L699.142 153.48L699.038 153.045C698.38 150.282 696.05 148.225 693.236 147.934L690.01 147.602C688.173 147.412 686.394 147.978 684.987 149.184L684.871 149.285L678.475 148.625C677.379 148.512 676.262 148.673 675.245 149.098L675.039 149.183L674.877 149.039C673.823 148.096 672.52 147.516 671.124 147.372L662.793 146.513C660.503 146.277 658.283 147.222 656.864 149.041L656.604 149.375L656.186 148.901C656.117 148.816 656.048 148.731 655.965 148.651L655.753 148.446L655.728 148.344C655.634 147.946 655.504 147.557 655.345 147.18C654.385 144.967 652.303 143.444 649.908 143.197L646.221 142.817C643.847 142.572 641.518 143.626 640.128 145.568L636.773 150.25L636.584 150.231C633.026 150.047 629.964 152.681 629.603 156.229L629.311 159.105C628.967 162.485 631.199 165.579 634.505 166.309L634.725 166.36L634.774 166.577C635.216 168.546 636.559 170.255 638.368 171.134L638.542 171.223L638.557 171.422C638.857 174.579 641.366 177.108 644.522 177.433L647.692 177.76C649.682 177.965 651.644 177.27 653.072 175.854L653.213 175.713L653.406 175.761C653.75 175.846 654.041 175.898 654.313 175.926L673.571 177.912C675.058 178.065 676.512 177.72 677.785 176.925L677.898 176.852L678.029 176.88C678.21 176.912 678.39 176.945 678.571 176.964L680.875 177.201L680.953 177.408C681.843 179.833 683.98 181.503 686.536 181.767L689.762 182.099C693.42 182.477 696.698 179.802 697.071 176.135L697.239 174.484L697.74 174.896C699.636 176.442 702.312 176.987 705.07 176.571L705.171 176.553L705.266 176.592C706.686 177.198 708.295 177.399 710.019 177.237L710.44 177.196L710.397 177.616C710.093 181.226 712.769 184.472 716.365 184.843L719.591 185.176C721.693 185.393 723.719 184.619 725.162 183.056L725.455 182.74L725.456 182.733Z" fill="#3700FF"/>
<path d="M636.257 156.93L644.554 157.794L644.756 155.819L644.21 156.534L640.77 156.175L645.566 149.474L649.25 149.858L647.717 151.886C648.285 151.924 648.904 152.074 649.576 152.328C650.248 152.582 650.811 152.938 651.259 153.388C651.707 153.838 651.906 154.369 651.845 154.972C651.777 155.63 651.335 156.37 650.518 157.184L647.895 156.911L647.772 158.116L655.496 158.921L655.202 161.8L635.964 159.795L636.259 156.916L636.257 156.93ZM648.437 162.993C649.002 163.052 649.404 163.193 649.649 163.409C649.895 163.626 649.988 164.025 649.931 164.586C649.922 164.677 649.877 164.906 649.805 165.266L648.378 171.157L645.21 170.827L645.742 165.622L641.291 165.158L641.585 162.278L648.437 162.993ZM647.998 155.966L647.948 156.456C648.429 155.897 648.688 155.429 648.727 155.043C648.767 154.658 648.6 154.357 648.228 154.134C647.856 153.912 647.262 153.722 646.453 153.56L644.886 155.641L647.998 155.966Z" fill="#3700FF"/>
<path d="M663.321 167.246L663.685 163.688L666.909 164.024L666.545 167.582L674.542 168.415L674.248 171.293L655.001 169.288L655.296 166.41L663.321 167.246ZM670.462 154.039L670.167 156.918L665.443 156.425L665.04 160.368L669.764 160.86L669.47 163.739L663.161 163.082C662.436 163.006 661.963 162.249 661.751 160.804C661.539 159.359 661.533 157.689 661.728 155.791C661.817 154.915 661.948 154.044 662.136 153.179L670.461 154.046L670.462 154.039Z" fill="#3700FF"/>
<path d="M677.831 155.262L684.682 155.976C685.226 156.033 685.635 156.174 685.895 156.393C686.154 156.611 686.264 156.99 686.209 157.523C686.187 157.74 686.133 157.99 686.05 158.257L682.575 170.663L679.275 170.319L681.988 158.605L677.536 158.141L677.831 155.262ZM691.913 161.049L694.341 161.302L694.047 164.182L691.619 163.929L690.44 175.47L687.216 175.134L689.35 154.246L692.574 154.582L691.913 161.049Z" fill="#3700FF"/>
<path d="M702.566 159.209L705.79 159.545L705.538 162.011L707.994 162.267L708.246 159.801L711.47 160.137L711.218 162.603L713.675 162.859L713.927 160.393L717.151 160.729L716.084 171.165L712.86 170.83L713.025 169.212C712.18 169.753 711.366 170.129 710.589 170.345C709.812 170.562 709.107 170.63 708.472 170.563C707.963 170.51 707.627 170.348 707.472 170.07C707.317 169.792 707.268 169.376 707.326 168.809L707.345 168.62C706.5 169.162 705.686 169.537 704.909 169.753C704.132 169.97 703.427 170.038 702.792 169.972C702.282 169.919 701.946 169.756 701.791 169.478C701.637 169.2 701.587 168.784 701.645 168.217L702.567 159.202L702.566 159.209ZM705.031 166.97C705.548 166.748 706 166.533 706.38 166.332C706.76 166.131 707.189 165.864 707.661 165.524L707.757 164.592L705.3 164.336L705.031 166.97ZM710.704 167.561C711.221 167.339 711.673 167.124 712.053 166.923C712.433 166.722 712.863 166.455 713.335 166.115L713.43 165.183L710.974 164.927L710.704 167.561ZM721.735 164.109L724.163 164.362L723.869 167.241L721.44 166.988L720.261 178.524L717.037 178.188L719.172 157.308L722.396 157.644L721.735 164.109Z" fill="#3700FF"/>
<path d="M725 167.128L744.244 169.134L743.95 172.013L724.706 170.007L725 167.128ZM730.876 158.21L738.6 159.015C738.838 159.04 739.034 159.124 739.195 159.268C739.357 159.412 739.423 159.589 739.403 159.785C739.377 160.045 739.19 160.28 738.836 160.505L736.248 162.091L738.265 162.301C738.558 162.331 738.775 162.411 738.932 162.533C739.081 162.662 739.15 162.818 739.131 163C739.103 163.273 738.894 163.527 738.503 163.763L735.912 165.376L739.352 165.735L739.131 167.9L731.463 167.1C731.009 167.053 730.663 166.925 730.423 166.716C730.183 166.507 730.08 166.277 730.107 166.017C730.146 165.632 730.417 165.327 730.919 165.104L733.485 164.012L731.413 163.796C731.12 163.765 730.902 163.686 730.759 163.565C730.617 163.437 730.554 163.295 730.571 163.127C730.601 162.833 730.832 162.574 731.258 162.342L733.821 160.726L730.653 160.396L730.877 158.203L730.876 158.21ZM733.948 177.003L738.672 177.495L738.378 180.375L732.07 179.717C731.344 179.642 730.855 179.046 730.61 177.93C730.364 176.814 730.327 175.45 730.491 173.846C730.566 173.117 730.69 172.316 730.877 171.45L734.477 171.826L733.948 177.003Z" fill="#3700FF"/>
<path d="M754.491 157.99L746.791 167.127L754.337 166.044L748.159 173.936L759.054 169.267L753.736 169.737L758.228 163.712L752.221 164.026" fill="#3700FF"/>
<path d="M759.237 171.988L754.152 174.394L757.598 175.41L753.413 177.577L759 177.722L756.624 176.874L759.724 175.176L757.086 174.131" fill="#3700FF"/>
<defs>
<filter id="filter0_d_3954_194" x="769.273" y="51.2325" width="142.792" height="137.151" filterUnits="userSpaceOnUse" color-interpolation-filters="sRGB">
<feFlood flood-opacity="0" result="BackgroundImageFix"/>
<feColorMatrix in="SourceAlpha" type="matrix" values="0 0 0 0 0 0 0 0 0 0 0 0 0 0 0 0 0 0 127 0" result="hardAlpha"/>
<feOffset dx="9.55597" dy="9.55597"/>
<feGaussianBlur stdDeviation="19.1119"/>
<feColorMatrix type="matrix" values="0 0 0 0 0.282353 0 0 0 0 0.898039 0 0 0 0 0.662745 0 0 0 0.65 0"/>
<feBlend mode="normal" in2="BackgroundImageFix" result="effect1_dropShadow_3954_194"/>
<feBlend mode="normal" in="SourceGraphic" in2="effect1_dropShadow_3954_194" result="shape"/>
</filter>
<linearGradient id="paint0_linear_3954_194" x1="310" y1="-45.7891" x2="340.89" y2="340.598" gradientUnits="userSpaceOnUse">
<stop stop-color="#19E6B3"/>
<stop offset="1" stop-color="#FEFFC3"/>
</linearGradient>
<linearGradient id="paint1_linear_3954_194" x1="310" y1="-45.7891" x2="340.89" y2="340.598" gradientUnits="userSpaceOnUse">
<stop stop-color="#19E6B3"/>
<stop offset="1" stop-color="#FEFFC3"/>
</linearGradient>
<linearGradient id="paint2_linear_3954_194" x1="821.49" y1="84.6128" x2="865.673" y2="190.287" gradientUnits="userSpaceOnUse">
<stop stop-color="#08EDB3"/>
<stop offset="0.582352" stop-color="#08EDB3"/>
<stop offset="0.899112" stop-color="#0AD9A5"/>
</linearGradient>
</defs>
</svg>
