<svg width="28" height="28" viewBox="0 0 28 28" fill="none" xmlns="http://www.w3.org/2000/svg">
<rect x="1" y="1" width="26" height="26" rx="3" stroke="#E8E8E8" stroke-width="2" stroke-dasharray="7 7"/>
<path d="M7.25003 13.7499C6.35087 12.8508 5.90129 11.7674 5.90129 10.4999C5.90129 9.23245 6.35087 8.14913 7.25003 7.24997C8.14919 6.35081 9.23251 5.90123 10.5 5.90123C11.7675 5.90123 12.8508 6.35081 13.75 7.24997L15.7 9.19995C15.8841 9.38412 15.9762 9.60078 15.9762 9.84994C15.9762 10.0991 15.8841 10.3158 15.7 10.4999C15.5158 10.6841 15.2991 10.7762 15.05 10.7762C14.8008 10.7762 14.5841 10.6841 14.4 10.4999L12.45 8.54996C11.9083 8.0083 11.2583 7.73746 10.5 7.73746C9.74167 7.73746 9.09168 8.0083 8.55002 8.54996C8.00836 9.09162 7.73753 9.74161 7.73753 10.4999C7.73753 11.2583 8.00836 11.9083 8.55002 12.4499L10.5 14.3999C10.6842 14.5841 10.7762 14.8007 10.7762 15.0499C10.7762 15.2991 10.6842 15.5157 10.5 15.6999C10.3158 15.8841 10.0992 15.9761 9.85001 15.9761C9.60084 15.9761 9.38418 15.8841 9.20001 15.6999L7.25003 13.7499ZM11.15 12.4499C10.9658 12.2658 10.8737 12.0491 10.8737 11.7999C10.8737 11.5508 10.9658 11.3341 11.15 11.1499C11.3342 10.9658 11.5508 10.8737 11.8 10.8737C12.0492 10.8737 12.2658 10.9658 12.45 11.1499L16.3499 15.0499C16.5341 15.2341 16.6262 15.4507 16.6262 15.6999C16.6262 15.9491 16.5341 16.1657 16.3499 16.3499C16.1658 16.534 15.9491 16.6261 15.7 16.6261C15.4508 16.6261 15.2341 16.534 15.05 16.3499L11.15 12.4499ZM11.8 18.2999C11.6158 18.1157 11.5237 17.899 11.5237 17.6499C11.5237 17.4007 11.6158 17.184 11.8 16.9999C11.9842 16.8157 12.2008 16.7236 12.45 16.7236C12.6991 16.7236 12.9158 16.8157 13.1 16.9999L15.05 18.9499C15.5916 19.4915 16.2416 19.7624 16.9999 19.7624C17.7583 19.7624 18.4083 19.4915 18.9499 18.9499C19.4916 18.4082 19.7624 17.7582 19.7624 16.9999C19.7624 16.2416 19.4916 15.5916 18.9499 15.0499L16.9999 13.0999C16.8158 12.9157 16.7237 12.6991 16.7237 12.4499C16.7237 12.2008 16.8158 11.9841 16.9999 11.7999C17.1841 11.6158 17.4008 11.5237 17.6499 11.5237C17.8991 11.5237 18.1158 11.6158 18.2999 11.7999L20.2499 13.7499C21.1491 14.6491 21.5986 15.7324 21.5986 16.9999C21.5986 18.2674 21.1491 19.3507 20.2499 20.2498C19.3507 21.149 18.2674 21.5986 16.9999 21.5986C15.7325 21.5986 14.6491 21.149 13.75 20.2498L11.8 18.2999Z" fill="#E8E8E8"/>
</svg>
