<svg width="28" height="28" viewBox="0 0 28 28" fill="none" xmlns="http://www.w3.org/2000/svg">
<g clip-path="url(#clip0_2760_258)">
<path d="M4.24991 13.2498C2.93575 11.9356 2.27867 10.3523 2.27867 8.49982C2.27867 6.64733 2.93575 5.06401 4.24991 3.74985C5.56407 2.43569 7.14739 1.77861 8.99988 1.77861C10.8524 1.77861 12.4357 2.43569 13.7498 3.74985L16.5998 6.59983C16.869 6.86899 17.0036 7.18566 17.0036 7.54982C17.0036 7.91399 16.869 8.23065 16.5998 8.49982C16.3307 8.76898 16.014 8.90357 15.6498 8.90356C15.2857 8.90357 14.969 8.76898 14.6998 8.49982L11.8499 5.64984C11.0582 4.85817 10.1082 4.46234 8.99988 4.46234C7.89155 4.46234 6.94156 4.85817 6.1499 5.64984C5.35823 6.4415 4.9624 7.39149 4.9624 8.49982C4.9624 9.60814 5.35823 10.5581 6.1499 11.3498L8.99988 14.1998C9.26904 14.4689 9.40363 14.7856 9.40363 15.1498C9.40363 15.5139 9.26904 15.8306 8.99988 16.0998C8.73071 16.3689 8.41405 16.5035 8.04988 16.5035C7.68572 16.5035 7.36906 16.3689 7.09989 16.0998L4.24991 13.2498ZM9.94987 11.3498C9.68071 11.0806 9.54612 10.764 9.54612 10.3998C9.54612 10.0356 9.68071 9.71898 9.94987 9.44981C10.219 9.18065 10.5357 9.04606 10.8999 9.04606C11.264 9.04606 11.5807 9.18065 11.8499 9.44981L17.5498 15.1498C17.819 15.4189 17.9536 15.7356 17.9536 16.0998C17.9536 16.4639 17.819 16.7806 17.5498 17.0498C17.2807 17.3189 16.964 17.4535 16.5998 17.4535C16.2357 17.4535 15.919 17.3189 15.6498 17.0498L9.94987 11.3498ZM10.8999 19.8997C10.6307 19.6306 10.4961 19.3139 10.4961 18.9498C10.4961 18.5856 10.6307 18.2689 10.8999 17.9998C11.169 17.7306 11.4857 17.596 11.8499 17.596C12.214 17.596 12.5307 17.7306 12.7999 17.9998L15.6498 20.8497C16.4415 21.6414 17.3915 22.0372 18.4998 22.0372C19.6081 22.0372 20.5581 21.6414 21.3498 20.8497C22.1415 20.0581 22.5373 19.1081 22.5373 17.9998C22.5373 16.8914 22.1415 15.9414 21.3498 15.1498L18.4998 12.2998C18.2307 12.0306 18.0961 11.714 18.0961 11.3498C18.0961 10.9856 18.2307 10.669 18.4998 10.3998C18.769 10.1306 19.0856 9.99606 19.4498 9.99606C19.814 9.99606 20.1306 10.1306 20.3998 10.3998L23.2498 13.2498C24.5639 14.5639 25.221 16.1473 25.221 17.9998C25.221 19.8522 24.5639 21.4356 23.2498 22.7497C21.9356 24.0639 20.3523 24.721 18.4998 24.721C16.6473 24.721 15.064 24.0639 13.7498 22.7497L10.8999 19.8997Z" fill="#5F5F5F"/>
</g>
<defs>
<clipPath id="clip0_2760_258">
<rect width="28" height="28" fill="white"/>
</clipPath>
</defs>
</svg>
