<svg width="96" height="40" viewBox="0 0 96 40" fill="none" xmlns="http://www.w3.org/2000/svg">
<line x1="33" y1="19.5" x2="58" y2="19.5" stroke="#A7A7A7" stroke-dasharray="2 2"/>
<circle cx="20" cy="20" r="20" fill="#11DCA9"/>
<circle cx="76" cy="20" r="20" fill="#A7A7A7"/>
<path d="M22.3242 12.8594V27H19.7656V15.3398H19.6875L16.3867 17.4492V15.125L19.8828 12.8594H22.3242Z" fill="white"/>
<path d="M70.6465 27V25.1641L75.6465 20.3398C77.0723 18.9141 77.8145 18.0742 77.8145 16.8828C77.8145 15.5742 76.7793 14.7344 75.3926 14.7344C73.9277 14.7344 72.9902 15.6523 73.0098 17.0781H70.5879C70.5684 14.4023 72.5801 12.6641 75.4121 12.6641C78.3027 12.6641 80.2559 14.3828 80.2559 16.7656C80.2559 18.3672 79.4746 19.6562 76.7012 22.2734L74.1816 24.7734V24.8711H80.4707V27H70.6465Z" fill="white"/>
</svg>
