<svg width="149" height="91" viewBox="0 0 149 91" fill="none" xmlns="http://www.w3.org/2000/svg">
<path d="M17.1363 40.3872V44.0437H10.6406V58.6635H6.5022V44.0437H0V40.3872H17.1363Z" fill="#F8F8F8"/>
<path d="M32.025 40.3872V44.0437H22.7315V47.294L30.4772 47.3257V50.9823L22.7315 50.9505V55.007H32.025V58.6635H18.6968V40.3872H32.025Z" fill="#F8F8F8"/>
<path d="M45.2046 54.8864H38.3332L36.8825 58.6635H32.9644L39.8033 40.3872H44.136L50.5734 58.6635H46.6552L45.2046 54.8864ZM43.9093 51.5219L41.7656 45.9545L39.622 51.5219H43.9093Z" fill="#F8F8F8"/>
<path d="M70.8314 40.3872V58.6635H66.9133V48.1954L62.749 58.6635H59.6469L55.4826 48.1827V58.6635H51.5645V40.3872H55.8971L61.2012 54.7658L66.5053 40.3872H70.8314Z" fill="#F8F8F8"/>
<path d="M72.8516 58.6635V40.3872H85.979V44.0437H76.9899V47.294H83.9131V50.9505H76.9899V58.6635H72.8516Z" fill="#F8F8F8"/>
<path d="M91.2316 58.6635H87.3911V40.3872H91.2316V58.6635Z" fill="#F8F8F8"/>
<path d="M110.337 51.2997C109.637 56.3846 105.946 59 101.574 59C96.7107 59 92.689 55.7371 92.689 49.4968C92.689 43.2566 96.7107 40 101.574 40C105.972 40 109.391 42.6281 110.246 47.1861H105.952C105.46 44.9071 103.725 43.7835 101.574 43.7835C98.8155 43.7835 96.7107 45.6118 96.7107 49.5032C96.7107 53.3946 98.8026 55.2229 101.574 55.2229C103.893 55.2229 105.823 53.9596 106.127 51.306H110.343L110.337 51.2997Z" fill="#F8F8F8"/>
<path d="M116.023 58.6635H112.182V40.3872H116.023V58.6635Z" fill="#F8F8F8"/>
<path d="M129.383 54.8864H122.512L121.061 58.6635H117.143L123.982 40.3872H128.315L134.752 58.6635H130.834L129.383 54.8864ZM128.088 51.5219L125.944 45.9545L123.801 51.5219H128.088Z" fill="#F8F8F8"/>
<path d="M149 55.0006V58.6572H135.763V40.3809H139.901V55.0006H149Z" fill="#F8F8F8"/>
</svg>
