<svg width="57" height="57" viewBox="0 0 57 57" fill="none" xmlns="http://www.w3.org/2000/svg">
<path d="M29.0083 0.599385C44.3572 0.930202 56.5493 13.6595 56.2185 29.0084L55.7801 49.3453C55.6912 53.4714 52.2724 56.7459 48.1463 56.657L27.8095 56.2187C12.4606 55.8878 0.268526 43.1586 0.599345 27.8096C0.930163 12.4607 13.6594 0.268567 29.0083 0.599385Z" fill="#D9D9D9"/>
<path d="M37.5931 21.9165C36.3576 21.2864 36.2486 21.0422 37.974 18.2397C38.6739 17.1143 38.963 16.5581 39.2977 16.0074C39.4809 15.7155 39.5382 15.242 39.3721 14.9355C39.2965 14.797 39.1903 14.6825 39.1903 14.6825C39.0819 14.5862 38.8937 14.4618 38.6479 14.432L35.8437 14.0922C35.4715 14.0378 35.1554 14.3598 35.1554 14.3598L28.0008 22.7033C27.1861 21.7269 26.1672 20.9106 24.9888 20.3428C23.7534 19.7127 23.6444 19.4685 25.3698 16.666C26.0697 15.5406 26.3588 14.9844 26.6934 14.4337C26.8766 14.1418 26.934 13.6683 26.7679 13.3618C26.6923 13.2233 26.5861 13.1088 26.5861 13.1088C26.4777 13.0125 26.2895 12.8881 26.0437 12.8583L23.2395 12.5185C22.8673 12.4642 22.5511 12.7861 22.5511 12.7861L14.7827 21.8497C13.2902 23.3409 12.196 25.2038 11.9177 27.4242C11.2926 32.4295 14.8498 36.9993 19.8551 37.6244C22.3042 37.9212 24.6416 37.2345 26.4702 35.8671C27.9079 37.6488 30.0022 38.8911 32.4502 39.197C37.4555 39.8221 42.0253 36.2648 42.6504 31.2596C43.1428 27.2729 40.996 23.5668 37.5759 21.9052L37.5931 21.9165Z" fill="#F8F8F8"/>
<path d="M12.2251 25.9502C12.2251 25.9502 13.4783 20.607 17.9542 22.1379C21.8924 23.4756 20.022 28.4589 20.022 28.4589C20.022 28.4589 18.3899 33.4558 14.6964 32.2785C11.003 31.1013 11.7962 27.3366 12.225 25.9594L12.2251 25.9502Z" fill="#191919"/>
<path d="M12.2251 25.9502C12.2251 25.9502 13.4783 20.607 17.9542 22.1379C21.8924 23.4756 20.022 28.4589 20.022 28.4589C20.022 28.4589 18.3899 33.4558 14.6964 32.2785C11.003 31.1013 11.7962 27.3366 12.225 25.9594L12.2251 25.9502Z" fill="black" fill-opacity="0.2"/>
<path d="M27.4358 26.9689C27.4358 26.9689 28.689 21.6257 33.1648 23.1566C37.103 24.4943 35.2327 29.4776 35.2327 29.4776C35.2327 29.4776 33.6005 34.4745 29.9071 33.2972C26.1863 32.1103 27.0069 28.3553 27.4356 26.978L27.4358 26.9689Z" fill="#191919"/>
<path d="M27.4358 26.9689C27.4358 26.9689 28.689 21.6257 33.1648 23.1566C37.103 24.4943 35.2327 29.4776 35.2327 29.4776C35.2327 29.4776 33.6005 34.4745 29.9071 33.2972C26.1863 32.1103 27.0069 28.3553 27.4356 26.978L27.4358 26.9689Z" fill="black" fill-opacity="0.2"/>
</svg>
