<svg width="26" height="26" viewBox="0 0 26 26" fill="none" xmlns="http://www.w3.org/2000/svg">
<path fill-rule="evenodd" clip-rule="evenodd" d="M24.1176 0H1.96058C0.901044 0 0 0.838081 0 1.87157V24.1284C0 25.1619 0.590565 26 1.65011 26H23.8071C24.8688 26 26 25.1619 26 24.1284V1.87157C26 0.840253 25.1771 0 24.1176 0ZM9.90497 9.90497H13.4049V11.6897H13.444C13.9781 10.7279 15.5544 9.75081 17.502 9.75081C21.2429 9.75081 22.2851 11.7375 22.2851 15.4154V22.2873H18.5702V16.0929C18.5702 14.4471 17.9123 13.0011 16.3751 13.0011C14.5079 13.0011 13.6177 14.2647 13.6177 16.3404V22.2873H9.90279V9.90497H9.90497ZM3.7149 22.2873H7.42981V9.90714H3.7149V22.2873ZM7.89228 5.57344C7.89228 6.85662 6.85445 7.89445 5.57127 7.89445C4.2881 7.89445 3.25027 6.85662 3.25027 5.57344C3.25027 4.29027 4.2881 3.25244 5.57127 3.25244C6.85445 3.25244 7.89228 4.29027 7.89228 5.57344Z" fill="#5F5F5F"/>
</svg>
