<svg width="26" height="26" viewBox="0 0 26 26" fill="none" xmlns="http://www.w3.org/2000/svg">
<path d="M8.43722 2.16309H17.5225C20.9835 2.16309 23.7956 4.97519 23.7956 8.43624V17.5215C23.7956 19.1852 23.1347 20.7808 21.9583 21.9573C20.7818 23.1337 19.1862 23.7946 17.5225 23.7946H8.43722C4.97617 23.7946 2.16406 20.9825 2.16406 17.5215V8.43624C2.16406 6.7725 2.82498 5.17689 4.00143 4.00045C5.17787 2.82401 6.77347 2.16309 8.43722 2.16309ZM8.2209 4.32624C7.18823 4.32624 6.19786 4.73647 5.46765 5.46668C4.73744 6.19688 4.32722 7.18725 4.32722 8.21992V17.7378C4.32722 19.8902 6.06856 21.6315 8.2209 21.6315H17.7388C18.7715 21.6315 19.7618 21.2213 20.492 20.4911C21.2222 19.7609 21.6325 18.7705 21.6325 17.7378V8.21992C21.6325 6.06758 19.8911 4.32624 17.7388 4.32624H8.2209ZM18.6581 5.94861C19.0167 5.94861 19.3606 6.09105 19.6141 6.34459C19.8677 6.59814 20.0101 6.94202 20.0101 7.30058C20.0101 7.65915 19.8677 8.00303 19.6141 8.25657C19.3606 8.51012 19.0167 8.65255 18.6581 8.65255C18.2996 8.65255 17.9557 8.51012 17.7021 8.25657C17.4486 8.00303 17.3062 7.65915 17.3062 7.30058C17.3062 6.94202 17.4486 6.59814 17.7021 6.34459C17.9557 6.09105 18.2996 5.94861 18.6581 5.94861ZM12.9798 7.57098C14.4141 7.57098 15.7896 8.14073 16.8038 9.15491C17.818 10.1691 18.3877 11.5446 18.3877 12.9789C18.3877 14.4131 17.818 15.7886 16.8038 16.8028C15.7896 17.817 14.4141 18.3868 12.9798 18.3868C11.5456 18.3868 10.1701 17.817 9.15589 16.8028C8.14171 15.7886 7.57195 14.4131 7.57195 12.9789C7.57195 11.5446 8.14171 10.1691 9.15589 9.15491C10.1701 8.14073 11.5456 7.57098 12.9798 7.57098ZM12.9798 9.73413C12.1193 9.73413 11.294 10.076 10.6855 10.6845C10.077 11.293 9.73511 12.1183 9.73511 12.9789C9.73511 13.8394 10.077 14.6647 10.6855 15.2732C11.294 15.8817 12.1193 16.2236 12.9798 16.2236C13.8404 16.2236 14.6657 15.8817 15.2742 15.2732C15.8827 14.6647 16.2246 13.8394 16.2246 12.9789C16.2246 12.1183 15.8827 11.293 15.2742 10.6845C14.6657 10.076 13.8404 9.73413 12.9798 9.73413Z" fill="#A7A7A7"/>
</svg>
