<svg width="24" height="24" viewBox="0 0 24 24" fill="none" xmlns="http://www.w3.org/2000/svg">
<path d="M12.1842 1.41016H12.1822C9.09016 1.43216 6.70016 2.47316 5.09416 4.51616C3.66616 6.33116 2.93416 8.86416 2.91016 12.0062V12.0082C2.93516 15.1512 3.66616 17.6702 5.09416 19.4852C6.70016 21.5272 9.10316 22.5692 12.1942 22.5902H12.1962C14.9442 22.5712 16.8932 21.8502 18.4992 20.2462C20.6032 18.1432 20.5412 15.5052 19.8462 13.8832C19.3162 12.6492 18.2712 11.6622 16.8702 11.0482C16.6902 8.06316 15.0102 6.32216 12.2502 6.30416C10.6202 6.29416 9.14816 7.02416 8.24716 8.39116L9.90216 9.52716C10.4352 8.71816 11.2792 8.32816 12.2372 8.33716C13.6242 8.34616 14.5372 9.11116 14.7922 10.4542C13.9702 10.331 13.1375 10.2958 12.3082 10.3492C9.66816 10.5012 7.94016 12.0612 8.05516 14.2242C8.17516 16.4862 10.3672 17.7192 12.4482 17.6052C14.9402 17.4682 16.4212 15.6292 16.7722 13.2842C17.3492 13.6572 17.7752 14.1342 18.0162 14.6972C18.4562 15.7222 18.4842 17.4132 17.1012 18.7952C15.8842 20.0112 14.4212 20.5412 12.1892 20.5572C9.71416 20.5392 7.85716 19.7462 6.65216 18.2142C5.52016 16.7742 4.92816 14.6882 4.90616 12.0002C4.92816 9.31216 5.52016 7.22516 6.65216 5.78716C7.85716 4.25416 9.71416 3.46216 12.1892 3.44316C14.6822 3.46216 16.5732 4.25816 17.8252 5.79916C18.5162 6.64916 18.9492 7.66516 19.2382 8.71416L21.1782 8.19716C20.8152 6.85916 20.2412 5.58416 19.3632 4.50316C17.7102 2.46916 15.2812 1.43216 12.1822 1.41016M12.4192 12.3782C13.2332 12.3244 14.0507 12.3768 14.8512 12.5342C14.7112 14.1122 14.0582 15.4812 12.3392 15.5752C11.2272 15.6382 10.1022 15.1412 10.0472 14.1142C10.0072 13.3502 10.5722 12.4842 12.4192 12.3782Z" fill="#A7A7A7"/>
</svg>
