<svg width="44" height="45" viewBox="0 0 44 45" fill="none" xmlns="http://www.w3.org/2000/svg">
<circle cx="22" cy="22.5" r="22" fill="#E8E8E8"/>
<path d="M29.2231 17.5061C28.1673 17.1307 28.0536 16.947 29.1622 14.5669C29.6089 13.6085 29.7876 13.1373 30.0028 12.6781C30.1206 12.4265 30.1206 12.0511 29.9541 11.8235C29.8769 11.7196 29.7795 11.6438 29.7795 11.6438C29.6779 11.5799 29.5196 11.5 29.3206 11.5H27.0384C26.7338 11.5 26.5105 11.7875 26.5105 11.7875L21.6049 19.0755C20.8496 18.3846 19.9522 17.8415 18.9532 17.5061C17.8974 17.1307 17.7837 16.947 18.8923 14.5669C19.339 13.6085 19.5177 13.1373 19.7329 12.6781C19.8506 12.4265 19.8506 12.0511 19.6842 11.8235C19.607 11.7196 19.5095 11.6438 19.5095 11.6438C19.408 11.5799 19.2496 11.5 19.0507 11.5H16.7684C16.4639 11.5 16.2405 11.7875 16.2405 11.7875L10.9086 19.7104C9.85685 21.0322 9.1665 22.6096 9.1665 24.3947C9.1665 28.412 12.4761 31.6667 16.5613 31.6667C18.5552 31.6667 20.3664 30.888 21.6943 29.626C23.0262 30.888 24.8333 31.6667 26.8272 31.6667C30.9125 31.6667 34.2221 28.412 34.2221 24.3947C34.2221 21.2 32.1266 18.4845 29.215 17.5101L29.2231 17.5061Z" fill="#D9D9D9"/>
</svg>
