<svg width="159" height="122" viewBox="0 0 159 122" fill="none" xmlns="http://www.w3.org/2000/svg">
<path d="M126.951 36.1585C120.276 33.8958 119.552 32.787 126.59 18.4639C129.43 12.6939 130.571 9.86553 131.93 7.08236C132.683 5.56633 132.686 3.32622 131.647 1.94595C131.164 1.31239 130.56 0.85984 130.56 0.85984C129.907 0.475174 128.892 0 127.658 0L113.212 0C111.276 0 109.87 1.71968 109.87 1.71968L78.7606 45.5941C73.9999 41.4307 68.3184 38.1723 61.9817 36.1585C55.3066 33.8958 54.5824 32.787 61.6207 18.4639C64.4603 12.6939 65.6017 9.86553 66.9608 7.08236C67.7132 5.56633 67.7165 3.32622 66.6781 1.94595C66.1951 1.31239 65.5908 0.85984 65.5908 0.85984C64.938 0.475174 63.9225 0 62.6642 0L48.2185 0C46.2827 0 44.8768 1.71968 44.8768 1.71968L11.0514 49.3955C4.38539 57.3603 0.0159042 66.8412 3.99572e-05 77.5892C-0.0356295 101.755 20.8902 121.351 46.7327 121.351C59.3637 121.351 70.8158 116.667 79.2477 109.064C87.657 116.667 99.0954 121.351 111.726 121.351C137.569 121.351 158.553 101.755 158.588 77.5892C158.617 58.356 145.381 42.019 126.951 36.1585Z" fill="#F2F2F2"/>
</svg>
