<svg width="29" height="24" viewBox="0 0 29 24" fill="none" xmlns="http://www.w3.org/2000/svg">
<path d="M23.2141 7.14772C21.9921 6.70099 21.8605 6.48238 23.1436 3.6499C23.6606 2.50931 23.8674 1.94852 24.1165 1.40198C24.2528 1.10257 24.2528 0.655841 24.0601 0.38495C23.9708 0.261386 23.858 0.171089 23.858 0.171089C23.7405 0.0950498 23.5572 0 23.3269 0H20.6854C20.3329 0 20.0744 0.342178 20.0744 0.342178L14.3966 9.01545C13.5224 8.19327 12.4836 7.54693 11.3274 7.14772C10.1054 6.70099 9.97374 6.48238 11.2569 3.6499C11.7739 2.50931 11.9807 1.94852 12.2298 1.40198C12.3661 1.10257 12.3661 0.655841 12.1734 0.38495C12.0841 0.261386 11.9713 0.171089 11.9713 0.171089C11.8538 0.0950498 11.6705 0 11.4402 0H8.79871C8.44619 0 8.18768 0.342178 8.18768 0.342178L2.01637 9.77109C0.799024 11.3442 0 13.2214 0 15.3457C0 20.1267 3.83063 24 8.55899 24C10.8668 24 12.9631 23.0733 14.5 21.5715C16.0417 23.0733 18.1332 24 20.441 24C25.1694 24 29 20.1267 29 15.3457C29 11.5438 26.5747 8.31208 23.2047 7.15247L23.2141 7.14772Z" fill="#5EEDC9"/>
</svg>
