<svg width="79" height="68" viewBox="0 0 79 68" fill="none" xmlns="http://www.w3.org/2000/svg">
<g filter="url(#filter0_d_4538_449)">
<path d="M57.0538 23.363C54.5606 22.464 54.2901 22.0234 56.9189 16.3322C57.9795 14.0395 58.4059 12.9156 58.9135 11.8098C59.1945 11.2074 59.1958 10.3173 58.8079 9.76882C58.6275 9.51708 58.4018 9.33726 58.4018 9.33726C58.158 9.18441 57.7787 8.99561 57.3177 8.99561H51.9222C51.1992 8.99561 50.674 9.67891 50.674 9.67891L39.0544 27.1122C37.2762 25.4579 35.1542 24.1632 32.7874 23.363C30.2942 22.464 30.0237 22.0234 32.6525 16.3322C33.7131 14.0395 34.1395 12.9156 34.6471 11.8098C34.9281 11.2074 34.9294 10.3173 34.5415 9.76882C34.3611 9.51708 34.1354 9.33726 34.1354 9.33726C33.8916 9.18441 33.5123 8.99561 33.0423 8.99561H27.6468C26.9237 8.99561 26.3986 9.67891 26.3986 9.67891L13.7646 28.6227C11.2749 31.7875 9.64284 35.5547 9.63691 39.8254C9.62359 49.4276 17.4395 57.2137 27.0918 57.2137C31.8095 57.2137 36.087 55.3526 39.2363 52.3317C42.3773 55.3526 46.6495 57.2137 51.3673 57.2137C61.0196 57.2137 68.8571 49.4276 68.8704 39.8254C68.881 32.1831 63.9373 25.6917 57.0538 23.363Z" fill="#8BF3D9"/>
<path d="M33.0478 4.81788C34.4409 4.81788 35.511 5.30498 36.1238 5.65674L36.358 5.79737L36.557 5.92237L36.7414 6.06885L34.1353 9.3374C36.741 6.06891 36.7419 6.06945 36.7423 6.06983H36.7433L36.7453 6.07178C36.7465 6.07275 36.7479 6.07371 36.7492 6.07471C36.7518 6.07678 36.7542 6.07935 36.757 6.08155C36.7625 6.08596 36.7685 6.09031 36.7745 6.09522C36.7867 6.10511 36.8002 6.11654 36.8145 6.12842C36.8431 6.15209 36.8764 6.1797 36.913 6.21143C36.9857 6.27444 37.0759 6.35647 37.1774 6.45459C37.368 6.6391 37.6554 6.93839 37.9379 7.33252L37.9534 7.35401C38.7388 8.46466 38.9869 9.67885 39.0202 10.6147C39.0538 11.5585 38.8839 12.5891 38.4419 13.5474L38.4429 13.5483C38.2182 14.0378 38.018 14.5169 37.6964 15.2671C37.3841 15.9954 36.9947 16.8869 36.4435 18.0786C36.0967 18.8293 35.8204 19.4498 35.601 19.9653C36.4311 20.3162 37.2321 20.7174 38.0017 21.1636L47.1995 7.36572L47.2768 7.24854L47.3629 7.13623L50.6739 9.6792C47.4344 7.19146 47.3656 7.1365 47.3649 7.13428L47.3668 7.13233C47.368 7.13087 47.3686 7.12893 47.3698 7.12744C47.372 7.12457 47.3743 7.12163 47.3766 7.11865C47.3814 7.11246 47.3871 7.10574 47.3923 7.09912C47.4026 7.08598 47.4136 7.07193 47.4255 7.05713C47.4495 7.02732 47.4772 6.99371 47.5077 6.95752C47.5684 6.8856 47.6435 6.79998 47.7327 6.70557C47.907 6.52102 48.1574 6.27822 48.4797 6.02979C49.0559 5.58571 50.2593 4.81797 51.9277 4.81788H57.3232C58.7156 4.81788 59.7878 5.3105 60.3933 5.65869L60.6246 5.79737L60.8236 5.92237L61.008 6.06885L58.4019 9.3374C61.0076 6.06891 61.0085 6.06945 61.0089 6.06983H61.0099L61.0109 6.07178C61.0121 6.07271 61.0136 6.07375 61.0148 6.07471L61.0411 6.09522C61.0533 6.10506 61.0659 6.11661 61.0801 6.12842C61.1087 6.15208 61.1421 6.17969 61.1787 6.21143C61.2514 6.27448 61.3424 6.35636 61.444 6.45459C61.587 6.59297 61.7841 6.7962 61.9929 7.05518L62.2045 7.33252L62.2201 7.35401C63.0053 8.46464 63.2525 9.67888 63.2858 10.6147C63.3194 11.5585 63.1505 12.5891 62.7085 13.5474C62.4838 14.037 62.2838 14.5166 61.962 15.2671C61.6497 15.9954 61.2613 16.8869 60.7101 18.0786C60.3635 18.8288 60.087 19.449 59.8676 19.9643C67.6146 23.2342 73.0605 30.8848 73.048 39.8257C73.0313 51.7551 63.3004 61.3908 51.3619 61.3911C46.8631 61.3911 42.6864 60.0197 39.2283 57.6811C35.7641 60.0193 31.5848 61.391 27.0865 61.3911C15.1477 61.3911 5.44279 51.7553 5.45918 39.8257C5.46655 34.5124 7.482 29.9201 10.355 26.2095L22.9241 7.36475L23.0024 7.24756L23.0875 7.13623L26.3985 9.6792C23.1613 7.19323 23.0903 7.13657 23.0895 7.13428L23.0915 7.13233C23.0926 7.13086 23.0932 7.12894 23.0944 7.12744C23.0966 7.12456 23.0989 7.12164 23.1012 7.11865C23.106 7.11246 23.1117 7.10574 23.1169 7.09912C23.1272 7.08598 23.1383 7.07193 23.1502 7.05713C23.1741 7.02731 23.2018 6.99371 23.2323 6.95752C23.293 6.8856 23.3681 6.79998 23.4573 6.70557C23.6317 6.52101 23.882 6.27822 24.2043 6.02979C24.7806 5.5857 25.9839 4.81796 27.6523 4.81788H33.0478Z" stroke="#FFFFEF" stroke-width="8.3545"/>
</g>
<defs>
<filter id="filter0_d_4538_449" x="3.56436e-05" y="1.78218e-05" width="78.5073" height="67.4915" filterUnits="userSpaceOnUse" color-interpolation-filters="sRGB">
<feFlood flood-opacity="0" result="BackgroundImageFix"/>
<feColorMatrix in="SourceAlpha" type="matrix" values="0 0 0 0 0 0 0 0 0 0 0 0 0 0 0 0 0 0 127 0" result="hardAlpha"/>
<feOffset dy="0.641095"/>
<feGaussianBlur stdDeviation="0.641095"/>
<feComposite in2="hardAlpha" operator="out"/>
<feColorMatrix type="matrix" values="0 0 0 0 0.361122 0 0 0 0 0.360715 0 0 0 0 0.360715 0 0 0 0.25 0"/>
<feBlend mode="normal" in2="BackgroundImageFix" result="effect1_dropShadow_4538_449"/>
<feBlend mode="normal" in="SourceGraphic" in2="effect1_dropShadow_4538_449" result="shape"/>
</filter>
</defs>
</svg>
