<svg width="24" height="24" viewBox="0 0 24 24" fill="none" xmlns="http://www.w3.org/2000/svg">
<path d="M6.75 21.6255C6.26875 21.6255 5.85677 21.4542 5.51406 21.1115C5.17135 20.7688 5 20.3568 5 19.8755V10.2505C5 9.7693 5.17135 9.35732 5.51406 9.01461C5.85677 8.6719 6.26875 8.50055 6.75 8.50055H9.375V10.2505H6.75V19.8755H17.25V10.2505H14.625V8.50055H17.25C17.7313 8.50055 18.1432 8.6719 18.4859 9.01461C18.8286 9.35732 19 9.7693 19 10.2505V19.8755C19 20.3568 18.8286 20.7688 18.4859 21.1115C18.1432 21.4542 17.7313 21.6255 17.25 21.6255H6.75ZM11.125 15.5005V5.72242L9.725 7.12242L8.5 5.87555L12 2.37555L15.5 5.87555L14.275 7.12242L12.875 5.72242V15.5005H11.125Z" fill="#191919"/>
<path d="M6.75 21.6255C6.26875 21.6255 5.85677 21.4542 5.51406 21.1115C5.17135 20.7688 5 20.3568 5 19.8755V10.2505C5 9.7693 5.17135 9.35732 5.51406 9.01461C5.85677 8.6719 6.26875 8.50055 6.75 8.50055H9.375V10.2505H6.75V19.8755H17.25V10.2505H14.625V8.50055H17.25C17.7313 8.50055 18.1432 8.6719 18.4859 9.01461C18.8286 9.35732 19 9.7693 19 10.2505V19.8755C19 20.3568 18.8286 20.7688 18.4859 21.1115C18.1432 21.4542 17.7313 21.6255 17.25 21.6255H6.75ZM11.125 15.5005V5.72242L9.725 7.12242L8.5 5.87555L12 2.37555L15.5 5.87555L14.275 7.12242L12.875 5.72242V15.5005H11.125Z" fill="black" fill-opacity="0.2"/>
</svg>
