<svg width="28" height="28" viewBox="0 0 28 28" fill="none" xmlns="http://www.w3.org/2000/svg">
<path d="M7.87467 25.2298C7.31322 25.2298 6.83257 25.0299 6.43275 24.6301C6.03292 24.2303 5.83301 23.7496 5.83301 23.1882V11.959C5.83301 11.3975 6.03292 10.9169 6.43275 10.5171C6.83257 10.1172 7.31322 9.91732 7.87467 9.91732H10.9372V11.959H7.87467V23.1882H20.1247V11.959H17.0622V9.91732H20.1247C20.6861 9.91732 21.1668 10.1172 21.5666 10.5171C21.9664 10.9169 22.1663 11.3975 22.1663 11.959V23.1882C22.1663 23.7496 21.9664 24.2303 21.5666 24.6301C21.1668 25.0299 20.6861 25.2298 20.1247 25.2298H7.87467ZM12.9788 18.084V6.67617L11.3455 8.3095L9.91634 6.85482L13.9997 2.77148L18.083 6.85482L16.6538 8.3095L15.0205 6.67617V18.084H12.9788Z" fill="#5F5F5F"/>
</svg>
