<svg width="24" height="24" viewBox="0 0 24 24" fill="none" xmlns="http://www.w3.org/2000/svg">
<path d="M6.75 21.625C6.26875 21.625 5.85677 21.4536 5.51406 21.1109C5.17135 20.7682 5 20.3562 5 19.875V10.25C5 9.76875 5.17135 9.35677 5.51406 9.01406C5.85677 8.67135 6.26875 8.5 6.75 8.5H9.375V10.25H6.75V19.875H17.25V10.25H14.625V8.5H17.25C17.7312 8.5 18.1432 8.67135 18.4859 9.01406C18.8286 9.35677 19 9.76875 19 10.25V19.875C19 20.3562 18.8286 20.7682 18.4859 21.1109C18.1432 21.4536 17.7312 21.625 17.25 21.625H6.75ZM11.125 15.5V5.72187L9.725 7.12187L8.5 5.875L12 2.375L15.5 5.875L14.275 7.12187L12.875 5.72187V15.5H11.125Z" fill="white"/>
</svg>
