<svg width="16" height="16" viewBox="0 0 16 16" fill="none" xmlns="http://www.w3.org/2000/svg">
<path d="M2.66634 12.6667H13.333V11.3333H2.66634V12.6667ZM6.66634 6.66667C6.66634 6.3 6.7969 5.98611 7.05801 5.725C7.31912 5.46389 7.63301 5.33333 7.99967 5.33333C8.18856 5.33333 8.3469 5.26944 8.47467 5.14167C8.60245 5.01389 8.66634 4.85556 8.66634 4.66667C8.66634 4.47778 8.60245 4.31944 8.47467 4.19167C8.3469 4.06389 8.18856 4 7.99967 4C7.26634 4 6.63856 4.26111 6.11634 4.78333C5.59412 5.30556 5.33301 5.93333 5.33301 6.66667V8C5.33301 8.18889 5.3969 8.34722 5.52467 8.475C5.65245 8.60278 5.81079 8.66667 5.99967 8.66667C6.18856 8.66667 6.3469 8.60278 6.47467 8.475C6.60245 8.34722 6.66634 8.18889 6.66634 8V6.66667ZM4.66634 10H11.333V6.66667C11.333 5.74444 11.008 4.95833 10.358 4.30833C9.70801 3.65833 8.9219 3.33333 7.99967 3.33333C7.07745 3.33333 6.29134 3.65833 5.64134 4.30833C4.99134 4.95833 4.66634 5.74444 4.66634 6.66667V10ZM2.66634 14C2.29967 14 1.98579 13.8694 1.72467 13.6083C1.46356 13.3472 1.33301 13.0333 1.33301 12.6667V11.3333C1.33301 10.9667 1.46356 10.6528 1.72467 10.3917C1.98579 10.1306 2.29967 10 2.66634 10H3.33301V6.66667C3.33301 5.36667 3.78579 4.26389 4.69134 3.35833C5.5969 2.45278 6.69967 2 7.99967 2C9.29967 2 10.4025 2.45278 11.308 3.35833C12.2136 4.26389 12.6663 5.36667 12.6663 6.66667V10H13.333C13.6997 10 14.0136 10.1306 14.2747 10.3917C14.5358 10.6528 14.6663 10.9667 14.6663 11.3333V12.6667C14.6663 13.0333 14.5358 13.3472 14.2747 13.6083C14.0136 13.8694 13.6997 14 13.333 14H2.66634Z" fill="#5F5F5F"/>
</svg>
