<svg width="162" height="95" viewBox="0 0 162 95" fill="none" xmlns="http://www.w3.org/2000/svg">
<path d="M18.5473 75.1704V76.5635C18.5473 77.2972 17.9538 77.8825 17.2284 77.8825H12.8347C12.1011 77.8825 11.5158 78.476 11.5158 79.2014V92.7203C11.5158 93.454 10.9223 94.0392 10.1969 94.0392H8.35865C7.625 94.0392 7.03973 93.4457 7.03973 92.7203V79.2014C7.03973 78.4677 6.44623 77.8825 5.72082 77.8825H1.31893C0.585276 77.8825 0 77.2889 0 76.5635V75.1704C0 74.4368 0.59352 73.8515 1.31893 73.8515H17.2367C17.9703 73.8515 18.5556 74.445 18.5556 75.1704H18.5473Z" fill="#D9D9D9"/>
<path d="M34.6795 75.1705V76.5636C34.6795 77.2972 34.086 77.8825 33.3606 77.8825H25.9335C25.1998 77.8825 24.6145 78.476 24.6145 79.2014V80.1576C24.6145 80.883 25.1998 81.4766 25.9335 81.4766L31.6873 81.5013C32.4127 81.5013 33.0062 82.0948 33.0062 82.8202V84.2133C33.0062 84.947 32.4127 85.5405 31.679 85.5322L25.9417 85.5075C25.2081 85.5075 24.6145 86.0928 24.6145 86.8264V88.6647C24.6145 89.3983 25.208 89.9836 25.9335 89.9836H33.3606C34.0943 89.9836 34.6795 90.5771 34.6795 91.3025V92.6956C34.6795 93.4293 34.086 94.0146 33.3606 94.0146H21.5645C20.8309 94.0146 20.2456 93.421 20.2456 92.6956V75.1375C20.2456 74.4038 20.8391 73.8186 21.5645 73.8186H33.3606C34.0943 73.8186 34.6795 74.4121 34.6795 75.1375V75.1705Z" fill="#D9D9D9"/>
<path d="M48.0419 89.8682H42.4282C41.8759 89.8682 41.3813 90.2061 41.1917 90.7255L40.2685 93.1902C40.0789 93.7095 39.5843 94.0475 39.032 94.0475H37.5894C36.6744 94.0475 36.0315 93.1325 36.3529 92.2752L42.7909 74.717C42.9805 74.1977 43.4751 73.8515 44.0274 73.8515H46.8549C47.4154 73.8515 47.9182 74.206 48.0996 74.7418L54.1584 92.2999C54.4551 93.1572 53.8204 94.0557 52.9137 94.0557H51.4381C50.8858 94.0557 50.3995 93.7178 50.2016 93.1984L49.2784 90.7337C49.0805 90.2226 48.5942 89.8764 48.0419 89.8764V89.8682ZM47.234 85.3014L45.8244 81.5589C45.6184 81.0149 44.8517 81.0149 44.6457 81.5589L43.2278 85.3014C43.0712 85.7136 43.3762 86.1504 43.8131 86.1504H46.6405C47.0774 86.1504 47.3824 85.7136 47.2258 85.3014H47.234Z" fill="#D9D9D9"/>
<path d="M139.13 89.8682H133.517C132.964 89.8682 132.47 90.2061 132.28 90.7255L131.357 93.1902C131.167 93.7095 130.673 94.0475 130.12 94.0475H128.678C127.763 94.0475 127.12 93.1325 127.441 92.2752L133.879 74.717C134.069 74.1977 134.564 73.8515 135.116 73.8515H137.943C138.504 73.8515 139.007 74.206 139.188 74.7418L145.247 92.2999C145.544 93.1572 144.909 94.0557 144.002 94.0557H142.526C141.974 94.0557 141.488 93.7178 141.29 93.1984L140.367 90.7337C140.169 90.2226 139.683 89.8764 139.13 89.8764V89.8682ZM138.322 85.3014L136.913 81.5589C136.707 81.0149 135.94 81.0149 135.734 81.5589L134.316 85.3014C134.16 85.7136 134.465 86.1504 134.901 86.1504H137.729C138.166 86.1504 138.471 85.7136 138.314 85.3014H138.322Z" fill="#D9D9D9"/>
<path d="M76.7196 75.1704V92.7286C76.7196 93.4622 76.1261 94.0475 75.4007 94.0475H73.818C73.0761 94.0475 72.4743 93.4457 72.4743 92.7038V89.4972C72.4743 88.0381 70.4547 87.659 69.9189 89.0191L68.2867 93.1984C68.0889 93.7095 67.6025 94.0392 67.0585 94.0392H65.5088C64.9647 94.0392 64.4783 93.7013 64.2805 93.1984L62.6483 89.0109C62.1208 87.6507 60.0929 88.0299 60.0929 89.489V92.7038C60.0929 93.4457 59.4912 94.0475 58.7493 94.0475H57.1666C56.4329 94.0475 55.8477 93.454 55.8477 92.7286V75.1704C55.8477 74.4368 56.4412 73.8515 57.1666 73.8515H59.6066C60.1589 73.8515 60.6617 74.1977 60.8513 74.7253L64.5525 84.9634C65.1378 86.5791 67.4212 86.5791 68.0065 84.9634L71.7077 74.7253C71.8973 74.206 72.3919 73.8515 72.9524 73.8515H75.3924C76.1261 73.8515 76.7113 74.445 76.7113 75.1704H76.7196Z" fill="#D9D9D9"/>
<path d="M78.9053 92.7204V75.1622C78.9053 74.4286 79.4988 73.8433 80.2242 73.8433H91.806C92.5396 73.8433 93.1249 74.4368 93.1249 75.1622V76.5554C93.1249 77.289 92.5314 77.8743 91.806 77.8743H84.7085C83.9749 77.8743 83.3896 78.4678 83.3896 79.1932V80.1494C83.3896 80.8831 83.9831 81.4683 84.7085 81.4683H89.5638C90.2975 81.4683 90.8827 82.0619 90.8827 82.7873V84.1804C90.8827 84.914 90.2892 85.4993 89.5638 85.4993H84.7085C83.9749 85.4993 83.3896 86.0928 83.3896 86.8182V92.6957C83.3896 93.4293 82.7961 94.0146 82.0707 94.0146H80.2324C79.4988 94.0146 78.9135 93.4211 78.9135 92.6957L78.9053 92.7204Z" fill="#D9D9D9"/>
<path d="M97.4924 94.0475H95.9757C95.242 94.0475 94.6567 93.454 94.6567 92.7286V75.1704C94.6567 74.4368 95.2503 73.8515 95.9757 73.8515H97.4924C98.2261 73.8515 98.8113 74.445 98.8113 75.1704V92.7286C98.8113 93.4622 98.2178 94.0475 97.4924 94.0475Z" fill="#D9D9D9"/>
<path d="M117.894 85.9032C118.752 85.9032 119.411 86.7193 119.18 87.5436C117.927 92.0856 114.267 94.4102 110.022 94.4102C104.755 94.4102 100.394 90.7997 100.394 83.9083C100.394 77.0169 104.747 73.4064 110.022 73.4064C114.218 73.4064 117.581 75.6568 118.966 79.6301C119.255 80.4709 118.595 81.3447 117.705 81.3447H115.743C115.199 81.3447 114.713 81.0067 114.515 80.4956C113.773 78.5502 112.067 77.5857 110.022 77.5857C107.038 77.5857 104.755 79.6053 104.755 83.9001C104.755 88.1948 107.022 90.2144 110.022 90.2144C112.231 90.2144 114.119 89.1345 114.762 86.8676C114.927 86.2906 115.438 85.8785 116.032 85.8785H117.894V85.9032Z" fill="#D9D9D9"/>
<path d="M124.342 94.0475H122.825C122.091 94.0475 121.506 93.454 121.506 92.7286V75.1704C121.506 74.4368 122.099 73.8515 122.825 73.8515H124.342C125.075 73.8515 125.66 74.445 125.66 75.1704V92.7286C125.66 93.4622 125.067 94.0475 124.342 94.0475Z" fill="#D9D9D9"/>
<path d="M161.395 91.319V92.7204C161.395 93.454 160.801 94.0393 160.076 94.0393H148.378C147.645 94.0393 147.06 93.4458 147.06 92.7204V75.1622C147.06 74.4286 147.653 73.8433 148.378 73.8433H150.217C150.95 73.8433 151.536 74.4368 151.536 75.1622V88.6812C151.536 89.4148 152.129 90.0001 152.855 90.0001H160.067C160.801 90.0001 161.386 90.5936 161.386 91.319H161.395Z" fill="#D9D9D9"/>
<path d="M79.3583 0.000137793C62.9295 -0.0493218 49.5672 13.2223 49.5177 29.6511C49.4683 46.08 62.7399 59.4423 79.1687 59.4918L99.5708 59.1208C103.602 59.1373 106.883 55.873 106.899 51.842L107.905 29.8407C107.954 13.4119 95.7954 0.0495974 79.3666 0.000137793H79.3583Z" fill="#D9D9D9"/>
<path d="M89.9182 22.0591C88.4426 21.5151 88.286 21.2513 89.844 17.8715C90.4787 16.5114 90.726 15.8437 91.031 15.1842C91.1959 14.8298 91.1959 14.294 90.9733 13.9725C90.8661 13.8241 90.7342 13.7169 90.7342 13.7169C90.5941 13.6263 90.3715 13.5109 90.0913 13.5109H86.8929C86.4642 13.5026 86.151 13.9065 86.151 13.9065L79.2432 24.2601C78.188 23.2709 76.935 22.496 75.5337 22.0179C74.0581 21.4738 73.9015 21.2101 75.4595 17.8303C76.0942 16.4702 76.3415 15.8025 76.6465 15.143C76.8114 14.7886 76.8114 14.2527 76.5888 13.9313C76.4817 13.7829 76.3498 13.6757 76.3498 13.6757C76.2096 13.585 75.9871 13.4696 75.7068 13.4696H72.5084C72.0797 13.4614 71.7665 13.8653 71.7665 13.8653L64.2651 25.1174C62.7896 26.9968 61.8169 29.239 61.8086 31.7779C61.7922 37.4987 66.4084 41.2247 72.1292 41.2412C74.9237 41.2494 77.4543 40.1531 79.3256 38.356C81.1803 40.1613 83.711 41.2742 86.5055 41.2824C92.2263 41.2989 96.0264 37.6059 96.0429 31.8851C96.0594 27.3348 93.9821 23.4605 89.9099 22.0591H89.9182Z" fill="white"/>
<path d="M87.1803 24.664C87.0731 24.631 86.9742 24.6145 86.8671 24.5898C88.153 26.123 86.2983 28.052 86.2983 28.052C86.2983 28.052 84.3446 30.2529 82.7125 28.8268C81.7315 27.9695 81.781 27.0133 82.0942 26.2384C81.1133 27.5574 80.7753 29.1071 80.7753 29.1071C80.3219 30.6733 79.4729 34.9433 83.7099 36.2128C87.9222 37.474 89.6698 31.7779 89.6698 31.7779C89.6698 31.7779 91.6811 26.1065 87.1968 24.664H87.1803Z" fill="#D9D9D9"/>
<path d="M70.9157 24.6063C70.8168 24.5733 70.7343 24.5651 70.6436 24.5403C72.0038 26.0818 70.1161 28.052 70.1161 28.052C70.1161 28.052 68.1624 30.2529 66.5303 28.8268C65.3845 27.8294 65.6482 26.6753 66.0851 25.8675C64.9063 27.2441 64.5107 29.0494 64.5107 29.0494C64.0573 30.6156 63.2082 34.8856 67.4453 36.1551C71.6576 37.4163 73.4051 31.7202 73.4051 31.7202C73.4051 31.7202 75.4165 26.0489 70.9322 24.6063H70.9157Z" fill="#D9D9D9"/>
</svg>
