<svg width="40" height="40" viewBox="0 0 40 40" fill="none" xmlns="http://www.w3.org/2000/svg">
<path d="M20.0662 0.0661035C31.0682 0.102588 39.9704 9.06401 39.9339 20.0661L39.8855 34.6435C39.8757 37.6011 37.4689 39.992 34.5113 39.9822L19.934 39.9339C8.93189 39.8974 0.0297366 30.936 0.0662209 19.9339C0.102705 8.9318 9.0641 0.0296191 20.0662 0.0661035Z" fill="#19E6B3"/>
<path d="M26.1586 14.5248C25.2253 14.183 25.1267 14.0187 26.1126 11.8761C26.5135 11.0151 26.6712 10.5945 26.8618 10.1739C26.967 9.95042 26.967 9.60866 26.8224 9.40491C26.7567 9.3129 26.6712 9.24061 26.6712 9.24061C26.5858 9.18145 26.4412 9.10916 26.2637 9.10916H24.2395C23.97 9.10259 23.7728 9.35891 23.7728 9.35891L19.4022 15.9116C18.7384 15.2872 17.9431 14.7943 17.0559 14.4919C16.1226 14.1502 16.024 13.9859 17.0099 11.8433C17.4108 10.9823 17.5685 10.5617 17.7591 10.141C17.8643 9.91756 17.8643 9.5758 17.7197 9.37205C17.654 9.28004 17.5685 9.20774 17.5685 9.20774C17.4831 9.14859 17.3385 9.0763 17.161 9.0763H15.1368C14.8673 9.06972 14.6701 9.32605 14.6701 9.32605L9.92488 16.4439C8.99161 17.6335 8.3738 19.0532 8.36723 20.6568C8.35409 24.2716 11.2788 27.216 14.8936 27.2292C16.6615 27.2292 18.2652 26.5391 19.4482 25.4086C20.6247 26.5522 22.2218 27.2555 23.9897 27.2621C27.6045 27.2752 30.5489 24.3505 30.5621 20.7357C30.5686 17.857 28.7218 15.4055 26.1454 14.5182L26.1586 14.5248Z" fill="#FBFCD4"/>
<path d="M8.61041 18.9473C8.61041 18.9473 9.43852 15.1024 12.6655 16.1409C15.5048 17.0479 14.2298 20.6429 14.2298 20.6429C14.2298 20.6429 13.1256 24.2446 10.4638 23.4493C7.80201 22.6541 8.32122 19.9463 8.61041 18.9538V18.9473Z" fill="#191919"/>
<path d="M8.61041 18.9473C8.61041 18.9473 9.43852 15.1024 12.6655 16.1409C15.5048 17.0479 14.2298 20.6429 14.2298 20.6429C14.2298 20.6429 13.1256 24.2446 10.4638 23.4493C7.80201 22.6541 8.32122 19.9463 8.61041 18.9538V18.9473Z" fill="black" fill-opacity="0.2"/>
<path d="M19.2844 18.9805C19.2844 18.9805 20.1125 15.1356 23.3396 16.1741C26.1788 17.0811 24.9038 20.6761 24.9038 20.6761C24.9038 20.6761 23.7996 24.2778 21.1378 23.4825C18.4563 22.6807 18.9952 19.9795 19.2844 18.987V18.9805Z" fill="#191919"/>
<path d="M19.2844 18.9805C19.2844 18.9805 20.1125 15.1356 23.3396 16.1741C26.1788 17.0811 24.9038 20.6761 24.9038 20.6761C24.9038 20.6761 23.7996 24.2778 21.1378 23.4825C18.4563 22.6807 18.9952 19.9795 19.2844 18.987V18.9805Z" fill="black" fill-opacity="0.2"/>
</svg>
