<svg width="95" height="33" viewBox="0 0 95 33" fill="none" xmlns="http://www.w3.org/2000/svg">
<path d="M0 18.6725V0.821924H18.5012V5.53432H5.96112V7.30228H18.1331V12.0147H5.96112V13.9667H19.2044V18.6791H0V18.6725ZM1.98485 32.3627V20.5522H28.1165V32.3627H1.98485ZM7.94597 27.6504H22.1488V25.258H7.94597V27.6504ZM22.1554 19.0077V0.789062H28.1165V19.0077H22.1554Z" fill="#19E6B3"/>
<path d="M49.5165 26.1058H52.829V31.1863H32.481V26.1058H35.169L36.1286 7.44688H41.6823L40.7227 26.1058H43.9957L44.9881 7.44688H50.4695L49.5099 26.1058H49.5165ZM32.8096 0.821924H53.4205V5.90237H32.8096V0.821924ZM55.517 31.5543V0.789062H61.4782V31.5543H55.517Z" fill="#19E6B3"/>
<path d="M88.3196 2.26127V0.789062H94.2807V15.4717H88.3196V13.408H83.903L84.3433 14.8079H79.0066L76.3185 6.38215L71.501 14.9197H65.0601L72.9009 0.861358H79.8939L82.6937 9.62233V8.55761H88.3262V7.12483H82.6937V2.26785H88.3262L88.3196 2.26127ZM94.6882 32.3233H68.0439V22.1296H87.991V20.8808H68.0439V16.3524H94.3202V26.4016H74.4125V27.8015H94.6882V32.3299V32.3233Z" fill="#19E6B3"/>
</svg>
