<svg width="144" height="42" viewBox="0 0 144 42" fill="none" xmlns="http://www.w3.org/2000/svg">
<path d="M21.0642 0.000412917C9.50305 -0.0713954 0.0722212 9.23177 0.000412917 20.7929C-0.0713954 32.3461 9.23177 41.7769 20.7929 41.8567L35.1466 41.6413C37.987 41.6572 40.3008 39.3753 40.3168 36.5349L41.0748 21.0562C41.1466 9.50305 32.6173 0.0722212 21.0642 0.000412917Z" fill="#19E6B3"/>
<g filter="url(#filter0_d_4020_1874)">
<path d="M28.4361 15.543C27.3989 15.16 27.2871 14.9765 28.3962 12.5989C28.843 11.6414 29.0265 11.1707 29.234 10.7079C29.3536 10.4606 29.3536 10.0856 29.1941 9.85418C29.1223 9.75046 29.0265 9.67067 29.0265 9.67067C28.9308 9.60684 28.7712 9.52705 28.5797 9.52705L26.3297 9.5111C26.0265 9.5111 25.8031 9.79833 25.8031 9.79833L20.9201 17.0669C20.1781 16.3728 19.3005 15.8222 18.3191 15.4792C17.2819 15.0962 17.1702 14.9127 18.2792 12.535C18.726 11.5776 18.9095 11.1068 19.117 10.6441C19.2366 10.3967 19.2366 10.0217 19.0771 9.79035C19.0053 9.68663 18.9095 9.60684 18.9095 9.60684C18.8138 9.54301 18.6542 9.46322 18.4627 9.46322L16.2127 9.44727C15.9095 9.44727 15.6861 9.7345 15.6861 9.7345L10.3803 17.6334C9.33507 18.9499 8.6489 20.5297 8.63294 22.3169C8.60901 26.3382 11.8484 28.9711 15.8696 28.9951C17.8324 29.011 19.6196 28.2371 20.9361 26.9845C22.2366 28.261 24.0159 29.0509 25.9786 29.0589C29.9999 29.0828 32.6887 26.4898 32.7127 22.4685C32.7366 19.269 31.2845 16.5403 28.4201 15.543H28.4361Z" fill="#FDFDFD"/>
</g>
<path d="M26.5058 17.3701C26.426 17.3461 26.3621 17.3381 26.2823 17.3142C27.1839 18.3993 25.8754 19.7477 25.8754 19.7477C25.8754 19.7477 24.4951 21.2956 23.3462 20.2823C22.66 19.6759 22.6999 19.0057 22.9153 18.4631C22.2212 19.3887 21.9818 20.4738 21.9818 20.4738C21.6627 21.5748 21.0483 24.5828 24.0244 25.4764C26.9845 26.37 28.2212 22.3727 28.2212 22.3727C28.2212 22.3727 29.6494 18.3834 26.4978 17.3621L26.5058 17.3701Z" fill="#141414"/>
<path d="M15.0722 17.2903C15.0083 17.2664 14.9445 17.2584 14.8807 17.2424C15.8381 18.3275 14.4977 19.7079 14.4977 19.7079C14.4977 19.7079 13.1174 21.2557 11.9684 20.2424C11.1626 19.5403 11.3541 18.7265 11.6652 18.16C10.8275 19.1254 10.5482 20.394 10.5482 20.394C10.2291 21.4951 9.61472 24.503 12.5908 25.3967C15.5509 26.2903 16.7876 22.2929 16.7876 22.2929C16.7876 22.2929 18.2158 18.3036 15.0642 17.2823L15.0722 17.2903Z" fill="#141414"/>
<path d="M52.5312 24.0243V8.769C52.5312 8.21847 52.9781 7.77166 53.5286 7.77166H69.4142C69.9647 7.77166 70.4115 8.21847 70.4115 8.769V11.3302C70.4115 11.8807 69.9647 12.3275 69.4142 12.3275H58.986C58.603 12.3275 58.2919 12.6387 58.2919 13.0216V13.3408C58.2919 13.7238 58.603 14.0349 58.986 14.0349H69.0631C69.6137 14.0349 70.0605 14.4817 70.0605 15.0323V17.5934C70.0605 18.144 69.6137 18.5908 69.0631 18.5908H58.986C58.603 18.5908 58.2919 18.9019 58.2919 19.2849V19.7796C58.2919 20.1626 58.603 20.4738 58.986 20.4738H70.0924C70.6429 20.4738 71.0897 20.9206 71.0897 21.4711V24.0323C71.0897 24.5828 70.6429 25.0296 70.0924 25.0296H53.5286C52.9781 25.0296 52.5312 24.5828 52.5312 24.0323V24.0243ZM54.4541 37.245V27.8221C54.4541 27.2716 54.9009 26.8248 55.4515 26.8248H78.7014C79.2519 26.8248 79.6987 27.2716 79.6987 27.8221V37.245C79.6987 37.7955 79.2519 38.2423 78.7014 38.2423H55.4515C54.9009 38.2423 54.4541 37.7955 54.4541 37.245ZM61.2041 33.6945H72.9408C73.4913 33.6945 73.9381 33.2477 73.9381 32.6971V32.378C73.9381 31.8274 73.4913 31.3806 72.9408 31.3806H61.2041C60.6536 31.3806 60.2068 31.8274 60.2068 32.378V32.6971C60.2068 33.2477 60.6536 33.6945 61.2041 33.6945ZM73.9301 24.3434V8.73708C73.9301 8.18655 74.3769 7.73975 74.9275 7.73975H78.7014C79.2519 7.73975 79.6987 8.18655 79.6987 8.73708V24.3434C79.6987 24.894 79.2519 25.3408 78.7014 25.3408H74.9275C74.3769 25.3408 73.9301 24.894 73.9301 24.3434Z" fill="#19E6B3"/>
<path d="M101.419 32.2024H102.576C103.127 32.2024 103.574 32.6493 103.574 33.1998V36.12C103.574 36.6705 103.127 37.1173 102.576 37.1173H84.9036C84.3531 37.1173 83.9062 36.6705 83.9062 36.12V33.1998C83.9062 32.6493 84.3531 32.2024 84.9036 32.2024H85.5578C86.0844 32.2024 86.5233 31.7876 86.5472 31.261L87.377 15.12C87.4009 14.5935 87.8397 14.1786 88.3663 14.1786H91.7413C92.3078 14.1786 92.7626 14.6573 92.7307 15.2238L91.9169 31.1572C91.8849 31.7237 92.3397 32.2024 92.9062 32.2024H94.0791C94.6057 32.2024 95.0445 31.7876 95.0685 31.261L95.9302 15.12C95.9621 14.5935 96.3929 14.1786 96.9195 14.1786H100.231C100.797 14.1786 101.252 14.6573 101.22 15.2238L100.406 31.1572C100.374 31.7237 100.829 32.2024 101.396 32.2024H101.419ZM85.2227 7.77964H103.143C103.693 7.77964 104.14 8.22645 104.14 8.77698V11.6972C104.14 12.2477 103.693 12.6945 103.143 12.6945H85.2227C84.6722 12.6945 84.2254 12.2477 84.2254 11.6972V8.77698C84.2254 8.22645 84.6722 7.77964 85.2227 7.77964ZM106.167 36.4631V8.73708C106.167 8.18655 106.614 7.73975 107.164 7.73975H110.938C111.489 7.73975 111.935 8.18655 111.935 8.73708V36.471C111.935 37.0216 111.489 37.4684 110.938 37.4684H107.164C106.614 37.4684 106.167 37.0216 106.167 36.471V36.4631Z" fill="#19E6B3"/>
<path d="M137.854 8.46581V8.43389C137.854 8.05092 138.166 7.73975 138.549 7.73975H142.618C143.168 7.73975 143.615 8.18655 143.615 8.73708V20.9365C143.615 21.4871 143.168 21.9339 142.618 21.9339H138.844C138.293 21.9339 137.846 21.4871 137.846 20.9365C137.846 20.386 137.4 19.9392 136.849 19.9392H134.288C133.937 19.9392 133.69 20.2823 133.793 20.6174C133.897 20.9525 133.65 21.2956 133.299 21.2956H129.58C129.15 21.2956 128.767 21.0163 128.631 20.6014L126.948 15.3275C126.684 14.4977 125.559 14.386 125.136 15.144L121.889 20.9046C121.713 21.2158 121.378 21.4073 121.019 21.4073H117.07C116.312 21.4073 115.833 20.5934 116.2 19.9312L122.663 8.33815C122.838 8.02698 123.174 7.82751 123.533 7.82751H128.974C129.405 7.82751 129.788 8.10677 129.924 8.52166L132.405 16.2929V15.9578C132.405 15.5748 132.716 15.2637 133.099 15.2637H137.152C137.535 15.2637 137.846 14.9525 137.846 14.5695C137.846 14.1865 137.535 13.8754 137.152 13.8754H133.402C132.852 13.8754 132.405 13.4286 132.405 12.878V10.1733C132.405 9.62272 132.852 9.17591 133.402 9.17591H137.152C137.535 9.17591 137.846 8.86474 137.846 8.48177L137.854 8.46581ZM143.009 38.2104H119.256C118.706 38.2104 118.259 37.7636 118.259 37.2131V29.354C118.259 28.8035 118.706 28.3567 119.256 28.3567H137.009C137.296 28.3567 137.527 28.1253 137.527 27.8381V27.6705C137.527 27.3833 137.296 27.1519 137.009 27.1519H119.256C118.706 27.1519 118.259 26.7051 118.259 26.1546V23.769C118.259 23.2184 118.706 22.7716 119.256 22.7716H142.65C143.2 22.7716 143.647 23.2184 143.647 23.769V31.4844C143.647 32.0349 143.2 32.4817 142.65 32.4817H124.929C124.642 32.4817 124.41 32.7131 124.41 33.0003V33.3115C124.41 33.5987 124.642 33.8301 124.929 33.8301H143.001C143.551 33.8301 143.998 34.2769 143.998 34.8274V37.2131C143.998 37.7636 143.551 38.2104 143.001 38.2104H143.009Z" fill="#19E6B3"/>
<defs>
<filter id="filter0_d_4020_1874" x="-17.9569" y="-17.1425" width="94.986" height="90.5177" filterUnits="userSpaceOnUse" color-interpolation-filters="sRGB">
<feFlood flood-opacity="0" result="BackgroundImageFix"/>
<feColorMatrix in="SourceAlpha" type="matrix" values="0 0 0 0 0 0 0 0 0 0 0 0 0 0 0 0 0 0 127 0" result="hardAlpha"/>
<feOffset dx="8.86324" dy="8.86324"/>
<feGaussianBlur stdDeviation="17.7265"/>
<feColorMatrix type="matrix" values="0 0 0 0 0.282353 0 0 0 0 0.898039 0 0 0 0 0.662745 0 0 0 0.65 0"/>
<feBlend mode="normal" in2="BackgroundImageFix" result="effect1_dropShadow_4020_1874"/>
<feBlend mode="normal" in="SourceGraphic" in2="effect1_dropShadow_4020_1874" result="shape"/>
</filter>
</defs>
</svg>
