<svg width="54" height="54" viewBox="0 0 54 54" fill="none" xmlns="http://www.w3.org/2000/svg">
<path d="M27 38.25C27.6375 38.25 28.1719 38.0344 28.6031 37.6031C29.0344 37.1719 29.25 36.6375 29.25 36C29.25 35.3625 29.0344 34.8281 28.6031 34.3969C28.1719 33.9656 27.6375 33.75 27 33.75C26.3625 33.75 25.8281 33.9656 25.3969 34.3969C24.9656 34.8281 24.75 35.3625 24.75 36C24.75 36.6375 24.9656 37.1719 25.3969 37.6031C25.8281 38.0344 26.3625 38.25 27 38.25ZM27 29.25C27.6375 29.25 28.1719 29.0344 28.6031 28.6031C29.0344 28.1719 29.25 27.6375 29.25 27V18C29.25 17.3625 29.0344 16.8281 28.6031 16.3969C28.1719 15.9656 27.6375 15.75 27 15.75C26.3625 15.75 25.8281 15.9656 25.3969 16.3969C24.9656 16.8281 24.75 17.3625 24.75 18V27C24.75 27.6375 24.9656 28.1719 25.3969 28.6031C25.8281 29.0344 26.3625 29.25 27 29.25ZM27 49.5C23.8875 49.5 20.9625 48.9094 18.225 47.7281C15.4875 46.5469 13.1063 44.9438 11.0813 42.9188C9.05625 40.8938 7.45313 38.5125 6.27188 35.775C5.09063 33.0375 4.5 30.1125 4.5 27C4.5 23.8875 5.09063 20.9625 6.27188 18.225C7.45313 15.4875 9.05625 13.1063 11.0813 11.0813C13.1063 9.05625 15.4875 7.45313 18.225 6.27188C20.9625 5.09063 23.8875 4.5 27 4.5C30.1125 4.5 33.0375 5.09063 35.775 6.27188C38.5125 7.45313 40.8938 9.05625 42.9188 11.0813C44.9438 13.1063 46.5469 15.4875 47.7281 18.225C48.9094 20.9625 49.5 23.8875 49.5 27C49.5 30.1125 48.9094 33.0375 47.7281 35.775C46.5469 38.5125 44.9438 40.8938 42.9188 42.9188C40.8938 44.9438 38.5125 46.5469 35.775 47.7281C33.0375 48.9094 30.1125 49.5 27 49.5ZM27 45C32.025 45 36.2813 43.2563 39.7688 39.7688C43.2563 36.2813 45 32.025 45 27C45 21.975 43.2563 17.7188 39.7688 14.2313C36.2813 10.7438 32.025 9 27 9C21.975 9 17.7188 10.7438 14.2313 14.2313C10.7438 17.7188 9 21.975 9 27C9 32.025 10.7438 36.2813 14.2313 39.7688C17.7188 43.2563 21.975 45 27 45Z" fill="#CE030F"/>
</svg>
