<svg width="260" height="169" viewBox="0 0 260 169" fill="none" xmlns="http://www.w3.org/2000/svg">
<rect width="181" height="52" rx="8" fill="#E8FCF7"/>
<path d="M33.4192 19.524H36.6352V18.876C36.3952 18.876 36.2032 18.86 36.0592 18.828C35.9152 18.788 35.8152 18.724 35.7592 18.636C35.7032 18.548 35.6752 18.428 35.6752 18.276V17.904H36.7312V17.112H35.6752V13.656H34.5592L31.9672 16.944V17.904H34.4632V18.288C34.4632 18.44 34.4352 18.56 34.3792 18.648C34.3232 18.728 34.2192 18.788 34.0672 18.828C33.9152 18.86 33.6992 18.876 33.4192 18.876V19.524ZM32.6152 17.112L34.4632 14.796V17.112H32.6152ZM34.5472 21.66C33.8672 21.66 33.2272 21.532 32.6272 21.276C32.0272 21.02 31.4992 20.668 31.0432 20.22C30.5952 19.764 30.2432 19.236 29.9872 18.636C29.7312 18.036 29.6032 17.396 29.6032 16.716C29.6032 16.036 29.7312 15.4 29.9872 14.808C30.2432 14.208 30.5952 13.68 31.0432 13.224C31.4992 12.768 32.0272 12.412 32.6272 12.156C33.2272 11.9 33.8672 11.772 34.5472 11.772C35.2352 11.772 35.8752 11.9 36.4672 12.156C37.0672 12.412 37.5912 12.768 38.0392 13.224C38.4952 13.68 38.8512 14.208 39.1072 14.808C39.3632 15.4 39.4912 16.036 39.4912 16.716C39.4912 17.396 39.3632 18.036 39.1072 18.636C38.8512 19.236 38.4952 19.764 38.0392 20.22C37.5912 20.668 37.0672 21.02 36.4672 21.276C35.8752 21.532 35.2352 21.66 34.5472 21.66Z" fill="#11DCA9"/>
<path d="M48.5925 12.4185C48.5925 13.8149 50.2955 15.1243 52.3632 15.4019L51.9198 16.3094C50.2044 16.0359 48.7002 15.1409 48.0165 13.9061C47.3328 15.1492 45.8287 16.0359 44.1215 16.3094L43.674 15.4019C45.7334 15.1243 47.4323 13.8315 47.4323 12.4185V11.8467H48.5925V12.4185ZM43.2223 18.261V17.3412H52.7941V18.261H48.5303V21.9945H47.4364V18.261H43.2223ZM62.1048 11.4945V17.7431H60.9943V15.087H59.0343V14.1713H60.9943V11.4945H62.1048ZM53.3576 16.7983C54.9819 16.2265 55.9805 14.8094 55.9805 13.3591V13.1271H53.7015V12.2196H59.37V13.1271H57.1076V13.3508C57.1076 14.6809 58.0564 15.9738 59.6393 16.5083L59.0716 17.395C57.8907 16.9848 57.0247 16.1436 56.5689 15.1077C56.1089 16.2804 55.189 17.221 53.9335 17.6809L53.3576 16.7983ZM55.0399 20.018C55.0316 18.7666 56.3824 18.0373 58.5868 18.0373C60.7871 18.0373 62.1338 18.7666 62.1379 20.018C62.1338 21.2652 60.7871 21.9862 58.5868 21.9945C56.3824 21.9862 55.0316 21.2652 55.0399 20.018ZM56.1421 20.018C56.1338 20.7224 57.0495 21.1285 58.5868 21.1202C60.12 21.1285 61.0316 20.7224 61.0357 20.018C61.0316 19.3052 60.12 18.8992 58.5868 18.8992C57.0495 18.8992 56.1338 19.3052 56.1421 20.018ZM68.9836 12.2818C70.554 12.2859 71.6728 13.7155 71.6811 15.9655C71.6728 18.2279 70.554 19.6575 68.9836 19.6575C67.4131 19.6575 66.2944 18.2279 66.3026 15.9655C66.2944 13.7155 67.4131 12.2859 68.9836 12.2818ZM67.3634 15.9655C67.3634 17.6312 68.0264 18.6588 68.9836 18.6588C69.9615 18.6588 70.6079 17.6312 70.612 15.9655C70.6079 14.3122 69.9615 13.2845 68.9836 13.2762C68.0264 13.2845 67.3634 14.3122 67.3634 15.9655ZM73.2391 21.9945V11.4945H74.3537V15.6091H76.0361V16.5497H74.3537V21.9945H73.2391ZM85.0028 11.4945V22.0152H83.884V11.4945H85.0028ZM76.6658 15.9655C76.6658 13.7155 77.797 12.2859 79.3799 12.2818C80.9462 12.2859 82.0898 13.7155 82.0898 15.9655C82.0898 18.2279 80.9462 19.6575 79.3799 19.6575C77.797 19.6575 76.6658 18.2279 76.6658 15.9655ZM77.739 15.9655C77.739 17.6312 78.4103 18.6588 79.3799 18.6588C80.3495 18.6588 81.0125 17.6312 81.0125 15.9655C81.0125 14.3122 80.3495 13.2845 79.3799 13.2762C78.4103 13.2845 77.739 14.3122 77.739 15.9655ZM94.848 11.9669V12.8909C94.8438 13.8812 94.8438 14.9378 94.5538 16.3674L93.4516 16.2721C93.5717 15.7086 93.6422 15.203 93.6836 14.7348L87.4433 15.0166L87.2941 14.0843L93.7333 13.9019C93.7416 13.5539 93.7458 13.2182 93.7458 12.8909V12.866H87.5634V11.9669H94.848ZM86.4488 17.9047V17.0097H90.232V15.5428H91.3507V17.0097H95.9958V17.9047H86.4488ZM87.6297 21.8329V18.721H88.7402V20.9254H95.0676V21.8329H87.6297ZM101.345 11.6685C103.711 11.6685 105.091 12.3066 105.091 13.471C105.091 14.6519 103.711 15.2901 101.345 15.2983C98.9791 15.2901 97.591 14.6519 97.591 13.471C97.591 12.3066 98.9791 11.6685 101.345 11.6685ZM96.5675 16.8273V15.9365H106.139V16.8273H96.5675ZM97.707 18.4682V17.6354H104.925V20.0925H98.8175V21.0331H105.228V21.895H97.7277V19.2928H103.831V18.4682H97.707ZM98.7553 13.471C98.747 14.1257 99.6752 14.4613 101.345 14.4613C103.027 14.4613 103.951 14.1257 103.951 13.471C103.951 12.8577 103.027 12.4931 101.345 12.4972C99.6752 12.4931 98.747 12.8577 98.7553 13.471ZM117.779 11.9627V12.7956C117.779 13.6119 117.779 14.5318 117.543 15.7127H118.948V16.6119H109.401V15.7127H116.432C116.519 15.2776 116.573 14.8881 116.611 14.5235L110.461 14.7804L110.329 13.9061L116.66 13.7362C116.673 13.4296 116.673 13.1395 116.673 12.8536H110.59V11.9627H117.779ZM110.49 18.3522V17.4903H117.845V20.0345H111.622V20.9834H118.218V21.8619H110.515V19.2058H116.739V18.3522H110.49ZM128.229 11.5028V17.9213H127.115V11.5028H128.229ZM120.05 13.0152V12.116H124.873V15.116H121.156V16.4627C122.996 16.4586 124.343 16.4006 125.938 16.1561L126.079 17.0552C124.363 17.3287 122.934 17.3826 120.945 17.3826H120.07V14.25H123.771V13.0152H120.05ZM121.111 19.3674V18.4558H128.229V21.9945H127.115V19.3674H121.111ZM137.83 11.4945V15.75H139.512V16.674H137.83V21.9945H136.728V11.4945H137.83ZM129.592 14.047V13.1395H132.182V11.6312H133.293V13.1395H135.812V14.047H129.592ZM130.131 17.2666C130.127 15.8329 131.229 14.8218 132.746 14.8218C134.246 14.8218 135.348 15.8329 135.352 17.2666C135.348 18.7044 134.246 19.703 132.746 19.7072C131.229 19.703 130.127 18.7044 130.131 17.2666ZM131.196 17.2666C131.188 18.174 131.847 18.7831 132.746 18.779C133.632 18.7831 134.283 18.174 134.291 17.2666C134.283 16.3633 133.632 15.7417 132.746 15.7417C131.847 15.7417 131.188 16.3633 131.196 17.2666ZM142.628 12.2818C143.585 12.2859 144.369 12.8287 144.833 13.7776H147.435V11.4945H148.537V22.0152H147.435V17.9876H144.911C144.464 19.0442 143.643 19.6575 142.628 19.6575C141.058 19.6575 139.956 18.2279 139.964 15.9655C139.956 13.7155 141.058 12.2859 142.628 12.2818ZM141.025 15.9655C141.025 17.6312 141.675 18.6588 142.628 18.6588C143.573 18.6588 144.228 17.6312 144.228 15.9655C144.228 14.3122 143.573 13.2845 142.628 13.2762C141.675 13.2845 141.025 14.3122 141.025 15.9655ZM145.148 14.6934C145.235 15.0787 145.28 15.5055 145.28 15.9655C145.28 16.3633 145.243 16.7362 145.181 17.0801H147.435V14.6934H145.148ZM29.887 29.4945V39.9945H28.8304V34.5663H27.4713V39.4558H26.4436V29.7099H27.4713V33.6588H28.8304V29.4945H29.887ZM21.2351 37.471V30.7583H25.1633V31.6616H22.3497V36.5304C23.6384 36.518 24.608 36.4599 25.7268 36.2445L25.8179 37.1644C24.55 37.4254 23.4644 37.4627 21.9312 37.471H21.2351ZM40.6231 37.8439V38.7514H31.014V37.8439H33.5913V35.511H31.8551V34.5994H33.4214V31.3343H31.8303V30.4268H39.7446V31.3343H38.1369V34.5994H39.7115V35.511H37.9836V37.8439H40.6231ZM34.5278 34.5994H37.043V31.3343H34.5278V34.5994ZM34.7059 37.8439H36.8689V35.511H34.7059V37.8439ZM46.8053 30.5594C46.797 33.6588 45.7735 36.4392 41.9199 38.3246L41.3191 37.4544C43.2086 36.5387 44.3771 35.4075 45.0318 34.0691L41.5346 34.3923L41.373 33.4227L45.3881 33.1699C45.5539 32.6312 45.6533 32.0635 45.6989 31.4669H41.9075V30.5594H46.8053ZM48.7528 39.9945V29.4945H49.8716V39.9945H48.7528ZM60.0565 29.5028V39.9986H58.9212V37.4917H56.6049V36.6423H58.9212V29.5028H60.0565ZM51.2264 34.9641C53.2154 34.9599 55.8632 34.9475 58.1587 34.6285L58.225 35.453C57.2223 35.6229 56.1905 35.7265 55.1795 35.7928V39.6754H54.0648V35.8467C53.1035 35.884 52.1877 35.8881 51.3756 35.8881L51.2264 34.9641ZM52.0054 32.0801C52.0054 30.8453 53.1035 29.9876 54.6822 29.9876C56.2361 29.9876 57.3466 30.8453 57.3466 32.0801C57.3466 33.3481 56.2361 34.1685 54.6822 34.1768C53.1035 34.1685 52.0054 33.3481 52.0054 32.0801ZM53.0538 32.0801C53.0496 32.8384 53.7168 33.3191 54.6822 33.3191C55.6187 33.3191 56.2858 32.8384 56.2941 32.0801C56.2858 31.3467 55.6187 30.8494 54.6822 30.8453C53.7126 30.8494 53.0496 31.3467 53.0538 32.0801ZM69.91 34.4793V35.3867H62.6006V30.4392H69.8188V31.3508H63.6987V34.4793H69.91ZM61.4072 38.6105V37.6865H71.0164V38.6105H61.4072ZM81.1309 34.3135V35.1671H71.5218V34.3135H81.1309ZM72.6613 36.7044V35.9006H79.9499V38.2169H73.7842V39.0829H80.2773V39.8702H72.6737V37.4751H78.8477V36.7044H72.6613ZM72.7276 30.5511V29.768H79.9209V32.0387H73.8588V32.8384H80.1033V33.6215H72.7566V31.3052H78.8104V30.5511H72.7276ZM89.7293 30.4185C89.7293 31.8149 91.4323 33.1243 93.5 33.4019L93.0566 34.3094C91.3412 34.0359 89.837 33.1409 89.1533 31.9061C88.4696 33.1492 86.9655 34.0359 85.2583 34.3094L84.8108 33.4019C86.8702 33.1243 88.5691 31.8315 88.5691 30.4185V29.8467H89.7293V30.4185ZM84.3591 36.261V35.3412H93.9309V36.261H89.6671V39.9945H88.5732V36.261H84.3591ZM103.242 29.4945V35.7431H102.131V33.087H100.171V32.1713H102.131V29.4945H103.242ZM94.4944 34.7983C96.1187 34.2265 97.1173 32.8094 97.1173 31.3591V31.1271H94.8383V30.2196H100.507V31.1271H98.2444V31.3508C98.2444 32.6809 99.1932 33.9738 100.776 34.5083L100.208 35.395C99.0275 34.9848 98.1615 34.1436 97.7057 33.1077C97.2457 34.2804 96.3258 35.221 95.0703 35.6809L94.4944 34.7983ZM96.1767 38.018C96.1684 36.7666 97.5192 36.0373 99.7236 36.0373C101.924 36.0373 103.271 36.7666 103.275 38.018C103.271 39.2652 101.924 39.9862 99.7236 39.9945C97.5192 39.9862 96.1684 39.2652 96.1767 38.018ZM97.2789 38.018C97.2706 38.7224 98.1863 39.1285 99.7236 39.1202C101.257 39.1285 102.168 38.7224 102.173 38.018C102.168 37.3052 101.257 36.8992 99.7236 36.8992C98.1863 36.8992 97.2706 37.3052 97.2789 38.018ZM112.871 29.4613V31.9227H114.4V32.8301H112.871V35.2334H111.757V29.4613H112.871ZM104.634 31.2597V30.3895H107.211V29.3992H108.317V30.3895H110.882V31.2597H104.634ZM105.206 33.3812C105.201 32.3246 106.217 31.6616 107.762 31.6616C109.299 31.6616 110.302 32.3246 110.306 33.3812C110.302 34.4544 109.299 35.1008 107.762 35.1008C106.217 35.1008 105.201 34.4544 105.206 33.3812ZM106.08 36.5552V35.7348H112.871V38.1713H107.199V39.0497H113.228V39.895H106.105V37.3798H111.765V36.5552H106.08ZM106.279 33.3812C106.27 33.953 106.855 34.2845 107.762 34.2887C108.661 34.2845 109.246 33.953 109.254 33.3812C109.246 32.8177 108.661 32.4655 107.762 32.4655C106.855 32.4655 106.27 32.8177 106.279 33.3812ZM122.812 30.4185C122.812 31.8149 124.515 33.1243 126.583 33.4019L126.14 34.3094C124.424 34.0359 122.92 33.1409 122.236 31.9061C121.553 33.1492 120.048 34.0359 118.341 34.3094L117.894 33.4019C119.953 33.1243 121.652 31.8315 121.652 30.4185V29.8467H122.812V30.4185ZM117.442 36.261V35.3412H127.014V36.261H122.75V39.9945H121.656V36.261H117.442ZM133.901 36.4309C133.901 37.3343 134.353 38.2873 135.302 38.8591C136.263 38.2376 136.739 37.2348 136.739 36.4309V35.9296H137.833V36.4309C137.825 37.5249 138.546 38.5773 139.913 39.029L139.362 39.8412C138.326 39.4848 137.622 38.7845 137.257 37.9227C136.926 38.7638 136.296 39.5387 135.335 39.9365C134.324 39.5594 133.686 38.8177 133.362 37.9558C132.985 38.7845 132.289 39.4807 131.299 39.8412L130.744 39.029C132.09 38.5401 132.819 37.4503 132.828 36.4309V35.9296H133.901V36.4309ZM130.474 32.5649C130.474 31.0981 131.659 30.087 133.271 30.087C134.879 30.087 136.06 31.0981 136.06 32.5649C136.06 34.0193 134.879 35.0304 133.271 35.0304C131.659 35.0304 130.474 34.0193 130.474 32.5649ZM131.564 32.5649C131.556 33.4807 132.273 34.1022 133.271 34.1064C134.257 34.1022 134.97 33.4807 134.97 32.5649C134.97 31.645 134.257 31.0235 133.271 31.0318C132.273 31.0235 131.556 31.645 131.564 32.5649ZM137.858 35.4779V29.5028H138.973V35.4779H137.858ZM143.241 30.2818C144.662 30.2859 145.706 31.4917 145.872 33.4309H148.047V29.4945H149.149V40.0152H148.047V34.3384H145.88C145.764 36.3854 144.703 37.6575 143.241 37.6575C141.67 37.6575 140.568 36.2279 140.576 33.9655C140.568 31.7155 141.67 30.2859 143.241 30.2818ZM141.637 33.9655C141.637 35.6312 142.288 36.6588 143.241 36.6588C144.185 36.6588 144.84 35.6312 144.84 33.9655C144.84 32.3122 144.185 31.2845 143.241 31.2762C142.288 31.2845 141.637 32.3122 141.637 33.9655ZM160.134 37.7652V38.6851H150.525V37.7652H152.825V35.018C151.959 34.5456 151.433 33.7914 151.433 32.8508C151.433 31.1975 153.053 30.1119 155.303 30.1036C157.561 30.1119 159.185 31.1975 159.185 32.8508C159.185 33.779 158.676 34.5207 157.83 34.9972V37.7652H160.134ZM152.514 32.8508C152.514 33.9738 153.658 34.7072 155.303 34.7072C156.939 34.7072 158.1 33.9738 158.1 32.8508C158.1 31.7155 156.939 30.9945 155.303 31.0028C153.658 30.9945 152.514 31.7155 152.514 32.8508ZM153.919 37.7652H156.707V35.424C156.276 35.5235 155.804 35.5773 155.303 35.5773C154.805 35.5773 154.341 35.5235 153.919 35.4282V37.7652Z" fill="#191919"/>
<path d="M48.5925 12.4185C48.5925 13.8149 50.2955 15.1243 52.3632 15.4019L51.9198 16.3094C50.2044 16.0359 48.7002 15.1409 48.0165 13.9061C47.3328 15.1492 45.8287 16.0359 44.1215 16.3094L43.674 15.4019C45.7334 15.1243 47.4323 13.8315 47.4323 12.4185V11.8467H48.5925V12.4185ZM43.2223 18.261V17.3412H52.7941V18.261H48.5303V21.9945H47.4364V18.261H43.2223ZM62.1048 11.4945V17.7431H60.9943V15.087H59.0343V14.1713H60.9943V11.4945H62.1048ZM53.3576 16.7983C54.9819 16.2265 55.9805 14.8094 55.9805 13.3591V13.1271H53.7015V12.2196H59.37V13.1271H57.1076V13.3508C57.1076 14.6809 58.0564 15.9738 59.6393 16.5083L59.0716 17.395C57.8907 16.9848 57.0247 16.1436 56.5689 15.1077C56.1089 16.2804 55.189 17.221 53.9335 17.6809L53.3576 16.7983ZM55.0399 20.018C55.0316 18.7666 56.3824 18.0373 58.5868 18.0373C60.7871 18.0373 62.1338 18.7666 62.1379 20.018C62.1338 21.2652 60.7871 21.9862 58.5868 21.9945C56.3824 21.9862 55.0316 21.2652 55.0399 20.018ZM56.1421 20.018C56.1338 20.7224 57.0495 21.1285 58.5868 21.1202C60.12 21.1285 61.0316 20.7224 61.0357 20.018C61.0316 19.3052 60.12 18.8992 58.5868 18.8992C57.0495 18.8992 56.1338 19.3052 56.1421 20.018ZM68.9836 12.2818C70.554 12.2859 71.6728 13.7155 71.6811 15.9655C71.6728 18.2279 70.554 19.6575 68.9836 19.6575C67.4131 19.6575 66.2944 18.2279 66.3026 15.9655C66.2944 13.7155 67.4131 12.2859 68.9836 12.2818ZM67.3634 15.9655C67.3634 17.6312 68.0264 18.6588 68.9836 18.6588C69.9615 18.6588 70.6079 17.6312 70.612 15.9655C70.6079 14.3122 69.9615 13.2845 68.9836 13.2762C68.0264 13.2845 67.3634 14.3122 67.3634 15.9655ZM73.2391 21.9945V11.4945H74.3537V15.6091H76.0361V16.5497H74.3537V21.9945H73.2391ZM85.0028 11.4945V22.0152H83.884V11.4945H85.0028ZM76.6658 15.9655C76.6658 13.7155 77.797 12.2859 79.3799 12.2818C80.9462 12.2859 82.0898 13.7155 82.0898 15.9655C82.0898 18.2279 80.9462 19.6575 79.3799 19.6575C77.797 19.6575 76.6658 18.2279 76.6658 15.9655ZM77.739 15.9655C77.739 17.6312 78.4103 18.6588 79.3799 18.6588C80.3495 18.6588 81.0125 17.6312 81.0125 15.9655C81.0125 14.3122 80.3495 13.2845 79.3799 13.2762C78.4103 13.2845 77.739 14.3122 77.739 15.9655ZM94.848 11.9669V12.8909C94.8438 13.8812 94.8438 14.9378 94.5538 16.3674L93.4516 16.2721C93.5717 15.7086 93.6422 15.203 93.6836 14.7348L87.4433 15.0166L87.2941 14.0843L93.7333 13.9019C93.7416 13.5539 93.7458 13.2182 93.7458 12.8909V12.866H87.5634V11.9669H94.848ZM86.4488 17.9047V17.0097H90.232V15.5428H91.3507V17.0097H95.9958V17.9047H86.4488ZM87.6297 21.8329V18.721H88.7402V20.9254H95.0676V21.8329H87.6297ZM101.345 11.6685C103.711 11.6685 105.091 12.3066 105.091 13.471C105.091 14.6519 103.711 15.2901 101.345 15.2983C98.9791 15.2901 97.591 14.6519 97.591 13.471C97.591 12.3066 98.9791 11.6685 101.345 11.6685ZM96.5675 16.8273V15.9365H106.139V16.8273H96.5675ZM97.707 18.4682V17.6354H104.925V20.0925H98.8175V21.0331H105.228V21.895H97.7277V19.2928H103.831V18.4682H97.707ZM98.7553 13.471C98.747 14.1257 99.6752 14.4613 101.345 14.4613C103.027 14.4613 103.951 14.1257 103.951 13.471C103.951 12.8577 103.027 12.4931 101.345 12.4972C99.6752 12.4931 98.747 12.8577 98.7553 13.471ZM117.779 11.9627V12.7956C117.779 13.6119 117.779 14.5318 117.543 15.7127H118.948V16.6119H109.401V15.7127H116.432C116.519 15.2776 116.573 14.8881 116.611 14.5235L110.461 14.7804L110.329 13.9061L116.66 13.7362C116.673 13.4296 116.673 13.1395 116.673 12.8536H110.59V11.9627H117.779ZM110.49 18.3522V17.4903H117.845V20.0345H111.622V20.9834H118.218V21.8619H110.515V19.2058H116.739V18.3522H110.49ZM128.229 11.5028V17.9213H127.115V11.5028H128.229ZM120.05 13.0152V12.116H124.873V15.116H121.156V16.4627C122.996 16.4586 124.343 16.4006 125.938 16.1561L126.079 17.0552C124.363 17.3287 122.934 17.3826 120.945 17.3826H120.07V14.25H123.771V13.0152H120.05ZM121.111 19.3674V18.4558H128.229V21.9945H127.115V19.3674H121.111ZM137.83 11.4945V15.75H139.512V16.674H137.83V21.9945H136.728V11.4945H137.83ZM129.592 14.047V13.1395H132.182V11.6312H133.293V13.1395H135.812V14.047H129.592ZM130.131 17.2666C130.127 15.8329 131.229 14.8218 132.746 14.8218C134.246 14.8218 135.348 15.8329 135.352 17.2666C135.348 18.7044 134.246 19.703 132.746 19.7072C131.229 19.703 130.127 18.7044 130.131 17.2666ZM131.196 17.2666C131.188 18.174 131.847 18.7831 132.746 18.779C133.632 18.7831 134.283 18.174 134.291 17.2666C134.283 16.3633 133.632 15.7417 132.746 15.7417C131.847 15.7417 131.188 16.3633 131.196 17.2666ZM142.628 12.2818C143.585 12.2859 144.369 12.8287 144.833 13.7776H147.435V11.4945H148.537V22.0152H147.435V17.9876H144.911C144.464 19.0442 143.643 19.6575 142.628 19.6575C141.058 19.6575 139.956 18.2279 139.964 15.9655C139.956 13.7155 141.058 12.2859 142.628 12.2818ZM141.025 15.9655C141.025 17.6312 141.675 18.6588 142.628 18.6588C143.573 18.6588 144.228 17.6312 144.228 15.9655C144.228 14.3122 143.573 13.2845 142.628 13.2762C141.675 13.2845 141.025 14.3122 141.025 15.9655ZM145.148 14.6934C145.235 15.0787 145.28 15.5055 145.28 15.9655C145.28 16.3633 145.243 16.7362 145.181 17.0801H147.435V14.6934H145.148ZM29.887 29.4945V39.9945H28.8304V34.5663H27.4713V39.4558H26.4436V29.7099H27.4713V33.6588H28.8304V29.4945H29.887ZM21.2351 37.471V30.7583H25.1633V31.6616H22.3497V36.5304C23.6384 36.518 24.608 36.4599 25.7268 36.2445L25.8179 37.1644C24.55 37.4254 23.4644 37.4627 21.9312 37.471H21.2351ZM40.6231 37.8439V38.7514H31.014V37.8439H33.5913V35.511H31.8551V34.5994H33.4214V31.3343H31.8303V30.4268H39.7446V31.3343H38.1369V34.5994H39.7115V35.511H37.9836V37.8439H40.6231ZM34.5278 34.5994H37.043V31.3343H34.5278V34.5994ZM34.7059 37.8439H36.8689V35.511H34.7059V37.8439ZM46.8053 30.5594C46.797 33.6588 45.7735 36.4392 41.9199 38.3246L41.3191 37.4544C43.2086 36.5387 44.3771 35.4075 45.0318 34.0691L41.5346 34.3923L41.373 33.4227L45.3881 33.1699C45.5539 32.6312 45.6533 32.0635 45.6989 31.4669H41.9075V30.5594H46.8053ZM48.7528 39.9945V29.4945H49.8716V39.9945H48.7528ZM60.0565 29.5028V39.9986H58.9212V37.4917H56.6049V36.6423H58.9212V29.5028H60.0565ZM51.2264 34.9641C53.2154 34.9599 55.8632 34.9475 58.1587 34.6285L58.225 35.453C57.2223 35.6229 56.1905 35.7265 55.1795 35.7928V39.6754H54.0648V35.8467C53.1035 35.884 52.1877 35.8881 51.3756 35.8881L51.2264 34.9641ZM52.0054 32.0801C52.0054 30.8453 53.1035 29.9876 54.6822 29.9876C56.2361 29.9876 57.3466 30.8453 57.3466 32.0801C57.3466 33.3481 56.2361 34.1685 54.6822 34.1768C53.1035 34.1685 52.0054 33.3481 52.0054 32.0801ZM53.0538 32.0801C53.0496 32.8384 53.7168 33.3191 54.6822 33.3191C55.6187 33.3191 56.2858 32.8384 56.2941 32.0801C56.2858 31.3467 55.6187 30.8494 54.6822 30.8453C53.7126 30.8494 53.0496 31.3467 53.0538 32.0801ZM69.91 34.4793V35.3867H62.6006V30.4392H69.8188V31.3508H63.6987V34.4793H69.91ZM61.4072 38.6105V37.6865H71.0164V38.6105H61.4072ZM81.1309 34.3135V35.1671H71.5218V34.3135H81.1309ZM72.6613 36.7044V35.9006H79.9499V38.2169H73.7842V39.0829H80.2773V39.8702H72.6737V37.4751H78.8477V36.7044H72.6613ZM72.7276 30.5511V29.768H79.9209V32.0387H73.8588V32.8384H80.1033V33.6215H72.7566V31.3052H78.8104V30.5511H72.7276ZM89.7293 30.4185C89.7293 31.8149 91.4323 33.1243 93.5 33.4019L93.0566 34.3094C91.3412 34.0359 89.837 33.1409 89.1533 31.9061C88.4696 33.1492 86.9655 34.0359 85.2583 34.3094L84.8108 33.4019C86.8702 33.1243 88.5691 31.8315 88.5691 30.4185V29.8467H89.7293V30.4185ZM84.3591 36.261V35.3412H93.9309V36.261H89.6671V39.9945H88.5732V36.261H84.3591ZM103.242 29.4945V35.7431H102.131V33.087H100.171V32.1713H102.131V29.4945H103.242ZM94.4944 34.7983C96.1187 34.2265 97.1173 32.8094 97.1173 31.3591V31.1271H94.8383V30.2196H100.507V31.1271H98.2444V31.3508C98.2444 32.6809 99.1932 33.9738 100.776 34.5083L100.208 35.395C99.0275 34.9848 98.1615 34.1436 97.7057 33.1077C97.2457 34.2804 96.3258 35.221 95.0703 35.6809L94.4944 34.7983ZM96.1767 38.018C96.1684 36.7666 97.5192 36.0373 99.7236 36.0373C101.924 36.0373 103.271 36.7666 103.275 38.018C103.271 39.2652 101.924 39.9862 99.7236 39.9945C97.5192 39.9862 96.1684 39.2652 96.1767 38.018ZM97.2789 38.018C97.2706 38.7224 98.1863 39.1285 99.7236 39.1202C101.257 39.1285 102.168 38.7224 102.173 38.018C102.168 37.3052 101.257 36.8992 99.7236 36.8992C98.1863 36.8992 97.2706 37.3052 97.2789 38.018ZM112.871 29.4613V31.9227H114.4V32.8301H112.871V35.2334H111.757V29.4613H112.871ZM104.634 31.2597V30.3895H107.211V29.3992H108.317V30.3895H110.882V31.2597H104.634ZM105.206 33.3812C105.201 32.3246 106.217 31.6616 107.762 31.6616C109.299 31.6616 110.302 32.3246 110.306 33.3812C110.302 34.4544 109.299 35.1008 107.762 35.1008C106.217 35.1008 105.201 34.4544 105.206 33.3812ZM106.08 36.5552V35.7348H112.871V38.1713H107.199V39.0497H113.228V39.895H106.105V37.3798H111.765V36.5552H106.08ZM106.279 33.3812C106.27 33.953 106.855 34.2845 107.762 34.2887C108.661 34.2845 109.246 33.953 109.254 33.3812C109.246 32.8177 108.661 32.4655 107.762 32.4655C106.855 32.4655 106.27 32.8177 106.279 33.3812ZM122.812 30.4185C122.812 31.8149 124.515 33.1243 126.583 33.4019L126.14 34.3094C124.424 34.0359 122.92 33.1409 122.236 31.9061C121.553 33.1492 120.048 34.0359 118.341 34.3094L117.894 33.4019C119.953 33.1243 121.652 31.8315 121.652 30.4185V29.8467H122.812V30.4185ZM117.442 36.261V35.3412H127.014V36.261H122.75V39.9945H121.656V36.261H117.442ZM133.901 36.4309C133.901 37.3343 134.353 38.2873 135.302 38.8591C136.263 38.2376 136.739 37.2348 136.739 36.4309V35.9296H137.833V36.4309C137.825 37.5249 138.546 38.5773 139.913 39.029L139.362 39.8412C138.326 39.4848 137.622 38.7845 137.257 37.9227C136.926 38.7638 136.296 39.5387 135.335 39.9365C134.324 39.5594 133.686 38.8177 133.362 37.9558C132.985 38.7845 132.289 39.4807 131.299 39.8412L130.744 39.029C132.09 38.5401 132.819 37.4503 132.828 36.4309V35.9296H133.901V36.4309ZM130.474 32.5649C130.474 31.0981 131.659 30.087 133.271 30.087C134.879 30.087 136.06 31.0981 136.06 32.5649C136.06 34.0193 134.879 35.0304 133.271 35.0304C131.659 35.0304 130.474 34.0193 130.474 32.5649ZM131.564 32.5649C131.556 33.4807 132.273 34.1022 133.271 34.1064C134.257 34.1022 134.97 33.4807 134.97 32.5649C134.97 31.645 134.257 31.0235 133.271 31.0318C132.273 31.0235 131.556 31.645 131.564 32.5649ZM137.858 35.4779V29.5028H138.973V35.4779H137.858ZM143.241 30.2818C144.662 30.2859 145.706 31.4917 145.872 33.4309H148.047V29.4945H149.149V40.0152H148.047V34.3384H145.88C145.764 36.3854 144.703 37.6575 143.241 37.6575C141.67 37.6575 140.568 36.2279 140.576 33.9655C140.568 31.7155 141.67 30.2859 143.241 30.2818ZM141.637 33.9655C141.637 35.6312 142.288 36.6588 143.241 36.6588C144.185 36.6588 144.84 35.6312 144.84 33.9655C144.84 32.3122 144.185 31.2845 143.241 31.2762C142.288 31.2845 141.637 32.3122 141.637 33.9655ZM160.134 37.7652V38.6851H150.525V37.7652H152.825V35.018C151.959 34.5456 151.433 33.7914 151.433 32.8508C151.433 31.1975 153.053 30.1119 155.303 30.1036C157.561 30.1119 159.185 31.1975 159.185 32.8508C159.185 33.779 158.676 34.5207 157.83 34.9972V37.7652H160.134ZM152.514 32.8508C152.514 33.9738 153.658 34.7072 155.303 34.7072C156.939 34.7072 158.1 33.9738 158.1 32.8508C158.1 31.7155 156.939 30.9945 155.303 31.0028C153.658 30.9945 152.514 31.7155 152.514 32.8508ZM153.919 37.7652H156.707V35.424C156.276 35.5235 155.804 35.5773 155.303 35.5773C154.805 35.5773 154.341 35.5235 153.919 35.4282V37.7652Z" fill="black" fill-opacity="0.2"/>
<path d="M91.3321 57.7519C90.9362 58.3457 90.0638 58.3457 89.6679 57.7519L84.5 50L96.5 50L91.3321 57.7519Z" fill="#E8FCF7"/>
<rect x="260" y="169" width="170" height="70" rx="8" transform="rotate(-180 260 169)" fill="#E8FCF7"/>
<path d="M118.725 118.812C119.429 118.812 119.997 118.64 120.429 118.296C120.861 117.944 121.077 117.456 121.077 116.832C121.077 116.24 120.893 115.788 120.525 115.476C120.165 115.164 119.705 115.008 119.145 115.008C118.921 115.008 118.693 115.036 118.461 115.092C118.229 115.14 118.013 115.224 117.813 115.344L117.909 114.024H120.525L120.633 112.464H120.033L119.985 112.656C119.961 112.76 119.921 112.828 119.865 112.86C119.809 112.884 119.737 112.896 119.649 112.896H117.333L117.141 115.944L117.585 116.16C117.761 116.024 117.945 115.928 118.137 115.872C118.337 115.808 118.529 115.776 118.713 115.776C119.049 115.776 119.313 115.876 119.505 116.076C119.705 116.268 119.805 116.552 119.805 116.928C119.805 117.328 119.701 117.632 119.493 117.84C119.285 118.048 119.009 118.152 118.665 118.152C118.537 118.152 118.421 118.136 118.317 118.104C118.213 118.072 118.125 118.02 118.053 117.948C118.117 117.884 118.165 117.808 118.197 117.72C118.229 117.632 118.245 117.548 118.245 117.468C118.245 117.284 118.185 117.136 118.065 117.024C117.953 116.912 117.797 116.856 117.597 116.856C117.389 116.856 117.217 116.924 117.081 117.06C116.945 117.188 116.877 117.372 116.877 117.612C116.877 117.852 116.949 118.064 117.093 118.248C117.245 118.424 117.457 118.564 117.729 118.668C118.009 118.764 118.341 118.812 118.725 118.812ZM118.965 120.66C118.285 120.66 117.645 120.532 117.045 120.276C116.445 120.02 115.917 119.668 115.461 119.22C115.013 118.764 114.661 118.236 114.405 117.636C114.149 117.036 114.021 116.396 114.021 115.716C114.021 115.036 114.149 114.4 114.405 113.808C114.661 113.208 115.013 112.68 115.461 112.224C115.917 111.768 116.445 111.412 117.045 111.156C117.645 110.9 118.285 110.772 118.965 110.772C119.653 110.772 120.293 110.9 120.885 111.156C121.485 111.412 122.009 111.768 122.457 112.224C122.913 112.68 123.269 113.208 123.525 113.808C123.781 114.4 123.909 115.036 123.909 115.716C123.909 116.396 123.781 117.036 123.525 117.636C123.269 118.236 122.913 118.764 122.457 119.22C122.009 119.668 121.485 120.02 120.885 120.276C120.293 120.532 119.653 120.66 118.965 120.66Z" fill="#11DCA9"/>
<path d="M132.541 117.095C134.811 117.095 136.245 117.812 136.253 119.043C136.245 120.261 134.811 120.978 132.541 120.978C130.286 120.978 128.844 120.261 128.844 119.043C128.844 117.812 130.286 117.095 132.541 117.095ZM127.817 116.225V115.322H131.646V113.354H132.739V115.322H137.364V116.225H127.817ZM128.931 111.903V111.008H136.175V111.891C136.175 112.728 136.175 113.598 135.88 114.68L134.786 114.568C135.068 113.486 135.068 112.72 135.068 111.903H128.931ZM129.955 119.043C129.947 119.718 130.949 120.112 132.541 120.112C134.14 120.112 135.139 119.718 135.147 119.043C135.139 118.351 134.14 117.941 132.541 117.936C130.949 117.941 129.947 118.351 129.955 119.043ZM147.528 116.428V117.34H145.096V120.994H143.969V117.34H141.458V120.994H140.314V117.34H137.919V116.428H147.528ZM138.967 113.213C138.967 111.796 140.48 110.896 142.701 110.888C144.922 110.896 146.446 111.796 146.446 113.213C146.446 114.613 144.922 115.5 142.701 115.492C140.48 115.5 138.967 114.613 138.967 113.213ZM140.111 113.213C140.103 114.075 141.143 114.605 142.701 114.609C144.263 114.605 145.299 114.075 145.299 113.213C145.299 112.33 144.263 111.791 142.701 111.791C141.143 111.791 140.103 112.33 140.111 113.213ZM153.566 111.282C155.136 111.286 156.255 112.715 156.263 114.965C156.255 117.228 155.136 118.657 153.566 118.657C151.995 118.657 150.876 117.228 150.885 114.965C150.876 112.715 151.995 111.286 153.566 111.282ZM151.945 114.965C151.945 116.631 152.608 117.659 153.566 117.659C154.544 117.659 155.19 116.631 155.194 114.965C155.19 113.312 154.544 112.285 153.566 112.276C152.608 112.285 151.945 113.312 151.945 114.965ZM157.821 120.994V110.494H158.936V114.609H160.618V115.55H158.936V120.994H157.821ZM169.585 110.494V121.015H168.466V110.494H169.585ZM161.248 114.965C161.248 112.715 162.379 111.286 163.962 111.282C165.528 111.286 166.672 112.715 166.672 114.965C166.672 117.228 165.528 118.657 163.962 118.657C162.379 118.657 161.248 117.228 161.248 114.965ZM162.321 114.965C162.321 116.631 162.992 117.659 163.962 117.659C164.932 117.659 165.594 116.631 165.594 114.965C165.594 113.312 164.932 112.285 163.962 112.276C162.992 112.285 162.321 113.312 162.321 114.965ZM179.43 110.967V111.891C179.426 112.881 179.426 113.938 179.136 115.367L178.034 115.272C178.154 114.709 178.224 114.203 178.266 113.735L172.025 114.017L171.876 113.084L178.315 112.902C178.324 112.554 178.328 112.218 178.328 111.891V111.866H172.145V110.967H179.43ZM171.031 116.905V116.01H174.814V114.543H175.933V116.01H180.578V116.905H171.031ZM172.212 120.833V117.721H173.322V119.925H179.65V120.833H172.212ZM185.927 110.669C188.293 110.669 189.673 111.307 189.673 112.471C189.673 113.652 188.293 114.29 185.927 114.298C183.561 114.29 182.173 113.652 182.173 112.471C182.173 111.307 183.561 110.669 185.927 110.669ZM181.15 115.827V114.936H190.721V115.827H181.15ZM182.289 117.468V116.635H189.507V119.093H183.4V120.033H189.81V120.895H182.31V118.293H188.413V117.468H182.289ZM183.337 112.471C183.329 113.126 184.257 113.461 185.927 113.461C187.609 113.461 188.533 113.126 188.533 112.471C188.533 111.858 187.609 111.493 185.927 111.497C184.257 111.493 183.329 111.858 183.337 112.471ZM202.361 110.963V111.796C202.361 112.612 202.361 113.532 202.125 114.713H203.53V115.612H193.983V114.713H201.014C201.101 114.278 201.155 113.888 201.193 113.523L195.043 113.78L194.911 112.906L201.242 112.736C201.255 112.43 201.255 112.14 201.255 111.854H195.172V110.963H202.361ZM195.072 117.352V116.49H202.427V119.035H196.204V119.983H202.8V120.862H195.097V118.206H201.321V117.352H195.072ZM212.811 110.503V116.921H211.697V110.503H212.811ZM204.632 112.015V111.116H209.455V114.116H205.738V115.463C207.578 115.459 208.925 115.401 210.52 115.156L210.661 116.055C208.945 116.329 207.516 116.383 205.527 116.383H204.652V113.25H208.353V112.015H204.632ZM205.693 118.367V117.456H212.811V120.994H211.697V118.367H205.693ZM222.412 110.494V114.75H224.094V115.674H222.412V120.994H221.31V110.494H222.412ZM214.174 113.047V112.14H216.764V110.631H217.875V112.14H220.394V113.047H214.174ZM214.713 116.267C214.709 114.833 215.811 113.822 217.328 113.822C218.828 113.822 219.93 114.833 219.934 116.267C219.93 117.704 218.828 118.703 217.328 118.707C215.811 118.703 214.709 117.704 214.713 116.267ZM215.778 116.267C215.77 117.174 216.429 117.783 217.328 117.779C218.215 117.783 218.865 117.174 218.873 116.267C218.865 115.363 218.215 114.742 217.328 114.742C216.429 114.742 215.77 115.363 215.778 116.267ZM227.21 111.282C228.167 111.286 228.951 111.829 229.415 112.778H232.017V110.494H233.119V121.015H232.017V116.988H229.493C229.046 118.044 228.225 118.657 227.21 118.657C225.64 118.657 224.538 117.228 224.546 114.965C224.538 112.715 225.64 111.286 227.21 111.282ZM225.607 114.965C225.607 116.631 226.257 117.659 227.21 117.659C228.155 117.659 228.81 116.631 228.81 114.965C228.81 113.312 228.155 112.285 227.21 112.276C226.257 112.285 225.607 113.312 225.607 114.965ZM229.73 113.693C229.817 114.079 229.862 114.506 229.862 114.965C229.862 115.363 229.825 115.736 229.763 116.08H232.017V113.693H229.73ZM114.087 131.167C114.078 133.023 115.164 134.925 116.722 135.688L116.038 136.579C114.89 135.986 114.004 134.809 113.544 133.409C113.075 134.901 112.156 136.156 110.962 136.778L110.27 135.883C111.882 135.104 112.972 133.094 112.98 131.167V129.369H114.087V131.167ZM117.513 138.994V128.494H118.628V132.684H120.31V133.633H118.628V138.994H117.513ZM128.83 128.503V131.122H130.359V132.062H128.83V134.751H127.715V128.503H128.83ZM120.994 129.953V129.054H125.78V132.029H122.121V133.33C123.944 133.334 125.237 133.28 126.766 133.023L126.882 133.91C125.258 134.204 123.87 134.258 121.856 134.258H121.015V131.18H124.69V129.953H120.994ZM122.104 138.862V135.244H128.83V138.862H122.104ZM123.19 137.959H127.744V136.115H123.19V137.959ZM140.295 132.8V133.691H130.711V132.8H140.295ZM131.85 135.373V134.515H139.068V137.059H132.961V138H139.371V138.883H131.871V136.239H137.974V135.373H131.85ZM131.958 132.033V128.805H139.052V129.696H133.068V131.138H139.151V132.033H131.958ZM149.871 128.494V138.994H148.802V128.494H149.871ZM140.958 133.028C140.958 130.757 141.849 129.336 143.216 129.336C144.492 129.336 145.358 130.546 145.491 132.518H146.676V128.698H147.737V138.477H146.676V133.421H145.495C145.391 135.472 144.517 136.74 143.216 136.736C141.849 136.74 140.958 135.311 140.958 133.028ZM141.994 133.028C141.985 134.702 142.462 135.684 143.216 135.675C143.991 135.684 144.472 134.702 144.472 133.028C144.472 131.358 143.991 130.38 143.216 130.38C142.462 130.38 141.985 131.358 141.994 133.028ZM159.998 128.494V138.994H158.941V128.494H159.998ZM150.931 135.961C153.161 134.64 154.23 132.87 154.416 130.715H151.429V129.8H155.527C155.523 130.827 155.377 131.805 155.058 132.717H156.728V128.764H157.781V138.485H156.728V133.608H154.673C154.047 134.822 153.049 135.891 151.574 136.753L150.931 135.961ZM169.446 129.124V130.032H165.509V131.175H169.147V132.05H165.509V133.264C167.61 133.268 168.832 133.231 170.262 132.986L170.378 133.869C168.857 134.134 167.556 134.163 165.26 134.155H164.39V129.124H169.446ZM165.6 138.862V135.244H172.504V138.862H165.6ZM166.698 137.959H171.41V136.119H166.698V137.959ZM171.389 134.751V128.503H172.504V134.751H171.389ZM182.651 128.494V138.994H181.532V128.494H182.651ZM173.904 135.522C174.335 135.522 174.799 135.522 175.284 135.514V130.483H174.182V129.572H180.161V130.483H179.063V135.369C179.61 135.331 180.153 135.282 180.671 135.22L180.729 136.048C178.458 136.409 175.959 136.446 174.024 136.454L173.904 135.522ZM176.361 135.493C176.887 135.481 177.43 135.464 177.973 135.435V130.483H176.361V135.493ZM192.807 128.494V133.989H191.697V132.232H189.724V131.354H191.697V130.363H189.724V129.493H191.697V128.494H192.807ZM184.027 133.177C185.651 132.638 186.637 131.258 186.641 129.82V128.764H187.752V129.82C187.744 131.18 188.709 132.481 190.284 133.003L189.699 133.86C188.527 133.446 187.652 132.597 187.201 131.536C186.745 132.684 185.833 133.599 184.611 134.039L184.027 133.177ZM185.941 135.331V134.449H192.807V137.03H187.056V137.983H193.168V138.862H185.962V136.202H191.705V135.331H185.941ZM203.779 134.225V135.133H194.17V134.225H198.43V133.231H195.405V130.558H201.459V129.622H195.376V128.739H202.569V131.383H196.507V132.356H202.785V133.231H199.524V134.225H203.779ZM195.248 136.757V135.862H202.627V138.912H201.509V136.757H195.248ZM210.671 130.38C210.671 131.722 211.599 132.999 213.207 133.537L212.639 134.399C211.45 133.989 210.584 133.169 210.128 132.141C209.668 133.272 208.756 134.163 207.521 134.598L206.925 133.736C208.561 133.177 209.552 131.818 209.56 130.376V130.09H207.248V129.191H212.937V130.09H210.671V130.38ZM208.317 136.243V135.344H215.258V138.994H214.143V136.243H208.317ZM214.143 134.822V128.494H215.258V131.192H216.778V132.133H215.258V134.822H214.143ZM220.868 130.073C220.86 131.536 221.813 132.849 223.404 133.367L222.799 134.238C221.643 133.819 220.793 133.011 220.338 131.959C219.882 133.16 218.966 134.097 217.694 134.557L217.097 133.662C218.775 133.09 219.749 131.693 219.758 130.119V129.079H220.868V130.073ZM218.825 136.993C218.817 135.721 220.168 134.983 222.372 134.983C224.572 134.983 225.919 135.721 225.923 136.993C225.919 138.261 224.572 138.978 222.372 138.978C220.168 138.978 218.817 138.261 218.825 136.993ZM219.927 136.993C219.919 137.693 220.835 138.099 222.372 138.099C223.905 138.099 224.817 137.693 224.821 136.993C224.817 136.268 223.905 135.858 222.372 135.858C220.835 135.858 219.919 136.268 219.927 136.993ZM222.567 131.548V130.633H224.78V128.494H225.89V134.693H224.78V131.548H222.567ZM232.047 128.669C234.413 128.669 235.793 129.307 235.793 130.471C235.793 131.652 234.413 132.29 232.047 132.298C229.681 132.29 228.293 131.652 228.293 130.471C228.293 129.307 229.681 128.669 232.047 128.669ZM227.27 133.827V132.936H236.842V133.827H227.27ZM228.409 135.468V134.635H235.628V137.093H229.52V138.033H235.93V138.895H228.43V136.293H234.534V135.468H228.409ZM229.458 130.471C229.449 131.126 230.378 131.461 232.047 131.461C233.73 131.461 234.654 131.126 234.654 130.471C234.654 129.858 233.73 129.493 232.047 129.497C230.378 129.493 229.449 129.858 229.458 130.471ZM152.965 154.765V155.685H143.356V154.765H145.655V152.018C144.789 151.546 144.263 150.791 144.263 149.851C144.263 148.198 145.883 147.112 148.133 147.104C150.392 147.112 152.016 148.198 152.016 149.851C152.016 150.779 151.506 151.521 150.661 151.997V154.765H152.965ZM145.345 149.851C145.345 150.974 146.488 151.707 148.133 151.707C149.77 151.707 150.93 150.974 150.93 149.851C150.93 148.715 149.77 147.994 148.133 148.003C146.488 147.994 145.345 148.715 145.345 149.851ZM146.749 154.765H149.538V152.424C149.107 152.523 148.635 152.577 148.133 152.577C147.636 152.577 147.172 152.523 146.749 152.428V154.765ZM157.166 148.736C157.166 149.971 158.177 151.123 159.781 151.57L159.251 152.436C158.032 152.093 157.117 151.338 156.636 150.373C156.18 151.454 155.264 152.312 154.013 152.71L153.483 151.848C155.078 151.338 156.06 150.087 156.06 148.736V148.599H153.777V147.713H156.06V146.449H157.183V147.713H159.445V148.599H157.166V148.736ZM155.173 155.03C155.165 153.796 156.516 153.095 158.72 153.095C160.916 153.095 162.267 153.796 162.271 155.03C162.267 156.265 160.916 156.978 158.72 156.978C156.516 156.978 155.165 156.265 155.173 155.03ZM156.275 155.03C156.267 155.71 157.183 156.112 158.72 156.112C160.266 156.112 161.165 155.71 161.169 155.03C161.165 154.347 160.266 153.961 158.72 153.957C157.183 153.961 156.267 154.347 156.275 155.03ZM159.122 150.344V149.436H161.128V146.494H162.238V152.855H161.128V150.344H159.122ZM168.801 148.235V149.134H163.593V148.235H165.656V146.805H166.759V148.235H168.801ZM163.933 152.18C163.924 150.767 164.886 149.764 166.208 149.764C167.534 149.764 168.482 150.767 168.491 152.18C168.482 153.613 167.534 154.62 166.208 154.62C164.886 154.62 163.924 153.613 163.933 152.18ZM164.911 152.18C164.911 153.07 165.449 153.671 166.208 153.663C166.962 153.671 167.505 153.07 167.505 152.18C167.505 151.305 166.962 150.696 166.208 150.692C165.449 150.696 164.911 151.305 164.911 152.18ZM169.29 156.501V146.731H170.339V150.87H171.549V146.494H172.609V156.994H171.549V151.778H170.339V156.501H169.29ZM183.358 154.773V155.693H173.749V154.773H177.975V152.619H174.843V147.211H175.957V149.022H181.112V147.211H182.218V152.619H179.078V154.773H183.358ZM175.957 151.715H181.112V149.917H175.957V151.715ZM187.079 149.362C187.079 151.044 187.779 152.83 189.188 153.688L188.562 154.55C187.58 153.957 186.917 152.905 186.557 151.691C186.171 153.021 185.45 154.156 184.431 154.778L183.735 153.949C185.223 153.062 186.002 151.202 186.002 149.412V147.452H187.079V149.362ZM188.044 151.11V150.186H189.681V146.698H190.729V156.477H189.681V151.11H188.044ZM191.84 156.994V146.494H192.909V156.994H191.84ZM203.62 154.765V155.685H194.011V154.765H196.311V152.018C195.445 151.546 194.919 150.791 194.919 149.851C194.919 148.198 196.539 147.112 198.789 147.104C201.047 147.112 202.671 148.198 202.671 149.851C202.671 150.779 202.162 151.521 201.316 151.997V154.765H203.62ZM196 149.851C196 150.974 197.144 151.707 198.789 151.707C200.425 151.707 201.586 150.974 201.586 149.851C201.586 148.715 200.425 147.994 198.789 148.003C197.144 147.994 196 148.715 196 149.851ZM197.405 154.765H200.193V152.424C199.762 152.523 199.29 152.577 198.789 152.577C198.291 152.577 197.827 152.523 197.405 152.428V154.765ZM206.077 147.514L205.97 153.555H204.813L204.706 147.514H206.077ZM204.565 155.25C204.557 154.794 204.938 154.421 205.398 154.421C205.845 154.421 206.226 154.794 206.226 155.25C206.226 155.706 205.845 156.079 205.398 156.079C204.938 156.079 204.557 155.706 204.565 155.25Z" fill="#191919"/>
<path d="M132.541 117.095C134.811 117.095 136.245 117.812 136.253 119.043C136.245 120.261 134.811 120.978 132.541 120.978C130.286 120.978 128.844 120.261 128.844 119.043C128.844 117.812 130.286 117.095 132.541 117.095ZM127.817 116.225V115.322H131.646V113.354H132.739V115.322H137.364V116.225H127.817ZM128.931 111.903V111.008H136.175V111.891C136.175 112.728 136.175 113.598 135.88 114.68L134.786 114.568C135.068 113.486 135.068 112.72 135.068 111.903H128.931ZM129.955 119.043C129.947 119.718 130.949 120.112 132.541 120.112C134.14 120.112 135.139 119.718 135.147 119.043C135.139 118.351 134.14 117.941 132.541 117.936C130.949 117.941 129.947 118.351 129.955 119.043ZM147.528 116.428V117.34H145.096V120.994H143.969V117.34H141.458V120.994H140.314V117.34H137.919V116.428H147.528ZM138.967 113.213C138.967 111.796 140.48 110.896 142.701 110.888C144.922 110.896 146.446 111.796 146.446 113.213C146.446 114.613 144.922 115.5 142.701 115.492C140.48 115.5 138.967 114.613 138.967 113.213ZM140.111 113.213C140.103 114.075 141.143 114.605 142.701 114.609C144.263 114.605 145.299 114.075 145.299 113.213C145.299 112.33 144.263 111.791 142.701 111.791C141.143 111.791 140.103 112.33 140.111 113.213ZM153.566 111.282C155.136 111.286 156.255 112.715 156.263 114.965C156.255 117.228 155.136 118.657 153.566 118.657C151.995 118.657 150.876 117.228 150.885 114.965C150.876 112.715 151.995 111.286 153.566 111.282ZM151.945 114.965C151.945 116.631 152.608 117.659 153.566 117.659C154.544 117.659 155.19 116.631 155.194 114.965C155.19 113.312 154.544 112.285 153.566 112.276C152.608 112.285 151.945 113.312 151.945 114.965ZM157.821 120.994V110.494H158.936V114.609H160.618V115.55H158.936V120.994H157.821ZM169.585 110.494V121.015H168.466V110.494H169.585ZM161.248 114.965C161.248 112.715 162.379 111.286 163.962 111.282C165.528 111.286 166.672 112.715 166.672 114.965C166.672 117.228 165.528 118.657 163.962 118.657C162.379 118.657 161.248 117.228 161.248 114.965ZM162.321 114.965C162.321 116.631 162.992 117.659 163.962 117.659C164.932 117.659 165.594 116.631 165.594 114.965C165.594 113.312 164.932 112.285 163.962 112.276C162.992 112.285 162.321 113.312 162.321 114.965ZM179.43 110.967V111.891C179.426 112.881 179.426 113.938 179.136 115.367L178.034 115.272C178.154 114.709 178.224 114.203 178.266 113.735L172.025 114.017L171.876 113.084L178.315 112.902C178.324 112.554 178.328 112.218 178.328 111.891V111.866H172.145V110.967H179.43ZM171.031 116.905V116.01H174.814V114.543H175.933V116.01H180.578V116.905H171.031ZM172.212 120.833V117.721H173.322V119.925H179.65V120.833H172.212ZM185.927 110.669C188.293 110.669 189.673 111.307 189.673 112.471C189.673 113.652 188.293 114.29 185.927 114.298C183.561 114.29 182.173 113.652 182.173 112.471C182.173 111.307 183.561 110.669 185.927 110.669ZM181.15 115.827V114.936H190.721V115.827H181.15ZM182.289 117.468V116.635H189.507V119.093H183.4V120.033H189.81V120.895H182.31V118.293H188.413V117.468H182.289ZM183.337 112.471C183.329 113.126 184.257 113.461 185.927 113.461C187.609 113.461 188.533 113.126 188.533 112.471C188.533 111.858 187.609 111.493 185.927 111.497C184.257 111.493 183.329 111.858 183.337 112.471ZM202.361 110.963V111.796C202.361 112.612 202.361 113.532 202.125 114.713H203.53V115.612H193.983V114.713H201.014C201.101 114.278 201.155 113.888 201.193 113.523L195.043 113.78L194.911 112.906L201.242 112.736C201.255 112.43 201.255 112.14 201.255 111.854H195.172V110.963H202.361ZM195.072 117.352V116.49H202.427V119.035H196.204V119.983H202.8V120.862H195.097V118.206H201.321V117.352H195.072ZM212.811 110.503V116.921H211.697V110.503H212.811ZM204.632 112.015V111.116H209.455V114.116H205.738V115.463C207.578 115.459 208.925 115.401 210.52 115.156L210.661 116.055C208.945 116.329 207.516 116.383 205.527 116.383H204.652V113.25H208.353V112.015H204.632ZM205.693 118.367V117.456H212.811V120.994H211.697V118.367H205.693ZM222.412 110.494V114.75H224.094V115.674H222.412V120.994H221.31V110.494H222.412ZM214.174 113.047V112.14H216.764V110.631H217.875V112.14H220.394V113.047H214.174ZM214.713 116.267C214.709 114.833 215.811 113.822 217.328 113.822C218.828 113.822 219.93 114.833 219.934 116.267C219.93 117.704 218.828 118.703 217.328 118.707C215.811 118.703 214.709 117.704 214.713 116.267ZM215.778 116.267C215.77 117.174 216.429 117.783 217.328 117.779C218.215 117.783 218.865 117.174 218.873 116.267C218.865 115.363 218.215 114.742 217.328 114.742C216.429 114.742 215.77 115.363 215.778 116.267ZM227.21 111.282C228.167 111.286 228.951 111.829 229.415 112.778H232.017V110.494H233.119V121.015H232.017V116.988H229.493C229.046 118.044 228.225 118.657 227.21 118.657C225.64 118.657 224.538 117.228 224.546 114.965C224.538 112.715 225.64 111.286 227.21 111.282ZM225.607 114.965C225.607 116.631 226.257 117.659 227.21 117.659C228.155 117.659 228.81 116.631 228.81 114.965C228.81 113.312 228.155 112.285 227.21 112.276C226.257 112.285 225.607 113.312 225.607 114.965ZM229.73 113.693C229.817 114.079 229.862 114.506 229.862 114.965C229.862 115.363 229.825 115.736 229.763 116.08H232.017V113.693H229.73ZM114.087 131.167C114.078 133.023 115.164 134.925 116.722 135.688L116.038 136.579C114.89 135.986 114.004 134.809 113.544 133.409C113.075 134.901 112.156 136.156 110.962 136.778L110.27 135.883C111.882 135.104 112.972 133.094 112.98 131.167V129.369H114.087V131.167ZM117.513 138.994V128.494H118.628V132.684H120.31V133.633H118.628V138.994H117.513ZM128.83 128.503V131.122H130.359V132.062H128.83V134.751H127.715V128.503H128.83ZM120.994 129.953V129.054H125.78V132.029H122.121V133.33C123.944 133.334 125.237 133.28 126.766 133.023L126.882 133.91C125.258 134.204 123.87 134.258 121.856 134.258H121.015V131.18H124.69V129.953H120.994ZM122.104 138.862V135.244H128.83V138.862H122.104ZM123.19 137.959H127.744V136.115H123.19V137.959ZM140.295 132.8V133.691H130.711V132.8H140.295ZM131.85 135.373V134.515H139.068V137.059H132.961V138H139.371V138.883H131.871V136.239H137.974V135.373H131.85ZM131.958 132.033V128.805H139.052V129.696H133.068V131.138H139.151V132.033H131.958ZM149.871 128.494V138.994H148.802V128.494H149.871ZM140.958 133.028C140.958 130.757 141.849 129.336 143.216 129.336C144.492 129.336 145.358 130.546 145.491 132.518H146.676V128.698H147.737V138.477H146.676V133.421H145.495C145.391 135.472 144.517 136.74 143.216 136.736C141.849 136.74 140.958 135.311 140.958 133.028ZM141.994 133.028C141.985 134.702 142.462 135.684 143.216 135.675C143.991 135.684 144.472 134.702 144.472 133.028C144.472 131.358 143.991 130.38 143.216 130.38C142.462 130.38 141.985 131.358 141.994 133.028ZM159.998 128.494V138.994H158.941V128.494H159.998ZM150.931 135.961C153.161 134.64 154.23 132.87 154.416 130.715H151.429V129.8H155.527C155.523 130.827 155.377 131.805 155.058 132.717H156.728V128.764H157.781V138.485H156.728V133.608H154.673C154.047 134.822 153.049 135.891 151.574 136.753L150.931 135.961ZM169.446 129.124V130.032H165.509V131.175H169.147V132.05H165.509V133.264C167.61 133.268 168.832 133.231 170.262 132.986L170.378 133.869C168.857 134.134 167.556 134.163 165.26 134.155H164.39V129.124H169.446ZM165.6 138.862V135.244H172.504V138.862H165.6ZM166.698 137.959H171.41V136.119H166.698V137.959ZM171.389 134.751V128.503H172.504V134.751H171.389ZM182.651 128.494V138.994H181.532V128.494H182.651ZM173.904 135.522C174.335 135.522 174.799 135.522 175.284 135.514V130.483H174.182V129.572H180.161V130.483H179.063V135.369C179.61 135.331 180.153 135.282 180.671 135.22L180.729 136.048C178.458 136.409 175.959 136.446 174.024 136.454L173.904 135.522ZM176.361 135.493C176.887 135.481 177.43 135.464 177.973 135.435V130.483H176.361V135.493ZM192.807 128.494V133.989H191.697V132.232H189.724V131.354H191.697V130.363H189.724V129.493H191.697V128.494H192.807ZM184.027 133.177C185.651 132.638 186.637 131.258 186.641 129.82V128.764H187.752V129.82C187.744 131.18 188.709 132.481 190.284 133.003L189.699 133.86C188.527 133.446 187.652 132.597 187.201 131.536C186.745 132.684 185.833 133.599 184.611 134.039L184.027 133.177ZM185.941 135.331V134.449H192.807V137.03H187.056V137.983H193.168V138.862H185.962V136.202H191.705V135.331H185.941ZM203.779 134.225V135.133H194.17V134.225H198.43V133.231H195.405V130.558H201.459V129.622H195.376V128.739H202.569V131.383H196.507V132.356H202.785V133.231H199.524V134.225H203.779ZM195.248 136.757V135.862H202.627V138.912H201.509V136.757H195.248ZM210.671 130.38C210.671 131.722 211.599 132.999 213.207 133.537L212.639 134.399C211.45 133.989 210.584 133.169 210.128 132.141C209.668 133.272 208.756 134.163 207.521 134.598L206.925 133.736C208.561 133.177 209.552 131.818 209.56 130.376V130.09H207.248V129.191H212.937V130.09H210.671V130.38ZM208.317 136.243V135.344H215.258V138.994H214.143V136.243H208.317ZM214.143 134.822V128.494H215.258V131.192H216.778V132.133H215.258V134.822H214.143ZM220.868 130.073C220.86 131.536 221.813 132.849 223.404 133.367L222.799 134.238C221.643 133.819 220.793 133.011 220.338 131.959C219.882 133.16 218.966 134.097 217.694 134.557L217.097 133.662C218.775 133.09 219.749 131.693 219.758 130.119V129.079H220.868V130.073ZM218.825 136.993C218.817 135.721 220.168 134.983 222.372 134.983C224.572 134.983 225.919 135.721 225.923 136.993C225.919 138.261 224.572 138.978 222.372 138.978C220.168 138.978 218.817 138.261 218.825 136.993ZM219.927 136.993C219.919 137.693 220.835 138.099 222.372 138.099C223.905 138.099 224.817 137.693 224.821 136.993C224.817 136.268 223.905 135.858 222.372 135.858C220.835 135.858 219.919 136.268 219.927 136.993ZM222.567 131.548V130.633H224.78V128.494H225.89V134.693H224.78V131.548H222.567ZM232.047 128.669C234.413 128.669 235.793 129.307 235.793 130.471C235.793 131.652 234.413 132.29 232.047 132.298C229.681 132.29 228.293 131.652 228.293 130.471C228.293 129.307 229.681 128.669 232.047 128.669ZM227.27 133.827V132.936H236.842V133.827H227.27ZM228.409 135.468V134.635H235.628V137.093H229.52V138.033H235.93V138.895H228.43V136.293H234.534V135.468H228.409ZM229.458 130.471C229.449 131.126 230.378 131.461 232.047 131.461C233.73 131.461 234.654 131.126 234.654 130.471C234.654 129.858 233.73 129.493 232.047 129.497C230.378 129.493 229.449 129.858 229.458 130.471ZM152.965 154.765V155.685H143.356V154.765H145.655V152.018C144.789 151.546 144.263 150.791 144.263 149.851C144.263 148.198 145.883 147.112 148.133 147.104C150.392 147.112 152.016 148.198 152.016 149.851C152.016 150.779 151.506 151.521 150.661 151.997V154.765H152.965ZM145.345 149.851C145.345 150.974 146.488 151.707 148.133 151.707C149.77 151.707 150.93 150.974 150.93 149.851C150.93 148.715 149.77 147.994 148.133 148.003C146.488 147.994 145.345 148.715 145.345 149.851ZM146.749 154.765H149.538V152.424C149.107 152.523 148.635 152.577 148.133 152.577C147.636 152.577 147.172 152.523 146.749 152.428V154.765ZM157.166 148.736C157.166 149.971 158.177 151.123 159.781 151.57L159.251 152.436C158.032 152.093 157.117 151.338 156.636 150.373C156.18 151.454 155.264 152.312 154.013 152.71L153.483 151.848C155.078 151.338 156.06 150.087 156.06 148.736V148.599H153.777V147.713H156.06V146.449H157.183V147.713H159.445V148.599H157.166V148.736ZM155.173 155.03C155.165 153.796 156.516 153.095 158.72 153.095C160.916 153.095 162.267 153.796 162.271 155.03C162.267 156.265 160.916 156.978 158.72 156.978C156.516 156.978 155.165 156.265 155.173 155.03ZM156.275 155.03C156.267 155.71 157.183 156.112 158.72 156.112C160.266 156.112 161.165 155.71 161.169 155.03C161.165 154.347 160.266 153.961 158.72 153.957C157.183 153.961 156.267 154.347 156.275 155.03ZM159.122 150.344V149.436H161.128V146.494H162.238V152.855H161.128V150.344H159.122ZM168.801 148.235V149.134H163.593V148.235H165.656V146.805H166.759V148.235H168.801ZM163.933 152.18C163.924 150.767 164.886 149.764 166.208 149.764C167.534 149.764 168.482 150.767 168.491 152.18C168.482 153.613 167.534 154.62 166.208 154.62C164.886 154.62 163.924 153.613 163.933 152.18ZM164.911 152.18C164.911 153.07 165.449 153.671 166.208 153.663C166.962 153.671 167.505 153.07 167.505 152.18C167.505 151.305 166.962 150.696 166.208 150.692C165.449 150.696 164.911 151.305 164.911 152.18ZM169.29 156.501V146.731H170.339V150.87H171.549V146.494H172.609V156.994H171.549V151.778H170.339V156.501H169.29ZM183.358 154.773V155.693H173.749V154.773H177.975V152.619H174.843V147.211H175.957V149.022H181.112V147.211H182.218V152.619H179.078V154.773H183.358ZM175.957 151.715H181.112V149.917H175.957V151.715ZM187.079 149.362C187.079 151.044 187.779 152.83 189.188 153.688L188.562 154.55C187.58 153.957 186.917 152.905 186.557 151.691C186.171 153.021 185.45 154.156 184.431 154.778L183.735 153.949C185.223 153.062 186.002 151.202 186.002 149.412V147.452H187.079V149.362ZM188.044 151.11V150.186H189.681V146.698H190.729V156.477H189.681V151.11H188.044ZM191.84 156.994V146.494H192.909V156.994H191.84ZM203.62 154.765V155.685H194.011V154.765H196.311V152.018C195.445 151.546 194.919 150.791 194.919 149.851C194.919 148.198 196.539 147.112 198.789 147.104C201.047 147.112 202.671 148.198 202.671 149.851C202.671 150.779 202.162 151.521 201.316 151.997V154.765H203.62ZM196 149.851C196 150.974 197.144 151.707 198.789 151.707C200.425 151.707 201.586 150.974 201.586 149.851C201.586 148.715 200.425 147.994 198.789 148.003C197.144 147.994 196 148.715 196 149.851ZM197.405 154.765H200.193V152.424C199.762 152.523 199.29 152.577 198.789 152.577C198.291 152.577 197.827 152.523 197.405 152.428V154.765ZM206.077 147.514L205.97 153.555H204.813L204.706 147.514H206.077ZM204.565 155.25C204.557 154.794 204.938 154.421 205.398 154.421C205.845 154.421 206.226 154.794 206.226 155.25C206.226 155.706 205.845 156.079 205.398 156.079C204.938 156.079 204.557 155.706 204.565 155.25Z" fill="black" fill-opacity="0.2"/>
<path d="M174.168 93.2481C174.564 92.6543 175.436 92.6543 175.832 93.2481L181 101L169 101L174.168 93.2481Z" fill="#E8FCF7"/>
</svg>
