<svg width="238" height="369" viewBox="0 0 238 369" fill="none" xmlns="http://www.w3.org/2000/svg">
<rect width="183" height="52" rx="8" fill="#E8FCF7"/>
<path d="M55.4622 19.524H59.1582V18.876C58.7182 18.876 58.4022 18.824 58.2102 18.72C58.0182 18.608 57.9222 18.364 57.9222 17.988V13.824H57.2142C56.9582 13.968 56.6902 14.096 56.4102 14.208C56.1382 14.312 55.8622 14.396 55.5822 14.46V15.12H56.7102V17.988C56.7102 18.244 56.6702 18.436 56.5902 18.564C56.5102 18.684 56.3782 18.768 56.1942 18.816C56.0102 18.856 55.7662 18.876 55.4622 18.876V19.524ZM57.1542 21.66C56.4742 21.66 55.8342 21.532 55.2342 21.276C54.6342 21.02 54.1062 20.668 53.6502 20.22C53.2022 19.764 52.8502 19.236 52.5942 18.636C52.3382 18.036 52.2102 17.396 52.2102 16.716C52.2102 16.036 52.3382 15.4 52.5942 14.808C52.8502 14.208 53.2022 13.68 53.6502 13.224C54.1062 12.768 54.6342 12.412 55.2342 12.156C55.8342 11.9 56.4742 11.772 57.1542 11.772C57.8422 11.772 58.4822 11.9 59.0742 12.156C59.6742 12.412 60.1982 12.768 60.6462 13.224C61.1022 13.68 61.4582 14.208 61.7142 14.808C61.9702 15.4 62.0982 16.036 62.0982 16.716C62.0982 17.396 61.9702 18.036 61.7142 18.636C61.4582 19.236 61.1022 19.764 60.6462 20.22C60.1982 20.668 59.6742 21.02 59.0742 21.276C58.4822 21.532 57.8422 21.66 57.1542 21.66Z" fill="#11DCA9"/>
<path d="M74.0793 11.4945V14.0884H75.6001V15.029H74.0793V17.6395H72.9647V11.4945H74.0793ZM65.7672 16.6948C68.2824 16.0276 69.7782 14.6934 69.9771 13.0401H66.2686V12.1367H71.1705C71.1664 14.8425 69.3432 16.7403 66.2271 17.5483L65.7672 16.6948ZM67.1387 18.9945V18.0953H74.0793V21.9945H72.9647V18.9945H67.1387ZM88.2592 19.7486V20.6851H78.6501V19.7486H88.2592ZM79.4664 13.4171V12.5097H87.3808V13.4171H85.7731V16.9227H87.3476V17.8135H79.4913V16.9227H81.0576V13.4171H79.4664ZM82.1639 16.9227H84.6791V13.4171H82.1639V16.9227ZM98.3903 19.8108V20.7348H88.7812V19.8108H93.0077V17.9627H89.9497V14.6229H96.1155V13.1478H89.929V12.2403H97.2135V15.518H91.0561V17.0511H97.458V17.9627H94.11V19.8108H98.3903ZM107.635 11.4945V16.9268H106.52V11.4945H107.635ZM99.0863 15.7086C99.4883 15.7086 99.9151 15.7044 100.363 15.6961V13.0608H99.3723V12.1906H105.07V13.0608H104.067V15.547C104.577 15.5097 105.074 15.4641 105.546 15.4061L105.596 16.2141C103.503 16.5331 101.059 16.6077 99.2148 16.6036L99.0863 15.7086ZM100.669 18.2776V17.4075H107.635V20.0055H101.796V21H107.999V21.895H100.698V19.1934H106.532V18.2776H100.669ZM101.432 15.6754C101.945 15.6588 102.472 15.6423 102.998 15.6133V13.0608H101.432V15.6754ZM114.356 12.5345V19.3591H109.441V12.5345H114.356ZM110.531 18.4599H113.245V13.4171H110.531V18.4599ZM116.108 21.9945V11.4945H117.223V15.6091H118.905V16.5497H117.223V21.9945H116.108ZM127.354 11.4945V15.5594H129.036V16.4834H127.354V22.0152H126.239V11.4945H127.354ZM119.618 19.4088V12.5055H124.528V13.4088H120.728V18.4807C122.489 18.4724 123.811 18.3978 125.315 18.1243L125.448 19.0732C123.807 19.3591 122.411 19.413 120.463 19.4088H119.618ZM29.5422 29.4945V39.9945H28.4855V34.5663H27.1264V39.4558H26.0988V29.7099H27.1264V33.6588H28.4855V29.4945H29.5422ZM20.8902 37.471V30.7583H24.8184V31.6616H22.0049V36.5304C23.2935 36.518 24.2632 36.4599 25.3819 36.2445L25.4731 37.1644C24.2051 37.4254 23.1195 37.4627 21.5864 37.471H20.8902ZM40.2782 37.8439V38.7514H30.6691V37.8439H33.2465V35.511H31.5103V34.5994H33.0766V31.3343H31.4854V30.4268H39.3998V31.3343H37.792V34.5994H39.3666V35.511H37.6387V37.8439H40.2782ZM34.1829 34.5994H36.6981V31.3343H34.1829V34.5994ZM34.3611 37.8439H36.5241V35.511H34.3611V37.8439ZM49.1501 30.5594C49.1418 33.6588 48.1183 36.4392 44.2648 38.3246L43.6639 37.4544C45.5534 36.5387 46.7219 35.4075 47.3766 34.0691L43.8794 34.3923L43.7178 33.4227L47.733 33.1699C47.8987 32.6312 47.9982 32.0635 48.0438 31.4669H44.2523V30.5594H49.1501ZM51.0976 39.9945V29.4945H52.2164V39.9945H51.0976ZM62.4014 29.5028V39.9986H61.266V37.4917H58.9497V36.6423H61.266V29.5028H62.4014ZM53.5713 34.9641C55.5602 34.9599 58.208 34.9475 60.5036 34.6285L60.5699 35.453C59.5671 35.6229 58.5354 35.7265 57.5243 35.7928V39.6754H56.4097V35.8467C55.4483 35.884 54.5326 35.8881 53.7204 35.8881L53.5713 34.9641ZM54.3503 32.0801C54.3503 30.8453 55.4483 29.9876 57.0271 29.9876C58.5809 29.9876 59.6914 30.8453 59.6914 32.0801C59.6914 33.3481 58.5809 34.1685 57.0271 34.1768C55.4483 34.1685 54.3503 33.3481 54.3503 32.0801ZM55.3986 32.0801C55.3945 32.8384 56.0616 33.3191 57.0271 33.3191C57.9635 33.3191 58.6307 32.8384 58.6389 32.0801C58.6307 31.3467 57.9635 30.8494 57.0271 30.8453C56.0575 30.8494 55.3945 31.3467 55.3986 32.0801ZM72.2548 34.4793V35.3867H64.9454V30.4392H72.1637V31.3508H66.0435V34.4793H72.2548ZM63.7521 38.6105V37.6865H73.3612V38.6105H63.7521ZM83.4757 34.3135V35.1671H73.8666V34.3135H83.4757ZM75.0061 36.7044V35.9006H82.2948V38.2169H76.129V39.0829H82.6221V39.8702H75.0185V37.4751H81.1926V36.7044H75.0061ZM75.0724 30.5511V29.768H82.2658V32.0387H76.2036V32.8384H82.4481V33.6215H75.1014V31.3052H81.1553V30.5511H75.0724ZM95.4553 29.4945V34.8978H94.3448V32.2044H92.1321V31.3011H94.3448V29.4945H95.4553ZM86.6667 34.0525C88.3034 33.5304 89.2854 32.2251 89.2896 30.7459V29.8343H90.4001V30.7459C90.3918 32.0843 91.3573 33.3315 92.9401 33.8287L92.3476 34.6948C91.1957 34.297 90.3255 33.5097 89.8573 32.5028C89.4056 33.634 88.5023 34.5124 87.2592 34.9392L86.6667 34.0525ZM88.5893 36.2735V35.395H95.4553V38.0014H89.704V38.971H95.8158V39.8619H88.61V37.1644H94.3531V36.2735H88.5893ZM105.586 29.4945V35.7431H104.476V33.087H102.516V32.1713H104.476V29.4945H105.586ZM96.8392 34.7983C98.4635 34.2265 99.4621 32.8094 99.4621 31.3591V31.1271H97.1831V30.2196H102.852V31.1271H100.589V31.3508C100.589 32.6809 101.538 33.9738 103.121 34.5083L102.553 35.395C101.372 34.9848 100.506 34.1436 100.051 33.1077C99.5906 34.2804 98.6707 35.221 97.4152 35.6809L96.8392 34.7983ZM98.5215 38.018C98.5132 36.7666 99.864 36.0373 102.068 36.0373C104.269 36.0373 105.615 36.7666 105.62 38.018C105.615 39.2652 104.269 39.9862 102.068 39.9945C99.864 39.9862 98.5132 39.2652 98.5215 38.018ZM99.6237 38.018C99.6154 38.7224 100.531 39.1285 102.068 39.1202C103.602 39.1285 104.513 38.7224 104.517 38.018C104.513 37.3052 103.602 36.8992 102.068 36.8992C100.531 36.8992 99.6154 37.3052 99.6237 38.018ZM115.216 29.4613V31.9227H116.745V32.8301H115.216V35.2334H114.101V29.4613H115.216ZM106.979 31.2597V30.3895H109.556V29.3992H110.662V30.3895H113.227V31.2597H106.979ZM107.55 33.3812C107.546 32.3246 108.561 31.6616 110.107 31.6616C111.644 31.6616 112.647 32.3246 112.651 33.3812C112.647 34.4544 111.644 35.1008 110.107 35.1008C108.561 35.1008 107.546 34.4544 107.55 33.3812ZM108.425 36.5552V35.7348H115.216V38.1713H109.543V39.0497H115.572V39.895H108.45V37.3798H114.11V36.5552H108.425ZM108.624 33.3812C108.615 33.953 109.2 34.2845 110.107 34.2887C111.006 34.2845 111.59 33.953 111.599 33.3812C111.59 32.8177 111.006 32.4655 110.107 32.4655C109.2 32.4655 108.615 32.8177 108.624 33.3812ZM125.157 30.4185C125.157 31.8149 126.86 33.1243 128.928 33.4019L128.484 34.3094C126.769 34.0359 125.265 33.1409 124.581 31.9061C123.897 33.1492 122.393 34.0359 120.686 34.3094L120.239 33.4019C122.298 33.1243 123.997 31.8315 123.997 30.4185V29.8467H125.157V30.4185ZM119.787 36.261V35.3412H129.359V36.261H125.095V39.9945H124.001V36.261H119.787ZM136.246 36.4309C136.246 37.3343 136.697 38.2873 137.646 38.8591C138.608 38.2376 139.084 37.2348 139.084 36.4309V35.9296H140.178V36.4309C140.17 37.5249 140.891 38.5773 142.258 39.029L141.707 39.8412C140.671 39.4848 139.967 38.7845 139.602 37.9227C139.271 38.7638 138.641 39.5387 137.68 39.9365C136.668 39.5594 136.03 38.8177 135.707 37.9558C135.33 38.7845 134.634 39.4807 133.644 39.8412L133.088 39.029C134.435 38.5401 135.164 37.4503 135.173 36.4309V35.9296H136.246V36.4309ZM132.819 32.5649C132.819 31.0981 134.004 30.087 135.616 30.087C137.224 30.087 138.405 31.0981 138.405 32.5649C138.405 34.0193 137.224 35.0304 135.616 35.0304C134.004 35.0304 132.819 34.0193 132.819 32.5649ZM133.909 32.5649C133.901 33.4807 134.617 34.1022 135.616 34.1064C136.602 34.1022 137.315 33.4807 137.315 32.5649C137.315 31.645 136.602 31.0235 135.616 31.0318C134.617 31.0235 133.901 31.645 133.909 32.5649ZM140.203 35.4779V29.5028H141.318V35.4779H140.203ZM145.585 30.2818C147.007 30.2859 148.051 31.4917 148.217 33.4309H150.392V29.4945H151.494V40.0152H150.392V34.3384H148.225C148.109 36.3854 147.048 37.6575 145.585 37.6575C144.015 37.6575 142.913 36.2279 142.921 33.9655C142.913 31.7155 144.015 30.2859 145.585 30.2818ZM143.982 33.9655C143.982 35.6312 144.632 36.6588 145.585 36.6588C146.53 36.6588 147.185 35.6312 147.185 33.9655C147.185 32.3122 146.53 31.2845 145.585 31.2762C144.632 31.2845 143.982 32.3122 143.982 33.9655ZM162.479 37.7652V38.6851H152.87V37.7652H155.17V35.018C154.304 34.5456 153.777 33.7914 153.777 32.8508C153.777 31.1975 155.398 30.1119 157.648 30.1036C159.906 30.1119 161.53 31.1975 161.53 32.8508C161.53 33.779 161.02 34.5207 160.175 34.9972V37.7652H162.479ZM154.859 32.8508C154.859 33.9738 156.002 34.7072 157.648 34.7072C159.284 34.7072 160.444 33.9738 160.444 32.8508C160.444 31.7155 159.284 30.9945 157.648 31.0028C156.002 30.9945 154.859 31.7155 154.859 32.8508ZM156.264 37.7652H159.052V35.424C158.621 35.5235 158.149 35.5773 157.648 35.5773C157.15 35.5773 156.686 35.5235 156.264 35.4282V37.7652Z" fill="#191919"/>
<path d="M74.0793 11.4945V14.0884H75.6001V15.029H74.0793V17.6395H72.9647V11.4945H74.0793ZM65.7672 16.6948C68.2824 16.0276 69.7782 14.6934 69.9771 13.0401H66.2686V12.1367H71.1705C71.1664 14.8425 69.3432 16.7403 66.2271 17.5483L65.7672 16.6948ZM67.1387 18.9945V18.0953H74.0793V21.9945H72.9647V18.9945H67.1387ZM88.2592 19.7486V20.6851H78.6501V19.7486H88.2592ZM79.4664 13.4171V12.5097H87.3808V13.4171H85.7731V16.9227H87.3476V17.8135H79.4913V16.9227H81.0576V13.4171H79.4664ZM82.1639 16.9227H84.6791V13.4171H82.1639V16.9227ZM98.3903 19.8108V20.7348H88.7812V19.8108H93.0077V17.9627H89.9497V14.6229H96.1155V13.1478H89.929V12.2403H97.2135V15.518H91.0561V17.0511H97.458V17.9627H94.11V19.8108H98.3903ZM107.635 11.4945V16.9268H106.52V11.4945H107.635ZM99.0863 15.7086C99.4883 15.7086 99.9151 15.7044 100.363 15.6961V13.0608H99.3723V12.1906H105.07V13.0608H104.067V15.547C104.577 15.5097 105.074 15.4641 105.546 15.4061L105.596 16.2141C103.503 16.5331 101.059 16.6077 99.2148 16.6036L99.0863 15.7086ZM100.669 18.2776V17.4075H107.635V20.0055H101.796V21H107.999V21.895H100.698V19.1934H106.532V18.2776H100.669ZM101.432 15.6754C101.945 15.6588 102.472 15.6423 102.998 15.6133V13.0608H101.432V15.6754ZM114.356 12.5345V19.3591H109.441V12.5345H114.356ZM110.531 18.4599H113.245V13.4171H110.531V18.4599ZM116.108 21.9945V11.4945H117.223V15.6091H118.905V16.5497H117.223V21.9945H116.108ZM127.354 11.4945V15.5594H129.036V16.4834H127.354V22.0152H126.239V11.4945H127.354ZM119.618 19.4088V12.5055H124.528V13.4088H120.728V18.4807C122.489 18.4724 123.811 18.3978 125.315 18.1243L125.448 19.0732C123.807 19.3591 122.411 19.413 120.463 19.4088H119.618ZM29.5422 29.4945V39.9945H28.4855V34.5663H27.1264V39.4558H26.0988V29.7099H27.1264V33.6588H28.4855V29.4945H29.5422ZM20.8902 37.471V30.7583H24.8184V31.6616H22.0049V36.5304C23.2935 36.518 24.2632 36.4599 25.3819 36.2445L25.4731 37.1644C24.2051 37.4254 23.1195 37.4627 21.5864 37.471H20.8902ZM40.2782 37.8439V38.7514H30.6691V37.8439H33.2465V35.511H31.5103V34.5994H33.0766V31.3343H31.4854V30.4268H39.3998V31.3343H37.792V34.5994H39.3666V35.511H37.6387V37.8439H40.2782ZM34.1829 34.5994H36.6981V31.3343H34.1829V34.5994ZM34.3611 37.8439H36.5241V35.511H34.3611V37.8439ZM49.1501 30.5594C49.1418 33.6588 48.1183 36.4392 44.2648 38.3246L43.6639 37.4544C45.5534 36.5387 46.7219 35.4075 47.3766 34.0691L43.8794 34.3923L43.7178 33.4227L47.733 33.1699C47.8987 32.6312 47.9982 32.0635 48.0438 31.4669H44.2523V30.5594H49.1501ZM51.0976 39.9945V29.4945H52.2164V39.9945H51.0976ZM62.4014 29.5028V39.9986H61.266V37.4917H58.9497V36.6423H61.266V29.5028H62.4014ZM53.5713 34.9641C55.5602 34.9599 58.208 34.9475 60.5036 34.6285L60.5699 35.453C59.5671 35.6229 58.5354 35.7265 57.5243 35.7928V39.6754H56.4097V35.8467C55.4483 35.884 54.5326 35.8881 53.7204 35.8881L53.5713 34.9641ZM54.3503 32.0801C54.3503 30.8453 55.4483 29.9876 57.0271 29.9876C58.5809 29.9876 59.6914 30.8453 59.6914 32.0801C59.6914 33.3481 58.5809 34.1685 57.0271 34.1768C55.4483 34.1685 54.3503 33.3481 54.3503 32.0801ZM55.3986 32.0801C55.3945 32.8384 56.0616 33.3191 57.0271 33.3191C57.9635 33.3191 58.6307 32.8384 58.6389 32.0801C58.6307 31.3467 57.9635 30.8494 57.0271 30.8453C56.0575 30.8494 55.3945 31.3467 55.3986 32.0801ZM72.2548 34.4793V35.3867H64.9454V30.4392H72.1637V31.3508H66.0435V34.4793H72.2548ZM63.7521 38.6105V37.6865H73.3612V38.6105H63.7521ZM83.4757 34.3135V35.1671H73.8666V34.3135H83.4757ZM75.0061 36.7044V35.9006H82.2948V38.2169H76.129V39.0829H82.6221V39.8702H75.0185V37.4751H81.1926V36.7044H75.0061ZM75.0724 30.5511V29.768H82.2658V32.0387H76.2036V32.8384H82.4481V33.6215H75.1014V31.3052H81.1553V30.5511H75.0724ZM95.4553 29.4945V34.8978H94.3448V32.2044H92.1321V31.3011H94.3448V29.4945H95.4553ZM86.6667 34.0525C88.3034 33.5304 89.2854 32.2251 89.2896 30.7459V29.8343H90.4001V30.7459C90.3918 32.0843 91.3573 33.3315 92.9401 33.8287L92.3476 34.6948C91.1957 34.297 90.3255 33.5097 89.8573 32.5028C89.4056 33.634 88.5023 34.5124 87.2592 34.9392L86.6667 34.0525ZM88.5893 36.2735V35.395H95.4553V38.0014H89.704V38.971H95.8158V39.8619H88.61V37.1644H94.3531V36.2735H88.5893ZM105.586 29.4945V35.7431H104.476V33.087H102.516V32.1713H104.476V29.4945H105.586ZM96.8392 34.7983C98.4635 34.2265 99.4621 32.8094 99.4621 31.3591V31.1271H97.1831V30.2196H102.852V31.1271H100.589V31.3508C100.589 32.6809 101.538 33.9738 103.121 34.5083L102.553 35.395C101.372 34.9848 100.506 34.1436 100.051 33.1077C99.5906 34.2804 98.6707 35.221 97.4152 35.6809L96.8392 34.7983ZM98.5215 38.018C98.5132 36.7666 99.864 36.0373 102.068 36.0373C104.269 36.0373 105.615 36.7666 105.62 38.018C105.615 39.2652 104.269 39.9862 102.068 39.9945C99.864 39.9862 98.5132 39.2652 98.5215 38.018ZM99.6237 38.018C99.6154 38.7224 100.531 39.1285 102.068 39.1202C103.602 39.1285 104.513 38.7224 104.517 38.018C104.513 37.3052 103.602 36.8992 102.068 36.8992C100.531 36.8992 99.6154 37.3052 99.6237 38.018ZM115.216 29.4613V31.9227H116.745V32.8301H115.216V35.2334H114.101V29.4613H115.216ZM106.979 31.2597V30.3895H109.556V29.3992H110.662V30.3895H113.227V31.2597H106.979ZM107.55 33.3812C107.546 32.3246 108.561 31.6616 110.107 31.6616C111.644 31.6616 112.647 32.3246 112.651 33.3812C112.647 34.4544 111.644 35.1008 110.107 35.1008C108.561 35.1008 107.546 34.4544 107.55 33.3812ZM108.425 36.5552V35.7348H115.216V38.1713H109.543V39.0497H115.572V39.895H108.45V37.3798H114.11V36.5552H108.425ZM108.624 33.3812C108.615 33.953 109.2 34.2845 110.107 34.2887C111.006 34.2845 111.59 33.953 111.599 33.3812C111.59 32.8177 111.006 32.4655 110.107 32.4655C109.2 32.4655 108.615 32.8177 108.624 33.3812ZM125.157 30.4185C125.157 31.8149 126.86 33.1243 128.928 33.4019L128.484 34.3094C126.769 34.0359 125.265 33.1409 124.581 31.9061C123.897 33.1492 122.393 34.0359 120.686 34.3094L120.239 33.4019C122.298 33.1243 123.997 31.8315 123.997 30.4185V29.8467H125.157V30.4185ZM119.787 36.261V35.3412H129.359V36.261H125.095V39.9945H124.001V36.261H119.787ZM136.246 36.4309C136.246 37.3343 136.697 38.2873 137.646 38.8591C138.608 38.2376 139.084 37.2348 139.084 36.4309V35.9296H140.178V36.4309C140.17 37.5249 140.891 38.5773 142.258 39.029L141.707 39.8412C140.671 39.4848 139.967 38.7845 139.602 37.9227C139.271 38.7638 138.641 39.5387 137.68 39.9365C136.668 39.5594 136.03 38.8177 135.707 37.9558C135.33 38.7845 134.634 39.4807 133.644 39.8412L133.088 39.029C134.435 38.5401 135.164 37.4503 135.173 36.4309V35.9296H136.246V36.4309ZM132.819 32.5649C132.819 31.0981 134.004 30.087 135.616 30.087C137.224 30.087 138.405 31.0981 138.405 32.5649C138.405 34.0193 137.224 35.0304 135.616 35.0304C134.004 35.0304 132.819 34.0193 132.819 32.5649ZM133.909 32.5649C133.901 33.4807 134.617 34.1022 135.616 34.1064C136.602 34.1022 137.315 33.4807 137.315 32.5649C137.315 31.645 136.602 31.0235 135.616 31.0318C134.617 31.0235 133.901 31.645 133.909 32.5649ZM140.203 35.4779V29.5028H141.318V35.4779H140.203ZM145.585 30.2818C147.007 30.2859 148.051 31.4917 148.217 33.4309H150.392V29.4945H151.494V40.0152H150.392V34.3384H148.225C148.109 36.3854 147.048 37.6575 145.585 37.6575C144.015 37.6575 142.913 36.2279 142.921 33.9655C142.913 31.7155 144.015 30.2859 145.585 30.2818ZM143.982 33.9655C143.982 35.6312 144.632 36.6588 145.585 36.6588C146.53 36.6588 147.185 35.6312 147.185 33.9655C147.185 32.3122 146.53 31.2845 145.585 31.2762C144.632 31.2845 143.982 32.3122 143.982 33.9655ZM162.479 37.7652V38.6851H152.87V37.7652H155.17V35.018C154.304 34.5456 153.777 33.7914 153.777 32.8508C153.777 31.1975 155.398 30.1119 157.648 30.1036C159.906 30.1119 161.53 31.1975 161.53 32.8508C161.53 33.779 161.02 34.5207 160.175 34.9972V37.7652H162.479ZM154.859 32.8508C154.859 33.9738 156.002 34.7072 157.648 34.7072C159.284 34.7072 160.444 33.9738 160.444 32.8508C160.444 31.7155 159.284 30.9945 157.648 31.0028C156.002 30.9945 154.859 31.7155 154.859 32.8508ZM156.264 37.7652H159.052V35.424C158.621 35.5235 158.149 35.5773 157.648 35.5773C157.15 35.5773 156.686 35.5235 156.264 35.4282V37.7652Z" fill="black" fill-opacity="0.2"/>
<path d="M92.3321 57.7519C91.9362 58.3457 91.0638 58.3457 90.6679 57.7519L85.5 50L97.5 50L92.3321 57.7519Z" fill="#E8FCF7"/>
<rect x="65" y="310" width="170" height="52" rx="8" fill="#E8FCF7"/>
<path d="M115.474 329.812C116.25 329.812 116.866 329.644 117.322 329.308C117.786 328.972 118.018 328.528 118.018 327.976C118.018 327.512 117.858 327.14 117.538 326.86C117.218 326.58 116.766 326.404 116.182 326.332C116.694 326.212 117.074 326.04 117.322 325.816C117.57 325.592 117.694 325.304 117.694 324.952C117.694 324.528 117.514 324.2 117.154 323.968C116.802 323.736 116.302 323.62 115.654 323.62C115.046 323.62 114.566 323.724 114.214 323.932C113.87 324.132 113.698 324.4 113.698 324.736C113.698 324.936 113.754 325.1 113.866 325.228C113.978 325.348 114.142 325.408 114.358 325.408C114.574 325.408 114.734 325.352 114.838 325.24C114.942 325.12 114.994 324.968 114.994 324.784C114.994 324.696 114.982 324.62 114.958 324.556C114.934 324.484 114.906 324.432 114.874 324.4C114.938 324.352 115.026 324.32 115.138 324.304C115.258 324.28 115.382 324.268 115.51 324.268C115.822 324.268 116.062 324.332 116.23 324.46C116.406 324.58 116.494 324.76 116.494 325C116.494 325.336 116.362 325.6 116.098 325.792C115.834 325.984 115.474 326.096 115.018 326.128V326.716C115.402 326.732 115.722 326.788 115.978 326.884C116.234 326.972 116.426 327.104 116.554 327.28C116.682 327.448 116.746 327.668 116.746 327.94C116.746 328.316 116.634 328.612 116.41 328.828C116.194 329.044 115.886 329.152 115.486 329.152C115.326 329.152 115.178 329.136 115.042 329.104C114.906 329.064 114.806 329.012 114.742 328.948C114.846 328.812 114.898 328.64 114.898 328.432C114.898 328.216 114.834 328.056 114.706 327.952C114.586 327.84 114.422 327.784 114.214 327.784C113.974 327.784 113.79 327.856 113.662 328C113.534 328.144 113.47 328.332 113.47 328.564C113.47 328.964 113.65 329.272 114.01 329.488C114.37 329.704 114.858 329.812 115.474 329.812ZM115.654 331.66C114.974 331.66 114.334 331.532 113.734 331.276C113.134 331.02 112.606 330.668 112.15 330.22C111.702 329.764 111.35 329.236 111.094 328.636C110.838 328.036 110.71 327.396 110.71 326.716C110.71 326.036 110.838 325.4 111.094 324.808C111.35 324.208 111.702 323.68 112.15 323.224C112.606 322.768 113.134 322.412 113.734 322.156C114.334 321.9 114.974 321.772 115.654 321.772C116.342 321.772 116.982 321.9 117.574 322.156C118.174 322.412 118.698 322.768 119.146 323.224C119.602 323.68 119.958 324.208 120.214 324.808C120.47 325.4 120.598 326.036 120.598 326.716C120.598 327.396 120.47 328.036 120.214 328.636C119.958 329.236 119.602 329.764 119.146 330.22C118.698 330.668 118.174 331.02 117.574 331.276C116.982 331.532 116.342 331.66 115.654 331.66Z" fill="#11DCA9"/>
<path d="M129.99 322.559C129.981 325.659 128.958 328.439 125.104 330.325L124.503 329.454C126.393 328.539 127.561 327.407 128.216 326.069L124.719 326.392L124.557 325.423L128.572 325.17C128.738 324.631 128.838 324.064 128.883 323.467H125.092V322.559H129.99ZM131.937 331.994V321.494H133.056V331.994H131.937ZM143.241 321.503V331.999H142.105V329.492H139.789V328.642H142.105V321.503H143.241ZM134.411 326.964C136.4 326.96 139.047 326.948 141.343 326.628L141.409 327.453C140.407 327.623 139.375 327.727 138.364 327.793V331.675H137.249V327.847C136.288 327.884 135.372 327.888 134.56 327.888L134.411 326.964ZM135.19 324.08C135.19 322.845 136.288 321.988 137.867 321.988C139.42 321.988 140.531 322.845 140.531 324.08C140.531 325.348 139.42 326.169 137.867 326.177C136.288 326.169 135.19 325.348 135.19 324.08ZM136.238 324.08C136.234 324.838 136.901 325.319 137.867 325.319C138.803 325.319 139.47 324.838 139.478 324.08C139.47 323.347 138.803 322.849 137.867 322.845C136.897 322.849 136.234 323.347 136.238 324.08ZM153.094 326.479V327.387H145.785V322.439H153.003V323.351H146.883V326.479H153.094ZM144.592 330.61V329.686H154.201V330.61H144.592ZM164.315 326.314V327.167H154.706V326.314H164.315ZM155.846 328.704V327.901H163.134V330.217H156.968V331.083H163.462V331.87H155.858V329.475H162.032V328.704H155.846ZM155.912 322.551V321.768H163.105V324.039H157.043V324.838H163.288V325.622H155.941V323.305H161.995V322.551H155.912ZM176.017 323.885V324.789H168.807V321.648H169.897V323.885H176.017ZM167.527 326.504V325.605H177.136V326.504H172.851V327.523H175.93V330.03H169.835V331.017H176.291V331.895H168.72V329.239H174.836V328.373H168.699V327.523H171.774V326.504H167.527ZM186.418 321.494V332.015H185.315V326.367H183.389V325.443H185.315V321.494H186.418ZM178.031 323.351V322.439H182.771V326.198H179.166V328.58C180.844 328.576 182.137 328.522 183.608 328.253L183.695 329.173C182.125 329.45 180.741 329.512 178.884 329.517H178.064V325.29H181.686V323.351H178.031ZM88.6473 342.362C88.6473 344.044 89.3476 345.83 90.7564 346.688L90.1307 347.55C89.1487 346.957 88.4857 345.905 88.1252 344.691C87.7398 346.021 87.0189 347.156 85.9995 347.778L85.3034 346.949C86.791 346.062 87.57 344.202 87.57 342.412V340.452H88.6473V342.362ZM89.6128 344.11V343.186H91.2495V339.698H92.2979V349.477H91.2495V344.11H89.6128ZM93.4084 349.994V339.494H94.4774V349.994H93.4084ZM105.172 345.669V346.555H100.888V349.994H99.7936V346.555H95.5629V345.669H105.172ZM96.7604 344.479V339.921H97.8627V341.289H102.86V339.921H103.97V344.479H96.7604ZM97.8627 343.584H102.86V342.18H97.8627V343.584ZM114.702 339.494V349.994H113.625V344.62H112.287V349.456H111.242V339.71H112.287V343.696H113.625V339.494H114.702ZM106.2 347.326V340.733H107.314V346.348C108.284 346.331 109.34 346.257 110.53 346.025L110.654 346.994C109.212 347.256 108.01 347.326 106.879 347.326H106.2ZM125.414 344.616V345.519H115.842V344.616H118.137V343.207C117.325 342.88 116.865 342.349 116.865 341.653C116.865 340.406 118.311 339.681 120.619 339.677C122.919 339.681 124.365 340.406 124.365 341.653C124.365 342.349 123.905 342.88 123.093 343.211V344.616H125.414ZM116.973 348.101C116.973 346.899 118.336 346.232 120.615 346.24C122.878 346.232 124.237 346.899 124.245 348.101C124.237 349.311 122.878 349.974 120.615 349.974C118.336 349.974 116.973 349.311 116.973 348.101ZM118.021 341.653C118.013 342.358 118.987 342.747 120.619 342.747C122.244 342.747 123.226 342.358 123.226 341.653C123.226 340.949 122.244 340.543 120.619 340.543C118.987 340.543 118.013 340.949 118.021 341.653ZM118.104 348.101C118.096 348.756 119.012 349.128 120.615 349.12C122.202 349.128 123.126 348.756 123.135 348.101C123.126 347.45 122.202 347.094 120.615 347.086C119.012 347.094 118.096 347.45 118.104 348.101ZM119.256 344.616H121.987V343.501C121.576 343.568 121.117 343.601 120.619 343.601C120.122 343.601 119.666 343.568 119.256 343.506V344.616ZM130.75 339.669C133.116 339.669 134.496 340.307 134.496 341.471C134.496 342.652 133.116 343.29 130.75 343.298C128.384 343.29 126.996 342.652 126.996 341.471C126.996 340.307 128.384 339.669 130.75 339.669ZM125.973 344.827V343.936H135.545V344.827H125.973ZM127.112 346.468V345.635H134.331V348.093H128.223V349.033H134.633V349.895H127.133V347.293H133.237V346.468H127.112ZM128.161 341.471C128.152 342.126 129.081 342.461 130.75 342.461C132.433 342.461 133.357 342.126 133.357 341.471C133.357 340.858 132.433 340.493 130.75 340.497C129.081 340.493 128.152 340.858 128.161 341.471ZM147.052 339.503V342.619H148.548V343.543H147.052V346.572H145.941V339.503H147.052ZM138.719 345.407C139.535 345.407 140.48 345.403 141.466 345.378V344.666C140.269 344.537 139.506 343.978 139.515 343.128C139.506 342.167 140.505 341.57 142.009 341.579C143.517 341.57 144.504 342.167 144.512 343.128C144.504 343.97 143.762 344.533 142.577 344.666V345.337C143.517 345.287 144.462 345.213 145.345 345.088L145.432 345.88C143.178 346.278 140.691 346.294 138.843 346.298L138.719 345.407ZM138.988 341.227V340.394H141.466V339.412H142.577V340.394H145.046V341.227H138.988ZM140.028 347.939V347.061H147.052V349.994H145.941V347.939H140.028ZM140.575 343.128C140.571 343.617 141.118 343.945 142.009 343.936C142.9 343.945 143.447 343.617 143.447 343.128C143.447 342.623 142.9 342.333 142.009 342.341C141.118 342.333 140.571 342.623 140.575 343.128ZM157.635 339.503V347.135H156.52V339.503H157.635ZM149.136 342.814C149.136 341.293 150.35 340.215 151.933 340.215C153.516 340.215 154.722 341.293 154.722 342.814C154.722 344.355 153.516 345.428 151.933 345.424C150.35 345.428 149.136 344.355 149.136 342.814ZM150.226 342.814C150.217 343.8 150.955 344.454 151.933 344.454C152.894 344.454 153.632 343.8 153.632 342.814C153.632 341.844 152.894 341.185 151.933 341.185C150.955 341.185 150.217 341.844 150.226 342.814ZM150.764 349.779V346.36H151.883V348.867H157.941V349.779H150.764ZM167.306 339.461V341.923H168.835V342.83H167.306V345.233H166.191V339.461H167.306ZM159.068 341.26V340.39H161.646V339.399H162.752V340.39H165.317V341.26H159.068ZM159.64 343.381C159.636 342.325 160.651 341.662 162.197 341.662C163.734 341.662 164.737 342.325 164.741 343.381C164.737 344.454 163.734 345.101 162.197 345.101C160.651 345.101 159.636 344.454 159.64 343.381ZM160.514 346.555V345.735H167.306V348.171H161.633V349.05H167.662V349.895H160.539V347.38H166.199V346.555H160.514ZM160.713 343.381C160.705 343.953 161.289 344.285 162.197 344.289C163.096 344.285 163.68 343.953 163.688 343.381C163.68 342.818 163.096 342.465 162.197 342.465C161.289 342.465 160.705 342.818 160.713 343.381ZM177.247 340.419C177.247 341.815 178.95 343.124 181.017 343.402L180.574 344.309C178.859 344.036 177.354 343.141 176.671 341.906C175.987 343.149 174.483 344.036 172.776 344.309L172.328 343.402C174.388 343.124 176.086 341.831 176.086 340.419V339.847H177.247V340.419ZM171.877 346.261V345.341H181.448V346.261H177.185V349.994H176.091V346.261H171.877ZM188.335 346.431C188.335 347.334 188.787 348.287 189.736 348.859C190.697 348.238 191.174 347.235 191.174 346.431V345.93H192.268V346.431C192.259 347.525 192.98 348.577 194.348 349.029L193.797 349.841C192.761 349.485 192.056 348.785 191.692 347.923C191.36 348.764 190.73 349.539 189.769 349.936C188.758 349.559 188.12 348.818 187.797 347.956C187.42 348.785 186.724 349.481 185.733 349.841L185.178 349.029C186.525 348.54 187.254 347.45 187.262 346.431V345.93H188.335V346.431ZM184.909 342.565C184.909 341.098 186.094 340.087 187.706 340.087C189.313 340.087 190.494 341.098 190.494 342.565C190.494 344.019 189.313 345.03 187.706 345.03C186.094 345.03 184.909 344.019 184.909 342.565ZM185.998 342.565C185.99 343.481 186.707 344.102 187.706 344.106C188.692 344.102 189.405 343.481 189.405 342.565C189.405 341.645 188.692 341.023 187.706 341.032C186.707 341.023 185.99 341.645 185.998 342.565ZM192.293 345.478V339.503H193.407V345.478H192.293ZM197.675 340.282C199.096 340.286 200.141 341.492 200.306 343.431H202.482V339.494H203.584V350.015H202.482V344.338H200.315C200.199 346.385 199.138 347.657 197.675 347.657C196.105 347.657 195.002 346.228 195.011 343.965C195.002 341.715 196.105 340.286 197.675 340.282ZM196.072 343.965C196.072 345.631 196.722 346.659 197.675 346.659C198.62 346.659 199.275 345.631 199.275 343.965C199.275 342.312 198.62 341.285 197.675 341.276C196.722 341.285 196.072 342.312 196.072 343.965ZM214.569 347.765V348.685H204.96V347.765H207.259V345.018C206.393 344.546 205.867 343.791 205.867 342.851C205.867 341.198 207.487 340.112 209.737 340.104C211.995 340.112 213.62 341.198 213.62 342.851C213.62 343.779 213.11 344.521 212.265 344.997V347.765H214.569ZM206.948 342.851C206.948 343.974 208.092 344.707 209.737 344.707C211.374 344.707 212.534 343.974 212.534 342.851C212.534 341.715 211.374 340.994 209.737 341.003C208.092 340.994 206.948 341.715 206.948 342.851ZM208.353 347.765H211.142V345.424C210.711 345.523 210.239 345.577 209.737 345.577C209.24 345.577 208.776 345.523 208.353 345.428V347.765Z" fill="#191919"/>
<path d="M129.99 322.559C129.981 325.659 128.958 328.439 125.104 330.325L124.503 329.454C126.393 328.539 127.561 327.407 128.216 326.069L124.719 326.392L124.557 325.423L128.572 325.17C128.738 324.631 128.838 324.064 128.883 323.467H125.092V322.559H129.99ZM131.937 331.994V321.494H133.056V331.994H131.937ZM143.241 321.503V331.999H142.105V329.492H139.789V328.642H142.105V321.503H143.241ZM134.411 326.964C136.4 326.96 139.047 326.948 141.343 326.628L141.409 327.453C140.407 327.623 139.375 327.727 138.364 327.793V331.675H137.249V327.847C136.288 327.884 135.372 327.888 134.56 327.888L134.411 326.964ZM135.19 324.08C135.19 322.845 136.288 321.988 137.867 321.988C139.42 321.988 140.531 322.845 140.531 324.08C140.531 325.348 139.42 326.169 137.867 326.177C136.288 326.169 135.19 325.348 135.19 324.08ZM136.238 324.08C136.234 324.838 136.901 325.319 137.867 325.319C138.803 325.319 139.47 324.838 139.478 324.08C139.47 323.347 138.803 322.849 137.867 322.845C136.897 322.849 136.234 323.347 136.238 324.08ZM153.094 326.479V327.387H145.785V322.439H153.003V323.351H146.883V326.479H153.094ZM144.592 330.61V329.686H154.201V330.61H144.592ZM164.315 326.314V327.167H154.706V326.314H164.315ZM155.846 328.704V327.901H163.134V330.217H156.968V331.083H163.462V331.87H155.858V329.475H162.032V328.704H155.846ZM155.912 322.551V321.768H163.105V324.039H157.043V324.838H163.288V325.622H155.941V323.305H161.995V322.551H155.912ZM176.017 323.885V324.789H168.807V321.648H169.897V323.885H176.017ZM167.527 326.504V325.605H177.136V326.504H172.851V327.523H175.93V330.03H169.835V331.017H176.291V331.895H168.72V329.239H174.836V328.373H168.699V327.523H171.774V326.504H167.527ZM186.418 321.494V332.015H185.315V326.367H183.389V325.443H185.315V321.494H186.418ZM178.031 323.351V322.439H182.771V326.198H179.166V328.58C180.844 328.576 182.137 328.522 183.608 328.253L183.695 329.173C182.125 329.45 180.741 329.512 178.884 329.517H178.064V325.29H181.686V323.351H178.031ZM88.6473 342.362C88.6473 344.044 89.3476 345.83 90.7564 346.688L90.1307 347.55C89.1487 346.957 88.4857 345.905 88.1252 344.691C87.7398 346.021 87.0189 347.156 85.9995 347.778L85.3034 346.949C86.791 346.062 87.57 344.202 87.57 342.412V340.452H88.6473V342.362ZM89.6128 344.11V343.186H91.2495V339.698H92.2979V349.477H91.2495V344.11H89.6128ZM93.4084 349.994V339.494H94.4774V349.994H93.4084ZM105.172 345.669V346.555H100.888V349.994H99.7936V346.555H95.5629V345.669H105.172ZM96.7604 344.479V339.921H97.8627V341.289H102.86V339.921H103.97V344.479H96.7604ZM97.8627 343.584H102.86V342.18H97.8627V343.584ZM114.702 339.494V349.994H113.625V344.62H112.287V349.456H111.242V339.71H112.287V343.696H113.625V339.494H114.702ZM106.2 347.326V340.733H107.314V346.348C108.284 346.331 109.34 346.257 110.53 346.025L110.654 346.994C109.212 347.256 108.01 347.326 106.879 347.326H106.2ZM125.414 344.616V345.519H115.842V344.616H118.137V343.207C117.325 342.88 116.865 342.349 116.865 341.653C116.865 340.406 118.311 339.681 120.619 339.677C122.919 339.681 124.365 340.406 124.365 341.653C124.365 342.349 123.905 342.88 123.093 343.211V344.616H125.414ZM116.973 348.101C116.973 346.899 118.336 346.232 120.615 346.24C122.878 346.232 124.237 346.899 124.245 348.101C124.237 349.311 122.878 349.974 120.615 349.974C118.336 349.974 116.973 349.311 116.973 348.101ZM118.021 341.653C118.013 342.358 118.987 342.747 120.619 342.747C122.244 342.747 123.226 342.358 123.226 341.653C123.226 340.949 122.244 340.543 120.619 340.543C118.987 340.543 118.013 340.949 118.021 341.653ZM118.104 348.101C118.096 348.756 119.012 349.128 120.615 349.12C122.202 349.128 123.126 348.756 123.135 348.101C123.126 347.45 122.202 347.094 120.615 347.086C119.012 347.094 118.096 347.45 118.104 348.101ZM119.256 344.616H121.987V343.501C121.576 343.568 121.117 343.601 120.619 343.601C120.122 343.601 119.666 343.568 119.256 343.506V344.616ZM130.75 339.669C133.116 339.669 134.496 340.307 134.496 341.471C134.496 342.652 133.116 343.29 130.75 343.298C128.384 343.29 126.996 342.652 126.996 341.471C126.996 340.307 128.384 339.669 130.75 339.669ZM125.973 344.827V343.936H135.545V344.827H125.973ZM127.112 346.468V345.635H134.331V348.093H128.223V349.033H134.633V349.895H127.133V347.293H133.237V346.468H127.112ZM128.161 341.471C128.152 342.126 129.081 342.461 130.75 342.461C132.433 342.461 133.357 342.126 133.357 341.471C133.357 340.858 132.433 340.493 130.75 340.497C129.081 340.493 128.152 340.858 128.161 341.471ZM147.052 339.503V342.619H148.548V343.543H147.052V346.572H145.941V339.503H147.052ZM138.719 345.407C139.535 345.407 140.48 345.403 141.466 345.378V344.666C140.269 344.537 139.506 343.978 139.515 343.128C139.506 342.167 140.505 341.57 142.009 341.579C143.517 341.57 144.504 342.167 144.512 343.128C144.504 343.97 143.762 344.533 142.577 344.666V345.337C143.517 345.287 144.462 345.213 145.345 345.088L145.432 345.88C143.178 346.278 140.691 346.294 138.843 346.298L138.719 345.407ZM138.988 341.227V340.394H141.466V339.412H142.577V340.394H145.046V341.227H138.988ZM140.028 347.939V347.061H147.052V349.994H145.941V347.939H140.028ZM140.575 343.128C140.571 343.617 141.118 343.945 142.009 343.936C142.9 343.945 143.447 343.617 143.447 343.128C143.447 342.623 142.9 342.333 142.009 342.341C141.118 342.333 140.571 342.623 140.575 343.128ZM157.635 339.503V347.135H156.52V339.503H157.635ZM149.136 342.814C149.136 341.293 150.35 340.215 151.933 340.215C153.516 340.215 154.722 341.293 154.722 342.814C154.722 344.355 153.516 345.428 151.933 345.424C150.35 345.428 149.136 344.355 149.136 342.814ZM150.226 342.814C150.217 343.8 150.955 344.454 151.933 344.454C152.894 344.454 153.632 343.8 153.632 342.814C153.632 341.844 152.894 341.185 151.933 341.185C150.955 341.185 150.217 341.844 150.226 342.814ZM150.764 349.779V346.36H151.883V348.867H157.941V349.779H150.764ZM167.306 339.461V341.923H168.835V342.83H167.306V345.233H166.191V339.461H167.306ZM159.068 341.26V340.39H161.646V339.399H162.752V340.39H165.317V341.26H159.068ZM159.64 343.381C159.636 342.325 160.651 341.662 162.197 341.662C163.734 341.662 164.737 342.325 164.741 343.381C164.737 344.454 163.734 345.101 162.197 345.101C160.651 345.101 159.636 344.454 159.64 343.381ZM160.514 346.555V345.735H167.306V348.171H161.633V349.05H167.662V349.895H160.539V347.38H166.199V346.555H160.514ZM160.713 343.381C160.705 343.953 161.289 344.285 162.197 344.289C163.096 344.285 163.68 343.953 163.688 343.381C163.68 342.818 163.096 342.465 162.197 342.465C161.289 342.465 160.705 342.818 160.713 343.381ZM177.247 340.419C177.247 341.815 178.95 343.124 181.017 343.402L180.574 344.309C178.859 344.036 177.354 343.141 176.671 341.906C175.987 343.149 174.483 344.036 172.776 344.309L172.328 343.402C174.388 343.124 176.086 341.831 176.086 340.419V339.847H177.247V340.419ZM171.877 346.261V345.341H181.448V346.261H177.185V349.994H176.091V346.261H171.877ZM188.335 346.431C188.335 347.334 188.787 348.287 189.736 348.859C190.697 348.238 191.174 347.235 191.174 346.431V345.93H192.268V346.431C192.259 347.525 192.98 348.577 194.348 349.029L193.797 349.841C192.761 349.485 192.056 348.785 191.692 347.923C191.36 348.764 190.73 349.539 189.769 349.936C188.758 349.559 188.12 348.818 187.797 347.956C187.42 348.785 186.724 349.481 185.733 349.841L185.178 349.029C186.525 348.54 187.254 347.45 187.262 346.431V345.93H188.335V346.431ZM184.909 342.565C184.909 341.098 186.094 340.087 187.706 340.087C189.313 340.087 190.494 341.098 190.494 342.565C190.494 344.019 189.313 345.03 187.706 345.03C186.094 345.03 184.909 344.019 184.909 342.565ZM185.998 342.565C185.99 343.481 186.707 344.102 187.706 344.106C188.692 344.102 189.405 343.481 189.405 342.565C189.405 341.645 188.692 341.023 187.706 341.032C186.707 341.023 185.99 341.645 185.998 342.565ZM192.293 345.478V339.503H193.407V345.478H192.293ZM197.675 340.282C199.096 340.286 200.141 341.492 200.306 343.431H202.482V339.494H203.584V350.015H202.482V344.338H200.315C200.199 346.385 199.138 347.657 197.675 347.657C196.105 347.657 195.002 346.228 195.011 343.965C195.002 341.715 196.105 340.286 197.675 340.282ZM196.072 343.965C196.072 345.631 196.722 346.659 197.675 346.659C198.62 346.659 199.275 345.631 199.275 343.965C199.275 342.312 198.62 341.285 197.675 341.276C196.722 341.285 196.072 342.312 196.072 343.965ZM214.569 347.765V348.685H204.96V347.765H207.259V345.018C206.393 344.546 205.867 343.791 205.867 342.851C205.867 341.198 207.487 340.112 209.737 340.104C211.995 340.112 213.62 341.198 213.62 342.851C213.62 343.779 213.11 344.521 212.265 344.997V347.765H214.569ZM206.948 342.851C206.948 343.974 208.092 344.707 209.737 344.707C211.374 344.707 212.534 343.974 212.534 342.851C212.534 341.715 211.374 340.994 209.737 341.003C208.092 340.994 206.948 341.715 206.948 342.851ZM208.353 347.765H211.142V345.424C210.711 345.523 210.239 345.577 209.737 345.577C209.24 345.577 208.776 345.523 208.353 345.428V347.765Z" fill="black" fill-opacity="0.2"/>
<path d="M150.832 367.752C150.436 368.346 149.564 368.346 149.168 367.752L144 360L156 360L150.832 367.752Z" fill="#E8FCF7"/>
<rect x="238" y="232" width="177" height="70" rx="8" transform="rotate(-180 238 232)" fill="#E8FCF7"/>
<path d="M84.9308 181.68H89.0468C89.0628 181.232 89.0748 180.844 89.0828 180.516C89.0988 180.188 89.1188 179.96 89.1428 179.832H88.6148V179.94C88.6148 180.172 88.5908 180.348 88.5428 180.468C88.5028 180.58 88.4228 180.656 88.3028 180.696C88.1828 180.736 88.0028 180.756 87.7628 180.756H85.9148C86.0588 180.596 86.2548 180.42 86.5028 180.228C86.7588 180.036 87.0308 179.832 87.3188 179.616C87.7268 179.296 88.0588 179.004 88.3148 178.74C88.5788 178.476 88.7708 178.22 88.8908 177.972C89.0108 177.716 89.0708 177.452 89.0708 177.18C89.0708 176.932 89.0228 176.708 88.9268 176.508C88.8308 176.308 88.6948 176.14 88.5188 176.004C88.3428 175.868 88.1268 175.764 87.8708 175.692C87.6148 175.62 87.3268 175.584 87.0068 175.584C86.6148 175.584 86.2668 175.644 85.9628 175.764C85.6588 175.884 85.4188 176.052 85.2428 176.268C85.0748 176.476 84.9908 176.72 84.9908 177C84.9908 177.24 85.0508 177.436 85.1708 177.588C85.2908 177.74 85.4628 177.816 85.6868 177.816C85.8948 177.816 86.0628 177.748 86.1908 177.612C86.3268 177.476 86.3948 177.3 86.3948 177.084C86.3948 176.852 86.3108 176.648 86.1428 176.472C86.2068 176.384 86.3068 176.3 86.4428 176.22C86.5868 176.132 86.7668 176.088 86.9828 176.088C87.2948 176.088 87.5508 176.18 87.7508 176.364C87.9588 176.54 88.0628 176.788 88.0628 177.108C88.0628 177.324 88.0028 177.556 87.8828 177.804C87.7628 178.052 87.5708 178.324 87.3068 178.62C87.0508 178.908 86.7068 179.244 86.2748 179.628C86.0188 179.844 85.7748 180.06 85.5428 180.276C85.3108 180.492 85.1068 180.696 84.9308 180.888V181.68ZM87.0548 183.66C86.3748 183.66 85.7348 183.532 85.1348 183.276C84.5348 183.02 84.0068 182.668 83.5508 182.22C83.1028 181.764 82.7508 181.236 82.4948 180.636C82.2388 180.036 82.1108 179.396 82.1108 178.716C82.1108 178.036 82.2388 177.4 82.4948 176.808C82.7508 176.208 83.1028 175.68 83.5508 175.224C84.0068 174.768 84.5348 174.412 85.1348 174.156C85.7348 173.9 86.3748 173.772 87.0548 173.772C87.7428 173.772 88.3828 173.9 88.9748 174.156C89.5748 174.412 90.0988 174.768 90.5468 175.224C91.0028 175.68 91.3588 176.208 91.6148 176.808C91.8708 177.4 91.9988 178.036 91.9988 178.716C91.9988 179.396 91.8708 180.036 91.6148 180.636C91.3588 181.236 91.0028 181.764 90.5468 182.22C90.0988 182.668 89.5748 183.02 88.9748 183.276C88.3828 183.532 87.7428 183.66 87.0548 183.66Z" fill="#11DCA9"/>
<path d="M104.649 173.494V184.015H103.547V178.247H101.219V181.413H96.3042V174.311H97.423V176.983H100.133V174.311H101.219V177.331H103.547V173.494H104.649ZM97.423 180.506H100.133V177.866H97.423V180.506ZM115.597 179.267V180.157H106.004V179.267H115.597ZM107.231 183.779V180.841H108.329V182.867H114.598V183.779H107.231ZM107.256 178.388V173.872H114.428V174.742H108.374V175.699H114.159V176.54H108.374V177.526H114.499V178.388H107.256ZM120.934 173.669C123.3 173.669 124.68 174.307 124.68 175.471C124.68 176.652 123.3 177.29 120.934 177.298C118.568 177.29 117.18 176.652 117.18 175.471C117.18 174.307 118.568 173.669 120.934 173.669ZM116.156 178.827V177.936H125.728V178.827H116.156ZM117.296 180.468V179.635H124.514V182.093H118.406V183.033H124.816V183.895H117.316V181.293H123.42V180.468H117.296ZM118.344 175.471C118.336 176.126 119.264 176.461 120.934 176.461C122.616 176.461 123.54 176.126 123.54 175.471C123.54 174.858 122.616 174.493 120.934 174.497C119.264 174.493 118.336 174.858 118.344 175.471ZM137.368 173.963V174.796C137.368 175.612 137.368 176.532 137.132 177.713H138.536V178.612H128.989V177.713H136.021C136.108 177.278 136.162 176.888 136.199 176.523L130.05 176.78L129.918 175.906L136.249 175.736C136.261 175.43 136.261 175.14 136.261 174.854H130.179V173.963H137.368ZM130.079 180.352V179.49H137.434V182.035H131.21V182.983H137.807V183.862H130.104V181.206H136.328V180.352H130.079ZM147.818 173.503V179.921H146.703V173.503H147.818ZM139.638 175.015V174.116H144.462V177.116H140.745V178.463C142.585 178.459 143.931 178.401 145.527 178.156L145.667 179.055C143.952 179.329 142.522 179.383 140.533 179.383H139.659V176.25H143.359V175.015H139.638ZM140.699 181.367V180.456H147.818V183.994H146.703V181.367H140.699ZM157.489 173.503V176.88H159.01V177.808H157.489V181.363H156.374V173.503H157.489ZM149.252 175.624V174.729H151.829V173.499H152.935V174.729H155.5V175.624H149.252ZM149.823 178.119C149.819 176.913 150.855 176.13 152.38 176.13C153.884 176.13 154.92 176.913 154.924 178.119C154.92 179.304 153.884 180.079 152.38 180.079C150.855 180.079 149.819 179.304 149.823 178.119ZM150.834 183.779V180.738H151.941V182.867H157.937V183.779H150.834ZM150.897 178.119C150.888 178.798 151.485 179.217 152.38 179.213C153.267 179.217 153.863 178.798 153.872 178.119C153.863 177.423 153.267 176.992 152.38 176.992C151.485 176.992 150.888 177.423 150.897 178.119ZM171.093 174.659V175.566H162.545V174.659H166.286V173.453H167.389V174.659H171.093ZM162.06 181.202V180.29H171.669V181.202H167.389V184.011H166.286V181.202H162.06ZM163.344 177.874C163.34 176.731 164.65 176.105 166.838 176.105C169.017 176.105 170.326 176.731 170.331 177.874C170.326 179.001 169.017 179.631 166.838 179.635C164.65 179.631 163.34 179.001 163.344 177.874ZM164.5 177.874C164.492 178.467 165.329 178.798 166.838 178.79C168.338 178.798 169.175 178.467 169.183 177.874C169.175 177.273 168.338 176.942 166.838 176.942C165.329 176.942 164.492 177.273 164.5 177.874ZM183.4 178.189V179.105H180.222V181.773H184.49V182.685H174.881V181.773H179.107V179.105H176.02V174.36H177.156V178.189H183.4ZM193.531 179.084V179.979H186.218V174.36H193.428V175.272H187.34V176.681H193.195V177.568H187.34V179.084H193.531ZM185.012 182.677V181.757H194.621V182.677H185.012ZM204.172 173.494V183.994H203.103V173.494H204.172ZM195.259 178.028C195.259 175.757 196.15 174.336 197.517 174.336C198.793 174.336 199.659 175.546 199.792 177.518H200.977V173.698H202.038V183.477H200.977V178.421H199.796C199.693 180.472 198.818 181.74 197.517 181.736C196.15 181.74 195.259 180.311 195.259 178.028ZM196.295 178.028C196.287 179.702 196.763 180.684 197.517 180.675C198.292 180.684 198.773 179.702 198.773 178.028C198.773 176.358 198.292 175.38 197.517 175.38C196.763 175.38 196.287 176.358 196.295 178.028ZM209.061 176.167C209.057 178.09 210.134 180.004 211.738 180.725L211.067 181.62C209.869 181.019 208.966 179.834 208.506 178.396C208.042 179.909 207.126 181.185 205.92 181.811L205.216 180.916C206.84 180.137 207.926 178.11 207.934 176.167V174.369H209.061V176.167ZM210.586 177.887V176.983H212.927V173.494H214.029V184.015H212.927V177.887H210.586ZM93.9526 191.494V201.994H92.8959V196.566H91.5368V201.456H90.5092V191.71H91.5368V195.659H92.8959V191.494H93.9526ZM85.3006 199.471V192.758H89.2288V193.662H86.4153V198.53C87.7039 198.518 88.6735 198.46 89.7923 198.244L89.8835 199.164C88.6155 199.425 87.5299 199.463 85.9968 199.471H85.3006ZM104.689 199.844V200.751H95.0795V199.844H97.6569V197.511H95.9207V196.599H97.487V193.334H95.8958V192.427H103.81V193.334H102.202V196.599H103.777V197.511H102.049V199.844H104.689ZM98.5933 196.599H101.109V193.334H98.5933V196.599ZM98.7715 199.844H100.934V197.511H98.7715V199.844ZM110.871 192.559C110.863 195.659 109.839 198.439 105.985 200.325L105.385 199.454C107.274 198.539 108.443 197.407 109.097 196.069L105.6 196.392L105.438 195.423L109.454 195.17C109.619 194.631 109.719 194.064 109.764 193.467H105.973V192.559H110.871ZM112.818 201.994V191.494H113.937V201.994H112.818ZM124.122 191.503V201.999H122.987V199.492H120.67V198.642H122.987V191.503H124.122ZM115.292 196.964C117.281 196.96 119.929 196.948 122.224 196.628L122.291 197.453C121.288 197.623 120.256 197.727 119.245 197.793V201.675H118.13V197.847C117.169 197.884 116.253 197.888 115.441 197.888L115.292 196.964ZM116.071 194.08C116.071 192.845 117.169 191.988 118.748 191.988C120.302 191.988 121.412 192.845 121.412 194.08C121.412 195.348 120.302 196.169 118.748 196.177C117.169 196.169 116.071 195.348 116.071 194.08ZM117.119 194.08C117.115 194.838 117.782 195.319 118.748 195.319C119.684 195.319 120.351 194.838 120.36 194.08C120.351 193.347 119.684 192.849 118.748 192.845C117.778 192.849 117.115 193.347 117.119 194.08ZM133.976 196.479V197.387H126.666V192.439H133.884V193.351H127.764V196.479H133.976ZM125.473 200.61V199.686H135.082V200.61H125.473ZM145.213 199.811V200.735H135.604V199.811H139.83V197.963H136.772V194.623H142.938V193.148H136.752V192.24H144.036V195.518H137.879V197.051H144.281V197.963H140.933V199.811H145.213ZM157.176 191.494V196.898H156.066V194.204H153.853V193.301H156.066V191.494H157.176ZM148.387 196.052C150.024 195.53 151.006 194.225 151.01 192.746V191.834H152.121V192.746C152.113 194.084 153.078 195.331 154.661 195.829L154.068 196.695C152.916 196.297 152.046 195.51 151.578 194.503C151.126 195.634 150.223 196.512 148.98 196.939L148.387 196.052ZM150.31 198.273V197.395H157.176V200.001H151.425V200.971H157.537V201.862H150.331V199.164H156.074V198.273H150.31ZM167.307 191.494V197.743H166.197V195.087H164.237V194.171H166.197V191.494H167.307ZM158.56 196.798C160.184 196.227 161.183 194.809 161.183 193.359V193.127H158.904V192.22H164.572V193.127H162.31V193.351C162.31 194.681 163.259 195.974 164.842 196.508L164.274 197.395C163.093 196.985 162.227 196.144 161.771 195.108C161.311 196.28 160.391 197.221 159.136 197.681L158.56 196.798ZM160.242 200.018C160.234 198.767 161.585 198.037 163.789 198.037C165.989 198.037 167.336 198.767 167.34 200.018C167.336 201.265 165.989 201.986 163.789 201.994C161.585 201.986 160.234 201.265 160.242 200.018ZM161.344 200.018C161.336 200.722 162.252 201.128 163.789 201.12C165.322 201.128 166.234 200.722 166.238 200.018C166.234 199.305 165.322 198.899 163.789 198.899C162.252 198.899 161.336 199.305 161.344 200.018ZM176.866 191.494V195.75H178.549V196.674H176.866V201.994H175.764V191.494H176.866ZM168.629 194.047V193.14H171.219V191.631H172.329V193.14H174.848V194.047H168.629ZM169.168 197.267C169.163 195.833 170.266 194.822 171.782 194.822C173.282 194.822 174.384 195.833 174.389 197.267C174.384 198.704 173.282 199.703 171.782 199.707C170.266 199.703 169.163 198.704 169.168 197.267ZM170.232 197.267C170.224 198.174 170.883 198.783 171.782 198.779C172.669 198.783 173.319 198.174 173.328 197.267C173.319 196.363 172.669 195.742 171.782 195.742C170.883 195.742 170.224 196.363 170.232 197.267ZM187.312 192.506V193.533C187.308 194.834 187.308 196.285 186.91 198.439L185.792 198.315C186.194 196.285 186.194 194.797 186.202 193.533V193.409H179.825V192.506H187.312ZM178.818 200.577V199.657H182.456V195.953H183.558V199.657H188.39V200.577H178.818ZM200.349 191.503V197.329H199.234V191.503H200.349ZM191.672 196.256C193.313 195.717 194.316 194.354 194.316 192.903V191.88H195.455V192.903C195.447 194.291 196.458 195.572 198.074 196.069L197.531 196.948C196.3 196.55 195.376 195.725 194.896 194.66C194.423 195.804 193.483 196.711 192.223 197.138L191.672 196.256ZM193.205 201.862V200.959H194.701V198.8H193.304V197.905H200.411V198.8H199.027V200.959H200.514V201.862H193.205ZM195.803 200.959H197.925V198.8H195.803V200.959ZM211.342 196.977V197.867H201.77V196.977H211.342ZM202.793 193.948C202.793 192.63 204.264 191.838 206.547 191.847C208.822 191.838 210.293 192.63 210.293 193.948C210.293 195.273 208.822 196.073 206.547 196.073C204.264 196.073 202.793 195.273 202.793 193.948ZM202.976 201.779V198.721H204.094V200.867H210.264V201.779H202.976ZM203.949 193.948C203.941 194.722 204.94 195.166 206.547 195.166C208.155 195.166 209.154 194.722 209.154 193.948C209.154 193.193 208.155 192.738 206.547 192.738C204.94 192.738 203.941 193.193 203.949 193.948ZM111.085 209.49V212.532H112.614V213.456H111.085V217.094H109.97V209.49H111.085ZM103.303 215.271V210.381H107.994V211.289H104.405V214.355C106.448 214.355 107.596 214.293 108.918 214.019L109.046 214.927C107.621 215.204 106.382 215.275 104.136 215.271H103.303ZM104.43 219.779V216.311H105.536V218.867H111.532V219.779H104.43ZM115.813 210.282C117.234 210.286 118.278 211.492 118.444 213.431H120.619V209.494H121.721V220.015H120.619V214.338H118.452C118.336 216.385 117.275 217.657 115.813 217.657C114.242 217.657 113.14 216.228 113.148 213.965C113.14 211.715 114.242 210.286 115.813 210.282ZM114.209 213.965C114.209 215.631 114.859 216.659 115.813 216.659C116.757 216.659 117.412 215.631 117.412 213.965C117.412 212.312 116.757 211.285 115.813 211.276C114.859 211.285 114.209 212.312 114.209 213.965ZM132.689 214.314V215.167H123.08V214.314H132.689ZM124.22 216.704V215.901H131.509V218.217H125.343V219.083H131.836V219.87H124.232V217.475H130.406V216.704H124.22ZM124.286 210.551V209.768H131.48V212.039H125.417V212.838H131.662V213.622H124.315V211.305H130.369V210.551H124.286ZM144.309 209.963V210.796C144.309 211.612 144.309 212.532 144.072 213.713H145.477V214.612H135.93V213.713H142.962C143.049 213.278 143.103 212.888 143.14 212.523L136.991 212.78L136.858 211.906L143.19 211.736C143.202 211.43 143.202 211.14 143.202 210.854H137.119V209.963H144.309ZM137.02 216.352V215.49H144.375V218.035H138.151V218.983H144.748V219.862H137.045V217.206H143.269V216.352H137.02ZM154.759 209.503V215.921H153.644V209.503H154.759ZM146.579 211.015V210.116H151.402V213.116H147.686V214.463C149.525 214.459 150.872 214.401 152.467 214.156L152.608 215.055C150.893 215.329 149.463 215.383 147.474 215.383H146.6V212.25H150.3V211.015H146.579ZM147.64 217.367V216.456H154.759V219.994H153.644V217.367H147.64ZM161.364 211.235V212.134H156.155V211.235H158.219V209.805H159.321V211.235H161.364ZM156.495 215.18C156.487 213.767 157.448 212.764 158.77 212.764C160.096 212.764 161.045 213.767 161.053 215.18C161.045 216.613 160.096 217.62 158.77 217.62C157.448 217.62 156.487 216.613 156.495 215.18ZM157.473 215.18C157.473 216.07 158.011 216.671 158.77 216.663C159.524 216.671 160.067 216.07 160.067 215.18C160.067 214.305 159.524 213.696 158.77 213.692C158.011 213.696 157.473 214.305 157.473 215.18ZM161.853 219.501V209.731H162.901V213.87H164.111V209.494H165.172V219.994H164.111V214.778H162.901V219.501H161.853ZM175.92 217.773V218.693H166.311V217.773H170.538V215.619H167.405V210.211H168.52V212.022H173.674V210.211H174.781V215.619H171.64V217.773H175.92ZM168.52 214.715H173.674V212.917H168.52V214.715ZM179.641 212.362C179.641 214.044 180.341 215.83 181.75 216.688L181.124 217.55C180.142 216.957 179.479 215.905 179.119 214.691C178.734 216.021 178.013 217.156 176.993 217.778L176.297 216.949C177.785 216.062 178.564 214.202 178.564 212.412V210.452H179.641V212.362ZM180.606 214.11V213.186H182.243V209.698H183.292V219.477H182.243V214.11H180.606ZM184.402 219.994V209.494H185.471V219.994H184.402ZM196.182 217.765V218.685H186.573V217.765H188.873V215.018C188.007 214.546 187.481 213.791 187.481 212.851C187.481 211.198 189.101 210.112 191.351 210.104C193.609 210.112 195.233 211.198 195.233 212.851C195.233 213.779 194.724 214.521 193.878 214.997V217.765H196.182ZM188.562 212.851C188.562 213.974 189.706 214.707 191.351 214.707C192.988 214.707 194.148 213.974 194.148 212.851C194.148 211.715 192.988 210.994 191.351 211.003C189.706 210.994 188.562 211.715 188.562 212.851ZM189.967 217.765H192.755V215.424C192.325 215.523 191.852 215.577 191.351 215.577C190.854 215.577 190.389 215.523 189.967 215.428V217.765Z" fill="#191919"/>
<path d="M104.649 173.494V184.015H103.547V178.247H101.219V181.413H96.3042V174.311H97.423V176.983H100.133V174.311H101.219V177.331H103.547V173.494H104.649ZM97.423 180.506H100.133V177.866H97.423V180.506ZM115.597 179.267V180.157H106.004V179.267H115.597ZM107.231 183.779V180.841H108.329V182.867H114.598V183.779H107.231ZM107.256 178.388V173.872H114.428V174.742H108.374V175.699H114.159V176.54H108.374V177.526H114.499V178.388H107.256ZM120.934 173.669C123.3 173.669 124.68 174.307 124.68 175.471C124.68 176.652 123.3 177.29 120.934 177.298C118.568 177.29 117.18 176.652 117.18 175.471C117.18 174.307 118.568 173.669 120.934 173.669ZM116.156 178.827V177.936H125.728V178.827H116.156ZM117.296 180.468V179.635H124.514V182.093H118.406V183.033H124.816V183.895H117.316V181.293H123.42V180.468H117.296ZM118.344 175.471C118.336 176.126 119.264 176.461 120.934 176.461C122.616 176.461 123.54 176.126 123.54 175.471C123.54 174.858 122.616 174.493 120.934 174.497C119.264 174.493 118.336 174.858 118.344 175.471ZM137.368 173.963V174.796C137.368 175.612 137.368 176.532 137.132 177.713H138.536V178.612H128.989V177.713H136.021C136.108 177.278 136.162 176.888 136.199 176.523L130.05 176.78L129.918 175.906L136.249 175.736C136.261 175.43 136.261 175.14 136.261 174.854H130.179V173.963H137.368ZM130.079 180.352V179.49H137.434V182.035H131.21V182.983H137.807V183.862H130.104V181.206H136.328V180.352H130.079ZM147.818 173.503V179.921H146.703V173.503H147.818ZM139.638 175.015V174.116H144.462V177.116H140.745V178.463C142.585 178.459 143.931 178.401 145.527 178.156L145.667 179.055C143.952 179.329 142.522 179.383 140.533 179.383H139.659V176.25H143.359V175.015H139.638ZM140.699 181.367V180.456H147.818V183.994H146.703V181.367H140.699ZM157.489 173.503V176.88H159.01V177.808H157.489V181.363H156.374V173.503H157.489ZM149.252 175.624V174.729H151.829V173.499H152.935V174.729H155.5V175.624H149.252ZM149.823 178.119C149.819 176.913 150.855 176.13 152.38 176.13C153.884 176.13 154.92 176.913 154.924 178.119C154.92 179.304 153.884 180.079 152.38 180.079C150.855 180.079 149.819 179.304 149.823 178.119ZM150.834 183.779V180.738H151.941V182.867H157.937V183.779H150.834ZM150.897 178.119C150.888 178.798 151.485 179.217 152.38 179.213C153.267 179.217 153.863 178.798 153.872 178.119C153.863 177.423 153.267 176.992 152.38 176.992C151.485 176.992 150.888 177.423 150.897 178.119ZM171.093 174.659V175.566H162.545V174.659H166.286V173.453H167.389V174.659H171.093ZM162.06 181.202V180.29H171.669V181.202H167.389V184.011H166.286V181.202H162.06ZM163.344 177.874C163.34 176.731 164.65 176.105 166.838 176.105C169.017 176.105 170.326 176.731 170.331 177.874C170.326 179.001 169.017 179.631 166.838 179.635C164.65 179.631 163.34 179.001 163.344 177.874ZM164.5 177.874C164.492 178.467 165.329 178.798 166.838 178.79C168.338 178.798 169.175 178.467 169.183 177.874C169.175 177.273 168.338 176.942 166.838 176.942C165.329 176.942 164.492 177.273 164.5 177.874ZM183.4 178.189V179.105H180.222V181.773H184.49V182.685H174.881V181.773H179.107V179.105H176.02V174.36H177.156V178.189H183.4ZM193.531 179.084V179.979H186.218V174.36H193.428V175.272H187.34V176.681H193.195V177.568H187.34V179.084H193.531ZM185.012 182.677V181.757H194.621V182.677H185.012ZM204.172 173.494V183.994H203.103V173.494H204.172ZM195.259 178.028C195.259 175.757 196.15 174.336 197.517 174.336C198.793 174.336 199.659 175.546 199.792 177.518H200.977V173.698H202.038V183.477H200.977V178.421H199.796C199.693 180.472 198.818 181.74 197.517 181.736C196.15 181.74 195.259 180.311 195.259 178.028ZM196.295 178.028C196.287 179.702 196.763 180.684 197.517 180.675C198.292 180.684 198.773 179.702 198.773 178.028C198.773 176.358 198.292 175.38 197.517 175.38C196.763 175.38 196.287 176.358 196.295 178.028ZM209.061 176.167C209.057 178.09 210.134 180.004 211.738 180.725L211.067 181.62C209.869 181.019 208.966 179.834 208.506 178.396C208.042 179.909 207.126 181.185 205.92 181.811L205.216 180.916C206.84 180.137 207.926 178.11 207.934 176.167V174.369H209.061V176.167ZM210.586 177.887V176.983H212.927V173.494H214.029V184.015H212.927V177.887H210.586ZM93.9526 191.494V201.994H92.8959V196.566H91.5368V201.456H90.5092V191.71H91.5368V195.659H92.8959V191.494H93.9526ZM85.3006 199.471V192.758H89.2288V193.662H86.4153V198.53C87.7039 198.518 88.6735 198.46 89.7923 198.244L89.8835 199.164C88.6155 199.425 87.5299 199.463 85.9968 199.471H85.3006ZM104.689 199.844V200.751H95.0795V199.844H97.6569V197.511H95.9207V196.599H97.487V193.334H95.8958V192.427H103.81V193.334H102.202V196.599H103.777V197.511H102.049V199.844H104.689ZM98.5933 196.599H101.109V193.334H98.5933V196.599ZM98.7715 199.844H100.934V197.511H98.7715V199.844ZM110.871 192.559C110.863 195.659 109.839 198.439 105.985 200.325L105.385 199.454C107.274 198.539 108.443 197.407 109.097 196.069L105.6 196.392L105.438 195.423L109.454 195.17C109.619 194.631 109.719 194.064 109.764 193.467H105.973V192.559H110.871ZM112.818 201.994V191.494H113.937V201.994H112.818ZM124.122 191.503V201.999H122.987V199.492H120.67V198.642H122.987V191.503H124.122ZM115.292 196.964C117.281 196.96 119.929 196.948 122.224 196.628L122.291 197.453C121.288 197.623 120.256 197.727 119.245 197.793V201.675H118.13V197.847C117.169 197.884 116.253 197.888 115.441 197.888L115.292 196.964ZM116.071 194.08C116.071 192.845 117.169 191.988 118.748 191.988C120.302 191.988 121.412 192.845 121.412 194.08C121.412 195.348 120.302 196.169 118.748 196.177C117.169 196.169 116.071 195.348 116.071 194.08ZM117.119 194.08C117.115 194.838 117.782 195.319 118.748 195.319C119.684 195.319 120.351 194.838 120.36 194.08C120.351 193.347 119.684 192.849 118.748 192.845C117.778 192.849 117.115 193.347 117.119 194.08ZM133.976 196.479V197.387H126.666V192.439H133.884V193.351H127.764V196.479H133.976ZM125.473 200.61V199.686H135.082V200.61H125.473ZM145.213 199.811V200.735H135.604V199.811H139.83V197.963H136.772V194.623H142.938V193.148H136.752V192.24H144.036V195.518H137.879V197.051H144.281V197.963H140.933V199.811H145.213ZM157.176 191.494V196.898H156.066V194.204H153.853V193.301H156.066V191.494H157.176ZM148.387 196.052C150.024 195.53 151.006 194.225 151.01 192.746V191.834H152.121V192.746C152.113 194.084 153.078 195.331 154.661 195.829L154.068 196.695C152.916 196.297 152.046 195.51 151.578 194.503C151.126 195.634 150.223 196.512 148.98 196.939L148.387 196.052ZM150.31 198.273V197.395H157.176V200.001H151.425V200.971H157.537V201.862H150.331V199.164H156.074V198.273H150.31ZM167.307 191.494V197.743H166.197V195.087H164.237V194.171H166.197V191.494H167.307ZM158.56 196.798C160.184 196.227 161.183 194.809 161.183 193.359V193.127H158.904V192.22H164.572V193.127H162.31V193.351C162.31 194.681 163.259 195.974 164.842 196.508L164.274 197.395C163.093 196.985 162.227 196.144 161.771 195.108C161.311 196.28 160.391 197.221 159.136 197.681L158.56 196.798ZM160.242 200.018C160.234 198.767 161.585 198.037 163.789 198.037C165.989 198.037 167.336 198.767 167.34 200.018C167.336 201.265 165.989 201.986 163.789 201.994C161.585 201.986 160.234 201.265 160.242 200.018ZM161.344 200.018C161.336 200.722 162.252 201.128 163.789 201.12C165.322 201.128 166.234 200.722 166.238 200.018C166.234 199.305 165.322 198.899 163.789 198.899C162.252 198.899 161.336 199.305 161.344 200.018ZM176.866 191.494V195.75H178.549V196.674H176.866V201.994H175.764V191.494H176.866ZM168.629 194.047V193.14H171.219V191.631H172.329V193.14H174.848V194.047H168.629ZM169.168 197.267C169.163 195.833 170.266 194.822 171.782 194.822C173.282 194.822 174.384 195.833 174.389 197.267C174.384 198.704 173.282 199.703 171.782 199.707C170.266 199.703 169.163 198.704 169.168 197.267ZM170.232 197.267C170.224 198.174 170.883 198.783 171.782 198.779C172.669 198.783 173.319 198.174 173.328 197.267C173.319 196.363 172.669 195.742 171.782 195.742C170.883 195.742 170.224 196.363 170.232 197.267ZM187.312 192.506V193.533C187.308 194.834 187.308 196.285 186.91 198.439L185.792 198.315C186.194 196.285 186.194 194.797 186.202 193.533V193.409H179.825V192.506H187.312ZM178.818 200.577V199.657H182.456V195.953H183.558V199.657H188.39V200.577H178.818ZM200.349 191.503V197.329H199.234V191.503H200.349ZM191.672 196.256C193.313 195.717 194.316 194.354 194.316 192.903V191.88H195.455V192.903C195.447 194.291 196.458 195.572 198.074 196.069L197.531 196.948C196.3 196.55 195.376 195.725 194.896 194.66C194.423 195.804 193.483 196.711 192.223 197.138L191.672 196.256ZM193.205 201.862V200.959H194.701V198.8H193.304V197.905H200.411V198.8H199.027V200.959H200.514V201.862H193.205ZM195.803 200.959H197.925V198.8H195.803V200.959ZM211.342 196.977V197.867H201.77V196.977H211.342ZM202.793 193.948C202.793 192.63 204.264 191.838 206.547 191.847C208.822 191.838 210.293 192.63 210.293 193.948C210.293 195.273 208.822 196.073 206.547 196.073C204.264 196.073 202.793 195.273 202.793 193.948ZM202.976 201.779V198.721H204.094V200.867H210.264V201.779H202.976ZM203.949 193.948C203.941 194.722 204.94 195.166 206.547 195.166C208.155 195.166 209.154 194.722 209.154 193.948C209.154 193.193 208.155 192.738 206.547 192.738C204.94 192.738 203.941 193.193 203.949 193.948ZM111.085 209.49V212.532H112.614V213.456H111.085V217.094H109.97V209.49H111.085ZM103.303 215.271V210.381H107.994V211.289H104.405V214.355C106.448 214.355 107.596 214.293 108.918 214.019L109.046 214.927C107.621 215.204 106.382 215.275 104.136 215.271H103.303ZM104.43 219.779V216.311H105.536V218.867H111.532V219.779H104.43ZM115.813 210.282C117.234 210.286 118.278 211.492 118.444 213.431H120.619V209.494H121.721V220.015H120.619V214.338H118.452C118.336 216.385 117.275 217.657 115.813 217.657C114.242 217.657 113.14 216.228 113.148 213.965C113.14 211.715 114.242 210.286 115.813 210.282ZM114.209 213.965C114.209 215.631 114.859 216.659 115.813 216.659C116.757 216.659 117.412 215.631 117.412 213.965C117.412 212.312 116.757 211.285 115.813 211.276C114.859 211.285 114.209 212.312 114.209 213.965ZM132.689 214.314V215.167H123.08V214.314H132.689ZM124.22 216.704V215.901H131.509V218.217H125.343V219.083H131.836V219.87H124.232V217.475H130.406V216.704H124.22ZM124.286 210.551V209.768H131.48V212.039H125.417V212.838H131.662V213.622H124.315V211.305H130.369V210.551H124.286ZM144.309 209.963V210.796C144.309 211.612 144.309 212.532 144.072 213.713H145.477V214.612H135.93V213.713H142.962C143.049 213.278 143.103 212.888 143.14 212.523L136.991 212.78L136.858 211.906L143.19 211.736C143.202 211.43 143.202 211.14 143.202 210.854H137.119V209.963H144.309ZM137.02 216.352V215.49H144.375V218.035H138.151V218.983H144.748V219.862H137.045V217.206H143.269V216.352H137.02ZM154.759 209.503V215.921H153.644V209.503H154.759ZM146.579 211.015V210.116H151.402V213.116H147.686V214.463C149.525 214.459 150.872 214.401 152.467 214.156L152.608 215.055C150.893 215.329 149.463 215.383 147.474 215.383H146.6V212.25H150.3V211.015H146.579ZM147.64 217.367V216.456H154.759V219.994H153.644V217.367H147.64ZM161.364 211.235V212.134H156.155V211.235H158.219V209.805H159.321V211.235H161.364ZM156.495 215.18C156.487 213.767 157.448 212.764 158.77 212.764C160.096 212.764 161.045 213.767 161.053 215.18C161.045 216.613 160.096 217.62 158.77 217.62C157.448 217.62 156.487 216.613 156.495 215.18ZM157.473 215.18C157.473 216.07 158.011 216.671 158.77 216.663C159.524 216.671 160.067 216.07 160.067 215.18C160.067 214.305 159.524 213.696 158.77 213.692C158.011 213.696 157.473 214.305 157.473 215.18ZM161.853 219.501V209.731H162.901V213.87H164.111V209.494H165.172V219.994H164.111V214.778H162.901V219.501H161.853ZM175.92 217.773V218.693H166.311V217.773H170.538V215.619H167.405V210.211H168.52V212.022H173.674V210.211H174.781V215.619H171.64V217.773H175.92ZM168.52 214.715H173.674V212.917H168.52V214.715ZM179.641 212.362C179.641 214.044 180.341 215.83 181.75 216.688L181.124 217.55C180.142 216.957 179.479 215.905 179.119 214.691C178.734 216.021 178.013 217.156 176.993 217.778L176.297 216.949C177.785 216.062 178.564 214.202 178.564 212.412V210.452H179.641V212.362ZM180.606 214.11V213.186H182.243V209.698H183.292V219.477H182.243V214.11H180.606ZM184.402 219.994V209.494H185.471V219.994H184.402ZM196.182 217.765V218.685H186.573V217.765H188.873V215.018C188.007 214.546 187.481 213.791 187.481 212.851C187.481 211.198 189.101 210.112 191.351 210.104C193.609 210.112 195.233 211.198 195.233 212.851C195.233 213.779 194.724 214.521 193.878 214.997V217.765H196.182ZM188.562 212.851C188.562 213.974 189.706 214.707 191.351 214.707C192.988 214.707 194.148 213.974 194.148 212.851C194.148 211.715 192.988 210.994 191.351 211.003C189.706 210.994 188.562 211.715 188.562 212.851ZM189.967 217.765H192.755V215.424C192.325 215.523 191.852 215.577 191.351 215.577C190.854 215.577 190.389 215.523 189.967 215.428V217.765Z" fill="black" fill-opacity="0.2"/>
<path d="M148.668 156.248C149.064 155.654 149.936 155.654 150.332 156.248L155.5 164L143.5 164L148.668 156.248Z" fill="#E8FCF7"/>
</svg>
