<svg width="303" height="68" viewBox="0 0 303 68" fill="none" xmlns="http://www.w3.org/2000/svg">
<g filter="url(#filter0_d_3990_1446)">
<mask id="path-1-outside-1_3990_1446" maskUnits="userSpaceOnUse" x="3.52735" y="-0.507813" width="295" height="61" fill="black">
<rect fill="white" x="3.52735" y="-0.507813" width="295" height="61"/>
<path d="M46.2266 10V17.2617H51.168V22.9766H46.2266V29.6367H39.3086V10L46.2266 10ZM35.3125 11.2031C35.3125 22.2031 28.8242 28.5195 16.5352 30.7969L14 25.168C23.002 23.6641 26.8262 20.2051 27.5352 16.6602H16.1914V11.2031H35.3125ZM46.2266 31.0117V42.6992H26.0742V43.9453H47.1719V49.3594H19.2422V37.6289H39.3516V36.4258H19.2422V31.0117H46.2266ZM88.8086 27.7461V33.2891H52.457V27.7461L88.8086 27.7461ZM84.7266 20.1836V25.5977L56.7539 25.5977V10.7734H84.5547V16.2305L63.5859 16.2305V20.1836L84.7266 20.1836ZM70.5039 35.0078C79.1836 34.9648 84.3828 37.6289 84.4258 42.3555C84.3828 47.125 79.1836 49.832 70.5039 49.832C61.7383 49.832 56.4531 47.125 56.4531 42.3555C56.4531 37.6289 61.7383 34.9648 70.5039 35.0078ZM70.5039 40.1641C65.5625 40.1641 63.457 40.8516 63.5 42.3555C63.457 44.0312 65.5625 44.6328 70.5039 44.6328C75.3164 44.6328 77.5078 44.0312 77.5078 42.3555C77.5078 40.8516 75.3164 40.1641 70.5039 40.1641ZM108.617 10.5156C117.941 10.5156 123.27 12.8789 123.313 17.2187C123.27 21.6016 117.941 23.9648 108.617 23.9648C99.25 23.9648 93.8359 21.6016 93.8789 17.2187C93.8359 12.8789 99.25 10.5156 108.617 10.5156ZM108.617 15.5C103.246 15.5 101.098 16.0156 101.098 17.2187C101.098 18.6797 103.246 18.9375 108.617 18.9805C114.031 18.9375 116.18 18.6797 116.18 17.2187C116.18 16.0156 114.031 15.5 108.617 15.5ZM126.75 25.2969V30.7539H90.4844V25.2969H126.75ZM122.453 32.2578V43.2148H101.27V44.5039H123.398V49.5742H94.5234V38.4883H115.664V37.2852H94.5664V32.2578H122.453ZM174.359 27.7461V33.2031H159.621V35.3086C166.174 35.9746 170.02 38.4668 170.063 42.4844C170.02 47.2109 164.777 49.832 156.141 49.832C147.375 49.832 142.09 47.2109 142.09 42.4844C142.09 38.4238 146.043 35.9316 152.789 35.3086V33.2031L138.094 33.2031V27.7461H174.359ZM156.141 40.3359C151.199 40.3789 149.094 40.9805 149.137 42.4844C149.094 43.9883 151.199 44.6758 156.141 44.6758C160.953 44.6758 163.145 43.9883 163.145 42.4844C163.145 40.9805 160.953 40.3789 156.141 40.3359ZM171.051 11.5898V17.0039H161.598C162.779 18.9375 165.938 20.8926 173.113 21.4297L170.75 26.8008C162.779 26.1777 158.203 23.4707 156.141 19.9687C154.1 23.4492 149.588 26.1777 141.66 26.8008L139.383 21.4297C146.322 20.8926 149.502 18.916 150.727 17.0039H141.402V11.5898H171.051ZM211.141 10V49.7461H204.566V30.3672H202.504V48.0273H195.973V37.2852L193.137 41.0664C189.742 39.3047 187.551 36.4473 186.176 32.9453C184.887 37.0703 182.738 40.4434 179.258 42.5273L175.047 37.2852C181.277 33.7187 182.609 26.5 182.609 19.1953H176.637V13.7383H194.598V19.1953H189.313C189.313 25.5332 190.645 31.8066 195.973 35.2227V10.4727H202.504V24.8672H204.566V10H211.141ZM245.859 10V25.082H251.23V30.7109H245.859V49.7461H239.027V10H245.859ZM237.094 15.6719V21.1289H213.934V15.6719H222.141V10.7305H229.016V15.6719H237.094ZM225.578 22.6758C231.465 22.6758 235.977 26.7148 235.977 32.3437C235.977 38.0156 231.465 42.0547 225.578 42.0547C219.563 42.0547 215.137 38.0156 215.137 32.3437C215.137 26.7148 219.563 22.6758 225.578 22.6758ZM225.578 28.2187C223.344 28.2187 221.711 29.6797 221.754 32.3437C221.711 35.1367 223.344 36.4687 225.578 36.4687C227.77 36.4687 229.359 35.1367 229.359 32.3437C229.359 29.6797 227.77 28.2187 225.578 28.2187ZM284.531 20.0977V25.4258H256.43V11.418H263.305V20.0977H284.531ZM288.441 28.9492V34.2773H252.176V28.9492H288.441ZM284.789 43.4727V48.9727H255.957V37.0273H262.918V43.4727H284.789Z"/>
</mask>
<path d="M46.2266 10V17.2617H51.168V22.9766H46.2266V29.6367H39.3086V10L46.2266 10ZM35.3125 11.2031C35.3125 22.2031 28.8242 28.5195 16.5352 30.7969L14 25.168C23.002 23.6641 26.8262 20.2051 27.5352 16.6602H16.1914V11.2031H35.3125ZM46.2266 31.0117V42.6992H26.0742V43.9453H47.1719V49.3594H19.2422V37.6289H39.3516V36.4258H19.2422V31.0117H46.2266ZM88.8086 27.7461V33.2891H52.457V27.7461L88.8086 27.7461ZM84.7266 20.1836V25.5977L56.7539 25.5977V10.7734H84.5547V16.2305L63.5859 16.2305V20.1836L84.7266 20.1836ZM70.5039 35.0078C79.1836 34.9648 84.3828 37.6289 84.4258 42.3555C84.3828 47.125 79.1836 49.832 70.5039 49.832C61.7383 49.832 56.4531 47.125 56.4531 42.3555C56.4531 37.6289 61.7383 34.9648 70.5039 35.0078ZM70.5039 40.1641C65.5625 40.1641 63.457 40.8516 63.5 42.3555C63.457 44.0312 65.5625 44.6328 70.5039 44.6328C75.3164 44.6328 77.5078 44.0312 77.5078 42.3555C77.5078 40.8516 75.3164 40.1641 70.5039 40.1641ZM108.617 10.5156C117.941 10.5156 123.27 12.8789 123.313 17.2187C123.27 21.6016 117.941 23.9648 108.617 23.9648C99.25 23.9648 93.8359 21.6016 93.8789 17.2187C93.8359 12.8789 99.25 10.5156 108.617 10.5156ZM108.617 15.5C103.246 15.5 101.098 16.0156 101.098 17.2187C101.098 18.6797 103.246 18.9375 108.617 18.9805C114.031 18.9375 116.18 18.6797 116.18 17.2187C116.18 16.0156 114.031 15.5 108.617 15.5ZM126.75 25.2969V30.7539H90.4844V25.2969H126.75ZM122.453 32.2578V43.2148H101.27V44.5039H123.398V49.5742H94.5234V38.4883H115.664V37.2852H94.5664V32.2578H122.453ZM174.359 27.7461V33.2031H159.621V35.3086C166.174 35.9746 170.02 38.4668 170.063 42.4844C170.02 47.2109 164.777 49.832 156.141 49.832C147.375 49.832 142.09 47.2109 142.09 42.4844C142.09 38.4238 146.043 35.9316 152.789 35.3086V33.2031L138.094 33.2031V27.7461H174.359ZM156.141 40.3359C151.199 40.3789 149.094 40.9805 149.137 42.4844C149.094 43.9883 151.199 44.6758 156.141 44.6758C160.953 44.6758 163.145 43.9883 163.145 42.4844C163.145 40.9805 160.953 40.3789 156.141 40.3359ZM171.051 11.5898V17.0039H161.598C162.779 18.9375 165.938 20.8926 173.113 21.4297L170.75 26.8008C162.779 26.1777 158.203 23.4707 156.141 19.9687C154.1 23.4492 149.588 26.1777 141.66 26.8008L139.383 21.4297C146.322 20.8926 149.502 18.916 150.727 17.0039H141.402V11.5898H171.051ZM211.141 10V49.7461H204.566V30.3672H202.504V48.0273H195.973V37.2852L193.137 41.0664C189.742 39.3047 187.551 36.4473 186.176 32.9453C184.887 37.0703 182.738 40.4434 179.258 42.5273L175.047 37.2852C181.277 33.7187 182.609 26.5 182.609 19.1953H176.637V13.7383H194.598V19.1953H189.313C189.313 25.5332 190.645 31.8066 195.973 35.2227V10.4727H202.504V24.8672H204.566V10H211.141ZM245.859 10V25.082H251.23V30.7109H245.859V49.7461H239.027V10H245.859ZM237.094 15.6719V21.1289H213.934V15.6719H222.141V10.7305H229.016V15.6719H237.094ZM225.578 22.6758C231.465 22.6758 235.977 26.7148 235.977 32.3437C235.977 38.0156 231.465 42.0547 225.578 42.0547C219.563 42.0547 215.137 38.0156 215.137 32.3437C215.137 26.7148 219.563 22.6758 225.578 22.6758ZM225.578 28.2187C223.344 28.2187 221.711 29.6797 221.754 32.3437C221.711 35.1367 223.344 36.4687 225.578 36.4687C227.77 36.4687 229.359 35.1367 229.359 32.3437C229.359 29.6797 227.77 28.2187 225.578 28.2187ZM284.531 20.0977V25.4258H256.43V11.418H263.305V20.0977H284.531ZM288.441 28.9492V34.2773H252.176V28.9492H288.441ZM284.789 43.4727V48.9727H255.957V37.0273H262.918V43.4727H284.789Z" fill="#11DCA9"/>
<path d="M46.2266 10H56.2266C56.2266 4.47715 51.7494 0 46.2266 0V10ZM46.2266 17.2617H36.2266C36.2266 22.7846 40.7037 27.2617 46.2266 27.2617V17.2617ZM51.168 17.2617H61.168C61.168 11.7389 56.6908 7.26172 51.168 7.26172V17.2617ZM51.168 22.9766V32.9766C56.6908 32.9766 61.168 28.4994 61.168 22.9766H51.168ZM46.2266 22.9766V12.9766C40.7037 12.9766 36.2266 17.4537 36.2266 22.9766H46.2266ZM46.2266 29.6367V39.6367C51.7494 39.6367 56.2266 35.1596 56.2266 29.6367H46.2266ZM39.3086 29.6367H29.3086C29.3086 35.1596 33.7857 39.6367 39.3086 39.6367V29.6367ZM39.3086 10V0C33.7857 0 29.3086 4.47715 29.3086 10H39.3086ZM35.3125 11.2031H45.3125C45.3125 5.68028 40.8354 1.20312 35.3125 1.20312V11.2031ZM16.5352 30.7969L7.41725 34.9034C9.30933 39.1045 13.8269 41.469 18.3573 40.6295L16.5352 30.7969ZM14 25.168L12.3522 15.3047C9.29301 15.8157 6.64414 17.7174 5.1816 20.4525C3.71905 23.1876 3.60841 26.4465 4.88209 29.2745L14 25.168ZM27.5352 16.6602L37.341 18.6213C37.9285 15.6836 37.168 12.6371 35.2686 10.3203C33.3692 8.00339 30.5311 6.66016 27.5352 6.66016V16.6602ZM16.1914 16.6602H6.19141C6.19141 22.183 10.6686 26.6602 16.1914 26.6602V16.6602ZM16.1914 11.2031V1.20312C10.6686 1.20312 6.19141 5.68028 6.19141 11.2031H16.1914ZM46.2266 31.0117H56.2266C56.2266 25.4889 51.7494 21.0117 46.2266 21.0117V31.0117ZM46.2266 42.6992V52.6992C51.7494 52.6992 56.2266 48.2221 56.2266 42.6992H46.2266ZM26.0742 42.6992V32.6992C20.5514 32.6992 16.0742 37.1764 16.0742 42.6992H26.0742ZM26.0742 43.9453H16.0742C16.0742 49.4682 20.5514 53.9453 26.0742 53.9453V43.9453ZM47.1719 43.9453H57.1719C57.1719 38.4225 52.6947 33.9453 47.1719 33.9453V43.9453ZM47.1719 49.3594V59.3594C52.6947 59.3594 57.1719 54.8822 57.1719 49.3594H47.1719ZM19.2422 49.3594H9.24219C9.24219 54.8822 13.7193 59.3594 19.2422 59.3594V49.3594ZM19.2422 37.6289V27.6289C13.7193 27.6289 9.24219 32.1061 9.24219 37.6289H19.2422ZM39.3516 37.6289V47.6289C44.8744 47.6289 49.3516 43.1518 49.3516 37.6289H39.3516ZM39.3516 36.4258H49.3516C49.3516 30.9029 44.8744 26.4258 39.3516 26.4258V36.4258ZM19.2422 36.4258H9.24219C9.24219 41.9486 13.7193 46.4258 19.2422 46.4258V36.4258ZM19.2422 31.0117V21.0117C13.7193 21.0117 9.24219 25.4889 9.24219 31.0117H19.2422ZM46.2266 10L36.2266 10V17.2617H46.2266H56.2266V10H46.2266ZM46.2266 17.2617V27.2617H51.168V17.2617V7.26172H46.2266V17.2617ZM51.168 17.2617H41.168V22.9766H51.168H61.168V17.2617H51.168ZM51.168 22.9766V12.9766H46.2266V22.9766V32.9766H51.168V22.9766ZM46.2266 22.9766H36.2266V29.6367H46.2266H56.2266V22.9766H46.2266ZM46.2266 29.6367V19.6367H39.3086V29.6367V39.6367H46.2266V29.6367ZM39.3086 29.6367H49.3086V10L39.3086 10H29.3086V29.6367H39.3086ZM39.3086 10V20H46.2266V10V0H39.3086V10ZM35.3125 11.2031H25.3125C25.3125 14.6008 24.3845 16.2519 23.3727 17.2895C22.1558 18.5375 19.6663 20.0464 14.713 20.9643L16.5352 30.7969L18.3573 40.6295C25.6931 39.27 32.5923 36.4821 37.6918 31.2525C42.9964 25.8126 45.3125 18.8055 45.3125 11.2031H35.3125ZM16.5352 30.7969L25.6531 26.6903L23.1179 21.0614L14 25.168L4.88209 29.2745L7.41725 34.9034L16.5352 30.7969ZM14 25.168L15.6478 35.0313C25.7893 33.337 35.356 28.5461 37.341 18.6213L27.5352 16.6602L17.7294 14.699C17.9751 13.4703 18.6458 13.1401 18.2018 13.4462C17.6268 13.8426 15.9581 14.7022 12.3522 15.3047L14 25.168ZM27.5352 16.6602V6.66016H16.1914V16.6602V26.6602H27.5352V16.6602ZM16.1914 16.6602H26.1914V11.2031H16.1914H6.19141L6.19141 16.6602H16.1914ZM16.1914 11.2031V21.2031H35.3125V11.2031V1.20312L16.1914 1.20312V11.2031ZM46.2266 31.0117H36.2266V42.6992H46.2266H56.2266V31.0117H46.2266ZM46.2266 42.6992V32.6992H26.0742V42.6992V52.6992H46.2266V42.6992ZM26.0742 42.6992H16.0742V43.9453H26.0742H36.0742V42.6992H26.0742ZM26.0742 43.9453V53.9453H47.1719V43.9453V33.9453H26.0742V43.9453ZM47.1719 43.9453H37.1719V49.3594H47.1719H57.1719V43.9453H47.1719ZM47.1719 49.3594V39.3594H19.2422V49.3594V59.3594H47.1719V49.3594ZM19.2422 49.3594H29.2422V37.6289H19.2422H9.24219L9.24219 49.3594H19.2422ZM19.2422 37.6289V47.6289H39.3516V37.6289V27.6289H19.2422V37.6289ZM39.3516 37.6289H49.3516V36.4258H39.3516H29.3516V37.6289H39.3516ZM39.3516 36.4258V26.4258H19.2422V36.4258V46.4258H39.3516V36.4258ZM19.2422 36.4258H29.2422V31.0117H19.2422H9.24219V36.4258H19.2422ZM19.2422 31.0117V41.0117H46.2266V31.0117V21.0117H19.2422V31.0117ZM88.8086 27.7461H98.8086C98.8086 22.2232 94.3314 17.7461 88.8086 17.7461V27.7461ZM88.8086 33.2891V43.2891C94.3314 43.2891 98.8086 38.8119 98.8086 33.2891H88.8086ZM52.457 33.2891H42.457C42.457 38.8119 46.9342 43.2891 52.457 43.2891V33.2891ZM52.457 27.7461V17.7461C46.9342 17.7461 42.457 22.2232 42.457 27.7461H52.457ZM84.7266 20.1836H94.7266C94.7266 14.6607 90.2494 10.1836 84.7266 10.1836V20.1836ZM84.7266 25.5977V35.5977C90.2494 35.5977 94.7266 31.1205 94.7266 25.5977H84.7266ZM56.7539 25.5977H46.7539C46.7539 31.1205 51.2311 35.5977 56.7539 35.5977V25.5977ZM56.7539 10.7734V0.773437C51.2311 0.773437 46.7539 5.25059 46.7539 10.7734H56.7539ZM84.5547 10.7734H94.5547C94.5547 5.25059 90.0775 0.773437 84.5547 0.773437V10.7734ZM84.5547 16.2305V26.2305C90.0775 26.2305 94.5547 21.7533 94.5547 16.2305H84.5547ZM63.5859 16.2305V6.23047C58.0631 6.23047 53.5859 10.7076 53.5859 16.2305H63.5859ZM63.5859 20.1836H53.5859C53.5859 25.7064 58.0631 30.1836 63.5859 30.1836V20.1836ZM70.5039 35.0078L70.4549 45.0077C70.4877 45.0079 70.5206 45.0079 70.5534 45.0077L70.5039 35.0078ZM84.4258 42.3555L94.4254 42.4456C94.4259 42.3852 94.4259 42.3249 94.4254 42.2646L84.4258 42.3555ZM63.5 42.3555L73.4967 42.6118C73.5014 42.4312 73.5011 42.2505 73.4959 42.0699L63.5 42.3555ZM88.8086 27.7461H78.8086V33.2891H88.8086H98.8086V27.7461H88.8086ZM88.8086 33.2891V23.2891L52.457 23.2891V33.2891V43.2891H88.8086V33.2891ZM52.457 33.2891H62.457V27.7461H52.457H42.457V33.2891H52.457ZM52.457 27.7461V37.7461H88.8086V27.7461V17.7461L52.457 17.7461V27.7461ZM84.7266 20.1836L74.7266 20.1836V25.5977L84.7266 25.5977H94.7266V20.1836H84.7266ZM84.7266 25.5977V15.5977L56.7539 15.5977V25.5977V35.5977H84.7266V25.5977ZM56.7539 25.5977H66.7539V10.7734H56.7539H46.7539V25.5977H56.7539ZM56.7539 10.7734V20.7734L84.5547 20.7734V10.7734V0.773437L56.7539 0.773437V10.7734ZM84.5547 10.7734H74.5547V16.2305L84.5547 16.2305H94.5547V10.7734H84.5547ZM84.5547 16.2305V6.23047H63.5859V16.2305V26.2305L84.5547 26.2305V16.2305ZM63.5859 16.2305H53.5859V20.1836H63.5859H73.5859V16.2305H63.5859ZM63.5859 20.1836V30.1836H84.7266V20.1836V10.1836H63.5859V20.1836ZM70.5039 35.0078L70.5534 45.0077C72.2266 44.9994 73.536 45.1241 74.5076 45.3047C75.4994 45.489 75.9629 45.6987 76.065 45.7522C76.1529 45.7982 75.7016 45.583 75.2162 44.878C74.6781 44.0964 74.433 43.1937 74.4262 42.4464L84.4258 42.3555L94.4254 42.2646C94.3631 35.4102 90.2202 30.5881 85.3422 28.034C80.9114 25.714 75.5888 24.9825 70.4544 25.0079L70.5039 35.0078ZM84.4258 42.3555L74.4262 42.2654C74.4326 41.5485 74.6661 40.6734 75.1855 39.9101C75.6549 39.2202 76.0919 39.0087 76.0029 39.056C75.8986 39.1116 75.4359 39.3243 74.448 39.5142C73.4795 39.7003 72.1737 39.832 70.5039 39.832V49.832V59.832C75.6469 59.832 80.9752 59.0675 85.4044 56.7086C90.2806 54.1116 94.3639 49.2679 94.4254 42.4456L84.4258 42.3555ZM70.5039 49.832V39.832C68.8076 39.832 67.4731 39.6995 66.4769 39.5102C65.46 39.3171 64.9731 39.0986 64.8513 39.0344C64.7418 38.9768 65.1868 39.1841 65.6694 39.8896C66.2078 40.6766 66.4531 41.5922 66.4531 42.3555H56.4531H46.4531C46.4531 49.2966 50.6517 54.1602 55.5315 56.7302C59.9755 59.0707 65.3302 59.832 70.5039 59.832V49.832ZM56.4531 42.3555H66.4531C66.4531 43.1498 66.1958 44.0932 65.6385 44.8985C65.1399 45.6189 64.6807 45.8296 64.7894 45.7733C64.9093 45.7112 65.3972 45.496 66.4178 45.3084C67.4172 45.1247 68.7553 44.9994 70.4549 45.0077L70.5039 35.0078L70.5529 25.0079C65.3875 24.9826 60.0387 25.7112 55.5934 28.0128C50.7135 30.5395 46.4531 35.3809 46.4531 42.3555H56.4531ZM70.5039 40.1641V30.1641C67.8797 30.1641 64.8116 30.3098 62.1194 31.1607C60.735 31.5982 58.5858 32.4819 56.715 34.4041C54.5437 36.6352 53.4168 39.5862 53.5041 42.6411L63.5 42.3555L73.4959 42.0699C73.5249 43.0842 73.373 44.2497 72.9093 45.4454C72.445 46.6427 71.7674 47.6136 71.0477 48.3531C69.7141 49.7234 68.392 50.1533 68.1463 50.2309C67.8145 50.3358 67.7924 50.2968 68.3005 50.2467C68.766 50.2008 69.4777 50.1641 70.5039 50.1641V40.1641ZM63.5 42.3555L53.5033 42.0991C53.4321 44.8767 54.3409 47.8168 56.5204 50.187C58.4269 52.2604 60.671 53.2 62.1194 53.6577C64.8596 54.5237 67.9902 54.6328 70.5039 54.6328V44.6328V34.6328C69.4445 34.6328 68.718 34.5994 68.2411 34.5553C67.7155 34.5066 67.7705 34.4686 68.1463 34.5874C68.4559 34.6853 69.8729 35.1603 71.2423 36.6495C72.8847 38.4356 73.5465 40.6721 73.4967 42.6118L63.5 42.3555ZM70.5039 44.6328V54.6328C72.9863 54.6328 76.0744 54.5186 78.7984 53.6658C80.2293 53.2178 82.4109 52.3138 84.3008 50.347C86.461 48.0989 87.5078 45.225 87.5078 42.3555H77.5078H67.5078C67.5078 40.3238 68.2807 38.1535 69.8797 36.4895C71.2082 35.1069 72.5413 34.6675 72.8227 34.5793C73.1707 34.4704 73.2078 34.5083 72.6965 34.5562C72.23 34.5998 71.5243 34.6328 70.5039 34.6328V44.6328ZM77.5078 42.3555H87.5078C87.5078 39.2149 86.2339 36.3449 84.1013 34.2481C82.2533 32.431 80.1677 31.5813 78.7984 31.1526C76.1238 30.3152 73.097 30.1641 70.5039 30.1641V40.1641V50.1641C71.4903 50.1641 72.1811 50.2003 72.6365 50.2457C73.1311 50.295 73.1265 50.3341 72.8227 50.239C72.6028 50.1702 71.3659 49.7743 70.0791 48.5091C69.3842 47.8259 68.6985 46.9089 68.2042 45.7487C67.7074 44.5825 67.5078 43.4133 67.5078 42.3555H77.5078ZM123.313 17.2187L133.312 17.3168C133.313 17.2511 133.313 17.1854 133.312 17.1197L123.313 17.2187ZM93.8789 17.2187L103.878 17.3168C103.879 17.2511 103.879 17.1854 103.878 17.1197L93.8789 17.2187ZM108.617 18.9805L108.537 28.9801C108.59 28.9806 108.643 28.9806 108.697 28.9802L108.617 18.9805ZM126.75 25.2969H136.75C136.75 19.774 132.273 15.2969 126.75 15.2969V25.2969ZM126.75 30.7539V40.7539C132.273 40.7539 136.75 36.2768 136.75 30.7539H126.75ZM90.4844 30.7539H80.4844C80.4844 36.2768 84.9615 40.7539 90.4844 40.7539V30.7539ZM90.4844 25.2969V15.2969C84.9615 15.2969 80.4844 19.774 80.4844 25.2969H90.4844ZM122.453 32.2578H132.453C132.453 26.735 127.976 22.2578 122.453 22.2578V32.2578ZM122.453 43.2148V53.2148C127.976 53.2148 132.453 48.7377 132.453 43.2148H122.453ZM101.27 43.2148V33.2148C95.7467 33.2148 91.2695 37.692 91.2695 43.2148H101.27ZM101.27 44.5039H91.2695C91.2695 50.0268 95.7467 54.5039 101.27 54.5039V44.5039ZM123.398 44.5039H133.398C133.398 38.9811 128.921 34.5039 123.398 34.5039V44.5039ZM123.398 49.5742V59.5742C128.921 59.5742 133.398 55.0971 133.398 49.5742H123.398ZM94.5234 49.5742H84.5234C84.5234 55.0971 89.0006 59.5742 94.5234 59.5742V49.5742ZM94.5234 38.4883V28.4883C89.0006 28.4883 84.5234 32.9654 84.5234 38.4883H94.5234ZM115.664 38.4883V48.4883C121.187 48.4883 125.664 44.0111 125.664 38.4883H115.664ZM115.664 37.2852H125.664C125.664 31.7623 121.187 27.2852 115.664 27.2852V37.2852ZM94.5664 37.2852H84.5664C84.5664 42.808 89.0436 47.2852 94.5664 47.2852V37.2852ZM94.5664 32.2578V22.2578C89.0436 22.2578 84.5664 26.735 84.5664 32.2578H94.5664ZM108.617 10.5156V20.5156C110.546 20.5156 112.085 20.6392 113.263 20.8275C114.469 21.02 115.099 21.249 115.321 21.3494C115.551 21.4538 115.043 21.2804 114.435 20.505C113.727 19.6003 113.324 18.4288 113.313 17.3178L123.313 17.2187L133.312 17.1197C133.239 9.78613 128.289 5.26676 123.57 3.13007C119.183 1.14355 113.871 0.515625 108.617 0.515625V10.5156ZM123.313 17.2187L113.313 17.1207C113.324 16.0441 113.712 14.8886 114.414 13.985C115.018 13.2084 115.527 13.0316 115.304 13.133C115.088 13.2315 114.463 13.4603 113.26 13.6529C112.084 13.8412 110.546 13.9648 108.617 13.9648V23.9648V33.9648C113.868 33.9648 119.19 33.3378 123.586 31.3377C128.34 29.1749 133.24 24.6299 133.312 17.3168L123.313 17.2187ZM108.617 23.9648V13.9648C106.676 13.9648 105.121 13.841 103.927 13.6512C102.705 13.4568 102.064 13.2253 101.838 13.1231C101.6 13.0155 102.132 13.1961 102.757 14.0048C103.492 14.9544 103.89 16.1768 103.878 17.3168L93.8789 17.2187L83.8794 17.1207C83.806 24.6082 88.8621 29.2059 93.6003 31.3476C98.0059 33.3391 103.352 33.9648 108.617 33.9648V23.9648ZM93.8789 17.2187L103.878 17.1197C103.89 18.2952 103.476 19.5344 102.736 20.4852C102.107 21.2927 101.577 21.4698 101.822 21.3593C102.053 21.2552 102.699 21.0234 103.923 20.8292C105.12 20.6394 106.676 20.5156 108.617 20.5156V10.5156V0.515625C103.349 0.515625 98.0127 1.14229 93.6164 3.12017C88.915 5.23532 83.805 9.80756 83.8794 17.3178L93.8789 17.2187ZM108.617 15.5V5.5C105.869 5.5 102.999 5.60872 100.592 6.16502C99.4357 6.43215 97.3925 7.01263 95.4546 8.49003C93.08 10.3003 91.0977 13.3361 91.0977 17.2187H101.098H111.098C111.098 18.6243 110.766 20.1198 110.015 21.5217C109.288 22.8801 108.352 23.807 107.58 24.3952C106.833 24.9644 106.175 25.2695 105.805 25.4187C105.423 25.5729 105.161 25.636 105.095 25.6514C104.991 25.6754 105.19 25.623 105.876 25.5748C106.524 25.5294 107.416 25.5 108.617 25.5V15.5ZM101.098 17.2187H91.0977C91.0977 20.5239 92.5355 23.706 95.2369 25.8861C97.3595 27.5992 99.643 28.1787 100.799 28.4201C103.154 28.9121 106.062 28.9603 108.537 28.9801L108.617 18.9805L108.697 8.98079C107.401 8.97042 106.447 8.94762 105.73 8.90785C104.962 8.86526 104.768 8.81754 104.888 8.84263C104.969 8.85961 105.288 8.92924 105.741 9.10871C106.189 9.2859 106.957 9.64408 107.798 10.3225C108.686 11.0393 109.597 12.0705 110.247 13.4499C110.893 14.8216 111.098 16.1475 111.098 17.2187H101.098ZM108.617 18.9805L108.697 28.9802C111.193 28.9603 114.108 28.912 116.465 28.4219C117.62 28.1817 119.905 27.6047 122.031 25.8933C124.739 23.7125 126.18 20.5264 126.18 17.2187H116.18H106.18C106.18 16.1476 106.384 14.8198 107.033 13.4457C107.685 12.0637 108.598 11.0318 109.488 10.3153C110.33 9.63745 111.099 9.28046 111.545 9.10441C111.997 8.92603 112.314 8.85723 112.393 8.84082C112.508 8.81682 112.309 8.86492 111.533 8.90766C110.808 8.94759 109.845 8.97041 108.538 8.98078L108.617 18.9805ZM116.18 17.2187H126.18C126.18 13.3329 124.194 10.294 121.813 8.48317C119.872 7.00718 117.827 6.42878 116.671 6.16284C114.262 5.60863 111.384 5.5 108.617 5.5V15.5V25.5C109.83 25.5 110.732 25.5295 111.387 25.5751C112.081 25.6235 112.286 25.6765 112.186 25.6536C112.122 25.6388 111.862 25.5764 111.481 25.4232C111.113 25.2749 110.453 24.9708 109.706 24.4021C108.933 23.8142 107.994 22.8868 107.264 21.5261C106.511 20.1218 106.18 18.6244 106.18 17.2187H116.18ZM126.75 25.2969H116.75V30.7539H126.75H136.75V25.2969H126.75ZM126.75 30.7539V20.7539H90.4844V30.7539V40.7539H126.75V30.7539ZM90.4844 30.7539H100.484V25.2969H90.4844H80.4844V30.7539H90.4844ZM90.4844 25.2969V35.2969H126.75V25.2969V15.2969H90.4844V25.2969ZM122.453 32.2578H112.453V43.2148H122.453H132.453V32.2578H122.453ZM122.453 43.2148V33.2148H101.27V43.2148V53.2148H122.453V43.2148ZM101.27 43.2148H91.2695V44.5039H101.27H111.27V43.2148H101.27ZM101.27 44.5039V54.5039H123.398V44.5039V34.5039H101.27V44.5039ZM123.398 44.5039H113.398V49.5742H123.398H133.398V44.5039H123.398ZM123.398 49.5742V39.5742H94.5234V49.5742V59.5742H123.398V49.5742ZM94.5234 49.5742H104.523V38.4883H94.5234H84.5234V49.5742H94.5234ZM94.5234 38.4883V48.4883H115.664V38.4883V28.4883H94.5234V38.4883ZM115.664 38.4883H125.664V37.2852H115.664H105.664V38.4883H115.664ZM115.664 37.2852V27.2852H94.5664V37.2852V47.2852H115.664V37.2852ZM94.5664 37.2852H104.566V32.2578H94.5664H84.5664V37.2852H94.5664ZM94.5664 32.2578V42.2578H122.453V32.2578V22.2578H94.5664V32.2578ZM174.359 27.7461H184.359C184.359 22.2232 179.882 17.7461 174.359 17.7461V27.7461ZM174.359 33.2031V43.2031C179.882 43.2031 184.359 38.726 184.359 33.2031H174.359ZM159.621 33.2031V23.2031C154.098 23.2031 149.621 27.6803 149.621 33.2031H159.621ZM159.621 35.3086H149.621C149.621 40.4399 153.505 44.7385 158.61 45.2573L159.621 35.3086ZM170.063 42.4844L180.062 42.5753C180.063 42.5093 180.063 42.4434 180.062 42.3774L170.063 42.4844ZM152.789 35.3086L153.709 45.2662C158.853 44.7911 162.789 40.4751 162.789 35.3086H152.789ZM152.789 33.2031H162.789C162.789 27.6803 158.312 23.2031 152.789 23.2031V33.2031ZM138.094 33.2031H128.094C128.094 38.726 132.571 43.2031 138.094 43.2031V33.2031ZM138.094 27.7461V17.7461C132.571 17.7461 128.094 22.2232 128.094 27.7461H138.094ZM156.141 40.3359L156.23 30.3363C156.171 30.3358 156.112 30.3358 156.054 30.3363L156.141 40.3359ZM149.137 42.4844L159.133 42.77C159.138 42.5796 159.138 42.3891 159.133 42.1988L149.137 42.4844ZM171.051 11.5898L181.051 11.5898C181.051 6.067 176.574 1.58984 171.051 1.58984V11.5898ZM171.051 17.0039V27.0039C176.574 27.0039 181.051 22.5268 181.051 17.0039H171.051ZM161.598 17.0039V7.00391C157.98 7.00391 154.645 8.95737 152.876 12.1123C151.106 15.2673 151.179 19.1319 153.065 22.2184L161.598 17.0039ZM173.113 21.4297L182.266 25.4571C183.574 22.4857 183.358 19.0646 181.686 16.2816C180.015 13.4985 177.097 11.6999 173.86 11.4576L173.113 21.4297ZM170.75 26.8008L169.971 36.7704C174.208 37.1016 178.191 34.7183 179.903 30.8282L170.75 26.8008ZM156.141 19.9687L164.757 14.8939C162.958 11.8393 159.676 9.96541 156.131 9.96875C152.586 9.9721 149.308 11.8521 147.514 14.9102L156.141 19.9687ZM141.66 26.8008L132.454 30.7044C134.133 34.6643 138.156 37.107 142.444 36.77L141.66 26.8008ZM139.383 21.4297L138.611 11.4595C135.403 11.7078 132.51 13.485 130.838 16.2347C129.166 18.9844 128.92 22.3706 130.176 25.3333L139.383 21.4297ZM150.727 17.0039L159.148 22.3971C161.119 19.3192 161.254 15.4111 159.5 12.2045C157.745 8.99799 154.382 7.00391 150.727 7.00391V17.0039ZM141.402 17.0039H131.402C131.402 22.5268 135.879 27.0039 141.402 27.0039V17.0039ZM141.402 11.5898V1.58984C135.879 1.58984 131.402 6.067 131.402 11.5898H141.402ZM174.359 27.7461H164.359V33.2031H174.359H184.359V27.7461H174.359ZM174.359 33.2031V23.2031H159.621V33.2031V43.2031H174.359V33.2031ZM159.621 33.2031H149.621V35.3086H159.621H169.621V33.2031H159.621ZM159.621 35.3086L158.61 45.2573C159.741 45.3723 160.556 45.5474 161.101 45.7132C161.658 45.8824 161.793 45.9994 161.679 45.9216C161.542 45.8289 161.093 45.4837 160.683 44.7769C160.25 44.0307 160.07 43.2377 160.063 42.5913L170.063 42.4844L180.062 42.3774C180 36.6201 176.979 32.1265 172.887 29.3577C169.193 26.8578 164.755 25.7789 160.632 25.3598L159.621 35.3086ZM170.063 42.4844L160.063 42.3935C160.07 41.6264 160.324 40.7087 160.871 39.9211C161.361 39.2149 161.812 39.0057 161.709 39.0591C161.594 39.1191 161.117 39.3315 160.113 39.5195C159.13 39.7035 157.814 39.832 156.141 39.832V49.832V59.832C161.231 59.832 166.527 59.0973 170.939 56.8022C175.791 54.2785 179.999 49.4805 180.062 42.5753L170.063 42.4844ZM156.141 49.832V39.832C154.428 39.832 153.077 39.7024 152.066 39.5154C151.032 39.3243 150.536 39.1071 150.411 39.0424C150.296 38.9833 150.76 39.1942 151.265 39.9211C151.831 40.7357 152.09 41.6881 152.09 42.4844H142.09L132.09 42.4844C132.09 49.4778 136.371 54.3059 141.246 56.8189C145.675 59.1027 151.006 59.832 156.141 59.832V49.832ZM142.09 42.4844H152.09C152.09 43.1644 151.904 44.0009 151.446 44.784C151.015 45.5216 150.544 45.8702 150.417 45.9542C150.312 46.0235 150.472 45.8965 151.071 45.7218C151.657 45.5509 152.522 45.3758 153.709 45.2662L152.789 35.3086L151.869 25.351C147.675 25.7383 143.159 26.7817 139.402 29.2607C135.225 32.017 132.09 36.5787 132.09 42.4844L142.09 42.4844ZM152.789 35.3086H162.789V33.2031H152.789H142.789V35.3086H152.789ZM152.789 33.2031V23.2031H138.094V33.2031V43.2031L152.789 43.2031V33.2031ZM138.094 33.2031L148.094 33.2031V27.7461H138.094H128.094V33.2031H138.094ZM138.094 27.7461V37.7461L174.359 37.7461V27.7461V17.7461H138.094V27.7461ZM156.141 40.3359L156.054 30.3363C153.513 30.3584 150.499 30.4982 147.879 31.289C146.538 31.6941 144.359 32.5371 142.447 34.4492C140.195 36.701 139.053 39.6977 139.141 42.77L149.137 42.4844L159.133 42.1988C159.162 43.2113 159.011 44.3967 158.529 45.6222C158.045 46.8517 157.338 47.8427 156.589 48.5913C155.214 49.9663 153.863 50.3742 153.66 50.4356C153.357 50.5268 153.366 50.485 153.915 50.4321C154.419 50.3836 155.165 50.3448 156.228 50.3356L156.141 40.3359ZM149.137 42.4844L139.141 42.1988C139.054 45.2537 140.18 48.2047 142.352 50.4358C144.222 52.3579 146.372 53.2417 147.756 53.6792C150.448 54.5301 153.516 54.6758 156.141 54.6758V44.6758V34.6758C155.114 34.6758 154.403 34.6391 153.937 34.5932C153.429 34.543 153.451 34.504 153.783 34.6089C154.029 34.6865 155.351 35.1164 156.684 36.4867C157.404 37.2262 158.082 38.1971 158.546 39.3944C159.01 40.5901 159.162 41.7556 159.133 42.77L149.137 42.4844ZM156.141 44.6758V54.6758C158.734 54.6758 161.761 54.5246 164.435 53.6873C165.804 53.2585 167.89 52.4089 169.738 50.5918C171.871 48.4949 173.145 45.6249 173.145 42.4844H163.145H153.145C153.145 41.4266 153.344 40.2574 153.841 39.0912C154.335 37.9309 155.021 37.0139 155.716 36.3307C157.003 35.0655 158.24 34.6697 158.459 34.6008C158.763 34.5057 158.768 34.5449 158.273 34.5942C157.818 34.6396 157.127 34.6758 156.141 34.6758V44.6758ZM163.145 42.4844H173.145C173.145 39.3209 171.85 36.4091 169.641 34.2953C167.754 32.4896 165.641 31.679 164.313 31.2816C161.709 30.503 158.736 30.3587 156.23 30.3363L156.141 40.3359L156.051 50.3355C157.075 50.3447 157.802 50.383 158.296 50.4312C158.831 50.4833 158.857 50.5253 158.582 50.443C158.402 50.3893 157.139 50.0138 155.813 48.7452C155.091 48.0543 154.376 47.119 153.861 45.9279C153.344 44.7322 153.145 43.5424 153.145 42.4844H163.145ZM171.051 11.5898H161.051V17.0039H171.051H181.051V11.5898L171.051 11.5898ZM171.051 17.0039V7.00391H161.598V17.0039V27.0039H171.051V17.0039ZM161.598 17.0039L153.065 22.2184C156.857 28.4231 164.319 30.7994 172.367 31.4018L173.113 21.4297L173.86 11.4576C170.989 11.2427 169.589 10.7846 169.095 10.57C168.643 10.3732 169.394 10.5846 170.13 11.7894L161.598 17.0039ZM173.113 21.4297L163.96 17.4023L161.597 22.7734L170.75 26.8008L179.903 30.8282L182.266 25.4571L173.113 21.4297ZM170.75 26.8008L171.529 16.8312C165.229 16.3387 164.494 14.4465 164.757 14.8939L156.141 19.9687L147.524 25.0436C151.913 32.4949 160.33 36.0168 169.971 36.7704L170.75 26.8008ZM156.141 19.9687L147.514 14.9102C147.771 14.4719 147.062 16.3454 140.877 16.8315L141.66 26.8008L142.444 36.77C152.114 36.0101 160.428 32.4266 164.767 25.0273L156.141 19.9687ZM141.66 26.8008L150.867 22.8972L148.589 17.5261L139.383 21.4297L130.176 25.3333L132.454 30.7044L141.66 26.8008ZM139.383 21.4297L140.154 31.3999C148.155 30.7807 155.362 28.3077 159.148 22.3971L150.727 17.0039L142.306 11.6107C142.994 10.5353 143.635 10.3744 143.164 10.5821C142.669 10.8001 141.318 11.25 138.611 11.4595L139.383 21.4297ZM150.727 17.0039V7.00391H141.402V17.0039V27.0039H150.727V17.0039ZM141.402 17.0039H151.402V11.5898H141.402H131.402V17.0039H141.402ZM141.402 11.5898V21.5898H171.051V11.5898V1.58984L141.402 1.58984V11.5898ZM211.141 10H221.141C221.141 4.47715 216.663 0 211.141 0V10ZM211.141 49.7461V59.7461C216.663 59.7461 221.141 55.2689 221.141 49.7461H211.141ZM204.566 49.7461H194.566C194.566 55.2689 199.044 59.7461 204.566 59.7461V49.7461ZM204.566 30.3672H214.566C214.566 24.8443 210.089 20.3672 204.566 20.3672V30.3672ZM202.504 30.3672V20.3672C196.981 20.3672 192.504 24.8443 192.504 30.3672H202.504ZM202.504 48.0273V58.0273C208.027 58.0273 212.504 53.5502 212.504 48.0273H202.504ZM195.973 48.0273H185.973C185.973 53.5502 190.45 58.0273 195.973 58.0273V48.0273ZM195.973 37.2852H205.973C205.973 32.9809 203.218 29.1595 199.135 27.7983C195.052 26.4372 190.555 27.8417 187.973 31.2852L195.973 37.2852ZM193.137 41.0664L188.53 49.9422C192.87 52.1947 198.203 50.9782 201.137 47.0664L193.137 41.0664ZM186.176 32.9453L195.484 29.2906C193.933 25.3414 190.06 22.8005 185.82 22.9517C181.58 23.1028 177.896 25.913 176.631 29.9626L186.176 32.9453ZM179.258 42.5273L171.462 48.7899C174.589 52.6835 180.11 53.6726 184.395 51.1069L179.258 42.5273ZM175.047 37.2852L170.079 28.6064C167.541 30.0595 165.765 32.5512 165.221 35.4252C164.677 38.2992 165.419 41.2673 167.251 43.5477L175.047 37.2852ZM182.609 19.1953H192.609C192.609 13.6725 188.132 9.19531 182.609 9.19531V19.1953ZM176.637 19.1953H166.637C166.637 24.7182 171.114 29.1953 176.637 29.1953V19.1953ZM176.637 13.7383V3.73828C171.114 3.73828 166.637 8.21543 166.637 13.7383H176.637ZM194.598 13.7383H204.598C204.598 8.21543 200.121 3.73828 194.598 3.73828V13.7383ZM194.598 19.1953V29.1953C200.121 29.1953 204.598 24.7182 204.598 19.1953H194.598ZM189.313 19.1953V9.19531C183.79 9.19531 179.313 13.6725 179.313 19.1953H189.313ZM195.973 35.2227L190.575 43.6411C193.653 45.6142 197.562 45.7507 200.77 43.9968C203.978 42.243 205.973 38.8785 205.973 35.2227H195.973ZM195.973 10.4727V0.472656C190.45 0.472656 185.973 4.94981 185.973 10.4727H195.973ZM202.504 10.4727H212.504C212.504 4.94981 208.027 0.472656 202.504 0.472656V10.4727ZM202.504 24.8672H192.504C192.504 30.39 196.981 34.8672 202.504 34.8672V24.8672ZM204.566 24.8672V34.8672C210.089 34.8672 214.566 30.39 214.566 24.8672L204.566 24.8672ZM204.566 10V0C199.044 0 194.566 4.47715 194.566 10H204.566ZM211.141 10H201.141V49.7461H211.141H221.141V10H211.141ZM211.141 49.7461V39.7461H204.566V49.7461V59.7461H211.141V49.7461ZM204.566 49.7461H214.566V30.3672H204.566H194.566V49.7461H204.566ZM204.566 30.3672V20.3672H202.504V30.3672V40.3672H204.566V30.3672ZM202.504 30.3672H192.504V48.0273H202.504H212.504V30.3672H202.504ZM202.504 48.0273V38.0273H195.973V48.0273V58.0273H202.504V48.0273ZM195.973 48.0273H205.973V37.2852H195.973H185.973V48.0273H195.973ZM195.973 37.2852L187.973 31.2852L185.137 35.0664L193.137 41.0664L201.137 47.0664L203.973 43.2852L195.973 37.2852ZM193.137 41.0664L197.743 32.1906C196.954 31.7809 196.184 31.0724 195.484 29.2906L186.176 32.9453L176.868 36.6001C178.918 41.8221 182.531 46.8285 188.53 49.9422L193.137 41.0664ZM186.176 32.9453L176.631 29.9626C175.816 32.5698 174.855 33.5081 174.121 33.9477L179.258 42.5273L184.395 51.1069C190.622 47.3786 193.957 41.5708 195.721 35.9281L186.176 32.9453ZM179.258 42.5273L187.054 36.2648L182.843 31.0226L175.047 37.2852L167.251 43.5477L171.462 48.7899L179.258 42.5273ZM175.047 37.2852L180.015 45.9639C191.446 39.4203 192.609 26.7472 192.609 19.1953H182.609H172.609C172.609 22.3792 172.298 24.711 171.73 26.3265C171.24 27.7217 170.693 28.2548 170.079 28.6064L175.047 37.2852ZM182.609 19.1953V9.19531H176.637V19.1953V29.1953H182.609V19.1953ZM176.637 19.1953H186.637V13.7383H176.637H166.637V19.1953H176.637ZM176.637 13.7383V23.7383H194.598V13.7383V3.73828L176.637 3.73828V13.7383ZM194.598 13.7383H184.598V19.1953H194.598H204.598V13.7383H194.598ZM194.598 19.1953V9.19531H189.313V19.1953V29.1953H194.598V19.1953ZM189.313 19.1953H179.313C179.313 26.2375 180.674 37.2928 190.575 43.6411L195.973 35.2227L201.37 26.8043C200.902 26.5043 200.46 26.051 200.058 24.931C199.598 23.648 199.313 21.7699 199.313 19.1953H189.313ZM195.973 35.2227H205.973V10.4727H195.973H185.973V35.2227H195.973ZM195.973 10.4727V20.4727H202.504V10.4727V0.472656L195.973 0.472656V10.4727ZM202.504 10.4727H192.504V24.8672H202.504L212.504 24.8672V10.4727H202.504ZM202.504 24.8672V34.8672H204.566V24.8672V14.8672H202.504V24.8672ZM204.566 24.8672L214.566 24.8672V10H204.566H194.566V24.8672H204.566ZM204.566 10V20L211.141 20V10V0H204.566V10ZM245.859 10H255.859C255.859 4.47715 251.382 0 245.859 0V10ZM245.859 25.082H235.859C235.859 30.6049 240.337 35.082 245.859 35.082V25.082ZM251.23 25.082H261.23C261.23 19.5592 256.753 15.082 251.23 15.082V25.082ZM251.23 30.7109V40.7109C256.753 40.7109 261.23 36.2338 261.23 30.7109H251.23ZM245.859 30.7109V20.7109C240.337 20.7109 235.859 25.1881 235.859 30.7109H245.859ZM245.859 49.7461V59.7461C251.382 59.7461 255.859 55.2689 255.859 49.7461H245.859ZM239.027 49.7461H229.027C229.027 55.2689 233.505 59.7461 239.027 59.7461V49.7461ZM239.027 10V0C233.505 0 229.027 4.47715 229.027 10L239.027 10ZM237.094 15.6719H247.094C247.094 10.149 242.617 5.67187 237.094 5.67187V15.6719ZM237.094 21.1289V31.1289C242.617 31.1289 247.094 26.6518 247.094 21.1289H237.094ZM213.934 21.1289L203.934 21.1289C203.934 26.6518 208.411 31.1289 213.934 31.1289V21.1289ZM213.934 15.6719V5.67187C208.411 5.67187 203.934 10.149 203.934 15.6719L213.934 15.6719ZM222.141 15.6719V25.6719C227.663 25.6719 232.141 21.1947 232.141 15.6719H222.141ZM222.141 10.7305V0.730469C216.618 0.730469 212.141 5.20762 212.141 10.7305H222.141ZM229.016 10.7305L239.016 10.7305C239.016 5.20762 234.538 0.730469 229.016 0.730469V10.7305ZM229.016 15.6719H219.016C219.016 21.1947 223.493 25.6719 229.016 25.6719V15.6719ZM221.754 32.3437L231.753 32.4976C231.754 32.3926 231.754 32.2875 231.753 32.1825L221.754 32.3437ZM245.859 10L235.859 10V25.082H245.859H255.859V10H245.859ZM245.859 25.082V35.082H251.23V25.082V15.082H245.859V25.082ZM251.23 25.082H241.23V30.7109H251.23H261.23V25.082H251.23ZM251.23 30.7109V20.7109H245.859V30.7109V40.7109H251.23V30.7109ZM245.859 30.7109H235.859V49.7461H245.859H255.859V30.7109H245.859ZM245.859 49.7461V39.7461H239.027V49.7461V59.7461H245.859V49.7461ZM239.027 49.7461H249.027V10H239.027L229.027 10V49.7461H239.027ZM239.027 10V20H245.859V10V0L239.027 0V10ZM237.094 15.6719H227.094V21.1289H237.094H247.094V15.6719H237.094ZM237.094 21.1289V11.1289H213.934V21.1289V31.1289H237.094V21.1289ZM213.934 21.1289H223.934V15.6719H213.934L203.934 15.6719V21.1289L213.934 21.1289ZM213.934 15.6719V25.6719H222.141V15.6719V5.67187H213.934V15.6719ZM222.141 15.6719H232.141V10.7305H222.141H212.141V15.6719H222.141ZM222.141 10.7305V20.7305H229.016V10.7305V0.730469H222.141V10.7305ZM229.016 10.7305H219.016V15.6719H229.016H239.016V10.7305L229.016 10.7305ZM229.016 15.6719V25.6719H237.094V15.6719V5.67187H229.016V15.6719ZM225.578 22.6758V32.6758C225.904 32.6758 226.103 32.7311 226.191 32.7641C226.28 32.7974 226.274 32.8128 226.217 32.7608C226.157 32.7055 226.081 32.6106 226.027 32.4862C225.97 32.3569 225.977 32.29 225.977 32.3437H235.977H245.977C245.977 20.4166 236.179 12.6758 225.578 12.6758V22.6758ZM235.977 32.3437H225.977C225.977 32.4188 225.966 32.3657 226.019 32.2435C226.071 32.1256 226.144 32.0317 226.206 31.9749C226.264 31.9214 226.273 31.9351 226.187 31.9673C226.101 31.9994 225.904 32.0547 225.578 32.0547V42.0547V52.0547C236.21 52.0547 245.977 44.2857 245.977 32.3437H235.977ZM225.578 42.0547V32.0547C225.195 32.0547 224.973 31.9911 224.884 31.9582C224.796 31.9257 224.818 31.9166 224.891 31.9846C224.969 32.056 225.048 32.1625 225.1 32.2831C225.153 32.4057 225.137 32.4461 225.137 32.3437H215.137H205.137C205.137 44.2597 214.79 52.0547 225.578 52.0547V42.0547ZM215.137 32.3437H225.137C225.137 32.2625 225.149 32.3167 225.093 32.4465C225.037 32.5737 224.956 32.6813 224.88 32.751C224.808 32.8175 224.789 32.8068 224.88 32.7732C224.971 32.7394 225.195 32.6758 225.578 32.6758V22.6758V12.6758C214.82 12.6758 205.137 20.4426 205.137 32.3437H215.137ZM225.578 28.2187V18.2187C222.264 18.2187 218.543 19.3418 215.659 22.2942C212.755 25.2668 211.7 29.0654 211.755 32.505L221.754 32.3437L231.753 32.1825C231.765 32.958 231.505 34.6941 229.965 36.2703C228.445 37.8262 226.658 38.2187 225.578 38.2187V28.2187ZM221.754 32.3437L211.755 32.1899C211.703 35.5736 212.691 39.4751 215.741 42.5247C218.743 45.5265 222.511 46.4687 225.578 46.4687V36.4687V26.4687C226.411 26.4687 228.246 26.745 229.883 28.3825C231.568 30.0678 231.762 31.9069 231.753 32.4976L221.754 32.3437ZM225.578 36.4687V46.4687C228.692 46.4687 232.448 45.4854 235.417 42.4683C238.39 39.448 239.359 35.6263 239.359 32.3437H229.359H219.359C219.359 31.8542 219.534 30.095 221.164 28.4389C222.79 26.7861 224.656 26.4687 225.578 26.4687V36.4687ZM229.359 32.3437H239.359C239.359 29.0131 238.33 25.2955 235.499 22.3511C232.65 19.3886 228.942 18.2187 225.578 18.2187V28.2187V38.2187C224.406 38.2187 222.588 37.7793 221.082 36.2133C219.594 34.6654 219.359 33.0104 219.359 32.3437H229.359ZM284.531 20.0977H294.531C294.531 14.5748 290.054 10.0977 284.531 10.0977V20.0977ZM284.531 25.4258V35.4258C290.054 35.4258 294.531 30.9486 294.531 25.4258H284.531ZM256.43 25.4258H246.43C246.43 30.9486 250.907 35.4258 256.43 35.4258V25.4258ZM256.43 11.418V1.41797C250.907 1.41797 246.43 5.89512 246.43 11.418H256.43ZM263.305 11.418H273.305C273.305 5.89512 268.828 1.41797 263.305 1.41797V11.418ZM263.305 20.0977H253.305C253.305 25.6205 257.782 30.0977 263.305 30.0977V20.0977ZM288.441 28.9492H298.441C298.441 23.4264 293.964 18.9492 288.441 18.9492V28.9492ZM288.441 34.2773V44.2773C293.964 44.2773 298.441 39.8002 298.441 34.2773H288.441ZM252.176 34.2773H242.176C242.176 39.8002 246.653 44.2773 252.176 44.2773V34.2773ZM252.176 28.9492V18.9492C246.653 18.9492 242.176 23.4264 242.176 28.9492H252.176ZM284.789 43.4727H294.789C294.789 37.9498 290.312 33.4727 284.789 33.4727V43.4727ZM284.789 48.9727V58.9727C290.312 58.9727 294.789 54.4955 294.789 48.9727H284.789ZM255.957 48.9727H245.957C245.957 54.4955 250.434 58.9727 255.957 58.9727V48.9727ZM255.957 37.0273V27.0273C250.434 27.0273 245.957 31.5045 245.957 37.0273H255.957ZM262.918 37.0273H272.918C272.918 31.5045 268.441 27.0273 262.918 27.0273V37.0273ZM262.918 43.4727H252.918C252.918 48.9955 257.395 53.4727 262.918 53.4727V43.4727ZM284.531 20.0977H274.531V25.4258H284.531H294.531V20.0977H284.531ZM284.531 25.4258V15.4258H256.43V25.4258V35.4258H284.531V25.4258ZM256.43 25.4258H266.43V11.418H256.43H246.43V25.4258H256.43ZM256.43 11.418V21.418H263.305V11.418V1.41797H256.43V11.418ZM263.305 11.418H253.305V20.0977H263.305H273.305V11.418H263.305ZM263.305 20.0977V30.0977H284.531V20.0977V10.0977H263.305V20.0977ZM288.441 28.9492H278.441V34.2773H288.441H298.441V28.9492H288.441ZM288.441 34.2773V24.2773H252.176V34.2773V44.2773H288.441V34.2773ZM252.176 34.2773H262.176V28.9492H252.176H242.176V34.2773H252.176ZM252.176 28.9492V38.9492H288.441V28.9492V18.9492H252.176V28.9492ZM284.789 43.4727H274.789V48.9727H284.789H294.789V43.4727H284.789ZM284.789 48.9727V38.9727H255.957V48.9727V58.9727H284.789V48.9727ZM255.957 48.9727H265.957V37.0273H255.957H245.957V48.9727H255.957ZM255.957 37.0273V47.0273H262.918V37.0273V27.0273H255.957V37.0273ZM262.918 37.0273H252.918V43.4727H262.918H272.918V37.0273H262.918ZM262.918 43.4727V53.4727H284.789V43.4727V33.4727H262.918V43.4727Z" fill="white" mask="url(#path-1-outside-1_3990_1446)"/>
</g>
<defs>
<filter id="filter0_d_3990_1446" x="0" y="0" width="302.441" height="67.832" filterUnits="userSpaceOnUse" color-interpolation-filters="sRGB">
<feFlood flood-opacity="0" result="BackgroundImageFix"/>
<feColorMatrix in="SourceAlpha" type="matrix" values="0 0 0 0 0 0 0 0 0 0 0 0 0 0 0 0 0 0 127 0" result="hardAlpha"/>
<feOffset dy="4"/>
<feGaussianBlur stdDeviation="2"/>
<feComposite in2="hardAlpha" operator="out"/>
<feColorMatrix type="matrix" values="0 0 0 0 0 0 0 0 0 0 0 0 0 0 0 0 0 0 0.07 0"/>
<feBlend mode="normal" in2="BackgroundImageFix" result="effect1_dropShadow_3990_1446"/>
<feBlend mode="normal" in="SourceGraphic" in2="effect1_dropShadow_3990_1446" result="shape"/>
</filter>
</defs>
</svg>
