<svg width="341" height="68" viewBox="0 0 341 68" fill="none" xmlns="http://www.w3.org/2000/svg">
<g filter="url(#filter0_d_3990_1434)">
<mask id="path-1-outside-1_3990_1434" maskUnits="userSpaceOnUse" x="3.78516" y="-0.507813" width="333" height="61" fill="black">
<rect fill="white" x="3.78516" y="-0.507813" width="333" height="61"/>
<path d="M46.4844 10V18.0781H51.4258V23.707H46.4844V32H39.5664V10L46.4844 10ZM35.1836 12.1914C35.1836 23.0195 28.7383 30.1094 16.707 33.2461L14 27.7461C22.293 25.834 26.6328 22.0098 27.5781 17.6055H16.0625V12.1914H35.1836ZM46.4844 33.2891V49.3164H19.9727V33.2891H46.4844ZM26.8047 38.7891V43.9883H39.6953V38.7891H26.8047ZM86.5312 10V33.5898H79.6562V24.8242L74.6719 24.8242V19.2812L79.6562 19.2812V10H86.5312ZM72.6953 34.2344C81.332 34.2344 86.6172 37.1133 86.6172 42.0547C86.6172 46.9531 81.332 49.875 72.6953 49.875C64.1445 49.875 58.8594 46.9531 58.8594 42.0547C58.8594 37.1133 64.1445 34.2344 72.6953 34.2344ZM72.6953 39.4336C67.9688 39.4336 65.6914 40.1641 65.7344 42.0547C65.6914 43.9023 67.9688 44.6758 72.6953 44.6758C77.4648 44.6758 79.7852 43.9023 79.7852 42.0547C79.7852 40.1641 77.4648 39.4336 72.6953 39.4336ZM75.7461 12.1055V17.6055H68.5703C68.9785 21.5801 71.2988 25.5762 77.1641 27.4883L73.8555 32.8594C69.6016 31.5488 66.7871 28.9707 65.0469 25.7695C63.3281 29.4219 60.3418 32.3652 55.7656 33.8477L52.1992 28.3906C58.5371 26.3711 60.9219 21.8594 61.3516 17.6055H54.1328V12.1055H75.7461ZM127.051 39.9062V45.4492H90.7422V39.9062H105.395V31.6133H112.355V39.9062H127.051ZM123.828 12.6641V18.1641H112.613C113.43 22.5254 117.039 26.6074 125.977 27.875L123.312 33.2891C116.072 32.1074 111.389 29.0781 108.875 24.8672C106.447 29.1855 101.828 32.3438 94.6523 33.5898L91.9883 28.1328C100.646 26.8008 104.213 22.5684 105.008 18.1641H93.793V12.6641H123.828ZM151.5 11.2031V16.6172H144.324C144.711 19.9473 147.053 23.4277 152.875 24.9961L149.738 30.4102C145.398 29.25 142.52 26.9082 140.801 23.9648C138.953 27.252 135.945 29.9375 131.434 31.1836L128.082 25.8555C134.119 23.9863 136.697 20.1191 137.191 16.6172H129.844V11.2031H151.5ZM162.586 10V30.0664H155.711V23.1055H150.641V17.7344H155.711V10H162.586ZM162.586 31.3125V42.8281H142.691V44.1172H163.531V49.4023L135.73 49.4023V37.8867L155.711 37.8867V36.6836L135.73 36.6836V31.3125L162.586 31.3125ZM184.93 10.5156C194.254 10.5156 199.582 12.8789 199.625 17.2187C199.582 21.6016 194.254 23.9648 184.93 23.9648C175.562 23.9648 170.148 21.6016 170.191 17.2187C170.148 12.8789 175.562 10.5156 184.93 10.5156ZM184.93 15.5C179.559 15.5 177.41 16.0156 177.41 17.2187C177.41 18.6797 179.559 18.9375 184.93 18.9805C190.344 18.9375 192.492 18.6797 192.492 17.2187C192.492 16.0156 190.344 15.5 184.93 15.5ZM203.062 25.2969V30.7539H166.797V25.2969H203.062ZM198.766 32.2578V43.2148H177.582V44.5039H199.711V49.5742H170.836V38.4883H191.977V37.2852H170.879V32.2578H198.766ZM237.008 11.6328V16.9609H229.918C230.584 20.1836 233.012 23.3418 238.641 24.8672L235.461 30.1523C231.078 29.0352 228.113 26.6504 226.352 23.6211C224.568 27.0586 221.518 29.7441 216.77 30.9687L213.418 25.5977C219.369 23.9863 221.861 20.4844 222.527 16.9609H215.223V11.6328H237.008ZM246.203 10V17.3477H251.145V22.8477H246.203V30.3242H239.285V10H246.203ZM246.203 31.6562V42.7852H226.051V44.2031H247.148V49.3594H219.219V38.0156H239.328V36.7695H219.219V31.6562H246.203ZM284.145 10V25.082H289.516V30.7109H284.145V49.7461H277.312V10H284.145ZM275.379 15.6719V21.1289H252.219V15.6719H260.426V10.7305H267.301V15.6719H275.379ZM263.863 22.6758C269.75 22.6758 274.262 26.7148 274.262 32.3437C274.262 38.0156 269.75 42.0547 263.863 42.0547C257.848 42.0547 253.422 38.0156 253.422 32.3437C253.422 26.7148 257.848 22.6758 263.863 22.6758ZM263.863 28.2187C261.629 28.2187 259.996 29.6797 260.039 32.3437C259.996 35.1367 261.629 36.4687 263.863 36.4687C266.055 36.4687 267.645 35.1367 267.645 32.3437C267.645 29.6797 266.055 28.2187 263.863 28.2187ZM322.816 20.0977V25.4258H294.715V11.418H301.59V20.0977H322.816ZM326.727 28.9492V34.2773H290.461V28.9492H326.727ZM323.074 43.4727V48.9727H294.242V37.0273H301.203V43.4727H323.074Z"/>
</mask>
<path d="M46.4844 10V18.0781H51.4258V23.707H46.4844V32H39.5664V10L46.4844 10ZM35.1836 12.1914C35.1836 23.0195 28.7383 30.1094 16.707 33.2461L14 27.7461C22.293 25.834 26.6328 22.0098 27.5781 17.6055H16.0625V12.1914H35.1836ZM46.4844 33.2891V49.3164H19.9727V33.2891H46.4844ZM26.8047 38.7891V43.9883H39.6953V38.7891H26.8047ZM86.5312 10V33.5898H79.6562V24.8242L74.6719 24.8242V19.2812L79.6562 19.2812V10H86.5312ZM72.6953 34.2344C81.332 34.2344 86.6172 37.1133 86.6172 42.0547C86.6172 46.9531 81.332 49.875 72.6953 49.875C64.1445 49.875 58.8594 46.9531 58.8594 42.0547C58.8594 37.1133 64.1445 34.2344 72.6953 34.2344ZM72.6953 39.4336C67.9688 39.4336 65.6914 40.1641 65.7344 42.0547C65.6914 43.9023 67.9688 44.6758 72.6953 44.6758C77.4648 44.6758 79.7852 43.9023 79.7852 42.0547C79.7852 40.1641 77.4648 39.4336 72.6953 39.4336ZM75.7461 12.1055V17.6055H68.5703C68.9785 21.5801 71.2988 25.5762 77.1641 27.4883L73.8555 32.8594C69.6016 31.5488 66.7871 28.9707 65.0469 25.7695C63.3281 29.4219 60.3418 32.3652 55.7656 33.8477L52.1992 28.3906C58.5371 26.3711 60.9219 21.8594 61.3516 17.6055H54.1328V12.1055H75.7461ZM127.051 39.9062V45.4492H90.7422V39.9062H105.395V31.6133H112.355V39.9062H127.051ZM123.828 12.6641V18.1641H112.613C113.43 22.5254 117.039 26.6074 125.977 27.875L123.312 33.2891C116.072 32.1074 111.389 29.0781 108.875 24.8672C106.447 29.1855 101.828 32.3438 94.6523 33.5898L91.9883 28.1328C100.646 26.8008 104.213 22.5684 105.008 18.1641H93.793V12.6641H123.828ZM151.5 11.2031V16.6172H144.324C144.711 19.9473 147.053 23.4277 152.875 24.9961L149.738 30.4102C145.398 29.25 142.52 26.9082 140.801 23.9648C138.953 27.252 135.945 29.9375 131.434 31.1836L128.082 25.8555C134.119 23.9863 136.697 20.1191 137.191 16.6172H129.844V11.2031H151.5ZM162.586 10V30.0664H155.711V23.1055H150.641V17.7344H155.711V10H162.586ZM162.586 31.3125V42.8281H142.691V44.1172H163.531V49.4023L135.73 49.4023V37.8867L155.711 37.8867V36.6836L135.73 36.6836V31.3125L162.586 31.3125ZM184.93 10.5156C194.254 10.5156 199.582 12.8789 199.625 17.2187C199.582 21.6016 194.254 23.9648 184.93 23.9648C175.562 23.9648 170.148 21.6016 170.191 17.2187C170.148 12.8789 175.562 10.5156 184.93 10.5156ZM184.93 15.5C179.559 15.5 177.41 16.0156 177.41 17.2187C177.41 18.6797 179.559 18.9375 184.93 18.9805C190.344 18.9375 192.492 18.6797 192.492 17.2187C192.492 16.0156 190.344 15.5 184.93 15.5ZM203.062 25.2969V30.7539H166.797V25.2969H203.062ZM198.766 32.2578V43.2148H177.582V44.5039H199.711V49.5742H170.836V38.4883H191.977V37.2852H170.879V32.2578H198.766ZM237.008 11.6328V16.9609H229.918C230.584 20.1836 233.012 23.3418 238.641 24.8672L235.461 30.1523C231.078 29.0352 228.113 26.6504 226.352 23.6211C224.568 27.0586 221.518 29.7441 216.77 30.9687L213.418 25.5977C219.369 23.9863 221.861 20.4844 222.527 16.9609H215.223V11.6328H237.008ZM246.203 10V17.3477H251.145V22.8477H246.203V30.3242H239.285V10H246.203ZM246.203 31.6562V42.7852H226.051V44.2031H247.148V49.3594H219.219V38.0156H239.328V36.7695H219.219V31.6562H246.203ZM284.145 10V25.082H289.516V30.7109H284.145V49.7461H277.312V10H284.145ZM275.379 15.6719V21.1289H252.219V15.6719H260.426V10.7305H267.301V15.6719H275.379ZM263.863 22.6758C269.75 22.6758 274.262 26.7148 274.262 32.3437C274.262 38.0156 269.75 42.0547 263.863 42.0547C257.848 42.0547 253.422 38.0156 253.422 32.3437C253.422 26.7148 257.848 22.6758 263.863 22.6758ZM263.863 28.2187C261.629 28.2187 259.996 29.6797 260.039 32.3437C259.996 35.1367 261.629 36.4687 263.863 36.4687C266.055 36.4687 267.645 35.1367 267.645 32.3437C267.645 29.6797 266.055 28.2187 263.863 28.2187ZM322.816 20.0977V25.4258H294.715V11.418H301.59V20.0977H322.816ZM326.727 28.9492V34.2773H290.461V28.9492H326.727ZM323.074 43.4727V48.9727H294.242V37.0273H301.203V43.4727H323.074Z" fill="#11DCA9"/>
<path d="M46.4844 10H56.4844C56.4844 4.47715 52.0072 0 46.4844 0V10ZM46.4844 18.0781H36.4844C36.4844 23.601 40.9615 28.0781 46.4844 28.0781V18.0781ZM51.4258 18.0781H61.4258C61.4258 12.5553 56.9486 8.07812 51.4258 8.07812V18.0781ZM51.4258 23.707V33.707C56.9486 33.707 61.4258 29.2299 61.4258 23.707H51.4258ZM46.4844 23.707V13.707C40.9615 13.707 36.4844 18.1842 36.4844 23.707H46.4844ZM46.4844 32V42C52.0072 42 56.4844 37.5228 56.4844 32H46.4844ZM39.5664 32H29.5664C29.5664 37.5228 34.0436 42 39.5664 42V32ZM39.5664 10V0C34.0436 0 29.5664 4.47715 29.5664 10H39.5664ZM35.1836 12.1914H45.1836C45.1836 6.66856 40.7064 2.19141 35.1836 2.19141V12.1914ZM16.707 33.2461L7.7349 37.6621C9.8317 41.9222 14.6352 44.1205 19.2298 42.9226L16.707 33.2461ZM14 27.7461L11.7532 18.0018C8.77692 18.688 6.27743 20.6969 4.96704 23.4559C3.65664 26.215 3.67904 29.4216 5.02787 32.1621L14 27.7461ZM27.5781 17.6055L37.3555 19.704C37.9893 16.7508 37.2544 13.6693 35.3558 11.32C33.4573 8.97073 30.5986 7.60547 27.5781 7.60547V17.6055ZM16.0625 17.6055H6.0625C6.0625 23.1283 10.5397 27.6055 16.0625 27.6055V17.6055ZM16.0625 12.1914V2.19141C10.5397 2.19141 6.0625 6.66856 6.0625 12.1914H16.0625ZM46.4844 33.2891H56.4844C56.4844 27.7662 52.0072 23.2891 46.4844 23.2891V33.2891ZM46.4844 49.3164V59.3164C52.0072 59.3164 56.4844 54.8393 56.4844 49.3164H46.4844ZM19.9727 49.3164H9.97266C9.97266 54.8393 14.4498 59.3164 19.9727 59.3164V49.3164ZM19.9727 33.2891V23.2891C14.4498 23.2891 9.97266 27.7662 9.97266 33.2891H19.9727ZM26.8047 38.7891V28.7891C21.2818 28.7891 16.8047 33.2662 16.8047 38.7891H26.8047ZM26.8047 43.9883H16.8047C16.8047 49.5111 21.2818 53.9883 26.8047 53.9883V43.9883ZM39.6953 43.9883V53.9883C45.2182 53.9883 49.6953 49.5111 49.6953 43.9883H39.6953ZM39.6953 38.7891H49.6953C49.6953 33.2662 45.2182 28.7891 39.6953 28.7891V38.7891ZM46.4844 10L36.4844 10V18.0781H46.4844H56.4844V10H46.4844ZM46.4844 18.0781V28.0781H51.4258V18.0781V8.07812H46.4844V18.0781ZM51.4258 18.0781H41.4258V23.707H51.4258H61.4258V18.0781H51.4258ZM51.4258 23.707V13.707H46.4844V23.707V33.707H51.4258V23.707ZM46.4844 23.707H36.4844V32H46.4844H56.4844V23.707H46.4844ZM46.4844 32V22H39.5664V32V42H46.4844V32ZM39.5664 32H49.5664V10L39.5664 10H29.5664V32H39.5664ZM39.5664 10V20H46.4844V10V0H39.5664V10ZM35.1836 12.1914H25.1836C25.1836 15.4844 24.2651 17.5114 22.9703 18.9736C21.5452 20.5831 18.9105 22.3373 14.1842 23.5696L16.707 33.2461L19.2298 42.9226C26.5348 41.0181 33.1384 37.6591 37.9437 32.2325C42.8795 26.6585 45.1836 19.7265 45.1836 12.1914H35.1836ZM16.707 33.2461L25.6792 28.8301L22.9721 23.3301L14 27.7461L5.02787 32.1621L7.7349 37.6621L16.707 33.2461ZM14 27.7461L16.2468 37.4904C26.1029 35.2179 35.2075 29.7113 37.3555 19.704L27.5781 17.6055L17.8008 15.5069C17.8962 15.0626 18.0887 15.184 17.3972 15.7229C16.6181 16.3301 14.9225 17.271 11.7532 18.0018L14 27.7461ZM27.5781 17.6055V7.60547H16.0625V17.6055V27.6055H27.5781V17.6055ZM16.0625 17.6055H26.0625V12.1914H16.0625H6.0625L6.0625 17.6055H16.0625ZM16.0625 12.1914V22.1914H35.1836V12.1914V2.19141L16.0625 2.19141V12.1914ZM46.4844 33.2891H36.4844V49.3164H46.4844H56.4844V33.2891H46.4844ZM46.4844 49.3164V39.3164H19.9727V49.3164V59.3164H46.4844V49.3164ZM19.9727 49.3164H29.9727V33.2891H19.9727H9.97266L9.97266 49.3164H19.9727ZM19.9727 33.2891V43.2891H46.4844V33.2891V23.2891H19.9727V33.2891ZM26.8047 38.7891H16.8047V43.9883H26.8047H36.8047V38.7891H26.8047ZM26.8047 43.9883V53.9883H39.6953V43.9883V33.9883H26.8047V43.9883ZM39.6953 43.9883H49.6953V38.7891H39.6953H29.6953V43.9883H39.6953ZM39.6953 38.7891V28.7891H26.8047V38.7891V48.7891H39.6953V38.7891ZM86.5312 10H96.5312C96.5312 4.47715 92.0541 0 86.5312 0V10ZM86.5312 33.5898V43.5898C92.0541 43.5898 96.5312 39.1127 96.5312 33.5898H86.5312ZM79.6562 33.5898H69.6562C69.6562 39.1127 74.1334 43.5898 79.6562 43.5898V33.5898ZM79.6562 24.8242H89.6562C89.6562 19.3014 85.1791 14.8242 79.6562 14.8242V24.8242ZM74.6719 24.8242H64.6719C64.6719 30.3471 69.149 34.8242 74.6719 34.8242V24.8242ZM74.6719 19.2812V9.28125C69.149 9.28125 64.6719 13.7584 64.6719 19.2812H74.6719ZM79.6562 19.2812V29.2812C85.1791 29.2812 89.6562 24.8041 89.6562 19.2812H79.6562ZM79.6562 10V0C74.1334 0 69.6562 4.47715 69.6562 10H79.6562ZM65.7344 42.0547L75.7317 42.2872C75.7352 42.134 75.7353 41.9807 75.7318 41.8275L65.7344 42.0547ZM75.7461 12.1055H85.7461C85.7461 6.58262 81.2689 2.10547 75.7461 2.10547V12.1055ZM75.7461 17.6055V27.6055C81.2689 27.6055 85.7461 23.1283 85.7461 17.6055L75.7461 17.6055ZM68.5703 17.6055V7.60547C65.7404 7.60547 63.0429 8.80453 61.1468 10.9053C59.2507 13.0062 58.3335 15.812 58.6226 18.6271L68.5703 17.6055ZM77.1641 27.4883L85.6783 32.7331C87.286 30.1232 87.6079 26.9202 86.5517 24.0426C85.4955 21.1651 83.1779 18.9308 80.2636 17.9808L77.1641 27.4883ZM73.8555 32.8594L70.9112 42.4161C75.2671 43.7581 79.9792 41.9848 82.3697 38.1041L73.8555 32.8594ZM65.0469 25.7695L73.8326 20.9934C72.0325 17.6822 68.5237 15.6643 64.7565 15.7738C60.9892 15.8832 57.6035 18.1014 55.9987 21.5116L65.0469 25.7695ZM55.7656 33.8477L47.3948 39.3184C49.8631 43.0953 54.555 44.7514 58.8474 43.3609L55.7656 33.8477ZM52.1992 28.3906L49.1632 18.8626C46.1866 19.8111 43.8244 22.0961 42.7775 25.0394C41.7305 27.9828 42.1193 31.2463 43.8284 33.8613L52.1992 28.3906ZM61.3516 17.6055L71.3009 18.6105C71.585 15.7977 70.6653 12.9962 68.7694 10.8991C66.8735 8.80207 64.1786 7.60547 61.3516 7.60547V17.6055ZM54.1328 17.6055H44.1328C44.1328 23.1283 48.61 27.6055 54.1328 27.6055V17.6055ZM54.1328 12.1055V2.10547C48.61 2.10547 44.1328 6.58262 44.1328 12.1055L54.1328 12.1055ZM86.5312 10H76.5312V33.5898H86.5312H96.5312V10H86.5312ZM86.5312 33.5898V23.5898H79.6562V33.5898V43.5898H86.5312V33.5898ZM79.6562 33.5898H89.6562V24.8242H79.6562L69.6562 24.8242V33.5898H79.6562ZM79.6562 24.8242V14.8242L74.6719 14.8242V24.8242V34.8242H79.6562V24.8242ZM74.6719 24.8242L84.6719 24.8242V19.2812L74.6719 19.2812H64.6719V24.8242H74.6719ZM74.6719 19.2812V29.2812H79.6562V19.2812V9.28125H74.6719V19.2812ZM79.6562 19.2812H89.6562V10H79.6562H69.6562V19.2812L79.6562 19.2812ZM79.6562 10V20H86.5312V10V0L79.6562 0V10ZM72.6953 34.2344V44.2344C74.3179 44.2344 75.5871 44.3712 76.5249 44.5616C77.4804 44.7555 77.9278 44.9714 78.0286 45.0275C78.1125 45.0742 77.7112 44.8702 77.2852 44.2182C76.8168 43.5014 76.6172 42.6952 76.6172 42.0547H86.6172H96.6172C96.6172 35.2516 92.6637 30.2863 87.7614 27.5555C83.2919 25.0657 77.8985 24.2344 72.6953 24.2344V34.2344ZM86.6172 42.0547H76.6172C76.6172 41.3866 76.8258 40.5745 77.2904 39.865C77.7121 39.2211 78.1047 39.0231 78.0137 39.074C77.9077 39.1333 77.4576 39.3506 76.5065 39.5455C75.5725 39.737 74.3091 39.875 72.6953 39.875V49.875V59.875C77.9215 59.875 83.3132 59.0256 87.7763 56.5295C92.6448 53.8066 96.6172 48.8554 96.6172 42.0547H86.6172ZM72.6953 49.875V39.875C71.1089 39.875 69.866 39.7379 68.9475 39.5484C68.0122 39.3553 67.5706 39.1406 67.4688 39.0834C67.3816 39.0344 67.7718 39.2329 68.1901 39.8732C68.6511 40.5786 68.8594 41.387 68.8594 42.0547H58.8594H48.8594C48.8594 48.8478 52.8231 53.7955 57.6728 56.5201C62.1248 59.0212 67.4982 59.875 72.6953 59.875V49.875ZM58.8594 42.0547H68.8594C68.8594 42.6948 68.6601 43.4973 68.1954 44.2101C67.7726 44.8584 67.3739 45.063 67.4538 45.0182C67.5504 44.9642 67.9893 44.7509 68.929 44.5588C69.8513 44.3702 71.1 44.2344 72.6953 44.2344V34.2344V24.2344C67.5213 24.2344 62.1463 25.07 57.6878 27.5648C52.8042 30.2974 48.8594 35.2592 48.8594 42.0547H58.8594ZM72.6953 39.4336V29.4336C70.1698 29.4336 66.9196 29.5812 64.0159 30.6347C62.4584 31.1997 60.2819 32.2766 58.4873 34.4095C56.5065 36.7637 55.6758 39.5902 55.737 42.2819L65.7344 42.0547L75.7318 41.8275C75.7715 43.5739 75.2093 45.6 73.7911 47.2856C72.5592 48.7498 71.2393 49.2896 70.8367 49.4356C70.4048 49.5923 70.2823 49.5641 70.7178 49.5155C71.1096 49.4717 71.7444 49.4336 72.6953 49.4336V39.4336ZM65.7344 42.0547L55.7371 41.8222C55.6733 44.5629 56.5407 47.3821 58.5065 49.7045C60.2839 51.8043 62.4313 52.8764 63.9773 53.4445C66.8791 54.5107 70.1232 54.6758 72.6953 54.6758V44.6758V34.6758C71.7609 34.6758 71.1369 34.6362 70.7553 34.5921C70.3319 34.5432 70.4509 34.5158 70.8752 34.6717C71.2665 34.8155 72.5572 35.3478 73.7719 36.7829C75.1752 38.4407 75.7739 40.4703 75.7317 42.2872L65.7344 42.0547ZM72.6953 44.6758V54.6758C75.2958 54.6758 78.5296 54.5082 81.4221 53.4648C82.9575 52.9109 85.0772 51.8732 86.8597 49.8449C88.8326 47.5998 89.7852 44.8269 89.7852 42.0547H79.7852H69.7852C69.7852 40.2063 70.4476 38.2229 71.8364 36.6426C73.0348 35.2789 74.2764 34.781 74.6355 34.6514C75.0295 34.5093 75.1202 34.5405 74.6813 34.5906C74.2821 34.6361 73.6422 34.6758 72.6953 34.6758V44.6758ZM79.7852 42.0547H89.7852C89.7852 39.3294 88.8694 36.547 86.8795 34.2689C85.0791 32.2078 82.9303 31.1656 81.384 30.6148C78.4895 29.5839 75.2498 29.4336 72.6953 29.4336V39.4336V49.4336C73.6585 49.4336 74.3092 49.4718 74.7184 49.5169C75.1692 49.5667 75.0751 49.5985 74.6736 49.4555C74.3036 49.3237 73.033 48.8186 71.8167 47.4262C70.4109 45.8167 69.7852 43.8347 69.7852 42.0547H79.7852ZM75.7461 12.1055H65.7461V17.6055H75.7461L85.7461 17.6055V12.1055H75.7461ZM75.7461 17.6055V7.60547H68.5703V17.6055V27.6055H75.7461V17.6055ZM68.5703 17.6055L58.6226 18.6271C59.4142 26.334 64.2505 33.7964 74.0645 36.9958L77.1641 27.4883L80.2636 17.9808C79.5917 17.7617 79.1969 17.541 78.9868 17.3996C78.7828 17.2624 78.7042 17.1678 78.6814 17.1389C78.6591 17.1105 78.5593 16.9857 78.518 16.5838L68.5703 17.6055ZM77.1641 27.4883L68.6498 22.2435L65.3412 27.6146L73.8555 32.8594L82.3697 38.1041L85.6783 32.7331L77.1641 27.4883ZM73.8555 32.8594L76.7997 23.3026C75.8712 23.0166 75.2906 22.6575 74.9034 22.3354C74.5095 22.0078 74.1524 21.5818 73.8326 20.9934L65.0469 25.7695L56.2612 30.5457C59.1939 35.9405 64.0518 40.3029 70.9112 42.4161L73.8555 32.8594ZM65.0469 25.7695L55.9987 21.5116C55.3954 22.7935 54.496 23.7473 52.6839 24.3344L55.7656 33.8477L58.8474 43.3609C66.1876 40.9831 71.2608 36.0503 74.0951 30.0275L65.0469 25.7695ZM55.7656 33.8477L64.1365 28.3769L60.5701 22.9199L52.1992 28.3906L43.8284 33.8613L47.3948 39.3184L55.7656 33.8477ZM52.1992 28.3906L55.2353 37.9186C65.8918 34.523 70.5289 26.2539 71.3009 18.6105L61.3516 17.6055L51.4022 16.6005C51.3357 17.2589 51.1523 17.6219 51.0071 17.8144C50.9174 17.9335 50.534 18.4258 49.1632 18.8626L52.1992 28.3906ZM61.3516 17.6055V7.60547H54.1328V17.6055V27.6055H61.3516V17.6055ZM54.1328 17.6055H64.1328V12.1055H54.1328L44.1328 12.1055V17.6055H54.1328ZM54.1328 12.1055V22.1055H75.7461V12.1055V2.10547L54.1328 2.10547V12.1055ZM127.051 39.9062H137.051C137.051 34.3834 132.574 29.9062 127.051 29.9062V39.9062ZM127.051 45.4492V55.4492C132.574 55.4492 137.051 50.9721 137.051 45.4492H127.051ZM90.7422 45.4492H80.7422C80.7422 50.9721 85.2193 55.4492 90.7422 55.4492V45.4492ZM90.7422 39.9062V29.9062C85.2193 29.9062 80.7422 34.3834 80.7422 39.9062H90.7422ZM105.395 39.9062V49.9062C110.917 49.9062 115.395 45.4291 115.395 39.9062H105.395ZM105.395 31.6133V21.6133C99.8717 21.6133 95.3945 26.0904 95.3945 31.6133H105.395ZM112.355 31.6133H122.355C122.355 26.0904 117.878 21.6133 112.355 21.6133V31.6133ZM112.355 39.9062H102.355C102.355 45.4291 106.833 49.9062 112.355 49.9062V39.9062ZM123.828 12.6641H133.828C133.828 7.14122 129.351 2.66406 123.828 2.66406V12.6641ZM123.828 18.1641V28.1641C129.351 28.1641 133.828 23.6869 133.828 18.1641H123.828ZM112.613 18.1641V8.16406C109.639 8.16406 106.819 9.48807 104.919 11.7766C103.019 14.065 102.237 17.0805 102.784 20.004L112.613 18.1641ZM125.977 27.875L134.949 32.2901C136.364 29.4144 136.315 26.0347 134.817 23.2013C133.319 20.3679 130.554 18.4241 127.381 17.9741L125.977 27.875ZM123.312 33.2891L121.702 43.1585C126.045 43.8674 130.342 41.6531 132.285 37.7041L123.312 33.2891ZM108.875 24.8672L117.462 19.7416C115.633 16.6787 112.312 14.8216 108.745 14.868C105.178 14.9144 101.906 16.8572 100.158 19.9666L108.875 24.8672ZM94.6523 33.5898L85.666 37.9769C87.6184 41.976 91.9786 44.2038 96.3633 43.4424L94.6523 33.5898ZM91.9883 28.1328L90.4677 18.2491C87.3259 18.7324 84.6011 20.6807 83.1276 23.4973C81.6541 26.3139 81.6074 29.6633 83.002 32.5198L91.9883 28.1328ZM105.008 18.1641L114.849 19.9402C115.375 17.0244 114.581 14.0253 112.681 11.7516C110.781 9.47803 107.971 8.16406 105.008 8.16406V18.1641ZM93.793 18.1641H83.793C83.793 23.6869 88.2701 28.1641 93.793 28.1641V18.1641ZM93.793 12.6641V2.66406C88.2701 2.66406 83.793 7.14122 83.793 12.6641H93.793ZM127.051 39.9062H117.051V45.4492H127.051H137.051V39.9062H127.051ZM127.051 45.4492V35.4492H90.7422V45.4492V55.4492H127.051V45.4492ZM90.7422 45.4492H100.742V39.9062H90.7422H80.7422V45.4492H90.7422ZM90.7422 39.9062V49.9062H105.395V39.9062V29.9062H90.7422V39.9062ZM105.395 39.9062H115.395V31.6133H105.395H95.3945V39.9062H105.395ZM105.395 31.6133V41.6133H112.355V31.6133V21.6133H105.395V31.6133ZM112.355 31.6133H102.355V39.9062H112.355H122.355V31.6133H112.355ZM112.355 39.9062V49.9062H127.051V39.9062V29.9062H112.355V39.9062ZM123.828 12.6641H113.828V18.1641H123.828H133.828V12.6641H123.828ZM123.828 18.1641V8.16406H112.613V18.1641V28.1641H123.828V18.1641ZM112.613 18.1641L102.784 20.004C103.606 24.394 105.891 28.6474 109.943 31.9402C113.861 35.1241 118.873 36.9676 124.572 37.7759L125.977 27.875L127.381 17.9741C124.143 17.5149 122.882 16.6836 122.556 16.4191C122.403 16.2947 122.395 16.2499 122.426 16.3026C122.452 16.3486 122.451 16.3712 122.443 16.3241L112.613 18.1641ZM125.977 27.875L117.004 23.4599L114.34 28.874L123.312 33.2891L132.285 37.7041L134.949 32.2901L125.977 27.875ZM123.312 33.2891L124.923 23.4196C119.707 22.5683 118.056 20.7378 117.462 19.7416L108.875 24.8672L100.288 29.9928C104.721 37.4184 112.438 41.6466 121.702 43.1585L123.312 33.2891ZM108.875 24.8672L100.158 19.9666C99.5629 21.0253 97.9651 22.8649 92.9414 23.7373L94.6523 33.5898L96.3633 43.4424C105.691 41.8226 113.332 37.3458 117.592 29.7677L108.875 24.8672ZM94.6523 33.5898L103.639 29.2028L100.975 23.7458L91.9883 28.1328L83.002 32.5198L85.666 37.9769L94.6523 33.5898ZM91.9883 28.1328L93.5089 38.0165C99.1712 37.1454 104.116 35.1796 107.951 31.8966C111.875 28.5363 114.067 24.273 114.849 19.9402L105.008 18.1641L95.1668 16.3879C95.1539 16.4594 95.1649 16.5145 94.9429 16.7045C94.6308 16.9717 93.4635 17.7882 90.4677 18.2491L91.9883 28.1328ZM105.008 18.1641V8.16406H93.793V18.1641V28.1641H105.008V18.1641ZM93.793 18.1641H103.793V12.6641H93.793H83.793V18.1641H93.793ZM93.793 12.6641V22.6641H123.828V12.6641V2.66406H93.793V12.6641ZM151.5 11.2031H161.5C161.5 5.68028 157.023 1.20312 151.5 1.20312V11.2031ZM151.5 16.6172V26.6172C157.023 26.6172 161.5 22.14 161.5 16.6172H151.5ZM144.324 16.6172V6.61719C141.471 6.61719 138.754 7.83584 136.856 9.96645C134.959 12.0971 134.062 14.9367 134.391 17.7707L144.324 16.6172ZM152.875 24.9961L161.528 30.0092C163.086 27.3189 163.305 24.0566 162.119 21.1824C160.933 18.3081 158.478 16.149 155.476 15.3403L152.875 24.9961ZM149.738 30.4102L147.156 40.0709C151.521 41.2378 156.126 39.3328 158.391 35.4232L149.738 30.4102ZM140.801 23.9648L149.436 18.9222C147.629 15.8269 144.303 13.9357 140.719 13.9652C137.134 13.9947 133.84 15.9403 132.084 19.0649L140.801 23.9648ZM131.434 31.1836L122.969 36.5081C125.319 40.2444 129.841 41.9978 134.096 40.8227L131.434 31.1836ZM128.082 25.8555L125.124 16.3028C122.156 17.222 119.783 19.4694 118.704 22.384C117.625 25.2986 117.963 28.5492 119.617 31.18L128.082 25.8555ZM137.191 16.6172L147.093 18.0144C147.498 15.1469 146.64 12.2448 144.74 10.0587C142.841 7.87258 140.087 6.61719 137.191 6.61719V16.6172ZM129.844 16.6172H119.844C119.844 22.14 124.321 26.6172 129.844 26.6172V16.6172ZM129.844 11.2031V1.20312C124.321 1.20312 119.844 5.68028 119.844 11.2031H129.844ZM162.586 10H172.586C172.586 4.47715 168.109 0 162.586 0V10ZM162.586 30.0664V40.0664C168.109 40.0664 172.586 35.5893 172.586 30.0664H162.586ZM155.711 30.0664H145.711C145.711 35.5893 150.188 40.0664 155.711 40.0664V30.0664ZM155.711 23.1055H165.711C165.711 17.5826 161.234 13.1055 155.711 13.1055V23.1055ZM150.641 23.1055H140.641C140.641 28.6283 145.118 33.1055 150.641 33.1055V23.1055ZM150.641 17.7344V7.73437C145.118 7.73437 140.641 12.2115 140.641 17.7344H150.641ZM155.711 17.7344V27.7344C161.234 27.7344 165.711 23.2572 165.711 17.7344H155.711ZM155.711 10V0C150.188 0 145.711 4.47715 145.711 10H155.711ZM162.586 31.3125H172.586C172.586 25.7897 168.109 21.3125 162.586 21.3125V31.3125ZM162.586 42.8281V52.8281C168.109 52.8281 172.586 48.351 172.586 42.8281H162.586ZM142.691 42.8281V32.8281C137.169 32.8281 132.691 37.3053 132.691 42.8281L142.691 42.8281ZM142.691 44.1172L132.691 44.1172C132.691 49.64 137.169 54.1172 142.691 54.1172V44.1172ZM163.531 44.1172H173.531C173.531 38.5943 169.054 34.1172 163.531 34.1172V44.1172ZM163.531 49.4023V59.4023C169.054 59.4023 173.531 54.9252 173.531 49.4023H163.531ZM135.73 49.4023H125.73C125.73 54.9252 130.208 59.4023 135.73 59.4023V49.4023ZM135.73 37.8867V27.8867C130.208 27.8867 125.73 32.3639 125.73 37.8867H135.73ZM155.711 37.8867V47.8867C161.234 47.8867 165.711 43.4096 165.711 37.8867H155.711ZM155.711 36.6836H165.711C165.711 31.1607 161.234 26.6836 155.711 26.6836V36.6836ZM135.73 36.6836H125.73C125.73 42.2064 130.208 46.6836 135.73 46.6836V36.6836ZM135.73 31.3125V21.3125C130.208 21.3125 125.73 25.7897 125.73 31.3125H135.73ZM151.5 11.2031H141.5V16.6172H151.5H161.5V11.2031H151.5ZM151.5 16.6172V6.61719H144.324V16.6172V26.6172H151.5V16.6172ZM144.324 16.6172L134.391 17.7707C135.307 25.6581 140.995 32.1524 150.274 34.6519L152.875 24.9961L155.476 15.3403C154.048 14.9555 153.783 14.5465 153.926 14.7028C153.983 14.7642 154.067 14.8796 154.139 15.0413C154.208 15.1966 154.244 15.3435 154.257 15.4636L144.324 16.6172ZM152.875 24.9961L144.222 19.983L141.086 25.3971L149.738 30.4102L158.391 35.4232L161.528 30.0092L152.875 24.9961ZM149.738 30.4102L152.321 20.7494C151.254 20.4642 150.622 20.1058 150.254 19.8318C149.892 19.5625 149.638 19.2673 149.436 18.9222L140.801 23.9648L132.165 29.0075C135.302 34.3793 140.443 38.2763 147.156 40.0709L149.738 30.4102ZM140.801 23.9648L132.084 19.0649C131.732 19.6911 131.326 20.1655 130.868 20.5322C130.419 20.8912 129.77 21.2688 128.771 21.5445L131.434 31.1836L134.096 40.8227C141.326 38.8258 146.442 34.337 149.518 28.8647L140.801 23.9648ZM131.434 31.1836L139.898 25.8591L136.547 20.531L128.082 25.8555L119.617 31.18L122.969 36.5081L131.434 31.1836ZM128.082 25.8555L131.04 35.4081C140.423 32.5028 146.009 25.7015 147.093 18.0144L137.191 16.6172L127.289 15.22C127.31 15.0745 127.36 15.072 127.252 15.1929C127.153 15.3037 126.637 15.8346 125.124 16.3028L128.082 25.8555ZM137.191 16.6172V6.61719H129.844V16.6172V26.6172H137.191V16.6172ZM129.844 16.6172H139.844V11.2031H129.844H119.844V16.6172H129.844ZM129.844 11.2031V21.2031H151.5V11.2031V1.20312H129.844V11.2031ZM162.586 10H152.586V30.0664H162.586H172.586V10H162.586ZM162.586 30.0664V20.0664H155.711V30.0664V40.0664H162.586V30.0664ZM155.711 30.0664H165.711V23.1055H155.711H145.711V30.0664H155.711ZM155.711 23.1055V13.1055H150.641V23.1055V33.1055H155.711V23.1055ZM150.641 23.1055H160.641V17.7344H150.641H140.641V23.1055H150.641ZM150.641 17.7344V27.7344H155.711V17.7344V7.73437H150.641V17.7344ZM155.711 17.7344H165.711V10H155.711H145.711V17.7344H155.711ZM155.711 10V20H162.586V10V0H155.711V10ZM162.586 31.3125H152.586V42.8281H162.586H172.586V31.3125H162.586ZM162.586 42.8281V32.8281H142.691V42.8281V52.8281H162.586V42.8281ZM142.691 42.8281L132.691 42.8281V44.1172L142.691 44.1172H152.691V42.8281H142.691ZM142.691 44.1172V54.1172H163.531V44.1172V34.1172H142.691V44.1172ZM163.531 44.1172H153.531V49.4023H163.531H173.531V44.1172H163.531ZM163.531 49.4023V39.4023L135.73 39.4023V49.4023V59.4023L163.531 59.4023V49.4023ZM135.73 49.4023L145.73 49.4023V37.8867L135.73 37.8867H125.73V49.4023H135.73ZM135.73 37.8867V47.8867L155.711 47.8867V37.8867V27.8867H135.73V37.8867ZM155.711 37.8867H165.711V36.6836H155.711H145.711V37.8867H155.711ZM155.711 36.6836V26.6836H135.73V36.6836V46.6836L155.711 46.6836V36.6836ZM135.73 36.6836L145.73 36.6836V31.3125L135.73 31.3125H125.73V36.6836H135.73ZM135.73 31.3125V41.3125L162.586 41.3125V31.3125V21.3125H135.73V31.3125ZM199.625 17.2187L209.625 17.3168C209.625 17.2511 209.625 17.1854 209.625 17.1197L199.625 17.2187ZM170.191 17.2187L180.191 17.3168C180.192 17.2511 180.192 17.1854 180.191 17.1197L170.191 17.2187ZM184.93 18.9805L184.85 28.9801C184.903 28.9806 184.956 28.9806 185.009 28.9802L184.93 18.9805ZM203.062 25.2969L213.062 25.2969C213.062 19.774 208.585 15.2969 203.062 15.2969V25.2969ZM203.062 30.7539V40.7539C208.585 40.7539 213.062 36.2768 213.062 30.7539H203.062ZM166.797 30.7539H156.797C156.797 36.2768 161.274 40.7539 166.797 40.7539V30.7539ZM166.797 25.2969V15.2969C161.274 15.2969 156.797 19.774 156.797 25.2969H166.797ZM198.766 32.2578H208.766C208.766 26.735 204.288 22.2578 198.766 22.2578V32.2578ZM198.766 43.2148V53.2148C204.288 53.2148 208.766 48.7377 208.766 43.2148H198.766ZM177.582 43.2148V33.2148C172.059 33.2148 167.582 37.692 167.582 43.2148H177.582ZM177.582 44.5039H167.582C167.582 50.0268 172.059 54.5039 177.582 54.5039V44.5039ZM199.711 44.5039H209.711C209.711 38.9811 205.234 34.5039 199.711 34.5039V44.5039ZM199.711 49.5742V59.5742C205.234 59.5742 209.711 55.0971 209.711 49.5742H199.711ZM170.836 49.5742H160.836C160.836 55.0971 165.313 59.5742 170.836 59.5742V49.5742ZM170.836 38.4883V28.4883C165.313 28.4883 160.836 32.9654 160.836 38.4883H170.836ZM191.977 38.4883V48.4883C197.499 48.4883 201.977 44.0111 201.977 38.4883H191.977ZM191.977 37.2852H201.977C201.977 31.7623 197.499 27.2852 191.977 27.2852V37.2852ZM170.879 37.2852H160.879C160.879 42.808 165.356 47.2852 170.879 47.2852V37.2852ZM170.879 32.2578V22.2578C165.356 22.2578 160.879 26.735 160.879 32.2578H170.879ZM184.93 10.5156V20.5156C186.858 20.5156 188.397 20.6392 189.576 20.8275C190.781 21.02 191.411 21.249 191.633 21.3494C191.863 21.4538 191.355 21.2804 190.748 20.505C190.04 19.6003 189.636 18.4288 189.625 17.3178L199.625 17.2187L209.625 17.1197C209.552 9.78613 204.602 5.26676 199.883 3.13007C195.495 1.14355 190.183 0.515625 184.93 0.515625V10.5156ZM199.625 17.2187L189.625 17.1207C189.636 16.0441 190.024 14.8886 190.726 13.985C191.33 13.2084 191.84 13.0316 191.617 13.133C191.4 13.2315 190.775 13.4603 189.572 13.6529C188.396 13.8412 186.859 13.9648 184.93 13.9648V23.9648V33.9648C190.18 33.9648 195.502 33.3378 199.899 31.3377C204.653 29.1749 209.553 24.6299 209.625 17.3168L199.625 17.2187ZM184.93 23.9648V13.9648C182.988 13.9648 181.433 13.841 180.239 13.6512C179.017 13.4568 178.377 13.2253 178.151 13.1231C177.913 13.0155 178.444 13.1961 179.07 14.0048C179.804 14.9544 180.202 16.1768 180.191 17.3168L170.191 17.2187L160.192 17.1207C160.118 24.6082 165.175 29.2059 169.913 31.3476C174.318 33.3391 179.664 33.9648 184.93 33.9648V23.9648ZM170.191 17.2187L180.191 17.1197C180.203 18.2952 179.789 19.5344 179.048 20.4852C178.419 21.2927 177.889 21.4698 178.135 21.3593C178.366 21.2552 179.011 21.0234 180.236 20.8292C181.432 20.6394 182.989 20.5156 184.93 20.5156V10.5156V0.515625C179.661 0.515625 174.325 1.14229 169.929 3.12017C165.227 5.23532 160.118 9.80756 160.192 17.3178L170.191 17.2187ZM184.93 15.5V5.5C182.181 5.5 179.311 5.60872 176.904 6.16502C175.748 6.43215 173.705 7.01263 171.767 8.49003C169.393 10.3003 167.41 13.3361 167.41 17.2187H177.41H187.41C187.41 18.6243 187.079 20.1198 186.328 21.5217C185.6 22.8801 184.664 23.807 183.892 24.3952C183.146 24.9644 182.487 25.2695 182.118 25.4187C181.736 25.5729 181.474 25.636 181.408 25.6514C181.303 25.6754 181.503 25.623 182.189 25.5748C182.836 25.5294 183.729 25.5 184.93 25.5V15.5ZM177.41 17.2187H167.41C167.41 20.5239 168.848 23.706 171.549 25.8861C173.672 27.5992 175.956 28.1787 177.111 28.4201C179.466 28.9121 182.374 28.9603 184.85 28.9801L184.93 18.9805L185.01 8.98079C183.714 8.97042 182.76 8.94762 182.042 8.90785C181.274 8.86526 181.08 8.81754 181.201 8.84263C181.282 8.85961 181.6 8.92924 182.053 9.10871C182.501 9.2859 183.27 9.64408 184.11 10.3225C184.998 11.0393 185.909 12.0705 186.559 13.4499C187.205 14.8216 187.41 16.1475 187.41 17.2187H177.41ZM184.93 18.9805L185.009 28.9802C187.505 28.9603 190.421 28.912 192.777 28.4219C193.932 28.1817 196.218 27.6047 198.343 25.8933C201.052 23.7125 202.492 20.5264 202.492 17.2187H192.492H182.492C182.492 16.1476 182.697 14.8198 183.345 13.4457C183.997 12.0637 184.911 11.0318 185.8 10.3153C186.642 9.63745 187.411 9.28046 187.857 9.10441C188.31 8.92603 188.626 8.85723 188.705 8.84082C188.821 8.81682 188.621 8.86492 187.845 8.90766C187.12 8.94759 186.157 8.97041 184.85 8.98078L184.93 18.9805ZM192.492 17.2187H202.492C202.492 13.3329 200.506 10.294 198.126 8.48317C196.185 7.00718 194.139 6.42878 192.984 6.16284C190.575 5.60863 187.697 5.5 184.93 5.5V15.5V25.5C186.143 25.5 187.045 25.5295 187.7 25.5751C188.394 25.6235 188.599 25.6765 188.499 25.6536C188.435 25.6388 188.174 25.5764 187.794 25.4232C187.425 25.2749 186.766 24.9708 186.018 24.4021C185.245 23.8142 184.307 22.8868 183.577 21.5261C182.824 20.1218 182.492 18.6244 182.492 17.2187H192.492ZM203.062 25.2969H193.062V30.7539H203.062H213.062V25.2969L203.062 25.2969ZM203.062 30.7539V20.7539H166.797V30.7539V40.7539H203.062V30.7539ZM166.797 30.7539H176.797V25.2969H166.797H156.797V30.7539H166.797ZM166.797 25.2969V35.2969H203.062V25.2969V15.2969H166.797V25.2969ZM198.766 32.2578H188.766V43.2148H198.766H208.766V32.2578H198.766ZM198.766 43.2148V33.2148H177.582V43.2148V53.2148H198.766V43.2148ZM177.582 43.2148H167.582V44.5039H177.582H187.582V43.2148H177.582ZM177.582 44.5039V54.5039H199.711V44.5039V34.5039H177.582V44.5039ZM199.711 44.5039H189.711V49.5742H199.711H209.711V44.5039H199.711ZM199.711 49.5742V39.5742H170.836V49.5742V59.5742H199.711V49.5742ZM170.836 49.5742H180.836V38.4883H170.836H160.836V49.5742H170.836ZM170.836 38.4883V48.4883H191.977V38.4883V28.4883H170.836V38.4883ZM191.977 38.4883H201.977V37.2852H191.977H181.977V38.4883H191.977ZM191.977 37.2852V27.2852H170.879V37.2852V47.2852H191.977V37.2852ZM170.879 37.2852H180.879V32.2578H170.879H160.879V37.2852H170.879ZM170.879 32.2578V42.2578H198.766V32.2578V22.2578H170.879V32.2578ZM237.008 11.6328L247.008 11.6328C247.008 6.10997 242.531 1.63281 237.008 1.63281V11.6328ZM237.008 16.9609V26.9609C242.531 26.9609 247.008 22.4838 247.008 16.9609H237.008ZM229.918 16.9609V6.96094C226.911 6.96094 224.063 8.31419 222.164 10.6458C220.265 12.9775 219.516 16.0399 220.125 18.9848L229.918 16.9609ZM238.641 24.8672L247.209 30.0224C248.826 27.3356 249.088 24.0461 247.919 21.1369C246.749 18.2276 244.283 16.0354 241.256 15.2153L238.641 24.8672ZM235.461 30.1523L232.991 39.8425C237.268 40.9328 241.754 39.0898 244.03 35.3075L235.461 30.1523ZM226.352 23.6211L234.996 18.5938C233.162 15.4406 229.757 13.5361 226.111 13.624C222.464 13.7119 219.155 15.7784 217.475 19.0163L226.352 23.6211ZM216.77 30.9687L208.286 36.2626C210.596 39.9652 215.041 41.7418 219.267 40.6519L216.77 30.9687ZM213.418 25.5977L210.804 15.9452C207.75 16.7723 205.267 18.9964 204.11 21.9419C202.953 24.8875 203.259 28.2068 204.934 30.8915L213.418 25.5977ZM222.527 16.9609L232.353 18.8183C232.906 15.8927 232.127 12.8728 230.227 10.5802C228.327 8.28769 225.505 6.96094 222.527 6.96094V16.9609ZM215.223 16.9609L205.223 16.9609C205.223 22.4838 209.7 26.9609 215.223 26.9609V16.9609ZM215.223 11.6328V1.63281C209.7 1.63281 205.223 6.10997 205.223 11.6328H215.223ZM246.203 10H256.203C256.203 4.47715 251.726 0 246.203 0V10ZM246.203 17.3477H236.203C236.203 22.8705 240.68 27.3477 246.203 27.3477V17.3477ZM251.145 17.3477H261.145C261.145 11.8248 256.667 7.34766 251.145 7.34766V17.3477ZM251.145 22.8477V32.8477C256.667 32.8477 261.145 28.3705 261.145 22.8477H251.145ZM246.203 22.8477V12.8477C240.68 12.8477 236.203 17.3248 236.203 22.8477H246.203ZM246.203 30.3242V40.3242C251.726 40.3242 256.203 35.8471 256.203 30.3242H246.203ZM239.285 30.3242H229.285C229.285 35.8471 233.762 40.3242 239.285 40.3242V30.3242ZM239.285 10V0C233.762 0 229.285 4.47715 229.285 10L239.285 10ZM246.203 31.6562H256.203C256.203 26.1334 251.726 21.6562 246.203 21.6562V31.6562ZM246.203 42.7852V52.7852C251.726 52.7852 256.203 48.308 256.203 42.7852H246.203ZM226.051 42.7852V32.7852C220.528 32.7852 216.051 37.2623 216.051 42.7852H226.051ZM226.051 44.2031H216.051C216.051 49.726 220.528 54.2031 226.051 54.2031V44.2031ZM247.148 44.2031H257.148C257.148 38.6803 252.671 34.2031 247.148 34.2031V44.2031ZM247.148 49.3594V59.3594C252.671 59.3594 257.148 54.8822 257.148 49.3594H247.148ZM219.219 49.3594H209.219C209.219 54.8822 213.696 59.3594 219.219 59.3594V49.3594ZM219.219 38.0156V28.0156C213.696 28.0156 209.219 32.4928 209.219 38.0156H219.219ZM239.328 38.0156V48.0156C244.851 48.0156 249.328 43.5385 249.328 38.0156H239.328ZM239.328 36.7695H249.328C249.328 31.2467 244.851 26.7695 239.328 26.7695V36.7695ZM219.219 36.7695H209.219C209.219 42.2924 213.696 46.7695 219.219 46.7695V36.7695ZM219.219 31.6562V21.6562C213.696 21.6562 209.219 26.1334 209.219 31.6562H219.219ZM237.008 11.6328H227.008V16.9609H237.008H247.008V11.6328L237.008 11.6328ZM237.008 16.9609V6.96094H229.918V16.9609V26.9609H237.008V16.9609ZM229.918 16.9609L220.125 18.9848C221.66 26.4107 227.289 32.1517 236.025 34.5191L238.641 24.8672L241.256 15.2153C239.777 14.8145 239.4 14.3904 239.462 14.4522C239.483 14.4732 239.546 14.5449 239.609 14.6632C239.669 14.7766 239.698 14.8759 239.711 14.937L229.918 16.9609ZM238.641 24.8672L230.072 19.712L226.892 24.9971L235.461 30.1523L244.03 35.3075L247.209 30.0224L238.641 24.8672ZM235.461 30.1523L237.931 20.4622C236.883 20.1949 236.246 19.8419 235.864 19.5593C235.485 19.2799 235.212 18.9648 234.996 18.5938L226.352 23.6211L217.707 28.6484C220.895 34.1302 226.16 38.1014 232.991 39.8425L235.461 30.1523ZM226.352 23.6211L217.475 19.0163C217.179 19.5866 216.842 19.9848 216.453 20.294C216.064 20.603 215.409 20.9923 214.272 21.2856L216.77 30.9687L219.267 40.6519C226.75 38.7218 232.129 34.2003 235.228 28.2259L226.352 23.6211ZM216.77 30.9687L225.253 25.6749L221.902 20.3038L213.418 25.5977L204.934 30.8915L208.286 36.2626L216.77 30.9687ZM213.418 25.5977L216.031 35.2501C225.433 32.7046 230.929 26.3544 232.353 18.8183L222.527 16.9609L212.701 15.1036C212.69 15.1614 212.683 15.1643 212.698 15.1336C212.716 15.0964 212.735 15.0768 212.725 15.087C212.715 15.0981 212.615 15.2018 212.344 15.3548C212.066 15.5115 211.581 15.735 210.804 15.9452L213.418 25.5977ZM222.527 16.9609V6.96094H215.223V16.9609V26.9609H222.527V16.9609ZM215.223 16.9609H225.223V11.6328H215.223H205.223V16.9609L215.223 16.9609ZM215.223 11.6328V21.6328H237.008V11.6328V1.63281L215.223 1.63281V11.6328ZM246.203 10L236.203 10V17.3477H246.203H256.203V10H246.203ZM246.203 17.3477V27.3477H251.145V17.3477V7.34766H246.203V17.3477ZM251.145 17.3477H241.145V22.8477H251.145H261.145V17.3477H251.145ZM251.145 22.8477V12.8477H246.203V22.8477V32.8477H251.145V22.8477ZM246.203 22.8477H236.203V30.3242H246.203H256.203V22.8477H246.203ZM246.203 30.3242V20.3242H239.285V30.3242V40.3242H246.203V30.3242ZM239.285 30.3242H249.285V10H239.285L229.285 10V30.3242H239.285ZM239.285 10V20H246.203V10V0L239.285 0V10ZM246.203 31.6562H236.203V42.7852H246.203H256.203V31.6562H246.203ZM246.203 42.7852V32.7852H226.051V42.7852V52.7852H246.203V42.7852ZM226.051 42.7852H216.051V44.2031H226.051H236.051V42.7852H226.051ZM226.051 44.2031V54.2031H247.148V44.2031V34.2031H226.051V44.2031ZM247.148 44.2031H237.148V49.3594H247.148H257.148V44.2031H247.148ZM247.148 49.3594V39.3594H219.219V49.3594V59.3594H247.148V49.3594ZM219.219 49.3594H229.219V38.0156H219.219H209.219V49.3594H219.219ZM219.219 38.0156V48.0156H239.328V38.0156V28.0156H219.219V38.0156ZM239.328 38.0156H249.328V36.7695H239.328H229.328V38.0156H239.328ZM239.328 36.7695V26.7695H219.219V36.7695V46.7695H239.328V36.7695ZM219.219 36.7695H229.219V31.6562H219.219H209.219V36.7695H219.219ZM219.219 31.6562V41.6562H246.203V31.6562V21.6562H219.219V31.6562ZM284.145 10H294.145C294.145 4.47715 289.667 0 284.145 0V10ZM284.145 25.082H274.145C274.145 30.6049 278.622 35.082 284.145 35.082V25.082ZM289.516 25.082H299.516C299.516 19.5592 295.038 15.082 289.516 15.082V25.082ZM289.516 30.7109V40.7109C295.038 40.7109 299.516 36.2338 299.516 30.7109H289.516ZM284.145 30.7109V20.7109C278.622 20.7109 274.145 25.1881 274.145 30.7109H284.145ZM284.145 49.7461V59.7461C289.667 59.7461 294.145 55.2689 294.145 49.7461H284.145ZM277.312 49.7461H267.312C267.312 55.2689 271.79 59.7461 277.312 59.7461V49.7461ZM277.312 10V0C271.79 0 267.312 4.47715 267.312 10H277.312ZM275.379 15.6719H285.379C285.379 10.149 280.902 5.67187 275.379 5.67187V15.6719ZM275.379 21.1289V31.1289C280.902 31.1289 285.379 26.6518 285.379 21.1289H275.379ZM252.219 21.1289H242.219C242.219 26.6518 246.696 31.1289 252.219 31.1289V21.1289ZM252.219 15.6719V5.67187C246.696 5.67187 242.219 10.149 242.219 15.6719H252.219ZM260.426 15.6719V25.6719C265.949 25.6719 270.426 21.1947 270.426 15.6719H260.426ZM260.426 10.7305V0.730469C254.903 0.730469 250.426 5.20762 250.426 10.7305H260.426ZM267.301 10.7305H277.301C277.301 5.20762 272.824 0.730469 267.301 0.730469V10.7305ZM267.301 15.6719H257.301C257.301 21.1947 261.778 25.6719 267.301 25.6719V15.6719ZM260.039 32.3437L270.038 32.4976C270.039 32.3926 270.039 32.2875 270.038 32.1825L260.039 32.3437ZM284.145 10H274.145V25.082H284.145H294.145V10H284.145ZM284.145 25.082V35.082H289.516V25.082V15.082H284.145V25.082ZM289.516 25.082H279.516V30.7109H289.516H299.516V25.082H289.516ZM289.516 30.7109V20.7109H284.145V30.7109V40.7109H289.516V30.7109ZM284.145 30.7109H274.145V49.7461H284.145H294.145V30.7109H284.145ZM284.145 49.7461V39.7461H277.312V49.7461V59.7461H284.145V49.7461ZM277.312 49.7461H287.312V10H277.312H267.312V49.7461H277.312ZM277.312 10V20H284.145V10V0L277.312 0V10ZM275.379 15.6719H265.379V21.1289H275.379H285.379V15.6719H275.379ZM275.379 21.1289V11.1289H252.219V21.1289V31.1289H275.379V21.1289ZM252.219 21.1289H262.219V15.6719H252.219H242.219V21.1289H252.219ZM252.219 15.6719V25.6719H260.426V15.6719V5.67187H252.219V15.6719ZM260.426 15.6719H270.426V10.7305H260.426H250.426V15.6719H260.426ZM260.426 10.7305V20.7305H267.301V10.7305V0.730469H260.426V10.7305ZM267.301 10.7305H257.301V15.6719H267.301H277.301V10.7305H267.301ZM267.301 15.6719V25.6719H275.379V15.6719V5.67187H267.301V15.6719ZM263.863 22.6758V32.6758C264.19 32.6758 264.388 32.7311 264.476 32.7641C264.565 32.7974 264.559 32.8128 264.502 32.7608C264.442 32.7055 264.367 32.6106 264.312 32.4862C264.255 32.3569 264.262 32.29 264.262 32.3437H274.262H284.262C284.262 20.4166 274.464 12.6758 263.863 12.6758V22.6758ZM274.262 32.3437H264.262C264.262 32.4188 264.251 32.3657 264.304 32.2435C264.356 32.1256 264.429 32.0317 264.491 31.9749C264.549 31.9214 264.558 31.9351 264.472 31.9673C264.386 31.9994 264.19 32.0547 263.863 32.0547V42.0547V52.0547C274.495 52.0547 284.262 44.2857 284.262 32.3437H274.262ZM263.863 42.0547V32.0547C263.48 32.0547 263.258 31.9911 263.169 31.9582C263.081 31.9257 263.103 31.9166 263.177 31.9846C263.254 32.056 263.333 32.1625 263.385 32.2831C263.438 32.4057 263.422 32.4461 263.422 32.3437H253.422H243.422C243.422 44.2597 253.075 52.0547 263.863 52.0547V42.0547ZM253.422 32.3437H263.422C263.422 32.2625 263.434 32.3167 263.378 32.4465C263.322 32.5737 263.241 32.6813 263.165 32.751C263.093 32.8175 263.074 32.8068 263.165 32.7732C263.256 32.7394 263.48 32.6758 263.863 32.6758V22.6758V12.6758C253.105 12.6758 243.422 20.4426 243.422 32.3437H253.422ZM263.863 28.2187V18.2187C260.55 18.2187 256.828 19.3418 253.944 22.2942C251.04 25.2668 249.985 29.0654 250.04 32.505L260.039 32.3437L270.038 32.1825C270.05 32.958 269.79 34.6941 268.25 36.2703C266.73 37.8262 264.943 38.2187 263.863 38.2187V28.2187ZM260.039 32.3437L250.04 32.1899C249.988 35.5736 250.977 39.4751 254.026 42.5247C257.028 45.5265 260.796 46.4687 263.863 46.4687V36.4687V26.4687C264.696 26.4687 266.531 26.745 268.168 28.3825C269.854 30.0678 270.047 31.9069 270.038 32.4976L260.039 32.3437ZM263.863 36.4687V46.4687C266.977 46.4687 270.733 45.4854 273.703 42.4683C276.675 39.448 277.645 35.6263 277.645 32.3437H267.645H257.645C257.645 31.8542 257.819 30.095 259.449 28.4389C261.075 26.7861 262.941 26.4687 263.863 26.4687V36.4687ZM267.645 32.3437H277.645C277.645 29.0131 276.615 25.2955 273.784 22.3511C270.935 19.3886 267.227 18.2187 263.863 18.2187V28.2187V38.2187C262.691 38.2187 260.873 37.7793 259.367 36.2133C257.879 34.6654 257.645 33.0104 257.645 32.3437H267.645ZM322.816 20.0977H332.816C332.816 14.5748 328.339 10.0977 322.816 10.0977V20.0977ZM322.816 25.4258V35.4258C328.339 35.4258 332.816 30.9486 332.816 25.4258H322.816ZM294.715 25.4258H284.715C284.715 30.9486 289.192 35.4258 294.715 35.4258V25.4258ZM294.715 11.418V1.41797C289.192 1.41797 284.715 5.89512 284.715 11.418H294.715ZM301.59 11.418L311.59 11.418C311.59 5.89512 307.113 1.41797 301.59 1.41797V11.418ZM301.59 20.0977H291.59C291.59 25.6205 296.067 30.0977 301.59 30.0977V20.0977ZM326.727 28.9492H336.727C336.727 23.4264 332.249 18.9492 326.727 18.9492V28.9492ZM326.727 34.2773V44.2773C332.249 44.2773 336.727 39.8002 336.727 34.2773H326.727ZM290.461 34.2773H280.461C280.461 39.8002 284.938 44.2773 290.461 44.2773V34.2773ZM290.461 28.9492V18.9492C284.938 18.9492 280.461 23.4264 280.461 28.9492H290.461ZM323.074 43.4727H333.074C333.074 37.9498 328.597 33.4727 323.074 33.4727V43.4727ZM323.074 48.9727V58.9727C328.597 58.9727 333.074 54.4955 333.074 48.9727H323.074ZM294.242 48.9727H284.242C284.242 54.4955 288.719 58.9727 294.242 58.9727V48.9727ZM294.242 37.0273V27.0273C288.719 27.0273 284.242 31.5045 284.242 37.0273H294.242ZM301.203 37.0273H311.203C311.203 31.5045 306.726 27.0273 301.203 27.0273V37.0273ZM301.203 43.4727H291.203C291.203 48.9955 295.68 53.4727 301.203 53.4727V43.4727ZM322.816 20.0977H312.816V25.4258H322.816H332.816V20.0977H322.816ZM322.816 25.4258V15.4258H294.715V25.4258V35.4258H322.816V25.4258ZM294.715 25.4258H304.715V11.418L294.715 11.418H284.715V25.4258H294.715ZM294.715 11.418V21.418H301.59V11.418V1.41797H294.715V11.418ZM301.59 11.418H291.59V20.0977H301.59H311.59V11.418L301.59 11.418ZM301.59 20.0977V30.0977H322.816V20.0977V10.0977L301.59 10.0977V20.0977ZM326.727 28.9492H316.727V34.2773H326.727H336.727V28.9492H326.727ZM326.727 34.2773V24.2773H290.461V34.2773V44.2773H326.727V34.2773ZM290.461 34.2773H300.461V28.9492H290.461H280.461V34.2773H290.461ZM290.461 28.9492V38.9492H326.727V28.9492V18.9492H290.461V28.9492ZM323.074 43.4727H313.074V48.9727H323.074H333.074V43.4727H323.074ZM323.074 48.9727V38.9727H294.242V48.9727V58.9727H323.074V48.9727ZM294.242 48.9727H304.242V37.0273H294.242H284.242V48.9727H294.242ZM294.242 37.0273V47.0273H301.203V37.0273V27.0273H294.242V37.0273ZM301.203 37.0273H291.203V43.4727H301.203H311.203V37.0273H301.203ZM301.203 43.4727V53.4727H323.074V43.4727V33.4727H301.203V43.4727Z" fill="white" mask="url(#path-1-outside-1_3990_1434)"/>
</g>
<defs>
<filter id="filter0_d_3990_1434" x="0" y="0" width="340.727" height="67.875" filterUnits="userSpaceOnUse" color-interpolation-filters="sRGB">
<feFlood flood-opacity="0" result="BackgroundImageFix"/>
<feColorMatrix in="SourceAlpha" type="matrix" values="0 0 0 0 0 0 0 0 0 0 0 0 0 0 0 0 0 0 127 0" result="hardAlpha"/>
<feOffset dy="4"/>
<feGaussianBlur stdDeviation="2"/>
<feComposite in2="hardAlpha" operator="out"/>
<feColorMatrix type="matrix" values="0 0 0 0 0 0 0 0 0 0 0 0 0 0 0 0 0 0 0.07 0"/>
<feBlend mode="normal" in2="BackgroundImageFix" result="effect1_dropShadow_3990_1434"/>
<feBlend mode="normal" in="SourceGraphic" in2="effect1_dropShadow_3990_1434" result="shape"/>
</filter>
</defs>
</svg>
