<svg width="426" height="68" viewBox="0 0 426 68" fill="none" xmlns="http://www.w3.org/2000/svg">
<g filter="url(#filter0_d_3990_1477)">
<mask id="path-1-outside-1_3990_1477" maskUnits="userSpaceOnUse" x="3.66797" y="-0.507813" width="418" height="61" fill="black">
<rect fill="white" x="3.66797" y="-0.507813" width="418" height="61"/>
<path d="M47.3867 10.0859V38.918H40.5117V26.7148H34.4961V21.1289H40.5117V10.0859L47.3867 10.0859ZM35.0117 12.9219C35.0117 23.8789 28.6094 31.8281 16.75 35.3945L14 29.8945C21.627 27.6602 26.3105 23.5137 27.4492 18.5078H16.1055V12.9219H35.0117ZM48.418 43.6875V49.1875H20.6172V36.0391H27.6211V43.6875H48.418ZM85.4141 10V30.0664H78.5391V20.4414L72.0078 20.4414V15.0703L78.5391 15.0703V10H85.4141ZM85.4141 31.4414V42.8281H65.4336V44.0312H86.3594V49.4023H58.6445V37.8867H78.582V36.6836H58.6016V31.4414H85.4141ZM67.3242 13.6523C67.3242 18.1211 69.2148 22.6328 75.918 24.4805L72.3086 29.7656C68.248 28.5195 65.498 26.1777 63.8438 23.1484C62.1035 26.5215 59.1602 29.1641 54.6484 30.4961L51.082 25.0391C58.1289 23.1484 60.2773 18.3789 60.3203 13.6523V11.375H67.3242V13.6523ZM112.656 11.9336V17.3477H105.438C105.781 21.3652 108.08 25.4902 114.074 27.4453L110.766 32.7305C106.49 31.4629 103.654 28.9062 101.957 25.6836C100.195 29.25 97.2305 32.1074 92.6758 33.4609L89.1523 28.0469C95.5547 26.1348 97.8965 21.5801 98.3047 17.3477H91.043V11.9336L112.656 11.9336ZM123.441 35.1367V49.7461H116.566V40.5938H95.8125V35.1367H123.441ZM123.441 10V33.6328H116.566V24.6094H111.625V19.0234H116.566V10H123.441ZM161.168 10.0859V38.3164H154.25V10.0859H161.168ZM162.113 43.6875V49.1875L133.969 49.1875V35.4805L140.93 35.4805V43.6875H162.113ZM139.211 12.4492C145.398 12.4492 150.34 16.7461 150.34 22.6328C150.34 28.6484 145.398 32.9023 139.211 32.9023C133.023 32.9023 128.039 28.6484 128.082 22.6328C128.039 16.7461 133.023 12.4492 139.211 12.4492ZM139.211 18.4219C136.676 18.4219 134.785 19.8398 134.785 22.6328C134.785 25.5547 136.676 26.9297 139.211 26.9297C141.617 26.9297 143.508 25.5547 143.508 22.6328C143.508 19.8398 141.617 18.4219 139.211 18.4219ZM208.992 10V49.7461H201.988V10H208.992ZM198.594 13.3086V18.7656H195.715V34.793C197.133 34.6641 198.529 34.5352 199.883 34.3633L200.27 39.4766C191.934 40.8945 182.996 41.0664 175.777 41.0664L175.176 35.5664L179.172 35.5234V18.7656H176.25V13.3086H198.594ZM185.789 35.3516L189.012 35.2227V18.7656H185.789V35.3516ZM245.859 27.9609V33.418H217.328V13.0937H245.602V18.6367H224.117V27.9609H245.859ZM249.598 39.6914V45.3203H213.289V39.6914H249.598ZM258.965 12.5352V17.7344H262.145V12.5352H268.504V32.2148H252.434V12.5352H258.965ZM258.965 26.8437H262.145V22.9336H258.965V26.8437ZM285.691 10.0859V34.0625H279.16V24.9102H277.098V33.8477H270.738V10.7305H277.098V19.3672H279.16V10.0859H285.691ZM285.691 35.4805V49.7461H278.816V40.9375H257.805V35.4805H285.691ZM307.477 10.5156C316.801 10.5156 322.129 12.8789 322.172 17.2187C322.129 21.6016 316.801 23.9648 307.477 23.9648C298.109 23.9648 292.695 21.6016 292.738 17.2187C292.695 12.8789 298.109 10.5156 307.477 10.5156ZM307.477 15.5C302.105 15.5 299.957 16.0156 299.957 17.2187C299.957 18.6797 302.105 18.9375 307.477 18.9805C312.891 18.9375 315.039 18.6797 315.039 17.2187C315.039 16.0156 312.891 15.5 307.477 15.5ZM325.609 25.2969V30.7539H289.344V25.2969H325.609ZM321.313 32.2578V43.2148H300.129V44.5039H322.258V49.5742H293.383V38.4883H314.523V37.2852H293.426V32.2578H321.313ZM373.219 31.4844V36.9414H358.352V49.7891H351.52V36.9414H336.953V31.4844H373.219ZM370.082 11.8906V17.1758H359.34C360.049 20.2266 363.271 23.5566 371.758 24.4805L369.266 29.8516C362.025 29.0137 357.449 26.3066 355.086 22.6328C352.744 26.3066 348.211 29.0137 340.992 29.8516L338.5 24.4805C346.879 23.5566 350.102 20.2266 350.918 17.1758H340.133V11.8906L370.082 11.8906ZM407.336 20.0977V25.4258H379.234V11.418H386.109V20.0977H407.336ZM411.246 28.9492V34.2773L374.98 34.2773V28.9492L411.246 28.9492ZM407.594 43.4727V48.9727L378.762 48.9727V37.0273H385.723V43.4727L407.594 43.4727Z"/>
</mask>
<path d="M47.3867 10.0859V38.918H40.5117V26.7148H34.4961V21.1289H40.5117V10.0859L47.3867 10.0859ZM35.0117 12.9219C35.0117 23.8789 28.6094 31.8281 16.75 35.3945L14 29.8945C21.627 27.6602 26.3105 23.5137 27.4492 18.5078H16.1055V12.9219H35.0117ZM48.418 43.6875V49.1875H20.6172V36.0391H27.6211V43.6875H48.418ZM85.4141 10V30.0664H78.5391V20.4414L72.0078 20.4414V15.0703L78.5391 15.0703V10H85.4141ZM85.4141 31.4414V42.8281H65.4336V44.0312H86.3594V49.4023H58.6445V37.8867H78.582V36.6836H58.6016V31.4414H85.4141ZM67.3242 13.6523C67.3242 18.1211 69.2148 22.6328 75.918 24.4805L72.3086 29.7656C68.248 28.5195 65.498 26.1777 63.8438 23.1484C62.1035 26.5215 59.1602 29.1641 54.6484 30.4961L51.082 25.0391C58.1289 23.1484 60.2773 18.3789 60.3203 13.6523V11.375H67.3242V13.6523ZM112.656 11.9336V17.3477H105.438C105.781 21.3652 108.08 25.4902 114.074 27.4453L110.766 32.7305C106.49 31.4629 103.654 28.9062 101.957 25.6836C100.195 29.25 97.2305 32.1074 92.6758 33.4609L89.1523 28.0469C95.5547 26.1348 97.8965 21.5801 98.3047 17.3477H91.043V11.9336L112.656 11.9336ZM123.441 35.1367V49.7461H116.566V40.5938H95.8125V35.1367H123.441ZM123.441 10V33.6328H116.566V24.6094H111.625V19.0234H116.566V10H123.441ZM161.168 10.0859V38.3164H154.25V10.0859H161.168ZM162.113 43.6875V49.1875L133.969 49.1875V35.4805L140.93 35.4805V43.6875H162.113ZM139.211 12.4492C145.398 12.4492 150.34 16.7461 150.34 22.6328C150.34 28.6484 145.398 32.9023 139.211 32.9023C133.023 32.9023 128.039 28.6484 128.082 22.6328C128.039 16.7461 133.023 12.4492 139.211 12.4492ZM139.211 18.4219C136.676 18.4219 134.785 19.8398 134.785 22.6328C134.785 25.5547 136.676 26.9297 139.211 26.9297C141.617 26.9297 143.508 25.5547 143.508 22.6328C143.508 19.8398 141.617 18.4219 139.211 18.4219ZM208.992 10V49.7461H201.988V10H208.992ZM198.594 13.3086V18.7656H195.715V34.793C197.133 34.6641 198.529 34.5352 199.883 34.3633L200.27 39.4766C191.934 40.8945 182.996 41.0664 175.777 41.0664L175.176 35.5664L179.172 35.5234V18.7656H176.25V13.3086H198.594ZM185.789 35.3516L189.012 35.2227V18.7656H185.789V35.3516ZM245.859 27.9609V33.418H217.328V13.0937H245.602V18.6367H224.117V27.9609H245.859ZM249.598 39.6914V45.3203H213.289V39.6914H249.598ZM258.965 12.5352V17.7344H262.145V12.5352H268.504V32.2148H252.434V12.5352H258.965ZM258.965 26.8437H262.145V22.9336H258.965V26.8437ZM285.691 10.0859V34.0625H279.16V24.9102H277.098V33.8477H270.738V10.7305H277.098V19.3672H279.16V10.0859H285.691ZM285.691 35.4805V49.7461H278.816V40.9375H257.805V35.4805H285.691ZM307.477 10.5156C316.801 10.5156 322.129 12.8789 322.172 17.2187C322.129 21.6016 316.801 23.9648 307.477 23.9648C298.109 23.9648 292.695 21.6016 292.738 17.2187C292.695 12.8789 298.109 10.5156 307.477 10.5156ZM307.477 15.5C302.105 15.5 299.957 16.0156 299.957 17.2187C299.957 18.6797 302.105 18.9375 307.477 18.9805C312.891 18.9375 315.039 18.6797 315.039 17.2187C315.039 16.0156 312.891 15.5 307.477 15.5ZM325.609 25.2969V30.7539H289.344V25.2969H325.609ZM321.313 32.2578V43.2148H300.129V44.5039H322.258V49.5742H293.383V38.4883H314.523V37.2852H293.426V32.2578H321.313ZM373.219 31.4844V36.9414H358.352V49.7891H351.52V36.9414H336.953V31.4844H373.219ZM370.082 11.8906V17.1758H359.34C360.049 20.2266 363.271 23.5566 371.758 24.4805L369.266 29.8516C362.025 29.0137 357.449 26.3066 355.086 22.6328C352.744 26.3066 348.211 29.0137 340.992 29.8516L338.5 24.4805C346.879 23.5566 350.102 20.2266 350.918 17.1758H340.133V11.8906L370.082 11.8906ZM407.336 20.0977V25.4258H379.234V11.418H386.109V20.0977H407.336ZM411.246 28.9492V34.2773L374.98 34.2773V28.9492L411.246 28.9492ZM407.594 43.4727V48.9727L378.762 48.9727V37.0273H385.723V43.4727L407.594 43.4727Z" fill="#11DCA9"/>
<path d="M47.3867 10.0859H57.3867C57.3867 4.56309 52.9096 0.0859375 47.3867 0.0859375V10.0859ZM47.3867 38.918V48.918C52.9096 48.918 57.3867 44.4408 57.3867 38.918H47.3867ZM40.5117 38.918H30.5117C30.5117 44.4408 34.9889 48.918 40.5117 48.918V38.918ZM40.5117 26.7148H50.5117C50.5117 21.192 46.0346 16.7148 40.5117 16.7148V26.7148ZM34.4961 26.7148H24.4961C24.4961 32.2377 28.9732 36.7148 34.4961 36.7148V26.7148ZM34.4961 21.1289V11.1289C28.9732 11.1289 24.4961 15.6061 24.4961 21.1289H34.4961ZM40.5117 21.1289V31.1289C46.0346 31.1289 50.5117 26.6518 50.5117 21.1289H40.5117ZM40.5117 10.0859V0.0859375C34.9889 0.0859375 30.5117 4.56309 30.5117 10.0859H40.5117ZM35.0117 12.9219H45.0117C45.0117 7.39903 40.5346 2.92187 35.0117 2.92187V12.9219ZM16.75 35.3945L7.80573 39.8667C9.98111 44.2174 14.9716 46.3717 19.6298 44.9709L16.75 35.3945ZM14 29.8945L11.1886 20.2979C8.34495 21.1309 6.0172 23.1822 4.83311 25.8985C3.64903 28.6148 3.73057 31.7163 5.05573 34.3667L14 29.8945ZM27.4492 18.5078L37.2001 20.7258C37.8748 17.7596 37.1627 14.6476 35.2652 12.27C33.3677 9.89244 30.4912 8.50781 27.4492 8.50781V18.5078ZM16.1055 18.5078H6.10547C6.10547 24.0307 10.5826 28.5078 16.1055 28.5078V18.5078ZM16.1055 12.9219V2.92188C10.5826 2.92188 6.10547 7.39903 6.10547 12.9219H16.1055ZM48.418 43.6875H58.418C58.418 38.1647 53.9408 33.6875 48.418 33.6875V43.6875ZM48.418 49.1875V59.1875C53.9408 59.1875 58.418 54.7103 58.418 49.1875H48.418ZM20.6172 49.1875H10.6172C10.6172 54.7103 15.0943 59.1875 20.6172 59.1875V49.1875ZM20.6172 36.0391V26.0391C15.0943 26.0391 10.6172 30.5162 10.6172 36.0391H20.6172ZM27.6211 36.0391H37.6211C37.6211 30.5162 33.1439 26.0391 27.6211 26.0391V36.0391ZM27.6211 43.6875H17.6211C17.6211 49.2103 22.0982 53.6875 27.6211 53.6875V43.6875ZM47.3867 10.0859L37.3867 10.0859V38.918H47.3867H57.3867V10.0859H47.3867ZM47.3867 38.918V28.918H40.5117V38.918V48.918H47.3867V38.918ZM40.5117 38.918H50.5117V26.7148H40.5117H30.5117V38.918H40.5117ZM40.5117 26.7148V16.7148H34.4961V26.7148V36.7148H40.5117V26.7148ZM34.4961 26.7148H44.4961V21.1289H34.4961H24.4961V26.7148H34.4961ZM34.4961 21.1289V31.1289H40.5117V21.1289V11.1289H34.4961V21.1289ZM40.5117 21.1289H50.5117V10.0859L40.5117 10.0859H30.5117V21.1289H40.5117ZM40.5117 10.0859V20.0859H47.3867V10.0859V0.0859375H40.5117V10.0859ZM35.0117 12.9219H25.0117C25.0117 16.3533 24.0515 18.7927 22.5603 20.632C21.0079 22.5468 18.3292 24.4772 13.8702 25.8182L16.75 35.3945L19.6298 44.9709C27.0301 42.7454 33.4824 38.918 38.096 33.2273C42.7707 27.4613 45.0117 20.4474 45.0117 12.9219H35.0117ZM16.75 35.3945L25.6943 30.9224L22.9443 25.4224L14 29.8945L5.05573 34.3667L7.80573 39.8667L16.75 35.3945ZM14 29.8945L16.8114 39.4912C26.1763 36.7477 34.9223 30.7398 37.2001 20.7258L27.4492 18.5078L17.6983 16.2898C17.6779 16.3795 17.555 16.8725 16.652 17.646C15.6999 18.4616 13.9808 19.4799 11.1886 20.2979L14 29.8945ZM27.4492 18.5078V8.50781H16.1055V18.5078V28.5078H27.4492V18.5078ZM16.1055 18.5078H26.1055V12.9219H16.1055H6.10547V18.5078H16.1055ZM16.1055 12.9219V22.9219H35.0117V12.9219V2.92187L16.1055 2.92188V12.9219ZM48.418 43.6875H38.418V49.1875H48.418H58.418V43.6875H48.418ZM48.418 49.1875V39.1875H20.6172V49.1875V59.1875H48.418V49.1875ZM20.6172 49.1875H30.6172V36.0391H20.6172H10.6172L10.6172 49.1875H20.6172ZM20.6172 36.0391V46.0391H27.6211V36.0391V26.0391H20.6172V36.0391ZM27.6211 36.0391H17.6211V43.6875H27.6211H37.6211V36.0391H27.6211ZM27.6211 43.6875V53.6875H48.418V43.6875V33.6875H27.6211V43.6875ZM85.4141 10H95.4141C95.4141 4.47715 90.9369 0 85.4141 0V10ZM85.4141 30.0664V40.0664C90.9369 40.0664 95.4141 35.5893 95.4141 30.0664H85.4141ZM78.5391 30.0664H68.5391C68.5391 35.5893 73.0162 40.0664 78.5391 40.0664V30.0664ZM78.5391 20.4414H88.5391C88.5391 14.9186 84.0619 10.4414 78.5391 10.4414V20.4414ZM72.0078 20.4414H62.0078C62.0078 25.9643 66.485 30.4414 72.0078 30.4414V20.4414ZM72.0078 15.0703V5.07031C66.485 5.07031 62.0078 9.54747 62.0078 15.0703H72.0078ZM78.5391 15.0703V25.0703C84.0619 25.0703 88.5391 20.5932 88.5391 15.0703H78.5391ZM78.5391 10V0C73.0162 0 68.5391 4.47715 68.5391 10H78.5391ZM85.4141 31.4414H95.4141C95.4141 25.9186 90.9369 21.4414 85.4141 21.4414V31.4414ZM85.4141 42.8281V52.8281C90.9369 52.8281 95.4141 48.351 95.4141 42.8281H85.4141ZM65.4336 42.8281V32.8281C59.9107 32.8281 55.4336 37.3053 55.4336 42.8281H65.4336ZM65.4336 44.0312H55.4336C55.4336 49.5541 59.9107 54.0312 65.4336 54.0312V44.0312ZM86.3594 44.0312H96.3594C96.3594 38.5084 91.8822 34.0312 86.3594 34.0312V44.0312ZM86.3594 49.4023V59.4023C91.8822 59.4023 96.3594 54.9252 96.3594 49.4023H86.3594ZM58.6445 49.4023H48.6445C48.6445 54.9252 53.1217 59.4023 58.6445 59.4023V49.4023ZM58.6445 37.8867V27.8867C53.1217 27.8867 48.6445 32.3639 48.6445 37.8867H58.6445ZM78.582 37.8867V47.8867C84.1049 47.8867 88.582 43.4096 88.582 37.8867H78.582ZM78.582 36.6836H88.582C88.582 31.1607 84.1049 26.6836 78.582 26.6836V36.6836ZM58.6016 36.6836H48.6016C48.6016 42.2064 53.0787 46.6836 58.6016 46.6836V36.6836ZM58.6016 31.4414V21.4414C53.0787 21.4414 48.6016 25.9186 48.6016 31.4414H58.6016ZM75.918 24.4805L84.176 30.1201C85.9972 27.4533 86.4185 24.0711 85.3071 21.039C84.1958 18.0069 81.6885 15.6981 78.5753 14.84L75.918 24.4805ZM72.3086 29.7656L69.3748 39.3256C73.5614 40.6104 78.0969 39.0216 80.5666 35.4052L72.3086 29.7656ZM63.8438 23.1484L72.6203 18.3556C70.847 15.1083 67.4257 13.1056 63.7261 13.1491C60.0264 13.1927 56.6532 15.2754 54.9568 18.5634L63.8438 23.1484ZM54.6484 30.4961L46.2776 35.9668C48.6928 39.6625 53.2458 41.3369 57.48 40.0868L54.6484 30.4961ZM51.082 25.0391L48.4907 15.3806C45.3946 16.2113 42.8844 18.4759 41.7405 21.4704C40.5965 24.465 40.9575 27.8264 42.7112 30.5098L51.082 25.0391ZM60.3203 13.6523L70.3199 13.7432C70.3202 13.7129 70.3203 13.6826 70.3203 13.6523H60.3203ZM60.3203 11.375V1.375C54.7975 1.375 50.3203 5.85215 50.3203 11.375H60.3203ZM67.3242 11.375H77.3242C77.3242 5.85215 72.8471 1.375 67.3242 1.375V11.375ZM85.4141 10H75.4141V30.0664H85.4141H95.4141V10H85.4141ZM85.4141 30.0664V20.0664H78.5391V30.0664V40.0664H85.4141V30.0664ZM78.5391 30.0664H88.5391V20.4414H78.5391L68.5391 20.4414V30.0664H78.5391ZM78.5391 20.4414V10.4414H72.0078V20.4414V30.4414H78.5391V20.4414ZM72.0078 20.4414L82.0078 20.4414V15.0703L72.0078 15.0703H62.0078V20.4414H72.0078ZM72.0078 15.0703V25.0703L78.5391 25.0703V15.0703V5.07031H72.0078V15.0703ZM78.5391 15.0703H88.5391V10H78.5391H68.5391V15.0703L78.5391 15.0703ZM78.5391 10V20H85.4141V10V0L78.5391 0V10ZM85.4141 31.4414H75.4141V42.8281H85.4141H95.4141V31.4414H85.4141ZM85.4141 42.8281V32.8281H65.4336V42.8281V52.8281H85.4141V42.8281ZM65.4336 42.8281H55.4336V44.0312H65.4336H75.4336V42.8281H65.4336ZM65.4336 44.0312V54.0312H86.3594V44.0312V34.0312H65.4336V44.0312ZM86.3594 44.0312H76.3594V49.4023H86.3594H96.3594V44.0312H86.3594ZM86.3594 49.4023V39.4023H58.6445V49.4023V59.4023H86.3594V49.4023ZM58.6445 49.4023H68.6445V37.8867H58.6445H48.6445V49.4023H58.6445ZM58.6445 37.8867V47.8867H78.582V37.8867V27.8867L58.6445 27.8867V37.8867ZM78.582 37.8867H88.582V36.6836H78.582H68.582V37.8867H78.582ZM78.582 36.6836V26.6836L58.6016 26.6836V36.6836V46.6836H78.582V36.6836ZM58.6016 36.6836H68.6016V31.4414H58.6016H48.6016V36.6836H58.6016ZM58.6016 31.4414V41.4414H85.4141V31.4414V21.4414L58.6016 21.4414V31.4414ZM67.3242 13.6523H57.3242C57.3242 17.2358 58.0801 21.6371 60.8515 25.692C63.7153 29.882 68.0323 32.6798 73.2607 34.1209L75.918 24.4805L78.5753 14.84C77.7892 14.6233 77.4298 14.408 77.3253 14.3377C77.2385 14.2794 77.2891 14.298 77.3633 14.4066C77.5137 14.6266 77.3242 14.5377 77.3242 13.6523L67.3242 13.6523ZM75.918 24.4805L67.66 18.8409L64.0506 24.126L72.3086 29.7656L80.5666 35.4052L84.176 30.1201L75.918 24.4805ZM72.3086 29.7656L75.2423 20.2057C74.3017 19.917 73.746 19.5768 73.4153 19.3127C73.0907 19.0533 72.8363 18.7511 72.6203 18.3556L63.8438 23.1484L55.0672 27.9413C58.0426 33.3899 62.963 37.3579 69.3748 39.3256L72.3086 29.7656ZM63.8438 23.1484L54.9568 18.5634C54.6641 19.1308 54.3265 19.5406 53.9307 19.8664C53.5342 20.1927 52.8932 20.5876 51.8169 20.9054L54.6484 30.4961L57.48 40.0868C64.5783 37.9911 69.725 33.5592 72.7307 27.7334L63.8438 23.1484ZM54.6484 30.4961L63.0193 25.0254L59.4529 19.5683L51.082 25.0391L42.7112 30.5098L46.2776 35.9668L54.6484 30.4961ZM51.082 25.0391L53.6733 34.6975C59.0809 33.2467 63.5224 30.397 66.5015 26.17C69.3974 22.0612 70.2854 17.5416 70.3199 13.7432L60.3203 13.6523L50.3207 13.5614C50.3123 14.4897 50.1046 14.7181 50.1537 14.6483C50.1752 14.6179 50.1558 14.6675 49.9866 14.7791C49.8021 14.9008 49.3572 15.1482 48.4907 15.3806L51.082 25.0391ZM60.3203 13.6523H70.3203V11.375H60.3203H50.3203V13.6523H60.3203ZM60.3203 11.375V21.375H67.3242V11.375V1.375L60.3203 1.375V11.375ZM67.3242 11.375H57.3242V13.6523H67.3242L77.3242 13.6523V11.375H67.3242ZM112.656 11.9336H122.656C122.656 6.41075 118.179 1.93359 112.656 1.93359V11.9336ZM112.656 17.3477V27.3477C118.179 27.3477 122.656 22.8705 122.656 17.3477H112.656ZM105.438 17.3477V7.34766C102.637 7.34766 99.9651 8.52187 98.0712 10.5847C96.1773 12.6475 95.2352 15.41 95.4739 18.2002L105.438 17.3477ZM114.074 27.4453L122.55 32.7515C124.183 30.1428 124.524 26.9274 123.474 24.0343C122.425 21.1411 120.101 18.8926 117.175 17.9382L114.074 27.4453ZM110.766 32.7305L107.923 42.318C112.229 43.5947 116.858 41.8437 119.242 38.0367L110.766 32.7305ZM101.957 25.6836L110.805 21.0237C109.054 17.6983 105.585 15.6357 101.827 15.6844C98.0692 15.7332 94.6558 17.885 92.9913 21.2547L101.957 25.6836ZM92.6758 33.4609L84.2944 38.9155C86.71 42.6273 91.2792 44.3082 95.5244 43.0466L92.6758 33.4609ZM89.1523 28.0469L86.2907 18.4651C83.2698 19.3673 80.8513 21.6412 79.7649 24.6008C78.6784 27.5604 79.0513 30.859 80.771 33.5014L89.1523 28.0469ZM98.3047 17.3477L108.259 18.3077C108.529 15.5015 107.603 12.7115 105.707 10.6246C103.812 8.53762 101.124 7.34766 98.3047 7.34766V17.3477ZM91.043 17.3477H81.043C81.043 22.8705 85.5201 27.3477 91.043 27.3477V17.3477ZM91.043 11.9336V1.93359C85.5201 1.93359 81.043 6.41075 81.043 11.9336H91.043ZM123.441 35.1367H133.441C133.441 29.6139 128.964 25.1367 123.441 25.1367V35.1367ZM123.441 49.7461V59.7461C128.964 59.7461 133.441 55.2689 133.441 49.7461H123.441ZM116.566 49.7461H106.566C106.566 55.2689 111.044 59.7461 116.566 59.7461V49.7461ZM116.566 40.5938H126.566C126.566 35.0709 122.089 30.5938 116.566 30.5938V40.5938ZM95.8125 40.5938H85.8125C85.8125 46.1166 90.2897 50.5938 95.8125 50.5938V40.5938ZM95.8125 35.1367V25.1367C90.2897 25.1367 85.8125 29.6139 85.8125 35.1367H95.8125ZM123.441 10H133.441C133.441 4.47715 128.964 0 123.441 0V10ZM123.441 33.6328V43.6328C128.964 43.6328 133.441 39.1557 133.441 33.6328H123.441ZM116.566 33.6328H106.566C106.566 39.1557 111.044 43.6328 116.566 43.6328V33.6328ZM116.566 24.6094H126.566C126.566 19.0865 122.089 14.6094 116.566 14.6094V24.6094ZM111.625 24.6094H101.625C101.625 30.1322 106.102 34.6094 111.625 34.6094V24.6094ZM111.625 19.0234V9.02344C106.102 9.02344 101.625 13.5006 101.625 19.0234H111.625ZM116.566 19.0234V29.0234C122.089 29.0234 126.566 24.5463 126.566 19.0234H116.566ZM116.566 10V0C111.044 0 106.566 4.47715 106.566 10L116.566 10ZM112.656 11.9336L102.656 11.9336V17.3477H112.656H122.656V11.9336H112.656ZM112.656 17.3477V7.34766L105.438 7.34766V17.3477V27.3477H112.656V17.3477ZM105.438 17.3477L95.4739 18.2002C95.7827 21.8092 97.002 25.7441 99.7094 29.2653C102.449 32.8285 106.299 35.4276 110.973 36.9524L114.074 27.4453L117.175 17.9382C116.487 17.7137 116.085 17.4865 115.873 17.3422C115.667 17.2021 115.588 17.1052 115.565 17.0746C115.538 17.0401 115.436 16.9037 115.401 16.4952L105.438 17.3477ZM114.074 27.4453L105.598 22.1391L102.29 27.4243L110.766 32.7305L119.242 38.0367L122.55 32.7515L114.074 27.4453ZM110.766 32.7305L113.608 23.143C112.675 22.8663 112.112 22.5185 111.757 22.2254C111.398 21.9295 111.082 21.55 110.805 21.0237L101.957 25.6836L93.1091 30.3435C96.0454 35.9188 101.029 40.274 107.923 42.318L110.766 32.7305ZM101.957 25.6836L92.9913 21.2547C92.366 22.5204 91.5129 23.3743 89.8272 23.8752L92.6758 33.4609L95.5244 43.0466C102.948 40.8405 108.025 35.9796 110.923 30.1125L101.957 25.6836ZM92.6758 33.4609L101.057 28.0064L97.5337 22.5923L89.1523 28.0469L80.771 33.5014L84.2944 38.9155L92.6758 33.4609ZM89.1523 28.0469L92.014 37.6287C97.0847 36.1143 101.136 33.3369 103.963 29.5854C106.722 25.9231 107.915 21.8708 108.259 18.3077L98.3047 17.3477L88.3509 16.3876C88.2863 17.057 88.1038 17.3982 87.9898 17.5494C87.9323 17.6258 87.8306 17.7403 87.6221 17.8813C87.4083 18.026 87.0006 18.253 86.2907 18.4651L89.1523 28.0469ZM98.3047 17.3477V7.34766H91.043V17.3477V27.3477H98.3047V17.3477ZM91.043 17.3477H101.043V11.9336H91.043H81.043V17.3477H91.043ZM91.043 11.9336V21.9336H112.656V11.9336V1.93359L91.043 1.93359V11.9336ZM123.441 35.1367H113.441V49.7461H123.441H133.441V35.1367H123.441ZM123.441 49.7461V39.7461H116.566V49.7461V59.7461H123.441V49.7461ZM116.566 49.7461H126.566V40.5938H116.566H106.566V49.7461H116.566ZM116.566 40.5938V30.5938H95.8125V40.5938V50.5938H116.566V40.5938ZM95.8125 40.5938H105.813V35.1367H95.8125H85.8125V40.5938H95.8125ZM95.8125 35.1367V45.1367H123.441V35.1367V25.1367H95.8125V35.1367ZM123.441 10H113.441V33.6328H123.441H133.441V10H123.441ZM123.441 33.6328V23.6328H116.566V33.6328V43.6328H123.441V33.6328ZM116.566 33.6328H126.566V24.6094H116.566H106.566V33.6328H116.566ZM116.566 24.6094V14.6094H111.625V24.6094V34.6094H116.566V24.6094ZM111.625 24.6094H121.625V19.0234H111.625H101.625V24.6094H111.625ZM111.625 19.0234V29.0234H116.566V19.0234V9.02344H111.625V19.0234ZM116.566 19.0234H126.566V10H116.566L106.566 10V19.0234H116.566ZM116.566 10V20H123.441V10V0L116.566 0V10ZM161.168 10.0859H171.168C171.168 4.56309 166.691 0.0859375 161.168 0.0859375V10.0859ZM161.168 38.3164V48.3164C166.691 48.3164 171.168 43.8393 171.168 38.3164H161.168ZM154.25 38.3164H144.25C144.25 43.8393 148.727 48.3164 154.25 48.3164V38.3164ZM154.25 10.0859V0.0859375C148.727 0.0859375 144.25 4.56309 144.25 10.0859H154.25ZM162.113 43.6875H172.113C172.113 38.1647 167.636 33.6875 162.113 33.6875V43.6875ZM162.113 49.1875V59.1875C167.636 59.1875 172.113 54.7103 172.113 49.1875H162.113ZM133.969 49.1875H123.969C123.969 54.7103 128.446 59.1875 133.969 59.1875V49.1875ZM133.969 35.4805V25.4805C128.446 25.4805 123.969 29.9576 123.969 35.4805H133.969ZM140.93 35.4805H150.93C150.93 29.9576 146.453 25.4805 140.93 25.4805V35.4805ZM140.93 43.6875L130.93 43.6875C130.93 49.2103 135.407 53.6875 140.93 53.6875V43.6875ZM128.082 22.6328L138.082 22.7042C138.082 22.6561 138.082 22.608 138.082 22.5598L128.082 22.6328ZM161.168 10.0859H151.168V38.3164H161.168H171.168V10.0859H161.168ZM161.168 38.3164V28.3164H154.25V38.3164V48.3164H161.168V38.3164ZM154.25 38.3164H164.25V10.0859H154.25H144.25V38.3164H154.25ZM154.25 10.0859V20.0859H161.168V10.0859V0.0859375H154.25V10.0859ZM162.113 43.6875H152.113V49.1875H162.113H172.113V43.6875H162.113ZM162.113 49.1875V39.1875L133.969 39.1875V49.1875V59.1875L162.113 59.1875V49.1875ZM133.969 49.1875L143.969 49.1875V35.4805L133.969 35.4805H123.969V49.1875H133.969ZM133.969 35.4805V45.4805L140.93 45.4805V35.4805V25.4805H133.969V35.4805ZM140.93 35.4805L130.93 35.4805V43.6875L140.93 43.6875H150.93V35.4805H140.93ZM140.93 43.6875V53.6875H162.113V43.6875V33.6875H140.93V43.6875ZM139.211 12.4492V22.4492C139.997 22.4492 140.348 22.7145 140.402 22.7625C140.427 22.7856 140.4 22.7678 140.369 22.6996C140.334 22.6226 140.34 22.582 140.34 22.6328H150.34H160.34C160.34 10.2688 149.916 2.44922 139.211 2.44922V12.4492ZM150.34 22.6328H140.34C140.34 22.7467 140.321 22.7399 140.351 22.6728C140.378 22.6131 140.406 22.5906 140.391 22.6043C140.36 22.6322 140.022 22.9023 139.211 22.9023V32.9023V42.9023C149.945 42.9023 160.34 35.0994 160.34 22.6328H150.34ZM139.211 32.9023V22.9023C138.393 22.9023 138.041 22.6277 138.005 22.5954C137.99 22.5816 138.024 22.6101 138.058 22.6851C138.095 22.7686 138.081 22.7961 138.082 22.7042L128.082 22.6328L118.082 22.5614C117.992 35.147 128.55 42.9023 139.211 42.9023V32.9023ZM128.082 22.6328L138.082 22.5598C138.082 22.5318 138.083 22.5937 138.04 22.6872C138.003 22.7708 137.968 22.7945 137.994 22.7714C138.052 22.7191 138.418 22.4492 139.211 22.4492V12.4492V2.44922C128.58 2.44922 117.991 10.2208 118.082 22.7058L128.082 22.6328ZM139.211 18.4219V8.42187C136.161 8.42187 132.461 9.281 129.394 12.0143C126.157 14.899 124.785 18.8404 124.785 22.6328H134.785H144.785C144.785 23.6323 144.358 25.4682 142.7 26.9457C141.212 28.2717 139.726 28.4219 139.211 28.4219V18.4219ZM134.785 22.6328H124.785C124.785 26.3614 126.074 30.361 129.366 33.3174C132.485 36.1181 136.233 36.9297 139.211 36.9297V26.9297V16.9297C139.654 16.9297 141.189 17.0538 142.729 18.4365C144.442 19.9749 144.785 21.8261 144.785 22.6328H134.785ZM139.211 26.9297V36.9297C142.242 36.9297 145.959 36.0539 149.019 33.2485C152.226 30.3089 153.508 26.3568 153.508 22.6328H143.508H133.508C133.508 21.8307 133.845 20.027 135.504 18.5054C137.018 17.118 138.586 16.9297 139.211 16.9297V26.9297ZM143.508 22.6328H153.508C153.508 18.8465 152.143 14.9508 148.991 12.0829C145.984 9.347 142.315 8.42187 139.211 8.42187V18.4219V28.4219C138.513 28.4219 136.993 28.2057 135.532 26.8771C133.927 25.4164 133.508 23.6261 133.508 22.6328H143.508ZM208.992 10H218.992C218.992 4.47715 214.515 0 208.992 0V10ZM208.992 49.7461V59.7461C214.515 59.7461 218.992 55.2689 218.992 49.7461H208.992ZM201.988 49.7461H191.988C191.988 55.2689 196.465 59.7461 201.988 59.7461V49.7461ZM201.988 10V0C196.465 0 191.988 4.47715 191.988 10H201.988ZM198.594 13.3086L208.594 13.3086C208.594 7.78575 204.117 3.30859 198.594 3.30859V13.3086ZM198.594 18.7656V28.7656C204.117 28.7656 208.594 24.2885 208.594 18.7656L198.594 18.7656ZM195.715 18.7656V8.76562C190.192 8.76562 185.715 13.2428 185.715 18.7656H195.715ZM195.715 34.793H185.715C185.715 37.6026 186.897 40.2826 188.971 42.1772C191.046 44.0718 193.822 45.0063 196.62 44.7519L195.715 34.793ZM199.883 34.3633L209.854 33.6091C209.648 30.8766 208.329 28.3486 206.206 26.6159C204.083 24.8833 201.342 24.0977 198.623 24.4429L199.883 34.3633ZM200.27 39.4766L201.946 49.335C207.036 48.4691 210.63 43.8708 210.241 38.7224L200.27 39.4766ZM175.777 41.0664L165.837 42.1537C166.391 47.2255 170.675 51.0664 175.777 51.0664V41.0664ZM175.176 35.5664L175.068 25.567C172.246 25.5973 169.567 26.8192 167.694 28.9309C165.821 31.0427 164.928 33.8477 165.235 36.6537L175.176 35.5664ZM179.172 35.5234L179.279 45.5229C184.76 45.4639 189.172 41.0043 189.172 35.5234H179.172ZM179.172 18.7656H189.172C189.172 13.2428 184.695 8.76562 179.172 8.76562V18.7656ZM176.25 18.7656H166.25C166.25 24.2885 170.727 28.7656 176.25 28.7656V18.7656ZM176.25 13.3086V3.30859C170.727 3.30859 166.25 7.78575 166.25 13.3086H176.25ZM185.789 35.3516H175.789C175.789 38.0731 176.898 40.677 178.861 42.5626C180.823 44.4481 183.469 45.4523 186.189 45.3436L185.789 35.3516ZM189.012 35.2227L189.411 45.2147C194.774 45.0001 199.012 40.59 199.012 35.2227H189.012ZM189.012 18.7656H199.012C199.012 13.2428 194.535 8.76562 189.012 8.76562V18.7656ZM185.789 18.7656V8.76562C180.266 8.76562 175.789 13.2428 175.789 18.7656H185.789ZM208.992 10H198.992V49.7461H208.992H218.992V10H208.992ZM208.992 49.7461V39.7461H201.988V49.7461V59.7461H208.992V49.7461ZM201.988 49.7461H211.988V10H201.988H191.988V49.7461H201.988ZM201.988 10V20L208.992 20V10V0H201.988V10ZM198.594 13.3086H188.594V18.7656H198.594L208.594 18.7656V13.3086L198.594 13.3086ZM198.594 18.7656V8.76562H195.715V18.7656V28.7656H198.594V18.7656ZM195.715 18.7656H185.715V34.793H195.715H205.715V18.7656L195.715 18.7656ZM195.715 34.793L196.62 44.7519C198.018 44.6248 199.586 44.4813 201.143 44.2836L199.883 34.3633L198.623 24.4429C197.473 24.589 196.248 24.7033 194.809 24.834L195.715 34.793ZM199.883 34.3633L189.911 35.1174L190.298 40.2307L200.27 39.4766L210.241 38.7224L209.854 33.6091L199.883 34.3633ZM200.27 39.4766L198.593 29.6182C191.149 30.8843 182.936 31.0664 175.777 31.0664V41.0664V51.0664C183.056 51.0664 192.718 50.9048 201.946 49.335L200.27 39.4766ZM175.777 41.0664L185.718 39.9791L185.117 34.4791L175.176 35.5664L165.235 36.6537L165.837 42.1537L175.777 41.0664ZM175.176 35.5664L175.283 45.5658L179.279 45.5229L179.172 35.5234L179.064 25.524L175.068 25.567L175.176 35.5664ZM179.172 35.5234H189.172V18.7656H179.172H169.172V35.5234H179.172ZM179.172 18.7656V8.76562H176.25V18.7656V28.7656H179.172V18.7656ZM176.25 18.7656H186.25V13.3086H176.25H166.25V18.7656H176.25ZM176.25 13.3086V23.3086H198.594V13.3086V3.30859L176.25 3.30859V13.3086ZM185.789 35.3516L186.189 45.3436L189.411 45.2147L189.012 35.2227L188.612 25.2306L185.389 25.3596L185.789 35.3516ZM189.012 35.2227H199.012V18.7656H189.012H179.012V35.2227H189.012ZM189.012 18.7656V8.76562H185.789V18.7656V28.7656H189.012V18.7656ZM185.789 18.7656H175.789V35.3516H185.789H195.789V18.7656H185.789ZM245.859 27.9609H255.859C255.859 22.4381 251.382 17.9609 245.859 17.9609V27.9609ZM245.859 33.418V43.418C251.382 43.418 255.859 38.9408 255.859 33.418H245.859ZM217.328 33.418H207.328C207.328 38.9408 211.805 43.418 217.328 43.418V33.418ZM217.328 13.0937V3.09375C211.805 3.09375 207.328 7.5709 207.328 13.0937H217.328ZM245.602 13.0937H255.602C255.602 7.5709 251.124 3.09375 245.602 3.09375V13.0937ZM245.602 18.6367V28.6367C251.124 28.6367 255.602 24.1596 255.602 18.6367H245.602ZM224.117 18.6367V8.63672C218.594 8.63672 214.117 13.1139 214.117 18.6367H224.117ZM224.117 27.9609H214.117C214.117 33.4838 218.594 37.9609 224.117 37.9609V27.9609ZM249.598 39.6914H259.598C259.598 34.1686 255.121 29.6914 249.598 29.6914V39.6914ZM249.598 45.3203V55.3203C255.121 55.3203 259.598 50.8432 259.598 45.3203H249.598ZM213.289 45.3203H203.289C203.289 50.8432 207.766 55.3203 213.289 55.3203V45.3203ZM213.289 39.6914V29.6914C207.766 29.6914 203.289 34.1686 203.289 39.6914H213.289ZM245.859 27.9609H235.859V33.418H245.859H255.859V27.9609H245.859ZM245.859 33.418V23.418H217.328V33.418V43.418H245.859V33.418ZM217.328 33.418H227.328V13.0937H217.328H207.328V33.418H217.328ZM217.328 13.0937V23.0937H245.602V13.0937V3.09375L217.328 3.09375V13.0937ZM245.602 13.0937H235.602V18.6367H245.602H255.602V13.0937H245.602ZM245.602 18.6367V8.63672L224.117 8.63672V18.6367V28.6367H245.602V18.6367ZM224.117 18.6367H214.117V27.9609H224.117H234.117V18.6367H224.117ZM224.117 27.9609V37.9609H245.859V27.9609V17.9609H224.117V27.9609ZM249.598 39.6914H239.598V45.3203H249.598H259.598V39.6914H249.598ZM249.598 45.3203V35.3203H213.289V45.3203V55.3203H249.598V45.3203ZM213.289 45.3203H223.289V39.6914H213.289H203.289V45.3203H213.289ZM213.289 39.6914V49.6914H249.598V39.6914V29.6914H213.289V39.6914ZM258.965 12.5352H268.965C268.965 7.01231 264.488 2.53516 258.965 2.53516V12.5352ZM258.965 17.7344H248.965C248.965 23.2572 253.442 27.7344 258.965 27.7344V17.7344ZM262.145 17.7344V27.7344C267.667 27.7344 272.145 23.2572 272.145 17.7344H262.145ZM262.145 12.5352V2.53516C256.622 2.53516 252.145 7.01231 252.145 12.5352H262.145ZM268.504 12.5352H278.504C278.504 7.01231 274.027 2.53516 268.504 2.53516V12.5352ZM268.504 32.2148V42.2148C274.027 42.2148 278.504 37.7377 278.504 32.2148H268.504ZM252.434 32.2148H242.434C242.434 37.7377 246.911 42.2148 252.434 42.2148V32.2148ZM252.434 12.5352V2.53516C246.911 2.53516 242.434 7.01231 242.434 12.5352H252.434ZM258.965 26.8437H248.965C248.965 32.3666 253.442 36.8437 258.965 36.8437V26.8437ZM262.145 26.8437V36.8437C267.667 36.8437 272.145 32.3666 272.145 26.8437H262.145ZM262.145 22.9336H272.145C272.145 17.4107 267.667 12.9336 262.145 12.9336V22.9336ZM258.965 22.9336V12.9336C253.442 12.9336 248.965 17.4107 248.965 22.9336H258.965ZM285.691 10.0859H295.691C295.691 4.56309 291.214 0.0859375 285.691 0.0859375V10.0859ZM285.691 34.0625V44.0625C291.214 44.0625 295.691 39.5853 295.691 34.0625H285.691ZM279.16 34.0625H269.16C269.16 39.5853 273.637 44.0625 279.16 44.0625V34.0625ZM279.16 24.9102H289.16C289.16 19.3873 284.683 14.9102 279.16 14.9102V24.9102ZM277.098 24.9102V14.9102C271.575 14.9102 267.098 19.3873 267.098 24.9102H277.098ZM277.098 33.8477V43.8477C282.621 43.8477 287.098 39.3705 287.098 33.8477H277.098ZM270.738 33.8477H260.738C260.738 39.3705 265.215 43.8477 270.738 43.8477V33.8477ZM270.738 10.7305V0.730469C265.215 0.730469 260.738 5.20762 260.738 10.7305H270.738ZM277.098 10.7305H287.098C287.098 5.20762 282.621 0.730469 277.098 0.730469V10.7305ZM277.098 19.3672H267.098C267.098 24.89 271.575 29.3672 277.098 29.3672V19.3672ZM279.16 19.3672V29.3672C284.683 29.3672 289.16 24.89 289.16 19.3672H279.16ZM279.16 10.0859V0.0859375C273.637 0.0859375 269.16 4.56309 269.16 10.0859H279.16ZM285.691 35.4805H295.691C295.691 29.9576 291.214 25.4805 285.691 25.4805V35.4805ZM285.691 49.7461V59.7461C291.214 59.7461 295.691 55.2689 295.691 49.7461H285.691ZM278.816 49.7461H268.816C268.816 55.2689 273.294 59.7461 278.816 59.7461V49.7461ZM278.816 40.9375H288.816C288.816 35.4147 284.339 30.9375 278.816 30.9375V40.9375ZM257.805 40.9375H247.805C247.805 46.4603 252.282 50.9375 257.805 50.9375V40.9375ZM257.805 35.4805V25.4805C252.282 25.4805 247.805 29.9576 247.805 35.4805H257.805ZM258.965 12.5352H248.965V17.7344H258.965H268.965V12.5352H258.965ZM258.965 17.7344V27.7344H262.145V17.7344V7.73437H258.965V17.7344ZM262.145 17.7344H272.145V12.5352H262.145H252.145V17.7344H262.145ZM262.145 12.5352V22.5352H268.504V12.5352V2.53516H262.145V12.5352ZM268.504 12.5352H258.504V32.2148H268.504H278.504V12.5352H268.504ZM268.504 32.2148V22.2148H252.434V32.2148V42.2148H268.504V32.2148ZM252.434 32.2148H262.434V12.5352H252.434H242.434V32.2148H252.434ZM252.434 12.5352V22.5352H258.965V12.5352V2.53516L252.434 2.53516V12.5352ZM258.965 26.8437V36.8437H262.145V26.8437V16.8437H258.965V26.8437ZM262.145 26.8437H272.145V22.9336H262.145H252.145V26.8437H262.145ZM262.145 22.9336V12.9336H258.965V22.9336V32.9336H262.145V22.9336ZM258.965 22.9336H248.965V26.8437H258.965H268.965V22.9336H258.965ZM285.691 10.0859H275.691V34.0625H285.691H295.691V10.0859H285.691ZM285.691 34.0625V24.0625H279.16V34.0625V44.0625H285.691V34.0625ZM279.16 34.0625H289.16V24.9102H279.16H269.16V34.0625H279.16ZM279.16 24.9102V14.9102H277.098V24.9102V34.9102H279.16V24.9102ZM277.098 24.9102H267.098V33.8477H277.098H287.098V24.9102H277.098ZM277.098 33.8477V23.8477H270.738V33.8477V43.8477H277.098V33.8477ZM270.738 33.8477H280.738V10.7305H270.738H260.738V33.8477H270.738ZM270.738 10.7305V20.7305H277.098V10.7305V0.730469H270.738V10.7305ZM277.098 10.7305H267.098V19.3672H277.098H287.098V10.7305H277.098ZM277.098 19.3672V29.3672H279.16V19.3672V9.36719H277.098V19.3672ZM279.16 19.3672H289.16V10.0859H279.16H269.16V19.3672H279.16ZM279.16 10.0859V20.0859H285.691V10.0859V0.0859375H279.16V10.0859ZM285.691 35.4805H275.691V49.7461H285.691H295.691V35.4805H285.691ZM285.691 49.7461V39.7461H278.816V49.7461V59.7461H285.691V49.7461ZM278.816 49.7461H288.816V40.9375H278.816H268.816V49.7461H278.816ZM278.816 40.9375V30.9375H257.805V40.9375V50.9375H278.816V40.9375ZM257.805 40.9375H267.805V35.4805H257.805H247.805V40.9375H257.805ZM257.805 35.4805V45.4805H285.691V35.4805V25.4805H257.805V35.4805ZM322.172 17.2187L332.171 17.3168C332.172 17.2511 332.172 17.1854 332.171 17.1197L322.172 17.2187ZM292.738 17.2187L302.738 17.3168C302.738 17.2511 302.738 17.1854 302.738 17.1197L292.738 17.2187ZM307.477 18.9805L307.397 28.9801C307.45 28.9806 307.503 28.9806 307.556 28.9802L307.477 18.9805ZM325.609 25.2969L335.609 25.2969C335.609 19.774 331.132 15.2969 325.609 15.2969V25.2969ZM325.609 30.7539V40.7539C331.132 40.7539 335.609 36.2768 335.609 30.7539H325.609ZM289.344 30.7539H279.344C279.344 36.2768 283.821 40.7539 289.344 40.7539V30.7539ZM289.344 25.2969V15.2969C283.821 15.2969 279.344 19.774 279.344 25.2969H289.344ZM321.313 32.2578H331.313C331.313 26.735 326.835 22.2578 321.313 22.2578V32.2578ZM321.313 43.2148V53.2148C326.835 53.2148 331.313 48.7377 331.313 43.2148H321.313ZM300.129 43.2148V33.2148C294.606 33.2148 290.129 37.692 290.129 43.2148H300.129ZM300.129 44.5039H290.129C290.129 50.0268 294.606 54.5039 300.129 54.5039V44.5039ZM322.258 44.5039H332.258C332.258 38.9811 327.781 34.5039 322.258 34.5039V44.5039ZM322.258 49.5742V59.5742C327.781 59.5742 332.258 55.0971 332.258 49.5742H322.258ZM293.383 49.5742H283.383C283.383 55.0971 287.86 59.5742 293.383 59.5742V49.5742ZM293.383 38.4883V28.4883C287.86 28.4883 283.383 32.9654 283.383 38.4883H293.383ZM314.523 38.4883V48.4883C320.046 48.4883 324.523 44.0111 324.523 38.4883H314.523ZM314.523 37.2852H324.523C324.523 31.7623 320.046 27.2852 314.523 27.2852V37.2852ZM293.426 37.2852H283.426C283.426 42.808 287.903 47.2852 293.426 47.2852V37.2852ZM293.426 32.2578V22.2578C287.903 22.2578 283.426 26.735 283.426 32.2578H293.426ZM307.477 10.5156V20.5156C309.405 20.5156 310.944 20.6392 312.123 20.8275C313.328 21.02 313.958 21.249 314.18 21.3494C314.41 21.4538 313.902 21.2804 313.295 20.505C312.587 19.6003 312.183 18.4288 312.172 17.3178L322.172 17.2187L332.171 17.1197C332.099 9.78613 327.148 5.26676 322.429 3.13007C318.042 1.14355 312.73 0.515625 307.477 0.515625V10.5156ZM322.172 17.2187L312.172 17.1207C312.183 16.0441 312.571 14.8886 313.273 13.985C313.877 13.2084 314.387 13.0316 314.164 13.133C313.947 13.2315 313.322 13.4603 312.119 13.6529C310.943 13.8412 309.405 13.9648 307.477 13.9648V23.9648V33.9648C312.727 33.9648 318.049 33.3378 322.446 31.3377C327.2 29.1749 332.1 24.6299 332.171 17.3168L322.172 17.2187ZM307.477 23.9648V13.9648C305.535 13.9648 303.98 13.841 302.786 13.6512C301.564 13.4568 300.924 13.2253 300.698 13.1231C300.46 13.0155 300.991 13.1961 301.617 14.0048C302.351 14.9544 302.749 16.1768 302.738 17.3168L292.738 17.2187L282.739 17.1207C282.665 24.6082 287.721 29.2059 292.46 31.3476C296.865 33.3391 302.211 33.9648 307.477 33.9648V23.9648ZM292.738 17.2187L302.738 17.1197C302.749 18.2952 302.336 19.5344 301.595 20.4852C300.966 21.2927 300.436 21.4698 300.681 21.3593C300.913 21.2552 301.558 21.0234 302.783 20.8292C303.979 20.6394 305.535 20.5156 307.477 20.5156V10.5156V0.515625C302.208 0.515625 296.872 1.14229 292.476 3.12017C287.774 5.23532 282.664 9.80756 282.739 17.3178L292.738 17.2187ZM307.477 15.5V5.5C304.728 5.5 301.858 5.60872 299.451 6.16502C298.295 6.43215 296.252 7.01263 294.314 8.49003C291.939 10.3003 289.957 13.3361 289.957 17.2187H299.957H309.957C309.957 18.6243 309.626 20.1198 308.875 21.5217C308.147 22.8801 307.211 23.807 306.439 24.3952C305.693 24.9644 305.034 25.2695 304.664 25.4187C304.283 25.5729 304.021 25.636 303.954 25.6514C303.85 25.6754 304.05 25.623 304.736 25.5748C305.383 25.5294 306.275 25.5 307.477 25.5V15.5ZM299.957 17.2187H289.957C289.957 20.5239 291.395 23.706 294.096 25.8861C296.219 27.5992 298.502 28.1787 299.658 28.4201C302.013 28.9121 304.921 28.9603 307.397 28.9801L307.477 18.9805L307.557 8.98079C306.261 8.97042 305.307 8.94762 304.589 8.90785C303.821 8.86526 303.627 8.81754 303.747 8.84263C303.829 8.85961 304.147 8.92924 304.6 9.10871C305.048 9.2859 305.816 9.64408 306.657 10.3225C307.545 11.0393 308.456 12.0705 309.106 13.4499C309.752 14.8216 309.957 16.1475 309.957 17.2187H299.957ZM307.477 18.9805L307.556 28.9802C310.052 28.9603 312.967 28.912 315.324 28.4219C316.479 28.1817 318.765 27.6047 320.89 25.8933C323.599 23.7125 325.039 20.5264 325.039 17.2187H315.039H305.039C305.039 16.1476 305.244 14.8198 305.892 13.4457C306.544 12.0637 307.457 11.0318 308.347 10.3153C309.189 9.63745 309.958 9.28046 310.404 9.10441C310.857 8.92603 311.173 8.85723 311.252 8.84082C311.367 8.81682 311.168 8.86492 310.392 8.90766C309.667 8.94759 308.704 8.97041 307.397 8.98078L307.477 18.9805ZM315.039 17.2187H325.039C325.039 13.3329 323.053 10.294 320.672 8.48317C318.732 7.00718 316.686 6.42878 315.53 6.16284C313.122 5.60863 310.244 5.5 307.477 5.5V15.5V25.5C308.69 25.5 309.592 25.5295 310.247 25.5751C310.94 25.6235 311.145 25.6765 311.046 25.6536C310.982 25.6388 310.721 25.5764 310.34 25.4232C309.972 25.2749 309.313 24.9708 308.565 24.4021C307.792 23.8142 306.854 22.8868 306.124 21.5261C305.371 20.1218 305.039 18.6244 305.039 17.2187H315.039ZM325.609 25.2969H315.609V30.7539H325.609H335.609V25.2969L325.609 25.2969ZM325.609 30.7539V20.7539H289.344V30.7539V40.7539H325.609V30.7539ZM289.344 30.7539H299.344V25.2969H289.344H279.344V30.7539H289.344ZM289.344 25.2969V35.2969H325.609V25.2969V15.2969H289.344V25.2969ZM321.313 32.2578H311.313V43.2148H321.313H331.313V32.2578H321.313ZM321.313 43.2148V33.2148H300.129V43.2148V53.2148H321.313V43.2148ZM300.129 43.2148H290.129V44.5039H300.129H310.129V43.2148H300.129ZM300.129 44.5039V54.5039H322.258V44.5039V34.5039H300.129V44.5039ZM322.258 44.5039H312.258V49.5742H322.258H332.258V44.5039H322.258ZM322.258 49.5742V39.5742H293.383V49.5742V59.5742H322.258V49.5742ZM293.383 49.5742H303.383V38.4883H293.383H283.383V49.5742H293.383ZM293.383 38.4883V48.4883H314.523V38.4883V28.4883H293.383V38.4883ZM314.523 38.4883H324.523V37.2852H314.523H304.523V38.4883H314.523ZM314.523 37.2852V27.2852H293.426V37.2852V47.2852H314.523V37.2852ZM293.426 37.2852H303.426V32.2578H293.426H283.426V37.2852H293.426ZM293.426 32.2578V42.2578H321.313V32.2578V22.2578H293.426V32.2578ZM373.219 31.4844H383.219C383.219 25.9615 378.742 21.4844 373.219 21.4844V31.4844ZM373.219 36.9414V46.9414C378.742 46.9414 383.219 42.4643 383.219 36.9414H373.219ZM358.352 36.9414V26.9414C352.829 26.9414 348.352 31.4186 348.352 36.9414H358.352ZM358.352 49.7891V59.7891C363.874 59.7891 368.352 55.3119 368.352 49.7891H358.352ZM351.52 49.7891H341.52C341.52 55.3119 345.997 59.7891 351.52 59.7891V49.7891ZM351.52 36.9414H361.52C361.52 31.4186 357.042 26.9414 351.52 26.9414V36.9414ZM336.953 36.9414H326.953C326.953 42.4643 331.43 46.9414 336.953 46.9414V36.9414ZM336.953 31.4844V21.4844C331.43 21.4844 326.953 25.9615 326.953 31.4844H336.953ZM370.082 11.8906H380.082C380.082 6.36778 375.605 1.89062 370.082 1.89062V11.8906ZM370.082 17.1758V27.1758C375.605 27.1758 380.082 22.6986 380.082 17.1758H370.082ZM359.34 17.1758V7.17578C356.29 7.17578 353.406 8.56785 351.509 10.9563C349.612 13.3448 348.909 16.4684 349.599 19.4394L359.34 17.1758ZM371.758 24.4805L380.829 28.6894C382.185 25.7668 382.05 22.3698 380.466 19.5641C378.882 16.7585 376.043 14.8879 372.84 14.5392L371.758 24.4805ZM369.266 29.8516L368.116 39.7853C372.401 40.2812 376.521 37.9735 378.337 34.0605L369.266 29.8516ZM355.086 22.6328L363.496 17.2228C361.652 14.3558 358.474 12.6258 355.065 12.6328C351.656 12.6399 348.486 14.3831 346.653 17.2577L355.086 22.6328ZM340.992 29.8516L331.921 34.0605C333.737 37.9746 337.859 40.2824 342.145 39.7849L340.992 29.8516ZM338.5 24.4805L337.404 14.5407C334.204 14.8935 331.369 16.7655 329.789 19.5701C328.208 22.3748 328.074 25.769 329.429 28.6894L338.5 24.4805ZM350.918 17.1758L360.578 19.7609C361.382 16.7582 360.743 13.5526 358.851 11.0869C356.958 8.62119 354.026 7.17578 350.918 7.17578V17.1758ZM340.133 17.1758L330.133 17.1758C330.133 22.6986 334.61 27.1758 340.133 27.1758V17.1758ZM340.133 11.8906V1.89062C334.61 1.89062 330.133 6.36778 330.133 11.8906H340.133ZM373.219 31.4844H363.219V36.9414H373.219H383.219V31.4844H373.219ZM373.219 36.9414V26.9414H358.352V36.9414V46.9414H373.219V36.9414ZM358.352 36.9414H348.352V49.7891H358.352H368.352V36.9414H358.352ZM358.352 49.7891V39.7891H351.52V49.7891V59.7891H358.352V49.7891ZM351.52 49.7891H361.52V36.9414H351.52H341.52V49.7891H351.52ZM351.52 36.9414V26.9414H336.953V36.9414V46.9414H351.52V36.9414ZM336.953 36.9414H346.953V31.4844H336.953H326.953V36.9414H336.953ZM336.953 31.4844V41.4844H373.219V31.4844V21.4844H336.953V31.4844ZM370.082 11.8906L360.082 11.8906V17.1758H370.082H380.082V11.8906H370.082ZM370.082 17.1758V7.17578L359.34 7.17578V17.1758V27.1758H370.082V17.1758ZM359.34 17.1758L349.599 19.4394C351.701 28.4819 360.233 33.2849 370.676 34.4217L371.758 24.4805L372.84 14.5392C369.658 14.1928 368.453 13.4908 368.255 13.3563C368.181 13.3057 368.336 13.3967 368.55 13.7C368.767 14.0066 368.966 14.4197 369.08 14.9122L359.34 17.1758ZM371.758 24.4805L362.687 20.2715L360.195 25.6426L369.266 29.8516L378.337 34.0605L380.829 28.6894L371.758 24.4805ZM369.266 29.8516L370.415 19.9179C365.042 19.2961 363.719 17.5692 363.496 17.2228L355.086 22.6328L346.676 28.0429C351.179 35.0441 359.008 38.7313 368.116 39.7853L369.266 29.8516ZM355.086 22.6328L346.653 17.2577C346.442 17.5895 345.168 19.2998 339.839 19.9183L340.992 29.8516L342.145 39.7849C351.254 38.7276 359.046 35.0238 363.518 28.0079L355.086 22.6328ZM340.992 29.8516L350.063 25.6426L347.571 20.2715L338.5 24.4805L329.429 28.6894L331.921 34.0605L340.992 29.8516ZM338.5 24.4805L339.596 34.4202C350.123 33.2595 358.266 28.4007 360.578 19.7609L350.918 17.1758L341.258 14.5907C341.365 14.1895 341.535 13.8534 341.715 13.6045C341.895 13.3568 342.013 13.2946 341.922 13.3563C341.701 13.5063 340.506 14.1987 337.404 14.5407L338.5 24.4805ZM350.918 17.1758V7.17578H340.133V17.1758V27.1758H350.918V17.1758ZM340.133 17.1758H350.133V11.8906H340.133H330.133V17.1758L340.133 17.1758ZM340.133 11.8906V21.8906H370.082V11.8906V1.89062L340.133 1.89062V11.8906ZM407.336 20.0977H417.336C417.336 14.5748 412.859 10.0977 407.336 10.0977V20.0977ZM407.336 25.4258V35.4258C412.859 35.4258 417.336 30.9486 417.336 25.4258H407.336ZM379.234 25.4258H369.234C369.234 30.9486 373.712 35.4258 379.234 35.4258V25.4258ZM379.234 11.418V1.41797C373.712 1.41797 369.234 5.89512 369.234 11.418H379.234ZM386.109 11.418H396.109C396.109 5.89512 391.632 1.41797 386.109 1.41797V11.418ZM386.109 20.0977H376.109C376.109 25.6205 380.587 30.0977 386.109 30.0977V20.0977ZM411.246 28.9492H421.246C421.246 23.4264 416.769 18.9492 411.246 18.9492V28.9492ZM411.246 34.2773V44.2773C416.769 44.2773 421.246 39.8002 421.246 34.2773H411.246ZM374.98 34.2773H364.98C364.98 39.8002 369.458 44.2773 374.98 44.2773V34.2773ZM374.98 28.9492V18.9492C369.458 18.9492 364.98 23.4264 364.98 28.9492H374.98ZM407.594 43.4727H417.594C417.594 37.9498 413.117 33.4727 407.594 33.4727V43.4727ZM407.594 48.9727V58.9727C413.117 58.9727 417.594 54.4955 417.594 48.9727H407.594ZM378.762 48.9727H368.762C368.762 54.4955 373.239 58.9727 378.762 58.9727V48.9727ZM378.762 37.0273V27.0273C373.239 27.0273 368.762 31.5045 368.762 37.0273H378.762ZM385.723 37.0273H395.723C395.723 31.5045 391.246 27.0273 385.723 27.0273V37.0273ZM385.723 43.4727H375.723C375.723 48.9955 380.2 53.4727 385.723 53.4727V43.4727ZM407.336 20.0977H397.336V25.4258H407.336H417.336V20.0977H407.336ZM407.336 25.4258V15.4258H379.234V25.4258V35.4258L407.336 35.4258V25.4258ZM379.234 25.4258H389.234V11.418H379.234H369.234V25.4258H379.234ZM379.234 11.418V21.418H386.109V11.418V1.41797L379.234 1.41797V11.418ZM386.109 11.418H376.109V20.0977H386.109H396.109V11.418H386.109ZM386.109 20.0977V30.0977L407.336 30.0977V20.0977V10.0977H386.109V20.0977ZM411.246 28.9492H401.246V34.2773H411.246H421.246V28.9492H411.246ZM411.246 34.2773V24.2773H374.98V34.2773V44.2773L411.246 44.2773V34.2773ZM374.98 34.2773H384.98V28.9492H374.98H364.98V34.2773H374.98ZM374.98 28.9492V38.9492L411.246 38.9492V28.9492V18.9492H374.98V28.9492ZM407.594 43.4727H397.594V48.9727H407.594H417.594V43.4727H407.594ZM407.594 48.9727V38.9727L378.762 38.9727V48.9727V58.9727L407.594 58.9727V48.9727ZM378.762 48.9727H388.762V37.0273H378.762H368.762V48.9727H378.762ZM378.762 37.0273V47.0273H385.723V37.0273V27.0273H378.762V37.0273ZM385.723 37.0273H375.723V43.4727H385.723H395.723V37.0273H385.723ZM385.723 43.4727V53.4727L407.594 53.4727V43.4727V33.4727L385.723 33.4727V43.4727Z" fill="white" mask="url(#path-1-outside-1_3990_1477)"/>
</g>
<defs>
<filter id="filter0_d_3990_1477" x="0" y="0" width="425.246" height="67.7891" filterUnits="userSpaceOnUse" color-interpolation-filters="sRGB">
<feFlood flood-opacity="0" result="BackgroundImageFix"/>
<feColorMatrix in="SourceAlpha" type="matrix" values="0 0 0 0 0 0 0 0 0 0 0 0 0 0 0 0 0 0 127 0" result="hardAlpha"/>
<feOffset dy="4"/>
<feGaussianBlur stdDeviation="2"/>
<feComposite in2="hardAlpha" operator="out"/>
<feColorMatrix type="matrix" values="0 0 0 0 0 0 0 0 0 0 0 0 0 0 0 0 0 0 0.07 0"/>
<feBlend mode="normal" in2="BackgroundImageFix" result="effect1_dropShadow_3990_1477"/>
<feBlend mode="normal" in="SourceGraphic" in2="effect1_dropShadow_3990_1477" result="shape"/>
</filter>
</defs>
</svg>
