<svg width="313" height="69" viewBox="0 0 313 69" fill="none" xmlns="http://www.w3.org/2000/svg">
<g filter="url(#filter0_d_3990_1439)">
<mask id="path-1-outside-1_3990_1439" maskUnits="userSpaceOnUse" x="3.04304" y="-0.292969" width="306" height="61" fill="black">
<rect fill="white" x="3.04304" y="-0.292969" width="306" height="61"/>
<path d="M49.6212 10.2148V49.9609H43.1759V10.2148L49.6212 10.2148ZM41.1563 11.0312V48.3711H34.711V35.7383H30.1993V30.1953H34.711V25.8984H31.0157C29.1895 32.3223 25.3223 37.5859 17.9532 41.9258L14.0001 37.1133C21.627 32.6016 24.7637 27.6172 25.5157 20.2266H16.6212V14.7695H32.3048C32.3048 16.7031 32.2188 18.5723 32.0469 20.3555H34.711V11.0312H41.1563ZM77.8087 12.75V17.6484H54.2618V12.75H62.5548V10H69.4298V12.75H77.8087ZM66.0352 18.1641C72.0509 18.1641 76.2188 20.5703 76.2188 24.2656C76.2188 27.1875 73.5548 29.2285 69.4298 29.8945V31.3555C72.2872 31.2051 75.1231 30.9902 77.8087 30.668L78.2813 35.2227C69.9884 36.6836 60.879 36.8555 54.004 36.8555L53.1876 31.7422C56.045 31.7422 59.2247 31.7207 62.5548 31.6133V29.8945C58.3653 29.207 55.7657 27.1875 55.7657 24.2656C55.7657 20.5703 59.8477 18.1641 66.0352 18.1641ZM66.0352 22.6758C63.7579 22.6758 62.4259 23.1055 62.4259 24.2656C62.4259 25.2969 63.7579 25.6836 66.0352 25.6836C68.1407 25.6836 69.6016 25.2969 69.6446 24.2656C69.6016 23.1055 68.1407 22.6758 66.0352 22.6758ZM86.7462 10.3437V37.3711H79.7423V10.3437H86.7462ZM86.7462 38.7461V49.9609H79.7423V43.9453H58.6016V38.7461H86.7462ZM109.133 10.7305C118.457 10.7305 123.785 13.0937 123.828 17.4336C123.785 21.8164 118.457 24.1797 109.133 24.1797C99.7657 24.1797 94.3516 21.8164 94.3946 17.4336C94.3516 13.0937 99.7657 10.7305 109.133 10.7305ZM109.133 15.7148C103.762 15.7148 101.613 16.2305 101.613 17.4336C101.613 18.8945 103.762 19.1523 109.133 19.1953C114.547 19.1523 116.695 18.8945 116.695 17.4336C116.695 16.2305 114.547 15.7148 109.133 15.7148ZM127.266 25.5117V30.9688H91.0001V25.5117H127.266ZM122.969 32.4727V43.4297H101.785V44.7188H123.914V49.7891H95.0391V38.7031H116.18V37.5H95.0821V32.4727H122.969ZM161.211 11.8477V17.1758H154.121C154.787 20.3984 157.215 23.5566 162.844 25.082L159.664 30.3672C155.281 29.25 152.316 26.8652 150.555 23.8359C148.772 27.2734 145.721 29.959 140.973 31.1836L137.621 25.8125C143.572 24.2012 146.065 20.6992 146.731 17.1758H139.426V11.8477H161.211ZM170.406 10.2148V17.5625H175.348V23.0625H170.406V30.5391H163.488V10.2148H170.406ZM170.406 31.8711V43H150.254V44.418H171.352V49.5742H143.422V38.2305H163.531V36.9844H143.422V31.8711H170.406ZM199.539 19.4102C199.539 25.9414 200.484 32.4297 206.07 36.168L202.375 41.4531C199.303 39.6055 197.369 36.748 196.188 33.2891C194.834 37.1777 192.707 40.4004 189.441 42.3984L185.274 37.2852C191.418 33.375 192.836 26.4141 192.836 19.7539V13.4375H199.539V19.4102ZM220.895 10.2148V49.9609H214.32V10.2148H220.895ZM212.516 10.6875V48.2422H206.113V28.6484L201.988 28.6484V23.1055L206.113 23.1055V10.6875H212.516ZM260.512 32.1289V37.6719H245.645V50.0469H238.813V37.6719H224.246V32.1289H260.512ZM242.25 11.418C250.887 11.375 257.074 14.9844 257.074 20.6133C257.074 26.0703 250.887 29.5937 242.25 29.5937C233.613 29.5937 227.512 26.0703 227.555 20.6133C227.512 14.9844 233.613 11.375 242.25 11.418ZM242.25 16.875C237.481 16.875 234.645 18.0781 234.645 20.6133C234.645 22.9766 237.481 24.1797 242.25 24.1797C247.106 24.1797 249.899 22.9766 249.899 20.6133C249.899 18.0781 247.106 16.875 242.25 16.875ZM294.629 20.3125V25.6406H266.527V11.6328H273.402V20.3125H294.629ZM298.539 29.1641V34.4922H262.274V29.1641H298.539ZM294.887 43.6875V49.1875H266.055V37.2422H273.016V43.6875H294.887Z"/>
</mask>
<path d="M49.6212 10.2148V49.9609H43.1759V10.2148L49.6212 10.2148ZM41.1563 11.0312V48.3711H34.711V35.7383H30.1993V30.1953H34.711V25.8984H31.0157C29.1895 32.3223 25.3223 37.5859 17.9532 41.9258L14.0001 37.1133C21.627 32.6016 24.7637 27.6172 25.5157 20.2266H16.6212V14.7695H32.3048C32.3048 16.7031 32.2188 18.5723 32.0469 20.3555H34.711V11.0312H41.1563ZM77.8087 12.75V17.6484H54.2618V12.75H62.5548V10H69.4298V12.75H77.8087ZM66.0352 18.1641C72.0509 18.1641 76.2188 20.5703 76.2188 24.2656C76.2188 27.1875 73.5548 29.2285 69.4298 29.8945V31.3555C72.2872 31.2051 75.1231 30.9902 77.8087 30.668L78.2813 35.2227C69.9884 36.6836 60.879 36.8555 54.004 36.8555L53.1876 31.7422C56.045 31.7422 59.2247 31.7207 62.5548 31.6133V29.8945C58.3653 29.207 55.7657 27.1875 55.7657 24.2656C55.7657 20.5703 59.8477 18.1641 66.0352 18.1641ZM66.0352 22.6758C63.7579 22.6758 62.4259 23.1055 62.4259 24.2656C62.4259 25.2969 63.7579 25.6836 66.0352 25.6836C68.1407 25.6836 69.6016 25.2969 69.6446 24.2656C69.6016 23.1055 68.1407 22.6758 66.0352 22.6758ZM86.7462 10.3437V37.3711H79.7423V10.3437H86.7462ZM86.7462 38.7461V49.9609H79.7423V43.9453H58.6016V38.7461H86.7462ZM109.133 10.7305C118.457 10.7305 123.785 13.0937 123.828 17.4336C123.785 21.8164 118.457 24.1797 109.133 24.1797C99.7657 24.1797 94.3516 21.8164 94.3946 17.4336C94.3516 13.0937 99.7657 10.7305 109.133 10.7305ZM109.133 15.7148C103.762 15.7148 101.613 16.2305 101.613 17.4336C101.613 18.8945 103.762 19.1523 109.133 19.1953C114.547 19.1523 116.695 18.8945 116.695 17.4336C116.695 16.2305 114.547 15.7148 109.133 15.7148ZM127.266 25.5117V30.9688H91.0001V25.5117H127.266ZM122.969 32.4727V43.4297H101.785V44.7188H123.914V49.7891H95.0391V38.7031H116.18V37.5H95.0821V32.4727H122.969ZM161.211 11.8477V17.1758H154.121C154.787 20.3984 157.215 23.5566 162.844 25.082L159.664 30.3672C155.281 29.25 152.316 26.8652 150.555 23.8359C148.772 27.2734 145.721 29.959 140.973 31.1836L137.621 25.8125C143.572 24.2012 146.065 20.6992 146.731 17.1758H139.426V11.8477H161.211ZM170.406 10.2148V17.5625H175.348V23.0625H170.406V30.5391H163.488V10.2148H170.406ZM170.406 31.8711V43H150.254V44.418H171.352V49.5742H143.422V38.2305H163.531V36.9844H143.422V31.8711H170.406ZM199.539 19.4102C199.539 25.9414 200.484 32.4297 206.07 36.168L202.375 41.4531C199.303 39.6055 197.369 36.748 196.188 33.2891C194.834 37.1777 192.707 40.4004 189.441 42.3984L185.274 37.2852C191.418 33.375 192.836 26.4141 192.836 19.7539V13.4375H199.539V19.4102ZM220.895 10.2148V49.9609H214.32V10.2148H220.895ZM212.516 10.6875V48.2422H206.113V28.6484L201.988 28.6484V23.1055L206.113 23.1055V10.6875H212.516ZM260.512 32.1289V37.6719H245.645V50.0469H238.813V37.6719H224.246V32.1289H260.512ZM242.25 11.418C250.887 11.375 257.074 14.9844 257.074 20.6133C257.074 26.0703 250.887 29.5937 242.25 29.5937C233.613 29.5937 227.512 26.0703 227.555 20.6133C227.512 14.9844 233.613 11.375 242.25 11.418ZM242.25 16.875C237.481 16.875 234.645 18.0781 234.645 20.6133C234.645 22.9766 237.481 24.1797 242.25 24.1797C247.106 24.1797 249.899 22.9766 249.899 20.6133C249.899 18.0781 247.106 16.875 242.25 16.875ZM294.629 20.3125V25.6406H266.527V11.6328H273.402V20.3125H294.629ZM298.539 29.1641V34.4922H262.274V29.1641H298.539ZM294.887 43.6875V49.1875H266.055V37.2422H273.016V43.6875H294.887Z" fill="#11DCA9"/>
<path d="M49.6212 10.2148H59.6212C59.6212 4.692 55.144 0.214844 49.6212 0.214844V10.2148ZM49.6212 49.9609V59.9609C55.144 59.9609 59.6212 55.4838 59.6212 49.9609H49.6212ZM43.1759 49.9609H33.1759C33.1759 55.4838 37.653 59.9609 43.1759 59.9609V49.9609ZM43.1759 10.2148V0.214844C37.653 0.214844 33.1759 4.692 33.1759 10.2148H43.1759ZM41.1563 11.0312L51.1563 11.0312C51.1563 5.5084 46.6792 1.03125 41.1563 1.03125V11.0312ZM41.1563 48.3711V58.3711C46.6792 58.3711 51.1563 53.8939 51.1563 48.3711H41.1563ZM34.711 48.3711H24.711C24.711 53.8939 29.1882 58.3711 34.711 58.3711V48.3711ZM34.711 35.7383H44.711C44.711 30.2154 40.2339 25.7383 34.711 25.7383V35.7383ZM30.1993 35.7383H20.1993C20.1993 41.2611 24.6764 45.7383 30.1993 45.7383V35.7383ZM30.1993 30.1953V20.1953C24.6764 20.1953 20.1993 24.6725 20.1993 30.1953H30.1993ZM34.711 30.1953V40.1953C40.2339 40.1953 44.711 35.7182 44.711 30.1953H34.711ZM34.711 25.8984H44.711C44.711 20.3756 40.2339 15.8984 34.711 15.8984V25.8984ZM31.0157 25.8984V15.8984C26.546 15.8984 22.6191 18.8646 21.3968 23.164L31.0157 25.8984ZM17.9532 41.9258L10.2259 48.2732C13.3521 52.079 18.7839 53.0419 23.0278 50.5425L17.9532 41.9258ZM14.0001 37.1133L8.9087 28.5064C6.39623 29.9927 4.65862 32.5026 4.15189 35.3774C3.64516 38.2522 4.41991 41.205 6.27281 43.4607L14.0001 37.1133ZM25.5157 20.2266L35.4643 21.2388C35.7506 18.425 34.832 15.6216 32.936 13.5229C31.04 11.4242 28.344 10.2266 25.5157 10.2266V20.2266ZM16.6212 20.2266H6.62117C6.62117 25.7494 11.0983 30.2266 16.6212 30.2266V20.2266ZM16.6212 14.7695V4.76953C11.0983 4.76953 6.62117 9.24668 6.62117 14.7695H16.6212ZM32.3048 14.7695H42.3048C42.3048 9.24668 37.8276 4.76953 32.3048 4.76953V14.7695ZM32.0469 20.3555L22.0931 19.3961C21.8226 22.2021 22.7491 24.992 24.6444 27.0788C26.5398 29.1656 29.2279 30.3555 32.0469 30.3555V20.3555ZM34.711 20.3555V30.3555C40.2339 30.3555 44.711 25.8783 44.711 20.3555H34.711ZM34.711 11.0312V1.03125C29.1882 1.03125 24.711 5.5084 24.711 11.0312H34.711ZM49.6212 10.2148L39.6212 10.2148V49.9609H49.6212H59.6212V10.2148H49.6212ZM49.6212 49.9609V39.9609H43.1759V49.9609V59.9609H49.6212V49.9609ZM43.1759 49.9609H53.1759V10.2148L43.1759 10.2148H33.1759V49.9609H43.1759ZM43.1759 10.2148V20.2148H49.6212V10.2148V0.214844H43.1759V10.2148ZM41.1563 11.0312H31.1563V48.3711H41.1563H51.1563V11.0312L41.1563 11.0312ZM41.1563 48.3711V38.3711H34.711V48.3711V58.3711H41.1563V48.3711ZM34.711 48.3711H44.711V35.7383H34.711H24.711V48.3711H34.711ZM34.711 35.7383V25.7383H30.1993V35.7383V45.7383H34.711V35.7383ZM30.1993 35.7383H40.1993V30.1953H30.1993H20.1993V35.7383H30.1993ZM30.1993 30.1953V40.1953H34.711V30.1953V20.1953H30.1993V30.1953ZM34.711 30.1953H44.711V25.8984H34.711H24.711V30.1953H34.711ZM34.711 25.8984V15.8984H31.0157V25.8984V35.8984H34.711V25.8984ZM31.0157 25.8984L21.3968 23.164C20.3274 26.9258 18.2099 30.1693 12.8786 33.309L17.9532 41.9258L23.0278 50.5425C32.4348 45.0026 38.0516 37.7187 40.6346 28.6329L31.0157 25.8984ZM17.9532 41.9258L25.6805 35.5784L21.7273 30.7659L14.0001 37.1133L6.27281 43.4607L10.2259 48.2732L17.9532 41.9258ZM14.0001 37.1133L19.0915 45.7201C23.7614 42.9576 27.7418 39.6473 30.6439 35.3153C33.5886 30.92 34.9636 26.1605 35.4643 21.2388L25.5157 20.2266L15.5671 19.2143C15.3159 21.6833 14.7466 23.1113 14.0281 24.1837C13.2671 25.3195 11.8657 26.7572 8.9087 28.5064L14.0001 37.1133ZM25.5157 20.2266V10.2266H16.6212V20.2266V30.2266H25.5157V20.2266ZM16.6212 20.2266H26.6212V14.7695H16.6212H6.62117V20.2266H16.6212ZM16.6212 14.7695V24.7695H32.3048V14.7695V4.76953H16.6212V14.7695ZM32.3048 14.7695H22.3048C22.3048 16.4096 22.2318 17.9573 22.0931 19.3961L32.0469 20.3555L42.0008 21.3149C42.2059 19.1872 42.3048 16.9967 42.3048 14.7695H32.3048ZM32.0469 20.3555V30.3555H34.711V20.3555V10.3555H32.0469V20.3555ZM34.711 20.3555H44.711V11.0312H34.711H24.711V20.3555H34.711ZM34.711 11.0312V21.0312H41.1563V11.0312V1.03125H34.711V11.0312ZM77.8087 12.75L87.8087 12.75C87.8087 7.22715 83.3315 2.75 77.8087 2.75V12.75ZM77.8087 17.6484V27.6484C83.3315 27.6484 87.8087 23.1713 87.8087 17.6484L77.8087 17.6484ZM54.2618 17.6484H44.2618C44.2618 23.1713 48.7389 27.6484 54.2618 27.6484V17.6484ZM54.2618 12.75V2.75C48.7389 2.75 44.2618 7.22715 44.2618 12.75H54.2618ZM62.5548 12.75V22.75C68.0776 22.75 72.5548 18.2728 72.5548 12.75H62.5548ZM62.5548 10V0C57.0319 0 52.5548 4.47715 52.5548 10H62.5548ZM69.4298 10H79.4298C79.4298 4.47715 74.9526 0 69.4298 0V10ZM69.4298 12.75H59.4298C59.4298 18.2728 63.9069 22.75 69.4298 22.75V12.75ZM69.4298 29.8945L67.8358 20.0224C62.991 20.8046 59.4298 24.987 59.4298 29.8945H69.4298ZM69.4298 31.3555H59.4298C59.4298 34.0989 60.5568 36.7218 62.547 38.61C64.5372 40.4982 67.2157 41.4858 69.9554 41.3416L69.4298 31.3555ZM77.8087 30.668L87.7553 29.6358C87.4786 26.9701 86.1436 24.5271 84.0497 22.8545C81.9557 21.182 79.2781 20.4199 76.6172 20.7392L77.8087 30.668ZM78.2813 35.2227L80.0163 45.071C85.1844 44.1606 88.7696 39.4101 88.2279 34.1905L78.2813 35.2227ZM54.004 36.8555L44.1291 38.4321C44.9039 43.2849 49.0898 46.8555 54.004 46.8555V36.8555ZM53.1876 31.7422V21.7422C50.26 21.7422 47.4794 23.0251 45.5795 25.2525C43.6795 27.4798 42.8511 30.4279 43.3127 33.3189L53.1876 31.7422ZM62.5548 31.6133L62.8772 41.6081C68.2717 41.4341 72.5548 37.0106 72.5548 31.6133H62.5548ZM62.5548 29.8945H72.5548C72.5548 24.9967 69.0073 20.8197 64.1741 20.0265L62.5548 29.8945ZM69.6446 24.2656L79.6359 24.6819C79.6469 24.4199 79.6475 24.1576 79.6378 23.8955L69.6446 24.2656ZM86.7462 10.3437H96.7462C96.7462 4.8209 92.269 0.34375 86.7462 0.34375V10.3437ZM86.7462 37.3711V47.3711C92.269 47.3711 96.7462 42.8939 96.7462 37.3711H86.7462ZM79.7423 37.3711H69.7423C69.7423 42.8939 74.2194 47.3711 79.7423 47.3711V37.3711ZM79.7423 10.3437V0.34375C74.2194 0.34375 69.7423 4.8209 69.7423 10.3437H79.7423ZM86.7462 38.7461H96.7462C96.7462 33.2232 92.269 28.7461 86.7462 28.7461V38.7461ZM86.7462 49.9609V59.9609C92.269 59.9609 96.7462 55.4838 96.7462 49.9609H86.7462ZM79.7423 49.9609H69.7423C69.7423 55.4838 74.2194 59.9609 79.7423 59.9609V49.9609ZM79.7423 43.9453H89.7423C89.7423 38.4225 85.2651 33.9453 79.7423 33.9453V43.9453ZM58.6016 43.9453H48.6016C48.6016 49.4682 53.0788 53.9453 58.6016 53.9453V43.9453ZM58.6016 38.7461V28.7461C53.0788 28.7461 48.6016 33.2232 48.6016 38.7461H58.6016ZM77.8087 12.75H67.8087V17.6484H77.8087L87.8087 17.6484V12.75L77.8087 12.75ZM77.8087 17.6484V7.64844H54.2618V17.6484V27.6484H77.8087V17.6484ZM54.2618 17.6484H64.2618V12.75H54.2618H44.2618V17.6484H54.2618ZM54.2618 12.75V22.75H62.5548V12.75V2.75L54.2618 2.75V12.75ZM62.5548 12.75H72.5548V10H62.5548H52.5548V12.75H62.5548ZM62.5548 10V20H69.4298V10V0H62.5548V10ZM69.4298 10H59.4298V12.75H69.4298L79.4298 12.75V10H69.4298ZM69.4298 12.75V22.75H77.8087V12.75V2.75H69.4298V12.75ZM66.0352 18.1641V28.1641C66.8864 28.1641 67.5173 28.2504 67.9311 28.3452C68.359 28.4433 68.4378 28.5227 68.2835 28.4312C68.1258 28.3377 67.5984 27.9861 67.0909 27.2058C66.5419 26.3618 66.2188 25.317 66.2188 24.2656H76.2188L86.2188 24.2656C86.2188 18.0305 82.4976 13.6073 78.4823 11.227C74.6802 8.97307 70.207 8.16406 66.0352 8.16406V18.1641ZM76.2188 24.2656H66.2188C66.2188 23.4251 66.4228 22.5343 66.8401 21.7206C67.2432 20.9346 67.734 20.4336 68.0706 20.1606C68.6583 19.6837 68.7841 19.8693 67.8358 20.0224L69.4298 29.8945L71.0237 39.7667C74.2004 39.2538 77.7208 38.0858 80.6718 35.6915C83.8472 33.1151 86.2188 29.1598 86.2188 24.2656L76.2188 24.2656ZM69.4298 29.8945H59.4298V31.3555H69.4298H79.4298V29.8945H69.4298ZM69.4298 31.3555L69.9554 41.3416C72.9526 41.1839 76.024 40.9539 79.0001 40.5967L77.8087 30.668L76.6172 20.7392C74.2222 21.0266 71.6218 21.2263 68.9042 21.3693L69.4298 31.3555ZM77.8087 30.668L67.8621 31.7002L68.3347 36.2548L78.2813 35.2227L88.2279 34.1905L87.7553 29.6358L77.8087 30.668ZM78.2813 35.2227L76.5464 25.3743C69.1805 26.6719 60.8258 26.8555 54.004 26.8555V36.8555V46.8555C60.9322 46.8555 70.7962 46.6953 80.0163 45.071L78.2813 35.2227ZM54.004 36.8555L63.8789 35.2788L63.0625 30.1655L53.1876 31.7422L43.3127 33.3189L44.1291 38.4321L54.004 36.8555ZM53.1876 31.7422V41.7422C56.0902 41.7422 59.3916 41.7205 62.8772 41.6081L62.5548 31.6133L62.2323 21.6185C59.0578 21.7209 55.9998 21.7422 53.1876 21.7422V31.7422ZM62.5548 31.6133H72.5548V29.8945H62.5548H52.5548V31.6133H62.5548ZM62.5548 29.8945L64.1741 20.0265C63.1519 19.8588 63.2916 19.6652 63.9051 20.165C64.2581 20.4525 64.7566 20.9689 65.1599 21.7659C65.5757 22.5874 65.7657 23.4645 65.7657 24.2656H55.7657H45.7657C45.7657 29.0909 48.0607 33.0538 51.2732 35.671C54.2339 38.0828 57.7681 39.2428 60.9354 39.7625L62.5548 29.8945ZM55.7657 24.2656H65.7657C65.7657 25.2739 65.4616 26.3064 64.9105 27.1632C64.3982 27.9597 63.8563 28.3264 63.6796 28.4312C63.51 28.5317 63.5821 28.4519 64.0261 28.3515C64.4562 28.2542 65.1217 28.1641 66.0352 28.1641V18.1641V8.16406C61.8224 8.16406 57.3108 8.95649 53.4807 11.227C49.3919 13.651 45.7657 18.1006 45.7657 24.2656H55.7657ZM66.0352 22.6758V12.6758C64.6011 12.6758 62.0812 12.7621 59.5933 13.7789C58.2281 14.3369 56.3592 15.3809 54.8181 17.3347C53.1579 19.4394 52.4259 21.9094 52.4259 24.2656H62.4259H72.4259C72.4259 26.0418 71.8603 28.023 70.521 29.7209C69.3009 31.2678 67.9073 31.9869 67.1597 32.2924C65.9072 32.8043 65.192 32.6758 66.0352 32.6758V22.6758ZM62.4259 24.2656H52.4259C52.4259 26.903 53.3617 29.4943 55.1817 31.5504C56.813 33.3932 58.6997 34.2993 59.946 34.7545C62.279 35.6065 64.6395 35.6836 66.0352 35.6836V25.6836V15.6836C65.1536 15.6836 65.7094 15.5673 66.8071 15.9682C67.4357 16.1977 68.8471 16.8138 70.1574 18.2941C71.6565 19.9876 72.4259 22.1439 72.4259 24.2656H62.4259ZM66.0352 25.6836V35.6836C67.4422 35.6836 69.7042 35.5876 71.9666 34.7824C74.1961 33.9888 79.3635 31.2196 79.6359 24.6819L69.6446 24.2656L59.6533 23.8493C59.7502 21.523 60.7401 19.4442 62.182 17.9583C63.4357 16.6663 64.7141 16.1347 65.2601 15.9403C66.2549 15.5862 66.7337 15.6836 66.0352 15.6836V25.6836ZM69.6446 24.2656L79.6378 23.8955C79.4161 17.912 75.0611 14.8398 72.3137 13.7455C69.9028 12.7852 67.4905 12.6758 66.0352 12.6758V22.6758V32.6758C66.6854 32.6758 66.0563 32.7812 64.913 32.3258C64.2589 32.0653 62.9801 31.4398 61.7943 30.0685C60.4721 28.5395 59.7243 26.6034 59.6515 24.6357L69.6446 24.2656ZM86.7462 10.3437H76.7462V37.3711H86.7462H96.7462V10.3437H86.7462ZM86.7462 37.3711V27.3711H79.7423V37.3711V47.3711H86.7462V37.3711ZM79.7423 37.3711H89.7423V10.3437H79.7423H69.7423V37.3711H79.7423ZM79.7423 10.3437V20.3437H86.7462V10.3437V0.34375L79.7423 0.34375V10.3437ZM86.7462 38.7461H76.7462V49.9609H86.7462H96.7462V38.7461H86.7462ZM86.7462 49.9609V39.9609H79.7423V49.9609V59.9609H86.7462V49.9609ZM79.7423 49.9609H89.7423V43.9453H79.7423H69.7423V49.9609H79.7423ZM79.7423 43.9453V33.9453H58.6016V43.9453V53.9453H79.7423V43.9453ZM58.6016 43.9453H68.6016V38.7461H58.6016H48.6016V43.9453H58.6016ZM58.6016 38.7461V48.7461H86.7462V38.7461V28.7461H58.6016V38.7461ZM123.828 17.4336L133.828 17.5316C133.828 17.466 133.828 17.4003 133.828 17.3346L123.828 17.4336ZM94.3946 17.4336L104.394 17.5316C104.395 17.466 104.395 17.4003 104.394 17.3346L94.3946 17.4336ZM109.133 19.1953L109.053 29.195C109.106 29.1954 109.159 29.1954 109.212 29.195L109.133 19.1953ZM127.266 25.5117H137.266C137.266 19.9889 132.789 15.5117 127.266 15.5117V25.5117ZM127.266 30.9688V40.9688C132.789 40.9688 137.266 36.4916 137.266 30.9688H127.266ZM91.0001 30.9688H81.0001C81.0001 36.4916 85.4772 40.9688 91.0001 40.9688V30.9688ZM91.0001 25.5117V15.5117C85.4772 15.5117 81.0001 19.9889 81.0001 25.5117H91.0001ZM122.969 32.4727H132.969C132.969 26.9498 128.492 22.4727 122.969 22.4727V32.4727ZM122.969 43.4297V53.4297C128.492 53.4297 132.969 48.9525 132.969 43.4297H122.969ZM101.785 43.4297V33.4297C96.2624 33.4297 91.7852 37.9068 91.7852 43.4297H101.785ZM101.785 44.7188H91.7852C91.7852 50.2416 96.2624 54.7188 101.785 54.7188V44.7188ZM123.914 44.7188H133.914C133.914 39.1959 129.437 34.7188 123.914 34.7188V44.7188ZM123.914 49.7891V59.7891C129.437 59.7891 133.914 55.3119 133.914 49.7891H123.914ZM95.0391 49.7891H85.0391C85.0391 55.3119 89.5163 59.7891 95.0391 59.7891V49.7891ZM95.0391 38.7031V28.7031C89.5163 28.7031 85.0391 33.1803 85.0391 38.7031H95.0391ZM116.18 38.7031V48.7031C121.703 48.7031 126.18 44.226 126.18 38.7031H116.18ZM116.18 37.5H126.18C126.18 31.9772 121.703 27.5 116.18 27.5V37.5ZM95.0821 37.5H85.0821C85.0821 43.0228 89.5593 47.5 95.0821 47.5V37.5ZM95.0821 32.4727V22.4727C89.5593 22.4727 85.0821 26.9498 85.0821 32.4727H95.0821ZM109.133 10.7305V20.7305C111.061 20.7305 112.601 20.854 113.779 21.0423C114.984 21.2349 115.614 21.4639 115.836 21.5643C116.067 21.6686 115.558 21.4953 114.951 20.7198C114.243 19.8151 113.84 18.6436 113.829 17.5326L123.828 17.4336L133.828 17.3346C133.755 10.001 128.805 5.4816 124.086 3.34491C119.699 1.3584 114.386 0.730469 109.133 0.730469V10.7305ZM123.828 17.4336L113.829 17.3356C113.839 16.2589 114.227 15.1035 114.93 14.1999C115.533 13.4232 116.043 13.2464 115.82 13.3479C115.604 13.4464 114.979 13.6751 113.776 13.8677C112.599 14.0561 111.062 14.1797 109.133 14.1797V24.1797V34.1797C114.383 34.1797 119.705 33.5527 124.102 31.5525C128.856 29.3898 133.756 24.8447 133.828 17.5316L123.828 17.4336ZM109.133 24.1797V14.1797C107.191 14.1797 105.637 14.0559 104.442 13.866C103.22 13.6717 102.58 13.4401 102.354 13.3379C102.116 13.2303 102.648 13.4109 103.273 14.2197C104.007 15.1692 104.405 16.3917 104.394 17.5316L94.3946 17.4336L84.3951 17.3356C84.3217 24.8231 89.3778 29.4207 94.1159 31.5625C98.5216 33.554 103.867 34.1797 109.133 34.1797V24.1797ZM94.3946 17.4336L104.394 17.3346C104.406 18.51 103.992 19.7493 103.251 20.7001C102.623 21.5075 102.092 21.6846 102.338 21.5742C102.569 21.4701 103.214 21.2383 104.439 21.044C105.635 20.8543 107.192 20.7305 109.133 20.7305V10.7305V0.730469C103.865 0.730469 98.5284 1.35713 94.1321 3.33501C89.4306 5.45016 84.3207 10.0224 84.3951 17.5326L94.3946 17.4336ZM109.133 15.7148V5.71484C106.384 5.71484 103.514 5.82356 101.107 6.37987C99.9514 6.64699 97.9082 7.22748 95.9703 8.70487C93.5957 10.5151 91.6134 13.551 91.6134 17.4336H101.613H111.613C111.613 18.8391 111.282 20.3346 110.531 21.7365C109.803 23.0949 108.867 24.0218 108.096 24.6101C107.349 25.1793 106.69 25.4844 106.321 25.6336C105.939 25.7877 105.677 25.8509 105.611 25.8662C105.507 25.8903 105.706 25.8378 106.392 25.7897C107.039 25.7443 107.932 25.7148 109.133 25.7148V15.7148ZM101.613 17.4336H91.6134C91.6134 20.7388 93.0512 23.9208 95.7526 26.101C97.8752 27.8141 100.159 28.3935 101.314 28.6349C103.67 29.1269 106.577 29.1752 109.053 29.195L109.133 19.1953L109.213 9.19563C107.917 9.18527 106.963 9.16247 106.246 9.12269C105.477 9.0801 105.284 9.03238 105.404 9.05747C105.485 9.07445 105.803 9.14408 106.257 9.32355C106.704 9.50075 107.473 9.85892 108.313 10.5373C109.202 11.2542 110.112 12.2853 110.762 13.6648C111.409 15.0364 111.613 16.3624 111.613 17.4336H101.613ZM109.133 19.1953L109.212 29.195C111.708 29.1752 114.624 29.1268 116.98 28.6367C118.135 28.3966 120.421 27.8195 122.547 26.1082C125.255 23.9273 126.695 20.7412 126.695 17.4336H116.695H106.695C106.695 16.3624 106.9 15.0346 107.548 13.6606C108.2 12.2786 109.114 11.2466 110.004 10.5301C110.846 9.85229 111.614 9.4953 112.061 9.31926C112.513 9.14087 112.829 9.07207 112.908 9.05567C113.024 9.03167 112.824 9.07977 112.049 9.1225C111.324 9.16243 110.361 9.18525 109.054 9.19563L109.133 19.1953ZM116.695 17.4336H126.695C126.695 13.5477 124.71 10.5088 122.329 8.69801C120.388 7.22202 118.343 6.64363 117.187 6.37768C114.778 5.82347 111.9 5.71484 109.133 5.71484V15.7148V25.7148C110.346 25.7148 111.248 25.7443 111.903 25.79C112.597 25.8384 112.802 25.8913 112.702 25.8684C112.638 25.8536 112.377 25.7912 111.997 25.638C111.628 25.4897 110.969 25.1856 110.221 24.6169C109.448 24.0291 108.51 23.1016 107.78 21.741C107.027 20.3367 106.695 18.8393 106.695 17.4336H116.695ZM127.266 25.5117H117.266V30.9688H127.266H137.266V25.5117H127.266ZM127.266 30.9688V20.9687H91.0001V30.9688V40.9688H127.266V30.9688ZM91.0001 30.9688H101V25.5117H91.0001H81.0001V30.9688H91.0001ZM91.0001 25.5117V35.5117H127.266V25.5117V15.5117H91.0001V25.5117ZM122.969 32.4727H112.969V43.4297H122.969H132.969V32.4727H122.969ZM122.969 43.4297V33.4297H101.785V43.4297V53.4297H122.969V43.4297ZM101.785 43.4297H91.7852V44.7188H101.785H111.785V43.4297H101.785ZM101.785 44.7188V54.7188H123.914V44.7188V34.7188H101.785V44.7188ZM123.914 44.7188H113.914V49.7891H123.914H133.914V44.7188H123.914ZM123.914 49.7891V39.7891H95.0391V49.7891V59.7891H123.914V49.7891ZM95.0391 49.7891H105.039V38.7031H95.0391H85.0391V49.7891H95.0391ZM95.0391 38.7031V48.7031H116.18V38.7031V28.7031H95.0391V38.7031ZM116.18 38.7031H126.18V37.5H116.18H106.18V38.7031H116.18ZM116.18 37.5V27.5H95.0821V37.5V47.5H116.18V37.5ZM95.0821 37.5H105.082V32.4727H95.0821H85.0821V37.5H95.0821ZM95.0821 32.4727V42.4727H122.969V32.4727V22.4727H95.0821V32.4727ZM161.211 11.8477H171.211C171.211 6.32481 166.734 1.84766 161.211 1.84766V11.8477ZM161.211 17.1758V27.1758C166.734 27.1758 171.211 22.6986 171.211 17.1758H161.211ZM154.121 17.1758V7.17578C151.114 7.17578 148.267 8.52904 146.367 10.8607C144.468 13.1923 143.719 16.2548 144.328 19.1997L154.121 17.1758ZM162.844 25.082L171.413 30.2372C173.029 27.5504 173.292 24.261 172.122 21.3517C170.952 18.4425 168.486 16.2503 165.459 15.4302L162.844 25.082ZM159.664 30.3672L157.194 40.0573C161.471 41.1476 165.957 39.3046 168.233 35.5224L159.664 30.3672ZM150.555 23.8359L159.199 18.8087C157.365 15.6555 153.96 13.7509 150.314 13.8388C146.667 13.9268 143.358 15.9933 141.678 19.2311L150.555 23.8359ZM140.973 31.1836L132.489 36.4775C134.799 40.1801 139.244 41.9567 143.47 40.8667L140.973 31.1836ZM137.621 25.8125L135.008 16.1601C131.953 16.9871 129.47 19.2112 128.313 22.1568C127.156 25.1023 127.462 28.4216 129.137 31.1064L137.621 25.8125ZM146.731 17.1758L156.557 19.0331C157.11 16.1075 156.33 13.0876 154.43 10.7951C152.531 8.50254 149.708 7.17578 146.731 7.17578V17.1758ZM139.426 17.1758H129.426C129.426 22.6986 133.903 27.1758 139.426 27.1758V17.1758ZM139.426 11.8477V1.84766C133.903 1.84766 129.426 6.32481 129.426 11.8477H139.426ZM170.406 10.2148L180.406 10.2148C180.406 4.692 175.929 0.214844 170.406 0.214844V10.2148ZM170.406 17.5625H160.406C160.406 23.0853 164.883 27.5625 170.406 27.5625V17.5625ZM175.348 17.5625H185.348C185.348 12.0397 180.871 7.5625 175.348 7.5625V17.5625ZM175.348 23.0625V33.0625C180.871 33.0625 185.348 28.5853 185.348 23.0625H175.348ZM170.406 23.0625V13.0625C164.883 13.0625 160.406 17.5397 160.406 23.0625H170.406ZM170.406 30.5391V40.5391C175.929 40.5391 180.406 36.0619 180.406 30.5391H170.406ZM163.488 30.5391H153.488C153.488 36.0619 157.966 40.5391 163.488 40.5391V30.5391ZM163.488 10.2148V0.214844C157.966 0.214844 153.488 4.692 153.488 10.2148H163.488ZM170.406 31.8711H180.406C180.406 26.3482 175.929 21.8711 170.406 21.8711V31.8711ZM170.406 43V53C175.929 53 180.406 48.5228 180.406 43H170.406ZM150.254 43V33C144.731 33 140.254 37.4772 140.254 43L150.254 43ZM150.254 44.418L140.254 44.418C140.254 49.9408 144.731 54.418 150.254 54.418V44.418ZM171.352 44.418H181.352C181.352 38.8951 176.874 34.418 171.352 34.418V44.418ZM171.352 49.5742V59.5742C176.874 59.5742 181.352 55.0971 181.352 49.5742H171.352ZM143.422 49.5742L133.422 49.5742C133.422 55.0971 137.899 59.5742 143.422 59.5742V49.5742ZM143.422 38.2305V28.2305C137.899 28.2305 133.422 32.7076 133.422 38.2305L143.422 38.2305ZM163.531 38.2305V48.2305C169.054 48.2305 173.531 43.7533 173.531 38.2305H163.531ZM163.531 36.9844H173.531C173.531 31.4615 169.054 26.9844 163.531 26.9844V36.9844ZM143.422 36.9844L133.422 36.9844C133.422 42.5072 137.899 46.9844 143.422 46.9844V36.9844ZM143.422 31.8711V21.8711C137.899 21.8711 133.422 26.3482 133.422 31.8711L143.422 31.8711ZM161.211 11.8477H151.211V17.1758H161.211H171.211V11.8477H161.211ZM161.211 17.1758V7.17578H154.121V17.1758V27.1758H161.211V17.1758ZM154.121 17.1758L144.328 19.1997C145.863 26.6256 151.492 32.3666 160.228 34.7339L162.844 25.082L165.459 15.4302C163.98 15.0293 163.603 14.6052 163.665 14.667C163.686 14.688 163.749 14.7597 163.812 14.878C163.872 14.9914 163.902 15.0907 163.914 15.1519L154.121 17.1758ZM162.844 25.082L154.275 19.9268L151.095 25.212L159.664 30.3672L168.233 35.5224L171.413 30.2372L162.844 25.082ZM159.664 30.3672L162.134 20.677C161.086 20.4098 160.45 20.0568 160.067 19.7742C159.688 19.4947 159.415 19.1797 159.199 18.8087L150.555 23.8359L141.91 28.8632C145.098 34.3451 150.364 38.3162 157.194 40.0573L159.664 30.3672ZM150.555 23.8359L141.678 19.2311C141.382 19.8015 141.046 20.1996 140.656 20.5089C140.267 20.8179 139.612 21.2072 138.475 21.5005L140.973 31.1836L143.47 40.8667C150.953 38.9366 156.332 34.4151 159.431 28.4407L150.555 23.8359ZM140.973 31.1836L149.457 25.8897L146.105 20.5186L137.621 25.8125L129.137 31.1064L132.489 36.4775L140.973 31.1836ZM137.621 25.8125L140.235 35.4649C149.636 32.9194 155.132 26.5692 156.557 19.0331L146.731 17.1758L136.905 15.3184C136.894 15.3763 136.886 15.3791 136.901 15.3485C136.92 15.3112 136.938 15.2917 136.929 15.3019C136.918 15.313 136.818 15.4167 136.547 15.5696C136.269 15.7264 135.784 15.9498 135.008 16.1601L137.621 25.8125ZM146.731 17.1758V7.17578H139.426V17.1758V27.1758H146.731V17.1758ZM139.426 17.1758H149.426V11.8477H139.426H129.426V17.1758H139.426ZM139.426 11.8477V21.8477H161.211V11.8477V1.84766L139.426 1.84766V11.8477ZM170.406 10.2148H160.406V17.5625H170.406H180.406V10.2148L170.406 10.2148ZM170.406 17.5625V27.5625H175.348V17.5625V7.5625L170.406 7.5625V17.5625ZM175.348 17.5625H165.348V23.0625H175.348H185.348V17.5625H175.348ZM175.348 23.0625V13.0625H170.406V23.0625V33.0625H175.348V23.0625ZM170.406 23.0625H160.406V30.5391H170.406H180.406V23.0625H170.406ZM170.406 30.5391V20.5391H163.488V30.5391V40.5391H170.406V30.5391ZM163.488 30.5391H173.488V10.2148H163.488H153.488V30.5391H163.488ZM163.488 10.2148V20.2148H170.406V10.2148V0.214844L163.488 0.214844V10.2148ZM170.406 31.8711H160.406V43H170.406H180.406V31.8711H170.406ZM170.406 43V33H150.254V43V53H170.406V43ZM150.254 43L140.254 43V44.418L150.254 44.418H160.254V43H150.254ZM150.254 44.418V54.418H171.352V44.418V34.418H150.254V44.418ZM171.352 44.418H161.352V49.5742H171.352H181.352V44.418H171.352ZM171.352 49.5742V39.5742H143.422V49.5742V59.5742H171.352V49.5742ZM143.422 49.5742H153.422V38.2305H143.422L133.422 38.2305V49.5742L143.422 49.5742ZM143.422 38.2305V48.2305H163.531V38.2305V28.2305H143.422V38.2305ZM163.531 38.2305H173.531V36.9844H163.531H153.531V38.2305H163.531ZM163.531 36.9844V26.9844H143.422V36.9844V46.9844H163.531V36.9844ZM143.422 36.9844H153.422V31.8711H143.422L133.422 31.8711V36.9844L143.422 36.9844ZM143.422 31.8711V41.8711H170.406V31.8711V21.8711H143.422V31.8711ZM206.07 36.168L214.266 41.8981C215.806 39.6956 216.394 36.9658 215.899 34.3244C215.404 31.6829 213.866 29.3521 211.632 27.8573L206.07 36.168ZM202.375 41.4531L197.221 50.0228C201.726 52.7317 207.559 51.4911 210.571 47.1833L202.375 41.4531ZM196.188 33.2891L205.651 30.0563C204.271 26.0191 200.483 23.3014 196.216 23.2891C191.95 23.2768 188.146 25.9726 186.743 30.0018L196.188 33.2891ZM189.441 42.3984L181.69 48.7166C184.852 52.5948 190.393 53.5398 194.661 50.9285L189.441 42.3984ZM185.274 37.2852L179.905 28.8485C177.495 30.3817 175.857 32.8719 175.401 35.6911C174.946 38.5104 175.718 41.3898 177.522 43.6033L185.274 37.2852ZM192.836 13.4375V3.4375C187.313 3.4375 182.836 7.91465 182.836 13.4375H192.836ZM199.539 13.4375L209.539 13.4375C209.539 7.91465 205.062 3.4375 199.539 3.4375V13.4375ZM220.895 10.2148H230.895C230.895 4.692 226.417 0.214844 220.895 0.214844V10.2148ZM220.895 49.9609V59.9609C226.417 59.9609 230.895 55.4838 230.895 49.9609H220.895ZM214.32 49.9609H204.32C204.32 55.4838 208.798 59.9609 214.32 59.9609V49.9609ZM214.32 10.2148V0.214844C208.798 0.214844 204.32 4.692 204.32 10.2148H214.32ZM212.516 10.6875H222.516C222.516 5.16465 218.039 0.6875 212.516 0.6875V10.6875ZM212.516 48.2422V58.2422C218.039 58.2422 222.516 53.765 222.516 48.2422H212.516ZM206.113 48.2422H196.113C196.113 53.765 200.591 58.2422 206.113 58.2422V48.2422ZM206.113 28.6484H216.113C216.113 23.1256 211.636 18.6484 206.113 18.6484V28.6484ZM201.988 28.6484H191.988C191.988 34.1713 196.466 38.6484 201.988 38.6484V28.6484ZM201.988 23.1055V13.1055C196.466 13.1055 191.988 17.5826 191.988 23.1055H201.988ZM206.113 23.1055V33.1055C211.636 33.1055 216.113 28.6283 216.113 23.1055H206.113ZM206.113 10.6875V0.6875C200.591 0.6875 196.113 5.16465 196.113 10.6875H206.113ZM199.539 19.4102H189.539C189.539 26.1285 190.286 37.6371 200.509 44.4786L206.07 36.168L211.632 27.8573C211.055 27.471 210.612 26.9631 210.23 25.7746C209.773 24.354 209.539 22.3319 209.539 19.4102L199.539 19.4102ZM206.07 36.168L197.875 30.4378L194.18 35.723L202.375 41.4531L210.571 47.1833L214.266 41.8981L206.07 36.168ZM202.375 41.4531L207.529 32.8835C206.983 32.555 206.285 31.914 205.651 30.0563L196.188 33.2891L186.725 36.5218C188.453 41.5821 191.623 46.6559 197.221 50.0228L202.375 41.4531ZM196.188 33.2891L186.743 30.0018C185.876 32.493 184.907 33.4497 184.222 33.8684L189.441 42.3984L194.661 50.9285C200.507 47.3511 203.792 41.8624 205.632 36.5763L196.188 33.2891ZM189.441 42.3984L197.193 36.0803L193.025 30.967L185.274 37.2852L177.522 43.6033L181.69 48.7166L189.441 42.3984ZM185.274 37.2852L190.642 45.7218C201.332 38.9193 202.836 27.2377 202.836 19.7539H192.836H182.836C182.836 25.5905 181.504 27.8307 179.905 28.8485L185.274 37.2852ZM192.836 19.7539H202.836V13.4375H192.836H182.836V19.7539H192.836ZM192.836 13.4375V23.4375H199.539V13.4375V3.4375H192.836V13.4375ZM199.539 13.4375H189.539V19.4102H199.539L209.539 19.4102V13.4375L199.539 13.4375ZM220.895 10.2148H210.895V49.9609H220.895H230.895V10.2148H220.895ZM220.895 49.9609V39.9609H214.32V49.9609V59.9609H220.895V49.9609ZM214.32 49.9609H224.32V10.2148H214.32H204.32V49.9609H214.32ZM214.32 10.2148V20.2148H220.895V10.2148V0.214844H214.32V10.2148ZM212.516 10.6875H202.516V48.2422H212.516H222.516V10.6875H212.516ZM212.516 48.2422V38.2422H206.113V48.2422V58.2422H212.516V48.2422ZM206.113 48.2422H216.113V28.6484H206.113L196.113 28.6484V48.2422H206.113ZM206.113 28.6484V18.6484L201.988 18.6484V28.6484V38.6484H206.113V28.6484ZM201.988 28.6484L211.988 28.6484V23.1055L201.988 23.1055H191.988V28.6484H201.988ZM201.988 23.1055V33.1055H206.113V23.1055V13.1055L201.988 13.1055V23.1055ZM206.113 23.1055H216.113V10.6875H206.113H196.113V23.1055L206.113 23.1055ZM206.113 10.6875V20.6875H212.516V10.6875V0.6875H206.113V10.6875ZM260.512 32.1289H270.512C270.512 26.6061 266.035 22.1289 260.512 22.1289V32.1289ZM260.512 37.6719V47.6719C266.035 47.6719 270.512 43.1947 270.512 37.6719H260.512ZM245.645 37.6719V27.6719C240.122 27.6719 235.645 32.149 235.645 37.6719H245.645ZM245.645 50.0469V60.0469C251.167 60.0469 255.645 55.5697 255.645 50.0469H245.645ZM238.813 50.0469H228.813C228.813 55.5697 233.29 60.0469 238.813 60.0469V50.0469ZM238.813 37.6719H248.813C248.813 32.149 244.335 27.6719 238.813 27.6719V37.6719ZM224.246 37.6719H214.246C214.246 43.1947 218.723 47.6719 224.246 47.6719V37.6719ZM224.246 32.1289V22.1289C218.723 22.1289 214.246 26.6061 214.246 32.1289H224.246ZM242.25 11.418L242.2 21.4178C242.233 21.418 242.267 21.418 242.3 21.4178L242.25 11.418ZM227.555 20.6133L237.554 20.692C237.555 20.6403 237.555 20.5886 237.554 20.5369L227.555 20.6133ZM260.512 32.1289H250.512V37.6719H260.512H270.512V32.1289H260.512ZM260.512 37.6719V27.6719H245.645V37.6719V47.6719H260.512V37.6719ZM245.645 37.6719H235.645V50.0469H245.645H255.645V37.6719H245.645ZM245.645 50.0469V40.0469H238.813V50.0469V60.0469H245.645V50.0469ZM238.813 50.0469H248.813V37.6719H238.813H228.813V50.0469H238.813ZM238.813 37.6719V27.6719H224.246V37.6719V47.6719H238.813V37.6719ZM224.246 37.6719H234.246V32.1289H224.246H214.246V37.6719H224.246ZM224.246 32.1289V42.1289H260.512V32.1289V22.1289H224.246V32.1289ZM242.25 11.418L242.3 21.4178C245.376 21.4025 247.104 22.0665 247.697 22.428C247.944 22.5787 247.772 22.5381 247.524 22.1453C247.239 21.6957 247.074 21.1253 247.074 20.6133H257.074H267.074C267.074 13.5428 262.99 8.32617 258.105 5.34939C253.445 2.50971 247.76 1.39043 242.2 1.41809L242.25 11.418ZM257.074 20.6133H247.074C247.074 19.9913 247.277 19.3458 247.593 18.8607C247.867 18.4401 248.054 18.3978 247.787 18.5564C247.157 18.9315 245.375 19.5937 242.25 19.5937V29.5937V39.5937C247.762 39.5937 253.392 38.4942 258.015 35.7434C262.834 32.8756 267.074 27.7432 267.074 20.6133H257.074ZM242.25 29.5937V19.5937C239.122 19.5937 237.383 18.9303 236.8 18.5797C236.56 18.4349 236.765 18.496 237.047 18.9369C237.369 19.4413 237.559 20.0898 237.554 20.692L227.555 20.6133L217.555 20.5345C217.499 27.6379 221.657 32.8117 226.495 35.7201C231.111 38.4955 236.742 39.5937 242.25 39.5937V29.5937ZM227.555 20.6133L237.554 20.5369C237.558 21.0296 237.405 21.602 237.115 22.0694C236.859 22.4814 236.669 22.5405 236.89 22.404C237.437 22.0678 239.12 21.4025 242.2 21.4178L242.25 11.418L242.3 1.41809C236.743 1.39045 231.058 2.50834 226.405 5.3733C221.504 8.39078 217.501 13.6473 217.555 20.6896L227.555 20.6133ZM242.25 16.875V6.875C239.31 6.875 235.663 7.20161 232.381 8.75456C230.634 9.5816 228.637 10.9249 227.067 13.0883C225.421 15.3585 224.645 17.9892 224.645 20.6133H234.645H244.645C244.645 21.9698 244.223 23.4994 243.257 24.831C242.369 26.0558 241.379 26.623 240.936 26.8323C240.506 27.0362 240.345 27.0233 240.656 26.9728C240.939 26.9267 241.455 26.875 242.25 26.875V16.875ZM234.645 20.6133H224.645C224.645 26.9207 228.889 30.7275 232.504 32.3787C235.716 33.8459 239.289 34.1797 242.25 34.1797V24.1797V14.1797C241.457 14.1797 240.929 14.1283 240.628 14.0801C240.299 14.0276 240.422 14.0078 240.814 14.1868C241.201 14.3635 242.187 14.8911 243.106 16.093C244.124 17.4246 244.645 19.0498 244.645 20.6133H234.645ZM242.25 24.1797V34.1797C245.231 34.1797 248.826 33.8515 252.05 32.3787C255.727 30.6993 259.899 26.8678 259.899 20.6133H249.899H239.899C239.899 19.0854 240.4 17.4674 241.42 16.1234C242.343 14.9062 243.341 14.3691 243.74 14.1868C244.141 14.0039 244.267 14.0244 243.928 14.0781C243.618 14.1273 243.072 14.1797 242.25 14.1797V24.1797ZM249.899 20.6133H259.899C259.899 18.0228 259.144 15.3994 257.503 13.1187C255.936 10.9408 253.933 9.58755 252.173 8.75456C248.879 7.19584 245.21 6.875 242.25 6.875V16.875V26.875C243.075 26.875 243.608 26.9277 243.901 26.9749C244.221 27.0267 244.057 27.0403 243.617 26.8323C243.162 26.617 242.161 26.0399 241.269 24.8006C240.304 23.4585 239.899 21.9362 239.899 20.6133H249.899ZM294.629 20.3125H304.629C304.629 14.7897 300.152 10.3125 294.629 10.3125V20.3125ZM294.629 25.6406V35.6406C300.152 35.6406 304.629 31.1635 304.629 25.6406H294.629ZM266.527 25.6406H256.527C256.527 31.1635 261.005 35.6406 266.527 35.6406V25.6406ZM266.527 11.6328V1.63281C261.005 1.63281 256.527 6.10997 256.527 11.6328H266.527ZM273.402 11.6328H283.402C283.402 6.10997 278.925 1.63281 273.402 1.63281V11.6328ZM273.402 20.3125H263.402C263.402 25.8353 267.88 30.3125 273.402 30.3125V20.3125ZM298.539 29.1641H308.539C308.539 23.6412 304.062 19.1641 298.539 19.1641V29.1641ZM298.539 34.4922V44.4922C304.062 44.4922 308.539 40.015 308.539 34.4922H298.539ZM262.274 34.4922H252.274C252.274 40.015 256.751 44.4922 262.274 44.4922V34.4922ZM262.274 29.1641V19.1641C256.751 19.1641 252.274 23.6412 252.274 29.1641H262.274ZM294.887 43.6875H304.887C304.887 38.1647 300.41 33.6875 294.887 33.6875V43.6875ZM294.887 49.1875V59.1875C300.41 59.1875 304.887 54.7103 304.887 49.1875H294.887ZM266.055 49.1875H256.055C256.055 54.7103 260.532 59.1875 266.055 59.1875V49.1875ZM266.055 37.2422V27.2422C260.532 27.2422 256.055 31.7193 256.055 37.2422H266.055ZM273.016 37.2422H283.016C283.016 31.7193 278.539 27.2422 273.016 27.2422V37.2422ZM273.016 43.6875H263.016C263.016 49.2103 267.493 53.6875 273.016 53.6875V43.6875ZM294.629 20.3125H284.629V25.6406H294.629H304.629V20.3125H294.629ZM294.629 25.6406V15.6406H266.527V25.6406V35.6406H294.629V25.6406ZM266.527 25.6406H276.527V11.6328H266.527H256.527V25.6406H266.527ZM266.527 11.6328V21.6328H273.402V11.6328V1.63281H266.527V11.6328ZM273.402 11.6328H263.402V20.3125H273.402H283.402V11.6328H273.402ZM273.402 20.3125V30.3125H294.629V20.3125V10.3125H273.402V20.3125ZM298.539 29.1641H288.539V34.4922H298.539H308.539V29.1641H298.539ZM298.539 34.4922V24.4922H262.274V34.4922V44.4922H298.539V34.4922ZM262.274 34.4922H272.274V29.1641H262.274H252.274V34.4922H262.274ZM262.274 29.1641V39.1641H298.539V29.1641V19.1641H262.274V29.1641ZM294.887 43.6875H284.887V49.1875H294.887H304.887V43.6875H294.887ZM294.887 49.1875V39.1875H266.055V49.1875V59.1875H294.887V49.1875ZM266.055 49.1875H276.055V37.2422H266.055H256.055V49.1875H266.055ZM266.055 37.2422V47.2422H273.016V37.2422V27.2422H266.055V37.2422ZM273.016 37.2422H263.016V43.6875H273.016H283.016V37.2422H273.016ZM273.016 43.6875V53.6875H294.887V43.6875V33.6875H273.016V43.6875Z" fill="white" mask="url(#path-1-outside-1_3990_1439)"/>
</g>
<defs>
<filter id="filter0_d_3990_1439" x="0" y="0" width="312.539" height="68.0469" filterUnits="userSpaceOnUse" color-interpolation-filters="sRGB">
<feFlood flood-opacity="0" result="BackgroundImageFix"/>
<feColorMatrix in="SourceAlpha" type="matrix" values="0 0 0 0 0 0 0 0 0 0 0 0 0 0 0 0 0 0 127 0" result="hardAlpha"/>
<feOffset dy="4"/>
<feGaussianBlur stdDeviation="2"/>
<feComposite in2="hardAlpha" operator="out"/>
<feColorMatrix type="matrix" values="0 0 0 0 0 0 0 0 0 0 0 0 0 0 0 0 0 0 0.07 0"/>
<feBlend mode="normal" in2="BackgroundImageFix" result="effect1_dropShadow_3990_1439"/>
<feBlend mode="normal" in="SourceGraphic" in2="effect1_dropShadow_3990_1439" result="shape"/>
</filter>
</defs>
</svg>
