<svg width="179" height="69" viewBox="0 0 179 69" fill="none" xmlns="http://www.w3.org/2000/svg">
<g filter="url(#filter0_d_3990_1457)">
<mask id="path-1-outside-1_3990_1457" maskUnits="userSpaceOnUse" x="3.09766" y="-0.207031" width="172" height="61" fill="black">
<rect fill="white" x="3.09766" y="-0.207031" width="172" height="61"/>
<path d="M46.3125 12.0625V15.6719C46.3125 18.8301 46.3125 22.2891 45.582 26.543H50.3086V31.957H41.8867V40.0352H35.1836V31.957H32.7773V40.0352H25.9883V31.957H14L14 26.543H38.6641C39.2656 22.998 39.373 20.1191 39.4375 17.3906H18.2109V12.0625L46.3125 12.0625ZM47.3867 43.9883V49.4883H17.5234V36.2109H24.3984V43.9883H47.3867ZM73.9414 13.5234V18.8945H52.1562V13.5234H59.9766V10H66.8516V13.5234H73.9414ZM63.3281 19.7539C68.8711 19.7969 72.9531 22.8906 72.9531 27.2734C72.9531 31.7422 68.8711 34.707 63.3281 34.707C57.7852 34.707 53.7891 31.7422 53.832 27.2734C53.7891 22.8906 57.7852 19.7969 63.3281 19.7539ZM63.3281 24.8672C61.4375 24.8672 60.2344 25.5977 60.2344 27.2734C60.2344 28.9922 61.4375 29.6797 63.3281 29.6367C65.2188 29.6797 66.5938 28.9922 66.5938 27.2734C66.5938 25.5977 65.2188 24.8672 63.3281 24.8672ZM85.8438 10.3008V35.4375H78.9688V32.043H74.5859V26.5859L78.9688 26.5859V23.9648L74.6719 23.9648V18.5078L78.9688 18.5078V10.3008H85.8438ZM72.0938 35.9102C80.6445 35.9102 86.0156 38.6172 86.0586 43.043C86.0156 47.4258 80.6445 50.1328 72.0938 50.1328C63.543 50.1328 58.1719 47.4258 58.1719 43.043C58.1719 38.6172 63.543 35.9102 72.0938 35.9102ZM72.0938 41.1094C67.625 41.1094 65.4336 41.625 65.4766 43.043C65.4336 44.418 67.625 44.9766 72.0938 44.9766C76.4766 44.9766 78.625 44.418 78.625 43.043C78.625 41.625 76.4766 41.1094 72.0938 41.1094ZM105.18 35.0938C105.18 38.0586 106.211 41.0879 109.047 43.2148C111.904 41.002 113.043 37.9512 113.086 35.0938V34.2344H119.832V35.0938C119.832 39.2617 121.508 42.9141 126.922 44.5039L123.613 49.4453C119.939 48.2637 117.598 46.0723 116.223 43.2148C114.891 46.1152 112.635 48.543 109.176 49.832C105.545 48.5645 103.268 46.2012 101.957 43.3438C100.539 46.0938 98.2402 48.2637 94.7383 49.4453L91.3867 44.5039C96.7148 42.7422 98.4336 38.9609 98.4336 35.0938V34.2344H105.18V35.0938ZM123.57 10.3867V32.6445H116.652V10.3867H123.57ZM101.613 12.1914C107.887 12.1914 112.742 16.2305 112.742 21.9453C112.742 27.4883 107.887 31.5703 101.613 31.5703C95.2969 31.5703 90.4414 27.4883 90.4844 21.9453C90.4414 16.2305 95.2969 12.1914 101.613 12.1914ZM101.613 17.9492C98.9922 17.9492 97.1875 19.2812 97.1875 21.9453C97.1875 24.4805 98.9922 25.8984 101.613 25.8555C104.105 25.8984 105.91 24.4805 105.91 21.9453C105.91 19.2812 104.105 17.9492 101.613 17.9492ZM160.438 20.3984V25.7266H132.336V11.7187H139.211V20.3984H160.438ZM164.348 29.25V34.5781L128.082 34.5781V29.25L164.348 29.25ZM160.695 43.7734V49.2734L131.863 49.2734V37.3281H138.824V43.7734L160.695 43.7734Z"/>
</mask>
<path d="M46.3125 12.0625V15.6719C46.3125 18.8301 46.3125 22.2891 45.582 26.543H50.3086V31.957H41.8867V40.0352H35.1836V31.957H32.7773V40.0352H25.9883V31.957H14L14 26.543H38.6641C39.2656 22.998 39.373 20.1191 39.4375 17.3906H18.2109V12.0625L46.3125 12.0625ZM47.3867 43.9883V49.4883H17.5234V36.2109H24.3984V43.9883H47.3867ZM73.9414 13.5234V18.8945H52.1562V13.5234H59.9766V10H66.8516V13.5234H73.9414ZM63.3281 19.7539C68.8711 19.7969 72.9531 22.8906 72.9531 27.2734C72.9531 31.7422 68.8711 34.707 63.3281 34.707C57.7852 34.707 53.7891 31.7422 53.832 27.2734C53.7891 22.8906 57.7852 19.7969 63.3281 19.7539ZM63.3281 24.8672C61.4375 24.8672 60.2344 25.5977 60.2344 27.2734C60.2344 28.9922 61.4375 29.6797 63.3281 29.6367C65.2188 29.6797 66.5938 28.9922 66.5938 27.2734C66.5938 25.5977 65.2188 24.8672 63.3281 24.8672ZM85.8438 10.3008V35.4375H78.9688V32.043H74.5859V26.5859L78.9688 26.5859V23.9648L74.6719 23.9648V18.5078L78.9688 18.5078V10.3008H85.8438ZM72.0938 35.9102C80.6445 35.9102 86.0156 38.6172 86.0586 43.043C86.0156 47.4258 80.6445 50.1328 72.0938 50.1328C63.543 50.1328 58.1719 47.4258 58.1719 43.043C58.1719 38.6172 63.543 35.9102 72.0938 35.9102ZM72.0938 41.1094C67.625 41.1094 65.4336 41.625 65.4766 43.043C65.4336 44.418 67.625 44.9766 72.0938 44.9766C76.4766 44.9766 78.625 44.418 78.625 43.043C78.625 41.625 76.4766 41.1094 72.0938 41.1094ZM105.18 35.0938C105.18 38.0586 106.211 41.0879 109.047 43.2148C111.904 41.002 113.043 37.9512 113.086 35.0938V34.2344H119.832V35.0938C119.832 39.2617 121.508 42.9141 126.922 44.5039L123.613 49.4453C119.939 48.2637 117.598 46.0723 116.223 43.2148C114.891 46.1152 112.635 48.543 109.176 49.832C105.545 48.5645 103.268 46.2012 101.957 43.3438C100.539 46.0938 98.2402 48.2637 94.7383 49.4453L91.3867 44.5039C96.7148 42.7422 98.4336 38.9609 98.4336 35.0938V34.2344H105.18V35.0938ZM123.57 10.3867V32.6445H116.652V10.3867H123.57ZM101.613 12.1914C107.887 12.1914 112.742 16.2305 112.742 21.9453C112.742 27.4883 107.887 31.5703 101.613 31.5703C95.2969 31.5703 90.4414 27.4883 90.4844 21.9453C90.4414 16.2305 95.2969 12.1914 101.613 12.1914ZM101.613 17.9492C98.9922 17.9492 97.1875 19.2812 97.1875 21.9453C97.1875 24.4805 98.9922 25.8984 101.613 25.8555C104.105 25.8984 105.91 24.4805 105.91 21.9453C105.91 19.2812 104.105 17.9492 101.613 17.9492ZM160.438 20.3984V25.7266H132.336V11.7187H139.211V20.3984H160.438ZM164.348 29.25V34.5781L128.082 34.5781V29.25L164.348 29.25ZM160.695 43.7734V49.2734L131.863 49.2734V37.3281H138.824V43.7734L160.695 43.7734Z" fill="#11DCA9"/>
<path d="M46.3125 12.0625H56.3125C56.3125 6.53965 51.8353 2.0625 46.3125 2.0625V12.0625ZM45.582 26.543L35.7263 24.8506C35.2273 27.7561 36.0359 30.7338 37.936 32.988C39.836 35.2421 42.6339 36.543 45.582 36.543V26.543ZM50.3086 26.543H60.3086C60.3086 21.0201 55.8314 16.543 50.3086 16.543V26.543ZM50.3086 31.957V41.957C55.8314 41.957 60.3086 37.4799 60.3086 31.957H50.3086ZM41.8867 31.957V21.957C36.3639 21.957 31.8867 26.4342 31.8867 31.957H41.8867ZM41.8867 40.0352V50.0352C47.4096 50.0352 51.8867 45.558 51.8867 40.0352H41.8867ZM35.1836 40.0352H25.1836C25.1836 45.558 29.6607 50.0352 35.1836 50.0352V40.0352ZM35.1836 31.957H45.1836C45.1836 26.4342 40.7064 21.957 35.1836 21.957V31.957ZM32.7773 31.957V21.957C27.2545 21.957 22.7773 26.4342 22.7773 31.957H32.7773ZM32.7773 40.0352V50.0352C38.3002 50.0352 42.7773 45.558 42.7773 40.0352H32.7773ZM25.9883 40.0352H15.9883C15.9883 45.558 20.4654 50.0352 25.9883 50.0352V40.0352ZM25.9883 31.957H35.9883C35.9883 26.4342 31.5111 21.957 25.9883 21.957V31.957ZM14 31.957H4C4 37.4799 8.47715 41.957 14 41.957V31.957ZM14 26.543V16.543C8.47715 16.543 4 21.0201 4 26.543H14ZM38.6641 26.543V36.543C43.5413 36.543 47.7071 33.0245 48.5231 28.216L38.6641 26.543ZM39.4375 17.3906L49.4347 17.6268C49.4983 14.9344 48.4733 12.3302 46.5916 10.4035C44.7099 8.47688 42.1306 7.39062 39.4375 7.39062V17.3906ZM18.2109 17.3906H8.21094C8.21094 22.9135 12.6881 27.3906 18.2109 27.3906V17.3906ZM18.2109 12.0625V2.0625C12.6881 2.0625 8.21094 6.53965 8.21094 12.0625H18.2109ZM47.3867 43.9883H57.3867C57.3867 38.4654 52.9096 33.9883 47.3867 33.9883V43.9883ZM47.3867 49.4883V59.4883C52.9096 59.4883 57.3867 55.0111 57.3867 49.4883H47.3867ZM17.5234 49.4883H7.52344C7.52344 55.0111 12.0006 59.4883 17.5234 59.4883V49.4883ZM17.5234 36.2109V26.2109C12.0006 26.2109 7.52344 30.6881 7.52344 36.2109H17.5234ZM24.3984 36.2109H34.3984C34.3984 30.6881 29.9213 26.2109 24.3984 26.2109V36.2109ZM24.3984 43.9883H14.3984C14.3984 49.5111 18.8756 53.9883 24.3984 53.9883V43.9883ZM46.3125 12.0625L36.3125 12.0625V15.6719H46.3125H56.3125V12.0625H46.3125ZM46.3125 15.6719H36.3125C36.3125 18.8104 36.299 21.5154 35.7263 24.8506L45.582 26.543L55.4378 28.2354C56.326 23.0628 56.3125 18.8498 56.3125 15.6719H46.3125ZM45.582 26.543V36.543H50.3086V26.543V16.543H45.582V26.543ZM50.3086 26.543H40.3086V31.957H50.3086H60.3086V26.543H50.3086ZM50.3086 31.957V21.957H41.8867V31.957V41.957H50.3086V31.957ZM41.8867 31.957H31.8867V40.0352H41.8867H51.8867V31.957H41.8867ZM41.8867 40.0352V30.0352H35.1836V40.0352V50.0352H41.8867V40.0352ZM35.1836 40.0352H45.1836V31.957H35.1836H25.1836V40.0352H35.1836ZM35.1836 31.957V21.957H32.7773V31.957V41.957H35.1836V31.957ZM32.7773 31.957H22.7773V40.0352H32.7773H42.7773V31.957H32.7773ZM32.7773 40.0352V30.0352H25.9883V40.0352V50.0352H32.7773V40.0352ZM25.9883 40.0352H35.9883V31.957H25.9883H15.9883L15.9883 40.0352H25.9883ZM25.9883 31.957V21.957H14L14 31.957V41.957H25.9883V31.957ZM14 31.957H24V26.543H14H4L4 31.957H14ZM14 26.543L14 36.543H38.6641V26.543V16.543H14V26.543ZM38.6641 26.543L48.5231 28.216C49.2482 23.9432 49.3672 20.4848 49.4347 17.6268L39.4375 17.3906L29.4403 17.1545C29.3789 19.7535 29.2831 22.0529 28.805 24.8699L38.6641 26.543ZM39.4375 17.3906V7.39062H18.2109V17.3906V27.3906H39.4375V17.3906ZM18.2109 17.3906H28.2109V12.0625H18.2109H8.21094V17.3906H18.2109ZM18.2109 12.0625V22.0625H46.3125V12.0625V2.0625L18.2109 2.0625V12.0625ZM47.3867 43.9883H37.3867V49.4883H47.3867H57.3867V43.9883H47.3867ZM47.3867 49.4883V39.4883H17.5234V49.4883V59.4883H47.3867V49.4883ZM17.5234 49.4883H27.5234V36.2109H17.5234H7.52344L7.52344 49.4883H17.5234ZM17.5234 36.2109V46.2109H24.3984V36.2109V26.2109H17.5234V36.2109ZM24.3984 36.2109H14.3984V43.9883H24.3984H34.3984V36.2109H24.3984ZM24.3984 43.9883V53.9883H47.3867V43.9883V33.9883H24.3984V43.9883ZM73.9414 13.5234L83.9414 13.5234C83.9414 8.00059 79.4643 3.52344 73.9414 3.52344V13.5234ZM73.9414 18.8945V28.8945C79.4643 28.8945 83.9414 24.4174 83.9414 18.8945L73.9414 18.8945ZM52.1562 18.8945H42.1562C42.1562 24.4174 46.6334 28.8945 52.1562 28.8945V18.8945ZM52.1562 13.5234V3.52344C46.6334 3.52344 42.1562 8.00059 42.1562 13.5234H52.1562ZM59.9766 13.5234V23.5234C65.4994 23.5234 69.9766 19.0463 69.9766 13.5234H59.9766ZM59.9766 10V0C54.4537 0 49.9766 4.47715 49.9766 10H59.9766ZM66.8516 10H76.8516C76.8516 4.47715 72.3744 0 66.8516 0V10ZM66.8516 13.5234H56.8516C56.8516 19.0463 61.3287 23.5234 66.8516 23.5234V13.5234ZM63.3281 19.7539L63.4056 9.75421C63.354 9.75381 63.3023 9.75381 63.2506 9.75421L63.3281 19.7539ZM53.832 27.2734L63.8316 27.3696C63.8322 27.3049 63.8322 27.2401 63.8316 27.1754L53.832 27.2734ZM63.3281 29.6367L63.5553 19.6393C63.4039 19.6359 63.2524 19.6359 63.1009 19.6393L63.3281 29.6367ZM85.8438 10.3008H95.8438C95.8438 4.77793 91.3666 0.300781 85.8438 0.300781V10.3008ZM85.8438 35.4375V45.4375C91.3666 45.4375 95.8438 40.9603 95.8438 35.4375H85.8438ZM78.9688 35.4375H68.9688C68.9688 40.9603 73.4459 45.4375 78.9688 45.4375V35.4375ZM78.9688 32.043H88.9688C88.9688 26.5201 84.4916 22.043 78.9688 22.043V32.043ZM74.5859 32.043H64.5859C64.5859 37.5658 69.0631 42.043 74.5859 42.043V32.043ZM74.5859 26.5859V16.5859C69.0631 16.5859 64.5859 21.0631 64.5859 26.5859H74.5859ZM78.9688 26.5859V36.5859C84.4916 36.5859 88.9688 32.1088 88.9688 26.5859H78.9688ZM78.9688 23.9648H88.9688C88.9688 18.442 84.4916 13.9648 78.9688 13.9648V23.9648ZM74.6719 23.9648H64.6719C64.6719 29.4877 69.149 33.9648 74.6719 33.9648V23.9648ZM74.6719 18.5078V8.50781C69.149 8.50781 64.6719 12.985 64.6719 18.5078H74.6719ZM78.9688 18.5078V28.5078C84.4916 28.5078 88.9688 24.0307 88.9688 18.5078H78.9688ZM78.9688 10.3008V0.300781C73.4459 0.300781 68.9688 4.77793 68.9688 10.3008H78.9688ZM86.0586 43.043L96.0581 43.141C96.0588 43.076 96.0588 43.0109 96.0581 42.9459L86.0586 43.043ZM65.4766 43.043L75.4717 43.3553C75.4781 43.1503 75.4782 42.9451 75.472 42.7401L65.4766 43.043ZM73.9414 13.5234H63.9414V18.8945H73.9414L83.9414 18.8945V13.5234L73.9414 13.5234ZM73.9414 18.8945V8.89453H52.1562V18.8945V28.8945H73.9414V18.8945ZM52.1562 18.8945H62.1562V13.5234H52.1562H42.1562V18.8945H52.1562ZM52.1562 13.5234V23.5234H59.9766V13.5234V3.52344H52.1562V13.5234ZM59.9766 13.5234H69.9766V10H59.9766H49.9766V13.5234H59.9766ZM59.9766 10V20H66.8516V10V0H59.9766V10ZM66.8516 10H56.8516V13.5234H66.8516H76.8516V10H66.8516ZM66.8516 13.5234V23.5234H73.9414V13.5234V3.52344H66.8516V13.5234ZM63.3281 19.7539L63.2506 29.7536C64.2632 29.7615 64.4273 30.0488 64.097 29.7931C63.912 29.6498 63.6059 29.3511 63.3471 28.8509C63.0786 28.3319 62.9531 27.7705 62.9531 27.2734H72.9531L82.9531 27.2734C82.9531 15.1162 71.8379 9.81957 63.4056 9.75421L63.3281 19.7539ZM72.9531 27.2734H62.9531C62.9531 26.8277 63.0651 26.2695 63.3485 25.7222C63.6231 25.1919 63.9576 24.8643 64.1754 24.6991C64.5598 24.4075 64.4153 24.707 63.3281 24.707V34.707V44.707C67.7839 44.707 72.4519 43.5242 76.2631 40.6329C80.2653 37.5968 82.9531 32.8829 82.9531 27.2734L72.9531 27.2734ZM63.3281 34.707V24.707C62.2398 24.707 62.152 24.408 62.5898 24.7454C62.834 24.9336 63.1798 25.2853 63.4545 25.8322C63.7363 26.3932 63.8356 26.9478 63.8316 27.3696L53.832 27.2734L43.8325 27.1773C43.779 32.7399 46.3682 37.494 50.3809 40.5866C54.1918 43.5237 58.8735 44.707 63.3281 44.707V34.707ZM53.832 27.2734L63.8316 27.1754C63.8362 27.6491 63.7235 28.2076 63.4558 28.7409C63.1964 29.2578 62.8787 29.5802 62.668 29.7459C62.285 30.0472 62.3934 29.7615 63.4056 29.7536L63.3281 19.7539L63.2506 9.75421C54.7329 9.82024 43.7133 15.2086 43.8325 27.3715L53.832 27.2734ZM63.3281 24.8672V14.8672C61.3548 14.8672 58.1351 15.205 55.1762 17.365C51.6813 19.9163 50.2344 23.7423 50.2344 27.2734H60.2344H70.2344C70.2344 28.0534 70.0914 29.1851 69.5091 30.4292C68.9078 31.7141 68.0018 32.7644 66.9684 33.5188C65.0836 34.8946 63.4108 34.8672 63.3281 34.8672V24.8672ZM60.2344 27.2734H50.2344C50.2344 30.7382 51.6266 34.6735 55.283 37.2696C58.3436 39.4426 61.6445 39.6776 63.5553 39.6341L63.3281 29.6367L63.1009 19.6393C63.1211 19.6388 64.8751 19.5516 66.8615 20.9619C67.9606 21.7423 68.9025 22.8331 69.5163 24.1504C70.105 25.4139 70.2344 26.5425 70.2344 27.2734H60.2344ZM63.3281 29.6367L63.1009 39.6341C65.0452 39.6783 68.1925 39.4247 71.1632 37.4718C74.7574 35.1089 76.5938 31.2511 76.5938 27.2734H66.5938H56.5938C56.5938 26.3503 56.786 25.0929 57.4724 23.7695C58.1698 22.4251 59.1642 21.4252 60.1766 20.7597C61.9872 19.5694 63.5017 19.6381 63.5553 19.6393L63.3281 29.6367ZM66.5938 27.2734H76.5938C76.5938 23.2351 74.6997 19.4752 71.2699 17.157C68.3943 15.2133 65.3206 14.8672 63.3281 14.8672V24.8672V34.8672C63.2263 34.8672 61.7854 34.8864 60.0699 33.7268C59.1189 33.084 58.1628 32.12 57.4807 30.8108C56.8032 29.5104 56.5938 28.2498 56.5938 27.2734H66.5938ZM85.8438 10.3008H75.8438V35.4375H85.8438H95.8438V10.3008H85.8438ZM85.8438 35.4375V25.4375H78.9688V35.4375V45.4375H85.8438V35.4375ZM78.9688 35.4375H88.9688V32.043H78.9688H68.9688V35.4375H78.9688ZM78.9688 32.043V22.043L74.5859 22.043V32.043V42.043H78.9688V32.043ZM74.5859 32.043H84.5859V26.5859L74.5859 26.5859H64.5859V32.043H74.5859ZM74.5859 26.5859V36.5859H78.9688V26.5859V16.5859L74.5859 16.5859V26.5859ZM78.9688 26.5859H88.9688V23.9648H78.9688L68.9688 23.9648V26.5859L78.9688 26.5859ZM78.9688 23.9648V13.9648L74.6719 13.9648V23.9648V33.9648H78.9688V23.9648ZM74.6719 23.9648L84.6719 23.9648V18.5078L74.6719 18.5078H64.6719V23.9648H74.6719ZM74.6719 18.5078V28.5078L78.9688 28.5078V18.5078V8.50781H74.6719V18.5078ZM78.9688 18.5078H88.9688V10.3008H78.9688H68.9688V18.5078L78.9688 18.5078ZM78.9688 10.3008V20.3008H85.8438V10.3008V0.300781L78.9688 0.300781V10.3008ZM72.0938 35.9102V45.9102C73.7204 45.9102 75.0258 46.0402 76.0179 46.2279C77.0302 46.4195 77.5576 46.6409 77.7312 46.7293C77.9095 46.82 77.4958 46.6546 76.9998 45.979C76.4326 45.2064 76.0691 44.1785 76.0591 43.1401L86.0586 43.043L96.0581 42.9459C95.9894 35.8641 91.3826 31.2356 86.802 28.9045C82.4489 26.6893 77.2159 25.9102 72.0938 25.9102V35.9102ZM86.0586 43.043L76.0591 42.9449C76.0696 41.8734 76.4472 40.8296 77.0194 40.0555C77.5188 39.3799 77.9318 39.2174 77.747 39.3111C77.5686 39.4015 77.0364 39.6234 76.0216 39.815C75.0271 40.0028 73.7202 40.1328 72.0938 40.1328V50.1328V60.1328C77.2181 60.1328 82.442 59.3529 86.7862 57.1518C91.3365 54.8464 95.9885 50.2401 96.0581 43.141L86.0586 43.043ZM72.0938 50.1328V40.1328C70.4671 40.1328 69.1605 40.0028 68.1673 39.8151C67.1532 39.6236 66.6256 39.4023 66.4539 39.3151C66.2753 39.2244 66.7035 39.396 67.2129 40.0918C67.7972 40.8897 68.1719 41.9578 68.1719 43.043H58.1719H48.1719C48.1719 50.1898 52.842 54.8339 57.3986 57.1477C61.7431 59.3539 66.9725 60.1328 72.0938 60.1328V50.1328ZM58.1719 43.043H68.1719C68.1719 44.0947 67.8114 45.1464 67.2323 45.9427C66.7264 46.6384 66.2976 46.813 66.4697 46.7252C66.6366 46.64 67.1594 46.4193 68.171 46.2278C69.1618 46.0402 70.4669 45.9102 72.0938 45.9102V35.9102V25.9102C66.9747 25.9102 61.7362 26.6883 57.3829 28.9086C52.7954 31.2483 48.1719 35.9145 48.1719 43.043H58.1719ZM72.0938 41.1094V31.1094C69.7718 31.1094 66.9267 31.2114 64.4144 31.9099C63.1576 32.2594 61.0226 33.0081 59.0926 34.7841C56.7801 36.912 55.3788 39.9678 55.4812 43.3459L65.4766 43.043L75.472 42.7401C75.507 43.8968 75.3121 45.2028 74.7493 46.5093C74.1908 47.8056 73.4031 48.7947 72.6353 49.5012C71.2438 50.7817 69.9278 51.1356 69.7721 51.1789C69.462 51.2652 69.947 51.1094 72.0938 51.1094V41.1094ZM65.4766 43.043L55.4814 42.7306C55.3731 46.1968 56.8527 49.2395 59.1226 51.3112C61.0245 53.0471 63.1205 53.7939 64.3709 54.1477C66.8838 54.8587 69.7229 54.9766 72.0938 54.9766V44.9766V34.9766C69.9959 34.9766 69.5048 34.8152 69.8157 34.9031C69.9649 34.9453 71.2419 35.2947 72.6053 36.5391C73.3574 37.2255 74.1504 38.2008 74.7203 39.4978C75.2978 40.8119 75.5095 42.1466 75.4717 43.3553L65.4766 43.043ZM72.0938 44.9766V54.9766C74.431 54.9766 77.2508 54.8583 79.7627 54.137C81.0261 53.7743 83.0813 53.0237 84.953 51.3196C87.1555 49.3144 88.625 46.3968 88.625 43.043H78.625H68.625C68.625 41.8718 68.8632 40.5986 69.4333 39.3546C69.9965 38.1258 70.7595 37.1946 71.4886 36.5308C72.8205 35.3181 74.0647 34.965 74.2432 34.9137C74.5852 34.8156 74.1393 34.9766 72.0938 34.9766V44.9766ZM78.625 43.043H88.625C88.625 39.7697 87.2276 36.836 84.983 34.7757C83.0831 33.0317 80.9891 32.2787 79.7187 31.9203C77.2071 31.2115 74.3811 31.1094 72.0938 31.1094V41.1094V51.1094C74.1892 51.1094 74.6288 51.265 74.2872 51.1686C74.1017 51.1163 72.8188 50.7581 71.4586 49.5096C70.7139 48.826 69.955 47.8807 69.4025 46.6511C68.8459 45.4123 68.625 44.1648 68.625 43.043H78.625ZM109.047 43.2148L103.047 51.2148C106.648 53.9159 111.611 53.8776 115.17 51.1212L109.047 43.2148ZM113.086 35.0938L123.085 35.2441C123.086 35.194 123.086 35.1439 123.086 35.0938H113.086ZM113.086 34.2344V24.2344C107.563 24.2344 103.086 28.7115 103.086 34.2344H113.086ZM119.832 34.2344H129.832C129.832 28.7115 125.355 24.2344 119.832 24.2344V34.2344ZM126.922 44.5039L135.231 50.0676C137.003 47.422 137.408 44.0911 136.324 41.0976C135.239 38.1042 132.794 35.8061 129.739 34.909L126.922 44.5039ZM123.613 49.4453L120.551 58.965C124.8 60.3315 129.44 58.7174 131.923 55.009L123.613 49.4453ZM116.223 43.2148L125.234 38.8787C123.553 35.3871 120.007 33.1804 116.133 33.2152C112.258 33.2501 108.752 35.5201 107.135 39.0413L116.223 43.2148ZM109.176 49.832L105.88 59.2732C108.081 60.0419 110.483 60.0169 112.668 59.2025L109.176 49.832ZM101.957 43.3438L111.047 39.1749C109.452 35.6972 106.012 33.4345 102.187 33.3464C98.3623 33.2583 94.8224 35.3603 93.069 38.7609L101.957 43.3438ZM94.7383 49.4453L86.4623 55.0586C88.9847 58.7774 93.6777 60.3571 97.9354 58.9205L94.7383 49.4453ZM91.3867 44.5039L88.2474 35.0094C85.2709 35.9936 82.9282 38.3167 81.919 41.2849C80.9098 44.253 81.351 47.5226 83.1108 50.1172L91.3867 44.5039ZM98.4336 34.2344V24.2344C92.9107 24.2344 88.4336 28.7115 88.4336 34.2344H98.4336ZM105.18 34.2344H115.18C115.18 28.7115 110.703 24.2344 105.18 24.2344V34.2344ZM123.57 10.3867H133.57C133.57 4.86387 129.093 0.386719 123.57 0.386719V10.3867ZM123.57 32.6445V42.6445C129.093 42.6445 133.57 38.1674 133.57 32.6445H123.57ZM116.652 32.6445H106.652C106.652 38.1674 111.129 42.6445 116.652 42.6445V32.6445ZM116.652 10.3867V0.386719C111.129 0.386719 106.652 4.86387 106.652 10.3867L116.652 10.3867ZM90.4844 21.9453L100.484 22.0228C100.484 21.9719 100.484 21.921 100.484 21.8701L90.4844 21.9453ZM101.613 25.8555L101.786 15.857C101.674 15.855 101.561 15.855 101.449 15.8568L101.613 25.8555ZM105.18 35.0938H95.1797C95.1797 40.4284 97.1296 46.7769 103.047 51.2148L109.047 43.2148L115.047 35.2148C115.033 35.2042 115.035 35.2045 115.048 35.2176C115.062 35.2307 115.081 35.2516 115.104 35.2801C115.152 35.3413 115.186 35.4026 115.205 35.4464C115.223 35.4864 115.217 35.4858 115.206 35.4284C115.194 35.3687 115.18 35.2584 115.18 35.0938H105.18ZM109.047 43.2148L115.17 51.1212C120.765 46.7881 123.003 40.6927 123.085 35.2441L113.086 35.0938L103.087 34.9434C103.085 35.1092 103.051 35.1862 103.049 35.191C103.048 35.1919 103.049 35.1923 103.044 35.1988C103.039 35.2042 103.008 35.2434 102.924 35.3085L109.047 43.2148ZM113.086 35.0938H123.086V34.2344H113.086H103.086V35.0938H113.086ZM113.086 34.2344V44.2344H119.832V34.2344V24.2344H113.086V34.2344ZM119.832 34.2344H109.832V35.0938H119.832H129.832V34.2344H119.832ZM119.832 35.0938H109.832C109.832 38.4533 110.503 42.5531 113.043 46.3378C115.673 50.257 119.589 52.7729 124.104 54.0988L126.922 44.5039L129.739 34.909C129.244 34.7636 129.116 34.6541 129.193 34.7071C129.231 34.7331 129.304 34.7884 129.393 34.8786C129.483 34.9692 129.572 35.076 129.65 35.1934C129.729 35.31 129.784 35.4169 129.821 35.5019C129.857 35.5854 129.87 35.636 129.872 35.6414C129.873 35.6457 129.863 35.6058 129.852 35.5128C129.842 35.4194 129.832 35.2816 129.832 35.0938H119.832ZM126.922 44.5039L118.613 38.9402L115.304 43.8816L123.613 49.4453L131.923 55.009L135.231 50.0676L126.922 44.5039ZM123.613 49.4453L126.675 39.9256C125.988 39.7045 125.7 39.4834 125.599 39.3967C125.503 39.3128 125.379 39.1805 125.234 38.8787L116.223 43.2148L107.212 47.551C109.797 52.923 114.315 56.9592 120.551 58.965L123.613 49.4453ZM116.223 43.2148L107.135 39.0413C106.923 39.504 106.705 39.7836 106.526 39.958C106.362 40.1173 106.119 40.2992 105.684 40.4616L109.176 49.832L112.668 59.2025C118.906 56.8776 123.015 52.3852 125.31 47.3883L116.223 43.2148ZM109.176 49.832L112.472 40.3908C111.901 40.1916 111.639 39.9851 111.515 39.8691C111.381 39.744 111.216 39.5442 111.047 39.1749L101.957 43.3438L92.8675 47.5126C95.2386 52.6826 99.5198 57.0529 105.88 59.2732L109.176 49.832ZM101.957 43.3438L93.069 38.7609C92.8872 39.1135 92.717 39.3065 92.5695 39.4348C92.426 39.5595 92.1363 39.7694 91.5411 39.9702L94.7383 49.4453L97.9354 58.9205C103.97 56.8841 108.273 52.915 110.845 47.9266L101.957 43.3438ZM94.7383 49.4453L103.014 43.8321L99.6627 38.8907L91.3867 44.5039L83.1108 50.1172L86.4623 55.0586L94.7383 49.4453ZM91.3867 44.5039L94.526 53.9984C99.0013 52.5186 102.732 49.8922 105.237 46.1229C107.678 42.4497 108.434 38.4781 108.434 35.0938H98.4336H88.4336C88.4336 35.328 88.4069 35.4187 88.4129 35.3956C88.4166 35.3817 88.429 35.3392 88.457 35.2758C88.4853 35.2113 88.5256 35.1349 88.5794 35.0539C88.6335 34.9724 88.6917 34.9011 88.7472 34.8433C88.8026 34.7856 88.8417 34.7557 88.8507 34.7491C88.8729 34.733 88.7161 34.8545 88.2474 35.0094L91.3867 44.5039ZM98.4336 35.0938H108.434V34.2344H98.4336H88.4336V35.0938H98.4336ZM98.4336 34.2344V44.2344H105.18V34.2344V24.2344H98.4336V34.2344ZM105.18 34.2344H95.1797V35.0938H105.18H115.18V34.2344H105.18ZM123.57 10.3867H113.57V32.6445H123.57H133.57V10.3867H123.57ZM123.57 32.6445V22.6445H116.652V32.6445V42.6445H123.57V32.6445ZM116.652 32.6445H126.652V10.3867H116.652L106.652 10.3867V32.6445H116.652ZM116.652 10.3867V20.3867H123.57V10.3867V0.386719L116.652 0.386719V10.3867ZM101.613 12.1914V22.1914C102.634 22.1914 103.018 22.5145 102.997 22.4963C102.983 22.4836 102.901 22.4047 102.828 22.2485C102.794 22.1748 102.77 22.1026 102.756 22.0397C102.742 21.9766 102.742 21.942 102.742 21.9453H112.742H122.742C122.742 9.37453 111.975 2.19141 101.613 2.19141V12.1914ZM112.742 21.9453H102.742C102.742 21.8442 102.77 21.6703 102.856 21.4895C102.895 21.4086 102.935 21.3468 102.968 21.3042C103.001 21.2622 103.022 21.2444 103.021 21.2453C103.014 21.2511 102.609 21.5703 101.613 21.5703V31.5703V41.5703C111.912 41.5703 122.742 34.3979 122.742 21.9453H112.742ZM101.613 31.5703V21.5703C100.578 21.5703 100.168 21.24 100.174 21.2453C100.182 21.2524 100.274 21.3374 100.362 21.5236C100.456 21.7216 100.485 21.9113 100.484 22.0228L90.4844 21.9453L80.4847 21.8678C80.3873 34.4238 91.3253 41.5703 101.613 41.5703V31.5703ZM90.4844 21.9453L100.484 21.8701C100.484 21.8695 100.484 21.88 100.482 21.9003C100.48 21.9207 100.476 21.9485 100.469 21.9825C100.454 22.0529 100.428 22.133 100.39 22.2146C100.31 22.3873 100.219 22.4774 100.197 22.4963C100.163 22.5255 100.552 22.1914 101.613 22.1914V12.1914V2.19141C91.2607 2.19141 80.3894 9.34947 80.4847 22.0205L90.4844 21.9453ZM101.613 17.9492V7.94922C98.7345 7.94922 95.0439 8.67523 91.9182 11.3483C88.5584 14.2215 87.1875 18.1985 87.1875 21.9453H97.1875H107.188C107.188 23.028 106.719 25.007 104.917 26.5482C103.349 27.8892 101.871 27.9492 101.613 27.9492V17.9492ZM97.1875 21.9453H87.1875C87.1875 25.7499 88.6401 29.6638 91.9182 32.4671C95.0124 35.1132 98.7114 35.9044 101.777 35.8541L101.613 25.8555L101.449 15.8568C101.894 15.8495 103.38 15.9532 104.917 17.2672C106.637 18.7385 107.188 20.6759 107.188 21.9453H97.1875ZM101.613 25.8555L101.441 35.854C104.56 35.9078 108.234 35.0537 111.274 32.3995C114.468 29.6102 115.91 25.7406 115.91 21.9453H105.91H95.9102C95.9102 20.6852 96.45 18.7921 98.1188 17.3349C99.6328 16.0127 101.158 15.8461 101.786 15.857L101.613 25.8555ZM105.91 21.9453H115.91C115.91 18.2064 114.549 14.2755 111.274 11.4159C108.2 8.73141 104.538 7.94922 101.613 7.94922V17.9492V27.9492C101.181 27.9492 99.6675 27.833 98.1188 26.4806C96.3694 24.953 95.9102 23.0202 95.9102 21.9453H105.91ZM160.438 20.3984H170.438C170.438 14.8756 165.96 10.3984 160.438 10.3984V20.3984ZM160.438 25.7266V35.7266C165.96 35.7266 170.438 31.2494 170.438 25.7266H160.438ZM132.336 25.7266H122.336C122.336 31.2494 126.813 35.7266 132.336 35.7266V25.7266ZM132.336 11.7187V1.71875C126.813 1.71875 122.336 6.1959 122.336 11.7187H132.336ZM139.211 11.7187H149.211C149.211 6.1959 144.734 1.71875 139.211 1.71875V11.7187ZM139.211 20.3984H129.211C129.211 25.9213 133.688 30.3984 139.211 30.3984V20.3984ZM164.348 29.25H174.348C174.348 23.7272 169.87 19.25 164.348 19.25V29.25ZM164.348 34.5781V44.5781C169.87 44.5781 174.348 40.101 174.348 34.5781H164.348ZM128.082 34.5781H118.082C118.082 40.101 122.559 44.5781 128.082 44.5781V34.5781ZM128.082 29.25V19.25C122.559 19.25 118.082 23.7272 118.082 29.25H128.082ZM160.695 43.7734H170.695C170.695 38.2506 166.218 33.7734 160.695 33.7734V43.7734ZM160.695 49.2734V59.2734C166.218 59.2734 170.695 54.7963 170.695 49.2734H160.695ZM131.863 49.2734H121.863C121.863 54.7963 126.34 59.2734 131.863 59.2734V49.2734ZM131.863 37.3281V27.3281C126.34 27.3281 121.863 31.8053 121.863 37.3281H131.863ZM138.824 37.3281L148.824 37.3281C148.824 31.8053 144.347 27.3281 138.824 27.3281V37.3281ZM138.824 43.7734H128.824C128.824 49.2963 133.301 53.7734 138.824 53.7734V43.7734ZM160.438 20.3984H150.438V25.7266H160.438H170.438V20.3984H160.438ZM160.438 25.7266V15.7266H132.336V25.7266V35.7266L160.438 35.7266V25.7266ZM132.336 25.7266H142.336V11.7187H132.336H122.336V25.7266H132.336ZM132.336 11.7187V21.7187H139.211V11.7187V1.71875H132.336V11.7187ZM139.211 11.7187H129.211V20.3984H139.211H149.211V11.7187H139.211ZM139.211 20.3984V30.3984L160.438 30.3984V20.3984V10.3984H139.211V20.3984ZM164.348 29.25H154.348V34.5781H164.348H174.348V29.25H164.348ZM164.348 34.5781V24.5781H128.082V34.5781V44.5781L164.348 44.5781V34.5781ZM128.082 34.5781H138.082V29.25H128.082H118.082V34.5781H128.082ZM128.082 29.25V39.25L164.348 39.25V29.25V19.25H128.082V29.25ZM160.695 43.7734H150.695V49.2734H160.695H170.695V43.7734H160.695ZM160.695 49.2734V39.2734L131.863 39.2734V49.2734V59.2734L160.695 59.2734V49.2734ZM131.863 49.2734L141.863 49.2734V37.3281L131.863 37.3281H121.863V49.2734H131.863ZM131.863 37.3281V47.3281H138.824V37.3281V27.3281H131.863V37.3281ZM138.824 37.3281H128.824V43.7734H138.824L148.824 43.7734V37.3281L138.824 37.3281ZM138.824 43.7734V53.7734L160.695 53.7734V43.7734V33.7734L138.824 33.7734V43.7734Z" fill="white" mask="url(#path-1-outside-1_3990_1457)"/>
</g>
<defs>
<filter id="filter0_d_3990_1457" x="0" y="0" width="178.348" height="68.1328" filterUnits="userSpaceOnUse" color-interpolation-filters="sRGB">
<feFlood flood-opacity="0" result="BackgroundImageFix"/>
<feColorMatrix in="SourceAlpha" type="matrix" values="0 0 0 0 0 0 0 0 0 0 0 0 0 0 0 0 0 0 127 0" result="hardAlpha"/>
<feOffset dy="4"/>
<feGaussianBlur stdDeviation="2"/>
<feComposite in2="hardAlpha" operator="out"/>
<feColorMatrix type="matrix" values="0 0 0 0 0 0 0 0 0 0 0 0 0 0 0 0 0 0 0.07 0"/>
<feBlend mode="normal" in2="BackgroundImageFix" result="effect1_dropShadow_3990_1457"/>
<feBlend mode="normal" in="SourceGraphic" in2="effect1_dropShadow_3990_1457" result="shape"/>
</filter>
</defs>
</svg>
