<svg width="108" height="48" viewBox="0 0 108 48" fill="none" xmlns="http://www.w3.org/2000/svg">
<g filter="url(#filter0_d_4197_193)">
<mask id="path-1-outside-1_4197_193" maskUnits="userSpaceOnUse" x="1.81665" y="-0.489258" width="104" height="44" fill="black">
<rect fill="white" x="1.81665" y="-0.489258" width="104" height="44"/>
<path d="M34.5198 6.66699V9.05762C34.5198 11.4482 34.5198 14.4365 33.4299 18.1631L28.0159 17.6357C28.7717 14.9463 28.9827 12.8369 29.0706 11.0264H22.426V6.66699H34.5198ZM37.1213 19.3936V23.9639H7.6604V19.3936H20.1409V14.542H25.6956V19.3936H37.1213ZM20.176 6.66699V8.24902C20.176 10.4287 20.176 13.874 18.3831 18.1631L12.9338 17.5654C13.9885 14.8057 14.3928 12.6963 14.551 11.0264H9.87524V6.66699H20.176ZM33.5002 25.9326V37.71H11.0706V25.9326H33.5002ZM16.5901 30.3271V33.21H27.9104V30.3271H16.5901ZM65.6331 6.66699V9.05762C65.6331 11.4482 65.6331 14.4365 64.5432 18.1631L59.1292 17.6357C59.885 14.9463 60.0959 12.8369 60.1838 11.0264H53.5393V6.66699H65.6331ZM68.2346 19.3936V23.9639H38.7737V19.3936H51.2542V14.542H56.8088V19.3936H68.2346ZM51.2893 6.66699V8.24902C51.2893 10.4287 51.2893 13.874 49.4963 18.1631L44.0471 17.5654C45.1018 14.8057 45.5061 12.6963 45.6643 11.0264H40.9885V6.66699H51.2893ZM64.6135 25.9326V37.71H42.1838V25.9326H64.6135ZM47.7034 30.3271V33.21H59.0237V30.3271H47.7034ZM95.7971 5.54199V15.0342H99.8401V19.6045H95.7971V29.7646H90.137V5.54199H95.7971ZM88.9768 8.60059V12.96H69.7463V8.60059H76.5315V5.47168H82.1917V8.60059H88.9768ZM79.344 13.6982C84.0901 13.6982 87.4651 16.335 87.4651 20.1318C87.4651 23.9287 84.0901 26.4951 79.344 26.46C74.5627 26.4951 71.1526 23.9287 71.1526 20.1318C71.1526 16.335 74.5627 13.6982 79.344 13.6982ZM79.344 17.9521C77.7268 17.9873 76.6721 18.6553 76.6721 20.1318C76.6721 21.6084 77.7268 22.2412 79.344 22.2412C80.9963 22.2412 82.1213 21.6084 82.1213 20.1318C82.1213 18.6553 80.9963 17.9873 79.344 17.9521ZM96.7463 33.0342V37.5342H74.2463V27.9365H79.9065V33.0342H96.7463Z"/>
</mask>
<path d="M34.5198 6.66699V9.05762C34.5198 11.4482 34.5198 14.4365 33.4299 18.1631L28.0159 17.6357C28.7717 14.9463 28.9827 12.8369 29.0706 11.0264H22.426V6.66699H34.5198ZM37.1213 19.3936V23.9639H7.6604V19.3936H20.1409V14.542H25.6956V19.3936H37.1213ZM20.176 6.66699V8.24902C20.176 10.4287 20.176 13.874 18.3831 18.1631L12.9338 17.5654C13.9885 14.8057 14.3928 12.6963 14.551 11.0264H9.87524V6.66699H20.176ZM33.5002 25.9326V37.71H11.0706V25.9326H33.5002ZM16.5901 30.3271V33.21H27.9104V30.3271H16.5901ZM65.6331 6.66699V9.05762C65.6331 11.4482 65.6331 14.4365 64.5432 18.1631L59.1292 17.6357C59.885 14.9463 60.0959 12.8369 60.1838 11.0264H53.5393V6.66699H65.6331ZM68.2346 19.3936V23.9639H38.7737V19.3936H51.2542V14.542H56.8088V19.3936H68.2346ZM51.2893 6.66699V8.24902C51.2893 10.4287 51.2893 13.874 49.4963 18.1631L44.0471 17.5654C45.1018 14.8057 45.5061 12.6963 45.6643 11.0264H40.9885V6.66699H51.2893ZM64.6135 25.9326V37.71H42.1838V25.9326H64.6135ZM47.7034 30.3271V33.21H59.0237V30.3271H47.7034ZM95.7971 5.54199V15.0342H99.8401V19.6045H95.7971V29.7646H90.137V5.54199H95.7971ZM88.9768 8.60059V12.96H69.7463V8.60059H76.5315V5.47168H82.1917V8.60059H88.9768ZM79.344 13.6982C84.0901 13.6982 87.4651 16.335 87.4651 20.1318C87.4651 23.9287 84.0901 26.4951 79.344 26.46C74.5627 26.4951 71.1526 23.9287 71.1526 20.1318C71.1526 16.335 74.5627 13.6982 79.344 13.6982ZM79.344 17.9521C77.7268 17.9873 76.6721 18.6553 76.6721 20.1318C76.6721 21.6084 77.7268 22.2412 79.344 22.2412C80.9963 22.2412 82.1213 21.6084 82.1213 20.1318C82.1213 18.6553 80.9963 17.9873 79.344 17.9521ZM96.7463 33.0342V37.5342H74.2463V27.9365H79.9065V33.0342H96.7463Z" fill="#11DCA9"/>
<path d="M34.5198 6.66699H39.9915C39.9915 3.64506 37.5417 1.19529 34.5198 1.19529V6.66699ZM33.4299 18.1631L32.8995 23.609C35.5159 23.8639 37.9438 22.2221 38.6817 19.699L33.4299 18.1631ZM28.0159 17.6357L22.7483 16.1553C22.31 17.7145 22.5851 19.3878 23.4995 20.7247C24.4138 22.0615 25.8734 22.9247 27.4854 23.0817L28.0159 17.6357ZM29.0706 11.0264L34.5358 11.2917C34.6084 9.79621 34.065 8.33632 33.0323 7.25226C31.9996 6.1682 30.5678 5.55467 29.0706 5.55467V11.0264ZM22.426 11.0264H16.9543C16.9543 14.0483 19.4041 16.4981 22.426 16.4981V11.0264ZM22.426 6.66699V1.19529C19.4041 1.19529 16.9543 3.64506 16.9543 6.66699H22.426ZM37.1213 19.3936H42.593C42.593 16.3716 40.1433 13.9219 37.1213 13.9219V19.3936ZM37.1213 23.9639V29.4356C40.1433 29.4356 42.593 26.9858 42.593 23.9639H37.1213ZM7.6604 23.9639H2.1887C2.1887 26.9858 4.63847 29.4356 7.6604 29.4356L7.6604 23.9639ZM7.6604 19.3936V13.9219C4.63847 13.9219 2.1887 16.3716 2.1887 19.3936H7.6604ZM20.1409 19.3936V24.8653C23.1628 24.8653 25.6126 22.4155 25.6126 19.3936H20.1409ZM20.1409 14.542V9.07029C17.1189 9.07029 14.6692 11.5201 14.6692 14.542H20.1409ZM25.6956 14.542H31.1673C31.1673 11.5201 28.7175 9.07029 25.6956 9.07029V14.542ZM25.6956 19.3936H20.2239C20.2239 22.4155 22.6736 24.8653 25.6956 24.8653V19.3936ZM20.176 6.66699H25.6477C25.6477 3.64506 23.198 1.19529 20.176 1.19529V6.66699ZM18.3831 18.1631L17.7865 23.6022C20.198 23.8667 22.4957 22.5117 23.4314 20.2735L18.3831 18.1631ZM12.9338 17.5654L7.82267 15.6121C7.21746 17.1957 7.3805 18.9704 8.26411 20.4173C9.14771 21.8641 10.6521 22.8197 12.3373 23.0045L12.9338 17.5654ZM14.551 11.0264L19.9983 11.5424C20.1437 10.0084 19.6354 8.4841 18.5984 7.34427C17.5615 6.20443 16.092 5.55467 14.551 5.55467V11.0264ZM9.87524 11.0264H4.40355C4.40355 14.0483 6.85331 16.4981 9.87524 16.4981L9.87524 11.0264ZM9.87524 6.66699V1.19529C6.85331 1.19529 4.40355 3.64506 4.40355 6.66699H9.87524ZM33.5002 25.9326H38.9719C38.9719 22.9107 36.5222 20.4609 33.5002 20.4609V25.9326ZM33.5002 37.71V43.1817C36.5222 43.1817 38.9719 40.7319 38.9719 37.71H33.5002ZM11.0706 37.71H5.59886C5.59886 40.7319 8.04862 43.1817 11.0706 43.1817V37.71ZM11.0706 25.9326V20.4609C8.04862 20.4609 5.59886 22.9107 5.59886 25.9326H11.0706ZM16.5901 30.3271V24.8555C13.5682 24.8555 11.1184 27.3052 11.1184 30.3271H16.5901ZM16.5901 33.21H11.1184C11.1184 36.2319 13.5682 38.6817 16.5901 38.6817V33.21ZM27.9104 33.21V38.6817C30.9323 38.6817 33.3821 36.2319 33.3821 33.21H27.9104ZM27.9104 30.3271H33.3821C33.3821 27.3052 30.9323 24.8555 27.9104 24.8555V30.3271ZM34.5198 6.66699H29.0481V9.05762H34.5198H39.9915V6.66699H34.5198ZM34.5198 9.05762H29.0481C29.0481 11.3849 29.0336 13.7022 28.1782 16.6272L33.4299 18.1631L38.6817 19.699C40.0059 15.1708 39.9915 11.5116 39.9915 9.05762H34.5198ZM33.4299 18.1631L33.9604 12.7172L28.5463 12.1898L28.0159 17.6357L27.4854 23.0817L32.8995 23.609L33.4299 18.1631ZM28.0159 17.6357L33.2835 19.1162C34.1821 15.9187 34.4345 13.3786 34.5358 11.2917L29.0706 11.0264L23.6053 10.7611C23.5308 12.2952 23.3613 13.9738 22.7483 16.1553L28.0159 17.6357ZM29.0706 11.0264V5.55467H22.426V11.0264V16.4981H29.0706V11.0264ZM22.426 11.0264H27.8977V6.66699H22.426H16.9543V11.0264H22.426ZM22.426 6.66699V12.1387H34.5198V6.66699V1.19529H22.426V6.66699ZM37.1213 19.3936H31.6496V23.9639H37.1213H42.593V19.3936H37.1213ZM37.1213 23.9639V18.4922H7.6604V23.9639V29.4356H37.1213V23.9639ZM7.6604 23.9639H13.1321V19.3936H7.6604H2.1887V23.9639H7.6604ZM7.6604 19.3936V24.8653H20.1409V19.3936V13.9219H7.6604V19.3936ZM20.1409 19.3936H25.6126V14.542H20.1409H14.6692V19.3936H20.1409ZM20.1409 14.542V20.0137H25.6956V14.542V9.07029H20.1409V14.542ZM25.6956 14.542H20.2239V19.3936H25.6956H31.1673V14.542H25.6956ZM25.6956 19.3936V24.8653H37.1213V19.3936V13.9219H25.6956V19.3936ZM20.176 6.66699H14.7043V8.24902H20.176H25.6477V6.66699H20.176ZM20.176 8.24902H14.7043C14.7043 10.2615 14.6929 12.8038 13.3347 16.0527L18.3831 18.1631L23.4314 20.2735C25.6592 14.9443 25.6477 10.5959 25.6477 8.24902H20.176ZM18.3831 18.1631L18.9796 12.724L13.5304 12.1263L12.9338 17.5654L12.3373 23.0045L17.7865 23.6022L18.3831 18.1631ZM12.9338 17.5654L18.045 19.5187C19.2765 16.2964 19.7936 13.7035 19.9983 11.5424L14.551 11.0264L9.10372 10.5103C8.99204 11.6891 8.70057 13.3149 7.82267 15.6121L12.9338 17.5654ZM14.551 11.0264V5.55467H9.87524V11.0264V16.4981H14.551V11.0264ZM9.87524 11.0264H15.3469V6.66699H9.87524H4.40355V11.0264H9.87524ZM9.87524 6.66699V12.1387H20.176V6.66699V1.19529H9.87524V6.66699ZM33.5002 25.9326H28.0285V37.71H33.5002H38.9719V25.9326H33.5002ZM33.5002 37.71V32.2383H11.0706V37.71V43.1817H33.5002V37.71ZM11.0706 37.71H16.5423V25.9326H11.0706H5.59886V37.71H11.0706ZM11.0706 25.9326V31.4043H33.5002V25.9326V20.4609H11.0706V25.9326ZM16.5901 30.3271H11.1184V33.21H16.5901H22.0618V30.3271H16.5901ZM16.5901 33.21V38.6817H27.9104V33.21V27.7383H16.5901V33.21ZM27.9104 33.21H33.3821V30.3271H27.9104H22.4387V33.21H27.9104ZM27.9104 30.3271V24.8555H16.5901V30.3271V35.7988H27.9104V30.3271ZM65.6331 6.66699H71.1048C71.1048 3.64506 68.655 1.19529 65.6331 1.19529V6.66699ZM64.5432 18.1631L64.0128 23.609C66.6292 23.8639 69.057 22.2221 69.7949 19.699L64.5432 18.1631ZM59.1292 17.6357L53.8615 16.1553C53.4233 17.7145 53.6984 19.3878 54.6127 20.7247C55.5271 22.0615 56.9867 22.9247 58.5987 23.0817L59.1292 17.6357ZM60.1838 11.0264L65.6491 11.2917C65.7217 9.79621 65.1783 8.33632 64.1456 7.25226C63.1129 6.1682 61.6811 5.55467 60.1838 5.55467V11.0264ZM53.5393 11.0264H48.0676C48.0676 14.0483 50.5174 16.4981 53.5393 16.4981V11.0264ZM53.5393 6.66699V1.19529C50.5174 1.19529 48.0676 3.64506 48.0676 6.66699H53.5393ZM68.2346 19.3936H73.7063C73.7063 16.3716 71.2566 13.9219 68.2346 13.9219V19.3936ZM68.2346 23.9639V29.4356C71.2566 29.4356 73.7063 26.9858 73.7063 23.9639H68.2346ZM38.7737 23.9639H33.302C33.302 26.9858 35.7517 29.4356 38.7737 29.4356V23.9639ZM38.7737 19.3936V13.9219C35.7517 13.9219 33.302 16.3716 33.302 19.3936H38.7737ZM51.2542 19.3936V24.8653C54.2761 24.8653 56.7258 22.4155 56.7258 19.3936H51.2542ZM51.2542 14.542V9.07029C48.2322 9.07029 45.7825 11.5201 45.7825 14.542H51.2542ZM56.8088 14.542H62.2805C62.2805 11.5201 59.8308 9.07029 56.8088 9.07029V14.542ZM56.8088 19.3936H51.3371C51.3371 22.4155 53.7869 24.8653 56.8088 24.8653V19.3936ZM51.2893 6.66699H56.761C56.761 3.64506 54.3112 1.19529 51.2893 1.19529V6.66699ZM49.4963 18.1631L48.8998 23.6022C51.3113 23.8667 53.609 22.5117 54.5447 20.2735L49.4963 18.1631ZM44.0471 17.5654L38.936 15.6121C38.3307 17.1957 38.4938 18.9704 39.3774 20.4173C40.261 21.8641 41.7654 22.8197 43.4506 23.0045L44.0471 17.5654ZM45.6643 11.0264L51.1116 11.5424C51.2569 10.0084 50.7487 8.4841 49.7117 7.34427C48.6748 6.20443 47.2053 5.55467 45.6643 5.55467V11.0264ZM40.9885 11.0264H35.5168C35.5168 14.0483 37.9666 16.4981 40.9885 16.4981V11.0264ZM40.9885 6.66699V1.19529C37.9666 1.19529 35.5168 3.64506 35.5168 6.66699H40.9885ZM64.6135 25.9326H70.0852C70.0852 22.9107 67.6355 20.4609 64.6135 20.4609V25.9326ZM64.6135 37.71V43.1817C67.6355 43.1817 70.0852 40.7319 70.0852 37.71H64.6135ZM42.1838 37.71H36.7121C36.7121 40.7319 39.1619 43.1817 42.1838 43.1817V37.71ZM42.1838 25.9326V20.4609C39.1619 20.4609 36.7121 22.9107 36.7121 25.9326H42.1838ZM47.7034 30.3271V24.8555C44.6814 24.8555 42.2317 27.3052 42.2317 30.3271H47.7034ZM47.7034 33.21H42.2317C42.2317 36.2319 44.6814 38.6817 47.7034 38.6817V33.21ZM59.0237 33.21V38.6817C62.0456 38.6817 64.4954 36.2319 64.4954 33.21H59.0237ZM59.0237 30.3271H64.4954C64.4954 27.3052 62.0456 24.8555 59.0237 24.8555V30.3271ZM65.6331 6.66699H60.1614V9.05762H65.6331H71.1048V6.66699H65.6331ZM65.6331 9.05762H60.1614C60.1614 11.3849 60.1469 13.7022 59.2915 16.6272L64.5432 18.1631L69.7949 19.699C71.1192 15.1708 71.1048 11.5116 71.1048 9.05762H65.6331ZM64.5432 18.1631L65.0737 12.7172L59.6596 12.1898L59.1292 17.6357L58.5987 23.0817L64.0128 23.609L64.5432 18.1631ZM59.1292 17.6357L64.3968 19.1162C65.2954 15.9187 65.5478 13.3786 65.6491 11.2917L60.1838 11.0264L54.7186 10.7611C54.6441 12.2952 54.4746 13.9738 53.8615 16.1553L59.1292 17.6357ZM60.1838 11.0264V5.55467H53.5393V11.0264V16.4981H60.1838V11.0264ZM53.5393 11.0264H59.011V6.66699H53.5393H48.0676V11.0264H53.5393ZM53.5393 6.66699V12.1387H65.6331V6.66699V1.19529H53.5393V6.66699ZM68.2346 19.3936H62.7629V23.9639H68.2346H73.7063V19.3936H68.2346ZM68.2346 23.9639V18.4922H38.7737V23.9639V29.4356H68.2346V23.9639ZM38.7737 23.9639H44.2454V19.3936H38.7737H33.302V23.9639H38.7737ZM38.7737 19.3936V24.8653H51.2542V19.3936V13.9219H38.7737V19.3936ZM51.2542 19.3936H56.7258V14.542H51.2542H45.7825V19.3936H51.2542ZM51.2542 14.542V20.0137H56.8088V14.542V9.07029H51.2542V14.542ZM56.8088 14.542H51.3371V19.3936H56.8088H62.2805V14.542H56.8088ZM56.8088 19.3936V24.8653H68.2346V19.3936V13.9219H56.8088V19.3936ZM51.2893 6.66699H45.8176V8.24902H51.2893H56.761V6.66699H51.2893ZM51.2893 8.24902H45.8176C45.8176 10.2615 45.8062 12.8038 44.448 16.0527L49.4963 18.1631L54.5447 20.2735C56.7725 14.9443 56.761 10.5959 56.761 8.24902H51.2893ZM49.4963 18.1631L50.0929 12.724L44.6437 12.1263L44.0471 17.5654L43.4506 23.0045L48.8998 23.6022L49.4963 18.1631ZM44.0471 17.5654L49.1583 19.5187C50.3898 16.2964 50.9069 13.7035 51.1116 11.5424L45.6643 11.0264L40.217 10.5103C40.1053 11.6891 39.8139 13.3149 38.936 15.6121L44.0471 17.5654ZM45.6643 11.0264V5.55467H40.9885V11.0264V16.4981H45.6643V11.0264ZM40.9885 11.0264H46.4602V6.66699H40.9885H35.5168V11.0264H40.9885ZM40.9885 6.66699V12.1387H51.2893V6.66699V1.19529H40.9885V6.66699ZM64.6135 25.9326H59.1418V37.71H64.6135H70.0852V25.9326H64.6135ZM64.6135 37.71V32.2383H42.1838V37.71V43.1817H64.6135V37.71ZM42.1838 37.71H47.6555V25.9326H42.1838H36.7121V37.71H42.1838ZM42.1838 25.9326V31.4043H64.6135V25.9326V20.4609H42.1838V25.9326ZM47.7034 30.3271H42.2317V33.21H47.7034H53.1751V30.3271H47.7034ZM47.7034 33.21V38.6817H59.0237V33.21V27.7383H47.7034V33.21ZM59.0237 33.21H64.4954V30.3271H59.0237H53.552V33.21H59.0237ZM59.0237 30.3271V24.8555H47.7034V30.3271V35.7988H59.0237V30.3271ZM95.7971 5.54199H101.269C101.269 2.52006 98.8191 0.0702944 95.7971 0.0702944V5.54199ZM95.7971 15.0342H90.3254C90.3254 18.0561 92.7752 20.5059 95.7971 20.5059V15.0342ZM99.8401 15.0342H105.312C105.312 12.0122 102.862 9.56248 99.8401 9.56248V15.0342ZM99.8401 19.6045V25.0762C102.862 25.0762 105.312 22.6264 105.312 19.6045H99.8401ZM95.7971 19.6045V14.1328C92.7752 14.1328 90.3254 16.5826 90.3254 19.6045H95.7971ZM95.7971 29.7646V35.2363C98.8191 35.2363 101.269 32.7866 101.269 29.7646H95.7971ZM90.137 29.7646H84.6653C84.6653 32.7866 87.115 35.2363 90.137 35.2363V29.7646ZM90.137 5.54199V0.0702944C87.115 0.0702944 84.6653 2.52006 84.6653 5.54199H90.137ZM88.9768 8.60059H94.4485C94.4485 5.57865 91.9987 3.12889 88.9768 3.12889V8.60059ZM88.9768 12.96V18.4317C91.9987 18.4317 94.4485 15.9819 94.4485 12.96H88.9768ZM69.7463 12.96H64.2746C64.2746 15.9819 66.7244 18.4317 69.7463 18.4317V12.96ZM69.7463 8.60059V3.12889C66.7244 3.12889 64.2746 5.57865 64.2746 8.60059H69.7463ZM76.5315 8.60059V14.0723C79.5534 14.0723 82.0032 11.6225 82.0032 8.60059H76.5315ZM76.5315 5.47168V-1.81198e-05C73.5096 -1.81198e-05 71.0598 2.44974 71.0598 5.47168H76.5315ZM82.1917 5.47168H87.6633C87.6633 2.44974 85.2136 -1.81198e-05 82.1917 -1.81198e-05V5.47168ZM82.1917 8.60059H76.72C76.72 11.6225 79.1697 14.0723 82.1917 14.0723V8.60059ZM79.344 26.46L79.3845 20.9884C79.3576 20.9882 79.3307 20.9882 79.3038 20.9884L79.344 26.46ZM79.344 17.9521L79.4604 12.4817C79.382 12.48 79.3035 12.48 79.2251 12.4817L79.344 17.9521ZM96.7463 33.0342H102.218C102.218 30.0122 99.7683 27.5625 96.7463 27.5625V33.0342ZM96.7463 37.5342V43.0059C99.7683 43.0059 102.218 40.5561 102.218 37.5342H96.7463ZM74.2463 37.5342H68.7746C68.7746 40.5561 71.2244 43.0059 74.2463 43.0059V37.5342ZM74.2463 27.9365V22.4648C71.2244 22.4648 68.7746 24.9146 68.7746 27.9365H74.2463ZM79.9065 27.9365H85.3782C85.3782 24.9146 82.9284 22.4648 79.9065 22.4648V27.9365ZM79.9065 33.0342H74.4348C74.4348 36.0561 76.8846 38.5059 79.9065 38.5059V33.0342ZM95.7971 5.54199H90.3254V15.0342H95.7971H101.269V5.54199H95.7971ZM95.7971 15.0342V20.5059H99.8401V15.0342V9.56248H95.7971V15.0342ZM99.8401 15.0342H94.3684V19.6045H99.8401H105.312V15.0342H99.8401ZM99.8401 19.6045V14.1328H95.7971V19.6045V25.0762H99.8401V19.6045ZM95.7971 19.6045H90.3254V29.7646H95.7971H101.269V19.6045H95.7971ZM95.7971 29.7646V24.293H90.137V29.7646V35.2363H95.7971V29.7646ZM90.137 29.7646H95.6087V5.54199H90.137H84.6653V29.7646H90.137ZM90.137 5.54199V11.0137H95.7971V5.54199V0.0702944H90.137V5.54199ZM88.9768 8.60059H83.5051V12.96H88.9768H94.4485V8.60059H88.9768ZM88.9768 12.96V7.48826H69.7463V12.96V18.4317H88.9768V12.96ZM69.7463 12.96H75.218V8.60059H69.7463H64.2746V12.96H69.7463ZM69.7463 8.60059V14.0723H76.5315V8.60059V3.12889H69.7463V8.60059ZM76.5315 8.60059H82.0032V5.47168H76.5315H71.0598V8.60059H76.5315ZM76.5315 5.47168V10.9434H82.1917V5.47168V-1.81198e-05H76.5315V5.47168ZM82.1917 5.47168H76.72V8.60059H82.1917H87.6633V5.47168H82.1917ZM82.1917 8.60059V14.0723H88.9768V8.60059V3.12889H82.1917V8.60059ZM79.344 13.6982V19.1699C80.7454 19.1699 81.5084 19.5607 81.7951 19.7869C81.9296 19.893 81.9647 19.962 81.9696 19.9718C81.9712 19.9751 81.9934 20.0116 81.9934 20.1318H87.4651H92.9368C92.9368 16.4602 91.2468 13.3047 88.5736 11.1956C85.9862 9.15417 82.6886 8.22654 79.344 8.22654V13.6982ZM87.4651 20.1318H81.9934C81.9934 20.1991 81.9862 20.2351 81.9834 20.2472C81.9806 20.259 81.9787 20.2621 81.9786 20.2623C81.9783 20.263 81.973 20.2738 81.9551 20.2951C81.9367 20.317 81.9003 20.3555 81.836 20.4053C81.5673 20.6132 80.8091 20.999 79.3845 20.9884L79.344 26.46L79.3035 31.9315C82.625 31.9561 85.9274 31.0762 88.5326 29.0605C91.2363 26.9687 92.9368 23.8135 92.9368 20.1318H87.4651ZM79.344 26.46L79.3038 20.9884C77.8525 20.9991 77.0687 20.6085 76.7845 20.3905C76.7169 20.3387 76.6785 20.2984 76.6591 20.2756C76.6492 20.2639 76.6433 20.2556 76.64 20.2507C76.6368 20.2459 76.6355 20.2434 76.6353 20.243C76.6351 20.2427 76.6352 20.2427 76.6352 20.2426C76.6351 20.2425 76.6343 20.2404 76.6331 20.2352C76.6311 20.2267 76.6243 20.1947 76.6243 20.1318H71.1526H65.6809C65.6809 23.8359 67.4099 26.9928 70.1262 29.0753C72.7423 31.081 76.0543 31.956 79.3842 31.9315L79.344 26.46ZM71.1526 20.1318H76.6243C76.6243 20.021 76.6444 19.9912 76.6445 19.991C76.6482 19.9836 76.6843 19.9122 76.8255 19.8019C77.1273 19.5659 77.9156 19.1699 79.344 19.1699V13.6982V8.22654C72.8713 8.22654 65.6809 12.1355 65.6809 20.1318H71.1526ZM79.344 17.9521L79.2251 12.4817C77.8154 12.5124 75.8292 12.8167 74.0794 14.1538C72.0749 15.6855 71.2004 17.9343 71.2004 20.1318H76.6721H82.1438C82.1438 20.417 82.0911 20.8973 81.8362 21.4534C81.5726 22.0284 81.174 22.5051 80.7239 22.8491C79.9056 23.4744 79.2554 23.4271 79.4629 23.4226L79.344 17.9521ZM76.6721 20.1318H71.2004C71.2004 22.332 72.0817 24.6191 74.1586 26.1473C75.9499 27.4655 77.9614 27.7129 79.344 27.7129V22.2412V16.7695C79.1094 16.7695 79.7849 16.7006 80.6446 17.3331C81.1224 17.6847 81.5453 18.1785 81.8237 18.7772C82.0917 19.3535 82.1438 19.8486 82.1438 20.1318H76.6721ZM79.344 22.2412V27.7129C80.7293 27.7129 82.7142 27.4708 84.4982 26.2171C86.5894 24.7476 87.593 22.4667 87.593 20.1318H82.1213H76.6496C76.6496 19.7992 76.716 19.2668 77.0096 18.6697C77.3108 18.0573 77.7499 17.5841 78.2064 17.2633C79.0148 16.6953 79.6111 16.7695 79.344 16.7695V22.2412ZM82.1213 20.1318H87.593C87.593 17.8027 86.599 15.5565 84.5777 14.0815C82.832 12.8076 80.8698 12.5117 79.4604 12.4817L79.344 17.9521L79.2276 23.4226C79.4706 23.4278 78.897 23.4834 78.1269 22.9215C77.6962 22.6071 77.2817 22.1492 76.9961 21.5602C76.7165 20.9834 76.6496 20.4661 76.6496 20.1318H82.1213ZM96.7463 33.0342H91.2746V37.5342H96.7463H102.218V33.0342H96.7463ZM96.7463 37.5342V32.0625H74.2463V37.5342V43.0059H96.7463V37.5342ZM74.2463 37.5342H79.718V27.9365H74.2463H68.7746V37.5342H74.2463ZM74.2463 27.9365V33.4082H79.9065V27.9365V22.4648H74.2463V27.9365ZM79.9065 27.9365H74.4348V33.0342H79.9065H85.3782V27.9365H79.9065ZM79.9065 33.0342V38.5059H96.7463V33.0342V27.5625H79.9065V33.0342Z" fill="white" mask="url(#path-1-outside-1_4197_193)"/>
</g>
<defs>
<filter id="filter0_d_4197_193" x="4.14848e-05" y="0" width="107.5" height="47.559" filterUnits="userSpaceOnUse" color-interpolation-filters="sRGB">
<feFlood flood-opacity="0" result="BackgroundImageFix"/>
<feColorMatrix in="SourceAlpha" type="matrix" values="0 0 0 0 0 0 0 0 0 0 0 0 0 0 0 0 0 0 127 0" result="hardAlpha"/>
<feOffset dy="2.18868"/>
<feGaussianBlur stdDeviation="1.09434"/>
<feComposite in2="hardAlpha" operator="out"/>
<feColorMatrix type="matrix" values="0 0 0 0 0 0 0 0 0 0 0 0 0 0 0 0 0 0 0.07 0"/>
<feBlend mode="normal" in2="BackgroundImageFix" result="effect1_dropShadow_4197_193"/>
<feBlend mode="normal" in="SourceGraphic" in2="effect1_dropShadow_4197_193" result="shape"/>
</filter>
</defs>
</svg>
