<svg width="108" height="53" viewBox="0 0 108 53" fill="none" xmlns="http://www.w3.org/2000/svg">
<g filter="url(#filter0_d_4157_1391)">
<mask id="path-1-outside-1_4157_1391" maskUnits="userSpaceOnUse" x="0.393472" y="-2.2582" width="106.957" height="51.5383" fill="black">
<rect fill="white" x="0.393472" y="-2.2582" width="106.957" height="51.5383"/>
<path d="M35.7207 7.28662L35.5447 9.67075C35.3686 12.0549 35.1486 15.0351 33.7873 18.6713L28.4268 17.7467C29.3786 15.1202 29.7443 13.0321 29.9653 11.2329L23.3388 10.7437L23.6598 6.39613L35.7207 7.28662ZM37.3781 20.1702L37.0416 24.7281L7.66063 22.5588L7.99715 18.0009L20.4437 18.9199L20.801 14.0815L26.3406 14.4905L25.9834 19.3289L37.3781 20.1702ZM21.4159 6.23046L21.2994 7.8082C21.1389 9.98197 20.8852 13.4179 18.7813 17.5633L13.3909 16.5661C14.6459 13.8914 15.2044 11.8176 15.4852 10.1638L10.8221 9.81954L11.1431 5.472L21.4159 6.23046ZM33.2854 26.4249L32.4182 38.1703L10.0494 36.5187L10.9166 24.7733L33.2854 26.4249ZM16.0975 29.5624L15.8853 32.4373L27.1749 33.2709L27.3871 30.3959L16.0975 29.5624ZM66.7495 9.57754L66.5735 11.9617C66.3975 14.3458 66.1774 17.326 64.8162 20.9622L59.4556 20.0376C60.4075 17.4111 60.7731 15.323 60.9941 13.5238L54.3676 13.0346L54.6886 8.68706L66.7495 9.57754ZM68.4069 22.4611L68.0704 27.019L38.6895 24.8498L39.026 20.2919L51.4726 21.2108L51.8298 16.3724L57.3694 16.7814L57.0122 21.6198L68.4069 22.4611ZM52.4447 8.52139L52.3282 10.0991C52.1677 12.2729 51.914 15.7089 49.8101 19.8543L44.4197 18.857C45.6747 16.1824 46.2333 14.1085 46.514 12.4547L41.8509 12.1105L42.1719 7.76292L52.4447 8.52139ZM64.3142 28.7158L63.447 40.4612L41.0782 38.8096L41.9454 27.0643L64.3142 28.7158ZM47.1264 31.8533L46.9141 34.7283L58.2037 35.5618L58.4159 32.6868L47.1264 31.8533ZM96.9145 10.6766L96.2156 20.143L100.248 20.4407L99.9111 24.9986L95.8791 24.701L95.131 34.8335L89.4862 34.4168L91.2697 10.2599L96.9145 10.6766ZM89.8875 13.2247L89.5665 17.5723L70.3883 16.1563L70.7093 11.8088L77.476 12.3084L77.7064 9.18794L83.3512 9.60471L83.1208 12.7251L89.8875 13.2247ZM79.9055 17.5993C84.6387 17.9487 87.8104 20.8268 87.5308 24.6134C87.2513 28.3999 83.6965 30.7109 78.9658 30.3263C74.195 30.0094 70.9831 27.1988 71.2626 23.4122C71.5422 19.6257 75.1372 17.2472 79.9055 17.5993ZM79.5923 21.8416C77.9769 21.7576 76.8759 22.3461 76.7672 23.8187C76.6585 25.2912 77.6637 26 79.2765 26.119C80.9243 26.2407 82.0929 25.6924 82.2016 24.2199C82.3103 22.7473 81.2376 21.9983 79.5923 21.8416ZM95.8369 38.1641L95.5055 42.6519L73.0666 40.9952L73.7733 31.4235L79.4181 31.8403L79.0428 36.9241L95.8369 38.1641Z"/>
</mask>
<path d="M35.7207 7.28662L35.5447 9.67075C35.3686 12.0549 35.1486 15.0351 33.7873 18.6713L28.4268 17.7467C29.3786 15.1202 29.7443 13.0321 29.9653 11.2329L23.3388 10.7437L23.6598 6.39613L35.7207 7.28662ZM37.3781 20.1702L37.0416 24.7281L7.66063 22.5588L7.99715 18.0009L20.4437 18.9199L20.801 14.0815L26.3406 14.4905L25.9834 19.3289L37.3781 20.1702ZM21.4159 6.23046L21.2994 7.8082C21.1389 9.98197 20.8852 13.4179 18.7813 17.5633L13.3909 16.5661C14.6459 13.8914 15.2044 11.8176 15.4852 10.1638L10.8221 9.81954L11.1431 5.472L21.4159 6.23046ZM33.2854 26.4249L32.4182 38.1703L10.0494 36.5187L10.9166 24.7733L33.2854 26.4249ZM16.0975 29.5624L15.8853 32.4373L27.1749 33.2709L27.3871 30.3959L16.0975 29.5624ZM66.7495 9.57754L66.5735 11.9617C66.3975 14.3458 66.1774 17.326 64.8162 20.9622L59.4556 20.0376C60.4075 17.4111 60.7731 15.323 60.9941 13.5238L54.3676 13.0346L54.6886 8.68706L66.7495 9.57754ZM68.4069 22.4611L68.0704 27.019L38.6895 24.8498L39.026 20.2919L51.4726 21.2108L51.8298 16.3724L57.3694 16.7814L57.0122 21.6198L68.4069 22.4611ZM52.4447 8.52139L52.3282 10.0991C52.1677 12.2729 51.914 15.7089 49.8101 19.8543L44.4197 18.857C45.6747 16.1824 46.2333 14.1085 46.514 12.4547L41.8509 12.1105L42.1719 7.76292L52.4447 8.52139ZM64.3142 28.7158L63.447 40.4612L41.0782 38.8096L41.9454 27.0643L64.3142 28.7158ZM47.1264 31.8533L46.9141 34.7283L58.2037 35.5618L58.4159 32.6868L47.1264 31.8533ZM96.9145 10.6766L96.2156 20.143L100.248 20.4407L99.9111 24.9986L95.8791 24.701L95.131 34.8335L89.4862 34.4168L91.2697 10.2599L96.9145 10.6766ZM89.8875 13.2247L89.5665 17.5723L70.3883 16.1563L70.7093 11.8088L77.476 12.3084L77.7064 9.18794L83.3512 9.60471L83.1208 12.7251L89.8875 13.2247ZM79.9055 17.5993C84.6387 17.9487 87.8104 20.8268 87.5308 24.6134C87.2513 28.3999 83.6965 30.7109 78.9658 30.3263C74.195 30.0094 70.9831 27.1988 71.2626 23.4122C71.5422 19.6257 75.1372 17.2472 79.9055 17.5993ZM79.5923 21.8416C77.9769 21.7576 76.8759 22.3461 76.7672 23.8187C76.6585 25.2912 77.6637 26 79.2765 26.119C80.9243 26.2407 82.0929 25.6924 82.2016 24.2199C82.3103 22.7473 81.2376 21.9983 79.5923 21.8416ZM95.8369 38.1641L95.5055 42.6519L73.0666 40.9952L73.7733 31.4235L79.4181 31.8403L79.0428 36.9241L95.8369 38.1641Z" fill="#11DCA9"/>
<path d="M35.7207 7.28662L41.1775 7.68951C41.4001 4.67577 39.1373 2.05228 36.1236 1.82977L35.7207 7.28662ZM33.7873 18.6713L32.8573 24.0633C35.4479 24.5101 37.99 23.0516 38.9117 20.5897L33.7873 18.6713ZM28.4268 17.7467L23.2825 15.8824C22.7307 17.4051 22.8818 19.0941 23.6952 20.4947C24.5086 21.8953 25.9007 22.8635 27.4968 23.1388L28.4268 17.7467ZM29.9653 11.2329L35.3962 11.8999C35.5787 10.4139 35.1443 8.91793 34.1942 7.76077C33.2441 6.60361 31.8613 5.88632 30.3682 5.77608L29.9653 11.2329ZM23.3388 10.7437L17.8819 10.3408C17.6594 13.3545 19.9222 15.978 22.9359 16.2005L23.3388 10.7437ZM23.6598 6.39613L24.0627 0.939287C21.0489 0.716777 18.4254 2.97951 18.2029 5.99324L23.6598 6.39613ZM37.3781 20.1702L42.835 20.5731C43.0575 17.5593 40.7947 14.9359 37.781 14.7133L37.3781 20.1702ZM37.0416 24.7281L36.6387 30.1849C39.6524 30.4075 42.2759 28.1447 42.4984 25.131L37.0416 24.7281ZM7.66063 22.5588L2.20378 22.1559C1.98127 25.1697 4.24401 27.7932 7.25774 28.0157L7.66063 22.5588ZM7.99715 18.0009L8.40004 12.5441C5.38631 12.3216 2.76281 14.5843 2.5403 17.598L7.99715 18.0009ZM20.4437 18.9199L20.0409 24.3767C23.0546 24.5992 25.6781 22.3365 25.9006 19.3228L20.4437 18.9199ZM20.801 14.0815L21.2039 8.62465C18.1901 8.40214 15.5666 10.6649 15.3441 13.6786L20.801 14.0815ZM26.3406 14.4905L31.7974 14.8934C32.0199 11.8797 29.7572 9.25616 26.7435 9.03365L26.3406 14.4905ZM25.9834 19.3289L20.5265 18.926C20.304 21.9397 22.5667 24.5632 25.5805 24.7857L25.9834 19.3289ZM21.4159 6.23046L26.8727 6.63335C27.0952 3.61962 24.8325 0.996126 21.8188 0.773616L21.4159 6.23046ZM18.7813 17.5633L17.7859 22.9437C20.1714 23.3851 22.5626 22.203 23.6606 20.0397L18.7813 17.5633ZM13.3909 16.5661L8.43741 14.2417C7.71724 15.7765 7.74917 17.5584 8.52384 19.0663C9.29851 20.5743 10.7284 21.638 12.3955 21.9465L13.3909 16.5661ZM15.4852 10.1638L20.8797 11.0796C21.1376 9.56037 20.7429 8.00283 19.7927 6.78974C18.8425 5.57664 17.4248 4.82044 15.8881 4.70698L15.4852 10.1638ZM10.8221 9.81954L5.36523 9.41665C5.14272 12.4304 7.40545 15.0539 10.4192 15.2764L10.8221 9.81954ZM11.1431 5.472L11.546 0.0151519C8.53222 -0.207358 5.90872 2.05537 5.68621 5.06911L11.1431 5.472ZM33.2854 26.4249L38.7422 26.8278C38.9647 23.814 36.702 21.1905 33.6883 20.968L33.2854 26.4249ZM32.4182 38.1703L32.0153 43.6271C35.029 43.8496 37.6525 41.5869 37.875 38.5731L32.4182 38.1703ZM10.0494 36.5187L4.59254 36.1158C4.37003 39.1296 6.63276 41.753 9.64649 41.9756L10.0494 36.5187ZM10.9166 24.7733L11.3195 19.3165C8.30573 19.094 5.68223 21.3567 5.45972 24.3704L10.9166 24.7733ZM16.0975 29.5624L16.5004 24.1055C13.4867 23.883 10.8632 26.1457 10.6407 29.1595L16.0975 29.5624ZM15.8853 32.4373L10.4284 32.0345C10.2059 35.0482 12.4686 37.6717 15.4824 37.8942L15.8853 32.4373ZM27.1749 33.2709L26.772 38.7277C29.7857 38.9502 32.4092 36.6875 32.6317 33.6738L27.1749 33.2709ZM27.3871 30.3959L32.844 30.7988C33.0665 27.785 30.8037 25.1616 27.79 24.939L27.3871 30.3959ZM35.7207 7.28662L30.2638 6.88373L30.0878 9.26786L35.5447 9.67075L41.0015 10.0736L41.1775 7.68951L35.7207 7.28662ZM35.5447 9.67075L30.0878 9.26786C29.9165 11.5889 29.7314 13.8988 28.663 16.7529L33.7873 18.6713L38.9117 20.5897C40.5658 16.1713 40.8208 12.5209 41.0015 10.0736L35.5447 9.67075ZM33.7873 18.6713L34.7173 13.2792L29.3568 12.3546L28.4268 17.7467L27.4968 23.1388L32.8573 24.0633L33.7873 18.6713ZM28.4268 17.7467L33.5711 19.611C34.7027 16.4884 35.1415 13.9738 35.3962 11.8999L29.9653 11.2329L24.5344 10.5659C24.3472 12.0904 24.0545 13.752 23.2825 15.8824L28.4268 17.7467ZM29.9653 11.2329L30.3682 5.77608L23.7417 5.28683L23.3388 10.7437L22.9359 16.2005L29.5624 16.6898L29.9653 11.2329ZM23.3388 10.7437L28.7956 11.1466L29.1166 6.79902L23.6598 6.39613L18.2029 5.99324L17.8819 10.3408L23.3388 10.7437ZM23.6598 6.39613L23.2569 11.853L35.3178 12.7435L35.7207 7.28662L36.1236 1.82977L24.0627 0.939287L23.6598 6.39613ZM37.3781 20.1702L31.9213 19.7673L31.5848 24.3252L37.0416 24.7281L42.4984 25.131L42.835 20.5731L37.3781 20.1702ZM37.0416 24.7281L37.4445 19.2713L8.06352 17.102L7.66063 22.5588L7.25774 28.0157L36.6387 30.1849L37.0416 24.7281ZM7.66063 22.5588L13.1175 22.9617L13.454 18.4038L7.99715 18.0009L2.5403 17.598L2.20378 22.1559L7.66063 22.5588ZM7.99715 18.0009L7.59426 23.4578L20.0409 24.3767L20.4437 18.9199L20.8466 13.463L8.40004 12.5441L7.99715 18.0009ZM20.4437 18.9199L25.9006 19.3228L26.2578 14.4844L20.801 14.0815L15.3441 13.6786L14.9869 18.517L20.4437 18.9199ZM20.801 14.0815L20.3981 19.5383L25.9377 19.9473L26.3406 14.4905L26.7435 9.03365L21.2039 8.62465L20.801 14.0815ZM26.3406 14.4905L20.8837 14.0876L20.5265 18.926L25.9834 19.3289L31.4402 19.7318L31.7974 14.8934L26.3406 14.4905ZM25.9834 19.3289L25.5805 24.7857L36.9752 25.627L37.3781 20.1702L37.781 14.7133L26.3862 13.872L25.9834 19.3289ZM21.4159 6.23046L15.959 5.82757L15.8425 7.40531L21.2994 7.8082L26.7562 8.21109L26.8727 6.63335L21.4159 6.23046ZM21.2994 7.8082L15.8425 7.40531C15.6944 9.41235 15.4957 11.9469 13.902 15.087L18.7813 17.5633L23.6606 20.0397C26.2747 14.889 26.5834 10.5516 26.7562 8.21109L21.2994 7.8082ZM18.7813 17.5633L19.7767 12.1829L14.3863 11.1857L13.3909 16.5661L12.3955 21.9465L17.7859 22.9437L18.7813 17.5633ZM13.3909 16.5661L18.3443 18.8904C19.8097 15.7675 20.5164 13.2197 20.8797 11.0796L15.4852 10.1638L10.0906 9.24807C9.89247 10.4154 9.48208 12.0154 8.43741 14.2417L13.3909 16.5661ZM15.4852 10.1638L15.8881 4.70698L11.225 4.36269L10.8221 9.81954L10.4192 15.2764L15.0823 15.6207L15.4852 10.1638ZM10.8221 9.81954L16.2789 10.2224L16.5999 5.87489L11.1431 5.472L5.68621 5.06911L5.36523 9.41665L10.8221 9.81954ZM11.1431 5.472L10.7402 10.9288L21.013 11.6873L21.4159 6.23046L21.8188 0.773616L11.546 0.0151519L11.1431 5.472ZM33.2854 26.4249L27.8285 26.022L26.9613 37.7674L32.4182 38.1703L37.875 38.5731L38.7422 26.8278L33.2854 26.4249ZM32.4182 38.1703L32.8211 32.7134L10.4523 31.0619L10.0494 36.5187L9.64649 41.9756L32.0153 43.6271L32.4182 38.1703ZM10.0494 36.5187L15.5062 36.9216L16.3734 25.1762L10.9166 24.7733L5.45972 24.3704L4.59254 36.1158L10.0494 36.5187ZM10.9166 24.7733L10.5137 30.2302L32.8825 31.8817L33.2854 26.4249L33.6883 20.968L11.3195 19.3165L10.9166 24.7733ZM16.0975 29.5624L10.6407 29.1595L10.4284 32.0345L15.8853 32.4373L21.3421 32.8402L21.5544 29.9652L16.0975 29.5624ZM15.8853 32.4373L15.4824 37.8942L26.772 38.7277L27.1749 33.2709L27.5777 27.814L16.2882 26.9805L15.8853 32.4373ZM27.1749 33.2709L32.6317 33.6738L32.844 30.7988L27.3871 30.3959L21.9303 29.993L21.718 32.868L27.1749 33.2709ZM27.3871 30.3959L27.79 24.939L16.5004 24.1055L16.0975 29.5624L15.6946 35.0192L26.9842 35.8527L27.3871 30.3959ZM66.7495 9.57754L72.2064 9.98043C72.4289 6.9667 70.1661 4.34321 67.1524 4.1207L66.7495 9.57754ZM64.8162 20.9622L63.8862 26.3543C66.4767 26.8011 69.0189 25.3425 69.9405 22.8806L64.8162 20.9622ZM59.4556 20.0376L54.3113 18.1733C53.7595 19.6961 53.9106 21.385 54.724 22.7856C55.5374 24.1862 56.9295 25.1544 58.5256 25.4297L59.4556 20.0376ZM60.9941 13.5238L66.425 14.1908C66.6075 12.7048 66.1731 11.2089 65.223 10.0517C64.2729 8.89453 62.8902 8.17724 61.397 8.067L60.9941 13.5238ZM54.3676 13.0346L48.9108 12.6317C48.6883 15.6454 50.951 18.2689 53.9647 18.4914L54.3676 13.0346ZM54.6886 8.68706L55.0915 3.23021C52.0778 3.0077 49.4543 5.27043 49.2318 8.28417L54.6886 8.68706ZM68.4069 22.4611L73.8638 22.864C74.0863 19.8503 71.8236 17.2268 68.8098 17.0043L68.4069 22.4611ZM68.0704 27.019L67.6675 32.4759C70.6813 32.6984 73.3048 30.4356 73.5273 27.4219L68.0704 27.019ZM38.6895 24.8498L33.2326 24.4469C33.0101 27.4606 35.2728 30.0841 38.2866 30.3066L38.6895 24.8498ZM39.026 20.2919L39.4289 14.835C36.4151 14.6125 33.7916 16.8752 33.5691 19.889L39.026 20.2919ZM51.4726 21.2108L51.0697 26.6677C54.0834 26.8902 56.7069 24.6274 56.9294 21.6137L51.4726 21.2108ZM51.8298 16.3724L52.2327 10.9156C49.219 10.6931 46.5955 12.9558 46.3729 15.9695L51.8298 16.3724ZM57.3694 16.7814L62.8263 17.1843C63.0488 14.1706 60.786 11.5471 57.7723 11.3246L57.3694 16.7814ZM57.0122 21.6198L51.5553 21.2169C51.3328 24.2307 53.5956 26.8542 56.6093 27.0767L57.0122 21.6198ZM52.4447 8.52139L57.9016 8.92428C58.1241 5.91054 55.8613 3.28705 52.8476 3.06454L52.4447 8.52139ZM49.8101 19.8543L48.8147 25.2346C51.2002 25.676 53.5914 24.4939 54.6894 22.3306L49.8101 19.8543ZM44.4197 18.857L39.4662 16.5326C38.7461 18.0674 38.778 19.8493 39.5527 21.3573C40.3273 22.8652 41.7573 23.929 43.4243 24.2374L44.4197 18.857ZM46.514 12.4547L51.9085 13.3705C52.1664 11.8513 51.7718 10.2938 50.8215 9.08066C49.8713 7.86756 48.4536 7.11137 46.9169 6.9979L46.514 12.4547ZM41.8509 12.1105L36.3941 11.7076C36.1715 14.7213 38.4343 17.3448 41.448 17.5673L41.8509 12.1105ZM42.1719 7.76292L42.5748 2.30608C39.561 2.08357 36.9375 4.3463 36.715 7.36003L42.1719 7.76292ZM64.3142 28.7158L69.771 29.1187C69.9936 26.105 67.7308 23.4815 64.7171 23.259L64.3142 28.7158ZM63.447 40.4612L63.0441 45.918C66.0579 46.1405 68.6813 43.8778 68.9039 40.8641L63.447 40.4612ZM41.0782 38.8096L35.6214 38.4067C35.3989 41.4205 37.6616 44.044 40.6753 44.2665L41.0782 38.8096ZM41.9454 27.0643L42.3483 21.6074C39.3346 21.3849 36.7111 23.6476 36.4885 26.6614L41.9454 27.0643ZM47.1264 31.8533L47.5293 26.3964C44.5155 26.1739 41.892 28.4367 41.6695 31.4504L47.1264 31.8533ZM46.9141 34.7283L41.4573 34.3254C41.2347 37.3391 43.4975 39.9626 46.5112 40.1851L46.9141 34.7283ZM58.2037 35.5618L57.8008 41.0186C60.8145 41.2412 63.438 38.9784 63.6605 35.9647L58.2037 35.5618ZM58.4159 32.6868L63.8728 33.0897C64.0953 30.076 61.8326 27.4525 58.8188 27.23L58.4159 32.6868ZM66.7495 9.57754L61.2927 9.17465L61.1166 11.5588L66.5735 11.9617L72.0303 12.3646L72.2064 9.98043L66.7495 9.57754ZM66.5735 11.9617L61.1166 11.5588C60.9453 13.8798 60.7603 16.1897 59.6918 19.0438L64.8162 20.9622L69.9405 22.8806C71.5946 18.4623 71.8496 14.8118 72.0303 12.3646L66.5735 11.9617ZM64.8162 20.9622L65.7462 15.5701L60.3856 14.6455L59.4556 20.0376L58.5256 25.4297L63.8862 26.3543L64.8162 20.9622ZM59.4556 20.0376L64.5999 21.9019C65.7315 18.7793 66.1703 16.2647 66.425 14.1908L60.9941 13.5238L55.5632 12.8568C55.376 14.3813 55.0834 16.0429 54.3113 18.1733L59.4556 20.0376ZM60.9941 13.5238L61.397 8.067L54.7705 7.57775L54.3676 13.0346L53.9647 18.4914L60.5912 18.9807L60.9941 13.5238ZM54.3676 13.0346L59.8245 13.4375L60.1454 9.08995L54.6886 8.68706L49.2318 8.28417L48.9108 12.6317L54.3676 13.0346ZM54.6886 8.68706L54.2857 14.1439L66.3466 15.0344L66.7495 9.57754L67.1524 4.1207L55.0915 3.23021L54.6886 8.68706ZM68.4069 22.4611L62.9501 22.0582L62.6136 26.6161L68.0704 27.019L73.5273 27.4219L73.8638 22.864L68.4069 22.4611ZM68.0704 27.019L68.4733 21.5622L39.0923 19.3929L38.6895 24.8498L38.2866 30.3066L67.6675 32.4759L68.0704 27.019ZM38.6895 24.8498L44.1463 25.2527L44.4828 20.6947L39.026 20.2919L33.5691 19.889L33.2326 24.4469L38.6895 24.8498ZM39.026 20.2919L38.6231 25.7487L51.0697 26.6677L51.4726 21.2108L51.8755 15.754L39.4289 14.835L39.026 20.2919ZM51.4726 21.2108L56.9294 21.6137L57.2866 16.7753L51.8298 16.3724L46.3729 15.9695L46.0157 20.8079L51.4726 21.2108ZM51.8298 16.3724L51.4269 21.8293L56.9665 22.2383L57.3694 16.7814L57.7723 11.3246L52.2327 10.9156L51.8298 16.3724ZM57.3694 16.7814L51.9126 16.3785L51.5553 21.2169L57.0122 21.6198L62.469 22.0227L62.8263 17.1843L57.3694 16.7814ZM57.0122 21.6198L56.6093 27.0767L68.0041 27.918L68.4069 22.4611L68.8098 17.0043L57.4151 16.163L57.0122 21.6198ZM52.4447 8.52139L46.9879 8.11849L46.8714 9.69623L52.3282 10.0991L57.7851 10.502L57.9016 8.92428L52.4447 8.52139ZM52.3282 10.0991L46.8714 9.69623C46.7232 11.7033 46.5246 14.2378 44.9309 17.3779L49.8101 19.8543L54.6894 22.3306C57.3035 17.1799 57.6123 12.8425 57.7851 10.502L52.3282 10.0991ZM49.8101 19.8543L50.8055 14.4739L45.4151 13.4766L44.4197 18.857L43.4243 24.2374L48.8147 25.2346L49.8101 19.8543ZM44.4197 18.857L49.3732 21.1813C50.8386 18.0584 51.5452 15.5106 51.9085 13.3705L46.514 12.4547L41.1195 11.539C40.9213 12.7064 40.5109 14.3063 39.4662 16.5326L44.4197 18.857ZM46.514 12.4547L46.9169 6.9979L42.2538 6.65362L41.8509 12.1105L41.448 17.5673L46.1111 17.9116L46.514 12.4547ZM41.8509 12.1105L47.3077 12.5134L47.6287 8.16581L42.1719 7.76292L36.715 7.36003L36.3941 11.7076L41.8509 12.1105ZM42.1719 7.76292L41.769 13.2198L52.0418 13.9782L52.4447 8.52139L52.8476 3.06454L42.5748 2.30608L42.1719 7.76292ZM64.3142 28.7158L58.8573 28.3129L57.9902 40.0583L63.447 40.4612L68.9039 40.8641L69.771 29.1187L64.3142 28.7158ZM63.447 40.4612L63.8499 35.0043L41.4811 33.3528L41.0782 38.8096L40.6753 44.2665L63.0441 45.918L63.447 40.4612ZM41.0782 38.8096L46.5351 39.2125L47.4022 27.4672L41.9454 27.0643L36.4885 26.6614L35.6214 38.4067L41.0782 38.8096ZM41.9454 27.0643L41.5425 32.5211L63.9113 34.1726L64.3142 28.7158L64.7171 23.259L42.3483 21.6074L41.9454 27.0643ZM47.1264 31.8533L41.6695 31.4504L41.4573 34.3254L46.9141 34.7283L52.3709 35.1312L52.5832 32.2562L47.1264 31.8533ZM46.9141 34.7283L46.5112 40.1851L57.8008 41.0186L58.2037 35.5618L58.6066 30.105L47.317 29.2714L46.9141 34.7283ZM58.2037 35.5618L63.6605 35.9647L63.8728 33.0897L58.4159 32.6868L52.9591 32.2839L52.7468 35.1589L58.2037 35.5618ZM58.4159 32.6868L58.8188 27.23L47.5293 26.3964L47.1264 31.8533L46.7235 37.3101L58.0131 38.1437L58.4159 32.6868ZM96.9145 10.6766L102.371 11.0795C102.594 8.06578 100.331 5.44229 97.3174 5.21978L96.9145 10.6766ZM96.2156 20.143L90.7588 19.7402C90.5363 22.7539 92.799 25.3774 95.8127 25.5999L96.2156 20.143ZM100.248 20.4407L105.704 20.8436C105.927 17.8299 103.664 15.2064 100.65 14.9839L100.248 20.4407ZM99.9111 24.9986L99.5082 30.4555C102.522 30.678 105.145 28.4153 105.368 25.4015L99.9111 24.9986ZM95.8791 24.701L96.282 19.2441C93.2683 19.0216 90.6448 21.2843 90.4223 24.2981L95.8791 24.701ZM95.131 34.8335L94.7281 40.2904C97.7418 40.5129 100.365 38.2502 100.588 35.2364L95.131 34.8335ZM89.4862 34.4168L84.0293 34.0139C83.8068 37.0276 86.0696 39.6511 89.0833 39.8736L89.4862 34.4168ZM91.2697 10.2599L91.6726 4.80301C88.6589 4.5805 86.0354 6.84324 85.8129 9.85697L91.2697 10.2599ZM89.8875 13.2247L95.3444 13.6276C95.5669 10.6139 93.3042 7.99039 90.2904 7.76788L89.8875 13.2247ZM89.5665 17.5723L89.1637 23.0291C92.1774 23.2516 94.8009 20.9889 95.0234 17.9752L89.5665 17.5723ZM70.3883 16.1563L64.9314 15.7534C64.7089 18.7671 66.9717 21.3906 69.9854 21.6131L70.3883 16.1563ZM70.7093 11.8088L71.1122 6.35191C68.0984 6.1294 65.4749 8.39213 65.2524 11.4059L70.7093 11.8088ZM77.476 12.3084L77.0731 17.7652C80.0868 17.9877 82.7103 15.725 82.9328 12.7112L77.476 12.3084ZM77.7064 9.18794L78.1093 3.7311C75.0955 3.50859 72.4721 5.77132 72.2495 8.78505L77.7064 9.18794ZM83.3512 9.60471L88.808 10.0076C89.0305 6.99387 86.7678 4.37038 83.7541 4.14786L83.3512 9.60471ZM83.1208 12.7251L77.664 12.3222C77.4414 15.336 79.7042 17.9595 82.7179 18.182L83.1208 12.7251ZM78.9658 30.3263L79.4091 24.8726C79.3823 24.8705 79.3555 24.8685 79.3286 24.8667L78.9658 30.3263ZM79.5923 21.8416L80.1112 16.3946C80.0331 16.3871 79.9548 16.3814 79.8765 16.3773L79.5923 21.8416ZM95.8369 38.1641L101.294 38.567C101.516 35.5532 99.2535 32.9297 96.2398 32.7072L95.8369 38.1641ZM95.5055 42.6519L95.1027 48.1087C98.1164 48.3312 100.74 46.0685 100.962 43.0548L95.5055 42.6519ZM73.0666 40.9952L67.6098 40.5923C67.3873 43.606 69.65 46.2295 72.6637 46.452L73.0666 40.9952ZM73.7733 31.4235L74.1762 25.9667C71.1625 25.7442 68.539 28.0069 68.3165 31.0207L73.7733 31.4235ZM79.4181 31.8403L84.8749 32.2432C85.0975 29.2295 82.8347 26.606 79.821 26.3835L79.4181 31.8403ZM79.0428 36.9241L73.5859 36.5212C73.3634 39.535 75.6261 42.1585 78.6399 42.381L79.0428 36.9241ZM96.9145 10.6766L91.4577 10.2737L90.7588 19.7402L96.2156 20.143L101.672 20.5459L102.371 11.0795L96.9145 10.6766ZM96.2156 20.143L95.8127 25.5999L99.8447 25.8976L100.248 20.4407L100.65 14.9839L96.6185 14.6862L96.2156 20.143ZM100.248 20.4407L94.7908 20.0378L94.4542 24.5958L99.9111 24.9986L105.368 25.4015L105.704 20.8436L100.248 20.4407ZM99.9111 24.9986L100.314 19.5418L96.282 19.2441L95.8791 24.701L95.4762 30.1578L99.5082 30.4555L99.9111 24.9986ZM95.8791 24.701L90.4223 24.2981L89.6741 34.4306L95.131 34.8335L100.588 35.2364L101.336 25.1038L95.8791 24.701ZM95.131 34.8335L95.5339 29.3767L89.8891 28.9599L89.4862 34.4168L89.0833 39.8736L94.7281 40.2904L95.131 34.8335ZM89.4862 34.4168L94.943 34.8197L96.7266 10.6627L91.2697 10.2599L85.8129 9.85697L84.0293 34.0139L89.4862 34.4168ZM91.2697 10.2599L90.8669 15.7167L96.5116 16.1335L96.9145 10.6766L97.3174 5.21978L91.6726 4.80301L91.2697 10.2599ZM89.8875 13.2247L84.4307 12.8218L84.1097 17.1694L89.5665 17.5723L95.0234 17.9752L95.3444 13.6276L89.8875 13.2247ZM89.5665 17.5723L89.9694 12.1154L70.7912 10.6994L70.3883 16.1563L69.9854 21.6131L89.1637 23.0291L89.5665 17.5723ZM70.3883 16.1563L75.8451 16.5592L76.1661 12.2116L70.7093 11.8088L65.2524 11.4059L64.9314 15.7534L70.3883 16.1563ZM70.7093 11.8088L70.3064 17.2656L77.0731 17.7652L77.476 12.3084L77.8789 6.85151L71.1122 6.35191L70.7093 11.8088ZM77.476 12.3084L82.9328 12.7112L83.1632 9.59083L77.7064 9.18794L72.2495 8.78505L72.0192 11.9055L77.476 12.3084ZM77.7064 9.18794L77.3035 14.6448L82.9483 15.0616L83.3512 9.60471L83.7541 4.14786L78.1093 3.7311L77.7064 9.18794ZM83.3512 9.60471L77.8943 9.20182L77.664 12.3222L83.1208 12.7251L88.5776 13.128L88.808 10.0076L83.3512 9.60471ZM83.1208 12.7251L82.7179 18.182L89.4846 18.6816L89.8875 13.2247L90.2904 7.76788L83.5237 7.26828L83.1208 12.7251ZM79.9055 17.5993L79.5026 23.0561C80.9003 23.1593 81.6324 23.6052 81.9017 23.8518C82.0279 23.9675 82.0579 24.039 82.062 24.0491C82.0634 24.0525 82.0829 24.0906 82.074 24.2105L87.5308 24.6134L92.9877 25.0163C93.258 21.3546 91.8049 18.0832 89.2943 15.783C86.8643 13.5566 83.644 12.3887 80.3084 12.1424L79.9055 17.5993ZM87.5308 24.6134L82.074 24.2105C82.0691 24.2775 82.0592 24.3129 82.0555 24.3248C82.0519 24.3364 82.0498 24.3393 82.0496 24.3395C82.0493 24.3402 82.0432 24.3506 82.0238 24.3705C82.0039 24.3909 81.9647 24.4267 81.8969 24.4716C81.6136 24.6592 80.8291 24.988 79.4091 24.8726L78.9658 30.3263L78.5226 35.7801C81.8333 36.0492 85.1914 35.4148 87.938 33.5964C90.7884 31.7094 92.7166 28.6879 92.9877 25.0163L87.5308 24.6134ZM78.9658 30.3263L79.3286 24.8667C77.8805 24.7705 77.1276 24.3232 76.8602 24.0849C76.7966 24.0283 76.7612 23.9853 76.7436 23.961C76.7346 23.9487 76.7293 23.9399 76.7264 23.9349C76.7236 23.9299 76.7225 23.9273 76.7223 23.9269C76.7221 23.9265 76.7222 23.9265 76.7221 23.9264C76.7221 23.9263 76.7215 23.9241 76.7206 23.9189C76.7193 23.9103 76.7148 23.8778 76.7195 23.8151L71.2626 23.4122L65.8058 23.0094C65.533 26.7034 67.0249 29.979 69.5805 32.2558C72.0418 34.4487 75.2804 35.5652 78.6031 35.786L78.9658 30.3263ZM71.2626 23.4122L76.7195 23.8151C76.7276 23.7046 76.7499 23.6763 76.75 23.6762C76.7543 23.6691 76.7955 23.6006 76.9444 23.5009C77.2628 23.2878 78.0781 22.9509 79.5026 23.0561L79.9055 17.5993L80.3084 12.1424C73.8533 11.6658 66.3946 15.0347 65.8058 23.0094L71.2626 23.4122ZM79.5923 21.8416L79.8765 16.3773C78.4684 16.3041 76.4652 16.4613 74.6216 17.666C72.5098 19.0459 71.4721 21.2242 71.3103 23.4158L76.7672 23.8187L82.224 24.2215C82.203 24.5059 82.1151 24.981 81.8199 25.5169C81.5147 26.0709 81.0821 26.517 80.6079 26.8269C79.7458 27.3902 79.1008 27.2952 79.3081 27.3059L79.5923 21.8416ZM76.7672 23.8187L71.3103 23.4158C71.1483 25.61 71.8589 27.9557 73.8176 29.6328C75.507 31.0792 77.4947 31.4741 78.8736 31.5759L79.2765 26.119L79.6794 20.6622C79.4454 20.6449 80.1242 20.6259 80.9349 21.32C81.3855 21.7058 81.7709 22.2295 82.0045 22.847C82.2293 23.4415 82.2449 23.939 82.224 24.2215L76.7672 23.8187ZM79.2765 26.119L78.8736 31.5759C80.2551 31.6779 82.2525 31.5825 84.124 30.4637C86.3177 29.1522 87.4865 26.9513 87.6584 24.6228L82.2016 24.2199L76.7448 23.817C76.7693 23.4852 76.8747 22.9592 77.2114 22.3854C77.5569 21.7968 78.0296 21.3572 78.5085 21.0709C79.3565 20.5639 79.9457 20.6819 79.6794 20.6622L79.2765 26.119ZM82.2016 24.2199L87.6584 24.6228C87.8299 22.3 87.004 19.9867 85.0968 18.3668C83.4496 16.9678 81.5145 16.5283 80.1112 16.3946L79.5923 21.8416L79.0734 27.2887C79.3154 27.3117 78.7393 27.325 78.0126 26.7078C77.6062 26.3626 77.2265 25.8755 76.9851 25.267C76.7487 24.6712 76.7201 24.1504 76.7448 23.817L82.2016 24.2199ZM95.8369 38.1641L90.38 37.7612L90.0487 42.249L95.5055 42.6519L100.962 43.0548L101.294 38.567L95.8369 38.1641ZM95.5055 42.6519L95.9084 37.195L73.4695 35.5383L73.0666 40.9952L72.6637 46.452L95.1027 48.1087L95.5055 42.6519ZM73.0666 40.9952L78.5235 41.398L79.2302 31.8264L73.7733 31.4235L68.3165 31.0207L67.6098 40.5923L73.0666 40.9952ZM73.7733 31.4235L73.3704 36.8804L79.0152 37.2972L79.4181 31.8403L79.821 26.3835L74.1762 25.9667L73.7733 31.4235ZM79.4181 31.8403L73.9613 31.4374L73.5859 36.5212L79.0428 36.9241L84.4996 37.327L84.8749 32.2432L79.4181 31.8403ZM79.0428 36.9241L78.6399 42.381L95.434 43.6209L95.8369 38.1641L96.2398 32.7072L79.4456 31.4673L79.0428 36.9241Z" fill="white" mask="url(#path-1-outside-1_4157_1391)"/>
</g>
<defs>
<filter id="filter0_d_4157_1391" x="-1.95503e-05" y="0" width="107.908" height="52.5014" filterUnits="userSpaceOnUse" color-interpolation-filters="sRGB">
<feFlood flood-opacity="0" result="BackgroundImageFix"/>
<feColorMatrix in="SourceAlpha" type="matrix" values="0 0 0 0 0 0 0 0 0 0 0 0 0 0 0 0 0 0 127 0" result="hardAlpha"/>
<feOffset dy="2.18868"/>
<feGaussianBlur stdDeviation="1.09434"/>
<feComposite in2="hardAlpha" operator="out"/>
<feColorMatrix type="matrix" values="0 0 0 0 0 0 0 0 0 0 0 0 0 0 0 0 0 0 0.07 0"/>
<feBlend mode="normal" in2="BackgroundImageFix" result="effect1_dropShadow_4157_1391"/>
<feBlend mode="normal" in="SourceGraphic" in2="effect1_dropShadow_4157_1391" result="shape"/>
</filter>
</defs>
</svg>
