<svg width="253" height="68" viewBox="0 0 253 68" fill="none" xmlns="http://www.w3.org/2000/svg">
<g filter="url(#filter0_d_3990_1413)">
<mask id="path-1-outside-1_3990_1413" maskUnits="userSpaceOnUse" x="3.09766" y="-0.378906" width="246" height="61" fill="black">
<rect fill="white" x="3.09766" y="-0.378906" width="246" height="61"/>
<path d="M45.7109 11.6758V26.0273H35.5273V28.9922H50.2656V34.4922H14L14 28.9922H28.5664V26.0273H18.3828V11.6758L45.7109 11.6758ZM25.0859 17.0039V20.6562H38.9219V17.0039H25.0859ZM45.8828 36.6406V49.875H39.0078V42.0117H18.0391V36.6406H45.8828ZM88.3359 40.3359V45.793H52.0273V40.3359H60.3203V34.0195H54.8633V28.5195H59.6328V18.4648H54.6484V13.0078L85.5859 13.0078V18.4648H80.4727V28.5195H85.3711V34.0195H79.9141V40.3359H88.3359ZM66.5078 28.5195H73.6406V18.4648H66.5078V28.5195ZM67.2383 40.3359H72.9961V34.0195H67.2383V40.3359ZM106.168 20.0977C106.168 26.3281 108.488 33.2031 115.664 36.125L112.012 41.4961C107.457 39.627 104.514 36.1465 102.816 31.8711C101.076 36.6191 98.0898 40.4863 93.4492 42.5273L89.582 37.1133C96.7148 34.0195 99.1211 26.7578 99.1211 20.0977V19.4102H91.3008V13.8242H113.773V19.4102H106.168V20.0977ZM123.613 10.1289V49.875H116.652V10.1289H123.613ZM164.562 15.2422V20.7852H159.879V23.9219H164.562V29.4648H159.879V35.1367H152.961V10.1289H159.879V15.2422H164.562ZM146.602 35.5664C154.895 35.5664 160.266 38.2734 160.309 42.7852C160.266 47.2109 154.895 49.9609 146.602 49.9609C138.137 49.9609 132.852 47.2109 132.895 42.7852C132.852 38.2734 138.137 35.5664 146.602 35.5664ZM146.602 40.7656C141.918 40.7656 139.727 41.2383 139.727 42.7852C139.727 44.2031 141.918 44.8906 146.602 44.8906C151.156 44.8906 153.348 44.2031 153.348 42.7852C153.348 41.2383 151.156 40.7656 146.602 40.7656ZM151.543 13.4805V18.8086H128.039V13.4805H136.332V10H143.25V13.4805H151.543ZM139.77 19.7109C145.57 19.7109 149.695 22.7187 149.695 26.9297C149.695 31.2266 145.57 34.1055 139.77 34.1484C133.883 34.1055 129.758 31.2266 129.758 26.9297C129.758 22.7187 133.883 19.7109 139.77 19.7109ZM139.77 24.6953C137.793 24.6953 136.504 25.3398 136.504 26.9297C136.504 28.4766 137.793 29.1211 139.77 29.1211C141.789 29.1211 143.164 28.4766 143.164 26.9297C143.164 25.3398 141.789 24.6953 139.77 24.6953ZM189.141 12.0625V17.4766H181.922C182.266 21.4941 184.564 25.6191 190.559 27.5742L187.25 32.8594C182.975 31.5918 180.139 29.0352 178.441 25.8125C176.68 29.3789 173.715 32.2363 169.16 33.5898L165.637 28.1758C172.039 26.2637 174.381 21.709 174.789 17.4766H167.527V12.0625L189.141 12.0625ZM199.926 35.2656V49.875H193.051V40.7227H172.297V35.2656H199.926ZM199.926 10.1289V33.7617H193.051V24.7383H188.109V19.1523H193.051V10.1289H199.926ZM237.652 10.2148V38.4453H230.734V10.2148L237.652 10.2148ZM238.598 43.8164V49.3164H210.453V35.6094H217.414V43.8164H238.598ZM215.695 12.5781C221.883 12.5781 226.824 16.875 226.824 22.7617C226.824 28.7773 221.883 33.0312 215.695 33.0312C209.508 33.0312 204.523 28.7773 204.566 22.7617C204.523 16.875 209.508 12.5781 215.695 12.5781ZM215.695 18.5508C213.16 18.5508 211.27 19.9687 211.27 22.7617C211.27 25.6836 213.16 27.0586 215.695 27.0586C218.102 27.0586 219.992 25.6836 219.992 22.7617C219.992 19.9687 218.102 18.5508 215.695 18.5508Z"/>
</mask>
<path d="M45.7109 11.6758V26.0273H35.5273V28.9922H50.2656V34.4922H14L14 28.9922H28.5664V26.0273H18.3828V11.6758L45.7109 11.6758ZM25.0859 17.0039V20.6562H38.9219V17.0039H25.0859ZM45.8828 36.6406V49.875H39.0078V42.0117H18.0391V36.6406H45.8828ZM88.3359 40.3359V45.793H52.0273V40.3359H60.3203V34.0195H54.8633V28.5195H59.6328V18.4648H54.6484V13.0078L85.5859 13.0078V18.4648H80.4727V28.5195H85.3711V34.0195H79.9141V40.3359H88.3359ZM66.5078 28.5195H73.6406V18.4648H66.5078V28.5195ZM67.2383 40.3359H72.9961V34.0195H67.2383V40.3359ZM106.168 20.0977C106.168 26.3281 108.488 33.2031 115.664 36.125L112.012 41.4961C107.457 39.627 104.514 36.1465 102.816 31.8711C101.076 36.6191 98.0898 40.4863 93.4492 42.5273L89.582 37.1133C96.7148 34.0195 99.1211 26.7578 99.1211 20.0977V19.4102H91.3008V13.8242H113.773V19.4102H106.168V20.0977ZM123.613 10.1289V49.875H116.652V10.1289H123.613ZM164.562 15.2422V20.7852H159.879V23.9219H164.562V29.4648H159.879V35.1367H152.961V10.1289H159.879V15.2422H164.562ZM146.602 35.5664C154.895 35.5664 160.266 38.2734 160.309 42.7852C160.266 47.2109 154.895 49.9609 146.602 49.9609C138.137 49.9609 132.852 47.2109 132.895 42.7852C132.852 38.2734 138.137 35.5664 146.602 35.5664ZM146.602 40.7656C141.918 40.7656 139.727 41.2383 139.727 42.7852C139.727 44.2031 141.918 44.8906 146.602 44.8906C151.156 44.8906 153.348 44.2031 153.348 42.7852C153.348 41.2383 151.156 40.7656 146.602 40.7656ZM151.543 13.4805V18.8086H128.039V13.4805H136.332V10H143.25V13.4805H151.543ZM139.77 19.7109C145.57 19.7109 149.695 22.7187 149.695 26.9297C149.695 31.2266 145.57 34.1055 139.77 34.1484C133.883 34.1055 129.758 31.2266 129.758 26.9297C129.758 22.7187 133.883 19.7109 139.77 19.7109ZM139.77 24.6953C137.793 24.6953 136.504 25.3398 136.504 26.9297C136.504 28.4766 137.793 29.1211 139.77 29.1211C141.789 29.1211 143.164 28.4766 143.164 26.9297C143.164 25.3398 141.789 24.6953 139.77 24.6953ZM189.141 12.0625V17.4766H181.922C182.266 21.4941 184.564 25.6191 190.559 27.5742L187.25 32.8594C182.975 31.5918 180.139 29.0352 178.441 25.8125C176.68 29.3789 173.715 32.2363 169.16 33.5898L165.637 28.1758C172.039 26.2637 174.381 21.709 174.789 17.4766H167.527V12.0625L189.141 12.0625ZM199.926 35.2656V49.875H193.051V40.7227H172.297V35.2656H199.926ZM199.926 10.1289V33.7617H193.051V24.7383H188.109V19.1523H193.051V10.1289H199.926ZM237.652 10.2148V38.4453H230.734V10.2148L237.652 10.2148ZM238.598 43.8164V49.3164H210.453V35.6094H217.414V43.8164H238.598ZM215.695 12.5781C221.883 12.5781 226.824 16.875 226.824 22.7617C226.824 28.7773 221.883 33.0312 215.695 33.0312C209.508 33.0312 204.523 28.7773 204.566 22.7617C204.523 16.875 209.508 12.5781 215.695 12.5781ZM215.695 18.5508C213.16 18.5508 211.27 19.9687 211.27 22.7617C211.27 25.6836 213.16 27.0586 215.695 27.0586C218.102 27.0586 219.992 25.6836 219.992 22.7617C219.992 19.9687 218.102 18.5508 215.695 18.5508Z" fill="#11DCA9"/>
<path d="M45.7109 11.6758H55.7109C55.7109 6.15293 51.2338 1.67578 45.7109 1.67578V11.6758ZM45.7109 26.0273V36.0273C51.2338 36.0273 55.7109 31.5502 55.7109 26.0273H45.7109ZM35.5273 26.0273V16.0273C30.0045 16.0273 25.5273 20.5045 25.5273 26.0273H35.5273ZM35.5273 28.9922H25.5273C25.5273 34.515 30.0045 38.9922 35.5273 38.9922V28.9922ZM50.2656 28.9922H60.2656C60.2656 23.4693 55.7885 18.9922 50.2656 18.9922V28.9922ZM50.2656 34.4922V44.4922C55.7885 44.4922 60.2656 40.015 60.2656 34.4922H50.2656ZM14 34.4922H4C4 40.015 8.47715 44.4922 14 44.4922V34.4922ZM14 28.9922V18.9922C8.47715 18.9922 4 23.4693 4 28.9922H14ZM28.5664 28.9922V38.9922C34.0893 38.9922 38.5664 34.515 38.5664 28.9922H28.5664ZM28.5664 26.0273H38.5664C38.5664 20.5045 34.0893 16.0273 28.5664 16.0273V26.0273ZM18.3828 26.0273H8.38281C8.38281 31.5502 12.86 36.0273 18.3828 36.0273V26.0273ZM18.3828 11.6758V1.67578C12.86 1.67578 8.38281 6.15293 8.38281 11.6758H18.3828ZM25.0859 17.0039V7.00391C19.5631 7.00391 15.0859 11.4811 15.0859 17.0039H25.0859ZM25.0859 20.6562H15.0859C15.0859 26.1791 19.5631 30.6562 25.0859 30.6562V20.6562ZM38.9219 20.6562V30.6562C44.4447 30.6562 48.9219 26.1791 48.9219 20.6562H38.9219ZM38.9219 17.0039H48.9219C48.9219 11.4811 44.4447 7.00391 38.9219 7.00391V17.0039ZM45.8828 36.6406H55.8828C55.8828 31.1178 51.4057 26.6406 45.8828 26.6406V36.6406ZM45.8828 49.875V59.875C51.4057 59.875 55.8828 55.3978 55.8828 49.875H45.8828ZM39.0078 49.875H29.0078C29.0078 55.3978 33.485 59.875 39.0078 59.875V49.875ZM39.0078 42.0117H49.0078C49.0078 36.4889 44.5307 32.0117 39.0078 32.0117V42.0117ZM18.0391 42.0117H8.03906C8.03906 47.5346 12.5162 52.0117 18.0391 52.0117V42.0117ZM18.0391 36.6406V26.6406C12.5162 26.6406 8.03906 31.1178 8.03906 36.6406H18.0391ZM45.7109 11.6758L35.7109 11.6758V26.0273H45.7109H55.7109V11.6758H45.7109ZM45.7109 26.0273V16.0273H35.5273V26.0273V36.0273H45.7109V26.0273ZM35.5273 26.0273H25.5273V28.9922H35.5273H45.5273V26.0273H35.5273ZM35.5273 28.9922V38.9922H50.2656V28.9922V18.9922H35.5273V28.9922ZM50.2656 28.9922H40.2656V34.4922H50.2656H60.2656V28.9922H50.2656ZM50.2656 34.4922V24.4922H14L14 34.4922V44.4922H50.2656V34.4922ZM14 34.4922H24V28.9922H14H4V34.4922H14ZM14 28.9922L14 38.9922H28.5664V28.9922V18.9922H14V28.9922ZM28.5664 28.9922H38.5664V26.0273H28.5664H18.5664V28.9922H28.5664ZM28.5664 26.0273V16.0273H18.3828V26.0273V36.0273H28.5664V26.0273ZM18.3828 26.0273H28.3828V11.6758H18.3828H8.38281V26.0273H18.3828ZM18.3828 11.6758V21.6758H45.7109V11.6758V1.67578L18.3828 1.67578V11.6758ZM25.0859 17.0039H15.0859V20.6562H25.0859H35.0859V17.0039H25.0859ZM25.0859 20.6562V30.6562H38.9219V20.6562V10.6562H25.0859V20.6562ZM38.9219 20.6562H48.9219V17.0039H38.9219H28.9219V20.6562H38.9219ZM38.9219 17.0039V7.00391H25.0859V17.0039V27.0039H38.9219V17.0039ZM45.8828 36.6406H35.8828V49.875H45.8828H55.8828V36.6406H45.8828ZM45.8828 49.875V39.875H39.0078V49.875V59.875H45.8828V49.875ZM39.0078 49.875H49.0078V42.0117H39.0078H29.0078V49.875H39.0078ZM39.0078 42.0117V32.0117H18.0391V42.0117V52.0117H39.0078V42.0117ZM18.0391 42.0117H28.0391V36.6406H18.0391H8.03906V42.0117H18.0391ZM18.0391 36.6406V46.6406H45.8828V36.6406V26.6406H18.0391V36.6406ZM88.3359 40.3359H98.3359C98.3359 34.8131 93.8588 30.3359 88.3359 30.3359V40.3359ZM88.3359 45.793V55.793C93.8588 55.793 98.3359 51.3158 98.3359 45.793H88.3359ZM52.0273 45.793H42.0273C42.0273 51.3158 46.5045 55.793 52.0273 55.793V45.793ZM52.0273 40.3359V30.3359C46.5045 30.3359 42.0273 34.8131 42.0273 40.3359H52.0273ZM60.3203 40.3359V50.3359C65.8432 50.3359 70.3203 45.8588 70.3203 40.3359H60.3203ZM60.3203 34.0195H70.3203C70.3203 28.4967 65.8432 24.0195 60.3203 24.0195V34.0195ZM54.8633 34.0195H44.8633C44.8633 39.5424 49.3404 44.0195 54.8633 44.0195V34.0195ZM54.8633 28.5195V18.5195C49.3404 18.5195 44.8633 22.9967 44.8633 28.5195H54.8633ZM59.6328 28.5195V38.5195C65.1557 38.5195 69.6328 34.0424 69.6328 28.5195H59.6328ZM59.6328 18.4648H69.6328C69.6328 12.942 65.1557 8.46484 59.6328 8.46484V18.4648ZM54.6484 18.4648H44.6484C44.6484 23.9877 49.1256 28.4648 54.6484 28.4648V18.4648ZM54.6484 13.0078V3.00781C49.1256 3.00781 44.6484 7.48497 44.6484 13.0078H54.6484ZM85.5859 13.0078H95.5859C95.5859 7.48497 91.1088 3.00781 85.5859 3.00781V13.0078ZM85.5859 18.4648V28.4648C91.1088 28.4648 95.5859 23.9877 95.5859 18.4648H85.5859ZM80.4727 18.4648V8.46484C74.9498 8.46484 70.4727 12.942 70.4727 18.4648L80.4727 18.4648ZM80.4727 28.5195L70.4727 28.5195C70.4727 34.0424 74.9498 38.5195 80.4727 38.5195V28.5195ZM85.3711 28.5195H95.3711C95.3711 22.9967 90.8939 18.5195 85.3711 18.5195V28.5195ZM85.3711 34.0195V44.0195C90.8939 44.0195 95.3711 39.5424 95.3711 34.0195H85.3711ZM79.9141 34.0195V24.0195C74.3912 24.0195 69.9141 28.4967 69.9141 34.0195H79.9141ZM79.9141 40.3359H69.9141C69.9141 45.8588 74.3912 50.3359 79.9141 50.3359V40.3359ZM66.5078 28.5195H56.5078C56.5078 34.0424 60.985 38.5195 66.5078 38.5195V28.5195ZM73.6406 28.5195V38.5195C79.1635 38.5195 83.6406 34.0424 83.6406 28.5195L73.6406 28.5195ZM73.6406 18.4648L83.6406 18.4648C83.6406 12.942 79.1635 8.46484 73.6406 8.46484V18.4648ZM66.5078 18.4648V8.46484C60.985 8.46484 56.5078 12.942 56.5078 18.4648H66.5078ZM67.2383 40.3359H57.2383C57.2383 45.8588 61.7154 50.3359 67.2383 50.3359V40.3359ZM72.9961 40.3359V50.3359C78.5189 50.3359 82.9961 45.8588 82.9961 40.3359H72.9961ZM72.9961 34.0195H82.9961C82.9961 28.4967 78.5189 24.0195 72.9961 24.0195V34.0195ZM67.2383 34.0195V24.0195C61.7154 24.0195 57.2383 28.4967 57.2383 34.0195H67.2383ZM88.3359 40.3359H78.3359V45.793H88.3359H98.3359V40.3359H88.3359ZM88.3359 45.793V35.793H52.0273V45.793V55.793H88.3359V45.793ZM52.0273 45.793H62.0273V40.3359H52.0273H42.0273V45.793H52.0273ZM52.0273 40.3359V50.3359H60.3203V40.3359V30.3359H52.0273V40.3359ZM60.3203 40.3359H70.3203V34.0195H60.3203H50.3203V40.3359H60.3203ZM60.3203 34.0195V24.0195H54.8633V34.0195V44.0195H60.3203V34.0195ZM54.8633 34.0195H64.8633V28.5195H54.8633H44.8633V34.0195H54.8633ZM54.8633 28.5195V38.5195H59.6328V28.5195V18.5195H54.8633V28.5195ZM59.6328 28.5195H69.6328V18.4648H59.6328H49.6328V28.5195H59.6328ZM59.6328 18.4648V8.46484H54.6484V18.4648V28.4648H59.6328V18.4648ZM54.6484 18.4648H64.6484V13.0078H54.6484H44.6484V18.4648H54.6484ZM54.6484 13.0078V23.0078L85.5859 23.0078V13.0078V3.00781L54.6484 3.00781V13.0078ZM85.5859 13.0078L75.5859 13.0078V18.4648L85.5859 18.4648H95.5859V13.0078H85.5859ZM85.5859 18.4648V8.46484H80.4727V18.4648V28.4648H85.5859V18.4648ZM80.4727 18.4648L70.4727 18.4648V28.5195L80.4727 28.5195H90.4727V18.4648H80.4727ZM80.4727 28.5195V38.5195H85.3711V28.5195V18.5195H80.4727V28.5195ZM85.3711 28.5195L75.3711 28.5195V34.0195H85.3711H95.3711V28.5195H85.3711ZM85.3711 34.0195V24.0195H79.9141V34.0195V44.0195H85.3711V34.0195ZM79.9141 34.0195H69.9141V40.3359H79.9141H89.9141V34.0195H79.9141ZM79.9141 40.3359V50.3359H88.3359V40.3359V30.3359H79.9141V40.3359ZM66.5078 28.5195V38.5195H73.6406V28.5195V18.5195H66.5078V28.5195ZM73.6406 28.5195L83.6406 28.5195V18.4648L73.6406 18.4648H63.6406V28.5195H73.6406ZM73.6406 18.4648V8.46484H66.5078V18.4648V28.4648H73.6406V18.4648ZM66.5078 18.4648H56.5078V28.5195H66.5078H76.5078V18.4648H66.5078ZM67.2383 40.3359V50.3359H72.9961V40.3359V30.3359H67.2383V40.3359ZM72.9961 40.3359H82.9961V34.0195H72.9961H62.9961V40.3359H72.9961ZM72.9961 34.0195V24.0195H67.2383V34.0195V44.0195H72.9961V34.0195ZM67.2383 34.0195H57.2383V40.3359H67.2383H77.2383V34.0195H67.2383ZM115.664 36.125L123.933 41.7481C125.631 39.2517 126.11 36.1221 125.237 33.2323C124.363 30.3425 122.231 28.0018 119.435 26.8634L115.664 36.125ZM112.012 41.4961L108.215 50.7474C112.589 52.5423 117.622 51.0288 120.281 47.1192L112.012 41.4961ZM102.816 31.8711L112.111 28.1814C110.581 24.3269 106.83 21.8168 102.683 21.872C98.5367 21.9271 94.8543 24.536 93.4272 28.4298L102.816 31.8711ZM93.4492 42.5273L85.3119 48.3397C88.064 52.1926 93.141 53.5874 97.4752 51.6811L93.4492 42.5273ZM89.582 37.1133L85.6029 27.9391C82.8325 29.1407 80.7534 31.5299 79.9461 34.4397C79.1387 37.3495 79.6895 40.4684 81.4447 42.9257L89.582 37.1133ZM99.1211 19.4102H109.121C109.121 13.8873 104.644 9.41016 99.1211 9.41016V19.4102ZM91.3008 19.4102H81.3008C81.3008 24.933 85.7779 29.4102 91.3008 29.4102V19.4102ZM91.3008 13.8242V3.82422C85.7779 3.82422 81.3008 8.30137 81.3008 13.8242H91.3008ZM113.773 13.8242H123.773C123.773 8.30137 119.296 3.82422 113.773 3.82422V13.8242ZM113.773 19.4102V29.4102C119.296 29.4102 123.773 24.933 123.773 19.4102H113.773ZM106.168 19.4102V9.41016C100.645 9.41016 96.168 13.8873 96.168 19.4102H106.168ZM123.613 10.1289H133.613C133.613 4.60606 129.136 0.128906 123.613 0.128906V10.1289ZM123.613 49.875V59.875C129.136 59.875 133.613 55.3978 133.613 49.875H123.613ZM116.652 49.875H106.652C106.652 55.3978 111.129 59.875 116.652 59.875V49.875ZM116.652 10.1289V0.128906C111.129 0.128906 106.652 4.60606 106.652 10.1289L116.652 10.1289ZM106.168 20.0977H96.168C96.168 28.3794 99.3804 40.2917 111.893 45.3866L115.664 36.125L119.435 26.8634C118.234 26.3741 117.587 25.6883 117.112 24.7669C116.547 23.6728 116.168 22.0659 116.168 20.0977H106.168ZM115.664 36.125L107.395 30.5019L103.742 35.873L112.012 41.4961L120.281 47.1192L123.933 41.7481L115.664 36.125ZM112.012 41.4961L115.808 32.2448C114.184 31.5783 112.987 30.388 112.111 28.1814L102.816 31.8711L93.522 35.5608C96.0405 41.9049 100.73 47.6756 108.215 50.7474L112.012 41.4961ZM102.816 31.8711L93.4272 28.4298C92.3646 31.3288 90.9606 32.6974 89.4233 33.3736L93.4492 42.5273L97.4752 51.6811C105.219 48.2753 109.788 41.9095 112.206 35.3124L102.816 31.8711ZM93.4492 42.5273L101.587 36.715L97.7194 31.3009L89.582 37.1133L81.4447 42.9257L85.3119 48.3397L93.4492 42.5273ZM89.582 37.1133L93.5612 46.2875C105.982 40.9001 109.121 28.5922 109.121 20.0977H99.1211H89.1211C89.1211 22.3183 88.7068 24.2007 88.0537 25.528C87.4761 26.7019 86.734 27.4485 85.6029 27.9391L89.582 37.1133ZM99.1211 20.0977H109.121V19.4102H99.1211H89.1211V20.0977H99.1211ZM99.1211 19.4102V9.41016H91.3008V19.4102V29.4102H99.1211V19.4102ZM91.3008 19.4102H101.301V13.8242H91.3008H81.3008V19.4102H91.3008ZM91.3008 13.8242V23.8242H113.773V13.8242V3.82422L91.3008 3.82422V13.8242ZM113.773 13.8242H103.773V19.4102H113.773H123.773V13.8242H113.773ZM113.773 19.4102V9.41016L106.168 9.41016V19.4102V29.4102H113.773V19.4102ZM106.168 19.4102H96.168V20.0977H106.168H116.168V19.4102H106.168ZM123.613 10.1289H113.613V49.875H123.613H133.613V10.1289H123.613ZM123.613 49.875V39.875H116.652V49.875V59.875H123.613V49.875ZM116.652 49.875H126.652V10.1289H116.652L106.652 10.1289V49.875H116.652ZM116.652 10.1289V20.1289H123.613V10.1289V0.128906L116.652 0.128906V10.1289ZM164.562 15.2422H174.562C174.562 9.71934 170.085 5.24219 164.562 5.24219V15.2422ZM164.562 20.7852V30.7852C170.085 30.7852 174.562 26.308 174.562 20.7852H164.562ZM159.879 20.7852V10.7852C154.356 10.7852 149.879 15.2623 149.879 20.7852H159.879ZM159.879 23.9219H149.879C149.879 29.4447 154.356 33.9219 159.879 33.9219V23.9219ZM164.562 23.9219H174.562C174.562 18.399 170.085 13.9219 164.562 13.9219V23.9219ZM164.562 29.4648V39.4648C170.085 39.4648 174.562 34.9877 174.562 29.4648H164.562ZM159.879 29.4648V19.4648C154.356 19.4648 149.879 23.942 149.879 29.4648H159.879ZM159.879 35.1367V45.1367C165.402 45.1367 169.879 40.6596 169.879 35.1367H159.879ZM152.961 35.1367H142.961C142.961 40.6596 147.438 45.1367 152.961 45.1367V35.1367ZM152.961 10.1289V0.128906C147.438 0.128906 142.961 4.60606 142.961 10.1289H152.961ZM159.879 10.1289H169.879C169.879 4.60606 165.402 0.128906 159.879 0.128906V10.1289ZM159.879 15.2422H149.879C149.879 20.765 154.356 25.2422 159.879 25.2422V15.2422ZM160.309 42.7852L170.308 42.8822C170.309 42.8181 170.309 42.754 170.308 42.6899L160.309 42.7852ZM132.895 42.7852L142.894 42.8822C142.895 42.8181 142.895 42.754 142.894 42.6899L132.895 42.7852ZM151.543 13.4805H161.543C161.543 7.95762 157.066 3.48047 151.543 3.48047V13.4805ZM151.543 18.8086V28.8086C157.066 28.8086 161.543 24.3314 161.543 18.8086H151.543ZM128.039 18.8086H118.039C118.039 24.3314 122.516 28.8086 128.039 28.8086V18.8086ZM128.039 13.4805V3.48047C122.516 3.48047 118.039 7.95762 118.039 13.4805H128.039ZM136.332 13.4805V23.4805C141.855 23.4805 146.332 19.0033 146.332 13.4805H136.332ZM136.332 10V0C130.809 0 126.332 4.47715 126.332 10H136.332ZM143.25 10H153.25C153.25 4.47715 148.773 0 143.25 0V10ZM143.25 13.4805H133.25C133.25 19.0033 137.727 23.4805 143.25 23.4805V13.4805ZM139.77 34.1484L139.697 44.1482C139.746 44.1485 139.795 44.1485 139.844 44.1482L139.77 34.1484ZM164.562 15.2422H154.562V20.7852H164.562H174.562V15.2422H164.562ZM164.562 20.7852V10.7852H159.879V20.7852V30.7852H164.562V20.7852ZM159.879 20.7852H149.879V23.9219H159.879H169.879V20.7852H159.879ZM159.879 23.9219V33.9219H164.562V23.9219V13.9219H159.879V23.9219ZM164.562 23.9219H154.562V29.4648H164.562H174.562V23.9219H164.562ZM164.562 29.4648V19.4648H159.879V29.4648V39.4648H164.562V29.4648ZM159.879 29.4648H149.879V35.1367H159.879H169.879V29.4648H159.879ZM159.879 35.1367V25.1367H152.961V35.1367V45.1367H159.879V35.1367ZM152.961 35.1367H162.961V10.1289H152.961H142.961V35.1367H152.961ZM152.961 10.1289V20.1289H159.879V10.1289V0.128906H152.961V10.1289ZM159.879 10.1289H149.879V15.2422H159.879H169.879V10.1289H159.879ZM159.879 15.2422V25.2422H164.562V15.2422V5.24219H159.879V15.2422ZM146.602 35.5664V45.5664C148.147 45.5664 149.389 45.6939 150.33 45.8766C151.291 46.0631 151.783 46.2767 151.933 46.3551C152.086 46.4344 151.677 46.2609 151.198 45.5946C150.653 44.8372 150.318 43.8519 150.309 42.8804L160.309 42.7852L170.308 42.6899C170.241 35.6672 165.753 31.0001 161.164 28.6127C156.826 26.3556 151.63 25.5664 146.602 25.5664V35.5664ZM160.309 42.7852L150.309 42.6881C150.319 41.6539 150.679 40.6471 151.223 39.8977C151.701 39.2402 152.099 39.0754 151.933 39.1615C151.773 39.245 151.274 39.4606 150.315 39.6483C149.375 39.8323 148.138 39.9609 146.602 39.9609V49.9609V59.9609C151.655 59.9609 156.841 59.1531 161.164 56.9039C165.687 54.5509 170.24 49.9186 170.308 42.8822L160.309 42.7852ZM146.602 49.9609V39.9609C145.01 39.9609 143.742 39.8303 142.787 39.6452C141.813 39.4561 141.326 39.2414 141.189 39.1701C141.051 39.0975 141.493 39.292 141.996 40.0042C142.567 40.8133 142.904 41.8584 142.894 42.8822L132.895 42.7852L122.895 42.6881C122.826 49.7614 127.326 54.4915 131.926 56.8953C136.267 59.1644 141.498 59.9609 146.602 59.9609V49.9609ZM132.895 42.7852L142.894 42.6899C142.903 43.6498 142.591 44.6721 142.02 45.4881C141.516 46.2089 141.064 46.4122 141.189 46.3465C141.316 46.2803 141.796 46.0676 142.772 45.8797C143.728 45.6958 145.001 45.5664 146.602 45.5664V35.5664V25.5664C141.523 25.5664 136.282 26.3445 131.926 28.6213C127.259 31.0602 122.828 35.8249 122.895 42.8804L132.895 42.7852ZM146.602 40.7656V30.7656C144.255 30.7656 141.322 30.8479 138.757 31.553C137.443 31.9143 135.255 32.6872 133.294 34.5299C130.974 36.7104 129.727 39.6806 129.727 42.7852H139.727L149.727 42.7852C149.727 43.799 149.541 44.983 149.02 46.1975C148.497 47.4153 147.758 48.383 146.99 49.1042C145.587 50.4232 144.24 50.7878 144.058 50.8377C143.774 50.9159 143.792 50.8759 144.342 50.8324C144.845 50.7925 145.574 50.7656 146.602 50.7656V40.7656ZM139.727 42.7852H129.727C129.727 46.0873 131.144 48.9636 133.266 50.9732C135.099 52.709 137.139 53.5183 138.464 53.9264C141.084 54.7335 144.039 54.8906 146.602 54.8906V44.8906V34.8906C144.481 34.8906 143.998 34.704 144.352 34.8128C144.543 34.8719 145.743 35.2434 147.018 36.4514C147.711 37.1073 148.429 38.016 148.959 39.2016C149.496 40.4017 149.727 41.6354 149.727 42.7852L139.727 42.7852ZM146.602 44.8906V54.8906C149.116 54.8906 152.05 54.7318 154.665 53.9144C155.989 53.5007 158.017 52.6841 159.836 50.9483C161.936 48.9453 163.348 46.0809 163.348 42.7852H153.348H143.348C143.348 41.6356 143.578 40.407 144.11 39.214C144.635 38.0358 145.345 37.1311 146.032 36.4764C147.298 35.2683 148.493 34.8895 148.7 34.8248C149.081 34.7057 148.641 34.8906 146.602 34.8906V44.8906ZM153.348 42.7852H163.348C163.348 39.6861 162.106 36.7291 159.809 34.5547C157.861 32.7107 155.684 31.9297 154.369 31.5628C151.806 30.8482 148.895 30.7656 146.602 30.7656V40.7656V50.7656C147.592 50.7656 148.291 50.7923 148.77 50.831C149.294 50.8735 149.295 50.9111 148.997 50.8278C148.798 50.7724 147.454 50.3996 146.06 49.0793C145.299 48.3591 144.567 47.3955 144.05 46.1853C143.533 44.9779 143.348 43.7991 143.348 42.7852H153.348ZM151.543 13.4805H141.543V18.8086H151.543H161.543V13.4805H151.543ZM151.543 18.8086V8.80859H128.039V18.8086V28.8086L151.543 28.8086V18.8086ZM128.039 18.8086H138.039V13.4805H128.039H118.039V18.8086H128.039ZM128.039 13.4805V23.4805H136.332V13.4805V3.48047H128.039V13.4805ZM136.332 13.4805H146.332V10H136.332H126.332V13.4805H136.332ZM136.332 10V20H143.25V10V0H136.332V10ZM143.25 10H133.25V13.4805H143.25H153.25V10H143.25ZM143.25 13.4805V23.4805H151.543V13.4805V3.48047H143.25V13.4805ZM139.77 19.7109V29.7109C141.042 29.7109 141.332 30.0512 141.023 29.8264C140.843 29.6952 140.492 29.3827 140.184 28.818C139.862 28.2284 139.695 27.5588 139.695 26.9297H149.695H159.695C159.695 21.2045 156.774 16.5536 152.792 13.656C148.971 10.8745 144.298 9.71094 139.77 9.71094V19.7109ZM149.695 26.9297H139.695C139.695 26.3533 139.847 25.689 140.182 25.0744C140.504 24.4849 140.876 24.1545 141.072 24.0138C141.395 23.7817 141.08 24.1385 139.695 24.1487L139.77 34.1484L139.844 44.1482C144.26 44.1155 148.908 43.0112 152.744 40.2548C156.794 37.344 159.695 32.6725 159.695 26.9297H149.695ZM139.77 34.1484L139.843 24.1487C138.388 24.1381 138.049 23.7686 138.369 23.9969C138.564 24.1367 138.941 24.4687 139.267 25.064C139.606 25.6844 139.758 26.353 139.758 26.9297H129.758H119.758C119.758 32.6793 122.666 37.3593 126.744 40.2716C130.598 43.0244 135.264 44.1158 139.697 44.1482L139.77 34.1484ZM129.758 26.9297H139.758C139.758 27.5591 139.591 28.233 139.265 28.8284C138.953 29.3989 138.598 29.7131 138.417 29.8435C138.111 30.0652 138.426 29.7109 139.77 29.7109V19.7109V9.71094C135.227 9.71094 130.536 10.8606 126.695 13.639C122.687 16.5384 119.758 21.1977 119.758 26.9297H129.758ZM139.77 24.6953V14.6953C137.999 14.6953 134.953 14.9301 132.053 16.7633C128.42 19.0592 126.504 22.9031 126.504 26.9297H136.504H146.504C146.504 27.9059 146.297 29.2353 145.556 30.6222C144.805 32.0286 143.752 33.0287 142.738 33.6693C141.786 34.271 140.957 34.5055 140.516 34.5998C140.065 34.6962 139.79 34.6953 139.77 34.6953V24.6953ZM136.504 26.9297H126.504C126.504 31.0456 128.515 34.8562 132.11 37.0944C134.983 38.8832 137.992 39.1211 139.77 39.1211V29.1211V19.1211C139.791 19.1211 140.06 19.1204 140.5 19.2139C140.93 19.305 141.742 19.5321 142.681 20.1165C143.678 20.7371 144.743 21.7209 145.514 23.1332C146.279 24.5348 146.504 25.8987 146.504 26.9297H136.504ZM139.77 29.1211V39.1211C141.554 39.1211 144.502 38.8855 147.335 37.2008C150.878 35.0941 153.164 31.3272 153.164 26.9297H143.164H133.164C133.164 25.7899 133.432 24.3537 134.257 22.925C135.076 21.5072 136.167 20.5728 137.113 20.0101C138.009 19.4775 138.766 19.2774 139.145 19.1997C139.539 19.119 139.768 19.1211 139.77 19.1211V29.1211ZM143.164 26.9297H153.164C153.164 22.625 150.981 18.8218 147.392 16.655C144.53 14.9279 141.547 14.6953 139.77 14.6953V24.6953V34.6953C139.769 34.6953 139.533 34.6976 139.13 34.6142C138.74 34.5337 137.966 34.3267 137.056 33.7776C136.092 33.1954 135.011 32.244 134.211 30.8291C133.411 29.4128 133.164 28.0115 133.164 26.9297H143.164ZM189.141 12.0625H199.141C199.141 6.53965 194.663 2.0625 189.141 2.0625V12.0625ZM189.141 17.4766V27.4766C194.663 27.4766 199.141 22.9994 199.141 17.4766H189.141ZM181.922 17.4766V7.47656C179.122 7.47656 176.449 8.65077 174.556 10.7136C172.662 12.7765 171.72 15.5389 171.958 18.3291L181.922 17.4766ZM190.559 27.5742L199.035 32.8804C200.668 30.2717 201.009 27.0563 199.959 24.1632C198.909 21.2701 196.585 19.0215 193.659 18.0671L190.559 27.5742ZM187.25 32.8594L184.407 42.4469C188.714 43.7236 193.343 41.9726 195.726 38.1656L187.25 32.8594ZM178.441 25.8125L187.289 21.1526C185.538 17.8272 182.07 15.7646 178.312 15.8133C174.554 15.8621 171.14 18.0139 169.476 21.3836L178.441 25.8125ZM169.16 33.5898L160.779 39.0444C163.194 42.7562 167.764 44.4371 172.009 43.1755L169.16 33.5898ZM165.637 28.1758L162.775 18.594C159.754 19.4962 157.336 21.7701 156.249 24.7297C155.163 27.6893 155.536 30.9879 157.255 33.6303L165.637 28.1758ZM174.789 17.4766L184.743 18.4366C185.014 15.6304 184.087 12.8404 182.192 10.7535C180.296 8.66653 177.608 7.47656 174.789 7.47656V17.4766ZM167.527 17.4766H157.527C157.527 22.9994 162.005 27.4766 167.527 27.4766V17.4766ZM167.527 12.0625V2.0625C162.005 2.0625 157.527 6.53965 157.527 12.0625H167.527ZM199.926 35.2656H209.926C209.926 29.7428 205.449 25.2656 199.926 25.2656V35.2656ZM199.926 49.875V59.875C205.449 59.875 209.926 55.3978 209.926 49.875H199.926ZM193.051 49.875H183.051C183.051 55.3978 187.528 59.875 193.051 59.875V49.875ZM193.051 40.7227H203.051C203.051 35.1998 198.574 30.7227 193.051 30.7227V40.7227ZM172.297 40.7227H162.297C162.297 46.2455 166.774 50.7227 172.297 50.7227V40.7227ZM172.297 35.2656V25.2656C166.774 25.2656 162.297 29.7428 162.297 35.2656H172.297ZM199.926 10.1289H209.926C209.926 4.60606 205.449 0.128906 199.926 0.128906V10.1289ZM199.926 33.7617V43.7617C205.449 43.7617 209.926 39.2846 209.926 33.7617H199.926ZM193.051 33.7617H183.051C183.051 39.2846 187.528 43.7617 193.051 43.7617V33.7617ZM193.051 24.7383H203.051C203.051 19.2154 198.574 14.7383 193.051 14.7383V24.7383ZM188.109 24.7383H178.109C178.109 30.2611 182.587 34.7383 188.109 34.7383V24.7383ZM188.109 19.1523V9.15234C182.587 9.15234 178.109 13.6295 178.109 19.1523H188.109ZM193.051 19.1523V29.1523C198.574 29.1523 203.051 24.6752 203.051 19.1523H193.051ZM193.051 10.1289V0.128906C187.528 0.128906 183.051 4.60606 183.051 10.1289H193.051ZM189.141 12.0625H179.141V17.4766H189.141H199.141V12.0625H189.141ZM189.141 17.4766V7.47656H181.922V17.4766V27.4766H189.141V17.4766ZM181.922 17.4766L171.958 18.3291C172.267 21.9381 173.486 25.873 176.194 29.3942C178.933 32.9574 182.783 35.5566 187.458 37.0813L190.559 27.5742L193.659 18.0671C192.971 17.8426 192.569 17.6155 192.357 17.4711C192.151 17.331 192.072 17.2341 192.049 17.2035C192.022 17.169 191.92 17.0326 191.885 16.6241L181.922 17.4766ZM190.559 27.5742L182.082 22.268L178.774 27.5532L187.25 32.8594L195.726 38.1656L199.035 32.8804L190.559 27.5742ZM187.25 32.8594L190.093 23.2719C189.159 22.9952 188.597 22.6474 188.241 22.3543C187.883 22.0584 187.567 21.6789 187.289 21.1526L178.441 25.8125L169.594 30.4724C172.53 36.0477 177.513 40.4029 184.407 42.4469L187.25 32.8594ZM178.441 25.8125L169.476 21.3836C168.85 22.6493 167.997 23.5032 166.312 24.0041L169.16 33.5898L172.009 43.1755C179.432 40.9694 184.509 36.1085 187.407 30.2414L178.441 25.8125ZM169.16 33.5898L177.542 28.1353L174.018 22.7212L165.637 28.1758L157.255 33.6303L160.779 39.0444L169.16 33.5898ZM165.637 28.1758L168.498 37.7576C173.569 36.2432 177.62 33.4659 180.447 29.7143C183.207 26.052 184.399 21.9997 184.743 18.4366L174.789 17.4766L164.835 16.5166C164.771 17.1859 164.588 17.5271 164.474 17.6783C164.417 17.7547 164.315 17.8692 164.107 18.0102C163.893 18.1549 163.485 18.382 162.775 18.594L165.637 28.1758ZM174.789 17.4766V7.47656L167.527 7.47656V17.4766V27.4766H174.789V17.4766ZM167.527 17.4766H177.527V12.0625L167.527 12.0625H157.527V17.4766H167.527ZM167.527 12.0625V22.0625H189.141V12.0625V2.0625L167.527 2.0625V12.0625ZM199.926 35.2656H189.926V49.875H199.926H209.926V35.2656H199.926ZM199.926 49.875V39.875H193.051V49.875V59.875H199.926V49.875ZM193.051 49.875H203.051V40.7227H193.051H183.051V49.875H193.051ZM193.051 40.7227V30.7227H172.297V40.7227V50.7227H193.051V40.7227ZM172.297 40.7227H182.297V35.2656H172.297H162.297V40.7227H172.297ZM172.297 35.2656V45.2656H199.926V35.2656V25.2656H172.297V35.2656ZM199.926 10.1289H189.926V33.7617H199.926H209.926V10.1289H199.926ZM199.926 33.7617V23.7617H193.051V33.7617V43.7617H199.926V33.7617ZM193.051 33.7617H203.051V24.7383H193.051H183.051V33.7617H193.051ZM193.051 24.7383V14.7383H188.109V24.7383V34.7383H193.051V24.7383ZM188.109 24.7383H198.109V19.1523H188.109H178.109V24.7383H188.109ZM188.109 19.1523V29.1523H193.051V19.1523V9.15234H188.109V19.1523ZM193.051 19.1523H203.051V10.1289H193.051H183.051V19.1523H193.051ZM193.051 10.1289V20.1289H199.926V10.1289V0.128906L193.051 0.128906V10.1289ZM237.652 10.2148H247.652C247.652 4.692 243.175 0.214844 237.652 0.214844V10.2148ZM237.652 38.4453V48.4453C243.175 48.4453 247.652 43.9682 247.652 38.4453H237.652ZM230.734 38.4453H220.734C220.734 43.9682 225.212 48.4453 230.734 48.4453V38.4453ZM230.734 10.2148V0.214844C225.212 0.214844 220.734 4.692 220.734 10.2148H230.734ZM238.598 43.8164H248.598C248.598 38.2936 244.12 33.8164 238.598 33.8164V43.8164ZM238.598 49.3164V59.3164C244.12 59.3164 248.598 54.8393 248.598 49.3164H238.598ZM210.453 49.3164H200.453C200.453 54.8393 204.93 59.3164 210.453 59.3164V49.3164ZM210.453 35.6094V25.6094C204.93 25.6094 200.453 30.0865 200.453 35.6094H210.453ZM217.414 35.6094H227.414C227.414 30.0865 222.937 25.6094 217.414 25.6094V35.6094ZM217.414 43.8164H207.414C207.414 49.3393 211.891 53.8164 217.414 53.8164V43.8164ZM204.566 22.7617L214.566 22.8331C214.566 22.785 214.566 22.7369 214.566 22.6887L204.566 22.7617ZM237.652 10.2148L227.652 10.2148V38.4453H237.652H247.652V10.2148H237.652ZM237.652 38.4453V28.4453H230.734V38.4453V48.4453H237.652V38.4453ZM230.734 38.4453H240.734V10.2148L230.734 10.2148H220.734V38.4453H230.734ZM230.734 10.2148V20.2148H237.652V10.2148V0.214844H230.734V10.2148ZM238.598 43.8164H228.598V49.3164H238.598H248.598V43.8164H238.598ZM238.598 49.3164V39.3164H210.453V49.3164V59.3164H238.598V49.3164ZM210.453 49.3164H220.453V35.6094H210.453H200.453V49.3164H210.453ZM210.453 35.6094V45.6094H217.414V35.6094V25.6094H210.453V35.6094ZM217.414 35.6094H207.414V43.8164H217.414H227.414V35.6094H217.414ZM217.414 43.8164V53.8164H238.598V43.8164V33.8164H217.414V43.8164ZM215.695 12.5781V22.5781C216.481 22.5781 216.833 22.8434 216.886 22.8914C216.912 22.9145 216.884 22.8967 216.853 22.8285C216.818 22.7515 216.824 22.7109 216.824 22.7617H226.824H236.824C236.824 10.3977 226.4 2.57812 215.695 2.57812V12.5781ZM226.824 22.7617H216.824C216.824 22.8756 216.806 22.8688 216.836 22.8018C216.863 22.742 216.89 22.7195 216.875 22.7332C216.844 22.7611 216.507 23.0312 215.695 23.0312V33.0312V43.0312C226.429 43.0312 236.824 35.2283 236.824 22.7617H226.824ZM215.695 33.0312V23.0312C214.877 23.0312 214.525 22.7566 214.49 22.7243C214.474 22.7105 214.509 22.739 214.542 22.814C214.58 22.8975 214.565 22.925 214.566 22.8331L204.566 22.7617L194.567 22.6903C194.477 35.2759 205.034 43.0312 215.695 43.0312V33.0312ZM204.566 22.7617L214.566 22.6887C214.566 22.6607 214.567 22.7226 214.525 22.8161C214.487 22.8997 214.453 22.9234 214.479 22.9003C214.537 22.848 214.903 22.5781 215.695 22.5781V12.5781V2.57812C205.065 2.57812 194.476 10.3497 194.567 22.8347L204.566 22.7617ZM215.695 18.5508V8.55078C212.646 8.55078 208.946 9.4099 205.879 12.1432C202.642 15.0279 201.27 18.9693 201.27 22.7617L211.27 22.7617H221.27C221.27 23.7612 220.843 25.5971 219.185 27.0746C217.697 28.4006 216.21 28.5508 215.695 28.5508V18.5508ZM211.27 22.7617L201.27 22.7617C201.27 26.4903 202.558 30.4899 205.85 33.4463C208.969 36.247 212.718 37.0586 215.695 37.0586V27.0586V17.0586C216.138 17.0586 217.673 17.1827 219.213 18.5654C220.926 20.1038 221.27 21.955 221.27 22.7617H211.27ZM215.695 27.0586V37.0586C218.727 37.0586 222.443 36.1828 225.503 33.3774C228.71 30.4378 229.992 26.4857 229.992 22.7617H219.992H209.992C209.992 21.9596 210.329 20.1559 211.989 18.6343C213.502 17.2469 215.07 17.0586 215.695 17.0586V27.0586ZM219.992 22.7617H229.992C229.992 18.9754 228.628 15.0797 225.475 12.2118C222.468 9.47591 218.799 8.55078 215.695 8.55078V18.5508V28.5508C214.997 28.5508 213.477 28.3346 212.017 27.006C210.411 25.5453 209.992 23.755 209.992 22.7617H219.992Z" fill="white" mask="url(#path-1-outside-1_3990_1413)"/>
</g>
<defs>
<filter id="filter0_d_3990_1413" x="0" y="0" width="252.598" height="67.9609" filterUnits="userSpaceOnUse" color-interpolation-filters="sRGB">
<feFlood flood-opacity="0" result="BackgroundImageFix"/>
<feColorMatrix in="SourceAlpha" type="matrix" values="0 0 0 0 0 0 0 0 0 0 0 0 0 0 0 0 0 0 127 0" result="hardAlpha"/>
<feOffset dy="4"/>
<feGaussianBlur stdDeviation="2"/>
<feComposite in2="hardAlpha" operator="out"/>
<feColorMatrix type="matrix" values="0 0 0 0 0 0 0 0 0 0 0 0 0 0 0 0 0 0 0.07 0"/>
<feBlend mode="normal" in2="BackgroundImageFix" result="effect1_dropShadow_3990_1413"/>
<feBlend mode="normal" in="SourceGraphic" in2="effect1_dropShadow_3990_1413" result="shape"/>
</filter>
</defs>
</svg>
