<svg width="387" height="68" viewBox="0 0 387 68" fill="none" xmlns="http://www.w3.org/2000/svg">
<g filter="url(#filter0_d_3990_1431)">
<mask id="path-1-outside-1_3990_1431" maskUnits="userSpaceOnUse" x="3.19531" y="-0.507813" width="380" height="61" fill="black">
<rect fill="white" x="3.19531" y="-0.507813" width="380" height="61"/>
<path d="M20.4453 13.3945V21.9023H23.7969V13.3945H30.1562V40.6797H14L14 13.3945H20.4453ZM20.4453 35.2227H23.7969V27.2305H20.4453V35.2227ZM47.7734 10V49.7461H41.1992V30.3672H38.8789V48.0273H32.3906V10.4727H38.8789V24.8242H41.1992V10L47.7734 10ZM87.3906 31.9141V37.457H72.5234V49.832H65.6914V37.457H51.125V31.9141H87.3906ZM69.1289 11.2031C77.7656 11.1602 83.9531 14.7695 83.9531 20.3984C83.9531 25.8555 77.7656 29.3789 69.1289 29.3789C60.4922 29.3789 54.3906 25.8555 54.4336 20.3984C54.3906 14.7695 60.4922 11.1602 69.1289 11.2031ZM69.1289 16.6602C64.3594 16.6602 61.5234 17.8633 61.5234 20.3984C61.5234 22.7617 64.3594 23.9648 69.1289 23.9648C73.9844 23.9648 76.7773 22.7617 76.7773 20.3984C76.7773 17.8633 73.9844 16.6602 69.1289 16.6602ZM122.969 10V49.875H116.094V34.4062H110.293V28.8203H116.094V23.5781H110.293V18.0781H116.094V10H122.969ZM108.488 13.1797V29.1641H97.3594V35.6094C101.613 35.5449 105.523 35.3086 109.906 34.707L110.422 40.293C104.707 41.1953 99.6797 41.2383 93.75 41.2383H90.4844V23.8789H101.742V18.5508H90.3984V13.1797H108.488ZM159.535 20.0977V25.4258H131.434V11.418H138.309V20.0977H159.535ZM163.445 28.9492V34.2773L127.18 34.2773V28.9492L163.445 28.9492ZM159.793 43.4727V48.9727L130.961 48.9727V37.0273H137.922V43.4727L159.793 43.4727ZM187.551 12.5352C193.91 12.4922 198.766 16.7461 198.766 22.5469C198.766 28.3906 193.91 32.6016 187.551 32.5586C181.32 32.6016 176.336 28.3906 176.336 22.5469C176.336 16.7461 181.32 12.4922 187.551 12.5352ZM187.551 18.4648C185.145 18.4648 183.211 19.8398 183.211 22.5469C183.211 25.3398 185.145 26.6289 187.551 26.6289C190.086 26.6289 192.062 25.3398 192.062 22.5469C192.062 19.8398 190.086 18.4648 187.551 18.4648ZM208.648 10V49.875H201.816V10H208.648ZM174.918 36.6406C181.836 36.6406 191.504 36.5117 199.797 35.3945L200.312 40.3359C191.719 42.0547 182.48 42.1406 175.691 42.1406L174.918 36.6406ZM228.93 19.9687C228.93 26.1992 231.25 33.0742 238.426 35.9961L234.773 41.3672C230.219 39.498 227.275 36.0176 225.578 31.7422C223.838 36.4902 220.852 40.3574 216.211 42.3984L212.344 36.9844C219.477 33.8906 221.883 26.6289 221.883 19.9687V19.2812H214.062V13.6953H236.535V19.2812H228.93V19.9687ZM246.375 10V49.7461H239.414V10H246.375ZM282.555 10V24.6523H287.625V30.2812H282.555V49.6602H275.637V10H282.555ZM271.727 13.9531C271.684 26.2422 267.473 36.5547 253.895 43.2148L249.984 37.9727C258.836 33.5039 263.52 27.9395 264.723 19.5391H252.477V13.9531H271.727ZM330.938 18.293V23.793H320.023V26.2422L334.719 26.2422V31.6133H298.453V26.2422H313.062V23.793H302.793V10.6875H309.668V18.293H330.938ZM330.895 33.5898V38.875H325.91V43.9023H331.367V49.4023H301.891V43.9023H307.176V38.875H302.234V33.5898H330.895ZM314.008 43.9023H319.164V38.875H314.008V43.9023ZM372.746 29.9375V35.3516H336.48V29.9375H372.746ZM368.535 43.6875V49.1875H340.648V37.5H347.566V43.6875H368.535ZM354.613 11.1172C363.379 11.1172 369.266 14.2969 369.309 19.4102C369.266 24.6094 363.379 27.832 354.613 27.832C345.762 27.832 339.832 24.6094 339.875 19.4102C339.832 14.2969 345.762 11.1172 354.613 11.1172ZM354.613 16.5312C349.629 16.5742 347.008 17.4766 347.051 19.4102C347.008 21.4727 349.629 22.2891 354.613 22.2461C359.512 22.2891 362.176 21.4727 362.176 19.4102C362.176 17.4766 359.512 16.5742 354.613 16.5312Z"/>
</mask>
<path d="M20.4453 13.3945V21.9023H23.7969V13.3945H30.1562V40.6797H14L14 13.3945H20.4453ZM20.4453 35.2227H23.7969V27.2305H20.4453V35.2227ZM47.7734 10V49.7461H41.1992V30.3672H38.8789V48.0273H32.3906V10.4727H38.8789V24.8242H41.1992V10L47.7734 10ZM87.3906 31.9141V37.457H72.5234V49.832H65.6914V37.457H51.125V31.9141H87.3906ZM69.1289 11.2031C77.7656 11.1602 83.9531 14.7695 83.9531 20.3984C83.9531 25.8555 77.7656 29.3789 69.1289 29.3789C60.4922 29.3789 54.3906 25.8555 54.4336 20.3984C54.3906 14.7695 60.4922 11.1602 69.1289 11.2031ZM69.1289 16.6602C64.3594 16.6602 61.5234 17.8633 61.5234 20.3984C61.5234 22.7617 64.3594 23.9648 69.1289 23.9648C73.9844 23.9648 76.7773 22.7617 76.7773 20.3984C76.7773 17.8633 73.9844 16.6602 69.1289 16.6602ZM122.969 10V49.875H116.094V34.4062H110.293V28.8203H116.094V23.5781H110.293V18.0781H116.094V10H122.969ZM108.488 13.1797V29.1641H97.3594V35.6094C101.613 35.5449 105.523 35.3086 109.906 34.707L110.422 40.293C104.707 41.1953 99.6797 41.2383 93.75 41.2383H90.4844V23.8789H101.742V18.5508H90.3984V13.1797H108.488ZM159.535 20.0977V25.4258H131.434V11.418H138.309V20.0977H159.535ZM163.445 28.9492V34.2773L127.18 34.2773V28.9492L163.445 28.9492ZM159.793 43.4727V48.9727L130.961 48.9727V37.0273H137.922V43.4727L159.793 43.4727ZM187.551 12.5352C193.91 12.4922 198.766 16.7461 198.766 22.5469C198.766 28.3906 193.91 32.6016 187.551 32.5586C181.32 32.6016 176.336 28.3906 176.336 22.5469C176.336 16.7461 181.32 12.4922 187.551 12.5352ZM187.551 18.4648C185.145 18.4648 183.211 19.8398 183.211 22.5469C183.211 25.3398 185.145 26.6289 187.551 26.6289C190.086 26.6289 192.062 25.3398 192.062 22.5469C192.062 19.8398 190.086 18.4648 187.551 18.4648ZM208.648 10V49.875H201.816V10H208.648ZM174.918 36.6406C181.836 36.6406 191.504 36.5117 199.797 35.3945L200.312 40.3359C191.719 42.0547 182.48 42.1406 175.691 42.1406L174.918 36.6406ZM228.93 19.9687C228.93 26.1992 231.25 33.0742 238.426 35.9961L234.773 41.3672C230.219 39.498 227.275 36.0176 225.578 31.7422C223.838 36.4902 220.852 40.3574 216.211 42.3984L212.344 36.9844C219.477 33.8906 221.883 26.6289 221.883 19.9687V19.2812H214.062V13.6953H236.535V19.2812H228.93V19.9687ZM246.375 10V49.7461H239.414V10H246.375ZM282.555 10V24.6523H287.625V30.2812H282.555V49.6602H275.637V10H282.555ZM271.727 13.9531C271.684 26.2422 267.473 36.5547 253.895 43.2148L249.984 37.9727C258.836 33.5039 263.52 27.9395 264.723 19.5391H252.477V13.9531H271.727ZM330.938 18.293V23.793H320.023V26.2422L334.719 26.2422V31.6133H298.453V26.2422H313.062V23.793H302.793V10.6875H309.668V18.293H330.938ZM330.895 33.5898V38.875H325.91V43.9023H331.367V49.4023H301.891V43.9023H307.176V38.875H302.234V33.5898H330.895ZM314.008 43.9023H319.164V38.875H314.008V43.9023ZM372.746 29.9375V35.3516H336.48V29.9375H372.746ZM368.535 43.6875V49.1875H340.648V37.5H347.566V43.6875H368.535ZM354.613 11.1172C363.379 11.1172 369.266 14.2969 369.309 19.4102C369.266 24.6094 363.379 27.832 354.613 27.832C345.762 27.832 339.832 24.6094 339.875 19.4102C339.832 14.2969 345.762 11.1172 354.613 11.1172ZM354.613 16.5312C349.629 16.5742 347.008 17.4766 347.051 19.4102C347.008 21.4727 349.629 22.2891 354.613 22.2461C359.512 22.2891 362.176 21.4727 362.176 19.4102C362.176 17.4766 359.512 16.5742 354.613 16.5312Z" fill="#11DCA9"/>
<path d="M20.4453 13.3945H30.4453C30.4453 7.87168 25.9682 3.39453 20.4453 3.39453V13.3945ZM20.4453 21.9023H10.4453C10.4453 27.4252 14.9225 31.9023 20.4453 31.9023V21.9023ZM23.7969 21.9023V31.9023C29.3197 31.9023 33.7969 27.4252 33.7969 21.9023H23.7969ZM23.7969 13.3945V3.39453C18.274 3.39453 13.7969 7.87168 13.7969 13.3945H23.7969ZM30.1562 13.3945H40.1562C40.1562 7.87168 35.6791 3.39453 30.1562 3.39453V13.3945ZM30.1562 40.6797V50.6797C35.6791 50.6797 40.1562 46.2025 40.1562 40.6797H30.1562ZM14 40.6797H4C4 46.2025 8.47715 50.6797 14 50.6797V40.6797ZM14 13.3945V3.39453C8.47715 3.39453 4 7.87168 4 13.3945H14ZM20.4453 35.2227H10.4453C10.4453 40.7455 14.9225 45.2227 20.4453 45.2227V35.2227ZM23.7969 35.2227V45.2227C29.3197 45.2227 33.7969 40.7455 33.7969 35.2227H23.7969ZM23.7969 27.2305H33.7969C33.7969 21.7076 29.3197 17.2305 23.7969 17.2305V27.2305ZM20.4453 27.2305V17.2305C14.9225 17.2305 10.4453 21.7076 10.4453 27.2305H20.4453ZM47.7734 10H57.7734C57.7734 4.47715 53.2963 0 47.7734 0V10ZM47.7734 49.7461V59.7461C53.2963 59.7461 57.7734 55.2689 57.7734 49.7461H47.7734ZM41.1992 49.7461H31.1992C31.1992 55.2689 35.6764 59.7461 41.1992 59.7461V49.7461ZM41.1992 30.3672H51.1992C51.1992 24.8443 46.7221 20.3672 41.1992 20.3672V30.3672ZM38.8789 30.3672V20.3672C33.3561 20.3672 28.8789 24.8443 28.8789 30.3672H38.8789ZM38.8789 48.0273V58.0273C44.4018 58.0273 48.8789 53.5502 48.8789 48.0273H38.8789ZM32.3906 48.0273H22.3906C22.3906 53.5502 26.8678 58.0273 32.3906 58.0273V48.0273ZM32.3906 10.4727V0.472656C26.8678 0.472656 22.3906 4.94981 22.3906 10.4727H32.3906ZM38.8789 10.4727L48.8789 10.4727C48.8789 4.94981 44.4018 0.472656 38.8789 0.472656V10.4727ZM38.8789 24.8242H28.8789C28.8789 30.3471 33.3561 34.8242 38.8789 34.8242V24.8242ZM41.1992 24.8242V34.8242C46.7221 34.8242 51.1992 30.3471 51.1992 24.8242H41.1992ZM41.1992 10V0C35.6764 0 31.1992 4.47715 31.1992 10H41.1992ZM20.4453 13.3945H10.4453V21.9023H20.4453H30.4453V13.3945H20.4453ZM20.4453 21.9023V31.9023H23.7969V21.9023V11.9023H20.4453V21.9023ZM23.7969 21.9023H33.7969V13.3945H23.7969H13.7969V21.9023H23.7969ZM23.7969 13.3945V23.3945H30.1562V13.3945V3.39453L23.7969 3.39453V13.3945ZM30.1562 13.3945H20.1562V40.6797H30.1562H40.1562V13.3945H30.1562ZM30.1562 40.6797V30.6797H14L14 40.6797V50.6797H30.1562V40.6797ZM14 40.6797H24V13.3945H14H4L4 40.6797H14ZM14 13.3945V23.3945H20.4453V13.3945V3.39453H14V13.3945ZM20.4453 35.2227V45.2227H23.7969V35.2227V25.2227H20.4453V35.2227ZM23.7969 35.2227H33.7969V27.2305H23.7969H13.7969L13.7969 35.2227H23.7969ZM23.7969 27.2305V17.2305H20.4453V27.2305V37.2305H23.7969V27.2305ZM20.4453 27.2305H10.4453L10.4453 35.2227H20.4453H30.4453V27.2305H20.4453ZM47.7734 10L37.7734 10V49.7461H47.7734H57.7734V10H47.7734ZM47.7734 49.7461V39.7461H41.1992V49.7461V59.7461H47.7734V49.7461ZM41.1992 49.7461H51.1992V30.3672H41.1992H31.1992V49.7461H41.1992ZM41.1992 30.3672V20.3672H38.8789V30.3672V40.3672H41.1992V30.3672ZM38.8789 30.3672H28.8789V48.0273H38.8789H48.8789V30.3672H38.8789ZM38.8789 48.0273V38.0273H32.3906V48.0273V58.0273H38.8789V48.0273ZM32.3906 48.0273H42.3906V10.4727H32.3906H22.3906V48.0273H32.3906ZM32.3906 10.4727V20.4727H38.8789V10.4727V0.472656L32.3906 0.472656V10.4727ZM38.8789 10.4727H28.8789V24.8242H38.8789H48.8789V10.4727L38.8789 10.4727ZM38.8789 24.8242V34.8242H41.1992V24.8242V14.8242H38.8789V24.8242ZM41.1992 24.8242H51.1992V10L41.1992 10H31.1992V24.8242H41.1992ZM41.1992 10V20H47.7734V10V0H41.1992V10ZM87.3906 31.9141H97.3906C97.3906 26.3912 92.9135 21.9141 87.3906 21.9141V31.9141ZM87.3906 37.457V47.457C92.9135 47.457 97.3906 42.9799 97.3906 37.457H87.3906ZM72.5234 37.457V27.457C67.0006 27.457 62.5234 31.9342 62.5234 37.457H72.5234ZM72.5234 49.832V59.832C78.0463 59.832 82.5234 55.3549 82.5234 49.832H72.5234ZM65.6914 49.832H55.6914C55.6914 55.3549 60.1686 59.832 65.6914 59.832V49.832ZM65.6914 37.457H75.6914C75.6914 31.9342 71.2143 27.457 65.6914 27.457V37.457ZM51.125 37.457H41.125C41.125 42.9799 45.6022 47.457 51.125 47.457V37.457ZM51.125 31.9141V21.9141C45.6022 21.9141 41.125 26.3912 41.125 31.9141H51.125ZM69.1289 11.2031L69.0792 21.203C69.1123 21.2032 69.1455 21.2032 69.1787 21.203L69.1289 11.2031ZM54.4336 20.3984L64.4333 20.4772C64.4337 20.4255 64.4337 20.3738 64.4333 20.3221L54.4336 20.3984ZM87.3906 31.9141H77.3906V37.457H87.3906H97.3906V31.9141H87.3906ZM87.3906 37.457V27.457L72.5234 27.457V37.457V47.457H87.3906V37.457ZM72.5234 37.457H62.5234V49.832H72.5234H82.5234V37.457H72.5234ZM72.5234 49.832V39.832H65.6914V49.832V59.832H72.5234V49.832ZM65.6914 49.832H75.6914V37.457H65.6914H55.6914V49.832H65.6914ZM65.6914 37.457V27.457H51.125V37.457V47.457H65.6914V37.457ZM51.125 37.457H61.125V31.9141H51.125H41.125V37.457H51.125ZM51.125 31.9141V41.9141H87.3906V31.9141V21.9141L51.125 21.9141V31.9141ZM69.1289 11.2031L69.1787 21.203C72.2553 21.1877 73.9827 21.8516 74.5759 22.2131C74.8232 22.3638 74.6513 22.3233 74.4026 21.9305C74.1179 21.4809 73.9531 20.9105 73.9531 20.3984L83.9531 20.3984H93.9531C93.9531 13.328 89.8684 8.11132 84.9837 5.13454C80.324 2.29487 74.6392 1.17559 69.0792 1.20325L69.1289 11.2031ZM83.9531 20.3984L73.9531 20.3984C73.9531 19.7764 74.1562 19.131 74.4722 18.6458C74.7461 18.2253 74.9325 18.1829 74.6659 18.3416C74.0355 18.7167 72.2536 19.3789 69.1289 19.3789V29.3789V39.3789C74.6409 39.3789 80.2711 38.2794 84.8937 35.5285C89.7127 32.6608 93.9531 27.5284 93.9531 20.3984H83.9531ZM69.1289 29.3789V19.3789C66.0007 19.3789 64.2623 18.7154 63.6791 18.3648C63.4384 18.2201 63.6439 18.2811 63.9254 18.7221C64.2475 19.2265 64.438 19.8749 64.4333 20.4772L54.4336 20.3984L44.4339 20.3197C44.378 27.423 48.5362 32.5968 53.3736 35.5053C57.9897 38.2807 63.6204 39.3789 69.1289 39.3789V29.3789ZM54.4336 20.3984L64.4333 20.3221C64.4371 20.8148 64.2836 21.3872 63.9935 21.8546C63.7377 22.2666 63.5476 22.3257 63.7693 22.1892C64.3154 21.853 65.9989 21.1877 69.0792 21.203L69.1289 11.2031L69.1787 1.20325C63.6222 1.1756 57.9366 2.29349 53.2834 5.15845C48.3825 8.17594 44.3801 13.4325 44.4339 20.4748L54.4336 20.3984ZM69.1289 16.6602V6.66016C66.1884 6.66016 62.5414 6.98676 59.2599 8.53972C57.5124 9.36676 55.5154 10.7101 53.9462 12.8734C52.2996 15.1436 51.5234 17.7743 51.5234 20.3984H61.5234H71.5234C71.5234 21.755 71.1018 23.2846 70.1359 24.6162C69.2476 25.841 68.2577 26.4081 67.8153 26.6175C67.3846 26.8213 67.2239 26.8085 67.5345 26.7579C67.8175 26.7119 68.3341 26.6602 69.1289 26.6602V16.6602ZM61.5234 20.3984H51.5234C51.5234 26.7058 55.7679 30.5126 59.3827 32.1638C62.5947 33.6311 66.1677 33.9648 69.1289 33.9648V23.9648V13.9648C68.3362 13.9648 67.8079 13.9134 67.5069 13.8653C67.1782 13.8128 67.3008 13.793 67.6925 13.9719C68.0795 14.1487 69.0655 14.6762 69.9847 15.8782C71.0029 17.2098 71.5234 18.8349 71.5234 20.3984H61.5234ZM69.1289 23.9648V33.9648C72.1102 33.9648 75.7046 33.6367 78.9289 32.1638C82.6054 30.4844 86.7773 26.653 86.7773 20.3984H76.7773L66.7773 20.3984C66.7773 18.8706 67.2787 17.2525 68.2984 15.9086C69.2218 14.6914 70.2199 14.1542 70.619 13.9719C71.0193 13.789 71.1456 13.8095 70.807 13.8632C70.4965 13.9124 69.9513 13.9648 69.1289 13.9648V23.9648ZM76.7773 20.3984H86.7773C86.7773 17.808 86.0231 15.1845 84.382 12.9039C82.8147 10.726 80.8117 9.37271 79.0516 8.53972C75.7579 6.981 72.0889 6.66016 69.1289 6.66016V16.6602V26.6602C69.9535 26.6602 70.487 26.7129 70.7796 26.7601C71.1003 26.8118 70.9357 26.8255 70.4963 26.6175C70.0413 26.4022 69.04 25.825 68.1482 24.5857C67.1825 23.2437 66.7773 21.7213 66.7773 20.3984L76.7773 20.3984ZM122.969 10H132.969C132.969 4.47715 128.492 0 122.969 0V10ZM122.969 49.875V59.875C128.492 59.875 132.969 55.3978 132.969 49.875H122.969ZM116.094 49.875H106.094C106.094 55.3978 110.571 59.875 116.094 59.875V49.875ZM116.094 34.4062H126.094C126.094 28.8834 121.617 24.4062 116.094 24.4062V34.4062ZM110.293 34.4062H100.293C100.293 39.9291 104.77 44.4062 110.293 44.4062V34.4062ZM110.293 28.8203V18.8203C104.77 18.8203 100.293 23.2975 100.293 28.8203H110.293ZM116.094 28.8203V38.8203C121.617 38.8203 126.094 34.3432 126.094 28.8203H116.094ZM116.094 23.5781H126.094C126.094 18.0553 121.617 13.5781 116.094 13.5781V23.5781ZM110.293 23.5781H100.293C100.293 29.101 104.77 33.5781 110.293 33.5781V23.5781ZM110.293 18.0781V8.07812C104.77 8.07812 100.293 12.5553 100.293 18.0781H110.293ZM116.094 18.0781V28.0781C121.617 28.0781 126.094 23.601 126.094 18.0781H116.094ZM116.094 10V0C110.571 0 106.094 4.47715 106.094 10L116.094 10ZM108.488 13.1797H118.488C118.488 7.65684 114.011 3.17969 108.488 3.17969V13.1797ZM108.488 29.1641V39.1641C114.011 39.1641 118.488 34.6869 118.488 29.1641H108.488ZM97.3594 29.1641V19.1641C91.8365 19.1641 87.3594 23.6412 87.3594 29.1641H97.3594ZM97.3594 35.6094H87.3594C87.3594 38.2878 88.4339 40.8543 90.3421 42.7338C92.2503 44.6133 94.8328 45.6488 97.5109 45.6082L97.3594 35.6094ZM109.906 34.707L119.864 33.7879C119.613 31.0703 118.262 28.5733 116.125 26.8761C113.988 25.1789 111.25 24.4288 108.546 24.7999L109.906 34.707ZM110.422 40.293L111.981 50.1706C117.189 49.3483 120.864 44.6239 120.38 39.3738L110.422 40.293ZM90.4844 41.2383H80.4844C80.4844 46.7611 84.9615 51.2383 90.4844 51.2383V41.2383ZM90.4844 23.8789V13.8789C84.9615 13.8789 80.4844 18.3561 80.4844 23.8789H90.4844ZM101.742 23.8789V33.8789C107.265 33.8789 111.742 29.4018 111.742 23.8789H101.742ZM101.742 18.5508H111.742C111.742 13.0279 107.265 8.55078 101.742 8.55078V18.5508ZM90.3984 18.5508H80.3984C80.3984 24.0736 84.8756 28.5508 90.3984 28.5508V18.5508ZM90.3984 13.1797V3.17969C84.8756 3.17969 80.3984 7.65684 80.3984 13.1797H90.3984ZM122.969 10H112.969V49.875H122.969H132.969V10H122.969ZM122.969 49.875V39.875H116.094V49.875V59.875H122.969V49.875ZM116.094 49.875H126.094V34.4062H116.094H106.094V49.875H116.094ZM116.094 34.4062V24.4062H110.293V34.4062V44.4062H116.094V34.4062ZM110.293 34.4062H120.293V28.8203H110.293H100.293V34.4062H110.293ZM110.293 28.8203V38.8203H116.094V28.8203V18.8203H110.293V28.8203ZM116.094 28.8203H126.094V23.5781H116.094H106.094V28.8203H116.094ZM116.094 23.5781V13.5781H110.293V23.5781V33.5781H116.094V23.5781ZM110.293 23.5781H120.293V18.0781H110.293H100.293V23.5781H110.293ZM110.293 18.0781V28.0781H116.094V18.0781V8.07812H110.293V18.0781ZM116.094 18.0781H126.094V10H116.094L106.094 10V18.0781H116.094ZM116.094 10V20H122.969V10V0L116.094 0V10ZM108.488 13.1797H98.4883V29.1641H108.488H118.488V13.1797H108.488ZM108.488 29.1641V19.1641H97.3594V29.1641V39.1641H108.488V29.1641ZM97.3594 29.1641H87.3594V35.6094H97.3594H107.359V29.1641H97.3594ZM97.3594 35.6094L97.5109 45.6082C102.075 45.5391 106.399 45.2822 111.266 44.6141L109.906 34.707L108.546 24.7999C104.648 25.335 101.152 25.5508 97.2079 25.6105L97.3594 35.6094ZM109.906 34.707L99.9486 35.6262L100.464 41.2121L110.422 40.293L120.38 39.3738L119.864 33.7879L109.906 34.707ZM110.422 40.293L108.862 30.4153C104.006 31.1821 99.6875 31.2383 93.75 31.2383V41.2383V51.2383C99.6719 51.2383 105.408 51.2085 111.981 50.1706L110.422 40.293ZM93.75 41.2383V31.2383H90.4844V41.2383V51.2383H93.75V41.2383ZM90.4844 41.2383H100.484V23.8789H90.4844H80.4844V41.2383H90.4844ZM90.4844 23.8789V33.8789H101.742V23.8789V13.8789H90.4844V23.8789ZM101.742 23.8789H111.742V18.5508H101.742H91.7422V23.8789H101.742ZM101.742 18.5508V8.55078H90.3984V18.5508V28.5508H101.742V18.5508ZM90.3984 18.5508H100.398V13.1797H90.3984H80.3984V18.5508H90.3984ZM90.3984 13.1797V23.1797H108.488V13.1797V3.17969L90.3984 3.17969V13.1797ZM159.535 20.0977H169.535C169.535 14.5748 165.058 10.0977 159.535 10.0977V20.0977ZM159.535 25.4258V35.4258C165.058 35.4258 169.535 30.9486 169.535 25.4258H159.535ZM131.434 25.4258H121.434C121.434 30.9486 125.911 35.4258 131.434 35.4258V25.4258ZM131.434 11.418V1.41797C125.911 1.41797 121.434 5.89512 121.434 11.418H131.434ZM138.309 11.418H148.309C148.309 5.89512 143.831 1.41797 138.309 1.41797V11.418ZM138.309 20.0977H128.309C128.309 25.6205 132.786 30.0977 138.309 30.0977V20.0977ZM163.445 28.9492H173.445C173.445 23.4264 168.968 18.9492 163.445 18.9492V28.9492ZM163.445 34.2773V44.2773C168.968 44.2773 173.445 39.8002 173.445 34.2773H163.445ZM127.18 34.2773H117.18C117.18 39.8002 121.657 44.2773 127.18 44.2773V34.2773ZM127.18 28.9492V18.9492C121.657 18.9492 117.18 23.4264 117.18 28.9492H127.18ZM159.793 43.4727H169.793C169.793 37.9498 165.316 33.4727 159.793 33.4727V43.4727ZM159.793 48.9727V58.9727C165.316 58.9727 169.793 54.4955 169.793 48.9727H159.793ZM130.961 48.9727H120.961C120.961 54.4955 125.438 58.9727 130.961 58.9727V48.9727ZM130.961 37.0273V27.0273C125.438 27.0273 120.961 31.5045 120.961 37.0273H130.961ZM137.922 37.0273L147.922 37.0273C147.922 31.5045 143.445 27.0273 137.922 27.0273V37.0273ZM137.922 43.4727H127.922C127.922 48.9955 132.399 53.4727 137.922 53.4727V43.4727ZM159.535 20.0977H149.535V25.4258H159.535H169.535V20.0977H159.535ZM159.535 25.4258V15.4258H131.434V25.4258V35.4258L159.535 35.4258V25.4258ZM131.434 25.4258H141.434V11.418H131.434H121.434V25.4258H131.434ZM131.434 11.418V21.418H138.309V11.418V1.41797H131.434V11.418ZM138.309 11.418H128.309V20.0977H138.309H148.309V11.418H138.309ZM138.309 20.0977V30.0977L159.535 30.0977V20.0977V10.0977H138.309V20.0977ZM163.445 28.9492H153.445V34.2773H163.445H173.445V28.9492H163.445ZM163.445 34.2773V24.2773H127.18V34.2773V44.2773L163.445 44.2773V34.2773ZM127.18 34.2773H137.18V28.9492H127.18H117.18V34.2773H127.18ZM127.18 28.9492V38.9492L163.445 38.9492V28.9492V18.9492H127.18V28.9492ZM159.793 43.4727H149.793V48.9727H159.793H169.793V43.4727H159.793ZM159.793 48.9727V38.9727L130.961 38.9727V48.9727V58.9727L159.793 58.9727V48.9727ZM130.961 48.9727L140.961 48.9727V37.0273L130.961 37.0273H120.961V48.9727H130.961ZM130.961 37.0273V47.0273H137.922V37.0273V27.0273H130.961V37.0273ZM137.922 37.0273H127.922V43.4727H137.922L147.922 43.4727V37.0273L137.922 37.0273ZM137.922 43.4727V53.4727L159.793 53.4727V43.4727V33.4727L137.922 33.4727V43.4727ZM187.551 12.5352L187.482 22.5349C187.527 22.5352 187.573 22.5352 187.618 22.5349L187.551 12.5352ZM187.551 32.5586L187.618 22.5588C187.573 22.5585 187.527 22.5585 187.482 22.5588L187.551 32.5586ZM208.648 10H218.648C218.648 4.47715 214.171 0 208.648 0V10ZM208.648 49.875V59.875C214.171 59.875 218.648 55.3978 218.648 49.875H208.648ZM201.816 49.875H191.816C191.816 55.3978 196.294 59.875 201.816 59.875V49.875ZM201.816 10V0C196.294 0 191.816 4.47715 191.816 10H201.816ZM174.918 36.6406V26.6406C172.023 26.6406 169.27 27.8953 167.371 30.0803C165.471 32.2654 164.612 35.1663 165.015 38.0332L174.918 36.6406ZM199.797 35.3945L209.743 34.3567C209.462 31.6672 208.104 29.206 205.979 27.5344C203.853 25.8627 201.142 25.123 198.462 25.4841L199.797 35.3945ZM200.312 40.3359L202.274 50.1417C207.335 49.1295 210.794 44.4317 210.258 39.2981L200.312 40.3359ZM175.691 42.1406L165.789 43.5332C166.483 48.4694 170.707 52.1406 175.691 52.1406V42.1406ZM187.551 12.5352L187.618 22.5349C188.084 22.5318 188.412 22.6075 188.614 22.6799C188.817 22.7527 188.899 22.8233 188.904 22.8281C188.906 22.8297 188.857 22.784 188.812 22.6848C188.763 22.5782 188.766 22.5128 188.766 22.5469H198.766L208.766 22.5469C208.766 10.1666 198.302 2.46228 187.483 2.53538L187.551 12.5352ZM198.766 22.5469H188.766C188.766 22.6018 188.759 22.543 188.809 22.4328C188.831 22.3858 188.855 22.3458 188.878 22.3153C188.9 22.2853 188.916 22.2718 188.915 22.2718C188.915 22.2721 188.896 22.2886 188.852 22.3144C188.808 22.3403 188.737 22.376 188.634 22.4125C188.431 22.4851 188.096 22.562 187.618 22.5588L187.551 32.5586L187.483 42.5584C198.273 42.6313 208.766 34.9968 208.766 22.5469L198.766 22.5469ZM187.551 32.5586L187.482 22.5588C186.62 22.5648 186.244 22.2798 186.205 22.2456C186.188 22.2312 186.234 22.2685 186.282 22.3707C186.334 22.4827 186.336 22.5621 186.336 22.5469H176.336H166.336C166.336 35.0666 177.037 42.6313 187.62 42.5584L187.551 32.5586ZM176.336 22.5469H186.336C186.336 22.5409 186.336 22.5641 186.326 22.6086C186.317 22.6526 186.301 22.7006 186.279 22.7469C186.234 22.8448 186.192 22.8752 186.216 22.8544C186.269 22.8078 186.647 22.5292 187.482 22.5349L187.551 12.5352L187.62 2.53539C177.007 2.4622 166.336 10.0966 166.336 22.5469H176.336ZM187.551 18.4648V8.46484C184.53 8.46484 180.923 9.32939 177.915 11.9458C174.713 14.7313 173.211 18.6259 173.211 22.5469H183.211H193.211C193.211 23.7608 192.675 25.6144 191.042 27.0357C189.602 28.2878 188.165 28.4648 187.551 28.4648V18.4648ZM183.211 22.5469H173.211C173.211 26.4329 174.663 30.3964 177.975 33.2315C181.05 35.8646 184.68 36.6289 187.551 36.6289V26.6289V16.6289C188.015 16.6289 189.475 16.7486 190.982 18.039C192.725 19.5313 193.211 21.4538 193.211 22.5469H183.211ZM187.551 26.6289V36.6289C190.373 36.6289 194.013 35.9223 197.134 33.3383C200.537 30.5216 202.062 26.5148 202.062 22.5469H192.062H182.062C182.062 21.3719 182.6 19.4061 184.381 17.9322C185.88 16.691 187.264 16.6289 187.551 16.6289V26.6289ZM192.062 22.5469H202.062C202.062 18.5435 200.486 14.606 197.194 11.8377C194.136 9.2655 190.518 8.46484 187.551 8.46484V18.4648V28.4648C187.119 28.4648 185.757 28.3517 184.321 27.1438C182.651 25.7397 182.062 23.8432 182.062 22.5469H192.062ZM208.648 10H198.648V49.875H208.648H218.648V10H208.648ZM208.648 49.875V39.875H201.816V49.875V59.875H208.648V49.875ZM201.816 49.875H211.816V10H201.816H191.816V49.875H201.816ZM201.816 10V20L208.648 20V10V0H201.816V10ZM174.918 36.6406V46.6406C181.846 46.6406 192.11 46.5205 201.132 45.305L199.797 35.3945L198.462 25.4841C190.898 26.503 181.826 26.6406 174.918 26.6406V36.6406ZM199.797 35.3945L189.851 36.4324L190.367 41.3738L200.312 40.3359L210.258 39.2981L209.743 34.3567L199.797 35.3945ZM200.312 40.3359L198.351 30.5301C190.845 32.0314 182.521 32.1406 175.691 32.1406V42.1406V52.1406C182.44 52.1406 192.593 52.0779 202.274 50.1417L200.312 40.3359ZM175.691 42.1406L185.594 40.7481L184.821 35.2481L174.918 36.6406L165.015 38.0332L165.789 43.5332L175.691 42.1406ZM238.426 35.9961L246.695 41.6192C248.393 39.1228 248.872 35.9932 247.998 33.1034C247.125 30.2136 244.993 27.8729 242.197 26.7345L238.426 35.9961ZM234.773 41.3672L230.977 50.6185C235.351 52.4134 240.384 50.8999 243.043 46.9903L234.773 41.3672ZM225.578 31.7422L234.873 28.0525C233.342 24.198 229.592 21.6879 225.445 21.7431C221.298 21.7982 217.616 24.4071 216.189 28.3009L225.578 31.7422ZM216.211 42.3984L208.074 48.2108C210.826 52.0637 215.903 53.4585 220.237 51.5522L216.211 42.3984ZM212.344 36.9844L208.365 27.8102C205.594 29.0118 203.515 31.401 202.708 34.3108C201.9 37.2206 202.451 40.3395 204.206 42.7968L212.344 36.9844ZM221.883 19.2812H231.883C231.883 13.7584 227.406 9.28125 221.883 9.28125V19.2812ZM214.062 19.2812L204.062 19.2812C204.062 24.8041 208.54 29.2812 214.062 29.2812V19.2812ZM214.062 13.6953V3.69531C208.54 3.69531 204.062 8.17247 204.062 13.6953L214.062 13.6953ZM236.535 13.6953H246.535C246.535 8.17247 242.058 3.69531 236.535 3.69531V13.6953ZM236.535 19.2812V29.2812C242.058 29.2812 246.535 24.8041 246.535 19.2812H236.535ZM228.93 19.2812V9.28125C223.407 9.28125 218.93 13.7584 218.93 19.2812H228.93ZM246.375 10H256.375C256.375 4.47715 251.898 0 246.375 0V10ZM246.375 49.7461V59.7461C251.898 59.7461 256.375 55.2689 256.375 49.7461H246.375ZM239.414 49.7461H229.414C229.414 55.2689 233.891 59.7461 239.414 59.7461V49.7461ZM239.414 10V0C233.891 0 229.414 4.47715 229.414 10L239.414 10ZM228.93 19.9687H218.93C218.93 28.2505 222.142 40.1628 234.655 45.2577L238.426 35.9961L242.197 26.7345C240.995 26.2452 240.349 25.5594 239.874 24.638C239.309 23.5438 238.93 21.937 238.93 19.9687H228.93ZM238.426 35.9961L230.157 30.373L226.504 35.7441L234.773 41.3672L243.043 46.9903L246.695 41.6192L238.426 35.9961ZM234.773 41.3672L238.57 32.1159C236.946 31.4494 235.749 30.2591 234.873 28.0525L225.578 31.7422L216.284 35.4319C218.802 41.776 223.492 47.5467 230.977 50.6185L234.773 41.3672ZM225.578 31.7422L216.189 28.3009C215.126 31.1999 213.722 32.5685 212.185 33.2447L216.211 42.3984L220.237 51.5522C227.981 48.1464 232.549 41.7805 234.967 35.1835L225.578 31.7422ZM216.211 42.3984L224.348 36.5861L220.481 31.172L212.344 36.9844L204.206 42.7968L208.074 48.2108L216.211 42.3984ZM212.344 36.9844L216.323 46.1586C228.744 40.7711 231.883 28.4633 231.883 19.9687H221.883H211.883C211.883 22.1894 211.468 24.0718 210.815 25.3991C210.238 26.573 209.496 27.3196 208.365 27.8102L212.344 36.9844ZM221.883 19.9687H231.883V19.2812H221.883H211.883V19.9687H221.883ZM221.883 19.2812V9.28125H214.062V19.2812V29.2812H221.883V19.2812ZM214.062 19.2812H224.062V13.6953H214.062L204.062 13.6953V19.2812L214.062 19.2812ZM214.062 13.6953V23.6953H236.535V13.6953V3.69531L214.062 3.69531V13.6953ZM236.535 13.6953H226.535V19.2812H236.535H246.535V13.6953H236.535ZM236.535 19.2812V9.28125L228.93 9.28125V19.2812V29.2812H236.535V19.2812ZM228.93 19.2812H218.93V19.9687H228.93H238.93V19.2812H228.93ZM246.375 10H236.375V49.7461H246.375H256.375V10H246.375ZM246.375 49.7461V39.7461H239.414V49.7461V59.7461H246.375V49.7461ZM239.414 49.7461H249.414V10H239.414L229.414 10V49.7461H239.414ZM239.414 10V20H246.375V10V0L239.414 0V10ZM282.555 10H292.555C292.555 4.47715 288.078 0 282.555 0V10ZM282.555 24.6523H272.555C272.555 30.1752 277.032 34.6523 282.555 34.6523V24.6523ZM287.625 24.6523H297.625C297.625 19.1295 293.148 14.6523 287.625 14.6523V24.6523ZM287.625 30.2812V40.2812C293.148 40.2812 297.625 35.8041 297.625 30.2812H287.625ZM282.555 30.2812V20.2812C277.032 20.2812 272.555 24.7584 272.555 30.2812H282.555ZM282.555 49.6602V59.6602C288.078 59.6602 292.555 55.183 292.555 49.6602H282.555ZM275.637 49.6602H265.637C265.637 55.183 270.114 59.6602 275.637 59.6602V49.6602ZM275.637 10V0C270.114 0 265.637 4.47715 265.637 10H275.637ZM271.727 13.9531L281.727 13.9881C281.736 11.3299 280.686 8.77736 278.81 6.89443C276.934 5.0115 274.385 3.95312 271.727 3.95312V13.9531ZM253.895 43.2148L245.879 49.1938C248.757 53.0526 253.976 54.313 258.298 52.193L253.895 43.2148ZM249.984 37.9727L245.478 29.0458C242.841 30.377 240.927 32.8059 240.25 35.6812C239.574 38.5565 240.203 41.5839 241.969 43.9516L249.984 37.9727ZM264.723 19.5391L274.622 20.9568C275.033 18.0866 274.178 15.1792 272.278 12.9884C270.379 10.7976 267.622 9.53906 264.723 9.53906V19.5391ZM252.477 19.5391H242.477C242.477 25.0619 246.954 29.5391 252.477 29.5391V19.5391ZM252.477 13.9531V3.95312C246.954 3.95312 242.477 8.43028 242.477 13.9531H252.477ZM282.555 10H272.555V24.6523H282.555H292.555V10H282.555ZM282.555 24.6523V34.6523H287.625V24.6523V14.6523H282.555V24.6523ZM287.625 24.6523H277.625V30.2812H287.625H297.625V24.6523H287.625ZM287.625 30.2812V20.2812H282.555V30.2812V40.2812H287.625V30.2812ZM282.555 30.2812H272.555V49.6602H282.555H292.555V30.2812H282.555ZM282.555 49.6602V39.6602H275.637V49.6602V59.6602H282.555V49.6602ZM275.637 49.6602H285.637V10H275.637H265.637V49.6602H275.637ZM275.637 10V20H282.555V10V0L275.637 0V10ZM271.727 13.9531L261.727 13.9182C261.709 18.9688 260.834 22.8059 259.15 25.8287C257.527 28.7423 254.729 31.6673 249.491 34.2367L253.895 43.2148L258.298 52.193C266.638 48.1022 272.735 42.5409 276.622 35.5609C280.449 28.6902 281.701 21.2265 281.727 13.9881L271.727 13.9531ZM253.895 43.2148L261.91 37.2359L258 31.9937L249.984 37.9727L241.969 43.9516L245.879 49.1938L253.895 43.2148ZM249.984 37.9727L254.491 46.8995C259.736 44.2517 264.41 40.951 267.995 36.5212C271.666 31.9849 273.79 26.7651 274.622 20.9568L264.723 19.5391L254.824 18.1213C254.452 20.7134 253.633 22.4761 252.448 23.9392C251.178 25.5089 249.084 27.2248 245.478 29.0458L249.984 37.9727ZM264.723 19.5391V9.53906H252.477V19.5391V29.5391H264.723V19.5391ZM252.477 19.5391H262.477V13.9531H252.477H242.477V19.5391H252.477ZM252.477 13.9531V23.9531H271.727V13.9531V3.95312H252.477V13.9531ZM330.938 18.293L340.938 18.293C340.938 12.7701 336.46 8.29297 330.938 8.29297V18.293ZM330.938 23.793V33.793C336.46 33.793 340.938 29.3158 340.938 23.793L330.938 23.793ZM320.023 23.793V13.793C314.501 13.793 310.023 18.2701 310.023 23.793H320.023ZM320.023 26.2422H310.023C310.023 31.765 314.501 36.2422 320.023 36.2422V26.2422ZM334.719 26.2422H344.719C344.719 20.7193 340.242 16.2422 334.719 16.2422V26.2422ZM334.719 31.6133V41.6133C340.242 41.6133 344.719 37.1361 344.719 31.6133H334.719ZM298.453 31.6133H288.453C288.453 37.1361 292.93 41.6133 298.453 41.6133V31.6133ZM298.453 26.2422V16.2422C292.93 16.2422 288.453 20.7193 288.453 26.2422H298.453ZM313.062 26.2422V36.2422C318.585 36.2422 323.062 31.765 323.062 26.2422H313.062ZM313.062 23.793H323.062C323.062 18.2701 318.585 13.793 313.062 13.793V23.793ZM302.793 23.793H292.793C292.793 29.3158 297.27 33.793 302.793 33.793V23.793ZM302.793 10.6875V0.6875C297.27 0.6875 292.793 5.16465 292.793 10.6875L302.793 10.6875ZM309.668 10.6875H319.668C319.668 5.16465 315.191 0.6875 309.668 0.6875V10.6875ZM309.668 18.293H299.668C299.668 23.8158 304.145 28.293 309.668 28.293V18.293ZM330.895 33.5898H340.895C340.895 28.067 336.417 23.5898 330.895 23.5898V33.5898ZM330.895 38.875V48.875C336.417 48.875 340.895 44.3978 340.895 38.875H330.895ZM325.91 38.875V28.875C320.387 28.875 315.91 33.3522 315.91 38.875H325.91ZM325.91 43.9023H315.91C315.91 49.4252 320.387 53.9023 325.91 53.9023V43.9023ZM331.367 43.9023H341.367C341.367 38.3795 336.89 33.9023 331.367 33.9023V43.9023ZM331.367 49.4023V59.4023C336.89 59.4023 341.367 54.9252 341.367 49.4023H331.367ZM301.891 49.4023H291.891C291.891 54.9252 296.368 59.4023 301.891 59.4023V49.4023ZM301.891 43.9023V33.9023C296.368 33.9023 291.891 38.3795 291.891 43.9023H301.891ZM307.176 43.9023V53.9023C312.699 53.9023 317.176 49.4252 317.176 43.9023H307.176ZM307.176 38.875H317.176C317.176 33.3522 312.699 28.875 307.176 28.875V38.875ZM302.234 38.875H292.234C292.234 44.3978 296.712 48.875 302.234 48.875V38.875ZM302.234 33.5898V23.5898C296.712 23.5898 292.234 28.067 292.234 33.5898H302.234ZM314.008 43.9023H304.008C304.008 49.4252 308.485 53.9023 314.008 53.9023V43.9023ZM319.164 43.9023V53.9023C324.687 53.9023 329.164 49.4252 329.164 43.9023H319.164ZM319.164 38.875H329.164C329.164 33.3522 324.687 28.875 319.164 28.875V38.875ZM314.008 38.875V28.875C308.485 28.875 304.008 33.3522 304.008 38.875H314.008ZM330.938 18.293H320.938V23.793H330.938L340.938 23.793V18.293L330.938 18.293ZM330.938 23.793V13.793H320.023V23.793V33.793H330.938V23.793ZM320.023 23.793H310.023V26.2422H320.023H330.023V23.793H320.023ZM320.023 26.2422V36.2422H334.719V26.2422V16.2422L320.023 16.2422V26.2422ZM334.719 26.2422L324.719 26.2422V31.6133H334.719H344.719V26.2422H334.719ZM334.719 31.6133V21.6133L298.453 21.6133V31.6133V41.6133H334.719V31.6133ZM298.453 31.6133H308.453V26.2422H298.453H288.453V31.6133H298.453ZM298.453 26.2422V36.2422H313.062V26.2422V16.2422H298.453V26.2422ZM313.062 26.2422H323.062V23.793H313.062H303.062V26.2422H313.062ZM313.062 23.793V13.793H302.793V23.793V33.793H313.062V23.793ZM302.793 23.793H312.793V10.6875H302.793L292.793 10.6875V23.793H302.793ZM302.793 10.6875V20.6875H309.668V10.6875V0.6875H302.793V10.6875ZM309.668 10.6875L299.668 10.6875V18.293H309.668H319.668V10.6875H309.668ZM309.668 18.293V28.293H330.938V18.293V8.29297H309.668V18.293ZM330.895 33.5898H320.895V38.875H330.895H340.895V33.5898H330.895ZM330.895 38.875V28.875H325.91V38.875V48.875H330.895V38.875ZM325.91 38.875H315.91V43.9023H325.91H335.91V38.875H325.91ZM325.91 43.9023V53.9023H331.367V43.9023V33.9023H325.91V43.9023ZM331.367 43.9023H321.367V49.4023H331.367H341.367V43.9023H331.367ZM331.367 49.4023V39.4023H301.891V49.4023V59.4023H331.367V49.4023ZM301.891 49.4023H311.891V43.9023H301.891H291.891V49.4023H301.891ZM301.891 43.9023V53.9023H307.176V43.9023V33.9023H301.891V43.9023ZM307.176 43.9023H317.176V38.875H307.176H297.176V43.9023H307.176ZM307.176 38.875V28.875H302.234V38.875V48.875H307.176V38.875ZM302.234 38.875H312.234V33.5898H302.234H292.234V38.875H302.234ZM302.234 33.5898V43.5898H330.895V33.5898V23.5898H302.234V33.5898ZM314.008 43.9023V53.9023H319.164V43.9023V33.9023H314.008V43.9023ZM319.164 43.9023H329.164V38.875H319.164H309.164V43.9023H319.164ZM319.164 38.875V28.875H314.008V38.875V48.875H319.164V38.875ZM314.008 38.875H304.008V43.9023H314.008H324.008V38.875H314.008ZM372.746 29.9375H382.746C382.746 24.4147 378.269 19.9375 372.746 19.9375V29.9375ZM372.746 35.3516V45.3516C378.269 45.3516 382.746 40.8744 382.746 35.3516H372.746ZM336.48 35.3516H326.48C326.48 40.8744 330.958 45.3516 336.48 45.3516V35.3516ZM336.48 29.9375V19.9375C330.958 19.9375 326.48 24.4147 326.48 29.9375H336.48ZM368.535 43.6875H378.535C378.535 38.1647 374.058 33.6875 368.535 33.6875V43.6875ZM368.535 49.1875V59.1875C374.058 59.1875 378.535 54.7103 378.535 49.1875H368.535ZM340.648 49.1875H330.648C330.648 54.7103 335.126 59.1875 340.648 59.1875V49.1875ZM340.648 37.5V27.5C335.126 27.5 330.648 31.9772 330.648 37.5H340.648ZM347.566 37.5H357.566C357.566 31.9772 353.089 27.5 347.566 27.5V37.5ZM347.566 43.6875H337.566C337.566 49.2103 342.044 53.6875 347.566 53.6875V43.6875ZM369.309 19.4102L379.308 19.4928C379.309 19.4372 379.309 19.3817 379.308 19.3261L369.309 19.4102ZM339.875 19.4102L349.875 19.4928C349.875 19.4372 349.875 19.3817 349.875 19.3261L339.875 19.4102ZM354.613 16.5312L354.701 6.53163C354.643 6.53113 354.585 6.53112 354.527 6.53162L354.613 16.5312ZM347.051 19.4102L357.049 19.6184C357.052 19.475 357.052 19.3315 357.048 19.188L347.051 19.4102ZM354.613 22.2461L354.701 12.2465C354.643 12.246 354.585 12.246 354.527 12.2465L354.613 22.2461ZM372.746 29.9375H362.746V35.3516H372.746H382.746V29.9375H372.746ZM372.746 35.3516V25.3516H336.48V35.3516V45.3516H372.746V35.3516ZM336.48 35.3516H346.48V29.9375H336.48H326.48V35.3516H336.48ZM336.48 29.9375V39.9375H372.746V29.9375V19.9375H336.48V29.9375ZM368.535 43.6875H358.535V49.1875H368.535H378.535V43.6875H368.535ZM368.535 49.1875V39.1875H340.648V49.1875V59.1875H368.535V49.1875ZM340.648 49.1875H350.648V37.5H340.648H330.648V49.1875H340.648ZM340.648 37.5V47.5H347.566V37.5V27.5H340.648V37.5ZM347.566 37.5H337.566V43.6875H347.566H357.566V37.5H347.566ZM347.566 43.6875V53.6875H368.535V43.6875V33.6875H347.566V43.6875ZM354.613 11.1172V21.1172C357.975 21.1172 359.779 21.7555 360.363 22.0809C360.597 22.2112 360.325 22.1183 359.97 21.5982C359.564 21.0039 359.315 20.2325 359.309 19.4942L369.309 19.4102L379.308 19.3261C379.249 12.2408 374.906 7.28992 370.101 4.61151C365.539 2.06871 360.017 1.11719 354.613 1.11719V11.1172ZM369.309 19.4102L359.309 19.3275C359.315 18.6476 359.541 17.9154 359.929 17.3389C360.27 16.8323 360.533 16.7399 360.308 16.8672C359.74 17.1886 357.958 17.832 354.613 17.832V27.832V37.832C360.034 37.832 365.579 36.8641 370.156 34.2744C374.995 31.5366 379.25 26.5412 379.308 19.4928L369.309 19.4102ZM354.613 27.832V17.832C351.206 17.832 349.392 17.1821 348.817 16.8584C348.591 16.7309 348.877 16.8348 349.238 17.3762C349.65 17.9944 349.881 18.7752 349.875 19.4928L339.875 19.4102L329.875 19.3275C329.816 26.487 334.137 31.5434 339 34.2832C343.592 36.8706 349.169 37.832 354.613 37.832V27.832ZM339.875 19.4102L349.875 19.3261C349.881 20.1031 349.628 20.9243 349.197 21.5609C348.822 22.1159 348.526 22.2202 348.762 22.0895C349.352 21.7618 351.19 21.1172 354.613 21.1172V11.1172V1.11719C349.185 1.11719 343.632 2.06243 339.055 4.6029C334.228 7.28237 329.815 12.2948 329.875 19.4942L339.875 19.4102ZM354.613 16.5312L354.527 6.53162C351.737 6.55568 348.414 6.79251 345.466 7.8871C343.933 8.45626 341.822 9.5024 340.04 11.5061C338.051 13.7437 336.986 16.6133 337.053 19.6323L347.051 19.4102L357.048 19.188C357.094 21.2402 356.341 23.2719 354.987 24.7951C353.84 26.0845 352.688 26.5398 352.428 26.6363C352.115 26.7523 352.104 26.7088 352.59 26.6467C353.039 26.5893 353.726 26.5393 354.699 26.5309L354.613 16.5312ZM347.051 19.4102L337.053 19.2019C336.993 22.073 337.938 24.9534 339.961 27.284C341.786 29.3863 343.978 30.4592 345.571 31.0306C348.588 32.1125 351.971 32.2692 354.699 32.2457L354.613 22.2461L354.527 12.2465C353.537 12.255 352.848 12.218 352.402 12.1696C351.916 12.1168 351.963 12.0757 352.323 12.2048C352.643 12.3196 353.876 12.8044 355.066 14.1749C356.453 15.7736 357.087 17.7785 357.049 19.6184L347.051 19.4102ZM354.613 22.2461L354.526 32.2457C357.235 32.2695 360.59 32.1084 363.595 31.0351C365.177 30.47 367.331 29.4207 369.146 27.385C371.155 25.1327 372.176 22.3066 372.176 19.4102H362.176H352.176C352.176 17.5449 352.864 15.5943 354.219 14.0739C355.382 12.77 356.564 12.3089 356.868 12.2003C357.211 12.0777 357.249 12.1185 356.774 12.1705C356.337 12.2183 355.664 12.2549 354.701 12.2465L354.613 22.2461ZM362.176 19.4102H372.176C372.176 16.3715 371.035 13.5618 369.066 11.406C367.296 9.46789 365.222 8.44528 363.699 7.88233C360.765 6.79719 357.471 6.55593 354.701 6.53163L354.613 16.5312L354.526 26.5309C355.472 26.5392 356.143 26.5886 356.584 26.6454C357.06 26.7067 357.059 26.7503 356.763 26.6411C356.519 26.5508 355.418 26.119 354.3 24.8953C352.983 23.4538 352.176 21.482 352.176 19.4102H362.176Z" fill="white" mask="url(#path-1-outside-1_3990_1431)"/>
</g>
<defs>
<filter id="filter0_d_3990_1431" x="0" y="0" width="386.746" height="67.875" filterUnits="userSpaceOnUse" color-interpolation-filters="sRGB">
<feFlood flood-opacity="0" result="BackgroundImageFix"/>
<feColorMatrix in="SourceAlpha" type="matrix" values="0 0 0 0 0 0 0 0 0 0 0 0 0 0 0 0 0 0 127 0" result="hardAlpha"/>
<feOffset dy="4"/>
<feGaussianBlur stdDeviation="2"/>
<feComposite in2="hardAlpha" operator="out"/>
<feColorMatrix type="matrix" values="0 0 0 0 0 0 0 0 0 0 0 0 0 0 0 0 0 0 0.07 0"/>
<feBlend mode="normal" in2="BackgroundImageFix" result="effect1_dropShadow_3990_1431"/>
<feBlend mode="normal" in="SourceGraphic" in2="effect1_dropShadow_3990_1431" result="shape"/>
</filter>
</defs>
</svg>
