<svg width="350" height="68" viewBox="0 0 350 68" fill="none" xmlns="http://www.w3.org/2000/svg">
<g filter="url(#filter0_d_3990_1412)">
<mask id="path-1-outside-1_3990_1412" maskUnits="userSpaceOnUse" x="3.09766" y="-0.507813" width="343" height="61" fill="black">
<rect fill="white" x="3.09766" y="-0.507813" width="343" height="61"/>
<path d="M50.2656 29.9805V35.3516H36.1289V40.8516H29.2969V35.3516H14L14 29.9805H50.2656ZM46.3125 43.6875V49.1875H17.9531V38.1016H24.7852V43.6875H46.3125ZM25.2578 11.2891V14.8555H38.8359V11.2891L45.668 11.2891V27.918H18.5117V11.2891H25.2578ZM25.2578 22.5469H38.8359V19.8828H25.2578V22.5469ZM64.875 11.5039C71.0195 11.5039 75.5742 15.0703 75.5742 20.1836C75.5742 25.168 71.0195 28.8203 64.875 28.7773C58.7734 28.8203 54.2617 25.168 54.3047 20.1836C54.2617 15.0703 58.7734 11.5039 64.875 11.5039ZM64.875 17.0039C62.5547 17.0039 60.9219 17.9922 60.9219 20.1836C60.9219 22.2461 62.5547 23.2344 64.875 23.1914C67.3672 23.2344 69.043 22.2461 69.043 20.1836C69.043 17.9922 67.3672 17.0039 64.875 17.0039ZM85.9727 10.0859V49.7031H79.0977V10.0859H85.9727ZM52.2422 30.582C58.9883 30.5391 68.8281 30.4102 77.0352 29.1641L77.5078 34.1484C74.5859 34.793 71.5781 35.2012 68.6133 35.4805V48.5859H61.6953V35.9102C58.5586 36.0391 55.6367 36.082 53.0586 36.125L52.2422 30.582ZM123.785 10V49.7461H116.781V10H123.785ZM111.754 14.082C111.754 26.543 108.23 36.4688 93.4922 43.3438L89.9688 37.9297C99.8945 33.2031 103.869 27.7461 104.75 19.4531H92.2461V14.082H111.754ZM164.348 27.4023V32.4297L128.082 32.4297V27.4023H164.348ZM160.137 33.6328V43.6445L138.91 43.6445V44.9336L161.211 44.9336V49.4883L132.078 49.4883V39.3906L153.305 39.3906V38.2734L132.078 38.2734V33.6328L160.137 33.6328ZM160.137 10.4727V20.4844H139.297V21.7734H160.824V26.2852H132.465V16.2305H153.262V15.0273H132.422V10.4727H160.137ZM198.293 11.6328V16.9609H191.203C191.869 20.1836 194.297 23.3418 199.926 24.8672L196.746 30.1523C192.363 29.0352 189.398 26.6504 187.637 23.6211C185.854 27.0586 182.803 29.7441 178.055 30.9687L174.703 25.5977C180.654 23.9863 183.146 20.4844 183.812 16.9609H176.508V11.6328H198.293ZM207.488 10V17.3477H212.43V22.8477H207.488V30.3242H200.57V10H207.488ZM207.488 31.6562V42.7852H187.336V44.2031H208.434V49.3594H180.504V38.0156H200.613V36.7695H180.504V31.6562H207.488ZM257.117 10V49.7461H250.371V10H257.117ZM223.516 35.3945C231.078 35.3945 240.359 35.5234 248.738 34.5781L249.211 39.5195C240.359 40.9805 231.68 41.0234 224.203 40.8945L223.516 35.3945ZM248.094 25.3398V30.9687H237.223V13.8672H248.008V19.3672H244.055V25.3398H248.094ZM235.332 13.8672V19.3672H231.766V25.2539C233.033 25.168 234.258 25.0176 235.633 24.7812L236.148 30.2812C233.012 30.8828 230.777 30.9258 227.168 30.9687H225.02V13.8672H235.332ZM297.594 31.9141V37.457H282.727V49.832H275.895V37.457H261.328V31.9141H297.594ZM279.332 11.2031C287.969 11.1602 294.156 14.7695 294.156 20.3984C294.156 25.8555 287.969 29.3789 279.332 29.3789C270.695 29.3789 264.594 25.8555 264.637 20.3984C264.594 14.7695 270.695 11.1602 279.332 11.2031ZM279.332 16.6602C274.562 16.6602 271.727 17.8633 271.727 20.3984C271.727 22.7617 274.562 23.9648 279.332 23.9648C284.188 23.9648 286.98 22.7617 286.98 20.3984C286.98 17.8633 284.188 16.6602 279.332 16.6602ZM331.711 20.0977V25.4258H303.609V11.418H310.484V20.0977H331.711ZM335.621 28.9492V34.2773H299.355V28.9492H335.621ZM331.969 43.4727V48.9727H303.137V37.0273H310.098V43.4727H331.969Z"/>
</mask>
<path d="M50.2656 29.9805V35.3516H36.1289V40.8516H29.2969V35.3516H14L14 29.9805H50.2656ZM46.3125 43.6875V49.1875H17.9531V38.1016H24.7852V43.6875H46.3125ZM25.2578 11.2891V14.8555H38.8359V11.2891L45.668 11.2891V27.918H18.5117V11.2891H25.2578ZM25.2578 22.5469H38.8359V19.8828H25.2578V22.5469ZM64.875 11.5039C71.0195 11.5039 75.5742 15.0703 75.5742 20.1836C75.5742 25.168 71.0195 28.8203 64.875 28.7773C58.7734 28.8203 54.2617 25.168 54.3047 20.1836C54.2617 15.0703 58.7734 11.5039 64.875 11.5039ZM64.875 17.0039C62.5547 17.0039 60.9219 17.9922 60.9219 20.1836C60.9219 22.2461 62.5547 23.2344 64.875 23.1914C67.3672 23.2344 69.043 22.2461 69.043 20.1836C69.043 17.9922 67.3672 17.0039 64.875 17.0039ZM85.9727 10.0859V49.7031H79.0977V10.0859H85.9727ZM52.2422 30.582C58.9883 30.5391 68.8281 30.4102 77.0352 29.1641L77.5078 34.1484C74.5859 34.793 71.5781 35.2012 68.6133 35.4805V48.5859H61.6953V35.9102C58.5586 36.0391 55.6367 36.082 53.0586 36.125L52.2422 30.582ZM123.785 10V49.7461H116.781V10H123.785ZM111.754 14.082C111.754 26.543 108.23 36.4688 93.4922 43.3438L89.9688 37.9297C99.8945 33.2031 103.869 27.7461 104.75 19.4531H92.2461V14.082H111.754ZM164.348 27.4023V32.4297L128.082 32.4297V27.4023H164.348ZM160.137 33.6328V43.6445L138.91 43.6445V44.9336L161.211 44.9336V49.4883L132.078 49.4883V39.3906L153.305 39.3906V38.2734L132.078 38.2734V33.6328L160.137 33.6328ZM160.137 10.4727V20.4844H139.297V21.7734H160.824V26.2852H132.465V16.2305H153.262V15.0273H132.422V10.4727H160.137ZM198.293 11.6328V16.9609H191.203C191.869 20.1836 194.297 23.3418 199.926 24.8672L196.746 30.1523C192.363 29.0352 189.398 26.6504 187.637 23.6211C185.854 27.0586 182.803 29.7441 178.055 30.9687L174.703 25.5977C180.654 23.9863 183.146 20.4844 183.812 16.9609H176.508V11.6328H198.293ZM207.488 10V17.3477H212.43V22.8477H207.488V30.3242H200.57V10H207.488ZM207.488 31.6562V42.7852H187.336V44.2031H208.434V49.3594H180.504V38.0156H200.613V36.7695H180.504V31.6562H207.488ZM257.117 10V49.7461H250.371V10H257.117ZM223.516 35.3945C231.078 35.3945 240.359 35.5234 248.738 34.5781L249.211 39.5195C240.359 40.9805 231.68 41.0234 224.203 40.8945L223.516 35.3945ZM248.094 25.3398V30.9687H237.223V13.8672H248.008V19.3672H244.055V25.3398H248.094ZM235.332 13.8672V19.3672H231.766V25.2539C233.033 25.168 234.258 25.0176 235.633 24.7812L236.148 30.2812C233.012 30.8828 230.777 30.9258 227.168 30.9687H225.02V13.8672H235.332ZM297.594 31.9141V37.457H282.727V49.832H275.895V37.457H261.328V31.9141H297.594ZM279.332 11.2031C287.969 11.1602 294.156 14.7695 294.156 20.3984C294.156 25.8555 287.969 29.3789 279.332 29.3789C270.695 29.3789 264.594 25.8555 264.637 20.3984C264.594 14.7695 270.695 11.1602 279.332 11.2031ZM279.332 16.6602C274.562 16.6602 271.727 17.8633 271.727 20.3984C271.727 22.7617 274.562 23.9648 279.332 23.9648C284.188 23.9648 286.98 22.7617 286.98 20.3984C286.98 17.8633 284.188 16.6602 279.332 16.6602ZM331.711 20.0977V25.4258H303.609V11.418H310.484V20.0977H331.711ZM335.621 28.9492V34.2773H299.355V28.9492H335.621ZM331.969 43.4727V48.9727H303.137V37.0273H310.098V43.4727H331.969Z" fill="#11DCA9"/>
<path d="M50.2656 29.9805H60.2656C60.2656 24.4576 55.7885 19.9805 50.2656 19.9805V29.9805ZM50.2656 35.3516V45.3516C55.7885 45.3516 60.2656 40.8744 60.2656 35.3516H50.2656ZM36.1289 35.3516V25.3516C30.6061 25.3516 26.1289 29.8287 26.1289 35.3516H36.1289ZM36.1289 40.8516V50.8516C41.6518 50.8516 46.1289 46.3744 46.1289 40.8516H36.1289ZM29.2969 40.8516H19.2969C19.2969 46.3744 23.774 50.8516 29.2969 50.8516V40.8516ZM29.2969 35.3516H39.2969C39.2969 29.8287 34.8197 25.3516 29.2969 25.3516V35.3516ZM14 35.3516H4C4 40.8744 8.47715 45.3516 14 45.3516V35.3516ZM14 29.9805V19.9805C8.47715 19.9805 4 24.4576 4 29.9805H14ZM46.3125 43.6875H56.3125C56.3125 38.1647 51.8353 33.6875 46.3125 33.6875V43.6875ZM46.3125 49.1875V59.1875C51.8353 59.1875 56.3125 54.7103 56.3125 49.1875H46.3125ZM17.9531 49.1875H7.95313C7.95313 54.7103 12.4303 59.1875 17.9531 59.1875V49.1875ZM17.9531 38.1016V28.1016C12.4303 28.1016 7.95313 32.5787 7.95313 38.1016H17.9531ZM24.7852 38.1016H34.7852C34.7852 32.5787 30.308 28.1016 24.7852 28.1016V38.1016ZM24.7852 43.6875H14.7852C14.7852 49.2103 19.2623 53.6875 24.7852 53.6875V43.6875ZM25.2578 11.2891H35.2578C35.2578 5.76622 30.7807 1.28906 25.2578 1.28906V11.2891ZM25.2578 14.8555H15.2578C15.2578 20.3783 19.735 24.8555 25.2578 24.8555V14.8555ZM38.8359 14.8555V24.8555C44.3588 24.8555 48.8359 20.3783 48.8359 14.8555H38.8359ZM38.8359 11.2891V1.28906C33.3131 1.28906 28.8359 5.76622 28.8359 11.2891H38.8359ZM45.668 11.2891H55.668C55.668 5.76622 51.1908 1.28906 45.668 1.28906V11.2891ZM45.668 27.918V37.918C51.1908 37.918 55.668 33.4408 55.668 27.918H45.668ZM18.5117 27.918H8.51172C8.51172 33.4408 12.9889 37.918 18.5117 37.918V27.918ZM18.5117 11.2891V1.28906C12.9889 1.28906 8.51172 5.76622 8.51172 11.2891H18.5117ZM25.2578 22.5469H15.2578C15.2578 28.0697 19.735 32.5469 25.2578 32.5469V22.5469ZM38.8359 22.5469V32.5469C44.3588 32.5469 48.8359 28.0697 48.8359 22.5469H38.8359ZM38.8359 19.8828H48.8359C48.8359 14.36 44.3588 9.88281 38.8359 9.88281V19.8828ZM25.2578 19.8828V9.88281C19.735 9.88281 15.2578 14.36 15.2578 19.8828H25.2578ZM50.2656 29.9805H40.2656V35.3516H50.2656H60.2656V29.9805H50.2656ZM50.2656 35.3516V25.3516H36.1289V35.3516V45.3516H50.2656V35.3516ZM36.1289 35.3516H26.1289V40.8516H36.1289H46.1289V35.3516H36.1289ZM36.1289 40.8516V30.8516H29.2969V40.8516V50.8516H36.1289V40.8516ZM29.2969 40.8516H39.2969V35.3516H29.2969H19.2969V40.8516H29.2969ZM29.2969 35.3516V25.3516H14L14 35.3516V45.3516H29.2969V35.3516ZM14 35.3516H24V29.9805H14H4V35.3516H14ZM14 29.9805L14 39.9805H50.2656V29.9805V19.9805H14V29.9805ZM46.3125 43.6875H36.3125V49.1875H46.3125H56.3125V43.6875H46.3125ZM46.3125 49.1875V39.1875H17.9531V49.1875V59.1875H46.3125V49.1875ZM17.9531 49.1875H27.9531V38.1016H17.9531H7.95313L7.95313 49.1875H17.9531ZM17.9531 38.1016V48.1016H24.7852V38.1016V28.1016H17.9531V38.1016ZM24.7852 38.1016H14.7852V43.6875H24.7852H34.7852V38.1016H24.7852ZM24.7852 43.6875V53.6875H46.3125V43.6875V33.6875H24.7852V43.6875ZM25.2578 11.2891H15.2578V14.8555H25.2578H35.2578V11.2891H25.2578ZM25.2578 14.8555V24.8555H38.8359V14.8555V4.85547H25.2578V14.8555ZM38.8359 14.8555H48.8359V11.2891L38.8359 11.2891H28.8359V14.8555H38.8359ZM38.8359 11.2891V21.2891H45.668V11.2891V1.28906H38.8359V11.2891ZM45.668 11.2891L35.668 11.2891V27.918H45.668H55.668V11.2891H45.668ZM45.668 27.918V17.918H18.5117V27.918V37.918H45.668V27.918ZM18.5117 27.918H28.5117V11.2891H18.5117H8.51172V27.918H18.5117ZM18.5117 11.2891V21.2891H25.2578V11.2891V1.28906H18.5117V11.2891ZM25.2578 22.5469V32.5469H38.8359V22.5469V12.5469H25.2578V22.5469ZM38.8359 22.5469H48.8359V19.8828H38.8359H28.8359V22.5469H38.8359ZM38.8359 19.8828V9.88281H25.2578V19.8828V29.8828H38.8359V19.8828ZM25.2578 19.8828H15.2578V22.5469H25.2578H35.2578V19.8828H25.2578ZM64.875 28.7773L64.9449 18.7776C64.8981 18.7773 64.8514 18.7773 64.8046 18.7776L64.875 28.7773ZM54.3047 20.1836L64.3043 20.2698C64.3048 20.2131 64.3048 20.1563 64.3043 20.0996L54.3047 20.1836ZM64.875 23.1914L65.0474 13.1929C64.9282 13.1908 64.809 13.1909 64.6898 13.1931L64.875 23.1914ZM85.9727 10.0859H95.9727C95.9727 4.56309 91.4955 0.0859375 85.9727 0.0859375V10.0859ZM85.9727 49.7031V59.7031C91.4955 59.7031 95.9727 55.226 95.9727 49.7031H85.9727ZM79.0977 49.7031H69.0977C69.0977 55.226 73.5748 59.7031 79.0977 59.7031V49.7031ZM79.0977 10.0859V0.0859375C73.5748 0.0859375 69.0977 4.56309 69.0977 10.0859H79.0977ZM52.2422 30.582L52.1785 20.5822C49.2832 20.6007 46.538 21.8731 44.6527 24.0706C42.7674 26.268 41.927 29.1747 42.3489 32.0392L52.2422 30.582ZM77.0352 29.1641L86.9905 28.22C86.7309 25.4827 85.3557 22.9731 83.1883 21.2812C81.0209 19.5894 78.2524 18.8646 75.534 19.2774L77.0352 29.1641ZM77.5078 34.1484L79.6619 43.9137C84.5934 42.8258 87.9399 38.2319 87.4632 33.2044L77.5078 34.1484ZM68.6133 35.4805L67.6754 25.5245C62.5386 26.0084 58.6133 30.321 58.6133 35.4805H68.6133ZM68.6133 48.5859V58.5859C74.1361 58.5859 78.6133 54.1088 78.6133 48.5859H68.6133ZM61.6953 48.5859H51.6953C51.6953 54.1088 56.1725 58.5859 61.6953 58.5859V48.5859ZM61.6953 35.9102H71.6953C71.6953 33.1868 70.5846 30.5812 68.6197 28.6954C66.6548 26.8096 64.0058 25.8068 61.2847 25.9186L61.6953 35.9102ZM53.0586 36.125L43.1653 37.5821C43.8973 42.5519 48.2026 46.2073 53.2252 46.1236L53.0586 36.125ZM64.875 11.5039V21.5039C66.0783 21.5039 66.4308 21.8545 66.2685 21.7242C66.1736 21.6481 65.9776 21.4552 65.8097 21.1172C65.6355 20.7663 65.5742 20.4231 65.5742 20.1836H75.5742L85.5742 20.1836C85.5742 7.60908 74.3804 1.50391 64.875 1.50391V11.5039ZM75.5742 20.1836H65.5742C65.5742 19.8732 65.6529 19.5007 65.828 19.1516C65.996 18.8168 66.1855 18.6343 66.2685 18.5678C66.4142 18.4507 66.0716 18.7855 64.9449 18.7776L64.875 28.7773L64.8051 38.7771C74.4037 38.8442 85.5742 32.6054 85.5742 20.1836L75.5742 20.1836ZM64.875 28.7773L64.8046 18.7776C63.7137 18.7853 63.4126 18.4593 63.5891 18.6026C63.6871 18.6821 63.885 18.8788 64.0554 19.2256C64.2327 19.5864 64.307 19.9637 64.3043 20.2698L54.3047 20.1836L44.3051 20.0974C44.1978 32.5408 55.338 38.8448 64.9454 38.7771L64.875 28.7773ZM54.3047 20.1836L64.3043 20.0996C64.3063 20.3343 64.2492 20.6816 64.0732 21.0435C63.9032 21.3931 63.699 21.6001 63.5891 21.6894C63.396 21.8462 63.7068 21.5039 64.875 21.5039V11.5039V1.50391C55.36 1.50391 44.1992 7.67385 44.305 20.2676L54.3047 20.1836ZM64.875 17.0039V7.00391C62.5071 7.00391 59.1039 7.47709 56.0481 9.7572C52.5448 12.3712 50.9219 16.2917 50.9219 20.1836H60.9219H70.9219C70.9219 20.8888 70.7859 21.91 70.2553 23.0334C69.7123 24.1827 68.9069 25.1164 68.0086 25.7867C66.3492 27.0249 64.9225 27.0039 64.875 27.0039V17.0039ZM60.9219 20.1836H50.9219C50.9219 24.217 52.7096 28.106 56.21 30.6102C59.2632 32.7943 62.6395 33.2345 65.0602 33.1897L64.875 23.1914L64.6898 13.1931C64.7902 13.1913 66.1899 13.1588 67.8466 14.3439C68.7427 14.985 69.587 15.9062 70.1732 17.0891C70.752 18.2569 70.9219 19.3597 70.9219 20.1836H60.9219ZM64.875 23.1914L64.7026 33.1899C67.0822 33.2309 70.4569 32.8387 73.5382 30.7316C77.1341 28.2726 79.043 24.3434 79.043 20.1836L69.043 20.1836H59.043C59.043 19.3211 59.2263 18.1702 59.8453 16.964C60.4708 15.7452 61.3554 14.8335 62.2489 14.2225C63.0996 13.6408 63.8563 13.3963 64.298 13.2929C64.7422 13.1889 65.0131 13.1923 65.0474 13.1929L64.875 23.1914ZM69.043 20.1836L79.043 20.1836C79.043 16.1729 77.3099 12.2051 73.7003 9.6306C70.6116 7.42764 67.2046 7.00391 64.875 7.00391V17.0039V27.0039C64.8619 27.0039 64.5965 27.005 64.1523 26.894C63.7073 26.7827 62.9402 26.522 62.0868 25.9134C61.187 25.2715 60.3403 24.3441 59.7591 23.156C59.1902 21.9929 59.043 20.9244 59.043 20.1836H69.043ZM85.9727 10.0859H75.9727V49.7031H85.9727H95.9727V10.0859H85.9727ZM85.9727 49.7031V39.7031H79.0977V49.7031V59.7031H85.9727V49.7031ZM79.0977 49.7031H89.0977V10.0859H79.0977H69.0977V49.7031H79.0977ZM79.0977 10.0859V20.0859H85.9727V10.0859V0.0859375L79.0977 0.0859375V10.0859ZM52.2422 30.582L52.3059 40.5818C58.9741 40.5394 69.5106 40.4211 78.5363 39.0508L77.0352 29.1641L75.534 19.2774C68.1456 20.3992 59.0025 20.5388 52.1785 20.5822L52.2422 30.582ZM77.0352 29.1641L67.0798 30.1081L67.5525 35.0925L77.5078 34.1484L87.4632 33.2044L86.9905 28.22L77.0352 29.1641ZM77.5078 34.1484L75.3537 24.3832C72.9565 24.912 70.3803 25.2697 67.6754 25.5245L68.6133 35.4805L69.5512 45.4364C72.7759 45.1326 76.2154 44.6739 79.6619 43.9137L77.5078 34.1484ZM68.6133 35.4805H58.6133V48.5859H68.6133H78.6133V35.4805H68.6133ZM68.6133 48.5859V38.5859H61.6953V48.5859V58.5859H68.6133V48.5859ZM61.6953 48.5859H71.6953V35.9102H61.6953H51.6953V48.5859H61.6953ZM61.6953 35.9102L61.2847 25.9186C58.2932 26.0415 55.4999 26.0829 52.8919 26.1264L53.0586 36.125L53.2252 46.1236C55.7736 46.0811 58.824 46.0366 62.1059 45.9017L61.6953 35.9102ZM53.0586 36.125L62.9519 34.6679L62.1355 29.1249L52.2422 30.582L42.3489 32.0392L43.1653 37.5821L53.0586 36.125ZM123.785 10H133.785C133.785 4.47715 129.308 0 123.785 0V10ZM123.785 49.7461V59.7461C129.308 59.7461 133.785 55.2689 133.785 49.7461H123.785ZM116.781 49.7461H106.781C106.781 55.2689 111.258 59.7461 116.781 59.7461V49.7461ZM116.781 10V0C111.258 0 106.781 4.47715 106.781 10L116.781 10ZM111.754 14.082H121.754C121.754 8.55918 117.277 4.08203 111.754 4.08203V14.082ZM93.4922 43.3438L85.1108 48.7983C87.8282 52.9739 93.2047 54.5123 97.7196 52.4063L93.4922 43.3438ZM89.9688 37.9297L85.6694 28.9011C83.0669 30.1404 81.1257 32.4424 80.3437 35.2169C79.5618 37.9913 80.0151 40.9683 81.5874 43.3842L89.9688 37.9297ZM104.75 19.4531L114.694 20.5094C114.994 17.6892 114.082 14.8745 112.185 12.7659C110.289 10.6573 107.586 9.45312 104.75 9.45312V19.4531ZM92.2461 19.4531H82.2461C82.2461 24.976 86.7232 29.4531 92.2461 29.4531V19.4531ZM92.2461 14.082V4.08203C86.7232 4.08203 82.2461 8.55918 82.2461 14.082H92.2461ZM123.785 10H113.785V49.7461H123.785H133.785V10H123.785ZM123.785 49.7461V39.7461H116.781V49.7461V59.7461H123.785V49.7461ZM116.781 49.7461H126.781V10H116.781L106.781 10V49.7461H116.781ZM116.781 10V20H123.785V10V0L116.781 0V10ZM111.754 14.082H101.754C101.754 19.4566 100.976 23.132 99.4097 25.9487C97.9272 28.6154 95.173 31.5252 89.2648 34.2812L93.4922 43.3438L97.7196 52.4063C106.55 48.2873 112.926 42.7967 116.89 35.6665C120.771 28.6864 121.754 21.1684 121.754 14.082H111.754ZM93.4922 43.3438L101.874 37.8892L98.3501 32.4751L89.9688 37.9297L81.5874 43.3842L85.1108 48.7983L93.4922 43.3438ZM89.9688 37.9297L94.2681 46.9583C100.048 44.2061 104.995 40.8257 108.622 36.197C112.36 31.4275 114.1 26.0982 114.694 20.5094L104.75 19.4531L94.8059 18.3969C94.5187 21.101 93.8314 22.6468 92.8802 23.8606C91.8185 25.2154 89.8156 26.9267 85.6694 28.9011L89.9688 37.9297ZM104.75 19.4531V9.45312H92.2461V19.4531V29.4531H104.75V19.4531ZM92.2461 19.4531H102.246V14.082H92.2461H82.2461V19.4531H92.2461ZM92.2461 14.082V24.082H111.754V14.082V4.08203L92.2461 4.08203V14.082ZM164.348 27.4023H174.348C174.348 21.8795 169.87 17.4023 164.348 17.4023V27.4023ZM164.348 32.4297V42.4297C169.87 42.4297 174.348 37.9525 174.348 32.4297H164.348ZM128.082 32.4297H118.082C118.082 37.9525 122.559 42.4297 128.082 42.4297V32.4297ZM128.082 27.4023V17.4023C122.559 17.4023 118.082 21.8795 118.082 27.4023H128.082ZM160.137 33.6328H170.137C170.137 28.11 165.66 23.6328 160.137 23.6328V33.6328ZM160.137 43.6445V53.6445C165.66 53.6445 170.137 49.1674 170.137 43.6445H160.137ZM138.91 43.6445V33.6445C133.387 33.6445 128.91 38.1217 128.91 43.6445H138.91ZM138.91 44.9336H128.91C128.91 50.4564 133.387 54.9336 138.91 54.9336V44.9336ZM161.211 44.9336H171.211C171.211 39.4107 166.734 34.9336 161.211 34.9336V44.9336ZM161.211 49.4883V59.4883C166.734 59.4883 171.211 55.0111 171.211 49.4883H161.211ZM132.078 49.4883H122.078C122.078 55.0111 126.555 59.4883 132.078 59.4883V49.4883ZM132.078 39.3906V29.3906C126.555 29.3906 122.078 33.8678 122.078 39.3906H132.078ZM153.305 39.3906V49.3906C158.828 49.3906 163.305 44.9135 163.305 39.3906H153.305ZM153.305 38.2734H163.305C163.305 32.7506 158.828 28.2734 153.305 28.2734V38.2734ZM132.078 38.2734H122.078C122.078 43.7963 126.555 48.2734 132.078 48.2734V38.2734ZM132.078 33.6328V23.6328C126.555 23.6328 122.078 28.11 122.078 33.6328H132.078ZM160.137 10.4727H170.137C170.137 4.94981 165.66 0.472656 160.137 0.472656V10.4727ZM160.137 20.4844V30.4844C165.66 30.4844 170.137 26.0072 170.137 20.4844H160.137ZM139.297 20.4844V10.4844C133.774 10.4844 129.297 14.9615 129.297 20.4844H139.297ZM139.297 21.7734H129.297C129.297 27.2963 133.774 31.7734 139.297 31.7734V21.7734ZM160.824 21.7734H170.824C170.824 16.2506 166.347 11.7734 160.824 11.7734V21.7734ZM160.824 26.2852V36.2852C166.347 36.2852 170.824 31.808 170.824 26.2852H160.824ZM132.465 26.2852H122.465C122.465 31.808 126.942 36.2852 132.465 36.2852V26.2852ZM132.465 16.2305V6.23047C126.942 6.23047 122.465 10.7076 122.465 16.2305H132.465ZM153.262 16.2305V26.2305C158.785 26.2305 163.262 21.7533 163.262 16.2305H153.262ZM153.262 15.0273H163.262C163.262 9.5045 158.785 5.02734 153.262 5.02734V15.0273ZM132.422 15.0273H122.422C122.422 20.5502 126.899 25.0273 132.422 25.0273V15.0273ZM132.422 10.4727V0.472656C126.899 0.472656 122.422 4.94981 122.422 10.4727H132.422ZM164.348 27.4023H154.348V32.4297H164.348H174.348V27.4023H164.348ZM164.348 32.4297V22.4297H128.082V32.4297V42.4297L164.348 42.4297V32.4297ZM128.082 32.4297H138.082V27.4023H128.082H118.082V32.4297H128.082ZM128.082 27.4023V37.4023L164.348 37.4023V27.4023V17.4023H128.082V27.4023ZM160.137 33.6328H150.137V43.6445H160.137H170.137V33.6328H160.137ZM160.137 43.6445V33.6445L138.91 33.6445V43.6445V53.6445L160.137 53.6445V43.6445ZM138.91 43.6445H128.91V44.9336H138.91L148.91 44.9336V43.6445L138.91 43.6445ZM138.91 44.9336V54.9336L161.211 54.9336V44.9336V34.9336L138.91 34.9336V44.9336ZM161.211 44.9336H151.211V49.4883H161.211H171.211V44.9336H161.211ZM161.211 49.4883V39.4883L132.078 39.4883V49.4883V59.4883L161.211 59.4883V49.4883ZM132.078 49.4883L142.078 49.4883V39.3906L132.078 39.3906H122.078V49.4883H132.078ZM132.078 39.3906V49.3906L153.305 49.3906V39.3906V29.3906L132.078 29.3906V39.3906ZM153.305 39.3906H163.305V38.2734H153.305H143.305V39.3906H153.305ZM153.305 38.2734V28.2734H132.078V38.2734V48.2734L153.305 48.2734V38.2734ZM132.078 38.2734L142.078 38.2734V33.6328L132.078 33.6328H122.078V38.2734H132.078ZM132.078 33.6328V43.6328L160.137 43.6328V33.6328V23.6328H132.078V33.6328ZM160.137 10.4727H150.137V20.4844H160.137H170.137V10.4727H160.137ZM160.137 20.4844V10.4844H139.297V20.4844V30.4844L160.137 30.4844V20.4844ZM139.297 20.4844H129.297V21.7734H139.297H149.297V20.4844H139.297ZM139.297 21.7734V31.7734L160.824 31.7734V21.7734V11.7734H139.297V21.7734ZM160.824 21.7734H150.824V26.2852H160.824H170.824V21.7734H160.824ZM160.824 26.2852V16.2852H132.465V26.2852V36.2852L160.824 36.2852V26.2852ZM132.465 26.2852H142.465V16.2305H132.465H122.465V26.2852H132.465ZM132.465 16.2305V26.2305H153.262V16.2305V6.23047H132.465V16.2305ZM153.262 16.2305H163.262V15.0273H153.262H143.262V16.2305H153.262ZM153.262 15.0273V5.02734H132.422V15.0273V25.0273H153.262V15.0273ZM132.422 15.0273H142.422V10.4727H132.422H122.422V15.0273H132.422ZM132.422 10.4727V20.4727H160.137V10.4727V0.472656L132.422 0.472656V10.4727ZM198.293 11.6328H208.293C208.293 6.10997 203.816 1.63281 198.293 1.63281V11.6328ZM198.293 16.9609V26.9609C203.816 26.9609 208.293 22.4838 208.293 16.9609L198.293 16.9609ZM191.203 16.9609V6.96094C188.196 6.96094 185.348 8.31419 183.449 10.6458C181.55 12.9775 180.801 16.0399 181.41 18.9848L191.203 16.9609ZM199.926 24.8672L208.495 30.0224C210.111 27.3356 210.374 24.0461 209.204 21.1369C208.034 18.2276 205.568 16.0354 202.541 15.2153L199.926 24.8672ZM196.746 30.1523L194.276 39.8425C198.553 40.9328 203.039 39.0898 205.315 35.3075L196.746 30.1523ZM187.637 23.6211L196.281 18.5938C194.447 15.4406 191.042 13.5361 187.396 13.624C183.749 13.7119 180.44 15.7784 178.76 19.0163L187.637 23.6211ZM178.055 30.9687L169.571 36.2626C171.881 39.9652 176.326 41.7418 180.552 40.6519L178.055 30.9687ZM174.703 25.5977L172.09 15.9452C169.035 16.7723 166.552 18.9964 165.395 21.9419C164.238 24.8875 164.544 28.2068 166.219 30.8915L174.703 25.5977ZM183.812 16.9609L193.639 18.8183C194.192 15.8927 193.412 12.8728 191.512 10.5802C189.612 8.28769 186.79 6.96094 183.812 6.96094V16.9609ZM176.508 16.9609H166.508C166.508 22.4838 170.985 26.9609 176.508 26.9609V16.9609ZM176.508 11.6328V1.63281C170.985 1.63281 166.508 6.10997 166.508 11.6328L176.508 11.6328ZM207.488 10H217.488C217.488 4.47715 213.011 0 207.488 0V10ZM207.488 17.3477L197.488 17.3477C197.488 22.8705 201.965 27.3477 207.488 27.3477V17.3477ZM212.43 17.3477H222.43C222.43 11.8248 217.953 7.34766 212.43 7.34766V17.3477ZM212.43 22.8477V32.8477C217.953 32.8477 222.43 28.3705 222.43 22.8477H212.43ZM207.488 22.8477V12.8477C201.965 12.8477 197.488 17.3248 197.488 22.8477L207.488 22.8477ZM207.488 30.3242V40.3242C213.011 40.3242 217.488 35.8471 217.488 30.3242H207.488ZM200.57 30.3242H190.57C190.57 35.8471 195.047 40.3242 200.57 40.3242V30.3242ZM200.57 10V0C195.047 0 190.57 4.47715 190.57 10H200.57ZM207.488 31.6562H217.488C217.488 26.1334 213.011 21.6562 207.488 21.6562V31.6562ZM207.488 42.7852V52.7852C213.011 52.7852 217.488 48.308 217.488 42.7852H207.488ZM187.336 42.7852V32.7852C181.813 32.7852 177.336 37.2623 177.336 42.7852H187.336ZM187.336 44.2031H177.336C177.336 49.726 181.813 54.2031 187.336 54.2031V44.2031ZM208.434 44.2031H218.434C218.434 38.6803 213.956 34.2031 208.434 34.2031V44.2031ZM208.434 49.3594V59.3594C213.956 59.3594 218.434 54.8822 218.434 49.3594H208.434ZM180.504 49.3594H170.504C170.504 54.8822 174.981 59.3594 180.504 59.3594V49.3594ZM180.504 38.0156V28.0156C174.981 28.0156 170.504 32.4928 170.504 38.0156H180.504ZM200.613 38.0156V48.0156C206.136 48.0156 210.613 43.5385 210.613 38.0156H200.613ZM200.613 36.7695H210.613C210.613 31.2467 206.136 26.7695 200.613 26.7695V36.7695ZM180.504 36.7695H170.504C170.504 42.2924 174.981 46.7695 180.504 46.7695V36.7695ZM180.504 31.6562V21.6562C174.981 21.6562 170.504 26.1334 170.504 31.6562H180.504ZM198.293 11.6328H188.293V16.9609H198.293L208.293 16.9609V11.6328H198.293ZM198.293 16.9609V6.96094H191.203V16.9609V26.9609H198.293V16.9609ZM191.203 16.9609L181.41 18.9848C182.945 26.4107 188.574 32.1517 197.31 34.5191L199.926 24.8672L202.541 15.2153C201.062 14.8145 200.685 14.3904 200.747 14.4522C200.768 14.4732 200.831 14.5449 200.894 14.6632C200.954 14.7766 200.984 14.8759 200.996 14.937L191.203 16.9609ZM199.926 24.8672L191.357 19.712L188.177 24.9971L196.746 30.1523L205.315 35.3075L208.495 30.0224L199.926 24.8672ZM196.746 30.1523L199.216 20.4622C198.168 20.1949 197.531 19.8419 197.149 19.5593C196.77 19.2799 196.497 18.9648 196.281 18.5938L187.637 23.6211L178.992 28.6484C182.18 34.1302 187.445 38.1014 194.276 39.8425L196.746 30.1523ZM187.637 23.6211L178.76 19.0163C178.464 19.5866 178.128 19.9848 177.738 20.294C177.349 20.603 176.694 20.9923 175.557 21.2856L178.055 30.9687L180.552 40.6519C188.035 38.7218 193.414 34.2003 196.513 28.2259L187.637 23.6211ZM178.055 30.9687L186.538 25.6749L183.187 20.3038L174.703 25.5977L166.219 30.8915L169.571 36.2626L178.055 30.9687ZM174.703 25.5977L177.317 35.2501C186.718 32.7046 192.214 26.3544 193.639 18.8183L183.812 16.9609L173.986 15.1036C173.976 15.1614 173.968 15.1643 173.983 15.1336C174.002 15.0964 174.02 15.0768 174.011 15.087C174 15.0981 173.9 15.2018 173.629 15.3548C173.351 15.5115 172.866 15.735 172.09 15.9452L174.703 25.5977ZM183.812 16.9609V6.96094H176.508V16.9609V26.9609H183.812V16.9609ZM176.508 16.9609H186.508V11.6328H176.508L166.508 11.6328V16.9609H176.508ZM176.508 11.6328V21.6328H198.293V11.6328V1.63281L176.508 1.63281V11.6328ZM207.488 10H197.488V17.3477L207.488 17.3477H217.488V10H207.488ZM207.488 17.3477V27.3477H212.43V17.3477V7.34766H207.488V17.3477ZM212.43 17.3477L202.43 17.3477V22.8477L212.43 22.8477H222.43V17.3477H212.43ZM212.43 22.8477V12.8477H207.488V22.8477V32.8477H212.43V22.8477ZM207.488 22.8477L197.488 22.8477V30.3242H207.488H217.488V22.8477H207.488ZM207.488 30.3242V20.3242L200.57 20.3242V30.3242V40.3242H207.488V30.3242ZM200.57 30.3242H210.57V10H200.57H190.57V30.3242H200.57ZM200.57 10V20L207.488 20V10V0H200.57V10ZM207.488 31.6562H197.488V42.7852H207.488H217.488V31.6562H207.488ZM207.488 42.7852V32.7852H187.336V42.7852V52.7852H207.488V42.7852ZM187.336 42.7852H177.336V44.2031H187.336H197.336V42.7852H187.336ZM187.336 44.2031V54.2031H208.434V44.2031V34.2031H187.336V44.2031ZM208.434 44.2031H198.434V49.3594H208.434H218.434V44.2031H208.434ZM208.434 49.3594V39.3594H180.504V49.3594V59.3594H208.434V49.3594ZM180.504 49.3594H190.504V38.0156H180.504H170.504V49.3594H180.504ZM180.504 38.0156V48.0156H200.613V38.0156V28.0156H180.504V38.0156ZM200.613 38.0156H210.613V36.7695H200.613H190.613V38.0156H200.613ZM200.613 36.7695V26.7695H180.504V36.7695V46.7695H200.613V36.7695ZM180.504 36.7695H190.504V31.6562H180.504H170.504V36.7695H180.504ZM180.504 31.6562V41.6562H207.488V31.6562V21.6562L180.504 21.6562V31.6562ZM257.117 10H267.117C267.117 4.47715 262.64 0 257.117 0V10ZM257.117 49.7461V59.7461C262.64 59.7461 267.117 55.2689 267.117 49.7461H257.117ZM250.371 49.7461H240.371C240.371 55.2689 244.848 59.7461 250.371 59.7461V49.7461ZM250.371 10V0C244.848 0 240.371 4.47715 240.371 10H250.371ZM223.516 35.3945V25.3945C220.647 25.3945 217.917 26.6262 216.019 28.7765C214.121 30.9268 213.237 33.7887 213.593 36.6349L223.516 35.3945ZM248.738 34.5781L258.693 33.6259C258.438 30.9565 257.121 28.5015 255.038 26.8121C252.956 25.1227 250.282 24.3405 247.617 24.6412L248.738 34.5781ZM249.211 39.5195L250.839 49.386C256.028 48.5298 259.666 43.8018 259.165 38.5674L249.211 39.5195ZM224.203 40.8945L214.28 42.1349C214.898 47.0741 219.054 50.8072 224.031 50.893L224.203 40.8945ZM248.094 25.3398H258.094C258.094 19.817 253.617 15.3398 248.094 15.3398V25.3398ZM248.094 30.9687V40.9687C253.617 40.9687 258.094 36.4916 258.094 30.9687H248.094ZM237.223 30.9687H227.223C227.223 36.4916 231.7 40.9687 237.223 40.9687V30.9687ZM237.223 13.8672V3.86719C231.7 3.86719 227.223 8.34434 227.223 13.8672H237.223ZM248.008 13.8672H258.008C258.008 8.34434 253.531 3.86719 248.008 3.86719V13.8672ZM248.008 19.3672V29.3672C253.531 29.3672 258.008 24.89 258.008 19.3672H248.008ZM244.055 19.3672V9.36719C238.532 9.36719 234.055 13.8443 234.055 19.3672H244.055ZM244.055 25.3398H234.055C234.055 30.8627 238.532 35.3398 244.055 35.3398V25.3398ZM235.332 13.8672H245.332C245.332 8.34434 240.855 3.86719 235.332 3.86719V13.8672ZM235.332 19.3672V29.3672C240.855 29.3672 245.332 24.89 245.332 19.3672H235.332ZM231.766 19.3672V9.36719C226.243 9.36719 221.766 13.8443 221.766 19.3672H231.766ZM231.766 25.2539H221.766C221.766 28.0236 222.914 30.6692 224.938 32.5602C226.961 34.4513 229.679 35.4183 232.442 35.231L231.766 25.2539ZM235.633 24.7812L245.589 23.8478C245.329 21.0746 243.924 18.5355 241.713 16.842C239.502 15.1484 236.684 14.4539 233.939 14.9258L235.633 24.7812ZM236.148 30.2812L238.032 40.1023C243.091 39.132 246.586 34.4769 246.105 29.3478L236.148 30.2812ZM227.168 30.9687V40.9687C227.208 40.9687 227.247 40.9685 227.287 40.968L227.168 30.9687ZM225.02 30.9687H215.02C215.02 36.4916 219.497 40.9687 225.02 40.9687V30.9687ZM225.02 13.8672V3.86719C219.497 3.86719 215.02 8.34434 215.02 13.8672H225.02ZM257.117 10H247.117V49.7461H257.117H267.117V10H257.117ZM257.117 49.7461V39.7461H250.371V49.7461V59.7461H257.117V49.7461ZM250.371 49.7461H260.371V10H250.371H240.371V49.7461H250.371ZM250.371 10V20H257.117V10V0H250.371V10ZM223.516 35.3945V45.3945C230.813 45.3945 240.782 45.5392 249.859 44.5151L248.738 34.5781L247.617 24.6412C239.936 25.5077 231.344 25.3945 223.516 25.3945V35.3945ZM248.738 34.5781L238.784 35.5303L239.256 40.4717L249.211 39.5195L259.165 38.5674L258.693 33.6259L248.738 34.5781ZM249.211 39.5195L247.582 29.653C239.666 30.9596 231.737 31.0229 224.376 30.896L224.203 40.8945L224.031 50.893C231.623 51.0239 241.052 51.0014 250.839 49.386L249.211 39.5195ZM224.203 40.8945L234.126 39.6542L233.438 34.1542L223.516 35.3945L213.593 36.6349L214.28 42.1349L224.203 40.8945ZM248.094 25.3398H238.094V30.9687H248.094H258.094V25.3398H248.094ZM248.094 30.9687V20.9687H237.223V30.9687V40.9687H248.094V30.9687ZM237.223 30.9687H247.223V13.8672H237.223H227.223V30.9687H237.223ZM237.223 13.8672V23.8672H248.008V13.8672V3.86719H237.223V13.8672ZM248.008 13.8672H238.008V19.3672H248.008H258.008V13.8672H248.008ZM248.008 19.3672V9.36719H244.055V19.3672V29.3672H248.008V19.3672ZM244.055 19.3672H234.055V25.3398H244.055H254.055V19.3672H244.055ZM244.055 25.3398V35.3398H248.094V25.3398V15.3398H244.055V25.3398ZM235.332 13.8672H225.332V19.3672H235.332H245.332V13.8672H235.332ZM235.332 19.3672V9.36719H231.766V19.3672V29.3672H235.332V19.3672ZM231.766 19.3672H221.766V25.2539H231.766H241.766V19.3672H231.766ZM231.766 25.2539L232.442 35.231C234.087 35.1195 235.653 34.9244 237.327 34.6367L235.633 24.7812L233.939 14.9258C232.863 15.1107 231.979 15.2165 231.089 15.2768L231.766 25.2539ZM235.633 24.7812L225.676 25.7147L226.192 31.2147L236.148 30.2812L246.105 29.3478L245.589 23.8478L235.633 24.7812ZM236.148 30.2812L234.265 20.4602C232.085 20.8784 230.639 20.9267 227.049 20.9695L227.168 30.9687L227.287 40.968C230.916 40.9248 233.939 40.8873 238.032 40.1023L236.148 30.2812ZM227.168 30.9687V20.9687H225.02V30.9687V40.9687H227.168V30.9687ZM225.02 30.9687H235.02V13.8672H225.02H215.02V30.9687H225.02ZM225.02 13.8672V23.8672H235.332V13.8672V3.86719H225.02V13.8672ZM297.594 31.9141H307.594C307.594 26.3912 303.117 21.9141 297.594 21.9141V31.9141ZM297.594 37.457V47.457C303.117 47.457 307.594 42.9799 307.594 37.457H297.594ZM282.727 37.457V27.457C277.204 27.457 272.727 31.9342 272.727 37.457H282.727ZM282.727 49.832V59.832C288.249 59.832 292.727 55.3549 292.727 49.832H282.727ZM275.895 49.832H265.895C265.895 55.3549 270.372 59.832 275.895 59.832V49.832ZM275.895 37.457H285.895C285.895 31.9342 281.417 27.457 275.895 27.457V37.457ZM261.328 37.457H251.328C251.328 42.9799 255.805 47.457 261.328 47.457V37.457ZM261.328 31.9141V21.9141C255.805 21.9141 251.328 26.3912 251.328 31.9141H261.328ZM279.332 11.2031L279.282 21.203C279.315 21.2032 279.349 21.2032 279.382 21.203L279.332 11.2031ZM264.637 20.3984L274.636 20.4772C274.637 20.4255 274.637 20.3738 274.636 20.3221L264.637 20.3984ZM297.594 31.9141H287.594V37.457H297.594H307.594V31.9141H297.594ZM297.594 37.457V27.457H282.727V37.457V47.457H297.594V37.457ZM282.727 37.457H272.727V49.832H282.727H292.727V37.457H282.727ZM282.727 49.832V39.832H275.895V49.832V59.832H282.727V49.832ZM275.895 49.832H285.895V37.457H275.895H265.895V49.832H275.895ZM275.895 37.457V27.457H261.328V37.457V47.457H275.895V37.457ZM261.328 37.457H271.328V31.9141H261.328H251.328V37.457H261.328ZM261.328 31.9141V41.9141H297.594V31.9141V21.9141H261.328V31.9141ZM279.332 11.2031L279.382 21.203C282.458 21.1877 284.186 21.8516 284.779 22.2131C285.026 22.3638 284.854 22.3233 284.606 21.9305C284.321 21.4809 284.156 20.9105 284.156 20.3984H294.156H304.156C304.156 13.328 300.072 8.11132 295.187 5.13454C290.527 2.29487 284.842 1.17559 279.282 1.20325L279.332 11.2031ZM294.156 20.3984H284.156C284.156 19.7764 284.359 19.131 284.675 18.6458C284.949 18.2253 285.136 18.1829 284.869 18.3416C284.239 18.7167 282.457 19.3789 279.332 19.3789V29.3789V39.3789C284.844 39.3789 290.474 38.2794 295.097 35.5285C299.916 32.6608 304.156 27.5284 304.156 20.3984H294.156ZM279.332 29.3789V19.3789C276.204 19.3789 274.465 18.7154 273.882 18.3648C273.641 18.2201 273.847 18.2811 274.129 18.7221C274.451 19.2265 274.641 19.8749 274.636 20.4772L264.637 20.3984L254.637 20.3197C254.581 27.423 258.739 32.5968 263.577 35.5053C268.193 38.2807 273.824 39.3789 279.332 39.3789V29.3789ZM264.637 20.3984L274.636 20.3221C274.64 20.8148 274.487 21.3872 274.197 21.8546C273.941 22.2666 273.751 22.3257 273.972 22.1892C274.518 21.853 276.202 21.1877 279.282 21.203L279.332 11.2031L279.382 1.20325C273.825 1.1756 268.14 2.29349 263.487 5.15845C258.586 8.17594 254.583 13.4325 254.637 20.4748L264.637 20.3984ZM279.332 16.6602V6.66016C276.392 6.66016 272.745 6.98676 269.463 8.53972C267.715 9.36676 265.718 10.7101 264.149 12.8734C262.503 15.1436 261.727 17.7743 261.727 20.3984H271.727H281.727C281.727 21.755 281.305 23.2846 280.339 24.6162C279.451 25.841 278.461 26.4081 278.018 26.6175C277.588 26.8213 277.427 26.8085 277.738 26.7579C278.021 26.7119 278.537 26.6602 279.332 26.6602V16.6602ZM271.727 20.3984H261.727C261.727 26.7058 265.971 30.5126 269.586 32.1638C272.798 33.6311 276.371 33.9648 279.332 33.9648V23.9648V13.9648C278.539 13.9648 278.011 13.9134 277.71 13.8653C277.381 13.8128 277.504 13.793 277.896 13.9719C278.283 14.1487 279.269 14.6762 280.188 15.8782C281.206 17.2098 281.727 18.8349 281.727 20.3984H271.727ZM279.332 23.9648V33.9648C282.313 33.9648 285.908 33.6367 289.132 32.1638C292.808 30.4844 296.98 26.653 296.98 20.3984H286.98H276.98C276.98 18.8706 277.482 17.2525 278.501 15.9086C279.425 14.6914 280.423 14.1542 280.822 13.9719C281.222 13.789 281.349 13.8095 281.01 13.8632C280.7 13.9124 280.154 13.9648 279.332 13.9648V23.9648ZM286.98 20.3984H296.98C296.98 17.808 296.226 15.1845 294.585 12.9039C293.018 10.726 291.015 9.37271 289.255 8.53972C285.961 6.981 282.292 6.66016 279.332 6.66016V16.6602V26.6602C280.157 26.6602 280.69 26.7129 280.983 26.7601C281.303 26.8118 281.139 26.8255 280.699 26.6175C280.244 26.4022 279.243 25.825 278.351 24.5857C277.386 23.2437 276.98 21.7213 276.98 20.3984H286.98ZM331.711 20.0977L341.711 20.0977C341.711 14.5748 337.234 10.0977 331.711 10.0977V20.0977ZM331.711 25.4258V35.4258C337.234 35.4258 341.711 30.9486 341.711 25.4258L331.711 25.4258ZM303.609 25.4258H293.609C293.609 30.9486 298.087 35.4258 303.609 35.4258V25.4258ZM303.609 11.418V1.41797C298.087 1.41797 293.609 5.89512 293.609 11.418L303.609 11.418ZM310.484 11.418H320.484C320.484 5.89512 316.007 1.41797 310.484 1.41797V11.418ZM310.484 20.0977H300.484C300.484 25.6205 304.962 30.0977 310.484 30.0977V20.0977ZM335.621 28.9492H345.621C345.621 23.4264 341.144 18.9492 335.621 18.9492V28.9492ZM335.621 34.2773V44.2773C341.144 44.2773 345.621 39.8002 345.621 34.2773H335.621ZM299.355 34.2773H289.355C289.355 39.8002 293.833 44.2773 299.355 44.2773V34.2773ZM299.355 28.9492V18.9492C293.833 18.9492 289.355 23.4264 289.355 28.9492H299.355ZM331.969 43.4727H341.969C341.969 37.9498 337.492 33.4727 331.969 33.4727V43.4727ZM331.969 48.9727V58.9727C337.492 58.9727 341.969 54.4955 341.969 48.9727H331.969ZM303.137 48.9727H293.137C293.137 54.4955 297.614 58.9727 303.137 58.9727V48.9727ZM303.137 37.0273V27.0273C297.614 27.0273 293.137 31.5045 293.137 37.0273H303.137ZM310.098 37.0273H320.098C320.098 31.5045 315.621 27.0273 310.098 27.0273V37.0273ZM310.098 43.4727H300.098C300.098 48.9955 304.575 53.4727 310.098 53.4727V43.4727ZM331.711 20.0977H321.711V25.4258H331.711L341.711 25.4258V20.0977L331.711 20.0977ZM331.711 25.4258V15.4258H303.609V25.4258V35.4258H331.711V25.4258ZM303.609 25.4258H313.609V11.418H303.609L293.609 11.418V25.4258H303.609ZM303.609 11.418V21.418H310.484V11.418V1.41797H303.609V11.418ZM310.484 11.418L300.484 11.418V20.0977H310.484H320.484V11.418H310.484ZM310.484 20.0977V30.0977H331.711V20.0977V10.0977H310.484V20.0977ZM335.621 28.9492H325.621V34.2773H335.621H345.621V28.9492H335.621ZM335.621 34.2773V24.2773L299.355 24.2773V34.2773V44.2773H335.621V34.2773ZM299.355 34.2773H309.355V28.9492H299.355H289.355V34.2773H299.355ZM299.355 28.9492V38.9492H335.621V28.9492V18.9492L299.355 18.9492V28.9492ZM331.969 43.4727H321.969V48.9727H331.969H341.969V43.4727H331.969ZM331.969 48.9727V38.9727H303.137V48.9727V58.9727H331.969V48.9727ZM303.137 48.9727H313.137V37.0273H303.137H293.137V48.9727H303.137ZM303.137 37.0273V47.0273H310.098V37.0273V27.0273H303.137V37.0273ZM310.098 37.0273H300.098V43.4727H310.098H320.098V37.0273H310.098ZM310.098 43.4727V53.4727H331.969V43.4727V33.4727H310.098V43.4727Z" fill="white" mask="url(#path-1-outside-1_3990_1412)"/>
</g>
<defs>
<filter id="filter0_d_3990_1412" x="0" y="0" width="349.621" height="67.832" filterUnits="userSpaceOnUse" color-interpolation-filters="sRGB">
<feFlood flood-opacity="0" result="BackgroundImageFix"/>
<feColorMatrix in="SourceAlpha" type="matrix" values="0 0 0 0 0 0 0 0 0 0 0 0 0 0 0 0 0 0 127 0" result="hardAlpha"/>
<feOffset dy="4"/>
<feGaussianBlur stdDeviation="2"/>
<feComposite in2="hardAlpha" operator="out"/>
<feColorMatrix type="matrix" values="0 0 0 0 0 0 0 0 0 0 0 0 0 0 0 0 0 0 0.07 0"/>
<feBlend mode="normal" in2="BackgroundImageFix" result="effect1_dropShadow_3990_1412"/>
<feBlend mode="normal" in="SourceGraphic" in2="effect1_dropShadow_3990_1412" result="shape"/>
</filter>
</defs>
</svg>
