<svg width="254" height="69" viewBox="0 0 254 69" fill="none" xmlns="http://www.w3.org/2000/svg">
<g filter="url(#filter0_d_3990_1509)">
<mask id="path-1-outside-1_3990_1509" maskUnits="userSpaceOnUse" x="3.95709" y="-0.25" width="246" height="61" fill="black">
<rect fill="white" x="3.95709" y="-0.25" width="246" height="61"/>
<path d="M30.1133 16.4453C30.0704 20.8711 32.0469 25.2969 38.7071 27.1875L35.0547 32.5156C31.0372 31.2695 28.3301 28.9062 26.6758 25.8984C24.9571 29.4648 22.0782 32.2578 17.6954 33.6328L14.0001 28.2617C21.0469 26.0273 23.1094 20.7852 23.1524 15.7148V12.4492H30.1133V16.4453ZM46.6563 10.2578V18.8945H51.5977V24.5664H46.6563V33.4609H39.7383V10.2578L46.6563 10.2578ZM33.4649 34.1484C41.7149 34.1055 47.043 37.1133 47.043 42.0977C47.043 47.168 41.7149 50.0898 33.4649 50.0898C24.9571 50.0898 19.543 47.168 19.586 42.0977C19.543 37.1133 24.9571 34.1055 33.4649 34.1484ZM33.4649 39.4766C28.7813 39.4766 26.461 40.293 26.461 42.0977C26.461 43.9883 28.7813 44.7188 33.4649 44.7188C38.0626 44.7188 40.211 43.9883 40.211 42.0977C40.211 40.293 38.0626 39.4766 33.4649 39.4766ZM85.1133 10.3437V21.1719H89.668V26.7578H85.1133V37.0703H78.2383V10.3437H85.1133ZM71.3633 37.2852C80.1719 37.2852 85.1993 39.6055 85.1993 43.7305C85.1993 47.8984 80.1719 50.1328 71.3633 50.1328C62.4688 50.1328 57.4844 47.8984 57.4844 43.7305C57.4844 39.6055 62.4688 37.2852 71.3633 37.2852ZM71.3633 42.2266C66.2501 42.2266 64.3594 42.6133 64.4024 43.7305C64.3594 44.8047 66.2501 45.1914 71.3633 45.1484C76.3907 45.1914 78.2813 44.8047 78.2813 43.7305C78.2813 42.6133 76.3907 42.2266 71.3633 42.2266ZM52.2852 31.3555C55.0137 31.334 58.043 31.334 61.2227 31.2695V29.4648C57.0977 28.7773 54.6055 26.7793 54.6055 23.9648C54.6055 20.4414 58.5157 18.25 64.6172 18.25C70.6758 18.25 74.586 20.4414 74.586 23.9648C74.586 26.7578 72.1368 28.7344 68.0977 29.4219V31.0117C71.0411 30.8613 73.9844 30.6465 76.7774 30.2812L77.2501 34.9219C68.8712 36.3398 59.9766 36.4258 52.9727 36.4258L52.2852 31.3555ZM75.918 12.75V17.7344H53.3594V12.75H61.2227V10H68.0977V12.75H75.918ZM64.6172 22.6328C62.3399 22.6758 61.1797 23.0625 61.1797 23.9648C61.1797 24.9531 62.3399 25.2969 64.6172 25.2969C66.8516 25.2969 67.9688 24.9531 68.0118 23.9648C67.9688 23.0625 66.8516 22.6758 64.6172 22.6328ZM103.676 12.793C110.035 12.75 114.891 17.0039 114.891 22.8047C114.891 28.6484 110.035 32.8594 103.676 32.8164C97.4454 32.8594 92.461 28.6484 92.461 22.8047C92.461 17.0039 97.4454 12.75 103.676 12.793ZM103.676 18.7227C101.27 18.7227 99.336 20.0977 99.336 22.8047C99.336 25.5977 101.27 26.8867 103.676 26.8867C106.211 26.8867 108.188 25.5977 108.188 22.8047C108.188 20.0977 106.211 18.7227 103.676 18.7227ZM124.773 10.2578V50.1328H117.941V10.2578H124.773ZM91.043 36.8984C97.961 36.8984 107.629 36.7695 115.922 35.6523L116.438 40.5938C107.844 42.3125 98.6055 42.3984 91.8165 42.3984L91.043 36.8984ZM161.898 11.8047V17.2187H152.102C152.961 19.7109 156.076 22.418 163.918 23.1484L161.426 28.6055C153.541 27.8105 149.029 24.8457 146.988 21.043C144.947 24.8242 140.479 27.8105 132.637 28.6055L130.188 23.1484C138.008 22.418 141.08 19.6895 141.961 17.2187H132.25V11.8047H161.898ZM160.996 43.9453V49.4453L133.109 49.4453V37.9297H140.027V43.9453L160.996 43.9453ZM165.121 30.5391V36.0391L128.941 36.0391V30.5391L143.551 30.5391V25.7266H150.426V30.5391H165.121ZM190 12.1914V17.6055H182.781C183.125 21.623 185.424 25.748 191.418 27.7031L188.109 32.9883C183.834 31.7207 180.998 29.1641 179.301 25.9414C177.539 29.5078 174.574 32.3652 170.02 33.7187L166.496 28.3047C172.898 26.3926 175.24 21.8379 175.648 17.6055H168.387V12.1914L190 12.1914ZM200.785 35.3945V50.0039H193.91V40.8516H173.156V35.3945H200.785ZM200.785 10.2578V33.8906H193.91V24.8672H188.969V19.2812H193.91V10.2578H200.785ZM238.512 10.3437V38.5742H231.594V10.3437L238.512 10.3437ZM239.457 43.9453V49.4453H211.313V35.7383H218.273V43.9453H239.457ZM216.555 12.707C222.742 12.707 227.684 17.0039 227.684 22.8906C227.684 28.9062 222.742 33.1602 216.555 33.1602C210.367 33.1602 205.383 28.9062 205.426 22.8906C205.383 17.0039 210.367 12.707 216.555 12.707ZM216.555 18.6797C214.02 18.6797 212.129 20.0977 212.129 22.8906C212.129 25.8125 214.02 27.1875 216.555 27.1875C218.961 27.1875 220.852 25.8125 220.852 22.8906C220.852 20.0977 218.961 18.6797 216.555 18.6797Z"/>
</mask>
<path d="M30.1133 16.4453C30.0704 20.8711 32.0469 25.2969 38.7071 27.1875L35.0547 32.5156C31.0372 31.2695 28.3301 28.9062 26.6758 25.8984C24.9571 29.4648 22.0782 32.2578 17.6954 33.6328L14.0001 28.2617C21.0469 26.0273 23.1094 20.7852 23.1524 15.7148V12.4492H30.1133V16.4453ZM46.6563 10.2578V18.8945H51.5977V24.5664H46.6563V33.4609H39.7383V10.2578L46.6563 10.2578ZM33.4649 34.1484C41.7149 34.1055 47.043 37.1133 47.043 42.0977C47.043 47.168 41.7149 50.0898 33.4649 50.0898C24.9571 50.0898 19.543 47.168 19.586 42.0977C19.543 37.1133 24.9571 34.1055 33.4649 34.1484ZM33.4649 39.4766C28.7813 39.4766 26.461 40.293 26.461 42.0977C26.461 43.9883 28.7813 44.7188 33.4649 44.7188C38.0626 44.7188 40.211 43.9883 40.211 42.0977C40.211 40.293 38.0626 39.4766 33.4649 39.4766ZM85.1133 10.3437V21.1719H89.668V26.7578H85.1133V37.0703H78.2383V10.3437H85.1133ZM71.3633 37.2852C80.1719 37.2852 85.1993 39.6055 85.1993 43.7305C85.1993 47.8984 80.1719 50.1328 71.3633 50.1328C62.4688 50.1328 57.4844 47.8984 57.4844 43.7305C57.4844 39.6055 62.4688 37.2852 71.3633 37.2852ZM71.3633 42.2266C66.2501 42.2266 64.3594 42.6133 64.4024 43.7305C64.3594 44.8047 66.2501 45.1914 71.3633 45.1484C76.3907 45.1914 78.2813 44.8047 78.2813 43.7305C78.2813 42.6133 76.3907 42.2266 71.3633 42.2266ZM52.2852 31.3555C55.0137 31.334 58.043 31.334 61.2227 31.2695V29.4648C57.0977 28.7773 54.6055 26.7793 54.6055 23.9648C54.6055 20.4414 58.5157 18.25 64.6172 18.25C70.6758 18.25 74.586 20.4414 74.586 23.9648C74.586 26.7578 72.1368 28.7344 68.0977 29.4219V31.0117C71.0411 30.8613 73.9844 30.6465 76.7774 30.2812L77.2501 34.9219C68.8712 36.3398 59.9766 36.4258 52.9727 36.4258L52.2852 31.3555ZM75.918 12.75V17.7344H53.3594V12.75H61.2227V10H68.0977V12.75H75.918ZM64.6172 22.6328C62.3399 22.6758 61.1797 23.0625 61.1797 23.9648C61.1797 24.9531 62.3399 25.2969 64.6172 25.2969C66.8516 25.2969 67.9688 24.9531 68.0118 23.9648C67.9688 23.0625 66.8516 22.6758 64.6172 22.6328ZM103.676 12.793C110.035 12.75 114.891 17.0039 114.891 22.8047C114.891 28.6484 110.035 32.8594 103.676 32.8164C97.4454 32.8594 92.461 28.6484 92.461 22.8047C92.461 17.0039 97.4454 12.75 103.676 12.793ZM103.676 18.7227C101.27 18.7227 99.336 20.0977 99.336 22.8047C99.336 25.5977 101.27 26.8867 103.676 26.8867C106.211 26.8867 108.188 25.5977 108.188 22.8047C108.188 20.0977 106.211 18.7227 103.676 18.7227ZM124.773 10.2578V50.1328H117.941V10.2578H124.773ZM91.043 36.8984C97.961 36.8984 107.629 36.7695 115.922 35.6523L116.438 40.5938C107.844 42.3125 98.6055 42.3984 91.8165 42.3984L91.043 36.8984ZM161.898 11.8047V17.2187H152.102C152.961 19.7109 156.076 22.418 163.918 23.1484L161.426 28.6055C153.541 27.8105 149.029 24.8457 146.988 21.043C144.947 24.8242 140.479 27.8105 132.637 28.6055L130.188 23.1484C138.008 22.418 141.08 19.6895 141.961 17.2187H132.25V11.8047H161.898ZM160.996 43.9453V49.4453L133.109 49.4453V37.9297H140.027V43.9453L160.996 43.9453ZM165.121 30.5391V36.0391L128.941 36.0391V30.5391L143.551 30.5391V25.7266H150.426V30.5391H165.121ZM190 12.1914V17.6055H182.781C183.125 21.623 185.424 25.748 191.418 27.7031L188.109 32.9883C183.834 31.7207 180.998 29.1641 179.301 25.9414C177.539 29.5078 174.574 32.3652 170.02 33.7187L166.496 28.3047C172.898 26.3926 175.24 21.8379 175.648 17.6055H168.387V12.1914L190 12.1914ZM200.785 35.3945V50.0039H193.91V40.8516H173.156V35.3945H200.785ZM200.785 10.2578V33.8906H193.91V24.8672H188.969V19.2812H193.91V10.2578H200.785ZM238.512 10.3437V38.5742H231.594V10.3437L238.512 10.3437ZM239.457 43.9453V49.4453H211.313V35.7383H218.273V43.9453H239.457ZM216.555 12.707C222.742 12.707 227.684 17.0039 227.684 22.8906C227.684 28.9062 222.742 33.1602 216.555 33.1602C210.367 33.1602 205.383 28.9062 205.426 22.8906C205.383 17.0039 210.367 12.707 216.555 12.707ZM216.555 18.6797C214.02 18.6797 212.129 20.0977 212.129 22.8906C212.129 25.8125 214.02 27.1875 216.555 27.1875C218.961 27.1875 220.852 25.8125 220.852 22.8906C220.852 20.0977 218.961 18.6797 216.555 18.6797Z" fill="#11DCA9"/>
<path d="M30.1133 16.4453L40.1129 16.5424C40.1132 16.51 40.1133 16.4777 40.1133 16.4453H30.1133ZM38.7071 27.1875L46.9553 32.8415C48.7753 30.1864 49.2059 26.8176 48.1123 23.7901C47.0187 20.7626 44.5345 18.4466 41.4379 17.5676L38.7071 27.1875ZM35.0547 32.5156L32.0924 42.0668C36.2795 43.3654 40.8243 41.7855 43.3029 38.1696L35.0547 32.5156ZM26.6758 25.8984L35.438 21.0793C33.634 17.7992 30.1491 15.8014 26.4071 15.9021C22.665 16.0027 19.2926 18.1848 17.6674 21.557L26.6758 25.8984ZM17.6954 33.6328L9.45688 39.3009C11.9449 42.9173 16.5005 44.4883 20.6888 43.1743L17.6954 33.6328ZM14.0001 28.2617L10.9776 18.7294C7.95748 19.687 5.56982 22.0192 4.54146 25.016C3.5131 28.0128 3.96573 31.3196 5.76157 33.9298L14.0001 28.2617ZM23.1524 15.7148L33.152 15.7996C33.1523 15.7713 33.1524 15.7431 33.1524 15.7148H23.1524ZM23.1524 12.4492V2.44922C17.6296 2.44922 13.1524 6.92637 13.1524 12.4492H23.1524ZM30.1133 12.4492H40.1133C40.1133 6.92637 35.6362 2.44922 30.1133 2.44922V12.4492ZM46.6563 10.2578H56.6563C56.6563 4.73496 52.1792 0.257812 46.6563 0.257812V10.2578ZM46.6563 18.8945H36.6563C36.6563 24.4174 41.1335 28.8945 46.6563 28.8945V18.8945ZM51.5977 18.8945H61.5977C61.5977 13.3717 57.1206 8.89453 51.5977 8.89453V18.8945ZM51.5977 24.5664V34.5664C57.1206 34.5664 61.5977 30.0893 61.5977 24.5664H51.5977ZM46.6563 24.5664V14.5664C41.1335 14.5664 36.6563 19.0436 36.6563 24.5664H46.6563ZM46.6563 33.4609V43.4609C52.1792 43.4609 56.6563 38.9838 56.6563 33.4609H46.6563ZM39.7383 33.4609H29.7383C29.7383 38.9838 34.2155 43.4609 39.7383 43.4609V33.4609ZM39.7383 10.2578V0.257812C34.2155 0.257812 29.7383 4.73496 29.7383 10.2578H39.7383ZM33.4649 34.1484L33.4144 44.1483C33.4486 44.1485 33.4828 44.1485 33.517 44.1483L33.4649 34.1484ZM19.586 42.0977L29.5856 42.1824C29.5861 42.1254 29.5861 42.0684 29.5856 42.0115L19.586 42.0977ZM30.1133 16.4453L20.1138 16.3482C20.0779 20.0459 20.8839 24.4547 23.6922 28.4845C26.5646 32.6062 30.8496 35.3521 35.9763 36.8074L38.7071 27.1875L41.4379 17.5676C40.633 17.3391 40.2433 17.1122 40.1082 17.0217C39.9895 16.9424 40.027 16.9436 40.1009 17.0496C40.2666 17.2875 40.1058 17.2705 40.1129 16.5424L30.1133 16.4453ZM38.7071 27.1875L30.4589 21.5335L26.8066 26.8616L35.0547 32.5156L43.3029 38.1696L46.9553 32.8415L38.7071 27.1875ZM35.0547 32.5156L38.0171 22.9645C37.1295 22.6892 36.5992 22.3611 36.2736 22.0973C35.9493 21.8346 35.6768 21.5135 35.438 21.0793L26.6758 25.8984L17.9137 30.7176C20.8399 36.038 25.6501 40.0686 32.0924 42.0668L35.0547 32.5156ZM26.6758 25.8984L17.6674 21.557C17.0648 22.8074 16.2682 23.6 14.702 24.0913L17.6954 33.6328L20.6888 43.1743C27.8882 40.9156 32.8494 36.1223 35.6843 30.2399L26.6758 25.8984ZM17.6954 33.6328L25.9339 27.9647L22.2386 22.5936L14.0001 28.2617L5.76157 33.9298L9.45688 39.3009L17.6954 33.6328ZM14.0001 28.2617L17.0225 37.794C22.5723 36.0343 26.8802 32.7972 29.662 28.3848C32.3347 24.1453 33.1199 19.588 33.152 15.7996L23.1524 15.7148L13.1528 15.6301C13.1419 16.912 12.8744 17.511 12.7434 17.7187C12.6864 17.8092 12.6009 17.9193 12.4137 18.0591C12.2166 18.2063 11.7907 18.4716 10.9776 18.7294L14.0001 28.2617ZM23.1524 15.7148H33.1524V12.4492H23.1524H13.1524V15.7148H23.1524ZM23.1524 12.4492V22.4492H30.1133V12.4492V2.44922L23.1524 2.44922V12.4492ZM30.1133 12.4492H20.1133V16.4453H30.1133H40.1133V12.4492H30.1133ZM46.6563 10.2578L36.6563 10.2578V18.8945H46.6563H56.6563V10.2578H46.6563ZM46.6563 18.8945V28.8945H51.5977V18.8945V8.89453H46.6563V18.8945ZM51.5977 18.8945H41.5977V24.5664H51.5977H61.5977V18.8945H51.5977ZM51.5977 24.5664V14.5664H46.6563V24.5664V34.5664H51.5977V24.5664ZM46.6563 24.5664H36.6563V33.4609H46.6563H56.6563V24.5664H46.6563ZM46.6563 33.4609V23.4609H39.7383V33.4609V43.4609H46.6563V33.4609ZM39.7383 33.4609H49.7383V10.2578L39.7383 10.2578H29.7383V33.4609H39.7383ZM39.7383 10.2578V20.2578H46.6563V10.2578V0.257812H39.7383V10.2578ZM33.4649 34.1484L33.517 44.1483C34.9833 44.1407 36.1347 44.271 36.9819 44.4517C37.8442 44.6355 38.2477 44.8401 38.3335 44.8898C38.405 44.9312 38.0434 44.7383 37.6581 44.136C37.2354 43.4753 37.043 42.721 37.043 42.0977H47.043H57.043C57.043 35.3539 53.1691 30.3717 48.362 27.5858C43.9176 25.0101 38.5627 24.1217 33.4128 24.1486L33.4649 34.1484ZM47.043 42.0977H37.043C37.043 41.5276 37.2185 40.7866 37.6464 40.1145C38.0377 39.5 38.4116 39.298 38.3482 39.3346C38.2671 39.3814 37.8627 39.5864 36.9857 39.7731C36.1245 39.9563 34.9553 40.0898 33.4649 40.0898V50.0898V60.0898C38.5561 60.0898 43.9017 59.2219 48.3472 56.6557C53.205 53.8514 57.043 48.8481 57.043 42.0977H47.043ZM33.4649 50.0898V40.0898C31.8917 40.0898 30.6518 39.9532 29.7312 39.7623C28.7931 39.5678 28.3481 39.3509 28.2427 39.2913C28.1536 39.2409 28.5411 39.4391 28.9518 40.0779C29.4045 40.7821 29.5908 41.5688 29.5856 42.1824L19.586 42.0977L9.58636 42.0129C9.52809 48.8886 13.4868 53.9223 18.3951 56.6989C22.8802 59.2361 28.2889 60.0898 33.4649 60.0898V50.0898ZM19.586 42.0977L29.5856 42.0115C29.5914 42.6796 29.3874 43.48 28.9401 44.1726C28.5354 44.7991 28.1603 44.9884 28.2573 44.9333C28.3672 44.8709 28.8113 44.6543 29.7349 44.4624C30.6418 44.274 31.8645 44.1405 33.4144 44.1483L33.4649 34.1484L33.5154 24.1486C28.2824 24.1221 22.8649 24.9955 18.3805 27.5423C13.524 30.3004 9.52714 35.3133 9.58637 42.1839L19.586 42.0977ZM33.4649 39.4766V29.4766C30.8487 29.4766 27.6343 29.6634 24.7475 30.7277C23.2244 31.2892 21.144 32.327 19.3899 34.3201C17.4499 36.5244 16.461 39.2794 16.461 42.0977H26.461H36.461C36.461 44.0136 35.7621 45.9897 34.4036 47.5334C33.2308 48.8659 32.0232 49.3612 31.6657 49.493C31.2713 49.6384 31.1724 49.6106 31.5816 49.5616C31.9534 49.5172 32.5612 49.4766 33.4649 49.4766V39.4766ZM26.461 42.0977H16.461C16.461 44.8211 17.375 47.5944 19.3503 49.8662C21.1403 51.9249 23.2787 52.9723 24.824 53.5277C27.7161 54.5673 30.9417 54.7188 33.4649 54.7188V44.7188V34.7188C32.528 34.7188 31.8983 34.6809 31.5065 34.6371C31.0736 34.5886 31.1795 34.5594 31.5892 34.7067C31.969 34.8432 33.2345 35.3534 34.4431 36.7434C35.837 38.3465 36.461 40.3196 36.461 42.0977H26.461ZM33.4649 44.7188V54.7188C35.9291 54.7188 39.1718 54.5738 42.0882 53.4749C43.6767 52.8763 45.8058 51.7629 47.5465 49.633C49.432 47.3259 50.211 44.6236 50.211 42.0977H40.211H30.211C30.211 40.517 30.7215 38.615 32.0604 36.9767C33.2546 35.5154 34.5593 34.9391 35.036 34.7595C35.5187 34.5776 35.697 34.5965 35.3103 34.6412C34.9661 34.681 34.3777 34.7188 33.4649 34.7188V44.7188ZM40.211 42.0977H50.211C50.211 39.4828 49.3661 36.7979 47.5087 34.5527C45.8017 32.4892 43.7304 31.3869 42.167 30.7827C39.2559 29.6577 36.0254 29.4766 33.4649 29.4766V39.4766V49.4766C34.3438 49.4766 34.9096 49.517 35.2328 49.5569C35.5945 49.6016 35.4237 49.6183 34.9572 49.438C34.5056 49.2635 33.2587 48.7037 32.0982 47.3008C30.7874 45.7162 30.211 43.8102 30.211 42.0977H40.211ZM85.1133 10.3437H95.1133C95.1133 4.8209 90.6362 0.34375 85.1133 0.34375V10.3437ZM85.1133 21.1719L75.1133 21.1719C75.1133 26.6947 79.5905 31.1719 85.1133 31.1719V21.1719ZM89.668 21.1719H99.668C99.668 15.649 95.1909 11.1719 89.668 11.1719V21.1719ZM89.668 26.7578V36.7578C95.1909 36.7578 99.668 32.2807 99.668 26.7578H89.668ZM85.1133 26.7578V16.7578C79.5905 16.7578 75.1133 21.235 75.1133 26.7578L85.1133 26.7578ZM85.1133 37.0703V47.0703C90.6362 47.0703 95.1133 42.5932 95.1133 37.0703H85.1133ZM78.2383 37.0703H68.2383C68.2383 42.5932 72.7155 47.0703 78.2383 47.0703V37.0703ZM78.2383 10.3437V0.34375C72.7155 0.34375 68.2383 4.8209 68.2383 10.3437H78.2383ZM64.4024 43.7305L74.3944 44.1301C74.4049 43.8689 74.4051 43.6074 74.395 43.3461L64.4024 43.7305ZM71.3633 45.1484L71.4488 35.1488C71.3923 35.1483 71.3358 35.1483 71.2793 35.1488L71.3633 45.1484ZM52.2852 31.3555L52.2065 21.3558C49.3338 21.3784 46.6096 22.6353 44.7282 24.8063C42.8468 26.9772 41.9899 29.8524 42.3759 32.6991L52.2852 31.3555ZM61.2227 31.2695L61.4254 41.2675C66.8681 41.1572 71.2227 36.7134 71.2227 31.2695H61.2227ZM61.2227 29.4648H71.2227C71.2227 24.5765 67.6886 20.4046 62.8667 19.6009L61.2227 29.4648ZM68.0977 29.4219L66.4197 19.5637C61.6135 20.3817 58.0977 24.5465 58.0977 29.4219H68.0977ZM68.0977 31.0117H58.0977C58.0977 33.7524 59.2226 36.3731 61.2094 38.261C63.1962 40.1488 65.8708 41.1385 68.608 40.9987L68.0977 31.0117ZM76.7774 30.2812L86.7259 29.268C86.4522 26.5802 85.1026 24.1176 82.9844 22.4407C80.8662 20.7639 78.1596 20.0154 75.4808 20.3657L76.7774 30.2812ZM77.2501 34.9219L78.9186 44.7817C84.1111 43.903 87.7322 39.1478 87.1986 33.9086L77.2501 34.9219ZM52.9727 36.4258L43.0634 37.7694C43.7357 42.7276 47.9691 46.4258 52.9727 46.4258V36.4258ZM75.918 12.75H85.918C85.918 7.22715 81.4409 2.75 75.918 2.75V12.75ZM75.918 17.7344V27.7344C81.4409 27.7344 85.918 23.2572 85.918 17.7344L75.918 17.7344ZM53.3594 17.7344H43.3594C43.3594 23.2572 47.8366 27.7344 53.3594 27.7344V17.7344ZM53.3594 12.75V2.75C47.8366 2.75 43.3594 7.22715 43.3594 12.75L53.3594 12.75ZM61.2227 12.75V22.75C66.7456 22.75 71.2227 18.2728 71.2227 12.75H61.2227ZM61.2227 10V0C55.6999 0 51.2227 4.47715 51.2227 10H61.2227ZM68.0977 10H78.0977C78.0977 4.47715 73.6206 0 68.0977 0V10ZM68.0977 12.75H58.0977C58.0977 18.2728 62.5749 22.75 68.0977 22.75V12.75ZM64.6172 22.6328L64.8095 12.6347C64.6826 12.6322 64.5556 12.6322 64.4286 12.6346L64.6172 22.6328ZM68.0118 23.9648L78.0023 24.3992C78.0155 24.096 78.0149 23.7923 78.0005 23.4892L68.0118 23.9648ZM85.1133 10.3437H75.1133V21.1719L85.1133 21.1719H95.1133V10.3437H85.1133ZM85.1133 21.1719V31.1719H89.668V21.1719V11.1719H85.1133V21.1719ZM89.668 21.1719H79.668V26.7578H89.668H99.668V21.1719H89.668ZM89.668 26.7578V16.7578H85.1133V26.7578V36.7578H89.668V26.7578ZM85.1133 26.7578L75.1133 26.7578V37.0703H85.1133H95.1133V26.7578H85.1133ZM85.1133 37.0703V27.0703H78.2383V37.0703V47.0703H85.1133V37.0703ZM78.2383 37.0703H88.2383V10.3437H78.2383H68.2383V37.0703H78.2383ZM78.2383 10.3437V20.3437H85.1133V10.3437V0.34375H78.2383V10.3437ZM71.3633 37.2852V47.2852C73.1462 47.2852 74.5534 47.404 75.6143 47.5789C76.7013 47.7582 77.2306 47.9646 77.3704 48.0296C77.5172 48.0978 76.9581 47.877 76.3278 47.0514C75.6017 46.1004 75.1993 44.8853 75.1993 43.7305H85.1993H95.1993C95.1993 36.535 90.3999 32.0304 85.7987 29.8923C81.5332 27.9101 76.3951 27.2852 71.3633 27.2852V37.2852ZM85.1993 43.7305H75.1993C75.1993 42.6073 75.5894 41.3856 76.3352 40.4112C76.9824 39.5656 77.5629 39.3376 77.4216 39.4023C77.2857 39.4646 76.7554 39.6685 75.6558 39.8451C74.5836 40.0172 73.1633 40.1328 71.3633 40.1328V50.1328V60.1328C76.3517 60.1328 81.4829 59.5395 85.7475 57.5869C90.3972 55.458 95.1993 50.9487 95.1993 43.7305H85.1993ZM71.3633 50.1328V40.1328C69.5374 40.1328 68.1017 40.0167 67.0206 39.8439C65.9119 39.6667 65.3825 39.4624 65.2514 39.4023C65.1168 39.3407 65.7052 39.574 66.3561 40.4282C67.104 41.4097 67.4844 42.6274 67.4844 43.7305H57.4844H47.4844C47.4844 50.9193 52.2412 55.4422 56.9255 57.5869C61.1968 59.5426 66.3446 60.1328 71.3633 60.1328V50.1328ZM57.4844 43.7305H67.4844C67.4844 44.8651 67.0918 46.0763 66.3635 47.0345C65.7295 47.8685 65.1625 48.0947 65.3026 48.0296C65.4376 47.9669 65.966 47.76 67.062 47.5801C68.1317 47.4046 69.5544 47.2852 71.3633 47.2852V37.2852V27.2852C66.3014 27.2852 61.1468 27.9069 56.8743 29.8923C52.2386 32.0464 47.4844 36.5642 47.4844 43.7305H57.4844ZM71.3633 42.2266V32.2266C68.8423 32.2266 66.12 32.2975 63.8605 32.7802C62.7978 33.0071 60.668 33.5484 58.6517 35.1011C56.047 37.1068 54.2646 40.3411 54.4098 44.1148L64.4024 43.7305L74.395 43.3461C74.4463 44.6808 74.2054 46.2227 73.4594 47.7452C72.7273 49.2393 71.7237 50.2776 70.8541 50.9473C70.0235 51.5869 69.2787 51.9218 68.8619 52.0839C68.4312 52.2513 68.127 52.32 68.0381 52.339C67.9914 52.3489 68.7711 52.2266 71.3633 52.2266V42.2266ZM64.4024 43.7305L54.4104 43.3308C54.2533 47.2587 56.186 50.5033 58.7873 52.4369C60.7986 53.932 62.9042 54.4433 63.9515 54.6568C66.1994 55.1151 68.9036 55.1695 71.4474 55.1481L71.3633 45.1484L71.2793 35.1488C68.7098 35.1704 67.9121 35.0528 67.947 35.06C68.0297 35.0768 68.3241 35.1401 68.7447 35.2976C69.1493 35.4491 69.8872 35.7677 70.7185 36.3856C71.5858 37.0303 72.6249 38.0569 73.3945 39.5714C74.1843 41.1258 74.4506 42.7244 74.3944 44.1301L64.4024 43.7305ZM71.3633 45.1484L71.2779 55.1481C73.7881 55.1695 76.4702 55.1147 78.7147 54.6549C79.776 54.4375 81.8274 53.93 83.8017 52.4894C86.3001 50.6664 88.2813 47.5888 88.2813 43.7305H78.2813H68.2813C68.2813 42.3322 68.6067 40.7949 69.4021 39.3299C70.1754 37.9057 71.1791 36.9416 72.013 36.3331C72.8154 35.7476 73.5242 35.4421 73.9202 35.2942C74.33 35.1412 74.6171 35.079 74.7005 35.0619C74.7428 35.0532 73.9659 35.1703 71.4488 35.1488L71.3633 45.1484ZM78.2813 43.7305H88.2813C88.2813 40.017 86.4443 36.9417 83.9375 35.0468C81.9574 33.5501 79.8822 33.0132 78.8061 32.7822C76.5504 32.2981 73.8505 32.2266 71.3633 32.2266V42.2266V52.2266C73.9035 52.2266 74.6627 52.3484 74.609 52.3369C74.5195 52.3177 74.2229 52.2502 73.8032 52.0875C73.3955 51.9294 72.6797 51.608 71.8772 51.0015C71.0405 50.369 70.0686 49.3921 69.3311 47.9835C68.5775 46.5443 68.2813 45.0586 68.2813 43.7305H78.2813ZM52.2852 31.3555L52.364 41.3552C54.9909 41.3345 58.1636 41.3336 61.4254 41.2675L61.2227 31.2695L61.0201 21.2716C57.9225 21.3344 55.0366 21.3335 52.2065 21.3558L52.2852 31.3555ZM61.2227 31.2695H71.2227V29.4648H61.2227H51.2227V31.2695H61.2227ZM61.2227 29.4648L62.8667 19.6009C61.8909 19.4383 62.0777 19.2609 62.7224 19.7916C63.0888 20.0932 63.5919 20.6225 63.9966 21.4286C64.4128 22.2578 64.6055 23.1455 64.6055 23.9648H54.6055H44.6055C44.6055 28.7083 46.8478 32.6288 50.0121 35.2333C52.9342 37.6385 56.4295 38.8039 59.5787 39.3288L61.2227 29.4648ZM54.6055 23.9648H64.6055C64.6055 25.032 64.2807 26.1489 63.6617 27.0881C63.0876 27.9593 62.4743 28.3609 62.2616 28.4817C62.0575 28.5976 62.1085 28.5245 62.5595 28.4286C62.9943 28.3361 63.674 28.25 64.6172 28.25V18.25V8.25C60.5676 8.25 56.1601 8.94665 52.3851 11.0905C48.296 13.4127 44.6055 17.7897 44.6055 23.9648H54.6055ZM64.6172 18.25V28.25C65.5454 28.25 66.2138 28.3353 66.6403 28.4265C67.0828 28.5211 67.1296 28.5924 66.9238 28.4752C66.7096 28.3532 66.0984 27.9512 65.5268 27.0825C64.9106 26.1461 64.586 25.0317 64.586 23.9648H74.586L84.586 23.9648C84.586 17.7949 80.9014 13.4202 76.8234 11.0971C73.0544 8.95007 68.6556 8.25 64.6172 8.25V18.25ZM74.586 23.9648H64.586C64.586 23.1559 64.7743 22.2751 65.1857 21.4474C65.5864 20.6415 66.0879 20.1057 66.4619 19.7946C67.1236 19.2443 67.3448 19.4062 66.4197 19.5637L68.0977 29.4219L69.7757 39.2801C72.8897 38.75 76.355 37.5799 79.2511 35.1712C82.3874 32.5626 84.586 28.6609 84.586 23.9648L74.586 23.9648ZM68.0977 29.4219H58.0977V31.0117H68.0977H78.0977V29.4219H68.0977ZM68.0977 31.0117L68.608 40.9987C71.6743 40.842 74.9105 40.6105 78.0741 40.1968L76.7774 30.2812L75.4808 20.3657C73.0583 20.6825 70.4078 20.8806 67.5874 21.0247L68.0977 31.0117ZM76.7774 30.2812L66.8289 31.2945L67.3015 35.9352L77.2501 34.9219L87.1986 33.9086L86.7259 29.268L76.7774 30.2812ZM77.2501 34.9219L75.5815 25.0621C68.1264 26.3237 60.0009 26.4258 52.9727 26.4258V36.4258V46.4258C59.9523 46.4258 69.6159 46.356 78.9186 44.7817L77.2501 34.9219ZM52.9727 36.4258L62.882 35.0821L62.1945 30.0118L52.2852 31.3555L42.3759 32.6991L43.0634 37.7694L52.9727 36.4258ZM75.918 12.75H65.918V17.7344H75.918L85.918 17.7344V12.75H75.918ZM75.918 17.7344V7.73437H53.3594V17.7344V27.7344H75.918V17.7344ZM53.3594 17.7344H63.3594V12.75H53.3594L43.3594 12.75V17.7344H53.3594ZM53.3594 12.75V22.75H61.2227V12.75V2.75H53.3594V12.75ZM61.2227 12.75H71.2227V10H61.2227H51.2227V12.75H61.2227ZM61.2227 10V20H68.0977V10V0H61.2227V10ZM68.0977 10H58.0977V12.75H68.0977H78.0977V10H68.0977ZM68.0977 12.75V22.75H75.918V12.75V2.75H68.0977V12.75ZM64.6172 22.6328L64.4286 12.6346C63.0675 12.6603 60.7848 12.7716 58.5429 13.6097C57.3426 14.0584 55.4951 14.9536 53.8937 16.771C52.1 18.8066 51.1797 21.3664 51.1797 23.9648H61.1797H71.1797C71.1797 26.1121 70.4045 28.2852 68.8995 29.9932C67.5869 31.4829 66.1716 32.1096 65.5461 32.3434C64.4536 32.7519 63.8896 32.6483 64.8059 32.631L64.6172 22.6328ZM61.1797 23.9648H51.1797C51.1797 26.3467 51.9477 28.8966 53.7514 31.0359C55.3903 32.9797 57.3309 33.927 58.62 34.3968C60.9591 35.2494 63.3354 35.2969 64.6172 35.2969V25.2969V15.2969C63.6218 15.2969 64.2793 15.1725 65.469 15.6061C66.1834 15.8665 67.6916 16.5425 69.0418 18.1439C70.5568 19.9408 71.1797 22.0771 71.1797 23.9648H61.1797ZM64.6172 25.2969V35.2969C65.8894 35.2969 68.2667 35.2491 70.6182 34.3757C71.9285 33.889 73.8007 32.9421 75.3932 31.0707C77.1173 29.0447 77.9044 26.6508 78.0023 24.3992L68.0118 23.9648L58.0212 23.5305C58.0976 21.7731 58.729 19.7927 60.1618 18.1091C61.4629 16.5801 62.9081 15.9044 63.6544 15.6272C64.8779 15.1728 65.5795 15.2969 64.6172 15.2969V25.2969ZM68.0118 23.9648L78.0005 23.4892C77.8842 21.048 76.9598 18.6592 75.2499 16.7365C73.6962 14.9896 71.9162 14.0964 70.6962 13.6317C68.4447 12.774 66.1634 12.6607 64.8095 12.6347L64.6172 22.6328L64.425 32.631C65.3055 32.6479 64.6999 32.7495 63.5763 32.3214C62.9204 32.0715 61.5673 31.4469 60.3051 30.0276C58.8866 28.4326 58.1179 26.4305 58.0231 24.4405L68.0118 23.9648ZM103.676 12.793L103.607 22.7927C103.652 22.793 103.698 22.793 103.743 22.7927L103.676 12.793ZM103.676 32.8164L103.743 22.8166C103.698 22.8163 103.652 22.8163 103.607 22.8166L103.676 32.8164ZM124.773 10.2578H134.773C134.773 4.73496 130.296 0.257812 124.773 0.257812V10.2578ZM124.773 50.1328V60.1328C130.296 60.1328 134.773 55.6557 134.773 50.1328H124.773ZM117.941 50.1328H107.941C107.941 55.6557 112.419 60.1328 117.941 60.1328V50.1328ZM117.941 10.2578V0.257812C112.419 0.257812 107.941 4.73496 107.941 10.2578L117.941 10.2578ZM91.043 36.8984V26.8984C88.1479 26.8984 85.3949 28.1531 83.4957 30.3382C81.5964 32.5232 80.7373 35.4241 81.1405 38.291L91.043 36.8984ZM115.922 35.6523L125.868 34.6145C125.587 31.925 124.229 29.4639 122.104 27.7922C119.979 26.1205 117.267 25.3808 114.587 25.7419L115.922 35.6523ZM116.438 40.5938L118.399 50.3996C123.46 49.3873 126.919 44.6895 126.384 39.5559L116.438 40.5938ZM91.8165 42.3984L81.9139 43.791C82.6081 48.7272 86.8316 52.3984 91.8165 52.3984V42.3984ZM103.676 12.793L103.743 22.7927C104.209 22.7896 104.537 22.8653 104.739 22.9377C104.942 23.0105 105.024 23.0811 105.029 23.0859C105.031 23.0876 104.982 23.0419 104.937 22.9426C104.888 22.836 104.891 22.7707 104.891 22.8047H114.891H124.891C124.891 10.4244 114.428 2.72009 103.608 2.7932L103.676 12.793ZM114.891 22.8047H104.891C104.891 22.8596 104.884 22.8008 104.934 22.6906C104.956 22.6436 104.98 22.6036 105.003 22.5731C105.026 22.5431 105.041 22.5296 105.041 22.5296C105.04 22.5299 105.022 22.5464 104.977 22.5722C104.933 22.5981 104.862 22.6339 104.76 22.6703C104.556 22.7429 104.221 22.8199 103.743 22.8166L103.676 32.8164L103.608 42.8162C114.398 42.8891 124.891 35.2546 124.891 22.8047H114.891ZM103.676 32.8164L103.607 22.8166C102.745 22.8226 102.369 22.5376 102.33 22.5034C102.313 22.489 102.359 22.5263 102.407 22.6285C102.459 22.7405 102.461 22.8199 102.461 22.8047H92.461H82.461C82.461 35.3245 93.1618 42.8892 103.745 42.8162L103.676 32.8164ZM92.461 22.8047H102.461C102.461 22.7987 102.461 22.8219 102.451 22.8664C102.442 22.9104 102.426 22.9584 102.404 23.0047C102.359 23.1027 102.317 23.133 102.341 23.1122C102.394 23.0657 102.772 22.787 103.607 22.7927L103.676 12.793L103.745 2.79321C93.1318 2.72001 82.461 10.3544 82.461 22.8047H92.461ZM103.676 18.7227V8.72266C100.655 8.72266 97.0483 9.5872 94.0405 12.2036C90.8382 14.9891 89.336 18.8837 89.336 22.8047H99.336H109.336C109.336 24.0186 108.801 25.8722 107.167 27.2935C105.727 28.5456 104.29 28.7227 103.676 28.7227V18.7227ZM99.336 22.8047H89.336C89.336 26.6907 90.7886 30.6542 94.0999 33.4893C97.1755 36.1224 100.805 36.8867 103.676 36.8867V26.8867V16.8867C104.14 16.8867 105.6 17.0065 107.107 18.2968C108.85 19.7891 109.336 21.7116 109.336 22.8047H99.336ZM103.676 26.8867V36.8867C106.498 36.8867 110.138 36.1801 113.259 33.5961C116.662 30.7794 118.188 26.7726 118.188 22.8047H108.188H98.1876C98.1876 21.6297 98.7251 19.6639 100.506 18.19C102.005 16.9488 103.389 16.8867 103.676 16.8867V26.8867ZM108.188 22.8047H118.188C118.188 18.8013 116.611 14.8639 113.319 12.0955C110.261 9.52332 106.643 8.72266 103.676 8.72266V18.7227V28.7227C103.244 28.7227 101.882 28.6095 100.446 27.4016C98.7763 25.9975 98.1876 24.101 98.1876 22.8047H108.188ZM124.773 10.2578H114.773V50.1328H124.773H134.773V10.2578H124.773ZM124.773 50.1328V40.1328H117.941V50.1328V60.1328H124.773V50.1328ZM117.941 50.1328H127.941V10.2578H117.941L107.941 10.2578V50.1328H117.941ZM117.941 10.2578V20.2578H124.773V10.2578V0.257812L117.941 0.257812V10.2578ZM91.043 36.8984V46.8984C97.9709 46.8984 108.235 46.7783 117.257 45.5628L115.922 35.6523L114.587 25.7419C107.023 26.7608 97.9511 26.8984 91.043 26.8984V36.8984ZM115.922 35.6523L105.976 36.6902L106.492 41.6316L116.438 40.5938L126.384 39.5559L125.868 34.6145L115.922 35.6523ZM116.438 40.5938L114.476 30.7879C106.97 32.2892 98.6465 32.3984 91.8165 32.3984V42.3984V52.3984C98.5646 52.3984 108.718 52.3358 118.399 50.3996L116.438 40.5938ZM91.8165 42.3984L101.719 41.0059L100.946 35.5059L91.043 36.8984L81.1405 38.291L81.9139 43.791L91.8165 42.3984ZM161.898 11.8047H171.898C171.898 6.28184 167.421 1.80469 161.898 1.80469V11.8047ZM161.898 17.2187V27.2187C167.421 27.2187 171.898 22.7416 171.898 17.2187H161.898ZM152.102 17.2187V7.21875C148.869 7.21875 145.836 8.78139 143.959 11.4135C142.083 14.0457 141.594 17.4226 142.648 20.4787L152.102 17.2187ZM163.918 23.1484L173.014 27.3026C174.36 24.3566 174.195 20.9414 172.573 18.1384C170.95 15.3355 168.07 13.4919 164.846 13.1915L163.918 23.1484ZM161.426 28.6055L160.423 38.555C164.683 38.9845 168.743 36.6543 170.522 32.7597L161.426 28.6055ZM146.988 21.043L155.799 16.3138C154.059 13.0719 150.68 11.0473 147 11.043C143.321 11.0386 139.936 13.0552 138.188 16.293L146.988 21.043ZM132.637 28.6055L123.514 32.7002C125.277 36.6301 129.36 38.9889 133.645 38.5545L132.637 28.6055ZM130.188 23.1484L129.258 13.1918C126.045 13.4919 123.174 15.3238 121.549 18.1113C119.924 20.8988 119.743 24.2993 121.064 27.2431L130.188 23.1484ZM141.961 17.2187L151.38 20.5769C152.472 17.5147 152.007 14.1129 150.134 11.456C148.26 8.79911 145.212 7.21875 141.961 7.21875V17.2187ZM132.25 17.2187H122.25C122.25 22.7416 126.727 27.2187 132.25 27.2187V17.2187ZM132.25 11.8047V1.80469C126.727 1.80469 122.25 6.28184 122.25 11.8047H132.25ZM160.996 43.9453H170.996C170.996 38.4225 166.519 33.9453 160.996 33.9453V43.9453ZM160.996 49.4453V59.4453C166.519 59.4453 170.996 54.9682 170.996 49.4453H160.996ZM133.109 49.4453H123.109C123.109 54.9682 127.587 59.4453 133.109 59.4453V49.4453ZM133.109 37.9297V27.9297C127.587 27.9297 123.109 32.4068 123.109 37.9297H133.109ZM140.027 37.9297L150.027 37.9297C150.027 32.4068 145.55 27.9297 140.027 27.9297V37.9297ZM140.027 43.9453H130.027C130.027 49.4682 134.505 53.9453 140.027 53.9453V43.9453ZM165.121 30.5391H175.121C175.121 25.0162 170.644 20.5391 165.121 20.5391V30.5391ZM165.121 36.0391V46.0391C170.644 46.0391 175.121 41.5619 175.121 36.0391H165.121ZM128.941 36.0391H118.941C118.941 41.5619 123.419 46.0391 128.941 46.0391V36.0391ZM128.941 30.5391V20.5391C123.419 20.5391 118.941 25.0162 118.941 30.5391H128.941ZM143.551 30.5391V40.5391C149.074 40.5391 153.551 36.0619 153.551 30.5391H143.551ZM143.551 25.7266V15.7266C138.028 15.7266 133.551 20.2037 133.551 25.7266H143.551ZM150.426 25.7266H160.426C160.426 20.2037 155.949 15.7266 150.426 15.7266V25.7266ZM150.426 30.5391L140.426 30.5391C140.426 36.0619 144.903 40.5391 150.426 40.5391V30.5391ZM161.898 11.8047H151.898V17.2187H161.898H171.898V11.8047H161.898ZM161.898 17.2187V7.21875H152.102V17.2187V27.2187H161.898V17.2187ZM152.102 17.2187L142.648 20.4787C145.437 28.5659 153.709 32.2408 162.991 33.1053L163.918 23.1484L164.846 13.1915C161.851 12.9126 160.636 12.3252 160.398 12.188C160.276 12.1173 161.082 12.5848 161.555 13.9588L152.102 17.2187ZM163.918 23.1484L154.822 18.9942L152.33 24.4513L161.426 28.6055L170.522 32.7597L173.014 27.3026L163.918 23.1484ZM161.426 28.6055L162.429 18.6559C159.495 18.3601 157.782 17.7161 156.872 17.2106C156.029 16.7421 155.836 16.3811 155.799 16.3138L146.988 21.043L138.177 25.7721C142.332 33.5136 150.559 37.5606 160.423 38.555L161.426 28.6055ZM146.988 21.043L138.188 16.293C138.137 16.3882 137.928 16.756 137.098 17.2209C136.205 17.7215 134.522 18.3631 131.628 18.6565L132.637 28.6055L133.645 38.5545C143.537 37.5518 151.658 33.4452 155.788 25.7929L146.988 21.043ZM132.637 28.6055L141.76 24.5108L139.311 19.0538L130.188 23.1484L121.064 27.2431L123.514 32.7002L132.637 28.6055ZM130.188 23.1484L131.118 33.1051C140.509 32.2279 148.564 28.4766 151.38 20.5769L141.961 17.2187L132.542 13.8606C132.998 12.5798 133.744 12.1363 133.639 12.1979C133.415 12.3286 132.223 12.9147 129.258 13.1918L130.188 23.1484ZM141.961 17.2187V7.21875H132.25V17.2187V27.2187H141.961V17.2187ZM132.25 17.2187H142.25V11.8047H132.25H122.25V17.2187H132.25ZM132.25 11.8047V21.8047H161.898V11.8047V1.80469L132.25 1.80469V11.8047ZM160.996 43.9453H150.996V49.4453H160.996H170.996V43.9453H160.996ZM160.996 49.4453V39.4453L133.109 39.4453V49.4453V59.4453L160.996 59.4453V49.4453ZM133.109 49.4453L143.109 49.4453V37.9297L133.109 37.9297H123.109V49.4453H133.109ZM133.109 37.9297V47.9297H140.027V37.9297V27.9297H133.109V37.9297ZM140.027 37.9297H130.027V43.9453H140.027L150.027 43.9453V37.9297L140.027 37.9297ZM140.027 43.9453V53.9453L160.996 53.9453V43.9453V33.9453L140.027 33.9453V43.9453ZM165.121 30.5391H155.121V36.0391H165.121H175.121V30.5391H165.121ZM165.121 36.0391V26.0391H128.941V36.0391V46.0391L165.121 46.0391V36.0391ZM128.941 36.0391H138.941V30.5391H128.941H118.941V36.0391H128.941ZM128.941 30.5391V40.5391L143.551 40.5391V30.5391V20.5391H128.941V30.5391ZM143.551 30.5391H153.551V25.7266H143.551H133.551V30.5391L143.551 30.5391ZM143.551 25.7266V35.7266H150.426V25.7266V15.7266H143.551V25.7266ZM150.426 25.7266H140.426V30.5391L150.426 30.5391H160.426V25.7266H150.426ZM150.426 30.5391V40.5391H165.121V30.5391V20.5391H150.426V30.5391ZM190 12.1914H200C200 6.66856 195.523 2.19141 190 2.19141V12.1914ZM190 17.6055V27.6055C195.523 27.6055 200 23.1283 200 17.6055H190ZM182.781 17.6055V7.60547C179.981 7.60547 177.309 8.77968 175.415 10.8425C173.521 12.9054 172.579 15.6678 172.818 18.458L182.781 17.6055ZM191.418 27.7031L199.894 33.0093C201.527 30.4006 201.868 27.1852 200.818 24.2921C199.768 21.399 197.445 19.1504 194.519 18.196L191.418 27.7031ZM188.109 32.9883L185.267 42.5758C189.573 43.8525 194.202 42.1015 196.586 38.2945L188.109 32.9883ZM179.301 25.9414L188.149 21.2815C186.397 17.9561 182.929 15.8935 179.171 15.9422C175.413 15.991 172 18.1428 170.335 21.5125L179.301 25.9414ZM170.02 33.7187L161.638 39.1733C164.054 42.8851 168.623 44.566 172.868 43.3044L170.02 33.7187ZM166.496 28.3047L163.634 18.7229C160.614 19.6251 158.195 21.899 157.109 24.8586C156.022 27.8182 156.395 31.1168 158.115 33.7592L166.496 28.3047ZM175.648 17.6055L185.602 18.5655C185.873 15.7593 184.947 12.9693 183.051 10.8824C181.156 8.79544 178.468 7.60547 175.648 7.60547V17.6055ZM168.387 17.6055H158.387C158.387 23.1283 162.864 27.6055 168.387 27.6055V17.6055ZM168.387 12.1914V2.19141C162.864 2.19141 158.387 6.66856 158.387 12.1914H168.387ZM200.785 35.3945H210.785C210.785 29.8717 206.308 25.3945 200.785 25.3945V35.3945ZM200.785 50.0039V60.0039C206.308 60.0039 210.785 55.5268 210.785 50.0039H200.785ZM193.91 50.0039H183.91C183.91 55.5268 188.387 60.0039 193.91 60.0039V50.0039ZM193.91 40.8516H203.91C203.91 35.3287 199.433 30.8516 193.91 30.8516V40.8516ZM173.156 40.8516H163.156C163.156 46.3744 167.633 50.8516 173.156 50.8516V40.8516ZM173.156 35.3945V25.3945C167.633 25.3945 163.156 29.8717 163.156 35.3945H173.156ZM200.785 10.2578H210.785C210.785 4.73496 206.308 0.257812 200.785 0.257812V10.2578ZM200.785 33.8906V43.8906C206.308 43.8906 210.785 39.4135 210.785 33.8906H200.785ZM193.91 33.8906H183.91C183.91 39.4135 188.387 43.8906 193.91 43.8906V33.8906ZM193.91 24.8672H203.91C203.91 19.3443 199.433 14.8672 193.91 14.8672V24.8672ZM188.969 24.8672H178.969C178.969 30.39 183.446 34.8672 188.969 34.8672V24.8672ZM188.969 19.2812V9.28125C183.446 9.28125 178.969 13.7584 178.969 19.2812H188.969ZM193.91 19.2812V29.2812C199.433 29.2812 203.91 24.8041 203.91 19.2812H193.91ZM193.91 10.2578V0.257812C188.387 0.257812 183.91 4.73496 183.91 10.2578H193.91ZM190 12.1914H180V17.6055H190H200V12.1914H190ZM190 17.6055V7.60547H182.781V17.6055V27.6055H190V17.6055ZM182.781 17.6055L172.818 18.458C173.127 22.067 174.346 26.0019 177.053 29.5231C179.793 33.0863 183.642 35.6855 188.317 37.2102L191.418 27.7031L194.519 18.196C193.83 17.9715 193.429 17.7444 193.217 17.6C193.011 17.4599 192.932 17.363 192.908 17.3324C192.882 17.2979 192.78 17.1615 192.745 16.753L182.781 17.6055ZM191.418 27.7031L182.942 22.3969L179.633 27.6821L188.109 32.9883L196.586 38.2945L199.894 33.0093L191.418 27.7031ZM188.109 32.9883L190.952 23.4008C190.019 23.1241 189.456 22.7763 189.101 22.4832C188.742 22.1873 188.426 21.8078 188.149 21.2815L179.301 25.9414L170.453 30.6013C173.389 36.1766 178.373 40.5318 185.267 42.5758L188.109 32.9883ZM179.301 25.9414L170.335 21.5125C169.71 22.7782 168.857 23.6321 167.171 24.1331L170.02 33.7187L172.868 43.3044C180.292 41.0984 185.368 36.2374 188.267 30.3703L179.301 25.9414ZM170.02 33.7187L178.401 28.2642L174.878 22.8501L166.496 28.3047L158.115 33.7592L161.638 39.1733L170.02 33.7187ZM166.496 28.3047L169.358 37.8865C174.428 36.3721 178.48 33.5948 181.307 29.8432C184.066 26.1809 185.259 22.1286 185.602 18.5655L175.648 17.6055L165.695 16.6455C165.63 17.3148 165.448 17.656 165.334 17.8072C165.276 17.8836 165.174 17.9981 164.966 18.1391C164.752 18.2838 164.344 18.5109 163.634 18.7229L166.496 28.3047ZM175.648 17.6055V7.60547L168.387 7.60547V17.6055V27.6055H175.648V17.6055ZM168.387 17.6055H178.387V12.1914L168.387 12.1914H158.387V17.6055H168.387ZM168.387 12.1914V22.1914H190V12.1914V2.19141L168.387 2.19141V12.1914ZM200.785 35.3945H190.785V50.0039H200.785H210.785V35.3945H200.785ZM200.785 50.0039V40.0039H193.91V50.0039V60.0039H200.785V50.0039ZM193.91 50.0039H203.91V40.8516H193.91H183.91V50.0039H193.91ZM193.91 40.8516V30.8516H173.156V40.8516V50.8516H193.91V40.8516ZM173.156 40.8516H183.156V35.3945H173.156H163.156V40.8516H173.156ZM173.156 35.3945V45.3945H200.785V35.3945V25.3945H173.156V35.3945ZM200.785 10.2578H190.785V33.8906H200.785H210.785V10.2578H200.785ZM200.785 33.8906V23.8906H193.91V33.8906V43.8906H200.785V33.8906ZM193.91 33.8906H203.91V24.8672H193.91H183.91V33.8906H193.91ZM193.91 24.8672V14.8672H188.969V24.8672V34.8672H193.91V24.8672ZM188.969 24.8672H198.969V19.2812H188.969H178.969V24.8672H188.969ZM188.969 19.2812V29.2812H193.91V19.2812V9.28125H188.969V19.2812ZM193.91 19.2812H203.91V10.2578H193.91H183.91V19.2812H193.91ZM193.91 10.2578V20.2578H200.785V10.2578V0.257812L193.91 0.257812V10.2578ZM238.512 10.3437H248.512C248.512 4.8209 244.035 0.34375 238.512 0.34375V10.3437ZM238.512 38.5742V48.5742C244.035 48.5742 248.512 44.0971 248.512 38.5742H238.512ZM231.594 38.5742H221.594C221.594 44.0971 226.071 48.5742 231.594 48.5742V38.5742ZM231.594 10.3437V0.34375C226.071 0.34375 221.594 4.8209 221.594 10.3437H231.594ZM239.457 43.9453H249.457C249.457 38.4225 244.98 33.9453 239.457 33.9453V43.9453ZM239.457 49.4453V59.4453C244.98 59.4453 249.457 54.9682 249.457 49.4453H239.457ZM211.313 49.4453H201.313C201.313 54.9682 205.79 59.4453 211.313 59.4453V49.4453ZM211.313 35.7383V25.7383C205.79 25.7383 201.313 30.2154 201.313 35.7383H211.313ZM218.273 35.7383H228.273C228.273 30.2154 223.796 25.7383 218.273 25.7383V35.7383ZM218.273 43.9453H208.273C208.273 49.4682 212.751 53.9453 218.273 53.9453V43.9453ZM205.426 22.8906L215.426 22.9621C215.426 22.9139 215.426 22.8658 215.426 22.8176L205.426 22.8906ZM238.512 10.3437L228.512 10.3437V38.5742H238.512H248.512V10.3437H238.512ZM238.512 38.5742V28.5742H231.594V38.5742V48.5742H238.512V38.5742ZM231.594 38.5742H241.594V10.3437L231.594 10.3437H221.594V38.5742H231.594ZM231.594 10.3437V20.3437H238.512V10.3437V0.34375H231.594V10.3437ZM239.457 43.9453H229.457V49.4453H239.457H249.457V43.9453H239.457ZM239.457 49.4453V39.4453H211.313V49.4453V59.4453H239.457V49.4453ZM211.313 49.4453H221.313V35.7383H211.313H201.313V49.4453H211.313ZM211.313 35.7383V45.7383H218.273V35.7383V25.7383H211.313V35.7383ZM218.273 35.7383H208.273V43.9453H218.273H228.273V35.7383H218.273ZM218.273 43.9453V53.9453H239.457V43.9453V33.9453H218.273V43.9453ZM216.555 12.707V22.707C217.341 22.707 217.692 22.9723 217.745 23.0203C217.771 23.0434 217.744 23.0256 217.713 22.9574C217.678 22.8804 217.684 22.8398 217.684 22.8906H227.684H237.684C237.684 10.5266 227.26 2.70703 216.555 2.70703V12.707ZM227.684 22.8906H217.684C217.684 23.0045 217.665 22.9977 217.695 22.9307C217.722 22.8709 217.75 22.8484 217.735 22.8621C217.704 22.89 217.366 23.1602 216.555 23.1602V33.1602V43.1602C227.289 43.1602 237.684 35.3572 237.684 22.8906H227.684ZM216.555 33.1602V23.1602C215.737 23.1602 215.385 22.8855 215.349 22.8532C215.334 22.8394 215.368 22.8679 215.402 22.9429C215.439 23.0264 215.425 23.0539 215.426 22.9621L205.426 22.8906L195.426 22.8192C195.336 35.4048 205.894 43.1602 216.555 43.1602V33.1602ZM205.426 22.8906L215.426 22.8176C215.425 22.7896 215.427 22.8515 215.384 22.945C215.346 23.0286 215.312 23.0523 215.338 23.0292C215.396 22.9769 215.762 22.707 216.555 22.707V12.707V2.70703C205.924 2.70703 195.335 10.4786 195.426 22.9636L205.426 22.8906ZM216.555 18.6797V8.67969C213.505 8.67969 209.805 9.53881 206.738 12.2721C203.501 15.1568 202.129 19.0982 202.129 22.8906L212.129 22.8906H222.129C222.129 23.8901 221.702 25.726 220.044 27.2035C218.556 28.5296 217.069 28.6797 216.555 28.6797V18.6797ZM212.129 22.8906L202.129 22.8906C202.129 26.6192 203.418 30.6188 206.71 33.5753C209.829 36.3759 213.577 37.1875 216.555 37.1875V27.1875V17.1875C216.997 17.1875 218.533 17.3116 220.072 18.6943C221.786 20.2327 222.129 22.0839 222.129 22.8906H212.129ZM216.555 27.1875V37.1875C219.586 37.1875 223.302 36.3117 226.363 33.5063C229.57 30.5668 230.852 26.6146 230.852 22.8906H220.852H210.852C210.852 22.0885 211.188 20.2848 212.848 18.7632C214.362 17.3758 215.929 17.1875 216.555 17.1875V27.1875ZM220.852 22.8906H230.852C230.852 19.1043 229.487 15.2086 226.335 12.3407C223.327 9.60481 219.659 8.67969 216.555 8.67969V18.6797V28.6797C215.857 28.6797 214.337 28.4635 212.876 27.1349C211.271 25.6742 210.852 23.8839 210.852 22.8906H220.852Z" fill="white" mask="url(#path-1-outside-1_3990_1509)"/>
</g>
<defs>
<filter id="filter0_d_3990_1509" x="0" y="0" width="253.457" height="68.1328" filterUnits="userSpaceOnUse" color-interpolation-filters="sRGB">
<feFlood flood-opacity="0" result="BackgroundImageFix"/>
<feColorMatrix in="SourceAlpha" type="matrix" values="0 0 0 0 0 0 0 0 0 0 0 0 0 0 0 0 0 0 127 0" result="hardAlpha"/>
<feOffset dy="4"/>
<feGaussianBlur stdDeviation="2"/>
<feComposite in2="hardAlpha" operator="out"/>
<feColorMatrix type="matrix" values="0 0 0 0 0 0 0 0 0 0 0 0 0 0 0 0 0 0 0.07 0"/>
<feBlend mode="normal" in2="BackgroundImageFix" result="effect1_dropShadow_3990_1509"/>
<feBlend mode="normal" in="SourceGraphic" in2="effect1_dropShadow_3990_1509" result="shape"/>
</filter>
</defs>
</svg>
