<svg width="227" height="68" viewBox="0 0 227 68" fill="none" xmlns="http://www.w3.org/2000/svg">
<g filter="url(#filter0_d_3990_1504)">
<mask id="path-1-outside-1_3990_1504" maskUnits="userSpaceOnUse" x="3.04303" y="-0.507813" width="220" height="61" fill="black">
<rect fill="white" x="3.04303" y="-0.507813" width="220" height="61"/>
<path d="M28.1797 16.6172C28.1797 20.5488 29.7051 24.459 34.3672 26.6289V10.7305H40.7266V19.1523H42.7891V10.0859L49.3204 10.0859V34.2344H42.7891V24.6953H40.7266V32.9883H34.3672V28.2188L31.5743 32.2578C28.4805 31.0762 26.3536 29.0352 25.0001 26.5C23.5606 29.6152 21.2403 32.1719 17.6954 33.5898L14.0001 28.3047C19.8008 25.7695 21.4766 21.043 21.4766 16.6172V12.4062H28.1797V16.6172ZM35.4415 34.5352C43.9493 34.5352 49.4922 37.4141 49.5352 42.1406C49.4922 46.9102 43.9493 49.832 35.4415 49.832C26.9766 49.832 21.4337 46.9102 21.4766 42.1406C21.4337 37.4141 26.9766 34.5352 35.4415 34.5352ZM35.4415 39.6484C30.8438 39.6055 28.3516 40.4219 28.3516 42.1406C28.3516 43.9453 30.8438 44.6758 35.4415 44.6758C40.0821 44.6758 42.5313 43.9453 42.5743 42.1406C42.5313 40.4219 40.0821 39.6055 35.4415 39.6484ZM84.7696 10V18.8086H89.711V24.4805H84.7696V32.9453H77.8516V10H84.7696ZM73.4258 12.0625C73.4258 23.0195 66.9805 30.1953 54.9493 33.1172L52.1133 27.918C60.6212 25.8984 64.9825 21.9453 65.9063 17.4766H54.3477V12.0625H73.4258ZM84.7696 34.4492V49.7461H77.8516V39.8633H57.5704V34.4492H84.7696ZM124.559 10V49.875H117.598V10H124.559ZM102.731 12.6641C108.789 12.6211 113.344 18.207 113.344 26.9727C113.344 35.8672 108.789 41.4102 102.731 41.4102C96.543 41.4102 91.9454 35.8672 91.9454 26.9727C91.9454 18.207 96.543 12.6211 102.731 12.6641ZM102.731 18.8945C100.195 18.8516 98.6055 21.4727 98.6055 26.9727C98.6055 32.5586 100.195 35.0938 102.731 35.0938C105.094 35.0938 106.727 32.5586 106.727 26.9727C106.727 21.4727 105.094 18.8516 102.731 18.8945ZM170.406 10V17.9492H175.348V23.5781H170.406V29.5078H163.488V10H170.406ZM158.977 12.4062V29.207L139.469 29.207V12.4062H158.977ZM146.301 17.7344V23.8359H152.145V17.7344H146.301ZM148.492 32.6445V43.0859C150.404 42.957 151.973 42.6562 153.606 42.1406L154.551 47.4258C151.543 48.5859 148.707 48.7148 144.152 48.7148L141.746 48.7148V32.6445L148.492 32.6445ZM173.156 33.0742V37.8867H153.219V33.0742H159.922V30.582H166.582V33.0742H173.156ZM163.145 38.6602C167.828 38.6602 171.008 40.7656 171.051 44.2461C171.008 47.5977 167.828 49.7461 163.145 49.7461C158.418 49.7461 155.281 47.5977 155.281 44.2461C155.281 40.7656 158.418 38.6602 163.145 38.6602ZM163.145 43.2148C162.156 43.2148 161.383 43.4297 161.383 44.2461C161.383 45.0195 162.156 45.2344 163.145 45.2773C164.133 45.2344 164.906 45.0195 164.906 44.2461C164.906 43.4297 164.133 43.2148 163.145 43.2148ZM212.902 29.9375V35.3516H176.637V29.9375H212.902ZM208.691 43.6875V49.1875H180.805V37.5H187.723V43.6875H208.691ZM194.77 11.1172C203.535 11.1172 209.422 14.2969 209.465 19.4102C209.422 24.6094 203.535 27.832 194.77 27.832C185.918 27.832 179.988 24.6094 180.031 19.4102C179.988 14.2969 185.918 11.1172 194.77 11.1172ZM194.77 16.5312C189.785 16.5742 187.164 17.4766 187.207 19.4102C187.164 21.4727 189.785 22.2891 194.77 22.2461C199.668 22.2891 202.332 21.4727 202.332 19.4102C202.332 17.4766 199.668 16.5742 194.77 16.5312Z"/>
</mask>
<path d="M28.1797 16.6172C28.1797 20.5488 29.7051 24.459 34.3672 26.6289V10.7305H40.7266V19.1523H42.7891V10.0859L49.3204 10.0859V34.2344H42.7891V24.6953H40.7266V32.9883H34.3672V28.2188L31.5743 32.2578C28.4805 31.0762 26.3536 29.0352 25.0001 26.5C23.5606 29.6152 21.2403 32.1719 17.6954 33.5898L14.0001 28.3047C19.8008 25.7695 21.4766 21.043 21.4766 16.6172V12.4062H28.1797V16.6172ZM35.4415 34.5352C43.9493 34.5352 49.4922 37.4141 49.5352 42.1406C49.4922 46.9102 43.9493 49.832 35.4415 49.832C26.9766 49.832 21.4337 46.9102 21.4766 42.1406C21.4337 37.4141 26.9766 34.5352 35.4415 34.5352ZM35.4415 39.6484C30.8438 39.6055 28.3516 40.4219 28.3516 42.1406C28.3516 43.9453 30.8438 44.6758 35.4415 44.6758C40.0821 44.6758 42.5313 43.9453 42.5743 42.1406C42.5313 40.4219 40.0821 39.6055 35.4415 39.6484ZM84.7696 10V18.8086H89.711V24.4805H84.7696V32.9453H77.8516V10H84.7696ZM73.4258 12.0625C73.4258 23.0195 66.9805 30.1953 54.9493 33.1172L52.1133 27.918C60.6212 25.8984 64.9825 21.9453 65.9063 17.4766H54.3477V12.0625H73.4258ZM84.7696 34.4492V49.7461H77.8516V39.8633H57.5704V34.4492H84.7696ZM124.559 10V49.875H117.598V10H124.559ZM102.731 12.6641C108.789 12.6211 113.344 18.207 113.344 26.9727C113.344 35.8672 108.789 41.4102 102.731 41.4102C96.543 41.4102 91.9454 35.8672 91.9454 26.9727C91.9454 18.207 96.543 12.6211 102.731 12.6641ZM102.731 18.8945C100.195 18.8516 98.6055 21.4727 98.6055 26.9727C98.6055 32.5586 100.195 35.0938 102.731 35.0938C105.094 35.0938 106.727 32.5586 106.727 26.9727C106.727 21.4727 105.094 18.8516 102.731 18.8945ZM170.406 10V17.9492H175.348V23.5781H170.406V29.5078H163.488V10H170.406ZM158.977 12.4062V29.207L139.469 29.207V12.4062H158.977ZM146.301 17.7344V23.8359H152.145V17.7344H146.301ZM148.492 32.6445V43.0859C150.404 42.957 151.973 42.6562 153.606 42.1406L154.551 47.4258C151.543 48.5859 148.707 48.7148 144.152 48.7148L141.746 48.7148V32.6445L148.492 32.6445ZM173.156 33.0742V37.8867H153.219V33.0742H159.922V30.582H166.582V33.0742H173.156ZM163.145 38.6602C167.828 38.6602 171.008 40.7656 171.051 44.2461C171.008 47.5977 167.828 49.7461 163.145 49.7461C158.418 49.7461 155.281 47.5977 155.281 44.2461C155.281 40.7656 158.418 38.6602 163.145 38.6602ZM163.145 43.2148C162.156 43.2148 161.383 43.4297 161.383 44.2461C161.383 45.0195 162.156 45.2344 163.145 45.2773C164.133 45.2344 164.906 45.0195 164.906 44.2461C164.906 43.4297 164.133 43.2148 163.145 43.2148ZM212.902 29.9375V35.3516H176.637V29.9375H212.902ZM208.691 43.6875V49.1875H180.805V37.5H187.723V43.6875H208.691ZM194.77 11.1172C203.535 11.1172 209.422 14.2969 209.465 19.4102C209.422 24.6094 203.535 27.832 194.77 27.832C185.918 27.832 179.988 24.6094 180.031 19.4102C179.988 14.2969 185.918 11.1172 194.77 11.1172ZM194.77 16.5312C189.785 16.5742 187.164 17.4766 187.207 19.4102C187.164 21.4727 189.785 22.2891 194.77 22.2461C199.668 22.2891 202.332 21.4727 202.332 19.4102C202.332 17.4766 199.668 16.5742 194.77 16.5312Z" fill="#11DCA9"/>
<path d="M34.3672 26.6289L30.1475 35.695C33.2445 37.1364 36.8629 36.8973 39.7433 35.0609C42.6236 33.2245 44.3672 30.0449 44.3672 26.6289H34.3672ZM34.3672 10.7305V0.730469C28.8444 0.730469 24.3672 5.20762 24.3672 10.7305H34.3672ZM40.7266 10.7305L50.7266 10.7305C50.7266 5.20762 46.2495 0.730469 40.7266 0.730469V10.7305ZM40.7266 19.1523H30.7266C30.7266 24.6752 35.2038 29.1523 40.7266 29.1523V19.1523ZM42.7891 19.1523V29.1523C48.312 29.1523 52.7891 24.6752 52.7891 19.1523H42.7891ZM42.7891 10.0859V0.0859375C37.2663 0.0859375 32.7891 4.56309 32.7891 10.0859H42.7891ZM49.3204 10.0859H59.3204C59.3204 4.56309 54.8432 0.0859375 49.3204 0.0859375V10.0859ZM49.3204 34.2344V44.2344C54.8432 44.2344 59.3204 39.7572 59.3204 34.2344H49.3204ZM42.7891 34.2344H32.7891C32.7891 39.7572 37.2663 44.2344 42.7891 44.2344V34.2344ZM42.7891 24.6953H52.7891C52.7891 19.1725 48.312 14.6953 42.7891 14.6953V24.6953ZM40.7266 24.6953V14.6953C35.2038 14.6953 30.7266 19.1725 30.7266 24.6953H40.7266ZM40.7266 32.9883V42.9883C46.2495 42.9883 50.7266 38.5111 50.7266 32.9883H40.7266ZM34.3672 32.9883H24.3672C24.3672 38.5111 28.8444 42.9883 34.3672 42.9883V32.9883ZM34.3672 28.2188H44.3672C44.3672 23.8435 41.5229 19.9762 37.3463 18.6728C33.1697 17.3694 28.6306 18.9325 26.1422 22.5312L34.3672 28.2188ZM31.5743 32.2578L28.0062 41.5996C32.3097 43.2433 37.1793 41.7344 39.7994 37.9454L31.5743 32.2578ZM25.0001 26.5L33.8215 21.7902C32.0342 18.4425 28.5058 16.3949 24.7123 16.5041C20.9189 16.6133 17.5141 18.8604 15.9223 22.3054L25.0001 26.5ZM17.6954 33.5898L9.49993 39.32C12.162 43.1274 17.0958 44.6 21.4093 42.8746L17.6954 33.5898ZM14.0001 28.3047L9.99543 19.1416C7.249 20.3419 5.18577 22.7108 4.3739 25.596C3.56203 28.4812 4.08713 31.5784 5.80461 34.0348L14.0001 28.3047ZM21.4766 12.4062V2.40625C15.9538 2.40625 11.4766 6.8834 11.4766 12.4062H21.4766ZM28.1797 12.4062H38.1797C38.1797 6.8834 33.7026 2.40625 28.1797 2.40625V12.4062ZM49.5352 42.1406L59.5348 42.2307C59.5354 42.1704 59.5354 42.1101 59.5348 42.0497L49.5352 42.1406ZM21.4766 42.1406L31.4762 42.2307C31.4768 42.1704 31.4768 42.1101 31.4762 42.0497L21.4766 42.1406ZM35.4415 39.6484L35.348 49.648C35.41 49.6486 35.472 49.6486 35.5341 49.648L35.4415 39.6484ZM42.5743 42.1406L52.5714 42.3787C52.5753 42.216 52.5752 42.0533 52.5712 41.8907L42.5743 42.1406ZM28.1797 16.6172H18.1797C18.1797 23.416 21.1189 31.4927 30.1475 35.695L34.3672 26.6289L38.587 17.5628C38.4313 17.4904 38.3315 17.4306 38.2744 17.3929C38.2454 17.3738 38.2258 17.3592 38.2139 17.35C38.202 17.3407 38.1966 17.3357 38.1963 17.3355C38.1961 17.3353 38.1997 17.3386 38.2061 17.3455C38.2125 17.3524 38.2204 17.3615 38.229 17.3726C38.2474 17.396 38.2623 17.4192 38.2725 17.4376C38.3204 17.524 38.1797 17.3293 38.1797 16.6172H28.1797ZM34.3672 26.6289H44.3672V10.7305H34.3672H24.3672V26.6289H34.3672ZM34.3672 10.7305V20.7305H40.7266V10.7305V0.730469H34.3672V10.7305ZM40.7266 10.7305H30.7266V19.1523H40.7266H50.7266V10.7305L40.7266 10.7305ZM40.7266 19.1523V29.1523H42.7891V19.1523V9.15234H40.7266V19.1523ZM42.7891 19.1523H52.7891V10.0859L42.7891 10.0859H32.7891V19.1523H42.7891ZM42.7891 10.0859V20.0859H49.3204V10.0859V0.0859375H42.7891V10.0859ZM49.3204 10.0859L39.3204 10.0859V34.2344H49.3204H59.3204V10.0859H49.3204ZM49.3204 34.2344V24.2344H42.7891V34.2344V44.2344H49.3204V34.2344ZM42.7891 34.2344H52.7891V24.6953H42.7891H32.7891V34.2344H42.7891ZM42.7891 24.6953V14.6953H40.7266V24.6953V34.6953H42.7891V24.6953ZM40.7266 24.6953H30.7266V32.9883H40.7266H50.7266V24.6953H40.7266ZM40.7266 32.9883V22.9883H34.3672V32.9883V42.9883H40.7266V32.9883ZM34.3672 32.9883H44.3672V28.2188H34.3672H24.3672V32.9883H34.3672ZM34.3672 28.2188L26.1422 22.5312L23.3492 26.5703L31.5743 32.2578L39.7994 37.9454L42.5923 33.9063L34.3672 28.2188ZM31.5743 32.2578L35.1423 22.916C34.6975 22.7461 34.454 22.5698 34.309 22.4398C34.1587 22.3051 33.9922 22.1099 33.8215 21.7902L25.0001 26.5L16.1786 31.2098C18.6124 35.7684 22.5531 39.5168 28.0062 41.5996L31.5743 32.2578ZM25.0001 26.5L15.9223 22.3054C15.6249 22.9491 15.3212 23.3548 15.0583 23.6182C14.8127 23.8644 14.4908 24.1014 13.9815 24.3051L17.6954 33.5898L21.4093 42.8746C27.6779 40.3672 31.7363 35.762 34.0778 30.6945L25.0001 26.5ZM17.6954 33.5898L25.8908 27.8597L22.1955 22.5745L14.0001 28.3047L5.80461 34.0348L9.49993 39.32L17.6954 33.5898ZM14.0001 28.3047L18.0047 37.4678C22.8024 35.3711 26.3838 32.1 28.6476 28.0399C30.8338 24.1192 31.4766 20.0391 31.4766 16.6172H21.4766H11.4766C11.4766 17.6211 11.2815 18.1172 11.1796 18.2999C11.1346 18.3807 11.0742 18.4658 10.9546 18.5726C10.8311 18.6829 10.5518 18.8984 9.99543 19.1416L14.0001 28.3047ZM21.4766 16.6172H31.4766V12.4062H21.4766H11.4766V16.6172H21.4766ZM21.4766 12.4062V22.4062H28.1797V12.4062V2.40625H21.4766V12.4062ZM28.1797 12.4062H18.1797V16.6172H28.1797H38.1797V12.4062H28.1797ZM35.4415 34.5352V44.5352C37.0207 44.5352 38.294 44.6701 39.2634 44.8642C40.2512 45.062 40.7728 45.2907 40.9528 45.3868C41.1322 45.4826 40.7717 45.3353 40.3373 44.7189C39.8436 44.0183 39.5436 43.1123 39.5356 42.2315L49.5352 42.1406L59.5348 42.0497C59.4709 35.0187 55.0545 30.2438 50.3725 27.744C45.9468 25.381 40.6224 24.5352 35.4415 24.5352V34.5352ZM49.5352 42.1406L39.5356 42.0505C39.5433 41.2021 39.8298 40.3215 40.3084 39.6352C40.7307 39.0295 41.0824 38.8833 40.9079 38.9776C40.7315 39.073 40.2163 39.3022 39.2376 39.5008C38.2768 39.6958 37.0122 39.832 35.4415 39.832V49.832V59.832C40.6412 59.832 45.9818 58.9696 50.4174 56.5722C55.1157 54.0328 59.4718 49.2299 59.5348 42.2307L49.5352 42.1406ZM35.4415 49.832V39.832C33.8841 39.832 32.6304 39.6963 31.6797 39.5025C30.7103 39.3049 30.2087 39.0784 30.0476 38.9908C29.888 38.9039 30.2663 39.0686 30.7051 39.7104C31.2026 40.4381 31.4841 41.3593 31.4762 42.2307L21.4766 42.1406L11.477 42.0505C11.4133 49.1271 15.785 53.9995 20.4896 56.559C24.9201 58.9695 30.2626 59.832 35.4415 59.832V49.832ZM21.4766 42.1406L31.4762 42.0497C31.4844 42.9537 31.1899 43.901 30.6767 44.6436C30.2255 45.2965 29.8381 45.4623 30.0027 45.3739C30.1673 45.2854 30.6753 45.0594 31.6538 44.8626C32.6131 44.6697 33.8756 44.5352 35.4415 44.5352V34.5352V24.5352C30.2815 24.5352 24.9553 25.3811 20.5346 27.757C15.8465 30.2766 11.4124 35.1217 11.477 42.2315L21.4766 42.1406ZM35.4415 39.6484L35.5349 29.6489C32.8928 29.6242 29.7453 29.802 26.9086 30.7815C24.1776 31.7245 18.3516 34.8681 18.3516 42.1406H28.3516H38.3516C38.3516 44.4195 37.4188 46.4983 36.0197 47.9527C34.8416 49.1774 33.6961 49.5965 33.4363 49.6863C32.9951 49.8386 33.3925 49.6297 35.348 49.648L35.4415 39.6484ZM28.3516 42.1406H18.3516C18.3516 45.1715 19.5028 48.0123 21.5553 50.1776C23.3759 52.0982 25.4809 53.0508 26.9465 53.5504C29.768 54.5119 32.9085 54.6758 35.4415 54.6758V44.6758V34.6758C34.5346 34.6758 33.8995 34.6387 33.4859 34.5932C33.0343 34.5436 33.0699 34.5076 33.3983 34.6196C33.6662 34.7109 34.8608 35.1425 36.0704 36.4186C37.512 37.9394 38.3516 40.0121 38.3516 42.1406H28.3516ZM35.4415 44.6758V54.6758C37.99 54.6758 41.1336 54.5129 43.9579 53.5504C45.4332 53.0476 47.5141 52.0995 49.3216 50.2093C51.345 48.0933 52.5011 45.3324 52.5714 42.3787L42.5743 42.1406L32.5771 41.9026C32.626 39.8512 33.4598 37.8583 34.8668 36.3869C36.058 35.1412 37.2285 34.7142 37.5061 34.6196C37.8357 34.5072 37.8724 34.5432 37.4191 34.5929C37.0029 34.6385 36.3618 34.6758 35.4415 34.6758V44.6758ZM42.5743 42.1406L52.5712 41.8907C52.3949 34.8406 46.8047 31.7514 43.9958 30.7815C41.1561 29.801 38.0056 29.6243 35.3489 29.6489L35.4415 39.6484L35.5341 49.648C37.518 49.6296 37.9124 49.8397 37.4682 49.6863C37.1987 49.5932 36.077 49.1788 34.9178 47.9841C33.5533 46.5781 32.6322 44.5836 32.5774 42.3905L42.5743 42.1406ZM84.7696 10H94.7696C94.7696 4.47715 90.2924 0 84.7696 0V10ZM84.7696 18.8086L74.7696 18.8086C74.7696 24.3314 79.2467 28.8086 84.7696 28.8086V18.8086ZM89.711 18.8086H99.711C99.711 13.2857 95.2338 8.80859 89.711 8.80859V18.8086ZM89.711 24.4805V34.4805C95.2338 34.4805 99.711 30.0033 99.711 24.4805H89.711ZM84.7696 24.4805V14.4805C79.2467 14.4805 74.7696 18.9576 74.7696 24.4805L84.7696 24.4805ZM84.7696 32.9453V42.9453C90.2924 42.9453 94.7696 38.4682 94.7696 32.9453H84.7696ZM77.8516 32.9453H67.8516C67.8516 38.4682 72.3288 42.9453 77.8516 42.9453V32.9453ZM77.8516 10V0C72.3288 0 67.8516 4.47715 67.8516 10H77.8516ZM73.4258 12.0625H83.4258C83.4258 6.53965 78.9487 2.0625 73.4258 2.0625V12.0625ZM54.9493 33.1172L46.1703 37.9057C48.3389 41.8814 52.9085 43.9035 57.3093 42.8347L54.9493 33.1172ZM52.1133 27.918L49.8038 18.1883C46.7713 18.9082 44.2478 21.0008 42.9792 23.8477C41.7106 26.6946 41.8419 29.9703 43.3344 32.7065L52.1133 27.918ZM65.9063 17.4766L75.6992 19.5011C76.3081 16.5561 75.5592 13.4935 73.6602 11.1617C71.7611 8.82992 68.9136 7.47656 65.9063 7.47656V17.4766ZM54.3477 17.4766H44.3477C44.3477 22.9994 48.8249 27.4766 54.3477 27.4766V17.4766ZM54.3477 12.0625V2.0625C48.8249 2.0625 44.3477 6.53965 44.3477 12.0625L54.3477 12.0625ZM84.7696 34.4492H94.7696C94.7696 28.9264 90.2924 24.4492 84.7696 24.4492V34.4492ZM84.7696 49.7461V59.7461C90.2924 59.7461 94.7696 55.2689 94.7696 49.7461H84.7696ZM77.8516 49.7461H67.8516C67.8516 55.2689 72.3288 59.7461 77.8516 59.7461V49.7461ZM77.8516 39.8633H87.8516C87.8516 34.3404 83.3745 29.8633 77.8516 29.8633V39.8633ZM57.5704 39.8633H47.5704C47.5704 45.3861 52.0475 49.8633 57.5704 49.8633V39.8633ZM57.5704 34.4492V24.4492C52.0475 24.4492 47.5704 28.9264 47.5704 34.4492H57.5704ZM84.7696 10H74.7696V18.8086L84.7696 18.8086H94.7696V10H84.7696ZM84.7696 18.8086V28.8086H89.711V18.8086V8.80859H84.7696V18.8086ZM89.711 18.8086H79.711V24.4805H89.711H99.711V18.8086H89.711ZM89.711 24.4805V14.4805H84.7696V24.4805V34.4805H89.711V24.4805ZM84.7696 24.4805L74.7696 24.4805V32.9453H84.7696H94.7696V24.4805H84.7696ZM84.7696 32.9453V22.9453L77.8516 22.9453V32.9453V42.9453H84.7696V32.9453ZM77.8516 32.9453H87.8516V10H77.8516H67.8516V32.9453H77.8516ZM77.8516 10V20L84.7696 20V10V0H77.8516V10ZM73.4258 12.0625H63.4258C63.4258 15.4618 62.4824 17.5351 61.2026 18.9849C59.8105 20.5618 57.2359 22.2712 52.5893 23.3997L54.9493 33.1172L57.3093 42.8347C64.6939 41.0413 71.3576 37.7019 76.196 32.2211C81.1466 26.6133 83.4258 19.6202 83.4258 12.0625H73.4258ZM54.9493 33.1172L63.7282 28.3287L60.8923 23.1294L52.1133 27.918L43.3344 32.7065L46.1703 37.9057L54.9493 33.1172ZM52.1133 27.918L54.4229 37.6476C64.5197 35.2509 73.6176 29.5702 75.6992 19.5011L65.9063 17.4766L56.1134 15.4521C56.197 15.0476 56.3656 15.2053 55.6409 15.78C54.8285 16.4241 53.0767 17.4114 49.8038 18.1883L52.1133 27.918ZM65.9063 17.4766V7.47656H54.3477V17.4766V27.4766H65.9063V17.4766ZM54.3477 17.4766H64.3477V12.0625H54.3477L44.3477 12.0625V17.4766H54.3477ZM54.3477 12.0625V22.0625H73.4258V12.0625V2.0625L54.3477 2.0625V12.0625ZM84.7696 34.4492H74.7696V49.7461H84.7696H94.7696V34.4492H84.7696ZM84.7696 49.7461V39.7461H77.8516V49.7461V59.7461H84.7696V49.7461ZM77.8516 49.7461H87.8516V39.8633H77.8516H67.8516V49.7461H77.8516ZM77.8516 39.8633V29.8633H57.5704V39.8633V49.8633H77.8516V39.8633ZM57.5704 39.8633H67.5704V34.4492H57.5704H47.5704V39.8633H57.5704ZM57.5704 34.4492V44.4492H84.7696V34.4492V24.4492L57.5704 24.4492V34.4492ZM124.559 10H134.559C134.559 4.47715 130.082 0 124.559 0V10ZM124.559 49.875V59.875C130.082 59.875 134.559 55.3978 134.559 49.875H124.559ZM117.598 49.875H107.598C107.598 55.3978 112.075 59.875 117.598 59.875V49.875ZM117.598 10V0C112.075 0 107.598 4.47715 107.598 10L117.598 10ZM102.731 12.6641L102.661 22.6638C102.708 22.6641 102.755 22.6641 102.801 22.6638L102.731 12.6641ZM102.731 18.8945L102.561 28.8931C102.678 28.8951 102.795 28.895 102.912 28.8929L102.731 18.8945ZM124.559 10H114.559V49.875H124.559H134.559V10H124.559ZM124.559 49.875V39.875H117.598V49.875V59.875H124.559V49.875ZM117.598 49.875H127.598V10H117.598L107.598 10V49.875H117.598ZM117.598 10V20H124.559V10V0L117.598 0V10ZM102.731 12.6641L102.801 22.6638C102.734 22.6643 102.564 22.6406 102.389 22.5508C102.227 22.4681 102.236 22.4198 102.357 22.5782C102.627 22.9327 103.344 24.2334 103.344 26.9727H113.344H123.344C123.344 20.9463 121.783 15.0712 118.261 10.4521C114.614 5.66819 109.081 2.61877 102.66 2.66431L102.731 12.6641ZM113.344 26.9727H103.344C103.344 29.8028 102.614 31.1249 102.344 31.4804C102.224 31.6391 102.213 31.594 102.367 31.5147C102.532 31.4293 102.685 31.4102 102.731 31.4102V41.4102V51.4102C109.104 51.4102 114.623 48.3834 118.274 43.5733C121.796 38.9337 123.344 33.0371 123.344 26.9727H113.344ZM102.731 41.4102V31.4102C102.709 31.4102 102.814 31.4135 102.951 31.483C103.079 31.5479 103.061 31.5815 102.941 31.4265C102.676 31.0816 101.945 29.7839 101.945 26.9727H91.9454H81.9454C81.9454 33.056 83.5138 38.977 87.0939 43.6273C90.8068 48.4498 96.3683 51.4102 102.731 51.4102V41.4102ZM91.9454 26.9727H101.945C101.945 24.2526 102.662 22.9762 102.929 22.632C103.048 22.4774 103.065 22.5139 102.929 22.5822C102.869 22.6127 102.802 22.6363 102.74 22.6507C102.679 22.6649 102.648 22.6637 102.661 22.6638L102.731 12.6641L102.8 2.6643C96.3909 2.6198 90.8156 5.60151 87.1067 10.3982C83.5271 15.0277 81.9454 20.9271 81.9454 26.9727H91.9454ZM102.731 18.8945L102.9 8.89597C97.2684 8.80052 93.0702 12.0746 90.8968 16.1436C89.0559 19.59 88.6055 23.5385 88.6055 26.9727H98.6055H108.606C108.606 26.0559 108.674 25.4897 108.726 25.2055C108.783 24.8993 108.789 25.0966 108.538 25.5664C108.272 26.0649 107.645 26.9904 106.431 27.7722C105.153 28.5955 103.757 28.9134 102.561 28.8931L102.731 18.8945ZM98.6055 26.9727H88.6055C88.6055 30.4271 89.0493 34.3944 90.9047 37.8541C93.1193 41.9836 97.2942 45.0938 102.731 45.0938V35.0938V25.0937C103.841 25.0937 105.176 25.3965 106.423 26.1982C107.62 26.9673 108.252 27.8831 108.53 28.4018C108.789 28.8846 108.785 29.0928 108.728 28.7849C108.675 28.4977 108.606 27.9194 108.606 26.9727H98.6055ZM102.731 35.0938V45.0938C108.33 45.0938 112.381 41.7294 114.457 37.7986C116.256 34.3926 116.727 30.4806 116.727 26.9727H106.727H96.7266C96.7266 27.9039 96.6568 28.4806 96.6027 28.7724C96.5447 29.0842 96.5354 28.9062 96.7726 28.4572C97.0212 27.9865 97.617 27.0851 98.789 26.3005C100.029 25.4703 101.438 25.0937 102.731 25.0937V35.0938ZM106.727 26.9727H116.727C116.727 23.4853 116.25 19.5914 114.465 16.199C112.434 12.3393 108.355 8.79061 102.549 8.89618L102.731 18.8945L102.912 28.8929C101.526 28.9181 100.051 28.5217 98.7811 27.6697C97.5923 26.8723 97.0018 25.9614 96.7649 25.511C96.5355 25.075 96.5463 24.9078 96.6042 25.218C96.6581 25.507 96.7266 26.0715 96.7266 26.9727H106.727ZM170.406 10L180.406 10C180.406 4.47715 175.929 0 170.406 0V10ZM170.406 17.9492H160.406C160.406 23.4721 164.883 27.9492 170.406 27.9492V17.9492ZM175.348 17.9492H185.348C185.348 12.4264 180.871 7.94922 175.348 7.94922V17.9492ZM175.348 23.5781V33.5781C180.871 33.5781 185.348 29.101 185.348 23.5781H175.348ZM170.406 23.5781V13.5781C164.883 13.5781 160.406 18.0553 160.406 23.5781H170.406ZM170.406 29.5078V39.5078C175.929 39.5078 180.406 35.0307 180.406 29.5078H170.406ZM163.488 29.5078H153.488C153.488 35.0307 157.965 39.5078 163.488 39.5078V29.5078ZM163.488 10V0C157.965 0 153.488 4.47715 153.488 10H163.488ZM158.977 12.4062H168.977C168.977 6.8834 164.499 2.40625 158.977 2.40625V12.4062ZM158.977 29.207V39.207C164.499 39.207 168.977 34.7299 168.977 29.207H158.977ZM139.469 29.207H129.469C129.469 34.7299 133.946 39.207 139.469 39.207V29.207ZM139.469 12.4062V2.40625C133.946 2.40625 129.469 6.8834 129.469 12.4062H139.469ZM146.301 17.7344V7.73437C140.778 7.73437 136.301 12.2115 136.301 17.7344H146.301ZM146.301 23.8359H136.301C136.301 29.3588 140.778 33.8359 146.301 33.8359V23.8359ZM152.145 23.8359V33.8359C157.667 33.8359 162.145 29.3588 162.145 23.8359H152.145ZM152.145 17.7344H162.145C162.145 12.2115 157.667 7.73437 152.145 7.73437V17.7344ZM148.492 32.6445H158.492C158.492 27.1217 154.015 22.6445 148.492 22.6445V32.6445ZM148.492 43.0859L138.492 43.0859C138.492 45.8549 139.64 48.5 141.663 50.3909C143.686 52.2819 146.402 53.2495 149.165 53.0633L148.492 43.0859ZM153.606 42.1406L163.449 40.3799C162.943 37.5487 161.242 35.0725 158.781 33.584C156.32 32.0955 153.337 31.7387 150.594 32.6048L153.606 42.1406ZM154.551 47.4258L158.15 56.7558C162.619 55.0319 165.238 50.3806 164.395 45.6651L154.551 47.4258ZM141.746 48.7148H131.746C131.746 54.2377 136.223 58.7148 141.746 58.7148V48.7148ZM141.746 32.6445V22.6445C136.223 22.6445 131.746 27.1217 131.746 32.6445H141.746ZM173.156 33.0742H183.156C183.156 27.5514 178.679 23.0742 173.156 23.0742V33.0742ZM173.156 37.8867V47.8867C178.679 47.8867 183.156 43.4096 183.156 37.8867H173.156ZM153.219 37.8867H143.219C143.219 43.4096 147.696 47.8867 153.219 47.8867V37.8867ZM153.219 33.0742V23.0742C147.696 23.0742 143.219 27.5514 143.219 33.0742H153.219ZM159.922 33.0742V43.0742C165.445 43.0742 169.922 38.5971 169.922 33.0742H159.922ZM159.922 30.582V20.582C154.399 20.582 149.922 25.0592 149.922 30.582H159.922ZM166.582 30.582H176.582C176.582 25.0592 172.105 20.582 166.582 20.582V30.582ZM166.582 33.0742H156.582C156.582 38.5971 161.059 43.0742 166.582 43.0742V33.0742ZM171.051 44.2461L181.05 44.3743C181.051 44.2904 181.051 44.2065 181.05 44.1226L171.051 44.2461ZM163.145 45.2773L162.71 55.2679C163 55.2805 163.29 55.2805 163.579 55.2679L163.145 45.2773ZM170.406 10H160.406V17.9492H170.406H180.406V10L170.406 10ZM170.406 17.9492V27.9492H175.348V17.9492V7.94922L170.406 7.94922V17.9492ZM175.348 17.9492H165.348V23.5781H175.348H185.348V17.9492H175.348ZM175.348 23.5781V13.5781H170.406V23.5781V33.5781H175.348V23.5781ZM170.406 23.5781H160.406V29.5078H170.406H180.406V23.5781H170.406ZM170.406 29.5078V19.5078H163.488V29.5078V39.5078H170.406V29.5078ZM163.488 29.5078H173.488V10H163.488H153.488V29.5078H163.488ZM163.488 10V20H170.406V10V0L163.488 0V10ZM158.977 12.4062H148.977V29.207H158.977H168.977V12.4062H158.977ZM158.977 29.207V19.207H139.469V29.207V39.207L158.977 39.207V29.207ZM139.469 29.207L149.469 29.207V12.4062H139.469H129.469V29.207H139.469ZM139.469 12.4062V22.4062H158.977V12.4062V2.40625L139.469 2.40625V12.4062ZM146.301 17.7344H136.301V23.8359H146.301H156.301V17.7344H146.301ZM146.301 23.8359V33.8359H152.145V23.8359V13.8359H146.301V23.8359ZM152.145 23.8359H162.145V17.7344H152.145H142.145V23.8359H152.145ZM152.145 17.7344V7.73437H146.301V17.7344V27.7344H152.145V17.7344ZM148.492 32.6445L138.492 32.6445V43.0859L148.492 43.0859H158.492V32.6445H148.492ZM148.492 43.0859L149.165 53.0633C151.841 52.8829 154.197 52.4407 156.617 51.6765L153.606 42.1406L150.594 32.6048C149.749 32.8718 148.967 33.0312 147.82 33.1086L148.492 43.0859ZM153.606 42.1406L143.762 43.9013L144.707 49.1865L154.551 47.4258L164.395 45.6651L163.449 40.3799L153.606 42.1406ZM154.551 47.4258L150.952 38.0958C149.867 38.5144 148.742 38.7148 144.152 38.7148V48.7148V58.7148C148.672 58.7148 153.219 58.6575 158.15 56.7558L154.551 47.4258ZM144.152 48.7148V38.7148L141.746 38.7148V48.7148V58.7148L144.152 58.7148V48.7148ZM141.746 48.7148L151.746 48.7148V32.6445L141.746 32.6445H131.746V48.7148H141.746ZM141.746 32.6445V42.6445L148.492 42.6445V32.6445V22.6445H141.746V32.6445ZM173.156 33.0742H163.156V37.8867H173.156H183.156V33.0742H173.156ZM173.156 37.8867V27.8867H153.219V37.8867V47.8867H173.156V37.8867ZM153.219 37.8867H163.219V33.0742H153.219H143.219V37.8867H153.219ZM153.219 33.0742V43.0742H159.922V33.0742V23.0742H153.219V33.0742ZM159.922 33.0742H169.922V30.582H159.922H149.922V33.0742H159.922ZM159.922 30.582V40.582H166.582V30.582V20.582H159.922V30.582ZM166.582 30.582H156.582V33.0742H166.582H176.582V30.582H166.582ZM166.582 33.0742V43.0742H173.156V33.0742V23.0742H166.582V33.0742ZM163.145 38.6602V48.6602C164.141 48.6602 163.916 48.9043 163.138 48.3641C162.699 48.0601 162.137 47.53 161.691 46.7199C161.237 45.8934 161.06 45.0537 161.052 44.3695L171.051 44.2461L181.05 44.1226C180.986 38.9404 178.406 34.615 174.538 31.9318C170.988 29.4688 166.832 28.6602 163.145 28.6602V38.6602ZM171.051 44.2461L161.052 44.1179C161.062 43.3393 161.269 42.4569 161.734 41.6275C162.187 40.8205 162.745 40.3076 163.159 40.0218C163.902 39.5096 164.097 39.7461 163.145 39.7461V49.7461V59.7461C166.876 59.7461 171.003 58.9084 174.517 56.484C178.302 53.8724 180.983 49.6049 181.05 44.3743L171.051 44.2461ZM163.145 49.7461V39.7461C162.148 39.7461 162.369 39.5003 163.149 40.0426C163.585 40.3458 164.161 40.8841 164.619 41.7211C165.088 42.5787 165.281 43.4757 165.281 44.2461H155.281H145.281C145.281 49.4747 147.905 53.8029 151.732 56.4633C155.262 58.9177 159.414 59.7461 163.145 59.7461V49.7461ZM155.281 44.2461H165.281C165.281 44.9212 165.117 45.7738 164.66 46.6269C164.211 47.4659 163.631 48.0215 163.171 48.3433C162.355 48.9136 162.105 48.6602 163.145 48.6602V38.6602V28.6602C159.458 28.6602 155.276 29.4595 151.71 31.9526C147.802 34.685 145.281 39.0701 145.281 44.2461H155.281ZM163.145 43.2148V33.2148C162.296 33.2148 159.936 33.2436 157.482 34.4498C156.079 35.1396 154.414 36.3276 153.141 38.2804C151.843 40.2723 151.383 42.4009 151.383 44.2461H161.383H171.383C171.383 45.6831 171.019 47.4787 169.897 49.2007C168.8 50.8836 167.391 51.8648 166.304 52.3988C165.276 52.9045 164.412 53.0767 163.989 53.1423C163.538 53.2125 163.228 53.2148 163.145 53.2148V43.2148ZM161.383 44.2461H151.383C151.383 46.195 151.901 48.3637 153.245 50.3435C154.538 52.2486 156.182 53.3711 157.482 54.0101C159.761 55.1306 161.966 55.2355 162.71 55.2679L163.145 45.2773L163.579 35.2868C163.606 35.2879 163.854 35.298 164.233 35.3667C164.583 35.4299 165.361 35.5975 166.304 36.0612C167.288 36.5444 168.676 37.4655 169.793 39.1114C170.961 40.8321 171.383 42.6839 171.383 44.2461H161.383ZM163.145 45.2773L163.579 55.2679C164.323 55.2355 166.528 55.1306 168.807 54.0101C170.107 53.3711 171.751 52.2486 173.044 50.3435C174.388 48.3637 174.906 46.195 174.906 44.2461H164.906H154.906C154.906 42.6839 155.328 40.8321 156.496 39.1114C157.613 37.4655 159.002 36.5444 159.985 36.0612C160.928 35.5975 161.707 35.4299 162.056 35.3667C162.436 35.298 162.683 35.2879 162.71 35.2868L163.145 45.2773ZM164.906 44.2461H174.906C174.906 42.4009 174.446 40.2723 173.148 38.2804C171.875 36.3276 170.21 35.1396 168.807 34.4498C166.353 33.2436 163.993 33.2148 163.145 33.2148V43.2148V53.2148C163.061 53.2148 162.751 53.2125 162.3 53.1423C161.878 53.0767 161.014 52.9045 159.985 52.3988C158.899 51.8648 157.489 50.8836 156.392 49.2007C155.27 47.4787 154.906 45.6831 154.906 44.2461H164.906ZM212.902 29.9375H222.902C222.902 24.4147 218.425 19.9375 212.902 19.9375V29.9375ZM212.902 35.3516V45.3516C218.425 45.3516 222.902 40.8744 222.902 35.3516H212.902ZM176.637 35.3516H166.637C166.637 40.8744 171.114 45.3516 176.637 45.3516V35.3516ZM176.637 29.9375V19.9375C171.114 19.9375 166.637 24.4147 166.637 29.9375H176.637ZM208.691 43.6875H218.691C218.691 38.1647 214.214 33.6875 208.691 33.6875V43.6875ZM208.691 49.1875V59.1875C214.214 59.1875 218.691 54.7103 218.691 49.1875H208.691ZM180.805 49.1875H170.805C170.805 54.7103 175.282 59.1875 180.805 59.1875V49.1875ZM180.805 37.5V27.5C175.282 27.5 170.805 31.9772 170.805 37.5H180.805ZM187.723 37.5H197.723C197.723 31.9772 193.246 27.5 187.723 27.5V37.5ZM187.723 43.6875H177.723C177.723 49.2103 182.2 53.6875 187.723 53.6875V43.6875ZM209.465 19.4102L219.465 19.4928C219.465 19.4372 219.465 19.3817 219.465 19.3261L209.465 19.4102ZM180.031 19.4102L190.031 19.4928C190.031 19.4372 190.031 19.3817 190.031 19.3261L180.031 19.4102ZM194.77 16.5312L194.857 6.53163C194.799 6.53113 194.741 6.53112 194.683 6.53162L194.77 16.5312ZM187.207 19.4102L197.205 19.6184C197.208 19.475 197.208 19.3315 197.205 19.188L187.207 19.4102ZM194.77 22.2461L194.857 12.2465C194.799 12.246 194.741 12.246 194.683 12.2465L194.77 22.2461ZM212.902 29.9375H202.902V35.3516H212.902H222.902V29.9375H212.902ZM212.902 35.3516V25.3516L176.637 25.3516V35.3516V45.3516H212.902V35.3516ZM176.637 35.3516H186.637V29.9375H176.637H166.637V35.3516H176.637ZM176.637 29.9375V39.9375H212.902V29.9375V19.9375L176.637 19.9375V29.9375ZM208.691 43.6875H198.691V49.1875H208.691H218.691V43.6875H208.691ZM208.691 49.1875V39.1875H180.805V49.1875V59.1875H208.691V49.1875ZM180.805 49.1875H190.805V37.5H180.805H170.805V49.1875H180.805ZM180.805 37.5V47.5H187.723V37.5V27.5H180.805V37.5ZM187.723 37.5H177.723V43.6875H187.723H197.723V37.5H187.723ZM187.723 43.6875V53.6875H208.691V43.6875V33.6875H187.723V43.6875ZM194.77 11.1172V21.1172C198.131 21.1172 199.936 21.7555 200.519 22.0809C200.753 22.2112 200.482 22.1183 200.126 21.5982C199.72 21.0039 199.471 20.2325 199.465 19.4942L209.465 19.4102L219.465 19.3261C219.405 12.2408 215.062 7.28992 210.257 4.61151C205.695 2.06871 200.173 1.11719 194.77 1.11719V11.1172ZM209.465 19.4102L199.465 19.3275C199.471 18.6476 199.698 17.9154 200.085 17.3389C200.426 16.8323 200.689 16.7399 200.464 16.8672C199.896 17.1886 198.114 17.832 194.77 17.832V27.832V37.832C200.19 37.832 205.735 36.8641 210.312 34.2744C215.152 31.5366 219.406 26.5412 219.465 19.4928L209.465 19.4102ZM194.77 27.832V17.832C191.363 17.832 189.548 17.1821 188.974 16.8584C188.747 16.7309 189.034 16.8348 189.394 17.3762C189.806 17.9944 190.037 18.7752 190.031 19.4928L180.031 19.4102L170.032 19.3275C169.972 26.487 174.294 31.5434 179.156 34.2832C183.749 36.8706 189.325 37.832 194.77 37.832V27.832ZM180.031 19.4102L190.031 19.3261C190.037 20.1031 189.784 20.9243 189.354 21.5609C188.978 22.1159 188.683 22.2202 188.918 22.0895C189.509 21.7618 191.346 21.1172 194.77 21.1172V11.1172V1.11719C189.341 1.11719 183.788 2.06243 179.212 4.6029C174.385 7.28237 169.971 12.2948 170.032 19.4942L180.031 19.4102ZM194.77 16.5312L194.683 6.53162C191.893 6.55568 188.57 6.79251 185.622 7.8871C184.089 8.45626 181.978 9.5024 180.196 11.5061C178.207 13.7437 177.142 16.6133 177.21 19.6323L187.207 19.4102L197.205 19.188C197.25 21.2402 196.497 23.2719 195.143 24.7951C193.997 26.0845 192.844 26.5398 192.584 26.6363C192.272 26.7523 192.26 26.7088 192.746 26.6467C193.195 26.5893 193.882 26.5393 194.856 26.5309L194.77 16.5312ZM187.207 19.4102L177.209 19.2019C177.149 22.073 178.095 24.9534 180.117 27.284C181.942 29.3863 184.134 30.4592 185.727 31.0306C188.744 32.1125 192.127 32.2692 194.856 32.2457L194.77 22.2461L194.683 12.2465C193.693 12.255 193.004 12.218 192.559 12.1696C192.072 12.1168 192.119 12.0757 192.479 12.2048C192.799 12.3196 194.033 12.8044 195.222 14.1749C196.61 15.7736 197.243 17.7785 197.205 19.6184L187.207 19.4102ZM194.77 22.2461L194.682 32.2457C197.392 32.2695 200.746 32.1084 203.751 31.0351C205.334 30.47 207.487 29.4207 209.303 27.385C211.311 25.1327 212.332 22.3066 212.332 19.4102L202.332 19.4102H192.332C192.332 17.5449 193.02 15.5943 194.376 14.0739C195.539 12.77 196.72 12.3089 197.024 12.2003C197.367 12.0777 197.405 12.1185 196.93 12.1705C196.493 12.2183 195.82 12.2549 194.857 12.2465L194.77 22.2461ZM202.332 19.4102L212.332 19.4102C212.332 16.3715 211.192 13.5618 209.222 11.406C207.452 9.46789 205.378 8.44528 203.856 7.88233C200.921 6.79719 197.627 6.55593 194.857 6.53163L194.77 16.5312L194.682 26.5309C195.628 26.5392 196.3 26.5886 196.741 26.6454C197.217 26.7067 197.215 26.7503 196.92 26.6411C196.676 26.5508 195.574 26.119 194.456 24.8953C193.139 23.4538 192.332 21.482 192.332 19.4102H202.332Z" fill="white" mask="url(#path-1-outside-1_3990_1504)"/>
</g>
<defs>
<filter id="filter0_d_3990_1504" x="0" y="0" width="226.902" height="67.875" filterUnits="userSpaceOnUse" color-interpolation-filters="sRGB">
<feFlood flood-opacity="0" result="BackgroundImageFix"/>
<feColorMatrix in="SourceAlpha" type="matrix" values="0 0 0 0 0 0 0 0 0 0 0 0 0 0 0 0 0 0 127 0" result="hardAlpha"/>
<feOffset dy="4"/>
<feGaussianBlur stdDeviation="2"/>
<feComposite in2="hardAlpha" operator="out"/>
<feColorMatrix type="matrix" values="0 0 0 0 0 0 0 0 0 0 0 0 0 0 0 0 0 0 0.07 0"/>
<feBlend mode="normal" in2="BackgroundImageFix" result="effect1_dropShadow_3990_1504"/>
<feBlend mode="normal" in="SourceGraphic" in2="effect1_dropShadow_3990_1504" result="shape"/>
</filter>
</defs>
</svg>
