<svg width="142" height="68" viewBox="0 0 142 68" fill="none" xmlns="http://www.w3.org/2000/svg">
<g filter="url(#filter0_d_3990_1403)">
<mask id="path-1-outside-1_3990_1403" maskUnits="userSpaceOnUse" x="3.69927" y="-0.507813" width="134" height="61" fill="black">
<rect fill="white" x="3.69927" y="-0.507813" width="134" height="61"/>
<path d="M30.4571 14.8984C30.4571 20.0117 32.3477 24.8672 39.0938 26.8438L35.4844 32.2148C31.3809 30.8613 28.7168 28.4336 27.1055 25.2539C25.3438 29.0137 22.293 31.9785 17.6524 33.4609L14 27.9609C21.3047 25.7695 23.4532 20.3984 23.4961 15.2422V11.9766H30.4571V14.8984ZM48.418 10V33.1602H41.543V22.1172H35.0118V16.5312H41.543V10L48.418 10ZM34.5821 34.1055C43.2188 34.1055 48.504 37.0273 48.504 41.9688C48.504 46.9531 43.2188 49.832 34.5821 49.832C26.0313 49.832 20.7461 46.9531 20.7461 41.9688C20.7461 37.0273 26.0313 34.1055 34.5821 34.1055ZM34.5821 39.3906C29.8555 39.3906 27.5782 40.1211 27.6211 41.9688C27.5782 43.7305 29.8555 44.5039 34.5821 44.5039C39.3516 44.5039 41.6719 43.7305 41.6719 41.9688C41.6719 40.1211 39.3516 39.3906 34.5821 39.3906ZM86.1016 10V29.8086H79.2266V10H86.1016ZM86.1446 31.3984V42.9141H65.8204V44.2461H87.004V49.5742H59.0743V37.9297H79.2696V36.6406H58.9883V31.3984H86.1446ZM68.5704 13.7812C68.5274 18.1211 70.5469 22.5039 77.4219 24.3516L74.1133 29.6367C69.6875 28.4551 66.7657 26.0488 65.004 22.9336C63.1993 26.3496 60.1485 29.0352 55.5079 30.2812L52.1563 24.9102C59.2032 22.9766 61.3516 18.1641 61.3946 13.7812V10.7305H68.5704V13.7812ZM122.453 10.0859V21.6875H127.395V27.2734H122.453V39.6914H115.535V10.0859H122.453ZM114.117 13.8242V19.1523H90.6133V13.8242H98.9063V10H105.824V13.8242H114.117ZM102.344 20.0547C108.145 20.0547 112.27 23.2773 112.27 27.918C112.27 32.5586 108.145 35.6953 102.344 35.6523C96.5 35.6953 92.3321 32.5586 92.3321 27.918C92.3321 23.2773 96.5 20.0547 102.344 20.0547ZM102.344 25.2539C100.367 25.2969 99.0782 26.1133 99.0782 27.918C99.0782 29.7227 100.367 30.4961 102.344 30.4961C104.363 30.4961 105.738 29.7227 105.738 27.918C105.738 26.1133 104.363 25.2969 102.344 25.2539ZM123.613 43.6875V49.1875H96.1133V37.457H103.031V43.6875H123.613Z"/>
</mask>
<path d="M30.4571 14.8984C30.4571 20.0117 32.3477 24.8672 39.0938 26.8438L35.4844 32.2148C31.3809 30.8613 28.7168 28.4336 27.1055 25.2539C25.3438 29.0137 22.293 31.9785 17.6524 33.4609L14 27.9609C21.3047 25.7695 23.4532 20.3984 23.4961 15.2422V11.9766H30.4571V14.8984ZM48.418 10V33.1602H41.543V22.1172H35.0118V16.5312H41.543V10L48.418 10ZM34.5821 34.1055C43.2188 34.1055 48.504 37.0273 48.504 41.9688C48.504 46.9531 43.2188 49.832 34.5821 49.832C26.0313 49.832 20.7461 46.9531 20.7461 41.9688C20.7461 37.0273 26.0313 34.1055 34.5821 34.1055ZM34.5821 39.3906C29.8555 39.3906 27.5782 40.1211 27.6211 41.9688C27.5782 43.7305 29.8555 44.5039 34.5821 44.5039C39.3516 44.5039 41.6719 43.7305 41.6719 41.9688C41.6719 40.1211 39.3516 39.3906 34.5821 39.3906ZM86.1016 10V29.8086H79.2266V10H86.1016ZM86.1446 31.3984V42.9141H65.8204V44.2461H87.004V49.5742H59.0743V37.9297H79.2696V36.6406H58.9883V31.3984H86.1446ZM68.5704 13.7812C68.5274 18.1211 70.5469 22.5039 77.4219 24.3516L74.1133 29.6367C69.6875 28.4551 66.7657 26.0488 65.004 22.9336C63.1993 26.3496 60.1485 29.0352 55.5079 30.2812L52.1563 24.9102C59.2032 22.9766 61.3516 18.1641 61.3946 13.7812V10.7305H68.5704V13.7812ZM122.453 10.0859V21.6875H127.395V27.2734H122.453V39.6914H115.535V10.0859H122.453ZM114.117 13.8242V19.1523H90.6133V13.8242H98.9063V10H105.824V13.8242H114.117ZM102.344 20.0547C108.145 20.0547 112.27 23.2773 112.27 27.918C112.27 32.5586 108.145 35.6953 102.344 35.6523C96.5 35.6953 92.3321 32.5586 92.3321 27.918C92.3321 23.2773 96.5 20.0547 102.344 20.0547ZM102.344 25.2539C100.367 25.2969 99.0782 26.1133 99.0782 27.918C99.0782 29.7227 100.367 30.4961 102.344 30.4961C104.363 30.4961 105.738 29.7227 105.738 27.918C105.738 26.1133 104.363 25.2969 102.344 25.2539ZM123.613 43.6875V49.1875H96.1133V37.457H103.031V43.6875H123.613Z" fill="#11DCA9"/>
<path d="M39.0938 26.8438L47.3938 32.4214C49.1719 29.7754 49.5819 26.4403 48.4976 23.4425C47.4134 20.4447 44.9648 18.1435 41.9055 17.2472L39.0938 26.8438ZM35.4844 32.2148L32.352 41.7116C36.6105 43.1162 41.2833 41.5143 43.7844 37.7925L35.4844 32.2148ZM27.1055 25.2539L36.0255 20.7336C34.297 17.3227 30.7747 15.1961 26.9513 15.2551C23.1278 15.3141 19.6728 17.5483 18.0503 21.0109L27.1055 25.2539ZM17.6524 33.4609L9.32189 38.9929C11.7945 42.7163 16.4377 44.3468 20.6953 42.9867L17.6524 33.4609ZM14 27.9609L11.1266 18.3827C8.09329 19.2927 5.67031 21.5856 4.59462 24.5642C3.51892 27.5427 3.91766 30.8548 5.66955 33.4929L14 27.9609ZM23.4961 15.2422L33.4958 15.3255C33.496 15.2977 33.4961 15.27 33.4961 15.2422H23.4961ZM23.4961 11.9766V1.97656C17.9733 1.97656 13.4961 6.45372 13.4961 11.9766H23.4961ZM30.4571 11.9766H40.4571C40.4571 6.45372 35.9799 1.97656 30.4571 1.97656V11.9766ZM48.418 10H58.418C58.418 4.47715 53.9409 0 48.418 0V10ZM48.418 33.1602V43.1602C53.9409 43.1602 58.418 38.683 58.418 33.1602H48.418ZM41.543 33.1602H31.543C31.543 38.683 36.0202 43.1602 41.543 43.1602V33.1602ZM41.543 22.1172H51.543C51.543 16.5943 47.0659 12.1172 41.543 12.1172V22.1172ZM35.0118 22.1172H25.0118C25.0118 27.64 29.4889 32.1172 35.0118 32.1172V22.1172ZM35.0118 16.5312V6.53125C29.4889 6.53125 25.0118 11.0084 25.0118 16.5312H35.0118ZM41.543 16.5312V26.5312C47.0659 26.5312 51.543 22.0541 51.543 16.5312H41.543ZM41.543 10V0C36.0202 0 31.543 4.47715 31.543 10H41.543ZM27.6211 41.9688L37.6182 42.2126C37.622 42.0538 37.6221 41.895 37.6184 41.7363L27.6211 41.9688ZM30.4571 14.8984H20.4571C20.4571 18.5877 21.1256 23.134 23.7718 27.3571C26.5531 31.7959 30.8794 34.8574 36.2821 36.4403L39.0938 26.8438L41.9055 17.2472C41.1637 17.0298 40.8401 16.8184 40.7527 16.7553C40.6816 16.704 40.6991 16.705 40.7195 16.7376C40.7339 16.7606 40.4571 16.3225 40.4571 14.8984H30.4571ZM39.0938 26.8438L30.7938 21.2661L27.1844 26.6372L35.4844 32.2148L43.7844 37.7925L47.3938 32.4214L39.0938 26.8438ZM35.4844 32.2148L38.6169 22.7181C37.6634 22.4036 37.1375 22.0553 36.8377 21.8005C36.5433 21.5502 36.2763 21.2285 36.0255 20.7336L27.1055 25.2539L18.1855 29.7742C21.0283 35.3839 25.8141 39.5551 32.352 41.7116L35.4844 32.2148ZM27.1055 25.2539L18.0503 21.0109C17.4182 22.3599 16.4841 23.3363 14.6094 23.9352L17.6524 33.4609L20.6953 42.9867C28.1019 40.6207 33.2694 35.6675 36.1607 29.4969L27.1055 25.2539ZM17.6524 33.4609L25.9829 27.929L22.3305 22.429L14 27.9609L5.66955 33.4929L9.32189 38.9929L17.6524 33.4609ZM14 27.9609L16.8735 37.5392C22.5672 35.8311 27.0044 32.5928 29.8798 28.126C32.6437 23.8322 33.4636 19.189 33.4958 15.3255L23.4961 15.2422L13.4965 15.1589C13.4857 16.4516 13.2099 17.0721 13.0627 17.3008C12.9974 17.4022 12.8978 17.5271 12.6853 17.6813C12.4623 17.8432 11.9968 18.1216 11.1266 18.3827L14 27.9609ZM23.4961 15.2422H33.4961V11.9766H23.4961H13.4961V15.2422H23.4961ZM23.4961 11.9766V21.9766H30.4571V11.9766V1.97656L23.4961 1.97656V11.9766ZM30.4571 11.9766H20.4571V14.8984H30.4571H40.4571V11.9766H30.4571ZM48.418 10L38.418 10V33.1602H48.418H58.418V10H48.418ZM48.418 33.1602V23.1602H41.543V33.1602V43.1602H48.418V33.1602ZM41.543 33.1602H51.543V22.1172H41.543H31.543V33.1602H41.543ZM41.543 22.1172V12.1172H35.0118V22.1172V32.1172H41.543V22.1172ZM35.0118 22.1172H45.0118V16.5312H35.0118H25.0118V22.1172H35.0118ZM35.0118 16.5312V26.5312H41.543V16.5312V6.53125H35.0118V16.5312ZM41.543 16.5312H51.543V10L41.543 10H31.543V16.5312H41.543ZM41.543 10V20H48.418V10V0H41.543V10ZM34.5821 34.1055V44.1055C36.1961 44.1055 37.458 44.2436 38.3896 44.4348C39.3382 44.6296 39.7838 44.8463 39.8857 44.9035C39.971 44.9514 39.5791 44.7512 39.1615 44.1096C38.7027 43.4045 38.504 42.6082 38.504 41.9688H48.504H58.504C58.504 35.1815 54.5683 30.2108 49.6779 27.4647C45.2069 24.9541 39.8063 24.1055 34.5821 24.1055V34.1055ZM48.504 41.9688H38.504C38.504 41.3567 38.6938 40.5662 39.1564 39.854C39.5782 39.2044 39.9787 38.9981 39.9005 39.0418C39.8039 39.0959 39.3609 39.3111 38.408 39.5049C37.4726 39.6952 36.2049 39.832 34.5821 39.832V49.832V59.832C39.7833 59.832 45.1856 59.0014 49.6631 56.4973C54.5871 53.7433 58.504 48.7584 58.504 41.9688H48.504ZM34.5821 49.832V39.832C32.9865 39.832 31.7393 39.6961 30.8194 39.5077C29.8824 39.3158 29.448 39.1031 29.3555 39.0512C29.2812 39.0094 29.6791 39.2162 30.0977 39.8621C30.5566 40.5703 30.7461 41.357 30.7461 41.9688H20.7461H10.7461C10.7461 48.7508 14.6544 53.7322 19.5596 56.4879C24.0261 58.9972 29.4101 59.832 34.5821 59.832V49.832ZM20.7461 41.9688H30.7461C30.7461 42.6078 30.5477 43.4005 30.0925 44.1015C29.6782 44.7394 29.2888 44.9401 29.3704 44.8941C29.4681 44.839 29.9052 44.6249 30.838 44.432C31.754 44.2426 32.9955 44.1055 34.5821 44.1055V34.1055V24.1055C29.3869 24.1055 24.0046 24.9585 19.5447 27.4741C14.6732 30.2219 10.7461 35.1891 10.7461 41.9688H20.7461ZM34.5821 39.3906V29.3906C32.048 29.3906 28.8221 29.5407 25.9414 30.5724C24.4054 31.1224 22.2351 32.1758 20.4323 34.2798C18.4302 36.6165 17.56 39.4575 17.6238 42.2012L27.6211 41.9688L37.6184 41.7363C37.6608 43.5562 37.0592 45.613 35.6196 47.2931C34.3795 48.7404 33.0658 49.2648 32.6847 49.4013C32.2669 49.5509 32.1572 49.5215 32.597 49.4727C32.9937 49.4286 33.6319 49.3906 34.5821 49.3906V39.3906ZM27.6211 41.9688L17.6241 41.7249C17.5545 44.5775 18.5083 47.4255 20.5129 49.7076C22.3048 51.7475 24.4377 52.7729 25.9414 53.3114C28.7969 54.3341 31.9931 54.5039 34.5821 54.5039V44.5039V34.5039C33.6492 34.5039 33.0185 34.4645 32.627 34.4199C32.1949 34.3706 32.2885 34.3406 32.6847 34.4825C33.0336 34.6075 34.3098 35.1092 35.5391 36.5086C36.981 38.1502 37.6663 40.2408 37.6182 42.2126L27.6211 41.9688ZM34.5821 44.5039V54.5039C37.1991 54.5039 40.3858 54.3317 43.2325 53.3308C44.7268 52.8055 46.8298 51.8135 48.6237 49.8464C50.6295 47.647 51.6719 44.8516 51.6719 41.9688H41.6719H31.6719C31.6719 39.9667 32.4243 37.9287 33.846 36.3698C35.0558 35.0432 36.2806 34.5749 36.5986 34.4631C36.9648 34.3344 37.0305 34.3679 36.5829 34.4184C36.174 34.4644 35.5275 34.5039 34.5821 34.5039V44.5039ZM41.6719 41.9688H51.6719C51.6719 39.1918 50.715 36.3978 48.7064 34.14C46.8993 32.1085 44.7579 31.0893 43.2325 30.5529C40.3608 29.5433 37.1449 29.3906 34.5821 29.3906V39.3906V49.3906C35.5445 49.3906 36.1985 49.4287 36.6125 49.4741C37.0677 49.524 36.9862 49.5569 36.5986 49.4207C36.2495 49.2979 34.9863 48.8077 33.7633 47.4329C32.3389 45.8317 31.6719 43.8219 31.6719 41.9688H41.6719ZM86.1016 10H96.1016C96.1016 4.47715 91.6245 0 86.1016 0V10ZM86.1016 29.8086V39.8086C91.6245 39.8086 96.1016 35.3314 96.1016 29.8086H86.1016ZM79.2266 29.8086H69.2266C69.2266 35.3314 73.7038 39.8086 79.2266 39.8086V29.8086ZM79.2266 10V0C73.7038 0 69.2266 4.47715 69.2266 10H79.2266ZM86.1446 31.3984H96.1446C96.1446 25.8756 91.6674 21.3984 86.1446 21.3984V31.3984ZM86.1446 42.9141V52.9141C91.6674 52.9141 96.1446 48.4369 96.1446 42.9141H86.1446ZM65.8204 42.9141V32.9141C60.2975 32.9141 55.8204 37.3912 55.8204 42.9141H65.8204ZM65.8204 44.2461H55.8204C55.8204 49.7689 60.2975 54.2461 65.8204 54.2461V44.2461ZM87.004 44.2461H97.004C97.004 38.7232 92.5268 34.2461 87.004 34.2461V44.2461ZM87.004 49.5742V59.5742C92.5268 59.5742 97.004 55.0971 97.004 49.5742H87.004ZM59.0743 49.5742H49.0743C49.0743 55.0971 53.5514 59.5742 59.0743 59.5742V49.5742ZM59.0743 37.9297V27.9297C53.5514 27.9297 49.0743 32.4068 49.0743 37.9297H59.0743ZM79.2696 37.9297V47.9297C84.7924 47.9297 89.2696 43.4525 89.2696 37.9297H79.2696ZM79.2696 36.6406H89.2696C89.2696 31.1178 84.7924 26.6406 79.2696 26.6406V36.6406ZM58.9883 36.6406H48.9883C48.9883 42.1635 53.4655 46.6406 58.9883 46.6406V36.6406ZM58.9883 31.3984V21.3984C53.4655 21.3984 48.9883 25.8756 48.9883 31.3984H58.9883ZM68.5704 13.7812L78.5699 13.8803C78.5702 13.8473 78.5704 13.8143 78.5704 13.7812L68.5704 13.7812ZM77.4219 24.3516L85.898 29.6577C87.5803 26.9704 87.8886 23.6446 86.729 20.6939C85.5693 17.7431 83.0791 15.5171 80.0173 14.6942L77.4219 24.3516ZM74.1133 29.6367L71.5338 39.2983C75.7755 40.4308 80.2599 38.6642 82.5894 34.9429L74.1133 29.6367ZM65.004 22.9336L73.7085 18.011C71.9089 14.8288 68.5162 12.8823 64.8607 12.9346C61.2053 12.987 57.8697 15.0299 56.162 18.2624L65.004 22.9336ZM55.5079 30.2812L47.0241 35.5751C49.3539 39.3088 53.8508 41.0804 58.1012 39.9391L55.5079 30.2812ZM52.1563 24.9102L49.5102 15.2666C46.4642 16.1024 43.992 18.3282 42.8423 21.2702C41.6926 24.2121 42.0004 27.5243 43.6725 30.204L52.1563 24.9102ZM61.3946 13.7812L71.3941 13.8793C71.3944 13.8466 71.3946 13.8139 71.3946 13.7812H61.3946ZM61.3946 10.7305V0.730469C55.8717 0.730469 51.3946 5.20762 51.3946 10.7305H61.3946ZM68.5704 10.7305H78.5704C78.5704 5.20762 74.0932 0.730469 68.5704 0.730469V10.7305ZM86.1016 10H76.1016V29.8086H86.1016H96.1016V10H86.1016ZM86.1016 29.8086V19.8086H79.2266V29.8086V39.8086H86.1016V29.8086ZM79.2266 29.8086H89.2266V10H79.2266H69.2266V29.8086H79.2266ZM79.2266 10V20H86.1016V10V0L79.2266 0V10ZM86.1446 31.3984H76.1446V42.9141H86.1446H96.1446V31.3984H86.1446ZM86.1446 42.9141V32.9141H65.8204V42.9141V52.9141H86.1446V42.9141ZM65.8204 42.9141H55.8204V44.2461H65.8204H75.8204V42.9141H65.8204ZM65.8204 44.2461V54.2461H87.004V44.2461V34.2461H65.8204V44.2461ZM87.004 44.2461H77.004V49.5742H87.004H97.004V44.2461H87.004ZM87.004 49.5742V39.5742H59.0743V49.5742V59.5742H87.004V49.5742ZM59.0743 49.5742H69.0743V37.9297H59.0743H49.0743V49.5742H59.0743ZM59.0743 37.9297V47.9297H79.2696V37.9297V27.9297L59.0743 27.9297V37.9297ZM79.2696 37.9297H89.2696V36.6406H79.2696H69.2696V37.9297H79.2696ZM79.2696 36.6406V26.6406L58.9883 26.6406V36.6406V46.6406H79.2696V36.6406ZM58.9883 36.6406H68.9883V31.3984H58.9883H48.9883V36.6406H58.9883ZM58.9883 31.3984V41.3984H86.1446V31.3984V21.3984L58.9883 21.3984V31.3984ZM68.5704 13.7812L58.5708 13.6822C58.5339 17.4146 59.3874 21.8564 62.3135 25.8813C65.2839 29.967 69.6611 32.6207 74.8265 34.0089L77.4219 24.3516L80.0173 14.6942C79.1336 14.4567 78.6881 14.2136 78.518 14.1048C78.3658 14.0076 78.4023 13.9997 78.4903 14.1206C78.6987 14.4073 78.5639 14.4877 78.5699 13.8803L68.5704 13.7812ZM77.4219 24.3516L68.9458 19.0454L65.6372 24.3305L74.1133 29.6367L82.5894 34.9429L85.898 29.6577L77.4219 24.3516ZM74.1133 29.6367L76.6929 19.9751C75.6015 19.6838 74.9663 19.318 74.596 19.0377C74.2331 18.7629 73.9508 18.4395 73.7085 18.011L65.004 22.9336L56.2994 27.8561C59.4569 33.4395 64.6606 37.4632 71.5338 39.2983L74.1133 29.6367ZM65.004 22.9336L56.162 18.2624C55.8519 18.8495 55.492 19.277 55.0741 19.6112C54.6588 19.9432 54.0007 20.3317 52.9145 20.6234L55.5079 30.2812L58.1012 39.9391C65.4412 37.9682 70.749 33.4669 73.8459 27.6048L65.004 22.9336ZM55.5079 30.2812L63.9917 24.9874L60.6401 19.6163L52.1563 24.9102L43.6725 30.204L47.0241 35.5751L55.5079 30.2812ZM52.1563 24.9102L54.8024 34.5537C60.2126 33.0692 64.5941 30.1997 67.5392 26.0765C70.4116 22.0552 71.3573 17.6295 71.3941 13.8793L61.3946 13.7812L51.3951 13.6832C51.3921 13.9891 51.3525 14.1983 51.3178 14.3182C51.3012 14.3756 51.2866 14.4099 51.2787 14.4265C51.2712 14.4422 51.2667 14.4488 51.2646 14.4518C51.2629 14.4542 51.2534 14.4675 51.2272 14.4927C51.2009 14.5181 51.1433 14.5693 51.038 14.6391C50.8322 14.7757 50.3728 15.0299 49.5102 15.2666L52.1563 24.9102ZM61.3946 13.7812H71.3946V10.7305H61.3946H51.3946V13.7812H61.3946ZM61.3946 10.7305V20.7305H68.5704V10.7305V0.730469L61.3946 0.730469V10.7305ZM68.5704 10.7305H58.5704V13.7812H68.5704L78.5704 13.7812V10.7305H68.5704ZM122.453 10.0859H132.453C132.453 4.56309 127.976 0.0859375 122.453 0.0859375V10.0859ZM122.453 21.6875H112.453C112.453 27.2103 116.93 31.6875 122.453 31.6875V21.6875ZM127.395 21.6875H137.395C137.395 16.1647 132.917 11.6875 127.395 11.6875V21.6875ZM127.395 27.2734V37.2734C132.917 37.2734 137.395 32.7963 137.395 27.2734H127.395ZM122.453 27.2734V17.2734C116.93 17.2734 112.453 21.7506 112.453 27.2734H122.453ZM122.453 39.6914V49.6914C127.976 49.6914 132.453 45.2143 132.453 39.6914H122.453ZM115.535 39.6914H105.535C105.535 45.2143 110.012 49.6914 115.535 49.6914V39.6914ZM115.535 10.0859V0.0859375C110.012 0.0859375 105.535 4.56309 105.535 10.0859L115.535 10.0859ZM114.117 13.8242H124.117C124.117 8.30137 119.64 3.82422 114.117 3.82422V13.8242ZM114.117 19.1523V29.1523C119.64 29.1523 124.117 24.6752 124.117 19.1523H114.117ZM90.6133 19.1523H80.6133C80.6133 24.6752 85.0905 29.1523 90.6133 29.1523V19.1523ZM90.6133 13.8242V3.82422C85.0905 3.82422 80.6133 8.30137 80.6133 13.8242H90.6133ZM98.9063 13.8242V23.8242C104.429 23.8242 108.906 19.3471 108.906 13.8242H98.9063ZM98.9063 10V0C93.3834 0 88.9063 4.47715 88.9063 10H98.9063ZM105.824 10L115.824 10C115.824 4.47715 111.347 0 105.824 0V10ZM105.824 13.8242H95.8243C95.8243 19.3471 100.301 23.8242 105.824 23.8242V13.8242ZM102.344 35.6523L102.418 25.6526C102.369 25.6523 102.319 25.6523 102.27 25.6526L102.344 35.6523ZM102.344 25.2539L102.557 15.2562C102.413 15.2531 102.27 15.2532 102.126 15.2563L102.344 25.2539ZM123.613 43.6875H133.613C133.613 38.1647 129.136 33.6875 123.613 33.6875V43.6875ZM123.613 49.1875V59.1875C129.136 59.1875 133.613 54.7103 133.613 49.1875H123.613ZM96.1133 49.1875H86.1133C86.1133 54.7103 90.5905 59.1875 96.1133 59.1875V49.1875ZM96.1133 37.457V27.457C90.5905 27.457 86.1133 31.9342 86.1133 37.457H96.1133ZM103.031 37.457H113.031C113.031 31.9342 108.554 27.457 103.031 27.457V37.457ZM103.031 43.6875H93.0313C93.0313 49.2103 97.5084 53.6875 103.031 53.6875V43.6875ZM122.453 10.0859H112.453V21.6875H122.453H132.453V10.0859H122.453ZM122.453 21.6875V31.6875H127.395V21.6875V11.6875H122.453V21.6875ZM127.395 21.6875H117.395V27.2734H127.395H137.395V21.6875H127.395ZM127.395 27.2734V17.2734H122.453V27.2734V37.2734H127.395V27.2734ZM122.453 27.2734H112.453V39.6914H122.453H132.453V27.2734H122.453ZM122.453 39.6914V29.6914H115.535V39.6914V49.6914H122.453V39.6914ZM115.535 39.6914H125.535V10.0859H115.535L105.535 10.0859V39.6914H115.535ZM115.535 10.0859V20.0859H122.453V10.0859V0.0859375L115.535 0.0859375V10.0859ZM114.117 13.8242H104.117V19.1523H114.117H124.117V13.8242H114.117ZM114.117 19.1523V9.15234L90.6133 9.15234V19.1523V29.1523H114.117V19.1523ZM90.6133 19.1523H100.613V13.8242H90.6133H80.6133V19.1523H90.6133ZM90.6133 13.8242V23.8242H98.9063V13.8242V3.82422L90.6133 3.82422V13.8242ZM98.9063 13.8242H108.906V10H98.9063H88.9063V13.8242H98.9063ZM98.9063 10V20H105.824V10V0L98.9063 0V10ZM105.824 10H95.8243V13.8242H105.824H115.824V10L105.824 10ZM105.824 13.8242V23.8242H114.117V13.8242V3.82422H105.824V13.8242ZM102.344 20.0547V30.0547C103.469 30.0547 103.634 30.3697 103.288 30.0968C103.099 29.9475 102.818 29.6587 102.59 29.2037C102.357 28.7368 102.27 28.2729 102.27 27.918H112.27H122.27C122.27 22.357 119.692 17.5637 115.676 14.3954C111.817 11.351 107.02 10.0547 102.344 10.0547V20.0547ZM112.27 27.918H102.27C102.27 27.5621 102.357 27.0793 102.607 26.5852C102.85 26.1028 103.154 25.7942 103.363 25.6324C103.741 25.3394 103.585 25.6613 102.418 25.6526L102.344 35.6523L102.27 45.6521C106.904 45.6864 111.71 44.4614 115.601 41.4506C119.673 38.3007 122.27 33.4973 122.27 27.918H112.27ZM102.344 35.6523L102.27 25.6526C101.065 25.6615 100.872 25.3307 101.231 25.6054C101.431 25.7591 101.736 26.0633 101.984 26.55C102.239 27.0498 102.332 27.5449 102.332 27.918H92.3321H82.3321C82.3321 33.5383 84.9759 38.3447 89.0622 41.4776C92.9655 44.4701 97.7787 45.6862 102.417 45.6521L102.344 35.6523ZM92.3321 27.918H102.332C102.332 28.29 102.24 28.7662 102.001 29.2388C101.769 29.6982 101.487 29.9827 101.306 30.1242C100.979 30.3793 101.18 30.0547 102.344 30.0547V20.0547V10.0547C93.4088 10.0547 82.3321 15.6025 82.3321 27.918H92.3321ZM102.344 25.2539L102.126 15.2563C100.04 15.3016 96.8141 15.7513 93.8981 17.9796C90.5167 20.5634 89.0782 24.3486 89.0782 27.918H99.0782H109.078C109.078 28.6625 108.942 29.7332 108.401 30.9136C107.844 32.1283 107.005 33.1346 106.041 33.871C104.264 35.2292 102.671 35.2491 102.561 35.2515L102.344 25.2539ZM99.0782 27.918H89.0782C89.0782 31.492 90.5293 35.3526 94.043 37.9382C97.0347 40.1396 100.306 40.4961 102.344 40.4961V30.4961V20.4961C102.405 20.4961 104.044 20.4658 105.897 21.8294C106.911 22.5757 107.794 23.6099 108.378 24.8656C108.943 26.0805 109.078 27.1768 109.078 27.918H99.0782ZM102.344 30.4961V40.4961C104.375 40.4961 107.583 40.1493 110.548 38.0657C114.074 35.5876 115.738 31.7381 115.738 27.918H105.738H95.7383C95.7383 27.0865 95.9022 25.922 96.5183 24.6692C97.1482 23.3883 98.0671 22.3918 99.0489 21.7019C100.822 20.4562 102.332 20.4961 102.344 20.4961V30.4961ZM105.738 27.918H115.738C115.738 24.1082 114.092 20.3277 110.693 17.8474C107.798 15.7347 104.632 15.3003 102.557 15.2562L102.344 25.2539L102.131 35.2516C102.075 35.2505 100.606 35.2458 98.9037 34.0032C97.9688 33.321 97.0949 32.3492 96.4936 31.1087C95.9031 29.8906 95.7383 28.7524 95.7383 27.918H105.738ZM123.613 43.6875H113.613V49.1875H123.613H133.613V43.6875H123.613ZM123.613 49.1875V39.1875H96.1133V49.1875V59.1875H123.613V49.1875ZM96.1133 49.1875H106.113V37.457H96.1133H86.1133V49.1875H96.1133ZM96.1133 37.457V47.457H103.031V37.457V27.457H96.1133V37.457ZM103.031 37.457H93.0313V43.6875H103.031H113.031V37.457H103.031ZM103.031 43.6875V53.6875H123.613V43.6875V33.6875H103.031V43.6875Z" fill="white" mask="url(#path-1-outside-1_3990_1403)"/>
</g>
<defs>
<filter id="filter0_d_3990_1403" x="0" y="0" width="141.395" height="67.832" filterUnits="userSpaceOnUse" color-interpolation-filters="sRGB">
<feFlood flood-opacity="0" result="BackgroundImageFix"/>
<feColorMatrix in="SourceAlpha" type="matrix" values="0 0 0 0 0 0 0 0 0 0 0 0 0 0 0 0 0 0 127 0" result="hardAlpha"/>
<feOffset dy="4"/>
<feGaussianBlur stdDeviation="2"/>
<feComposite in2="hardAlpha" operator="out"/>
<feColorMatrix type="matrix" values="0 0 0 0 0 0 0 0 0 0 0 0 0 0 0 0 0 0 0.07 0"/>
<feBlend mode="normal" in2="BackgroundImageFix" result="effect1_dropShadow_3990_1403"/>
<feBlend mode="normal" in="SourceGraphic" in2="effect1_dropShadow_3990_1403" result="shape"/>
</filter>
</defs>
</svg>
