<svg width="180" height="68" viewBox="0 0 180 68" fill="none" xmlns="http://www.w3.org/2000/svg">
<g filter="url(#filter0_d_3990_1392)">
<mask id="path-1-outside-1_3990_1392" maskUnits="userSpaceOnUse" x="3.9571" y="-0.507813" width="172" height="61" fill="black">
<rect fill="white" x="3.9571" y="-0.507813" width="172" height="61"/>
<path d="M49.2344 10V39.7344H42.7032V10L49.2344 10ZM41.0704 10.5586V38.5312H34.5821V24.0938H30.629V18.5078H34.5821V10.5586H41.0704ZM50.1368 43.6875V49.1875H21.7774V36.3398H28.6524V43.6875H50.1368ZM27.879 17.3047C27.836 21.8594 29.254 26.2852 34.3673 28.7344L30.586 34.0195C27.7286 32.666 25.795 30.5176 24.5704 27.875C23.1954 30.9258 21.004 33.418 17.7383 34.9219L14.0001 29.7227C19.586 27.0156 21.1329 22.0312 21.1758 17.3047V12.5781H27.879V17.3047ZM74.5001 14.8555C74.4571 20.0977 77.9376 26.4141 88.2501 28.0898L85.2852 33.8047C78.002 32.4727 73.2969 28.8633 70.8048 24.2227C68.2266 28.8203 63.5001 32.4297 56.3243 33.8047L53.4024 28.0898C63.5001 26.3711 67.0665 19.9688 67.0665 14.8555V12.1484H74.5001V14.8555ZM89.1954 39.6055V45.2344H52.8868V39.6055H89.1954ZM106.039 34.793C106.039 37.7578 107.07 40.7871 109.906 42.9141C112.764 40.7012 113.902 37.6504 113.945 34.793V33.9336H120.691V34.793C120.691 38.9609 122.367 42.6133 127.781 44.2031L124.473 49.1445C120.799 47.9629 118.457 45.7715 117.082 42.9141C115.75 45.8145 113.494 48.2422 110.035 49.5312C106.404 48.2637 104.127 45.9004 102.816 43.043C101.399 45.793 99.0997 47.9629 95.5977 49.1445L92.2462 44.2031C97.5743 42.4414 99.293 38.6602 99.293 34.793V33.9336H106.039V34.793ZM124.43 10.0859V32.3438H117.512V10.0859H124.43ZM102.473 11.8906C108.746 11.8906 113.602 15.9297 113.602 21.6445C113.602 27.1875 108.746 31.2695 102.473 31.2695C96.1563 31.2695 91.3008 27.1875 91.3438 21.6445C91.3008 15.9297 96.1563 11.8906 102.473 11.8906ZM102.473 17.6484C99.8516 17.6484 98.0469 18.9805 98.0469 21.6445C98.0469 24.1797 99.8516 25.5977 102.473 25.5547C104.965 25.5977 106.77 24.1797 106.77 21.6445C106.77 18.9805 104.965 17.6484 102.473 17.6484ZM161.297 20.0977V25.4258H133.195V11.418H140.07V20.0977H161.297ZM165.207 28.9492V34.2773L128.941 34.2773V28.9492L165.207 28.9492ZM161.555 43.4727V48.9727L132.723 48.9727V37.0273H139.684V43.4727L161.555 43.4727Z"/>
</mask>
<path d="M49.2344 10V39.7344H42.7032V10L49.2344 10ZM41.0704 10.5586V38.5312H34.5821V24.0938H30.629V18.5078H34.5821V10.5586H41.0704ZM50.1368 43.6875V49.1875H21.7774V36.3398H28.6524V43.6875H50.1368ZM27.879 17.3047C27.836 21.8594 29.254 26.2852 34.3673 28.7344L30.586 34.0195C27.7286 32.666 25.795 30.5176 24.5704 27.875C23.1954 30.9258 21.004 33.418 17.7383 34.9219L14.0001 29.7227C19.586 27.0156 21.1329 22.0312 21.1758 17.3047V12.5781H27.879V17.3047ZM74.5001 14.8555C74.4571 20.0977 77.9376 26.4141 88.2501 28.0898L85.2852 33.8047C78.002 32.4727 73.2969 28.8633 70.8048 24.2227C68.2266 28.8203 63.5001 32.4297 56.3243 33.8047L53.4024 28.0898C63.5001 26.3711 67.0665 19.9688 67.0665 14.8555V12.1484H74.5001V14.8555ZM89.1954 39.6055V45.2344H52.8868V39.6055H89.1954ZM106.039 34.793C106.039 37.7578 107.07 40.7871 109.906 42.9141C112.764 40.7012 113.902 37.6504 113.945 34.793V33.9336H120.691V34.793C120.691 38.9609 122.367 42.6133 127.781 44.2031L124.473 49.1445C120.799 47.9629 118.457 45.7715 117.082 42.9141C115.75 45.8145 113.494 48.2422 110.035 49.5312C106.404 48.2637 104.127 45.9004 102.816 43.043C101.399 45.793 99.0997 47.9629 95.5977 49.1445L92.2462 44.2031C97.5743 42.4414 99.293 38.6602 99.293 34.793V33.9336H106.039V34.793ZM124.43 10.0859V32.3438H117.512V10.0859H124.43ZM102.473 11.8906C108.746 11.8906 113.602 15.9297 113.602 21.6445C113.602 27.1875 108.746 31.2695 102.473 31.2695C96.1563 31.2695 91.3008 27.1875 91.3438 21.6445C91.3008 15.9297 96.1563 11.8906 102.473 11.8906ZM102.473 17.6484C99.8516 17.6484 98.0469 18.9805 98.0469 21.6445C98.0469 24.1797 99.8516 25.5977 102.473 25.5547C104.965 25.5977 106.77 24.1797 106.77 21.6445C106.77 18.9805 104.965 17.6484 102.473 17.6484ZM161.297 20.0977V25.4258H133.195V11.418H140.07V20.0977H161.297ZM165.207 28.9492V34.2773L128.941 34.2773V28.9492L165.207 28.9492ZM161.555 43.4727V48.9727L132.723 48.9727V37.0273H139.684V43.4727L161.555 43.4727Z" fill="#11DCA9"/>
<path d="M49.2344 10H59.2344C59.2344 4.47715 54.7573 0 49.2344 0V10ZM49.2344 39.7344V49.7344C54.7573 49.7344 59.2344 45.2572 59.2344 39.7344H49.2344ZM42.7032 39.7344H32.7032C32.7032 45.2572 37.1803 49.7344 42.7032 49.7344V39.7344ZM42.7032 10V0C37.1803 0 32.7032 4.47715 32.7032 10H42.7032ZM41.0704 10.5586L51.0704 10.5586C51.0704 5.03575 46.5932 0.558594 41.0704 0.558594V10.5586ZM41.0704 38.5312V48.5312C46.5932 48.5312 51.0704 44.0541 51.0704 38.5312H41.0704ZM34.5821 38.5312H24.5821C24.5821 44.0541 29.0592 48.5312 34.5821 48.5312V38.5312ZM34.5821 24.0938H44.5821C44.5821 18.5709 40.1049 14.0938 34.5821 14.0938V24.0938ZM30.629 24.0938H20.629C20.629 29.6166 25.1061 34.0938 30.629 34.0938V24.0938ZM30.629 18.5078V8.50781C25.1061 8.50781 20.629 12.985 20.629 18.5078H30.629ZM34.5821 18.5078V28.5078C40.1049 28.5078 44.5821 24.0307 44.5821 18.5078H34.5821ZM34.5821 10.5586V0.558594C29.0592 0.558594 24.5821 5.03575 24.5821 10.5586H34.5821ZM50.1368 43.6875H60.1368C60.1368 38.1647 55.6596 33.6875 50.1368 33.6875V43.6875ZM50.1368 49.1875V59.1875C55.6596 59.1875 60.1368 54.7103 60.1368 49.1875H50.1368ZM21.7774 49.1875H11.7774C11.7774 54.7103 16.2546 59.1875 21.7774 59.1875V49.1875ZM21.7774 36.3398V26.3398C16.2546 26.3398 11.7774 30.817 11.7774 36.3398H21.7774ZM28.6524 36.3398H38.6524C38.6524 30.817 34.1753 26.3398 28.6524 26.3398V36.3398ZM28.6524 43.6875H18.6524C18.6524 49.2103 23.1296 53.6875 28.6524 53.6875V43.6875ZM27.879 17.3047L37.8785 17.399C37.8788 17.3676 37.879 17.3361 37.879 17.3047H27.879ZM34.3673 28.7344L42.5001 34.553C44.2198 32.1493 44.7882 29.108 44.0526 26.2454C43.3169 23.3829 41.3527 20.9924 38.6872 19.7156L34.3673 28.7344ZM30.586 34.0195L26.3051 43.0569C30.6769 45.1277 35.9041 43.7724 38.7189 39.8382L30.586 34.0195ZM24.5704 27.875L33.6435 23.6704C31.9978 20.1192 28.4317 17.8546 24.5178 17.8751C20.6039 17.8957 17.0618 20.1977 15.4536 23.766L24.5704 27.875ZM17.7383 34.9219L9.61919 40.7596C12.4142 44.647 17.5725 46.0077 21.9213 44.005L17.7383 34.9219ZM14.0001 29.7227L9.63903 20.7237C6.98282 22.0109 5.03098 24.4059 4.30621 27.2672C3.58144 30.1285 4.15779 33.1639 5.88091 35.5604L14.0001 29.7227ZM21.1758 17.3047L31.1754 17.3956C31.1757 17.3653 31.1758 17.335 31.1758 17.3047H21.1758ZM21.1758 12.5781V2.57812C15.653 2.57812 11.1758 7.05528 11.1758 12.5781H21.1758ZM27.879 12.5781H37.879C37.879 7.05528 33.4018 2.57812 27.879 2.57812V12.5781ZM49.2344 10L39.2344 10V39.7344H49.2344H59.2344V10H49.2344ZM49.2344 39.7344V29.7344H42.7032V39.7344V49.7344H49.2344V39.7344ZM42.7032 39.7344H52.7032V10L42.7032 10H32.7032V39.7344H42.7032ZM42.7032 10V20H49.2344V10V0H42.7032V10ZM41.0704 10.5586H31.0704V38.5312H41.0704H51.0704V10.5586L41.0704 10.5586ZM41.0704 38.5312V28.5312H34.5821V38.5312V48.5312H41.0704V38.5312ZM34.5821 38.5312H44.5821V24.0938H34.5821H24.5821V38.5312H34.5821ZM34.5821 24.0938V14.0938H30.629V24.0938V34.0938H34.5821V24.0938ZM30.629 24.0938H40.629V18.5078H30.629H20.629V24.0938H30.629ZM30.629 18.5078V28.5078H34.5821V18.5078V8.50781H30.629V18.5078ZM34.5821 18.5078H44.5821V10.5586H34.5821H24.5821V18.5078H34.5821ZM34.5821 10.5586V20.5586H41.0704V10.5586V0.558594H34.5821V10.5586ZM50.1368 43.6875H40.1368V49.1875H50.1368H60.1368V43.6875H50.1368ZM50.1368 49.1875V39.1875H21.7774V49.1875V59.1875H50.1368V49.1875ZM21.7774 49.1875H31.7774V36.3398H21.7774H11.7774L11.7774 49.1875H21.7774ZM21.7774 36.3398V46.3398H28.6524V36.3398V26.3398H21.7774V36.3398ZM28.6524 36.3398H18.6524V43.6875H28.6524H38.6524V36.3398H28.6524ZM28.6524 43.6875V53.6875H50.1368V43.6875V33.6875H28.6524V43.6875ZM27.879 17.3047L17.8794 17.2104C17.8486 20.4791 18.3239 24.4282 20.2404 28.2715C22.2495 32.3007 25.5405 35.5944 30.0473 37.7532L34.3673 28.7344L38.6872 19.7156C38.3185 19.539 38.1879 19.412 38.1733 19.3977C38.1614 19.3861 38.1571 19.3836 38.1386 19.3466C38.0785 19.2261 37.8664 18.6849 37.8785 17.399L27.879 17.3047ZM34.3673 28.7344L26.2344 22.9157L22.4531 28.2009L30.586 34.0195L38.7189 39.8382L42.5001 34.553L34.3673 28.7344ZM30.586 34.0195L34.8669 24.9822C34.5253 24.8203 34.3264 24.6583 34.185 24.5108C34.0346 24.3539 33.8429 24.1006 33.6435 23.6704L24.5704 27.875L15.4973 32.0796C17.6017 36.6207 21.1223 40.6019 26.3051 43.0569L30.586 34.0195ZM24.5704 27.875L15.4536 23.766C14.9265 24.9354 14.3336 25.4804 13.5553 25.8388L17.7383 34.9219L21.9213 44.005C27.6743 41.3556 31.4642 36.9162 33.6872 31.984L24.5704 27.875ZM17.7383 34.9219L25.8575 29.0841L22.1192 23.8849L14.0001 29.7227L5.88091 35.5604L9.61919 40.7596L17.7383 34.9219ZM14.0001 29.7227L18.3611 38.7216C28.6584 33.7314 31.1133 24.2347 31.1754 17.3956L21.1758 17.3047L11.1763 17.2138C11.1637 18.5926 10.9269 19.3906 10.7267 19.79C10.6386 19.9658 10.5471 20.0889 10.4367 20.1981C10.327 20.3068 10.0984 20.5011 9.63903 20.7237L14.0001 29.7227ZM21.1758 17.3047H31.1758V12.5781H21.1758H11.1758V17.3047H21.1758ZM21.1758 12.5781V22.5781H27.879V12.5781V2.57812H21.1758V12.5781ZM27.879 12.5781H17.879V17.3047H27.879H37.879V12.5781H27.879ZM74.5001 14.8555L84.4997 14.9374C84.5 14.9101 84.5001 14.8828 84.5001 14.8555L74.5001 14.8555ZM88.2501 28.0898L97.1266 32.695C98.6034 29.8483 98.6254 26.4661 97.1857 23.6006C95.7461 20.735 93.0194 18.7337 89.854 18.2193L88.2501 28.0898ZM85.2852 33.8047L83.4862 43.6415C87.8075 44.4319 92.1387 42.3093 94.1618 38.4098L85.2852 33.8047ZM70.8048 24.2227L79.6147 19.4914C77.8877 16.2757 74.5458 14.2563 70.8959 14.2231C67.2459 14.1898 63.8677 16.1479 62.0825 19.3317L70.8048 24.2227ZM56.3243 33.8047L47.4205 38.357C49.4446 42.3158 53.8394 44.4628 58.2062 43.626L56.3243 33.8047ZM53.4024 28.0898L51.7244 18.2316C48.5863 18.7658 45.89 20.762 44.4632 23.6075C43.0364 26.4531 43.0496 29.8079 44.4987 32.6421L53.4024 28.0898ZM67.0665 12.1484V2.14844C61.5436 2.14844 57.0665 6.62559 57.0665 12.1484H67.0665ZM74.5001 12.1484H84.5001C84.5001 6.62559 80.0229 2.14844 74.5001 2.14844V12.1484ZM89.1954 39.6055H99.1954C99.1954 34.0826 94.7182 29.6055 89.1954 29.6055V39.6055ZM89.1954 45.2344V55.2344C94.7182 55.2344 99.1954 50.7572 99.1954 45.2344H89.1954ZM52.8868 45.2344H42.8868C42.8868 50.7572 47.3639 55.2344 52.8868 55.2344V45.2344ZM52.8868 39.6055V29.6055C47.3639 29.6055 42.8868 34.0826 42.8868 39.6055H52.8868ZM74.5001 14.8555L64.5004 14.7735C64.4606 19.6261 66.0607 24.9641 69.9895 29.4219C73.9536 33.9198 79.6628 36.8256 86.6461 37.9604L88.2501 28.0898L89.854 18.2193C86.5248 17.6783 85.3376 16.5881 84.994 16.1982C84.6152 15.7684 84.4965 15.327 84.4997 14.9374L74.5001 14.8555ZM88.2501 28.0898L79.3735 23.4847L76.4087 29.1996L85.2852 33.8047L94.1618 38.4098L97.1266 32.695L88.2501 28.0898ZM85.2852 33.8047L87.0843 23.9679C82.3875 23.1088 80.4836 21.1094 79.6147 19.4914L70.8048 24.2227L61.9948 28.9539C66.1103 36.6172 73.6166 41.8365 83.4862 43.6415L85.2852 33.8047ZM70.8048 24.2227L62.0825 19.3317C61.1056 21.0737 59.0588 23.0988 54.4424 23.9834L56.3243 33.8047L58.2062 43.626C67.9413 41.7606 75.3476 36.5669 79.527 29.1137L70.8048 24.2227ZM56.3243 33.8047L65.228 29.2524L62.3062 23.5376L53.4024 28.0898L44.4987 32.6421L47.4205 38.357L56.3243 33.8047ZM53.4024 28.0898L55.0804 37.9481C62.0196 36.7669 67.638 33.7854 71.5377 29.3411C75.3814 24.9605 77.0665 19.7003 77.0665 14.8555H67.0665H57.0665C57.0665 15.1239 56.9683 15.6215 56.5045 16.1501C56.0965 16.615 54.8829 17.694 51.7244 18.2316L53.4024 28.0898ZM67.0665 14.8555H77.0665V12.1484H67.0665H57.0665V14.8555H67.0665ZM67.0665 12.1484V22.1484H74.5001V12.1484V2.14844H67.0665V12.1484ZM74.5001 12.1484H64.5001V14.8555H74.5001L84.5001 14.8555V12.1484H74.5001ZM89.1954 39.6055H79.1954V45.2344H89.1954H99.1954V39.6055H89.1954ZM89.1954 45.2344V35.2344H52.8868V45.2344V55.2344H89.1954V45.2344ZM52.8868 45.2344H62.8868V39.6055H52.8868H42.8868V45.2344H52.8868ZM52.8868 39.6055V49.6055H89.1954V39.6055V29.6055H52.8868V39.6055ZM109.906 42.9141L103.906 50.9141C107.508 53.6151 112.47 53.5768 116.029 50.8204L109.906 42.9141ZM113.945 34.793L123.944 34.9433C123.945 34.8932 123.945 34.8431 123.945 34.793H113.945ZM113.945 33.9336V23.9336C108.423 23.9336 103.945 28.4107 103.945 33.9336H113.945ZM120.691 33.9336H130.691C130.691 28.4107 126.214 23.9336 120.691 23.9336V33.9336ZM127.781 44.2031L136.091 49.7668C137.862 47.1212 138.268 43.7903 137.183 40.7969C136.099 37.8034 133.654 35.5053 130.599 34.6083L127.781 44.2031ZM124.473 49.1445L121.411 58.6642C125.659 60.0307 130.299 58.4166 132.782 54.7082L124.473 49.1445ZM117.082 42.9141L126.093 38.5779C124.413 35.0863 120.867 32.8797 116.992 32.9145C113.118 32.9493 109.612 35.2193 107.995 38.7406L117.082 42.9141ZM110.035 49.5312L106.739 58.9724C108.941 59.7411 111.342 59.7161 113.527 58.9017L110.035 49.5312ZM102.816 43.043L111.906 38.8741C110.311 35.3965 106.872 33.1337 103.047 33.0456C99.2218 32.9575 95.6818 35.0596 93.9284 38.4601L102.816 43.043ZM95.5977 49.1445L87.3218 54.7578C89.8441 58.4766 94.5372 60.0563 98.7949 58.6197L95.5977 49.1445ZM92.2462 44.2031L89.1069 34.7087C86.1303 35.6928 83.7876 38.0159 82.7784 40.9841C81.7693 43.9522 82.2104 47.2219 83.9702 49.8164L92.2462 44.2031ZM99.293 33.9336V23.9336C93.7702 23.9336 89.293 28.4107 89.293 33.9336H99.293ZM106.039 33.9336H116.039C116.039 28.4107 111.562 23.9336 106.039 23.9336V33.9336ZM124.43 10.0859H134.43C134.43 4.56309 129.953 0.0859375 124.43 0.0859375V10.0859ZM124.43 32.3438V42.3438C129.953 42.3438 134.43 37.8666 134.43 32.3438H124.43ZM117.512 32.3438H107.512C107.512 37.8666 111.989 42.3438 117.512 42.3438V32.3438ZM117.512 10.0859V0.0859375C111.989 0.0859375 107.512 4.56309 107.512 10.0859L117.512 10.0859ZM91.3438 21.6445L101.344 21.722C101.344 21.6711 101.344 21.6202 101.344 21.5693L91.3438 21.6445ZM102.473 25.5547L102.645 15.5562C102.533 15.5542 102.421 15.5542 102.309 15.556L102.473 25.5547ZM106.039 34.793H96.0391C96.0391 40.1276 97.9891 46.4761 103.906 50.9141L109.906 42.9141L115.906 34.9141C115.892 34.9034 115.894 34.9037 115.908 34.9168C115.921 34.9299 115.941 34.9509 115.963 34.9793C116.011 35.0405 116.045 35.1019 116.065 35.1457C116.082 35.1857 116.076 35.185 116.065 35.1276C116.054 35.068 116.039 34.9576 116.039 34.793H106.039ZM109.906 42.9141L116.029 50.8204C121.624 46.4873 123.862 40.392 123.944 34.9433L113.945 34.793L103.947 34.6426C103.944 34.8084 103.911 34.8854 103.908 34.8903C103.908 34.8911 103.908 34.8915 103.903 34.898C103.899 34.9034 103.868 34.9426 103.783 35.0078L109.906 42.9141ZM113.945 34.793H123.945V33.9336H113.945H103.945V34.793H113.945ZM113.945 33.9336V43.9336H120.691V33.9336V23.9336H113.945V33.9336ZM120.691 33.9336H110.691V34.793H120.691H130.691V33.9336H120.691ZM120.691 34.793H110.691C110.691 38.1525 111.363 42.2523 113.902 46.037C116.532 49.9562 120.449 52.4721 124.964 53.798L127.781 44.2031L130.599 34.6083C130.104 34.4628 129.976 34.3534 130.053 34.4064C130.09 34.4323 130.163 34.4876 130.253 34.5778C130.343 34.6685 130.431 34.7752 130.51 34.8927C130.588 35.0092 130.643 35.1161 130.68 35.2011C130.717 35.2846 130.73 35.3352 130.731 35.3406C130.732 35.3449 130.722 35.305 130.712 35.212C130.701 35.1186 130.691 34.9808 130.691 34.793H120.691ZM127.781 44.2031L119.472 38.6395L116.163 43.5809L124.473 49.1445L132.782 54.7082L136.091 49.7668L127.781 44.2031ZM124.473 49.1445L127.535 39.6248C126.847 39.4037 126.559 39.1827 126.459 39.0959C126.362 39.012 126.238 38.8797 126.093 38.5779L117.082 42.9141L108.071 47.2502C110.656 52.6223 115.175 56.6584 121.411 58.6642L124.473 49.1445ZM117.082 42.9141L107.995 38.7406C107.782 39.2032 107.565 39.4828 107.385 39.6572C107.221 39.8166 106.979 39.9985 106.543 40.1608L110.035 49.5312L113.527 58.9017C119.766 56.5768 123.875 52.0844 126.17 47.0876L117.082 42.9141ZM110.035 49.5312L113.331 40.0901C112.761 39.8908 112.499 39.6844 112.374 39.5683C112.24 39.4432 112.075 39.2435 111.906 38.8741L102.816 43.043L93.7269 47.2119C96.0981 52.3818 100.379 56.7521 106.739 58.9724L110.035 49.5312ZM102.816 43.043L93.9284 38.4601C93.7466 38.8127 93.5765 39.0058 93.4289 39.134C93.2854 39.2587 92.9957 39.4686 92.4006 39.6694L95.5977 49.1445L98.7949 58.6197C104.83 56.5833 109.132 52.6142 111.705 47.6259L102.816 43.043ZM95.5977 49.1445L103.874 43.5313L100.522 38.5899L92.2462 44.2031L83.9702 49.8164L87.3218 54.7578L95.5977 49.1445ZM92.2462 44.2031L95.3855 53.6976C99.8607 52.2179 103.592 49.5914 106.096 45.8221C108.537 42.1489 109.293 38.1773 109.293 34.793H99.293H89.293C89.293 35.0272 89.2663 35.1179 89.2724 35.0949C89.2761 35.0809 89.2885 35.0384 89.3164 34.975C89.3448 34.9106 89.385 34.8341 89.4388 34.7531C89.493 34.6716 89.5511 34.6003 89.6066 34.5425C89.662 34.4849 89.7011 34.4549 89.7101 34.4483C89.7323 34.4322 89.5755 34.5537 89.1069 34.7087L92.2462 44.2031ZM99.293 34.793H109.293V33.9336H99.293H89.293V34.793H99.293ZM99.293 33.9336V43.9336H106.039V33.9336V23.9336H99.293V33.9336ZM106.039 33.9336H96.0391V34.793H106.039H116.039V33.9336H106.039ZM124.43 10.0859H114.43V32.3438H124.43H134.43V10.0859H124.43ZM124.43 32.3438V22.3437H117.512V32.3438V42.3438H124.43V32.3438ZM117.512 32.3438H127.512V10.0859H117.512L107.512 10.0859V32.3438H117.512ZM117.512 10.0859V20.0859H124.43V10.0859V0.0859375L117.512 0.0859375V10.0859ZM102.473 11.8906V21.8906C103.494 21.8906 103.878 22.2137 103.857 22.1955C103.842 22.1828 103.761 22.1039 103.687 21.9477C103.653 21.874 103.629 21.8019 103.616 21.7389C103.602 21.6758 103.602 21.6412 103.602 21.6445H113.602H123.602C123.602 9.07375 112.834 1.89062 102.473 1.89062V11.8906ZM113.602 21.6445H103.602C103.602 21.5434 103.63 21.3695 103.716 21.1888C103.754 21.1079 103.795 21.0461 103.828 21.0035C103.86 20.9614 103.881 20.9436 103.88 20.9445C103.873 20.9503 103.468 21.2695 102.473 21.2695V31.2695V41.2695C112.772 41.2695 123.602 34.0972 123.602 21.6445H113.602ZM102.473 31.2695V21.2695C101.437 21.2695 101.027 20.9393 101.033 20.9445C101.041 20.9516 101.134 21.0366 101.222 21.2229C101.315 21.4208 101.344 21.6105 101.344 21.722L91.3438 21.6445L81.3441 21.567C81.2468 34.123 92.1847 41.2695 102.473 41.2695V31.2695ZM91.3438 21.6445L101.344 21.5693C101.344 21.5687 101.344 21.5792 101.342 21.5995C101.339 21.6199 101.336 21.6477 101.328 21.6817C101.313 21.7522 101.287 21.8323 101.25 21.9138C101.17 22.0865 101.078 22.1766 101.057 22.1955C101.023 22.2247 101.411 21.8906 102.473 21.8906V11.8906V1.89062C92.1202 1.89062 81.2488 9.04869 81.3441 21.7197L91.3438 21.6445ZM102.473 17.6484V7.64844C99.594 7.64844 95.9034 8.37445 92.7776 11.0475C89.4178 13.9207 88.0469 17.8978 88.0469 21.6445H98.0469H108.047C108.047 22.7272 107.578 24.7062 105.776 26.2474C104.208 27.5884 102.73 27.6484 102.473 27.6484V17.6484ZM98.0469 21.6445H88.0469C88.0469 25.4491 89.4995 29.363 92.7776 32.1664C95.8718 34.8124 99.5709 35.6036 102.637 35.5533L102.473 25.5547L102.309 15.556C102.753 15.5487 104.24 15.6524 105.776 16.9664C107.497 18.4378 108.047 20.3751 108.047 21.6445H98.0469ZM102.473 25.5547L102.3 35.5532C105.42 35.607 109.094 34.7529 112.133 32.0987C115.327 29.3094 116.77 25.4398 116.77 21.6445H106.77H96.7696C96.7696 20.3844 97.3094 18.4913 98.9782 17.0341C100.492 15.7119 102.018 15.5454 102.645 15.5562L102.473 25.5547ZM106.77 21.6445H116.77C116.77 17.9056 115.408 13.9747 112.133 11.1151C109.059 8.43063 105.397 7.64844 102.473 7.64844V17.6484V27.6484C102.04 27.6484 100.527 27.5323 98.9782 26.1798C97.2289 24.6522 96.7696 22.7194 96.7696 21.6445H106.77ZM161.297 20.0977H171.297C171.297 14.5748 166.82 10.0977 161.297 10.0977V20.0977ZM161.297 25.4258V35.4258C166.82 35.4258 171.297 30.9486 171.297 25.4258H161.297ZM133.195 25.4258H123.195C123.195 30.9486 127.673 35.4258 133.195 35.4258V25.4258ZM133.195 11.418V1.41797C127.673 1.41797 123.195 5.89512 123.195 11.418H133.195ZM140.07 11.418H150.07C150.07 5.89512 145.593 1.41797 140.07 1.41797V11.418ZM140.07 20.0977H130.07C130.07 25.6205 134.548 30.0977 140.07 30.0977V20.0977ZM165.207 28.9492H175.207C175.207 23.4264 170.73 18.9492 165.207 18.9492V28.9492ZM165.207 34.2773V44.2773C170.73 44.2773 175.207 39.8002 175.207 34.2773H165.207ZM128.941 34.2773H118.941C118.941 39.8002 123.419 44.2773 128.941 44.2773V34.2773ZM128.941 28.9492V18.9492C123.419 18.9492 118.941 23.4264 118.941 28.9492H128.941ZM161.555 43.4727H171.555C171.555 37.9498 167.078 33.4727 161.555 33.4727V43.4727ZM161.555 48.9727V58.9727C167.078 58.9727 171.555 54.4955 171.555 48.9727H161.555ZM132.723 48.9727H122.723C122.723 54.4955 127.2 58.9727 132.723 58.9727V48.9727ZM132.723 37.0273V27.0273C127.2 27.0273 122.723 31.5045 122.723 37.0273H132.723ZM139.684 37.0273L149.684 37.0273C149.684 31.5045 145.207 27.0273 139.684 27.0273V37.0273ZM139.684 43.4727H129.684C129.684 48.9955 134.161 53.4727 139.684 53.4727V43.4727ZM161.297 20.0977H151.297V25.4258H161.297H171.297V20.0977H161.297ZM161.297 25.4258V15.4258H133.195V25.4258V35.4258L161.297 35.4258V25.4258ZM133.195 25.4258H143.195V11.418H133.195H123.195V25.4258H133.195ZM133.195 11.418V21.418H140.07V11.418V1.41797H133.195V11.418ZM140.07 11.418H130.07V20.0977H140.07H150.07V11.418H140.07ZM140.07 20.0977V30.0977L161.297 30.0977V20.0977V10.0977H140.07V20.0977ZM165.207 28.9492H155.207V34.2773H165.207H175.207V28.9492H165.207ZM165.207 34.2773V24.2773H128.941V34.2773V44.2773L165.207 44.2773V34.2773ZM128.941 34.2773H138.941V28.9492H128.941H118.941V34.2773H128.941ZM128.941 28.9492V38.9492L165.207 38.9492V28.9492V18.9492H128.941V28.9492ZM161.555 43.4727H151.555V48.9727H161.555H171.555V43.4727H161.555ZM161.555 48.9727V38.9727L132.723 38.9727V48.9727V58.9727L161.555 58.9727V48.9727ZM132.723 48.9727L142.723 48.9727V37.0273L132.723 37.0273H122.723V48.9727H132.723ZM132.723 37.0273V47.0273H139.684V37.0273V27.0273H132.723V37.0273ZM139.684 37.0273H129.684V43.4727H139.684L149.684 43.4727V37.0273L139.684 37.0273ZM139.684 43.4727V53.4727L161.555 53.4727V43.4727V33.4727L139.684 33.4727V43.4727Z" fill="white" mask="url(#path-1-outside-1_3990_1392)"/>
</g>
<defs>
<filter id="filter0_d_3990_1392" x="0" y="0" width="179.207" height="67.5312" filterUnits="userSpaceOnUse" color-interpolation-filters="sRGB">
<feFlood flood-opacity="0" result="BackgroundImageFix"/>
<feColorMatrix in="SourceAlpha" type="matrix" values="0 0 0 0 0 0 0 0 0 0 0 0 0 0 0 0 0 0 127 0" result="hardAlpha"/>
<feOffset dy="4"/>
<feGaussianBlur stdDeviation="2"/>
<feComposite in2="hardAlpha" operator="out"/>
<feColorMatrix type="matrix" values="0 0 0 0 0 0 0 0 0 0 0 0 0 0 0 0 0 0 0.07 0"/>
<feBlend mode="normal" in2="BackgroundImageFix" result="effect1_dropShadow_3990_1392"/>
<feBlend mode="normal" in="SourceGraphic" in2="effect1_dropShadow_3990_1392" result="shape"/>
</filter>
</defs>
</svg>
