<svg width="303" height="68" viewBox="0 0 303 68" fill="none" xmlns="http://www.w3.org/2000/svg">
<g filter="url(#filter0_d_3990_1465)">
<mask id="path-1-outside-1_3990_1465" maskUnits="userSpaceOnUse" x="3.09766" y="-0.507813" width="295" height="61" fill="black">
<rect fill="white" x="3.09766" y="-0.507813" width="295" height="61"/>
<path d="M50.3516 28.2188V33.6328H14L14 28.2188H28.8242V25.6406H18.2969V11.7188L46.0977 11.7187V17.0469H25.1289V20.2695H46.2695V25.6406H35.6133V28.2188H50.3516ZM32.0469 35.0078C40.7266 35.0078 45.9258 37.6719 45.9688 42.4844C45.9258 47.168 40.7266 49.875 32.0469 49.875C23.2812 49.875 17.9961 47.168 17.9961 42.4844C17.9961 37.6719 23.2812 35.0078 32.0469 35.0078ZM32.0469 40.207C27.1055 40.207 25 40.8945 25.043 42.4844C25 44.1172 27.1055 44.6758 32.0469 44.6758C36.8594 44.6758 39.0508 44.1172 39.0508 42.4844C39.0508 40.8945 36.8594 40.207 32.0469 40.207ZM85.7578 10V49.7461H78.7539V10H85.7578ZM73.7266 14.082C73.7266 26.543 70.2031 36.4688 55.4648 43.3438L51.9414 37.9297C61.8672 33.2031 65.8418 27.7461 66.7227 19.4531H54.2188V14.082H73.7266ZM126.32 32.5156V37.8438H111.453V49.7461H104.621V37.8438H90.0547V32.5156H126.32ZM100.797 11.5039V15.5H115.363V11.5039H122.281V29.3359H94.0078V11.5039H100.797ZM100.797 23.8359H115.363V20.8281H100.797V23.8359ZM139.211 12.6641C142.713 12.6426 145.656 14.4902 147.547 17.7344H155.152V10H161.984V49.875H155.152V35.3516H148.062C146.193 39.1973 143.035 41.4102 139.211 41.4102C133.066 41.4102 128.641 35.8672 128.641 26.9727C128.641 18.207 133.066 12.6211 139.211 12.6641ZM139.211 18.8945C136.848 18.8516 135.215 21.4727 135.258 26.9727C135.215 32.5586 136.848 35.0938 139.211 35.0938C141.617 35.0937 143.164 32.5586 143.164 26.9727C143.164 21.4727 141.617 18.8516 139.211 18.8945ZM149.438 23.2344C149.631 24.3945 149.738 25.6621 149.738 26.9727C149.738 27.9824 149.674 28.9707 149.566 29.8945H155.152V23.2344H149.438ZM202.375 27.4023V32.4297H166.109V27.4023H202.375ZM198.164 33.6328V43.6445H176.938V44.9336H199.238V49.4883H170.105V39.3906H191.332V38.2734H170.105V33.6328H198.164ZM198.164 10.4727V20.4844H177.324V21.7734H198.852V26.2852H170.492V16.2305H191.289V15.0273H170.449V10.4727L198.164 10.4727ZM249.984 31.4844V36.9414H235.117V49.7891H228.285V36.9414H213.719V31.4844H249.984ZM246.848 11.8906V17.1758H236.105C236.814 20.2266 240.037 23.5566 248.523 24.4805L246.031 29.8516C238.791 29.0137 234.215 26.3066 231.852 22.6328C229.51 26.3066 224.977 29.0137 217.758 29.8516L215.266 24.4805C223.645 23.5566 226.867 20.2266 227.684 17.1758H216.898V11.8906L246.848 11.8906ZM284.102 20.0977V25.4258H256V11.418H262.875V20.0977H284.102ZM288.012 28.9492V34.2773H251.746V28.9492H288.012ZM284.359 43.4727V48.9727H255.527V37.0273H262.488V43.4727H284.359Z"/>
</mask>
<path d="M50.3516 28.2188V33.6328H14L14 28.2188H28.8242V25.6406H18.2969V11.7188L46.0977 11.7187V17.0469H25.1289V20.2695H46.2695V25.6406H35.6133V28.2188H50.3516ZM32.0469 35.0078C40.7266 35.0078 45.9258 37.6719 45.9688 42.4844C45.9258 47.168 40.7266 49.875 32.0469 49.875C23.2812 49.875 17.9961 47.168 17.9961 42.4844C17.9961 37.6719 23.2812 35.0078 32.0469 35.0078ZM32.0469 40.207C27.1055 40.207 25 40.8945 25.043 42.4844C25 44.1172 27.1055 44.6758 32.0469 44.6758C36.8594 44.6758 39.0508 44.1172 39.0508 42.4844C39.0508 40.8945 36.8594 40.207 32.0469 40.207ZM85.7578 10V49.7461H78.7539V10H85.7578ZM73.7266 14.082C73.7266 26.543 70.2031 36.4688 55.4648 43.3438L51.9414 37.9297C61.8672 33.2031 65.8418 27.7461 66.7227 19.4531H54.2188V14.082H73.7266ZM126.32 32.5156V37.8438H111.453V49.7461H104.621V37.8438H90.0547V32.5156H126.32ZM100.797 11.5039V15.5H115.363V11.5039H122.281V29.3359H94.0078V11.5039H100.797ZM100.797 23.8359H115.363V20.8281H100.797V23.8359ZM139.211 12.6641C142.713 12.6426 145.656 14.4902 147.547 17.7344H155.152V10H161.984V49.875H155.152V35.3516H148.062C146.193 39.1973 143.035 41.4102 139.211 41.4102C133.066 41.4102 128.641 35.8672 128.641 26.9727C128.641 18.207 133.066 12.6211 139.211 12.6641ZM139.211 18.8945C136.848 18.8516 135.215 21.4727 135.258 26.9727C135.215 32.5586 136.848 35.0938 139.211 35.0938C141.617 35.0937 143.164 32.5586 143.164 26.9727C143.164 21.4727 141.617 18.8516 139.211 18.8945ZM149.438 23.2344C149.631 24.3945 149.738 25.6621 149.738 26.9727C149.738 27.9824 149.674 28.9707 149.566 29.8945H155.152V23.2344H149.438ZM202.375 27.4023V32.4297H166.109V27.4023H202.375ZM198.164 33.6328V43.6445H176.938V44.9336H199.238V49.4883H170.105V39.3906H191.332V38.2734H170.105V33.6328H198.164ZM198.164 10.4727V20.4844H177.324V21.7734H198.852V26.2852H170.492V16.2305H191.289V15.0273H170.449V10.4727L198.164 10.4727ZM249.984 31.4844V36.9414H235.117V49.7891H228.285V36.9414H213.719V31.4844H249.984ZM246.848 11.8906V17.1758H236.105C236.814 20.2266 240.037 23.5566 248.523 24.4805L246.031 29.8516C238.791 29.0137 234.215 26.3066 231.852 22.6328C229.51 26.3066 224.977 29.0137 217.758 29.8516L215.266 24.4805C223.645 23.5566 226.867 20.2266 227.684 17.1758H216.898V11.8906L246.848 11.8906ZM284.102 20.0977V25.4258H256V11.418H262.875V20.0977H284.102ZM288.012 28.9492V34.2773H251.746V28.9492H288.012ZM284.359 43.4727V48.9727H255.527V37.0273H262.488V43.4727H284.359Z" fill="#11DCA9"/>
<path d="M50.3516 28.2188H60.3516C60.3516 22.6959 55.8744 18.2188 50.3516 18.2188V28.2188ZM50.3516 33.6328V43.6328C55.8744 43.6328 60.3516 39.1557 60.3516 33.6328H50.3516ZM14 33.6328H4C4 39.1557 8.47715 43.6328 14 43.6328V33.6328ZM14 28.2188V18.2188C8.47715 18.2188 4 22.6959 4 28.2188H14ZM28.8242 28.2188V38.2188C34.3471 38.2188 38.8242 33.7416 38.8242 28.2188H28.8242ZM28.8242 25.6406H38.8242C38.8242 20.1178 34.3471 15.6406 28.8242 15.6406V25.6406ZM18.2969 25.6406H8.29688C8.29688 31.1635 12.774 35.6406 18.2969 35.6406V25.6406ZM18.2969 11.7188V1.71875C12.774 1.71875 8.29688 6.1959 8.29688 11.7188H18.2969ZM46.0977 11.7187H56.0977C56.0977 6.1959 51.6205 1.71875 46.0977 1.71875V11.7187ZM46.0977 17.0469V27.0469C51.6205 27.0469 56.0977 22.5697 56.0977 17.0469H46.0977ZM25.1289 17.0469V7.04688C19.6061 7.04688 15.1289 11.524 15.1289 17.0469H25.1289ZM25.1289 20.2695H15.1289C15.1289 25.7924 19.6061 30.2695 25.1289 30.2695V20.2695ZM46.2695 20.2695H56.2695C56.2695 14.7467 51.7924 10.2695 46.2695 10.2695V20.2695ZM46.2695 25.6406V35.6406C51.7924 35.6406 56.2695 31.1635 56.2695 25.6406H46.2695ZM35.6133 25.6406V15.6406C30.0904 15.6406 25.6133 20.1178 25.6133 25.6406H35.6133ZM35.6133 28.2188H25.6133C25.6133 33.7416 30.0904 38.2188 35.6133 38.2188V28.2188ZM45.9688 42.4844L55.9683 42.5761C55.9689 42.5158 55.9689 42.4554 55.9684 42.3951L45.9688 42.4844ZM25.043 42.4844L35.0395 42.7474C35.0442 42.5697 35.0441 42.3919 35.0393 42.2142L25.043 42.4844ZM50.3516 28.2188H40.3516V33.6328H50.3516H60.3516V28.2188H50.3516ZM50.3516 33.6328V23.6328H14L14 33.6328V43.6328H50.3516V33.6328ZM14 33.6328H24V28.2188H14H4L4 33.6328H14ZM14 28.2188L14 38.2188H28.8242V28.2188V18.2188H14V28.2188ZM28.8242 28.2188H38.8242V25.6406H28.8242H18.8242V28.2188H28.8242ZM28.8242 25.6406V15.6406H18.2969V25.6406V35.6406H28.8242V25.6406ZM18.2969 25.6406H28.2969V11.7188H18.2969H8.29688V25.6406H18.2969ZM18.2969 11.7188V21.7188H46.0977V11.7187V1.71875L18.2969 1.71875V11.7188ZM46.0977 11.7187L36.0977 11.7188V17.0469H46.0977H56.0977V11.7187H46.0977ZM46.0977 17.0469V7.04687L25.1289 7.04688V17.0469V27.0469H46.0977V17.0469ZM25.1289 17.0469H15.1289V20.2695H25.1289H35.1289V17.0469H25.1289ZM25.1289 20.2695V30.2695H46.2695V20.2695V10.2695L25.1289 10.2695V20.2695ZM46.2695 20.2695H36.2695V25.6406H46.2695H56.2695V20.2695H46.2695ZM46.2695 25.6406V15.6406H35.6133V25.6406V35.6406H46.2695V25.6406ZM35.6133 25.6406H25.6133V28.2188H35.6133H45.6133V25.6406H35.6133ZM35.6133 28.2188V38.2188H50.3516V28.2188V18.2188H35.6133V28.2188ZM32.0469 35.0078V45.0078C33.7255 45.0078 35.037 45.1382 36.0096 45.3232C37.002 45.5119 37.4622 45.7233 37.5613 45.7759C37.6432 45.8193 37.1971 45.6018 36.7227 44.9032C36.1992 44.1321 35.9753 43.2624 35.9691 42.5737L45.9688 42.4844L55.9684 42.3951C55.9074 35.5704 51.8434 30.7117 46.9318 28.1069C42.4968 25.7549 37.1667 25.0078 32.0469 25.0078V35.0078ZM45.9688 42.4844L35.9692 42.3926C35.9763 41.6161 36.2317 40.7094 36.7631 39.9387C37.2407 39.246 37.6782 39.0398 37.5768 39.0933C37.4635 39.1532 36.9914 39.367 35.9984 39.557C35.0251 39.7433 33.7162 39.875 32.0469 39.875V49.875V59.875C37.1944 59.875 42.5041 59.1088 46.9163 56.7787C51.7429 54.2299 55.9055 49.4289 55.9683 42.5761L45.9688 42.4844ZM32.0469 49.875V39.875C30.3511 39.875 29.0135 39.7426 28.0125 39.5532C26.9906 39.3598 26.4943 39.1403 26.3634 39.0719C26.2414 39.0082 26.6867 39.2102 27.1775 39.9182C27.728 40.7124 27.9961 41.6601 27.9961 42.4844H17.9961H7.99609C7.99609 49.458 12.2773 54.2788 17.1053 56.8001C21.5324 59.112 26.8687 59.875 32.0469 59.875V49.875ZM17.9961 42.4844H27.9961C27.9961 43.2189 27.7607 44.1288 27.2181 44.9237C26.7306 45.6379 26.2764 45.8511 26.3789 45.7974C26.4956 45.7362 26.98 45.5191 28.0014 45.327C29.0017 45.139 30.3419 45.0078 32.0469 45.0078V35.0078V25.0078C26.8961 25.0078 21.5396 25.7518 17.0899 28.0854C12.1743 30.6634 7.99609 35.5415 7.99609 42.4844H17.9961ZM32.0469 40.207V30.207C29.4418 30.207 26.3231 30.348 23.5809 31.2405C22.1502 31.7061 19.9741 32.6394 18.1104 34.6383C15.9736 36.93 14.9681 39.8506 15.0466 42.7545L25.043 42.4844L35.0393 42.2142C35.0963 44.3233 34.338 46.5617 32.7383 48.2774C31.4116 49.7002 30.0627 50.1635 29.7707 50.2585C29.4076 50.3767 29.3583 50.3396 29.8583 50.2895C30.314 50.2439 31.0191 50.207 32.0469 50.207V40.207ZM25.043 42.4844L15.0464 42.2213C14.9715 45.0698 15.9358 48.0527 18.1829 50.4122C20.1224 52.4486 22.3776 53.3406 23.7857 53.7657C26.474 54.5772 29.5595 54.6758 32.0469 54.6758V44.6758V34.6758C30.9732 34.6758 30.2294 34.6444 29.732 34.6009C29.1854 34.5532 29.2156 34.5134 29.5658 34.6191C29.8353 34.7005 31.2634 35.1466 32.6657 36.6191C33.4192 37.4102 34.0787 38.4115 34.5139 39.5945C34.9433 40.7616 35.063 41.8554 35.0395 42.7474L25.043 42.4844ZM32.0469 44.6758V54.6758C34.5016 54.6758 37.5455 54.5726 40.2188 53.7731C41.6118 53.3565 43.8018 52.4983 45.7211 50.5698C47.942 48.3382 49.0508 45.4279 49.0508 42.4844H39.0508H29.0508C29.0508 41.5491 29.2125 40.4468 29.6756 39.3006C30.142 38.1466 30.814 37.1962 31.5453 36.4615C32.9033 35.0969 34.2446 34.6845 34.4883 34.6117C34.8114 34.515 34.8243 34.5547 34.2921 34.6017C33.8052 34.6447 33.0819 34.6758 32.0469 34.6758V44.6758ZM39.0508 42.4844H49.0508C49.0508 39.4937 47.9053 36.6445 45.7955 34.4792C43.9501 32.5853 41.8356 31.6877 40.4222 31.232C37.698 30.3536 34.6217 30.207 32.0469 30.207V40.207V50.207C33.0348 50.207 33.7189 50.2434 34.1645 50.2885C34.6507 50.3377 34.6195 50.3749 34.2848 50.267C34.0208 50.1819 32.755 49.7543 31.4709 48.4365C29.9223 46.8472 29.0508 44.6801 29.0508 42.4844H39.0508ZM85.7578 10H95.7578C95.7578 4.47715 91.2807 0 85.7578 0V10ZM85.7578 49.7461V59.7461C91.2807 59.7461 95.7578 55.2689 95.7578 49.7461H85.7578ZM78.7539 49.7461H68.7539C68.7539 55.2689 73.2311 59.7461 78.7539 59.7461V49.7461ZM78.7539 10V0C73.2311 0 68.7539 4.47715 68.7539 10H78.7539ZM73.7266 14.082L83.7266 14.082C83.7266 8.55918 79.2494 4.08203 73.7266 4.08203V14.082ZM55.4648 43.3438L47.0835 48.7983C49.8009 52.9739 55.1774 54.5123 59.6923 52.4063L55.4648 43.3438ZM51.9414 37.9297L47.6421 28.9011C45.0395 30.1404 43.0984 32.4424 42.3164 35.2169C41.5344 37.9913 41.9877 40.9683 43.56 43.3842L51.9414 37.9297ZM66.7227 19.4531L76.6667 20.5094C76.9663 17.6892 76.0543 14.8745 74.1578 12.7659C72.2613 10.6573 69.5587 9.45312 66.7227 9.45312V19.4531ZM54.2188 19.4531H44.2188C44.2188 24.976 48.6959 29.4531 54.2188 29.4531V19.4531ZM54.2188 14.082V4.08203C48.6959 4.08203 44.2188 8.55918 44.2188 14.082H54.2188ZM85.7578 10H75.7578V49.7461H85.7578H95.7578V10H85.7578ZM85.7578 49.7461V39.7461H78.7539V49.7461V59.7461H85.7578V49.7461ZM78.7539 49.7461H88.7539V10H78.7539H68.7539V49.7461H78.7539ZM78.7539 10V20H85.7578V10V0L78.7539 0V10ZM73.7266 14.082H63.7266C63.7266 19.4566 62.9482 23.132 61.3823 25.9487C59.8999 28.6154 57.1457 31.5252 51.2374 34.2812L55.4648 43.3438L59.6923 52.4063C68.5223 48.2873 74.8989 42.7967 78.8628 35.6665C82.7432 28.6864 83.7266 21.1684 83.7266 14.082L73.7266 14.082ZM55.4648 43.3438L63.8462 37.8892L60.3228 32.4751L51.9414 37.9297L43.56 43.3842L47.0835 48.7983L55.4648 43.3438ZM51.9414 37.9297L56.2407 46.9583C62.0204 44.2061 66.9676 40.8257 70.5949 36.197C74.3326 31.4275 76.0731 26.0982 76.6667 20.5094L66.7227 19.4531L56.7786 18.3969C56.4914 21.101 55.8041 22.6468 54.8529 23.8606C53.7912 25.2154 51.7882 26.9267 47.6421 28.9011L51.9414 37.9297ZM66.7227 19.4531V9.45312H54.2188V19.4531V29.4531H66.7227V19.4531ZM54.2188 19.4531H64.2188V14.082H54.2188H44.2188V19.4531H54.2188ZM54.2188 14.082V24.082H73.7266V14.082V4.08203L54.2188 4.08203V14.082ZM126.32 32.5156H136.32C136.32 26.9928 131.843 22.5156 126.32 22.5156V32.5156ZM126.32 37.8438V47.8438C131.843 47.8438 136.32 43.3666 136.32 37.8438H126.32ZM111.453 37.8438V27.8437C105.93 27.8437 101.453 32.3209 101.453 37.8438H111.453ZM111.453 49.7461V59.7461C116.976 59.7461 121.453 55.2689 121.453 49.7461H111.453ZM104.621 49.7461H94.6211C94.6211 55.2689 99.0982 59.7461 104.621 59.7461V49.7461ZM104.621 37.8438H114.621C114.621 32.3209 110.144 27.8437 104.621 27.8437V37.8438ZM90.0547 37.8438H80.0547C80.0547 43.3666 84.5318 47.8438 90.0547 47.8438V37.8438ZM90.0547 32.5156V22.5156C84.5318 22.5156 80.0547 26.9928 80.0547 32.5156H90.0547ZM100.797 11.5039L110.797 11.5039C110.797 5.98106 106.32 1.50391 100.797 1.50391V11.5039ZM100.797 15.5H90.7969C90.7969 21.0228 95.274 25.5 100.797 25.5V15.5ZM115.363 15.5V25.5C120.886 25.5 125.363 21.0228 125.363 15.5H115.363ZM115.363 11.5039V1.50391C109.84 1.50391 105.363 5.98106 105.363 11.5039L115.363 11.5039ZM122.281 11.5039H132.281C132.281 5.98106 127.804 1.50391 122.281 1.50391V11.5039ZM122.281 29.3359V39.3359C127.804 39.3359 132.281 34.8588 132.281 29.3359H122.281ZM94.0078 29.3359H84.0078C84.0078 34.8588 88.485 39.3359 94.0078 39.3359V29.3359ZM94.0078 11.5039V1.50391C88.485 1.50391 84.0078 5.98106 84.0078 11.5039H94.0078ZM100.797 23.8359H90.7969C90.7969 29.3588 95.274 33.8359 100.797 33.8359V23.8359ZM115.363 23.8359V33.8359C120.886 33.8359 125.363 29.3588 125.363 23.8359H115.363ZM115.363 20.8281H125.363C125.363 15.3053 120.886 10.8281 115.363 10.8281V20.8281ZM100.797 20.8281V10.8281C95.274 10.8281 90.7969 15.3053 90.7969 20.8281H100.797ZM126.32 32.5156H116.32V37.8438H126.32H136.32V32.5156H126.32ZM126.32 37.8438V27.8437H111.453V37.8438V47.8438H126.32V37.8438ZM111.453 37.8438H101.453V49.7461H111.453H121.453V37.8438H111.453ZM111.453 49.7461V39.7461H104.621V49.7461V59.7461H111.453V49.7461ZM104.621 49.7461H114.621V37.8438H104.621H94.6211V49.7461H104.621ZM104.621 37.8438V27.8437H90.0547V37.8438V47.8438H104.621V37.8438ZM90.0547 37.8438H100.055V32.5156H90.0547H80.0547V37.8438H90.0547ZM90.0547 32.5156V42.5156H126.32V32.5156V22.5156H90.0547V32.5156ZM100.797 11.5039H90.7969V15.5H100.797H110.797V11.5039L100.797 11.5039ZM100.797 15.5V25.5H115.363V15.5V5.5L100.797 5.5V15.5ZM115.363 15.5H125.363V11.5039H115.363L105.363 11.5039V15.5H115.363ZM115.363 11.5039V21.5039H122.281V11.5039V1.50391H115.363V11.5039ZM122.281 11.5039H112.281V29.3359H122.281H132.281V11.5039H122.281ZM122.281 29.3359V19.3359H94.0078V29.3359V39.3359H122.281V29.3359ZM94.0078 29.3359H104.008V11.5039H94.0078H84.0078V29.3359H94.0078ZM94.0078 11.5039V21.5039H100.797V11.5039V1.50391H94.0078V11.5039ZM100.797 23.8359V33.8359H115.363V23.8359V13.8359H100.797V23.8359ZM115.363 23.8359H125.363V20.8281H115.363H105.363V23.8359H115.363ZM115.363 20.8281V10.8281L100.797 10.8281V20.8281V30.8281H115.363V20.8281ZM100.797 20.8281H90.7969V23.8359H100.797H110.797V20.8281H100.797ZM139.211 12.6641L139.141 22.6638C139.185 22.6641 139.229 22.6641 139.272 22.6639L139.211 12.6641ZM147.547 17.7344L138.907 22.7695C140.699 25.8437 143.989 27.7344 147.547 27.7344V17.7344ZM155.152 17.7344V27.7344C160.675 27.7344 165.152 23.2572 165.152 17.7344H155.152ZM155.152 10V0C149.63 0 145.152 4.47715 145.152 10H155.152ZM161.984 10H171.984C171.984 4.47715 167.507 0 161.984 0V10ZM161.984 49.875V59.875C167.507 59.875 171.984 55.3978 171.984 49.875H161.984ZM155.152 49.875H145.152C145.152 55.3978 149.63 59.875 155.152 59.875V49.875ZM155.152 35.3516H165.152C165.152 29.8287 160.675 25.3516 155.152 25.3516V35.3516ZM148.062 35.3516V25.3516C144.234 25.3516 140.742 27.5371 139.069 30.9802L148.062 35.3516ZM139.211 18.8945L139.029 28.8929C139.149 28.8951 139.269 28.8951 139.389 28.8929L139.211 18.8945ZM135.258 26.9727L145.258 27.0496C145.258 26.9979 145.258 26.9462 145.258 26.8945L135.258 26.9727ZM149.438 23.2344V13.2344C146.498 13.2344 143.707 14.5277 141.807 16.7706C139.907 19.0135 139.09 21.9788 139.574 24.8784L149.438 23.2344ZM149.566 29.8945L139.633 28.7395C139.304 31.5737 140.201 34.4138 142.098 36.5447C143.996 38.6757 146.713 39.8945 149.566 39.8945V29.8945ZM155.152 29.8945V39.8945C160.675 39.8945 165.152 35.4174 165.152 29.8945H155.152ZM155.152 23.2344H165.152C165.152 17.7115 160.675 13.2344 155.152 13.2344V23.2344ZM139.211 12.6641L139.272 22.6639C139.253 22.664 139.174 22.6609 139.057 22.6286C138.94 22.5962 138.835 22.5482 138.755 22.499C138.677 22.4512 138.656 22.4231 138.683 22.4513C138.711 22.4812 138.794 22.5764 138.907 22.7695L147.547 17.7344L156.187 12.6992C152.746 6.7949 146.706 2.61789 139.15 2.66425L139.211 12.6641ZM147.547 17.7344V27.7344H155.152V17.7344V7.73437H147.547V17.7344ZM155.152 17.7344H165.152V10H155.152H145.152V17.7344H155.152ZM155.152 10V20H161.984V10V0H155.152V10ZM161.984 10H151.984V49.875H161.984H171.984V10H161.984ZM161.984 49.875V39.875H155.152V49.875V59.875H161.984V49.875ZM155.152 49.875H165.152V35.3516H155.152H145.152V49.875H155.152ZM155.152 35.3516V25.3516H148.062V35.3516V45.3516H155.152V35.3516ZM148.062 35.3516L139.069 30.9802C138.769 31.5959 138.567 31.6774 138.698 31.5873C138.76 31.5446 138.859 31.4912 138.984 31.4527C139.108 31.4142 139.193 31.4102 139.211 31.4102V41.4102V51.4102C147.53 51.4102 153.826 46.3686 157.056 39.7229L148.062 35.3516ZM139.211 41.4102V31.4102C139.198 31.4102 139.236 31.4092 139.31 31.4269C139.385 31.4447 139.467 31.4744 139.545 31.5147C139.718 31.6038 139.726 31.666 139.62 31.5241C139.369 31.1902 138.641 29.8661 138.641 26.9727H128.641H118.641C118.641 32.9737 120.125 38.8684 123.624 43.5296C127.278 48.398 132.815 51.4102 139.211 51.4102V41.4102ZM128.641 26.9727H138.641C138.641 24.1696 139.356 22.867 139.607 22.5344C139.714 22.3929 139.704 22.4583 139.523 22.5508C139.441 22.593 139.352 22.625 139.269 22.6445C139.186 22.6639 139.139 22.6638 139.141 22.6638L139.211 12.6641L139.281 2.66431C132.837 2.61925 127.286 5.65315 123.636 10.4958C120.138 15.1369 118.641 21.0101 118.641 26.9727H128.641ZM139.211 18.8945L139.393 8.89618C133.587 8.79063 129.497 12.3395 127.467 16.2269C125.685 19.6402 125.231 23.5516 125.258 27.0508L135.258 26.9727L145.258 26.8945C145.242 24.8937 145.582 24.7445 145.197 25.4831C144.956 25.9446 144.361 26.8637 143.166 27.6662C141.892 28.5223 140.414 28.9181 139.029 28.8929L139.211 18.8945ZM135.258 26.9727L125.258 26.8957C125.231 30.4145 125.679 34.3438 127.475 37.7707C129.55 41.7292 133.613 45.0938 139.211 45.0938V35.0938V25.0937C140.502 25.0937 141.914 25.4698 143.158 26.304C144.336 27.0937 144.936 28.0033 145.189 28.4852C145.43 28.9445 145.422 29.1323 145.367 28.8286C145.316 28.545 145.25 27.9752 145.258 27.0496L135.258 26.9727ZM139.211 35.0938V45.0938C144.827 45.0937 148.904 41.7289 150.976 37.7144C152.734 34.3088 153.164 30.4093 153.164 26.9727H143.164H133.164C133.164 27.9311 133.096 28.5297 133.04 28.8411C132.981 29.175 132.968 28.9983 133.204 28.5415C133.453 28.0586 134.059 27.1219 135.265 26.3112C136.541 25.4534 137.962 25.0937 139.211 25.0937V35.0938ZM143.164 26.9727H153.164C153.164 23.557 152.728 19.6757 150.984 16.2831C148.956 12.3383 144.854 8.79217 139.032 8.89612L139.211 18.8945L139.389 28.8929C138.05 28.9169 136.564 28.5393 135.257 27.659C134.034 26.8354 133.434 25.8892 133.196 25.4268C132.968 24.9829 132.982 24.817 133.042 25.149C133.097 25.4574 133.164 26.044 133.164 26.9727H143.164ZM149.438 23.2344L139.574 24.8784C139.674 25.4794 139.738 26.1966 139.738 26.9727H149.738H159.738C159.738 25.1276 159.588 23.3097 159.301 21.5904L149.438 23.2344ZM149.738 26.9727H139.738C139.738 27.564 139.7 28.1654 139.633 28.7395L149.566 29.8945L159.499 31.0495C159.648 29.776 159.738 28.4009 159.738 26.9727H149.738ZM149.566 29.8945V39.8945H155.152V29.8945V19.8945H149.566V29.8945ZM155.152 29.8945H165.152V23.2344H155.152H145.152V29.8945H155.152ZM155.152 23.2344V13.2344H149.438V23.2344V33.2344H155.152V23.2344ZM202.375 27.4023L212.375 27.4023C212.375 21.8795 207.898 17.4023 202.375 17.4023V27.4023ZM202.375 32.4297V42.4297C207.898 42.4297 212.375 37.9525 212.375 32.4297H202.375ZM166.109 32.4297H156.109C156.109 37.9525 160.587 42.4297 166.109 42.4297V32.4297ZM166.109 27.4023V17.4023C160.587 17.4023 156.109 21.8795 156.109 27.4023H166.109ZM198.164 33.6328H208.164C208.164 28.11 203.687 23.6328 198.164 23.6328V33.6328ZM198.164 43.6445V53.6445C203.687 53.6445 208.164 49.1674 208.164 43.6445H198.164ZM176.938 43.6445V33.6445C171.415 33.6445 166.938 38.1217 166.938 43.6445H176.938ZM176.938 44.9336H166.938C166.938 50.4564 171.415 54.9336 176.938 54.9336V44.9336ZM199.238 44.9336H209.238C209.238 39.4107 204.761 34.9336 199.238 34.9336V44.9336ZM199.238 49.4883V59.4883C204.761 59.4883 209.238 55.0111 209.238 49.4883H199.238ZM170.105 49.4883H160.105C160.105 55.0111 164.583 59.4883 170.105 59.4883V49.4883ZM170.105 39.3906V29.3906C164.583 29.3906 160.105 33.8678 160.105 39.3906H170.105ZM191.332 39.3906V49.3906C196.855 49.3906 201.332 44.9135 201.332 39.3906H191.332ZM191.332 38.2734H201.332C201.332 32.7506 196.855 28.2734 191.332 28.2734V38.2734ZM170.105 38.2734H160.105C160.105 43.7963 164.583 48.2734 170.105 48.2734V38.2734ZM170.105 33.6328V23.6328C164.583 23.6328 160.105 28.11 160.105 33.6328H170.105ZM198.164 10.4727H208.164C208.164 4.94981 203.687 0.472656 198.164 0.472656V10.4727ZM198.164 20.4844V30.4844C203.687 30.4844 208.164 26.0072 208.164 20.4844L198.164 20.4844ZM177.324 20.4844V10.4844C171.801 10.4844 167.324 14.9615 167.324 20.4844H177.324ZM177.324 21.7734H167.324C167.324 27.2963 171.801 31.7734 177.324 31.7734V21.7734ZM198.852 21.7734L208.852 21.7734C208.852 16.2506 204.374 11.7734 198.852 11.7734V21.7734ZM198.852 26.2852V36.2852C204.374 36.2852 208.852 31.808 208.852 26.2852L198.852 26.2852ZM170.492 26.2852H160.492C160.492 31.808 164.969 36.2852 170.492 36.2852V26.2852ZM170.492 16.2305V6.23047C164.969 6.23047 160.492 10.7076 160.492 16.2305H170.492ZM191.289 16.2305V26.2305C196.812 26.2305 201.289 21.7533 201.289 16.2305H191.289ZM191.289 15.0273H201.289C201.289 9.5045 196.812 5.02734 191.289 5.02734V15.0273ZM170.449 15.0273H160.449C160.449 20.5502 164.926 25.0273 170.449 25.0273V15.0273ZM170.449 10.4727V0.472656C164.926 0.472656 160.449 4.94981 160.449 10.4727H170.449ZM202.375 27.4023H192.375V32.4297H202.375H212.375V27.4023L202.375 27.4023ZM202.375 32.4297V22.4297H166.109V32.4297V42.4297H202.375V32.4297ZM166.109 32.4297H176.109V27.4023H166.109H156.109V32.4297H166.109ZM166.109 27.4023V37.4023H202.375V27.4023V17.4023H166.109V27.4023ZM198.164 33.6328H188.164V43.6445H198.164H208.164V33.6328H198.164ZM198.164 43.6445V33.6445H176.938V43.6445V53.6445H198.164V43.6445ZM176.938 43.6445H166.938V44.9336H176.938H186.938V43.6445H176.938ZM176.938 44.9336V54.9336H199.238V44.9336V34.9336H176.938V44.9336ZM199.238 44.9336H189.238V49.4883H199.238H209.238V44.9336H199.238ZM199.238 49.4883V39.4883H170.105V49.4883V59.4883H199.238V49.4883ZM170.105 49.4883H180.105V39.3906H170.105H160.105V49.4883H170.105ZM170.105 39.3906V49.3906H191.332V39.3906V29.3906H170.105V39.3906ZM191.332 39.3906H201.332V38.2734H191.332H181.332V39.3906H191.332ZM191.332 38.2734V28.2734H170.105V38.2734V48.2734H191.332V38.2734ZM170.105 38.2734H180.105V33.6328H170.105H160.105V38.2734H170.105ZM170.105 33.6328V43.6328H198.164V33.6328V23.6328H170.105V33.6328ZM198.164 10.4727H188.164V20.4844H198.164L208.164 20.4844V10.4727H198.164ZM198.164 20.4844V10.4844H177.324V20.4844V30.4844H198.164V20.4844ZM177.324 20.4844H167.324V21.7734H177.324H187.324V20.4844H177.324ZM177.324 21.7734V31.7734H198.852V21.7734V11.7734H177.324V21.7734ZM198.852 21.7734H188.852V26.2852H198.852L208.852 26.2852V21.7734L198.852 21.7734ZM198.852 26.2852V16.2852H170.492V26.2852V36.2852H198.852V26.2852ZM170.492 26.2852H180.492V16.2305H170.492H160.492V26.2852H170.492ZM170.492 16.2305V26.2305H191.289V16.2305V6.23047L170.492 6.23047V16.2305ZM191.289 16.2305H201.289V15.0273H191.289H181.289V16.2305H191.289ZM191.289 15.0273V5.02734L170.449 5.02734V15.0273V25.0273H191.289V15.0273ZM170.449 15.0273H180.449V10.4727L170.449 10.4727H160.449V15.0273H170.449ZM170.449 10.4727V20.4727H198.164V10.4727V0.472656L170.449 0.472656V10.4727ZM249.984 31.4844H259.984C259.984 25.9615 255.507 21.4844 249.984 21.4844V31.4844ZM249.984 36.9414V46.9414C255.507 46.9414 259.984 42.4643 259.984 36.9414H249.984ZM235.117 36.9414V26.9414C229.594 26.9414 225.117 31.4186 225.117 36.9414H235.117ZM235.117 49.7891V59.7891C240.64 59.7891 245.117 55.3119 245.117 49.7891H235.117ZM228.285 49.7891H218.285C218.285 55.3119 222.762 59.7891 228.285 59.7891V49.7891ZM228.285 36.9414H238.285C238.285 31.4186 233.808 26.9414 228.285 26.9414V36.9414ZM213.719 36.9414H203.719C203.719 42.4643 208.196 46.9414 213.719 46.9414V36.9414ZM213.719 31.4844V21.4844C208.196 21.4844 203.719 25.9615 203.719 31.4844H213.719ZM246.848 11.8906H256.848C256.848 6.36778 252.37 1.89062 246.848 1.89062V11.8906ZM246.848 17.1758V27.1758C252.37 27.1758 256.848 22.6986 256.848 17.1758H246.848ZM236.105 17.1758V7.17578C233.055 7.17578 230.172 8.56785 228.275 10.9563C226.378 13.3448 225.675 16.4684 226.365 19.4394L236.105 17.1758ZM248.523 24.4805L257.595 28.6894C258.951 25.7668 258.815 22.3698 257.231 19.5641C255.647 16.7585 252.809 14.8879 249.606 14.5392L248.523 24.4805ZM246.031 29.8516L244.882 39.7853C249.167 40.2812 253.287 37.9735 255.102 34.0605L246.031 29.8516ZM231.852 22.6328L240.262 17.2228C238.417 14.3558 235.24 12.6258 231.831 12.6328C228.422 12.6399 225.251 14.3831 223.419 17.2577L231.852 22.6328ZM217.758 29.8516L208.687 34.0605C210.503 37.9746 214.625 40.2824 218.911 39.7849L217.758 29.8516ZM215.266 24.4805L214.17 14.5407C210.97 14.8935 208.135 16.7655 206.554 19.5701C204.973 22.3748 204.839 25.769 206.195 28.6894L215.266 24.4805ZM227.684 17.1758L237.344 19.7609C238.147 16.7582 237.509 13.5526 235.616 11.0869C233.724 8.62119 230.792 7.17578 227.684 7.17578V17.1758ZM216.898 17.1758H206.898C206.898 22.6986 211.376 27.1758 216.898 27.1758V17.1758ZM216.898 11.8906V1.89062C211.376 1.89062 206.898 6.36778 206.898 11.8906H216.898ZM249.984 31.4844H239.984V36.9414H249.984H259.984V31.4844H249.984ZM249.984 36.9414V26.9414H235.117V36.9414V46.9414H249.984V36.9414ZM235.117 36.9414H225.117V49.7891H235.117H245.117V36.9414H235.117ZM235.117 49.7891V39.7891H228.285V49.7891V59.7891H235.117V49.7891ZM228.285 49.7891H238.285V36.9414H228.285H218.285V49.7891H228.285ZM228.285 36.9414V26.9414H213.719V36.9414V46.9414H228.285V36.9414ZM213.719 36.9414H223.719V31.4844H213.719H203.719V36.9414H213.719ZM213.719 31.4844V41.4844H249.984V31.4844V21.4844H213.719V31.4844ZM246.848 11.8906L236.848 11.8906V17.1758H246.848H256.848V11.8906H246.848ZM246.848 17.1758V7.17578L236.105 7.17578V17.1758V27.1758H246.848V17.1758ZM236.105 17.1758L226.365 19.4394C228.466 28.4819 236.999 33.2849 247.441 34.4217L248.523 24.4805L249.606 14.5392C246.424 14.1928 245.219 13.4908 245.021 13.3563C244.946 13.3057 245.101 13.3967 245.316 13.7C245.533 14.0066 245.731 14.4197 245.846 14.9122L236.105 17.1758ZM248.523 24.4805L239.452 20.2715L236.96 25.6426L246.031 29.8516L255.102 34.0605L257.595 28.6894L248.523 24.4805ZM246.031 29.8516L247.181 19.9179C241.808 19.2961 240.485 17.5692 240.262 17.2228L231.852 22.6328L223.441 28.0429C227.945 35.0441 235.774 38.7313 244.882 39.7853L246.031 29.8516ZM231.852 22.6328L223.419 17.2577C223.208 17.5895 221.933 19.2998 216.605 19.9183L217.758 29.8516L218.911 39.7849C228.02 38.7276 235.812 35.0238 240.284 28.0079L231.852 22.6328ZM217.758 29.8516L226.829 25.6426L224.337 20.2715L215.266 24.4805L206.195 28.6894L208.687 34.0605L217.758 29.8516ZM215.266 24.4805L216.362 34.4202C226.889 33.2595 235.032 28.4007 237.344 19.7609L227.684 17.1758L218.024 14.5907C218.131 14.1895 218.301 13.8534 218.481 13.6045C218.661 13.3568 218.778 13.2946 218.688 13.3563C218.467 13.5063 217.272 14.1987 214.17 14.5407L215.266 24.4805ZM227.684 17.1758V7.17578H216.898V17.1758V27.1758H227.684V17.1758ZM216.898 17.1758H226.898V11.8906H216.898H206.898V17.1758H216.898ZM216.898 11.8906V21.8906H246.848V11.8906V1.89062L216.898 1.89062V11.8906ZM284.102 20.0977H294.102C294.102 14.5748 289.624 10.0977 284.102 10.0977V20.0977ZM284.102 25.4258V35.4258C289.624 35.4258 294.102 30.9486 294.102 25.4258H284.102ZM256 25.4258H246C246 30.9486 250.477 35.4258 256 35.4258V25.4258ZM256 11.418V1.41797C250.477 1.41797 246 5.89512 246 11.418H256ZM262.875 11.418H272.875C272.875 5.89512 268.398 1.41797 262.875 1.41797V11.418ZM262.875 20.0977H252.875C252.875 25.6205 257.352 30.0977 262.875 30.0977V20.0977ZM288.012 28.9492H298.012C298.012 23.4264 293.535 18.9492 288.012 18.9492V28.9492ZM288.012 34.2773V44.2773C293.535 44.2773 298.012 39.8002 298.012 34.2773H288.012ZM251.746 34.2773H241.746C241.746 39.8002 246.223 44.2773 251.746 44.2773V34.2773ZM251.746 28.9492V18.9492C246.223 18.9492 241.746 23.4264 241.746 28.9492H251.746ZM284.359 43.4727H294.359C294.359 37.9498 289.882 33.4727 284.359 33.4727V43.4727ZM284.359 48.9727V58.9727C289.882 58.9727 294.359 54.4955 294.359 48.9727H284.359ZM255.527 48.9727H245.527C245.527 54.4955 250.005 58.9727 255.527 58.9727V48.9727ZM255.527 37.0273V27.0273C250.005 27.0273 245.527 31.5045 245.527 37.0273H255.527ZM262.488 37.0273H272.488C272.488 31.5045 268.011 27.0273 262.488 27.0273V37.0273ZM262.488 43.4727H252.488C252.488 48.9955 256.965 53.4727 262.488 53.4727V43.4727ZM284.102 20.0977H274.102V25.4258H284.102H294.102V20.0977H284.102ZM284.102 25.4258V15.4258H256V25.4258V35.4258H284.102V25.4258ZM256 25.4258H266V11.418H256H246V25.4258H256ZM256 11.418V21.418H262.875V11.418V1.41797H256V11.418ZM262.875 11.418H252.875V20.0977H262.875H272.875V11.418H262.875ZM262.875 20.0977V30.0977H284.102V20.0977V10.0977H262.875V20.0977ZM288.012 28.9492H278.012V34.2773H288.012H298.012V28.9492H288.012ZM288.012 34.2773V24.2773H251.746V34.2773V44.2773H288.012V34.2773ZM251.746 34.2773H261.746V28.9492H251.746H241.746V34.2773H251.746ZM251.746 28.9492V38.9492H288.012V28.9492V18.9492H251.746V28.9492ZM284.359 43.4727H274.359V48.9727H284.359H294.359V43.4727H284.359ZM284.359 48.9727V38.9727H255.527V48.9727V58.9727H284.359V48.9727ZM255.527 48.9727H265.527V37.0273H255.527H245.527V48.9727H255.527ZM255.527 37.0273V47.0273H262.488V37.0273V27.0273H255.527V37.0273ZM262.488 37.0273H252.488V43.4727H262.488H272.488V37.0273H262.488ZM262.488 43.4727V53.4727H284.359V43.4727V33.4727H262.488V43.4727Z" fill="white" mask="url(#path-1-outside-1_3990_1465)"/>
</g>
<defs>
<filter id="filter0_d_3990_1465" x="0" y="0" width="302.012" height="67.875" filterUnits="userSpaceOnUse" color-interpolation-filters="sRGB">
<feFlood flood-opacity="0" result="BackgroundImageFix"/>
<feColorMatrix in="SourceAlpha" type="matrix" values="0 0 0 0 0 0 0 0 0 0 0 0 0 0 0 0 0 0 127 0" result="hardAlpha"/>
<feOffset dy="4"/>
<feGaussianBlur stdDeviation="2"/>
<feComposite in2="hardAlpha" operator="out"/>
<feColorMatrix type="matrix" values="0 0 0 0 0 0 0 0 0 0 0 0 0 0 0 0 0 0 0.07 0"/>
<feBlend mode="normal" in2="BackgroundImageFix" result="effect1_dropShadow_3990_1465"/>
<feBlend mode="normal" in="SourceGraphic" in2="effect1_dropShadow_3990_1465" result="shape"/>
</filter>
</defs>
</svg>
