<svg width="227" height="68" viewBox="0 0 227 68" fill="none" xmlns="http://www.w3.org/2000/svg">
<g filter="url(#filter0_d_3990_1419)">
<mask id="path-1-outside-1_3990_1419" maskUnits="userSpaceOnUse" x="3.61332" y="-0.507813" width="219" height="61" fill="black">
<rect fill="white" x="3.61332" y="-0.507813" width="219" height="61"/>
<path d="M48.0313 10.0859V38.9609H41.1133V10.0859L48.0313 10.0859ZM48.9766 43.6875V49.1875H20.8321V36.082H27.793V43.6875H48.9766ZM30.4571 15.9727C30.4141 20.7422 32.3907 25.6836 39.3086 27.7461L35.8282 33.1172C31.4883 31.8066 28.6094 29.207 26.8907 25.8555C25.1075 29.4648 22.1211 32.3652 17.5235 33.8047L14 28.3477C21.1329 26.1562 23.2383 20.8281 23.2813 15.9727V12.2344H30.4571V15.9727ZM75.961 13.3086V25.9844H62.125V28.3906H76.7344V33.6758H69.2149V37.5C72.0508 37.3711 74.8653 37.1992 77.5508 36.9414L78.0664 41.9258C69.4727 43.3867 60.836 43.3438 53.4454 43.2148L52.6719 37.6719C55.7012 37.7148 58.9668 37.7148 62.3399 37.6719V33.6758H55.2071V21.043H69.1289V18.6797H55.25V13.3086H75.961ZM86.4024 10V49.875H79.5704V10H86.4024ZM122.367 10V18.0781H127.309V23.707H122.367V32H115.449V10H122.367ZM111.066 12.1914C111.066 23.0195 104.621 30.1094 92.5899 33.2461L89.8829 27.7461C98.1758 25.834 102.516 22.0098 103.461 17.6055H91.9454V12.1914L111.066 12.1914ZM122.367 33.2891V49.3164H95.8555V33.2891H122.367ZM102.688 38.7891V43.9883H115.578V38.7891H102.688ZM153.305 34.793C153.305 37.7578 154.336 40.7871 157.172 42.9141C160.029 40.7012 161.168 37.6504 161.211 34.793V33.9336H167.957V34.793C167.957 38.9609 169.633 42.6133 175.047 44.2031L171.738 49.1445C168.064 47.9629 165.723 45.7715 164.348 42.9141C163.016 45.8145 160.76 48.2422 157.301 49.5312C153.67 48.2637 151.393 45.9004 150.082 43.043C148.664 45.793 146.365 47.9629 142.863 49.1445L139.512 44.2031C144.84 42.4414 146.559 38.6602 146.559 34.793V33.9336H153.305V34.793ZM171.695 10.0859V32.3437H164.777V10.0859H171.695ZM149.738 11.8906C156.012 11.8906 160.867 15.9297 160.867 21.6445C160.867 27.1875 156.012 31.2695 149.738 31.2695C143.422 31.2695 138.566 27.1875 138.609 21.6445C138.566 15.9297 143.422 11.8906 149.738 11.8906ZM149.738 17.6484C147.117 17.6484 145.313 18.9805 145.313 21.6445C145.313 24.1797 147.117 25.5977 149.738 25.5547C152.231 25.5977 154.035 24.1797 154.035 21.6445C154.035 18.9805 152.231 17.6484 149.738 17.6484ZM208.563 20.0977V25.4258L180.461 25.4258V11.418H187.336V20.0977L208.563 20.0977ZM212.473 28.9492V34.2773H176.207V28.9492H212.473ZM208.82 43.4727V48.9727H179.988V37.0273H186.949V43.4727H208.82Z"/>
</mask>
<path d="M48.0313 10.0859V38.9609H41.1133V10.0859L48.0313 10.0859ZM48.9766 43.6875V49.1875H20.8321V36.082H27.793V43.6875H48.9766ZM30.4571 15.9727C30.4141 20.7422 32.3907 25.6836 39.3086 27.7461L35.8282 33.1172C31.4883 31.8066 28.6094 29.207 26.8907 25.8555C25.1075 29.4648 22.1211 32.3652 17.5235 33.8047L14 28.3477C21.1329 26.1562 23.2383 20.8281 23.2813 15.9727V12.2344H30.4571V15.9727ZM75.961 13.3086V25.9844H62.125V28.3906H76.7344V33.6758H69.2149V37.5C72.0508 37.3711 74.8653 37.1992 77.5508 36.9414L78.0664 41.9258C69.4727 43.3867 60.836 43.3438 53.4454 43.2148L52.6719 37.6719C55.7012 37.7148 58.9668 37.7148 62.3399 37.6719V33.6758H55.2071V21.043H69.1289V18.6797H55.25V13.3086H75.961ZM86.4024 10V49.875H79.5704V10H86.4024ZM122.367 10V18.0781H127.309V23.707H122.367V32H115.449V10H122.367ZM111.066 12.1914C111.066 23.0195 104.621 30.1094 92.5899 33.2461L89.8829 27.7461C98.1758 25.834 102.516 22.0098 103.461 17.6055H91.9454V12.1914L111.066 12.1914ZM122.367 33.2891V49.3164H95.8555V33.2891H122.367ZM102.688 38.7891V43.9883H115.578V38.7891H102.688ZM153.305 34.793C153.305 37.7578 154.336 40.7871 157.172 42.9141C160.029 40.7012 161.168 37.6504 161.211 34.793V33.9336H167.957V34.793C167.957 38.9609 169.633 42.6133 175.047 44.2031L171.738 49.1445C168.064 47.9629 165.723 45.7715 164.348 42.9141C163.016 45.8145 160.76 48.2422 157.301 49.5312C153.67 48.2637 151.393 45.9004 150.082 43.043C148.664 45.793 146.365 47.9629 142.863 49.1445L139.512 44.2031C144.84 42.4414 146.559 38.6602 146.559 34.793V33.9336H153.305V34.793ZM171.695 10.0859V32.3437H164.777V10.0859H171.695ZM149.738 11.8906C156.012 11.8906 160.867 15.9297 160.867 21.6445C160.867 27.1875 156.012 31.2695 149.738 31.2695C143.422 31.2695 138.566 27.1875 138.609 21.6445C138.566 15.9297 143.422 11.8906 149.738 11.8906ZM149.738 17.6484C147.117 17.6484 145.313 18.9805 145.313 21.6445C145.313 24.1797 147.117 25.5977 149.738 25.5547C152.231 25.5977 154.035 24.1797 154.035 21.6445C154.035 18.9805 152.231 17.6484 149.738 17.6484ZM208.563 20.0977V25.4258L180.461 25.4258V11.418H187.336V20.0977L208.563 20.0977ZM212.473 28.9492V34.2773H176.207V28.9492H212.473ZM208.82 43.4727V48.9727H179.988V37.0273H186.949V43.4727H208.82Z" fill="#11DCA9"/>
<path d="M48.0313 10.0859H58.0313C58.0313 4.56309 53.5541 0.0859375 48.0313 0.0859375V10.0859ZM48.0313 38.9609V48.9609C53.5541 48.9609 58.0313 44.4838 58.0313 38.9609H48.0313ZM41.1133 38.9609H31.1133C31.1133 44.4838 35.5905 48.9609 41.1133 48.9609V38.9609ZM41.1133 10.0859V0.0859375C35.5905 0.0859375 31.1133 4.56309 31.1133 10.0859H41.1133ZM48.9766 43.6875H58.9766C58.9766 38.1647 54.4994 33.6875 48.9766 33.6875V43.6875ZM48.9766 49.1875V59.1875C54.4994 59.1875 58.9766 54.7103 58.9766 49.1875H48.9766ZM20.8321 49.1875H10.8321C10.8321 54.7103 15.3092 59.1875 20.8321 59.1875V49.1875ZM20.8321 36.082V26.082C15.3092 26.082 10.8321 30.5592 10.8321 36.082H20.8321ZM27.793 36.082H37.793C37.793 30.5592 33.3159 26.082 27.793 26.082V36.082ZM27.793 43.6875H17.793C17.793 49.2103 22.2702 53.6875 27.793 53.6875V43.6875ZM30.4571 15.9727L40.4567 16.0627C40.4569 16.0327 40.4571 16.0027 40.4571 15.9727H30.4571ZM39.3086 27.7461L47.7007 33.1842C49.4138 30.5406 49.781 27.2444 48.6919 24.2886C47.6027 21.3328 45.1845 19.0629 42.1657 18.1629L39.3086 27.7461ZM35.8282 33.1172L32.9373 42.6902C37.1994 43.9773 41.7991 42.2916 44.2203 38.5553L35.8282 33.1172ZM26.8907 25.8555L35.7888 21.2923C34.0649 17.9306 30.5936 15.8275 26.8158 15.8557C23.0379 15.884 19.5985 18.039 17.9251 21.4261L26.8907 25.8555ZM17.5235 33.8047L9.12246 39.229C11.5612 43.006 16.2207 44.6912 20.5113 43.3479L17.5235 33.8047ZM14 28.3477L11.0632 18.7886C8.06882 19.7086 5.67853 21.9786 4.60528 24.9215C3.53203 27.8645 3.89984 31.1403 5.59902 33.7719L14 28.3477ZM23.2813 15.9727L33.2809 16.0611C33.2812 16.0317 33.2813 16.0022 33.2813 15.9727H23.2813ZM23.2813 12.2344V2.23438C17.7584 2.23438 13.2813 6.71153 13.2813 12.2344H23.2813ZM30.4571 12.2344H40.4571C40.4571 6.71153 35.9799 2.23437 30.4571 2.23437V12.2344ZM48.0313 10.0859L38.0313 10.0859V38.9609H48.0313H58.0313V10.0859H48.0313ZM48.0313 38.9609V28.9609H41.1133V38.9609V48.9609H48.0313V38.9609ZM41.1133 38.9609H51.1133V10.0859L41.1133 10.0859H31.1133V38.9609H41.1133ZM41.1133 10.0859V20.0859H48.0313V10.0859V0.0859375H41.1133V10.0859ZM48.9766 43.6875H38.9766V49.1875H48.9766H58.9766V43.6875H48.9766ZM48.9766 49.1875V39.1875H20.8321V49.1875V59.1875H48.9766V49.1875ZM20.8321 49.1875H30.8321V36.082H20.8321H10.8321L10.8321 49.1875H20.8321ZM20.8321 36.082V46.082H27.793V36.082V26.082H20.8321V36.082ZM27.793 36.082H17.793V43.6875H27.793H37.793V36.082H27.793ZM27.793 43.6875V53.6875H48.9766V43.6875V33.6875H27.793V43.6875ZM30.4571 15.9727L20.4575 15.8826C20.4239 19.6126 21.1693 24.1275 23.8797 28.3115C26.6914 32.6519 31.0214 35.7103 36.4515 37.3293L39.3086 27.7461L42.1657 18.1629C41.3641 17.9239 40.9703 17.6819 40.8183 17.5733C40.7392 17.5167 40.7011 17.4789 40.6876 17.4648C40.6742 17.4508 40.6689 17.4431 40.6653 17.4375C40.6622 17.4327 40.6115 17.3561 40.5588 17.1419C40.5029 16.9151 40.4522 16.5609 40.4567 16.0627L30.4571 15.9727ZM39.3086 27.7461L30.9165 22.308L27.4361 27.6791L35.8282 33.1172L44.2203 38.5553L47.7007 33.1842L39.3086 27.7461ZM35.8282 33.1172L38.719 23.5442C36.9836 23.0201 36.2707 22.232 35.7888 21.2923L26.8907 25.8555L17.9925 30.4186C20.9481 36.1821 25.9931 40.5932 32.9373 42.6902L35.8282 33.1172ZM26.8907 25.8555L17.9251 21.4261C17.2674 22.7574 16.3485 23.6939 14.5356 24.2615L17.5235 33.8047L20.5113 43.3479C27.8937 41.0366 32.9475 36.1723 35.8562 30.2849L26.8907 25.8555ZM17.5235 33.8047L25.9245 28.3804L22.4011 22.9234L14 28.3477L5.59902 33.7719L9.12246 39.229L17.5235 33.8047ZM14 28.3477L16.9369 37.9067C22.561 36.1788 26.9005 32.9365 29.7098 28.5688C32.4142 24.3642 33.2475 19.8317 33.2809 16.0611L23.2813 15.9727L13.2817 15.8842C13.2721 16.9691 13.0312 17.5283 12.8889 17.7495C12.8257 17.8479 12.7291 17.969 12.5278 18.1171C12.3185 18.271 11.8812 18.5373 11.0632 18.7886L14 28.3477ZM23.2813 15.9727H33.2813V12.2344H23.2813H13.2813V15.9727H23.2813ZM23.2813 12.2344V22.2344H30.4571V12.2344V2.23437L23.2813 2.23438V12.2344ZM30.4571 12.2344H20.4571V15.9727H30.4571H40.4571V12.2344H30.4571ZM75.961 13.3086L85.961 13.3086C85.961 7.78575 81.4838 3.30859 75.961 3.30859V13.3086ZM75.961 25.9844V35.9844C81.4838 35.9844 85.961 31.5072 85.961 25.9844L75.961 25.9844ZM62.125 25.9844V15.9844C56.6022 15.9844 52.125 20.4615 52.125 25.9844H62.125ZM62.125 28.3906H52.125C52.125 33.9135 56.6022 38.3906 62.125 38.3906V28.3906ZM76.7344 28.3906L86.7344 28.3906C86.7344 22.8678 82.2573 18.3906 76.7344 18.3906V28.3906ZM76.7344 33.6758V43.6758C82.2573 43.6758 86.7344 39.1986 86.7344 33.6758H76.7344ZM69.2149 33.6758V23.6758C63.692 23.6758 59.2149 28.1529 59.2149 33.6758H69.2149ZM69.2149 37.5H59.2149C59.2149 40.231 60.3318 42.8431 62.3062 44.7298C64.2807 46.6166 66.9408 47.6137 69.669 47.4897L69.2149 37.5ZM77.5508 36.9414L87.4977 35.9124C86.9324 30.4475 82.0641 26.4622 76.5952 26.9872L77.5508 36.9414ZM78.0664 41.9258L79.7424 51.7843C84.9374 50.9012 88.5556 46.1383 88.0134 40.8968L78.0664 41.9258ZM53.4454 43.2148L43.5413 44.5968C44.2216 49.4723 48.349 53.1275 53.271 53.2133L53.4454 43.2148ZM52.6719 37.6719L52.8137 27.6729C49.896 27.6315 47.1058 28.8666 45.1748 31.0542C43.2438 33.2419 42.3646 36.1638 42.7679 39.0538L52.6719 37.6719ZM62.3399 37.6719L62.4673 47.6711C67.94 47.6013 72.3399 43.145 72.3399 37.6719H62.3399ZM62.3399 33.6758H72.3399C72.3399 28.1529 67.8627 23.6758 62.3399 23.6758V33.6758ZM55.2071 33.6758H45.2071C45.2071 39.1986 49.6842 43.6758 55.2071 43.6758V33.6758ZM55.2071 21.043V11.043C49.6842 11.043 45.2071 15.5201 45.2071 21.043H55.2071ZM69.1289 21.043V31.043C74.6518 31.043 79.1289 26.5658 79.1289 21.043L69.1289 21.043ZM69.1289 18.6797L79.1289 18.6797C79.1289 13.1568 74.6518 8.67969 69.1289 8.67969V18.6797ZM55.25 18.6797H45.25C45.25 24.2025 49.7272 28.6797 55.25 28.6797V18.6797ZM55.25 13.3086V3.30859C49.7272 3.30859 45.25 7.78575 45.25 13.3086H55.25ZM86.4024 10H96.4024C96.4024 4.47715 91.9252 0 86.4024 0V10ZM86.4024 49.875V59.875C91.9252 59.875 96.4024 55.3978 96.4024 49.875H86.4024ZM79.5704 49.875H69.5704C69.5704 55.3978 74.0475 59.875 79.5704 59.875V49.875ZM79.5704 10V0C74.0475 0 69.5704 4.47715 69.5704 10H79.5704ZM75.961 13.3086H65.961V25.9844H75.961L85.961 25.9844V13.3086L75.961 13.3086ZM75.961 25.9844V15.9844H62.125V25.9844V35.9844H75.961V25.9844ZM62.125 25.9844H52.125V28.3906H62.125H72.125V25.9844H62.125ZM62.125 28.3906V38.3906H76.7344V28.3906V18.3906H62.125V28.3906ZM76.7344 28.3906H66.7344V33.6758H76.7344H86.7344V28.3906L76.7344 28.3906ZM76.7344 33.6758V23.6758H69.2149V33.6758V43.6758H76.7344V33.6758ZM69.2149 33.6758H59.2149V37.5H69.2149H79.2149V33.6758H69.2149ZM69.2149 37.5L69.669 47.4897C72.5967 47.3566 75.5927 47.1754 78.5064 46.8956L77.5508 36.9414L76.5952 26.9872C74.1379 27.2231 71.5049 27.3856 68.7608 27.5103L69.2149 37.5ZM77.5508 36.9414L67.6039 37.9704L68.1195 42.9548L78.0664 41.9258L88.0134 40.8968L87.4977 35.9124L77.5508 36.9414ZM78.0664 41.9258L76.3905 32.0672C68.8073 33.3564 61.0034 33.3451 53.6197 33.2164L53.4454 43.2148L53.271 53.2133C60.6685 53.3424 70.1381 53.4171 79.7424 51.7843L78.0664 41.9258ZM53.4454 43.2148L63.3494 41.8329L62.576 36.2899L52.6719 37.6719L42.7679 39.0538L43.5413 44.5968L53.4454 43.2148ZM52.6719 37.6719L52.5301 47.6709C55.6585 47.7152 59.0144 47.715 62.4673 47.6711L62.3399 37.6719L62.2125 27.6727C58.9193 27.7146 55.7439 27.7144 52.8137 27.6729L52.6719 37.6719ZM62.3399 37.6719H72.3399V33.6758H62.3399H52.3399V37.6719H62.3399ZM62.3399 33.6758V23.6758H55.2071V33.6758V43.6758H62.3399V33.6758ZM55.2071 33.6758H65.2071V21.043H55.2071H45.2071V33.6758H55.2071ZM55.2071 21.043V31.043H69.1289V21.043V11.043H55.2071V21.043ZM69.1289 21.043L79.1289 21.043V18.6797L69.1289 18.6797H59.1289V21.043H69.1289ZM69.1289 18.6797V8.67969H55.25V18.6797V28.6797H69.1289V18.6797ZM55.25 18.6797H65.25V13.3086H55.25H45.25V18.6797H55.25ZM55.25 13.3086V23.3086H75.961V13.3086V3.30859L55.25 3.30859V13.3086ZM86.4024 10H76.4024V49.875H86.4024H96.4024V10H86.4024ZM86.4024 49.875V39.875H79.5704V49.875V59.875H86.4024V49.875ZM79.5704 49.875H89.5704V10H79.5704H69.5704V49.875H79.5704ZM79.5704 10V20H86.4024V10V0L79.5704 0V10ZM122.367 10H132.367C132.367 4.47715 127.89 0 122.367 0V10ZM122.367 18.0781H112.367C112.367 23.601 116.844 28.0781 122.367 28.0781V18.0781ZM127.309 18.0781H137.309C137.309 12.5553 132.831 8.07812 127.309 8.07812V18.0781ZM127.309 23.707V33.707C132.831 33.707 137.309 29.2299 137.309 23.707H127.309ZM122.367 23.707V13.707C116.844 13.707 112.367 18.1842 112.367 23.707H122.367ZM122.367 32V42C127.89 42 132.367 37.5228 132.367 32H122.367ZM115.449 32H105.449C105.449 37.5228 109.926 42 115.449 42V32ZM115.449 10V0C109.926 0 105.449 4.47715 105.449 10L115.449 10ZM111.066 12.1914H121.066C121.066 6.66856 116.589 2.19141 111.066 2.19141V12.1914ZM92.5899 33.2461L83.6177 37.6621C85.7146 41.9222 90.5181 44.1205 95.1127 42.9226L92.5899 33.2461ZM89.8829 27.7461L87.6361 18.0018C84.6598 18.688 82.1603 20.6969 80.8499 23.4559C79.5395 26.215 79.5619 29.4216 80.9107 32.1621L89.8829 27.7461ZM103.461 17.6055L113.238 19.704C113.872 16.7508 113.137 13.6693 111.239 11.32C109.34 8.97073 106.481 7.60547 103.461 7.60547V17.6055ZM91.9454 17.6055H81.9454C81.9454 23.1283 86.4225 27.6055 91.9454 27.6055V17.6055ZM91.9454 12.1914V2.19141C86.4225 2.19141 81.9454 6.66856 81.9454 12.1914H91.9454ZM122.367 33.2891H132.367C132.367 27.7662 127.89 23.2891 122.367 23.2891V33.2891ZM122.367 49.3164V59.3164C127.89 59.3164 132.367 54.8393 132.367 49.3164H122.367ZM95.8555 49.3164H85.8555C85.8555 54.8393 90.3327 59.3164 95.8555 59.3164V49.3164ZM95.8555 33.2891V23.2891C90.3327 23.2891 85.8555 27.7662 85.8555 33.2891H95.8555ZM102.688 38.7891V28.7891C97.1647 28.7891 92.6875 33.2662 92.6875 38.7891H102.688ZM102.688 43.9883H92.6875C92.6875 49.5111 97.1647 53.9883 102.688 53.9883V43.9883ZM115.578 43.9883V53.9883C121.101 53.9883 125.578 49.5111 125.578 43.9883H115.578ZM115.578 38.7891H125.578C125.578 33.2662 121.101 28.7891 115.578 28.7891V38.7891ZM122.367 10H112.367V18.0781H122.367H132.367V10H122.367ZM122.367 18.0781V28.0781H127.309V18.0781V8.07812H122.367V18.0781ZM127.309 18.0781H117.309V23.707H127.309H137.309V18.0781H127.309ZM127.309 23.707V13.707H122.367V23.707V33.707H127.309V23.707ZM122.367 23.707H112.367V32H122.367H132.367V23.707H122.367ZM122.367 32V22H115.449V32V42H122.367V32ZM115.449 32H125.449V10H115.449L105.449 10V32H115.449ZM115.449 10V20H122.367V10V0L115.449 0V10ZM111.066 12.1914L101.066 12.1914C101.066 15.4844 100.148 17.5114 98.8532 18.9736C97.428 20.5831 94.7934 22.3373 90.0671 23.5696L92.5899 33.2461L95.1127 42.9226C102.418 41.0181 109.021 37.6591 113.827 32.2325C118.762 26.6585 121.066 19.7265 121.066 12.1914H111.066ZM92.5899 33.2461L101.562 28.8301L98.855 23.3301L89.8829 27.7461L80.9107 32.1621L83.6177 37.6621L92.5899 33.2461ZM89.8829 27.7461L92.1296 37.4904C101.986 35.2179 111.09 29.7113 113.238 19.704L103.461 17.6055L93.6836 15.5069C93.779 15.0626 93.9715 15.184 93.28 15.7229C92.5009 16.3301 90.8054 17.271 87.6361 18.0018L89.8829 27.7461ZM103.461 17.6055V7.60547H91.9454V17.6055V27.6055H103.461V17.6055ZM91.9454 17.6055H101.945V12.1914H91.9454H81.9454V17.6055H91.9454ZM91.9454 12.1914V22.1914H111.066V12.1914V2.19141L91.9454 2.19141V12.1914ZM122.367 33.2891H112.367V49.3164H122.367H132.367V33.2891H122.367ZM122.367 49.3164V39.3164H95.8555V49.3164V59.3164H122.367V49.3164ZM95.8555 49.3164H105.856V33.2891H95.8555H85.8555V49.3164H95.8555ZM95.8555 33.2891V43.2891H122.367V33.2891V23.2891H95.8555V33.2891ZM102.688 38.7891H92.6875V43.9883H102.688H112.688V38.7891H102.688ZM102.688 43.9883V53.9883H115.578V43.9883V33.9883H102.688V43.9883ZM115.578 43.9883H125.578V38.7891H115.578H105.578V43.9883H115.578ZM115.578 38.7891V28.7891H102.688V38.7891V48.7891H115.578V38.7891ZM157.172 42.9141L151.172 50.9141C154.773 53.6151 159.736 53.5768 163.295 50.8204L157.172 42.9141ZM161.211 34.793L171.21 34.9433C171.211 34.8932 171.211 34.8431 171.211 34.793H161.211ZM161.211 33.9336V23.9336C155.688 23.9336 151.211 28.4107 151.211 33.9336H161.211ZM167.957 33.9336H177.957C177.957 28.4107 173.48 23.9336 167.957 23.9336V33.9336ZM175.047 44.2031L183.356 49.7668C185.128 47.1212 185.533 43.7903 184.449 40.7969C183.364 37.8034 180.919 35.5053 177.864 34.6083L175.047 44.2031ZM171.738 49.1445L168.676 58.6642C172.925 60.0307 177.565 58.4166 180.048 54.7082L171.738 49.1445ZM164.348 42.9141L173.359 38.5779C171.679 35.0863 168.133 32.8797 164.258 32.9145C160.383 32.9493 156.877 35.2193 155.26 38.7406L164.348 42.9141ZM157.301 49.5312L154.005 58.9724C156.207 59.7411 158.608 59.7161 160.793 58.9017L157.301 49.5312ZM150.082 43.043L159.172 38.8741C157.577 35.3965 154.137 33.1337 150.312 33.0456C146.487 32.9575 142.947 35.0596 141.194 38.4601L150.082 43.043ZM142.863 49.1445L134.587 54.7578C137.11 58.4766 141.803 60.0563 146.06 58.6197L142.863 49.1445ZM139.512 44.2031L136.372 34.7087C133.396 35.6928 131.053 38.0159 130.044 40.9841C129.035 43.9522 129.476 47.2219 131.236 49.8164L139.512 44.2031ZM146.559 33.9336V23.9336C141.036 23.9336 136.559 28.4107 136.559 33.9336L146.559 33.9336ZM153.305 33.9336H163.305C163.305 28.4107 158.828 23.9336 153.305 23.9336V33.9336ZM171.695 10.0859L181.695 10.0859C181.695 4.56309 177.218 0.0859375 171.695 0.0859375V10.0859ZM171.695 32.3437V42.3437C177.218 42.3437 181.695 37.8666 181.695 32.3437H171.695ZM164.777 32.3437H154.777C154.777 37.8666 159.255 42.3437 164.777 42.3437V32.3437ZM164.777 10.0859V0.0859375C159.255 0.0859375 154.777 4.56309 154.777 10.0859H164.777ZM138.609 21.6445L148.609 21.722C148.61 21.6711 148.61 21.6202 148.609 21.5693L138.609 21.6445ZM149.738 25.5547L149.911 15.5562C149.799 15.5542 149.687 15.5542 149.574 15.556L149.738 25.5547ZM153.305 34.793H143.305C143.305 40.1276 145.255 46.4761 151.172 50.9141L157.172 42.9141L163.172 34.9141C163.158 34.9034 163.16 34.9037 163.173 34.9168C163.187 34.9299 163.206 34.9509 163.229 34.9793C163.277 35.0405 163.311 35.1019 163.33 35.1457C163.348 35.1857 163.342 35.185 163.331 35.1276C163.319 35.068 163.305 34.9576 163.305 34.793H153.305ZM157.172 42.9141L163.295 50.8204C168.89 46.4873 171.128 40.392 171.21 34.9433L161.211 34.793L151.212 34.6426C151.21 34.8084 151.176 34.8854 151.174 34.8903C151.174 34.8911 151.174 34.8915 151.169 34.898C151.164 34.9034 151.133 34.9426 151.049 35.0078L157.172 42.9141ZM161.211 34.793H171.211V33.9336H161.211H151.211V34.793H161.211ZM161.211 33.9336V43.9336H167.957V33.9336V23.9336H161.211V33.9336ZM167.957 33.9336H157.957V34.793H167.957H177.957V33.9336H167.957ZM167.957 34.793H157.957C157.957 38.1525 158.628 42.2523 161.168 46.037C163.798 49.9562 167.714 52.4721 172.229 53.798L175.047 44.2031L177.864 34.6083C177.369 34.4628 177.241 34.3534 177.318 34.4064C177.356 34.4323 177.429 34.4876 177.518 34.5778C177.608 34.6685 177.697 34.7752 177.775 34.8927C177.854 35.0092 177.909 35.1161 177.946 35.2011C177.982 35.2846 177.995 35.3352 177.997 35.3406C177.998 35.3449 177.988 35.305 177.977 35.212C177.967 35.1186 177.957 34.9808 177.957 34.793H167.957ZM175.047 44.2031L166.738 38.6395L163.429 43.5809L171.738 49.1445L180.048 54.7082L183.356 49.7668L175.047 44.2031ZM171.738 49.1445L174.8 39.6248C174.113 39.4037 173.825 39.1827 173.725 39.0959C173.628 39.012 173.504 38.8797 173.359 38.5779L164.348 42.9141L155.337 47.2502C157.922 52.6223 162.44 56.6584 168.676 58.6642L171.738 49.1445ZM164.348 42.9141L155.26 38.7406C155.048 39.2032 154.83 39.4828 154.651 39.6572C154.487 39.8166 154.244 39.9985 153.809 40.1608L157.301 49.5312L160.793 58.9017C167.031 56.5768 171.14 52.0844 173.435 47.0876L164.348 42.9141ZM157.301 49.5312L160.597 40.0901C160.026 39.8908 159.764 39.6844 159.64 39.5683C159.506 39.4432 159.341 39.2435 159.172 38.8741L150.082 43.043L140.993 47.2119C143.364 52.3818 147.645 56.7521 154.005 58.9724L157.301 49.5312ZM150.082 43.043L141.194 38.4601C141.012 38.8127 140.842 39.0058 140.695 39.134C140.551 39.2587 140.261 39.4686 139.666 39.6694L142.863 49.1445L146.06 58.6197C152.095 56.5833 156.398 52.6142 158.97 47.6259L150.082 43.043ZM142.863 49.1445L151.139 43.5313L147.788 38.5899L139.512 44.2031L131.236 49.8164L134.587 54.7578L142.863 49.1445ZM139.512 44.2031L142.651 53.6976C147.126 52.2179 150.857 49.5914 153.362 45.8221C155.803 42.1489 156.559 38.1773 156.559 34.793H146.559L136.559 34.793C136.559 35.0272 136.532 35.1179 136.538 35.0949C136.542 35.0809 136.554 35.0384 136.582 34.975C136.61 34.9106 136.651 34.8341 136.704 34.7531C136.759 34.6716 136.817 34.6003 136.872 34.5425C136.928 34.4849 136.967 34.4549 136.976 34.4483C136.998 34.4322 136.841 34.5537 136.372 34.7087L139.512 44.2031ZM146.559 34.793H156.559V33.9336H146.559L136.559 33.9336V34.793L146.559 34.793ZM146.559 33.9336V43.9336H153.305V33.9336V23.9336H146.559V33.9336ZM153.305 33.9336H143.305V34.793H153.305H163.305V33.9336H153.305ZM171.695 10.0859H161.695V32.3437H171.695H181.695V10.0859L171.695 10.0859ZM171.695 32.3437V22.3437H164.777V32.3437V42.3437H171.695V32.3437ZM164.777 32.3437H174.777V10.0859L164.777 10.0859H154.777V32.3437H164.777ZM164.777 10.0859V20.0859H171.695V10.0859V0.0859375L164.777 0.0859375V10.0859ZM149.738 11.8906V21.8906C150.759 21.8906 151.143 22.2137 151.122 22.1955C151.108 22.1828 151.026 22.1039 150.953 21.9477C150.919 21.874 150.895 21.8019 150.881 21.7389C150.867 21.6758 150.867 21.6412 150.867 21.6445H160.867H170.867C170.867 9.07375 160.1 1.89062 149.738 1.89062V11.8906ZM160.867 21.6445H150.867C150.867 21.5434 150.895 21.3695 150.981 21.1888C151.02 21.1079 151.06 21.0461 151.093 21.0035C151.126 20.9614 151.147 20.9436 151.146 20.9445C151.139 20.9503 150.734 21.2695 149.738 21.2695V31.2695V41.2695C160.037 41.2695 170.867 34.0972 170.867 21.6445H160.867ZM149.738 31.2695V21.2695C148.703 21.2695 148.293 20.9393 148.299 20.9445C148.307 20.9516 148.399 21.0366 148.487 21.2229C148.581 21.4208 148.61 21.6105 148.609 21.722L138.609 21.6445L128.61 21.567C128.512 34.123 139.45 41.2695 149.738 41.2695V31.2695ZM138.609 21.6445L148.609 21.5693C148.609 21.5687 148.609 21.5792 148.607 21.5995C148.605 21.6199 148.601 21.6477 148.594 21.6817C148.579 21.7522 148.553 21.8323 148.515 21.9138C148.435 22.0865 148.344 22.1766 148.322 22.1955C148.288 22.2247 148.677 21.8906 149.738 21.8906V11.8906V1.89062C139.386 1.89062 128.514 9.04869 128.61 21.7197L138.609 21.6445ZM149.738 17.6484V7.64844C146.86 7.64844 143.169 8.37445 140.043 11.0475C136.683 13.9207 135.313 17.8978 135.313 21.6445H145.313H155.313C155.313 22.7272 154.844 24.7062 153.042 26.2474C151.474 27.5884 149.996 27.6484 149.738 27.6484V17.6484ZM145.313 21.6445H135.313C135.313 25.4491 136.765 29.363 140.043 32.1664C143.137 34.8124 146.836 35.6036 149.902 35.5533L149.738 25.5547L149.574 15.556C150.019 15.5487 151.505 15.6524 153.042 16.9664C154.762 18.4378 155.313 20.3751 155.313 21.6445H145.313ZM149.738 25.5547L149.566 35.5532C152.685 35.607 156.359 34.7529 159.399 32.0987C162.593 29.3094 164.035 25.4398 164.035 21.6445H154.035H144.035C144.035 20.3844 144.575 18.4913 146.244 17.0341C147.758 15.7119 149.283 15.5454 149.911 15.5562L149.738 25.5547ZM154.035 21.6445H164.035C164.035 17.9056 162.674 13.9747 159.399 11.1151C156.325 8.43063 152.663 7.64844 149.738 7.64844V17.6484V27.6484C149.306 27.6484 147.793 27.5323 146.244 26.1798C144.494 24.6522 144.035 22.7194 144.035 21.6445H154.035ZM208.563 20.0977H218.563C218.563 14.5748 214.085 10.0977 208.563 10.0977V20.0977ZM208.563 25.4258V35.4258C214.085 35.4258 218.563 30.9486 218.563 25.4258H208.563ZM180.461 25.4258H170.461C170.461 30.9486 174.938 35.4258 180.461 35.4258V25.4258ZM180.461 11.418V1.41797C174.938 1.41797 170.461 5.89512 170.461 11.418L180.461 11.418ZM187.336 11.418H197.336C197.336 5.89512 192.859 1.41797 187.336 1.41797V11.418ZM187.336 20.0977H177.336C177.336 25.6205 181.813 30.0977 187.336 30.0977V20.0977ZM212.473 28.9492H222.473C222.473 23.4264 217.996 18.9492 212.473 18.9492V28.9492ZM212.473 34.2773V44.2773C217.996 44.2773 222.473 39.8002 222.473 34.2773H212.473ZM176.207 34.2773H166.207C166.207 39.8002 170.684 44.2773 176.207 44.2773V34.2773ZM176.207 28.9492V18.9492C170.684 18.9492 166.207 23.4264 166.207 28.9492H176.207ZM208.82 43.4727H218.82C218.82 37.9498 214.343 33.4727 208.82 33.4727V43.4727ZM208.82 48.9727V58.9727C214.343 58.9727 218.82 54.4955 218.82 48.9727H208.82ZM179.988 48.9727H169.988C169.988 54.4955 174.465 58.9727 179.988 58.9727V48.9727ZM179.988 37.0273V27.0273C174.465 27.0273 169.988 31.5045 169.988 37.0273H179.988ZM186.949 37.0273H196.949C196.949 31.5045 192.472 27.0273 186.949 27.0273V37.0273ZM186.949 43.4727H176.949C176.949 48.9955 181.426 53.4727 186.949 53.4727V43.4727ZM208.563 20.0977L198.563 20.0977V25.4258L208.563 25.4258H218.563V20.0977H208.563ZM208.563 25.4258V15.4258L180.461 15.4258V25.4258V35.4258H208.563V25.4258ZM180.461 25.4258H190.461V11.418H180.461L170.461 11.418V25.4258H180.461ZM180.461 11.418V21.418H187.336V11.418V1.41797H180.461V11.418ZM187.336 11.418H177.336V20.0977H187.336H197.336V11.418H187.336ZM187.336 20.0977V30.0977H208.563V20.0977V10.0977H187.336V20.0977ZM212.473 28.9492H202.473V34.2773H212.473H222.473V28.9492H212.473ZM212.473 34.2773V24.2773L176.207 24.2773V34.2773V44.2773H212.473V34.2773ZM176.207 34.2773H186.207V28.9492H176.207H166.207V34.2773H176.207ZM176.207 28.9492V38.9492H212.473V28.9492V18.9492L176.207 18.9492V28.9492ZM208.82 43.4727H198.82V48.9727H208.82H218.82V43.4727H208.82ZM208.82 48.9727V38.9727H179.988V48.9727V58.9727H208.82V48.9727ZM179.988 48.9727H189.988V37.0273H179.988H169.988V48.9727H179.988ZM179.988 37.0273V47.0273H186.949V37.0273V27.0273H179.988V37.0273ZM186.949 37.0273H176.949V43.4727H186.949H196.949V37.0273H186.949ZM186.949 43.4727V53.4727H208.82V43.4727V33.4727H186.949V43.4727Z" fill="white" mask="url(#path-1-outside-1_3990_1419)"/>
</g>
<defs>
<filter id="filter0_d_3990_1419" x="0" y="0" width="226.473" height="67.875" filterUnits="userSpaceOnUse" color-interpolation-filters="sRGB">
<feFlood flood-opacity="0" result="BackgroundImageFix"/>
<feColorMatrix in="SourceAlpha" type="matrix" values="0 0 0 0 0 0 0 0 0 0 0 0 0 0 0 0 0 0 127 0" result="hardAlpha"/>
<feOffset dy="4"/>
<feGaussianBlur stdDeviation="2"/>
<feComposite in2="hardAlpha" operator="out"/>
<feColorMatrix type="matrix" values="0 0 0 0 0 0 0 0 0 0 0 0 0 0 0 0 0 0 0.07 0"/>
<feBlend mode="normal" in2="BackgroundImageFix" result="effect1_dropShadow_3990_1419"/>
<feBlend mode="normal" in="SourceGraphic" in2="effect1_dropShadow_3990_1419" result="shape"/>
</filter>
</defs>
</svg>
