<svg width="178" height="68" viewBox="0 0 178 68" fill="none" xmlns="http://www.w3.org/2000/svg">
<g filter="url(#filter0_d_3990_1463)">
<mask id="path-1-outside-1_3990_1463" maskUnits="userSpaceOnUse" x="3.61332" y="-0.507813" width="170" height="61" fill="black">
<rect fill="white" x="3.61332" y="-0.507813" width="170" height="61"/>
<path d="M48.0313 10.0859V38.9609H41.1133V10.0859L48.0313 10.0859ZM48.9766 43.6875V49.1875H20.8321V36.082H27.793V43.6875H48.9766ZM30.4571 15.9727C30.4141 20.7422 32.3907 25.6836 39.3086 27.7461L35.8282 33.1172C31.4883 31.8066 28.6094 29.207 26.8907 25.8555C25.1075 29.4648 22.1211 32.3652 17.5235 33.8047L14 28.3477C21.1329 26.1562 23.2383 20.8281 23.2813 15.9727V12.2344H30.4571V15.9727ZM75.961 13.3086V25.9844H62.125V28.3906H76.7344V33.6758H69.2149V37.5C72.0508 37.3711 74.8653 37.1992 77.5508 36.9414L78.0664 41.9258C69.4727 43.3867 60.836 43.3438 53.4454 43.2148L52.6719 37.6719C55.7012 37.7148 58.9668 37.7148 62.3399 37.6719V33.6758H55.2071V21.043H69.1289V18.6797H55.25V13.3086H75.961ZM86.4024 10V49.875H79.5704V10H86.4024ZM113.602 11.9336V17.3477H106.383C106.727 21.3652 109.025 25.4902 115.02 27.4453L111.711 32.7305C107.436 31.4629 104.6 28.9062 102.902 25.6836C101.141 29.25 98.1758 32.1074 93.6211 33.4609L90.0977 28.0469C96.5 26.1348 98.8418 21.5801 99.25 17.3477H91.9883V11.9336L113.602 11.9336ZM124.387 35.1367V49.7461H117.512V40.5938H96.7579V35.1367H124.387ZM124.387 10V33.6328H117.512V24.6094H112.57V19.0234H117.512V10H124.387ZM162.113 10.0859V38.3164H155.195V10.0859H162.113ZM163.059 43.6875V49.1875L134.914 49.1875V35.4805L141.875 35.4805V43.6875H163.059ZM140.156 12.4492C146.344 12.4492 151.285 16.7461 151.285 22.6328C151.285 28.6484 146.344 32.9023 140.156 32.9023C133.969 32.9023 128.984 28.6484 129.027 22.6328C128.984 16.7461 133.969 12.4492 140.156 12.4492ZM140.156 18.4219C137.621 18.4219 135.731 19.8398 135.731 22.6328C135.731 25.5547 137.621 26.9297 140.156 26.9297C142.563 26.9297 144.453 25.5547 144.453 22.6328C144.453 19.8398 142.563 18.4219 140.156 18.4219Z"/>
</mask>
<path d="M48.0313 10.0859V38.9609H41.1133V10.0859L48.0313 10.0859ZM48.9766 43.6875V49.1875H20.8321V36.082H27.793V43.6875H48.9766ZM30.4571 15.9727C30.4141 20.7422 32.3907 25.6836 39.3086 27.7461L35.8282 33.1172C31.4883 31.8066 28.6094 29.207 26.8907 25.8555C25.1075 29.4648 22.1211 32.3652 17.5235 33.8047L14 28.3477C21.1329 26.1562 23.2383 20.8281 23.2813 15.9727V12.2344H30.4571V15.9727ZM75.961 13.3086V25.9844H62.125V28.3906H76.7344V33.6758H69.2149V37.5C72.0508 37.3711 74.8653 37.1992 77.5508 36.9414L78.0664 41.9258C69.4727 43.3867 60.836 43.3438 53.4454 43.2148L52.6719 37.6719C55.7012 37.7148 58.9668 37.7148 62.3399 37.6719V33.6758H55.2071V21.043H69.1289V18.6797H55.25V13.3086H75.961ZM86.4024 10V49.875H79.5704V10H86.4024ZM113.602 11.9336V17.3477H106.383C106.727 21.3652 109.025 25.4902 115.02 27.4453L111.711 32.7305C107.436 31.4629 104.6 28.9062 102.902 25.6836C101.141 29.25 98.1758 32.1074 93.6211 33.4609L90.0977 28.0469C96.5 26.1348 98.8418 21.5801 99.25 17.3477H91.9883V11.9336L113.602 11.9336ZM124.387 35.1367V49.7461H117.512V40.5938H96.7579V35.1367H124.387ZM124.387 10V33.6328H117.512V24.6094H112.57V19.0234H117.512V10H124.387ZM162.113 10.0859V38.3164H155.195V10.0859H162.113ZM163.059 43.6875V49.1875L134.914 49.1875V35.4805L141.875 35.4805V43.6875H163.059ZM140.156 12.4492C146.344 12.4492 151.285 16.7461 151.285 22.6328C151.285 28.6484 146.344 32.9023 140.156 32.9023C133.969 32.9023 128.984 28.6484 129.027 22.6328C128.984 16.7461 133.969 12.4492 140.156 12.4492ZM140.156 18.4219C137.621 18.4219 135.731 19.8398 135.731 22.6328C135.731 25.5547 137.621 26.9297 140.156 26.9297C142.563 26.9297 144.453 25.5547 144.453 22.6328C144.453 19.8398 142.563 18.4219 140.156 18.4219Z" fill="#11DCA9"/>
<path d="M48.0313 10.0859H58.0313C58.0313 4.56309 53.5541 0.0859375 48.0313 0.0859375V10.0859ZM48.0313 38.9609V48.9609C53.5541 48.9609 58.0313 44.4838 58.0313 38.9609H48.0313ZM41.1133 38.9609H31.1133C31.1133 44.4838 35.5905 48.9609 41.1133 48.9609V38.9609ZM41.1133 10.0859V0.0859375C35.5905 0.0859375 31.1133 4.56309 31.1133 10.0859H41.1133ZM48.9766 43.6875H58.9766C58.9766 38.1647 54.4994 33.6875 48.9766 33.6875V43.6875ZM48.9766 49.1875V59.1875C54.4994 59.1875 58.9766 54.7103 58.9766 49.1875H48.9766ZM20.8321 49.1875H10.8321C10.8321 54.7103 15.3092 59.1875 20.8321 59.1875V49.1875ZM20.8321 36.082V26.082C15.3092 26.082 10.8321 30.5592 10.8321 36.082H20.8321ZM27.793 36.082H37.793C37.793 30.5592 33.3159 26.082 27.793 26.082V36.082ZM27.793 43.6875H17.793C17.793 49.2103 22.2702 53.6875 27.793 53.6875V43.6875ZM30.4571 15.9727L40.4567 16.0627C40.4569 16.0327 40.4571 16.0027 40.4571 15.9727H30.4571ZM39.3086 27.7461L47.7007 33.1842C49.4138 30.5406 49.781 27.2444 48.6919 24.2886C47.6027 21.3328 45.1845 19.0629 42.1657 18.1629L39.3086 27.7461ZM35.8282 33.1172L32.9373 42.6902C37.1994 43.9773 41.7991 42.2916 44.2203 38.5553L35.8282 33.1172ZM26.8907 25.8555L35.7888 21.2923C34.0649 17.9306 30.5936 15.8275 26.8158 15.8557C23.0379 15.884 19.5985 18.039 17.9251 21.4261L26.8907 25.8555ZM17.5235 33.8047L9.12246 39.229C11.5612 43.006 16.2207 44.6912 20.5113 43.3479L17.5235 33.8047ZM14 28.3477L11.0632 18.7886C8.06882 19.7086 5.67853 21.9786 4.60528 24.9215C3.53203 27.8645 3.89984 31.1403 5.59902 33.7719L14 28.3477ZM23.2813 15.9727L33.2809 16.0611C33.2812 16.0317 33.2813 16.0022 33.2813 15.9727H23.2813ZM23.2813 12.2344V2.23438C17.7584 2.23438 13.2813 6.71153 13.2813 12.2344H23.2813ZM30.4571 12.2344H40.4571C40.4571 6.71153 35.9799 2.23437 30.4571 2.23437V12.2344ZM48.0313 10.0859L38.0313 10.0859V38.9609H48.0313H58.0313V10.0859H48.0313ZM48.0313 38.9609V28.9609H41.1133V38.9609V48.9609H48.0313V38.9609ZM41.1133 38.9609H51.1133V10.0859L41.1133 10.0859H31.1133V38.9609H41.1133ZM41.1133 10.0859V20.0859H48.0313V10.0859V0.0859375H41.1133V10.0859ZM48.9766 43.6875H38.9766V49.1875H48.9766H58.9766V43.6875H48.9766ZM48.9766 49.1875V39.1875H20.8321V49.1875V59.1875H48.9766V49.1875ZM20.8321 49.1875H30.8321V36.082H20.8321H10.8321L10.8321 49.1875H20.8321ZM20.8321 36.082V46.082H27.793V36.082V26.082H20.8321V36.082ZM27.793 36.082H17.793V43.6875H27.793H37.793V36.082H27.793ZM27.793 43.6875V53.6875H48.9766V43.6875V33.6875H27.793V43.6875ZM30.4571 15.9727L20.4575 15.8826C20.4239 19.6126 21.1693 24.1275 23.8797 28.3115C26.6914 32.6519 31.0214 35.7103 36.4515 37.3293L39.3086 27.7461L42.1657 18.1629C41.3641 17.9239 40.9703 17.6819 40.8183 17.5733C40.7392 17.5167 40.7011 17.4789 40.6876 17.4648C40.6742 17.4508 40.6689 17.4431 40.6653 17.4375C40.6622 17.4327 40.6115 17.3561 40.5588 17.1419C40.5029 16.9151 40.4522 16.5609 40.4567 16.0627L30.4571 15.9727ZM39.3086 27.7461L30.9165 22.308L27.4361 27.6791L35.8282 33.1172L44.2203 38.5553L47.7007 33.1842L39.3086 27.7461ZM35.8282 33.1172L38.719 23.5442C36.9836 23.0201 36.2707 22.232 35.7888 21.2923L26.8907 25.8555L17.9925 30.4186C20.9481 36.1821 25.9931 40.5932 32.9373 42.6902L35.8282 33.1172ZM26.8907 25.8555L17.9251 21.4261C17.2674 22.7574 16.3485 23.6939 14.5356 24.2615L17.5235 33.8047L20.5113 43.3479C27.8937 41.0366 32.9475 36.1723 35.8562 30.2849L26.8907 25.8555ZM17.5235 33.8047L25.9245 28.3804L22.4011 22.9234L14 28.3477L5.59902 33.7719L9.12246 39.229L17.5235 33.8047ZM14 28.3477L16.9369 37.9067C22.561 36.1788 26.9005 32.9365 29.7098 28.5688C32.4142 24.3642 33.2475 19.8317 33.2809 16.0611L23.2813 15.9727L13.2817 15.8842C13.2721 16.9691 13.0312 17.5283 12.8889 17.7495C12.8257 17.8479 12.7291 17.969 12.5278 18.1171C12.3185 18.271 11.8812 18.5373 11.0632 18.7886L14 28.3477ZM23.2813 15.9727H33.2813V12.2344H23.2813H13.2813V15.9727H23.2813ZM23.2813 12.2344V22.2344H30.4571V12.2344V2.23437L23.2813 2.23438V12.2344ZM30.4571 12.2344H20.4571V15.9727H30.4571H40.4571V12.2344H30.4571ZM75.961 13.3086L85.961 13.3086C85.961 7.78575 81.4838 3.30859 75.961 3.30859V13.3086ZM75.961 25.9844V35.9844C81.4838 35.9844 85.961 31.5072 85.961 25.9844L75.961 25.9844ZM62.125 25.9844V15.9844C56.6022 15.9844 52.125 20.4615 52.125 25.9844H62.125ZM62.125 28.3906H52.125C52.125 33.9135 56.6022 38.3906 62.125 38.3906V28.3906ZM76.7344 28.3906L86.7344 28.3906C86.7344 22.8678 82.2573 18.3906 76.7344 18.3906V28.3906ZM76.7344 33.6758V43.6758C82.2573 43.6758 86.7344 39.1986 86.7344 33.6758H76.7344ZM69.2149 33.6758V23.6758C63.692 23.6758 59.2149 28.1529 59.2149 33.6758H69.2149ZM69.2149 37.5H59.2149C59.2149 40.231 60.3318 42.8431 62.3062 44.7298C64.2807 46.6166 66.9408 47.6137 69.669 47.4897L69.2149 37.5ZM77.5508 36.9414L87.4977 35.9124C86.9324 30.4475 82.0641 26.4622 76.5952 26.9872L77.5508 36.9414ZM78.0664 41.9258L79.7424 51.7843C84.9374 50.9012 88.5556 46.1383 88.0134 40.8968L78.0664 41.9258ZM53.4454 43.2148L43.5413 44.5968C44.2216 49.4723 48.349 53.1275 53.271 53.2133L53.4454 43.2148ZM52.6719 37.6719L52.8137 27.6729C49.896 27.6315 47.1058 28.8666 45.1748 31.0542C43.2438 33.2419 42.3646 36.1638 42.7679 39.0538L52.6719 37.6719ZM62.3399 37.6719L62.4673 47.6711C67.94 47.6013 72.3399 43.145 72.3399 37.6719H62.3399ZM62.3399 33.6758H72.3399C72.3399 28.1529 67.8627 23.6758 62.3399 23.6758V33.6758ZM55.2071 33.6758H45.2071C45.2071 39.1986 49.6842 43.6758 55.2071 43.6758V33.6758ZM55.2071 21.043V11.043C49.6842 11.043 45.2071 15.5201 45.2071 21.043H55.2071ZM69.1289 21.043V31.043C74.6518 31.043 79.1289 26.5658 79.1289 21.043L69.1289 21.043ZM69.1289 18.6797L79.1289 18.6797C79.1289 13.1568 74.6518 8.67969 69.1289 8.67969V18.6797ZM55.25 18.6797H45.25C45.25 24.2025 49.7272 28.6797 55.25 28.6797V18.6797ZM55.25 13.3086V3.30859C49.7272 3.30859 45.25 7.78575 45.25 13.3086H55.25ZM86.4024 10H96.4024C96.4024 4.47715 91.9252 0 86.4024 0V10ZM86.4024 49.875V59.875C91.9252 59.875 96.4024 55.3978 96.4024 49.875H86.4024ZM79.5704 49.875H69.5704C69.5704 55.3978 74.0475 59.875 79.5704 59.875V49.875ZM79.5704 10V0C74.0475 0 69.5704 4.47715 69.5704 10H79.5704ZM75.961 13.3086H65.961V25.9844H75.961L85.961 25.9844V13.3086L75.961 13.3086ZM75.961 25.9844V15.9844H62.125V25.9844V35.9844H75.961V25.9844ZM62.125 25.9844H52.125V28.3906H62.125H72.125V25.9844H62.125ZM62.125 28.3906V38.3906H76.7344V28.3906V18.3906H62.125V28.3906ZM76.7344 28.3906H66.7344V33.6758H76.7344H86.7344V28.3906L76.7344 28.3906ZM76.7344 33.6758V23.6758H69.2149V33.6758V43.6758H76.7344V33.6758ZM69.2149 33.6758H59.2149V37.5H69.2149H79.2149V33.6758H69.2149ZM69.2149 37.5L69.669 47.4897C72.5967 47.3566 75.5927 47.1754 78.5064 46.8956L77.5508 36.9414L76.5952 26.9872C74.1379 27.2231 71.5049 27.3856 68.7608 27.5103L69.2149 37.5ZM77.5508 36.9414L67.6039 37.9704L68.1195 42.9548L78.0664 41.9258L88.0134 40.8968L87.4977 35.9124L77.5508 36.9414ZM78.0664 41.9258L76.3905 32.0672C68.8073 33.3564 61.0034 33.3451 53.6197 33.2164L53.4454 43.2148L53.271 53.2133C60.6685 53.3424 70.1381 53.4171 79.7424 51.7843L78.0664 41.9258ZM53.4454 43.2148L63.3494 41.8329L62.576 36.2899L52.6719 37.6719L42.7679 39.0538L43.5413 44.5968L53.4454 43.2148ZM52.6719 37.6719L52.5301 47.6709C55.6585 47.7152 59.0144 47.715 62.4673 47.6711L62.3399 37.6719L62.2125 27.6727C58.9193 27.7146 55.7439 27.7144 52.8137 27.6729L52.6719 37.6719ZM62.3399 37.6719H72.3399V33.6758H62.3399H52.3399V37.6719H62.3399ZM62.3399 33.6758V23.6758H55.2071V33.6758V43.6758H62.3399V33.6758ZM55.2071 33.6758H65.2071V21.043H55.2071H45.2071V33.6758H55.2071ZM55.2071 21.043V31.043H69.1289V21.043V11.043H55.2071V21.043ZM69.1289 21.043L79.1289 21.043V18.6797L69.1289 18.6797H59.1289V21.043H69.1289ZM69.1289 18.6797V8.67969H55.25V18.6797V28.6797H69.1289V18.6797ZM55.25 18.6797H65.25V13.3086H55.25H45.25V18.6797H55.25ZM55.25 13.3086V23.3086H75.961V13.3086V3.30859L55.25 3.30859V13.3086ZM86.4024 10H76.4024V49.875H86.4024H96.4024V10H86.4024ZM86.4024 49.875V39.875H79.5704V49.875V59.875H86.4024V49.875ZM79.5704 49.875H89.5704V10H79.5704H69.5704V49.875H79.5704ZM79.5704 10V20H86.4024V10V0L79.5704 0V10ZM113.602 11.9336H123.602C123.602 6.41075 119.124 1.93359 113.602 1.93359V11.9336ZM113.602 17.3477V27.3477C119.124 27.3477 123.602 22.8705 123.602 17.3477H113.602ZM106.383 17.3477V7.34766C103.582 7.34766 100.91 8.52187 99.0165 10.5847C97.1227 12.6475 96.1805 15.41 96.4193 18.2002L106.383 17.3477ZM115.02 27.4453L123.496 32.7515C125.129 30.1428 125.47 26.9274 124.42 24.0343C123.37 21.1411 121.046 18.8926 118.12 17.9382L115.02 27.4453ZM111.711 32.7305L108.868 42.318C113.175 43.5947 117.804 41.8437 120.187 38.0367L111.711 32.7305ZM102.902 25.6836L111.75 21.0237C109.999 17.6983 106.531 15.6357 102.773 15.6844C99.0146 15.7332 95.6012 17.885 93.9366 21.2547L102.902 25.6836ZM93.6211 33.4609L85.2397 38.9155C87.6553 42.6273 92.2246 44.3082 96.4697 43.0466L93.6211 33.4609ZM90.0977 28.0469L87.236 18.4651C84.2152 19.3673 81.7967 21.6412 80.7102 24.6008C79.6238 27.5604 79.9966 30.859 81.7163 33.5014L90.0977 28.0469ZM99.25 17.3477L109.204 18.3077C109.474 15.5015 108.548 12.7115 106.653 10.6246C104.757 8.53762 102.069 7.34766 99.25 7.34766V17.3477ZM91.9883 17.3477H81.9883C81.9883 22.8705 86.4655 27.3477 91.9883 27.3477V17.3477ZM91.9883 11.9336V1.93359C86.4655 1.93359 81.9883 6.41075 81.9883 11.9336H91.9883ZM124.387 35.1367H134.387C134.387 29.6139 129.91 25.1367 124.387 25.1367V35.1367ZM124.387 49.7461V59.7461C129.91 59.7461 134.387 55.2689 134.387 49.7461H124.387ZM117.512 49.7461H107.512C107.512 55.2689 111.989 59.7461 117.512 59.7461V49.7461ZM117.512 40.5938H127.512C127.512 35.0709 123.035 30.5938 117.512 30.5938V40.5938ZM96.7579 40.5938H86.7579C86.7579 46.1166 91.235 50.5938 96.7579 50.5938V40.5938ZM96.7579 35.1367V25.1367C91.235 25.1367 86.7579 29.6139 86.7579 35.1367H96.7579ZM124.387 10H134.387C134.387 4.47715 129.91 0 124.387 0V10ZM124.387 33.6328V43.6328C129.91 43.6328 134.387 39.1557 134.387 33.6328H124.387ZM117.512 33.6328H107.512C107.512 39.1557 111.989 43.6328 117.512 43.6328V33.6328ZM117.512 24.6094H127.512C127.512 19.0865 123.035 14.6094 117.512 14.6094V24.6094ZM112.57 24.6094H102.57C102.57 30.1322 107.048 34.6094 112.57 34.6094V24.6094ZM112.57 19.0234V9.02344C107.048 9.02344 102.57 13.5006 102.57 19.0234H112.57ZM117.512 19.0234V29.0234C123.035 29.0234 127.512 24.5463 127.512 19.0234H117.512ZM117.512 10V0C111.989 0 107.512 4.47715 107.512 10L117.512 10ZM113.602 11.9336L103.602 11.9336V17.3477H113.602H123.602V11.9336H113.602ZM113.602 17.3477V7.34766L106.383 7.34766V17.3477V27.3477H113.602V17.3477ZM106.383 17.3477L96.4193 18.2002C96.7281 21.8092 97.9474 25.7441 100.655 29.2653C103.394 32.8285 107.244 35.4276 111.919 36.9524L115.02 27.4453L118.12 17.9382C117.432 17.7137 117.03 17.4865 116.818 17.3422C116.612 17.2021 116.533 17.1052 116.51 17.0746C116.483 17.0401 116.381 16.9037 116.346 16.4952L106.383 17.3477ZM115.02 27.4453L106.543 22.1391L103.235 27.4243L111.711 32.7305L120.187 38.0367L123.496 32.7515L115.02 27.4453ZM111.711 32.7305L114.553 23.143C113.62 22.8663 113.058 22.5185 112.702 22.2254C112.344 21.9295 112.027 21.55 111.75 21.0237L102.902 25.6836L94.0545 30.3435C96.9908 35.9188 101.974 40.274 108.868 42.318L111.711 32.7305ZM102.902 25.6836L93.9366 21.2547C93.3114 22.5204 92.4582 23.3743 90.7726 23.8752L93.6211 33.4609L96.4697 43.0466C103.893 40.8405 108.97 35.9796 111.868 30.1125L102.902 25.6836ZM93.6211 33.4609L102.003 28.0064L98.4791 22.5923L90.0977 28.0469L81.7163 33.5014L85.2397 38.9155L93.6211 33.4609ZM90.0977 28.0469L92.9594 37.6287C98.03 36.1143 102.081 33.3369 104.908 29.5854C107.668 25.9231 108.86 21.8708 109.204 18.3077L99.25 17.3477L89.2962 16.3876C89.2317 17.057 89.0491 17.3982 88.9352 17.5494C88.8776 17.6258 88.7759 17.7403 88.5675 17.8813C88.3537 18.026 87.946 18.253 87.236 18.4651L90.0977 28.0469ZM99.25 17.3477V7.34766H91.9883V17.3477V27.3477H99.25V17.3477ZM91.9883 17.3477H101.988V11.9336H91.9883H81.9883V17.3477H91.9883ZM91.9883 11.9336V21.9336H113.602V11.9336V1.93359L91.9883 1.93359V11.9336ZM124.387 35.1367H114.387V49.7461H124.387H134.387V35.1367H124.387ZM124.387 49.7461V39.7461H117.512V49.7461V59.7461H124.387V49.7461ZM117.512 49.7461H127.512V40.5938H117.512H107.512V49.7461H117.512ZM117.512 40.5938V30.5938H96.7579V40.5938V50.5938H117.512V40.5938ZM96.7579 40.5938H106.758V35.1367H96.7579H86.7579V40.5938H96.7579ZM96.7579 35.1367V45.1367H124.387V35.1367V25.1367H96.7579V35.1367ZM124.387 10H114.387V33.6328H124.387H134.387V10H124.387ZM124.387 33.6328V23.6328H117.512V33.6328V43.6328H124.387V33.6328ZM117.512 33.6328H127.512V24.6094H117.512H107.512V33.6328H117.512ZM117.512 24.6094V14.6094H112.57V24.6094V34.6094H117.512V24.6094ZM112.57 24.6094H122.57V19.0234H112.57H102.57V24.6094H112.57ZM112.57 19.0234V29.0234H117.512V19.0234V9.02344H112.57V19.0234ZM117.512 19.0234H127.512V10H117.512L107.512 10V19.0234H117.512ZM117.512 10V20H124.387V10V0L117.512 0V10ZM162.113 10.0859H172.113C172.113 4.56309 167.636 0.0859375 162.113 0.0859375V10.0859ZM162.113 38.3164V48.3164C167.636 48.3164 172.113 43.8393 172.113 38.3164H162.113ZM155.195 38.3164H145.195C145.195 43.8393 149.673 48.3164 155.195 48.3164V38.3164ZM155.195 10.0859V0.0859375C149.673 0.0859375 145.195 4.56309 145.195 10.0859H155.195ZM163.059 43.6875H173.059C173.059 38.1647 168.581 33.6875 163.059 33.6875V43.6875ZM163.059 49.1875V59.1875C168.581 59.1875 173.059 54.7103 173.059 49.1875H163.059ZM134.914 49.1875H124.914C124.914 54.7103 129.391 59.1875 134.914 59.1875V49.1875ZM134.914 35.4805V25.4805C129.391 25.4805 124.914 29.9576 124.914 35.4805H134.914ZM141.875 35.4805H151.875C151.875 29.9576 147.398 25.4805 141.875 25.4805V35.4805ZM141.875 43.6875L131.875 43.6875C131.875 49.2103 136.352 53.6875 141.875 53.6875V43.6875ZM129.027 22.6328L139.027 22.7042C139.027 22.6561 139.027 22.608 139.027 22.5598L129.027 22.6328ZM162.113 10.0859H152.113V38.3164H162.113H172.113V10.0859H162.113ZM162.113 38.3164V28.3164H155.195V38.3164V48.3164H162.113V38.3164ZM155.195 38.3164H165.195V10.0859H155.195H145.195V38.3164H155.195ZM155.195 10.0859V20.0859H162.113V10.0859V0.0859375H155.195V10.0859ZM163.059 43.6875H153.059V49.1875H163.059H173.059V43.6875H163.059ZM163.059 49.1875V39.1875L134.914 39.1875V49.1875V59.1875L163.059 59.1875V49.1875ZM134.914 49.1875L144.914 49.1875V35.4805L134.914 35.4805H124.914V49.1875H134.914ZM134.914 35.4805V45.4805L141.875 45.4805V35.4805V25.4805H134.914V35.4805ZM141.875 35.4805L131.875 35.4805V43.6875L141.875 43.6875H151.875V35.4805H141.875ZM141.875 43.6875V53.6875H163.059V43.6875V33.6875H141.875V43.6875ZM140.156 12.4492V22.4492C140.942 22.4492 141.294 22.7145 141.347 22.7625C141.373 22.7856 141.345 22.7678 141.314 22.6996C141.279 22.6226 141.285 22.582 141.285 22.6328H151.285H161.285C161.285 10.2688 150.861 2.44922 140.156 2.44922V12.4492ZM151.285 22.6328H141.285C141.285 22.7467 141.266 22.7399 141.297 22.6728C141.324 22.6131 141.351 22.5906 141.336 22.6043C141.305 22.6322 140.968 22.9023 140.156 22.9023V32.9023V42.9023C150.89 42.9023 161.285 35.0994 161.285 22.6328H151.285ZM140.156 32.9023V22.9023C139.338 22.9023 138.986 22.6277 138.951 22.5954C138.935 22.5816 138.97 22.6101 139.003 22.6851C139.041 22.7686 139.026 22.7961 139.027 22.7042L129.027 22.6328L119.028 22.5614C118.938 35.147 129.495 42.9023 140.156 42.9023V32.9023ZM129.027 22.6328L139.027 22.5598C139.027 22.5318 139.028 22.5937 138.986 22.6872C138.948 22.7708 138.914 22.7945 138.94 22.7714C138.998 22.7191 139.364 22.4492 140.156 22.4492V12.4492V2.44922C129.525 2.44922 118.937 10.2208 119.028 22.7058L129.027 22.6328ZM140.156 18.4219V8.42187C137.107 8.42187 133.407 9.281 130.34 12.0143C127.103 14.899 125.731 18.8404 125.731 22.6328H135.731H145.731C145.731 23.6323 145.304 25.4682 143.646 26.9457C142.158 28.2717 140.671 28.4219 140.156 28.4219V18.4219ZM135.731 22.6328H125.731C125.731 26.3614 127.019 30.361 130.311 33.3174C133.43 36.1181 137.179 36.9297 140.156 36.9297V26.9297V16.9297C140.599 16.9297 142.134 17.0538 143.674 18.4365C145.387 19.9749 145.731 21.8261 145.731 22.6328H135.731ZM140.156 26.9297V36.9297C143.188 36.9297 146.904 36.0539 149.964 33.2485C153.171 30.3089 154.453 26.3568 154.453 22.6328H144.453H134.453C134.453 21.8307 134.79 20.027 136.45 18.5054C137.963 17.118 139.531 16.9297 140.156 16.9297V26.9297ZM144.453 22.6328H154.453C154.453 18.8465 153.089 14.9508 149.936 12.0829C146.929 9.347 143.26 8.42187 140.156 8.42187V18.4219V28.4219C139.458 28.4219 137.938 28.2057 136.478 26.8771C134.872 25.4164 134.453 23.6261 134.453 22.6328H144.453Z" fill="white" mask="url(#path-1-outside-1_3990_1463)"/>
</g>
<defs>
<filter id="filter0_d_3990_1463" x="0" y="0" width="177.059" height="67.875" filterUnits="userSpaceOnUse" color-interpolation-filters="sRGB">
<feFlood flood-opacity="0" result="BackgroundImageFix"/>
<feColorMatrix in="SourceAlpha" type="matrix" values="0 0 0 0 0 0 0 0 0 0 0 0 0 0 0 0 0 0 127 0" result="hardAlpha"/>
<feOffset dy="4"/>
<feGaussianBlur stdDeviation="2"/>
<feComposite in2="hardAlpha" operator="out"/>
<feColorMatrix type="matrix" values="0 0 0 0 0 0 0 0 0 0 0 0 0 0 0 0 0 0 0.07 0"/>
<feBlend mode="normal" in2="BackgroundImageFix" result="effect1_dropShadow_3990_1463"/>
<feBlend mode="normal" in="SourceGraphic" in2="effect1_dropShadow_3990_1463" result="shape"/>
</filter>
</defs>
</svg>
