<svg width="303" height="68" viewBox="0 0 303 68" fill="none" xmlns="http://www.w3.org/2000/svg">
<g filter="url(#filter0_d_3990_1444)">
<mask id="path-1-outside-1_3990_1444" maskUnits="userSpaceOnUse" x="3.57034" y="-0.507813" width="295" height="61" fill="black">
<rect fill="white" x="3.57034" y="-0.507813" width="295" height="61"/>
<path d="M47.9453 10V29.8086H41.0703V10L47.9453 10ZM47.9883 31.3984V42.9141H27.6641V44.2461H48.8477V49.5742H20.918V37.9297H41.1133V36.6406H20.8321V31.3984H47.9883ZM30.4141 13.7812C30.3711 18.1211 32.3907 22.5039 39.2657 24.3516L35.9571 29.6367C31.5313 28.4551 28.6094 26.0488 26.8477 22.9336C25.043 26.3496 21.9922 29.0352 17.3516 30.2812L14 24.9102C21.0469 22.9766 23.1953 18.1641 23.2383 13.7812V10.7305H30.4141V13.7812ZM88.7657 31.6992V37.1562H73.8985V49.7031H67.0664V37.1562H52.5V31.6992H88.7657ZM84.6836 11.8047V28.1328L56.4961 28.1328V11.8047H84.6836ZM63.2422 17.2188V22.7617L77.8086 22.7617V17.2187L63.2422 17.2188ZM122.324 10V18.0781H127.266V23.707H122.324V32H115.406V10H122.324ZM111.023 12.1914C111.023 23.0195 104.578 30.1094 92.5469 33.2461L89.8399 27.7461C98.1328 25.834 102.473 22.0098 103.418 17.6055H91.9024V12.1914L111.023 12.1914ZM122.324 33.2891V49.3164H95.8125V33.2891H122.324ZM102.645 38.7891V43.9883H115.535V38.7891H102.645ZM160.352 10V18.8086H165.293V24.4805H160.352V32.9453H153.434V10H160.352ZM149.008 12.0625C149.008 23.0195 142.563 30.1953 130.531 33.1172L127.695 27.918C136.203 25.8984 140.564 21.9453 141.488 17.4766H129.93V12.0625H149.008ZM160.352 34.4492V49.7461H153.434V39.8633L133.152 39.8633V34.4492L160.352 34.4492ZM200.141 10V49.875H193.18V10H200.141ZM178.313 12.6641C184.371 12.6211 188.926 18.207 188.926 26.9727C188.926 35.8672 184.371 41.4102 178.313 41.4102C172.125 41.4102 167.527 35.8672 167.527 26.9727C167.527 18.207 172.125 12.6211 178.313 12.6641ZM178.313 18.8945C175.777 18.8516 174.188 21.4727 174.188 26.9727C174.188 32.5586 175.777 35.0937 178.313 35.0937C180.676 35.0937 182.309 32.5586 182.309 26.9727C182.309 21.4727 180.676 18.8516 178.313 18.8945ZM235.676 21.9023V24.8672H250.457V30.3242H214.191V24.8672H228.801V21.9023H235.676ZM247.148 10.8594V16.0156H238.082C239.479 17.3906 242.658 18.6582 249.082 18.9375L246.934 24.0078C238.813 23.5566 234.236 21.2578 232.281 18.0781C230.326 21.2363 225.729 23.5566 217.629 24.0078L215.48 18.9375C221.732 18.6582 224.912 17.3691 226.395 16.0156H217.5V10.8594L247.148 10.8594ZM247.063 33.5898V38.6172H217.371V33.5898H228.758V31.1836H235.719V33.5898H247.063ZM232.152 39.2617C239.887 39.2617 244.57 41.1523 244.57 44.5469C244.57 47.9844 239.887 49.832 232.152 49.832C224.375 49.832 219.863 47.9844 219.863 44.5469C219.863 41.1523 224.375 39.2617 232.152 39.2617ZM232.152 43.7734C228.629 43.7734 226.996 43.8594 226.996 44.5469C226.996 45.1914 228.629 45.3633 232.152 45.3633C235.805 45.3633 237.309 45.1914 237.309 44.5469C237.309 43.8594 235.805 43.7734 232.152 43.7734ZM288.484 29.9375V35.3516H252.219V29.9375H288.484ZM284.273 43.6875V49.1875H256.387V37.5H263.305V43.6875H284.273ZM270.352 11.1172C279.117 11.1172 285.004 14.2969 285.047 19.4102C285.004 24.6094 279.117 27.832 270.352 27.832C261.5 27.832 255.57 24.6094 255.613 19.4102C255.57 14.2969 261.5 11.1172 270.352 11.1172ZM270.352 16.5312C265.367 16.5742 262.746 17.4766 262.789 19.4102C262.746 21.4727 265.367 22.2891 270.352 22.2461C275.25 22.2891 277.914 21.4727 277.914 19.4102C277.914 17.4766 275.25 16.5742 270.352 16.5312Z"/>
</mask>
<path d="M47.9453 10V29.8086H41.0703V10L47.9453 10ZM47.9883 31.3984V42.9141H27.6641V44.2461H48.8477V49.5742H20.918V37.9297H41.1133V36.6406H20.8321V31.3984H47.9883ZM30.4141 13.7812C30.3711 18.1211 32.3907 22.5039 39.2657 24.3516L35.9571 29.6367C31.5313 28.4551 28.6094 26.0488 26.8477 22.9336C25.043 26.3496 21.9922 29.0352 17.3516 30.2812L14 24.9102C21.0469 22.9766 23.1953 18.1641 23.2383 13.7812V10.7305H30.4141V13.7812ZM88.7657 31.6992V37.1562H73.8985V49.7031H67.0664V37.1562H52.5V31.6992H88.7657ZM84.6836 11.8047V28.1328L56.4961 28.1328V11.8047H84.6836ZM63.2422 17.2188V22.7617L77.8086 22.7617V17.2187L63.2422 17.2188ZM122.324 10V18.0781H127.266V23.707H122.324V32H115.406V10H122.324ZM111.023 12.1914C111.023 23.0195 104.578 30.1094 92.5469 33.2461L89.8399 27.7461C98.1328 25.834 102.473 22.0098 103.418 17.6055H91.9024V12.1914L111.023 12.1914ZM122.324 33.2891V49.3164H95.8125V33.2891H122.324ZM102.645 38.7891V43.9883H115.535V38.7891H102.645ZM160.352 10V18.8086H165.293V24.4805H160.352V32.9453H153.434V10H160.352ZM149.008 12.0625C149.008 23.0195 142.563 30.1953 130.531 33.1172L127.695 27.918C136.203 25.8984 140.564 21.9453 141.488 17.4766H129.93V12.0625H149.008ZM160.352 34.4492V49.7461H153.434V39.8633L133.152 39.8633V34.4492L160.352 34.4492ZM200.141 10V49.875H193.18V10H200.141ZM178.313 12.6641C184.371 12.6211 188.926 18.207 188.926 26.9727C188.926 35.8672 184.371 41.4102 178.313 41.4102C172.125 41.4102 167.527 35.8672 167.527 26.9727C167.527 18.207 172.125 12.6211 178.313 12.6641ZM178.313 18.8945C175.777 18.8516 174.188 21.4727 174.188 26.9727C174.188 32.5586 175.777 35.0937 178.313 35.0937C180.676 35.0937 182.309 32.5586 182.309 26.9727C182.309 21.4727 180.676 18.8516 178.313 18.8945ZM235.676 21.9023V24.8672H250.457V30.3242H214.191V24.8672H228.801V21.9023H235.676ZM247.148 10.8594V16.0156H238.082C239.479 17.3906 242.658 18.6582 249.082 18.9375L246.934 24.0078C238.813 23.5566 234.236 21.2578 232.281 18.0781C230.326 21.2363 225.729 23.5566 217.629 24.0078L215.48 18.9375C221.732 18.6582 224.912 17.3691 226.395 16.0156H217.5V10.8594L247.148 10.8594ZM247.063 33.5898V38.6172H217.371V33.5898H228.758V31.1836H235.719V33.5898H247.063ZM232.152 39.2617C239.887 39.2617 244.57 41.1523 244.57 44.5469C244.57 47.9844 239.887 49.832 232.152 49.832C224.375 49.832 219.863 47.9844 219.863 44.5469C219.863 41.1523 224.375 39.2617 232.152 39.2617ZM232.152 43.7734C228.629 43.7734 226.996 43.8594 226.996 44.5469C226.996 45.1914 228.629 45.3633 232.152 45.3633C235.805 45.3633 237.309 45.1914 237.309 44.5469C237.309 43.8594 235.805 43.7734 232.152 43.7734ZM288.484 29.9375V35.3516H252.219V29.9375H288.484ZM284.273 43.6875V49.1875H256.387V37.5H263.305V43.6875H284.273ZM270.352 11.1172C279.117 11.1172 285.004 14.2969 285.047 19.4102C285.004 24.6094 279.117 27.832 270.352 27.832C261.5 27.832 255.57 24.6094 255.613 19.4102C255.57 14.2969 261.5 11.1172 270.352 11.1172ZM270.352 16.5312C265.367 16.5742 262.746 17.4766 262.789 19.4102C262.746 21.4727 265.367 22.2891 270.352 22.2461C275.25 22.2891 277.914 21.4727 277.914 19.4102C277.914 17.4766 275.25 16.5742 270.352 16.5312Z" fill="#11DCA9"/>
<path d="M47.9453 10H57.9453C57.9453 4.47715 53.4682 0 47.9453 0V10ZM47.9453 29.8086V39.8086C53.4682 39.8086 57.9453 35.3314 57.9453 29.8086H47.9453ZM41.0703 29.8086H31.0703C31.0703 35.3314 35.5475 39.8086 41.0703 39.8086V29.8086ZM41.0703 10V0C35.5475 0 31.0703 4.47715 31.0703 10H41.0703ZM47.9883 31.3984H57.9883C57.9883 25.8756 53.5112 21.3984 47.9883 21.3984V31.3984ZM47.9883 42.9141V52.9141C53.5112 52.9141 57.9883 48.4369 57.9883 42.9141H47.9883ZM27.6641 42.9141V32.9141C22.1412 32.9141 17.6641 37.3912 17.6641 42.9141H27.6641ZM27.6641 44.2461H17.6641C17.6641 49.7689 22.1412 54.2461 27.6641 54.2461V44.2461ZM48.8477 44.2461H58.8477C58.8477 38.7232 54.3705 34.2461 48.8477 34.2461V44.2461ZM48.8477 49.5742V59.5742C54.3705 59.5742 58.8477 55.0971 58.8477 49.5742H48.8477ZM20.918 49.5742H10.918C10.918 55.0971 15.3952 59.5742 20.918 59.5742V49.5742ZM20.918 37.9297V27.9297C15.3952 27.9297 10.918 32.4068 10.918 37.9297H20.918ZM41.1133 37.9297V47.9297C46.6362 47.9297 51.1133 43.4525 51.1133 37.9297H41.1133ZM41.1133 36.6406H51.1133C51.1133 31.1178 46.6362 26.6406 41.1133 26.6406V36.6406ZM20.8321 36.6406H10.8321C10.8321 42.1635 15.3092 46.6406 20.8321 46.6406V36.6406ZM20.8321 31.3984V21.3984C15.3092 21.3984 10.8321 25.8756 10.8321 31.3984H20.8321ZM30.4141 13.7812L40.4136 13.8803C40.4139 13.8473 40.4141 13.8143 40.4141 13.7812H30.4141ZM39.2657 24.3516L47.7418 29.6577C49.4241 26.9704 49.7324 23.6446 48.5727 20.6939C47.4131 17.7431 44.9229 15.5171 41.8611 14.6942L39.2657 24.3516ZM35.9571 29.6367L33.3775 39.2983C37.6193 40.4308 42.1036 38.6642 44.4332 34.9429L35.9571 29.6367ZM26.8477 22.9336L35.5522 18.011C33.7526 14.8288 30.3599 12.8823 26.7045 12.9346C23.049 12.987 19.7135 15.0299 18.0058 18.2624L26.8477 22.9336ZM17.3516 30.2812L8.8678 35.5751C11.1976 39.3088 15.6945 41.0804 19.9449 39.9391L17.3516 30.2812ZM14 24.9102L11.3539 15.2666C8.30788 16.1024 5.83578 18.3282 4.68604 21.2702C3.5363 24.2121 3.84409 27.5243 5.51624 30.204L14 24.9102ZM23.2383 13.7812L33.2378 13.8793C33.2382 13.8466 33.2383 13.8139 33.2383 13.7812H23.2383ZM23.2383 10.7305V0.730469C17.7155 0.730469 13.2383 5.20762 13.2383 10.7305H23.2383ZM30.4141 10.7305H40.4141C40.4141 5.20762 35.9369 0.730469 30.4141 0.730469V10.7305ZM47.9453 10L37.9453 10V29.8086H47.9453H57.9453V10H47.9453ZM47.9453 29.8086V19.8086H41.0703V29.8086V39.8086H47.9453V29.8086ZM41.0703 29.8086H51.0703V10L41.0703 10H31.0703V29.8086H41.0703ZM41.0703 10V20H47.9453V10V0H41.0703V10ZM47.9883 31.3984H37.9883V42.9141H47.9883H57.9883V31.3984H47.9883ZM47.9883 42.9141V32.9141H27.6641V42.9141V52.9141H47.9883V42.9141ZM27.6641 42.9141H17.6641V44.2461H27.6641H37.6641V42.9141H27.6641ZM27.6641 44.2461V54.2461H48.8477V44.2461V34.2461H27.6641V44.2461ZM48.8477 44.2461H38.8477V49.5742H48.8477H58.8477V44.2461H48.8477ZM48.8477 49.5742V39.5742H20.918V49.5742V59.5742H48.8477V49.5742ZM20.918 49.5742H30.918V37.9297H20.918H10.918V49.5742H20.918ZM20.918 37.9297V47.9297H41.1133V37.9297V27.9297H20.918V37.9297ZM41.1133 37.9297H51.1133V36.6406H41.1133H31.1133V37.9297H41.1133ZM41.1133 36.6406V26.6406H20.8321V36.6406V46.6406H41.1133V36.6406ZM20.8321 36.6406H30.8321V31.3984H20.8321H10.8321L10.8321 36.6406H20.8321ZM20.8321 31.3984V41.3984H47.9883V31.3984V21.3984H20.8321V31.3984ZM30.4141 13.7812L20.4146 13.6822C20.3776 17.4146 21.2311 21.8564 24.1573 25.8813C27.1276 29.967 31.5049 32.6207 36.6702 34.0089L39.2657 24.3516L41.8611 14.6942C40.9773 14.4567 40.5318 14.2136 40.3617 14.1048C40.2095 14.0076 40.2461 13.9997 40.334 14.1206C40.5424 14.4073 40.4076 14.4877 40.4136 13.8803L30.4141 13.7812ZM39.2657 24.3516L30.7895 19.0454L27.481 24.3305L35.9571 29.6367L44.4332 34.9429L47.7418 29.6577L39.2657 24.3516ZM35.9571 29.6367L38.5366 19.9751C37.4452 19.6838 36.81 19.318 36.4397 19.0377C36.0768 18.7629 35.7945 18.4395 35.5522 18.011L26.8477 22.9336L18.1432 27.8561C21.3007 33.4395 26.5043 37.4632 33.3775 39.2983L35.9571 29.6367ZM26.8477 22.9336L18.0058 18.2624C17.6956 18.8495 17.3357 19.277 16.9178 19.6112C16.5025 19.9432 15.8444 20.3317 14.7583 20.6234L17.3516 30.2812L19.9449 39.9391C27.285 37.9682 32.5927 33.4669 35.6896 27.6048L26.8477 22.9336ZM17.3516 30.2812L25.8354 24.9874L22.4838 19.6163L14 24.9102L5.51624 30.204L8.8678 35.5751L17.3516 30.2812ZM14 24.9102L16.6461 34.5537C22.0563 33.0692 26.4379 30.1997 29.383 26.0765C32.2554 22.0552 33.2011 17.6295 33.2378 13.8793L23.2383 13.7812L13.2388 13.6832C13.2358 13.9891 13.1963 14.1983 13.1616 14.3182C13.145 14.3756 13.1304 14.4099 13.1224 14.4265C13.115 14.4422 13.1104 14.4488 13.1083 14.4518C13.1066 14.4542 13.0971 14.4675 13.0709 14.4927C13.0446 14.5181 12.987 14.5693 12.8818 14.6391C12.6759 14.7757 12.2166 15.0299 11.3539 15.2666L14 24.9102ZM23.2383 13.7812H33.2383V10.7305H23.2383H13.2383V13.7812H23.2383ZM23.2383 10.7305V20.7305H30.4141V10.7305V0.730469L23.2383 0.730469V10.7305ZM30.4141 10.7305H20.4141V13.7812H30.4141H40.4141V10.7305H30.4141ZM88.7657 31.6992H98.7657C98.7657 26.1764 94.2885 21.6992 88.7657 21.6992V31.6992ZM88.7657 37.1562V47.1562C94.2885 47.1562 98.7657 42.6791 98.7657 37.1562H88.7657ZM73.8985 37.1562V27.1562C68.3756 27.1562 63.8985 31.6334 63.8985 37.1562H73.8985ZM73.8985 49.7031V59.7031C79.4213 59.7031 83.8985 55.226 83.8985 49.7031H73.8985ZM67.0664 49.7031H57.0664C57.0664 55.226 61.5436 59.7031 67.0664 59.7031V49.7031ZM67.0664 37.1562H77.0664C77.0664 31.6334 72.5893 27.1562 67.0664 27.1562V37.1562ZM52.5 37.1562H42.5C42.5 42.6791 46.9772 47.1562 52.5 47.1562V37.1562ZM52.5 31.6992V21.6992C46.9772 21.6992 42.5 26.1764 42.5 31.6992H52.5ZM84.6836 11.8047H94.6836C94.6836 6.28184 90.2065 1.80469 84.6836 1.80469V11.8047ZM84.6836 28.1328V38.1328C90.2065 38.1328 94.6836 33.6557 94.6836 28.1328H84.6836ZM56.4961 28.1328H46.4961C46.4961 33.6557 50.9733 38.1328 56.4961 38.1328V28.1328ZM56.4961 11.8047V1.80469C50.9733 1.80469 46.4961 6.28184 46.4961 11.8047H56.4961ZM63.2422 17.2188V7.21875C57.7194 7.21875 53.2422 11.6959 53.2422 17.2188H63.2422ZM63.2422 22.7617H53.2422C53.2422 28.2846 57.7194 32.7617 63.2422 32.7617V22.7617ZM77.8086 22.7617V32.7617C83.3315 32.7617 87.8086 28.2846 87.8086 22.7617H77.8086ZM77.8086 17.2187H87.8086C87.8086 11.6959 83.3315 7.21875 77.8086 7.21875V17.2187ZM88.7657 31.6992H78.7657V37.1562H88.7657H98.7657V31.6992H88.7657ZM88.7657 37.1562V27.1562L73.8985 27.1562V37.1562V47.1562H88.7657V37.1562ZM73.8985 37.1562H63.8985V49.7031H73.8985H83.8985V37.1562H73.8985ZM73.8985 49.7031V39.7031H67.0664V49.7031V59.7031H73.8985V49.7031ZM67.0664 49.7031H77.0664V37.1562H67.0664H57.0664V49.7031H67.0664ZM67.0664 37.1562V27.1562H52.5V37.1562V47.1562H67.0664V37.1562ZM52.5 37.1562H62.5V31.6992H52.5H42.5V37.1562H52.5ZM52.5 31.6992V41.6992H88.7657V31.6992V21.6992L52.5 21.6992V31.6992ZM84.6836 11.8047H74.6836V28.1328L84.6836 28.1328H94.6836V11.8047H84.6836ZM84.6836 28.1328V18.1328L56.4961 18.1328V28.1328V38.1328H84.6836V28.1328ZM56.4961 28.1328H66.4961V11.8047H56.4961H46.4961V28.1328H56.4961ZM56.4961 11.8047V21.8047L84.6836 21.8047V11.8047V1.80469L56.4961 1.80469V11.8047ZM63.2422 17.2188H53.2422V22.7617H63.2422H73.2422V17.2188H63.2422ZM63.2422 22.7617V32.7617H77.8086V22.7617V12.7617L63.2422 12.7617V22.7617ZM77.8086 22.7617H87.8086V17.2187H77.8086L67.8086 17.2188V22.7617L77.8086 22.7617ZM77.8086 17.2187V7.21875H63.2422V17.2188V27.2188L77.8086 27.2187V17.2187ZM122.324 10H132.324C132.324 4.47715 127.847 0 122.324 0V10ZM122.324 18.0781H112.324C112.324 23.601 116.801 28.0781 122.324 28.0781V18.0781ZM127.266 18.0781H137.266C137.266 12.5553 132.789 8.07812 127.266 8.07812V18.0781ZM127.266 23.707V33.707C132.789 33.707 137.266 29.2299 137.266 23.707H127.266ZM122.324 23.707V13.707C116.801 13.707 112.324 18.1842 112.324 23.707H122.324ZM122.324 32V42C127.847 42 132.324 37.5228 132.324 32H122.324ZM115.406 32H105.406C105.406 37.5228 109.883 42 115.406 42V32ZM115.406 10V0C109.883 0 105.406 4.47715 105.406 10L115.406 10ZM111.023 12.1914H121.023C121.023 6.66856 116.546 2.19141 111.023 2.19141V12.1914ZM92.5469 33.2461L83.5748 37.6621C85.6716 41.9222 90.4751 44.1205 95.0697 42.9226L92.5469 33.2461ZM89.8399 27.7461L87.5931 18.0018C84.6168 18.688 82.1173 20.6969 80.8069 23.4559C79.4965 26.215 79.5189 29.4216 80.8677 32.1621L89.8399 27.7461ZM103.418 17.6055L113.195 19.704C113.829 16.7508 113.094 13.6693 111.196 11.32C109.297 8.97073 106.439 7.60547 103.418 7.60547V17.6055ZM91.9024 17.6055H81.9024C81.9024 23.1283 86.3795 27.6055 91.9024 27.6055V17.6055ZM91.9024 12.1914V2.19141C86.3795 2.19141 81.9024 6.66856 81.9024 12.1914H91.9024ZM122.324 33.2891H132.324C132.324 27.7662 127.847 23.2891 122.324 23.2891V33.2891ZM122.324 49.3164V59.3164C127.847 59.3164 132.324 54.8393 132.324 49.3164H122.324ZM95.8125 49.3164H85.8125C85.8125 54.8393 90.2897 59.3164 95.8125 59.3164V49.3164ZM95.8125 33.2891V23.2891C90.2897 23.2891 85.8125 27.7662 85.8125 33.2891H95.8125ZM102.645 38.7891V28.7891C97.1217 28.7891 92.6446 33.2662 92.6446 38.7891H102.645ZM102.645 43.9883H92.6446C92.6446 49.5111 97.1217 53.9883 102.645 53.9883V43.9883ZM115.535 43.9883V53.9883C121.058 53.9883 125.535 49.5111 125.535 43.9883H115.535ZM115.535 38.7891H125.535C125.535 33.2662 121.058 28.7891 115.535 28.7891V38.7891ZM122.324 10H112.324V18.0781H122.324H132.324V10H122.324ZM122.324 18.0781V28.0781H127.266V18.0781V8.07812H122.324V18.0781ZM127.266 18.0781H117.266V23.707H127.266H137.266V18.0781H127.266ZM127.266 23.707V13.707H122.324V23.707V33.707H127.266V23.707ZM122.324 23.707H112.324V32H122.324H132.324V23.707H122.324ZM122.324 32V22H115.406V32V42H122.324V32ZM115.406 32H125.406V10H115.406L105.406 10V32H115.406ZM115.406 10V20H122.324V10V0L115.406 0V10ZM111.023 12.1914L101.023 12.1914C101.023 15.4844 100.105 17.5114 98.8102 18.9736C97.385 20.5831 94.7504 22.3373 90.0241 23.5696L92.5469 33.2461L95.0697 42.9226C102.375 41.0181 108.978 37.6591 113.784 32.2325C118.719 26.6585 121.023 19.7265 121.023 12.1914H111.023ZM92.5469 33.2461L101.519 28.8301L98.812 23.3301L89.8399 27.7461L80.8677 32.1621L83.5748 37.6621L92.5469 33.2461ZM89.8399 27.7461L92.0866 37.4904C101.943 35.2179 111.047 29.7113 113.195 19.704L103.418 17.6055L93.6407 15.5069C93.736 15.0626 93.9285 15.184 93.237 15.7229C92.458 16.3301 90.7624 17.271 87.5931 18.0018L89.8399 27.7461ZM103.418 17.6055V7.60547H91.9024V17.6055V27.6055H103.418V17.6055ZM91.9024 17.6055H101.902V12.1914H91.9024H81.9024V17.6055H91.9024ZM91.9024 12.1914V22.1914H111.023V12.1914V2.19141L91.9024 2.19141V12.1914ZM122.324 33.2891H112.324V49.3164H122.324H132.324V33.2891H122.324ZM122.324 49.3164V39.3164H95.8125V49.3164V59.3164H122.324V49.3164ZM95.8125 49.3164H105.813V33.2891H95.8125H85.8125V49.3164H95.8125ZM95.8125 33.2891V43.2891H122.324V33.2891V23.2891H95.8125V33.2891ZM102.645 38.7891H92.6446V43.9883H102.645H112.645V38.7891H102.645ZM102.645 43.9883V53.9883H115.535V43.9883V33.9883H102.645V43.9883ZM115.535 43.9883H125.535V38.7891H115.535H105.535V43.9883H115.535ZM115.535 38.7891V28.7891H102.645V38.7891V48.7891H115.535V38.7891ZM160.352 10H170.352C170.352 4.47715 165.874 0 160.352 0V10ZM160.352 18.8086H150.352C150.352 24.3314 154.829 28.8086 160.352 28.8086V18.8086ZM165.293 18.8086H175.293C175.293 13.2857 170.816 8.80859 165.293 8.80859V18.8086ZM165.293 24.4805V34.4805C170.816 34.4805 175.293 30.0033 175.293 24.4805H165.293ZM160.352 24.4805V14.4805C154.829 14.4805 150.352 18.9576 150.352 24.4805H160.352ZM160.352 32.9453V42.9453C165.874 42.9453 170.352 38.4682 170.352 32.9453H160.352ZM153.434 32.9453H143.434C143.434 38.4682 147.911 42.9453 153.434 42.9453V32.9453ZM153.434 10V0C147.911 0 143.434 4.47715 143.434 10H153.434ZM149.008 12.0625H159.008C159.008 6.53965 154.531 2.0625 149.008 2.0625V12.0625ZM130.531 33.1172L121.752 37.9057C123.921 41.8814 128.491 43.9035 132.891 42.8347L130.531 33.1172ZM127.695 27.918L125.386 18.1883C122.353 18.9082 119.83 21.0008 118.561 23.8477C117.293 26.6946 117.424 29.9703 118.916 32.7065L127.695 27.918ZM141.488 17.4766L151.281 19.5011C151.89 16.5561 151.141 13.4935 149.242 11.1617C147.343 8.82992 144.496 7.47656 141.488 7.47656V17.4766ZM129.93 17.4766H119.93C119.93 22.9994 124.407 27.4766 129.93 27.4766V17.4766ZM129.93 12.0625V2.0625C124.407 2.0625 119.93 6.53965 119.93 12.0625H129.93ZM160.352 34.4492H170.352C170.352 28.9264 165.874 24.4492 160.352 24.4492V34.4492ZM160.352 49.7461V59.7461C165.874 59.7461 170.352 55.2689 170.352 49.7461H160.352ZM153.434 49.7461H143.434C143.434 55.2689 147.911 59.7461 153.434 59.7461V49.7461ZM153.434 39.8633H163.434C163.434 34.3404 158.956 29.8633 153.434 29.8633V39.8633ZM133.152 39.8633H123.152C123.152 45.3861 127.63 49.8633 133.152 49.8633V39.8633ZM133.152 34.4492V24.4492C127.63 24.4492 123.152 28.9264 123.152 34.4492H133.152ZM160.352 10H150.352V18.8086H160.352H170.352V10H160.352ZM160.352 18.8086V28.8086H165.293V18.8086V8.80859H160.352V18.8086ZM165.293 18.8086H155.293V24.4805H165.293H175.293V18.8086H165.293ZM165.293 24.4805V14.4805H160.352V24.4805V34.4805H165.293V24.4805ZM160.352 24.4805H150.352V32.9453H160.352H170.352V24.4805H160.352ZM160.352 32.9453V22.9453H153.434V32.9453V42.9453H160.352V32.9453ZM153.434 32.9453H163.434V10H153.434H143.434V32.9453H153.434ZM153.434 10V20H160.352V10V0H153.434V10ZM149.008 12.0625H139.008C139.008 15.4618 138.064 17.5351 136.785 18.9849C135.393 20.5618 132.818 22.2712 128.171 23.3997L130.531 33.1172L132.891 42.8347C140.276 41.0413 146.94 37.7019 151.778 32.2211C156.729 26.6133 159.008 19.6202 159.008 12.0625H149.008ZM130.531 33.1172L139.31 28.3287L136.474 23.1294L127.695 27.918L118.916 32.7065L121.752 37.9057L130.531 33.1172ZM127.695 27.918L130.005 37.6476C140.102 35.2509 149.2 29.5702 151.281 19.5011L141.488 17.4766L131.695 15.4521C131.779 15.0476 131.948 15.2053 131.223 15.78C130.41 16.4241 128.659 17.4114 125.386 18.1883L127.695 27.918ZM141.488 17.4766V7.47656H129.93V17.4766V27.4766H141.488V17.4766ZM129.93 17.4766H139.93V12.0625H129.93H119.93V17.4766H129.93ZM129.93 12.0625V22.0625H149.008V12.0625V2.0625H129.93V12.0625ZM160.352 34.4492H150.352V49.7461H160.352H170.352V34.4492H160.352ZM160.352 49.7461V39.7461H153.434V49.7461V59.7461H160.352V49.7461ZM153.434 49.7461H163.434V39.8633H153.434H143.434V49.7461H153.434ZM153.434 39.8633V29.8633L133.152 29.8633V39.8633V49.8633L153.434 49.8633V39.8633ZM133.152 39.8633L143.152 39.8633V34.4492L133.152 34.4492H123.152V39.8633H133.152ZM133.152 34.4492V44.4492L160.352 44.4492V34.4492V24.4492H133.152V34.4492ZM200.141 10H210.141C210.141 4.47715 205.663 0 200.141 0V10ZM200.141 49.875V59.875C205.663 59.875 210.141 55.3978 210.141 49.875H200.141ZM193.18 49.875H183.18C183.18 55.3978 187.657 59.875 193.18 59.875V49.875ZM193.18 10V0C187.657 0 183.18 4.47715 183.18 10H193.18ZM178.313 12.6641L178.243 22.6638C178.29 22.6641 178.337 22.6641 178.383 22.6638L178.313 12.6641ZM178.313 18.8945L178.143 28.8931C178.26 28.8951 178.377 28.895 178.494 28.8929L178.313 18.8945ZM200.141 10H190.141V49.875H200.141H210.141V10H200.141ZM200.141 49.875V39.875H193.18V49.875V59.875H200.141V49.875ZM193.18 49.875H203.18V10H193.18H183.18V49.875H193.18ZM193.18 10V20H200.141V10V0L193.18 0V10ZM178.313 12.6641L178.383 22.6638C178.316 22.6643 178.146 22.6406 177.971 22.5508C177.809 22.4681 177.818 22.4198 177.939 22.5782C178.209 22.9327 178.926 24.2334 178.926 26.9727H188.926H198.926C198.926 20.9463 197.365 15.0712 193.843 10.4521C190.196 5.66819 184.663 2.61877 178.242 2.66431L178.313 12.6641ZM188.926 26.9727H178.926C178.926 29.8028 178.196 31.1249 177.926 31.4804C177.806 31.6391 177.795 31.594 177.949 31.5147C178.114 31.4293 178.267 31.4102 178.313 31.4102V41.4102V51.4102C184.686 51.4102 190.205 48.3834 193.856 43.5733C197.378 38.9337 198.926 33.0371 198.926 26.9727H188.926ZM178.313 41.4102V31.4102C178.291 31.4102 178.396 31.4135 178.533 31.483C178.661 31.5479 178.643 31.5815 178.523 31.4265C178.258 31.0816 177.527 29.7839 177.527 26.9727H167.527H157.527C157.527 33.056 159.096 38.977 162.676 43.6273C166.389 48.4498 171.95 51.4102 178.313 51.4102V41.4102ZM167.527 26.9727H177.527C177.527 24.2526 178.244 22.9762 178.511 22.632C178.63 22.4774 178.647 22.5139 178.511 22.5822C178.451 22.6127 178.384 22.6363 178.322 22.6507C178.261 22.6649 178.23 22.6637 178.243 22.6638L178.313 12.6641L178.382 2.6643C171.973 2.6198 166.398 5.60151 162.689 10.3982C159.109 15.0277 157.527 20.9271 157.527 26.9727H167.527ZM178.313 18.8945L178.482 8.89597C172.85 8.80052 168.652 12.0746 166.479 16.1436C164.638 19.59 164.188 23.5385 164.188 26.9727H174.188H184.188C184.188 26.0559 184.256 25.4897 184.308 25.2055C184.365 24.8993 184.371 25.0966 184.12 25.5664C183.854 26.0649 183.227 26.9904 182.013 27.7722C180.735 28.5955 179.339 28.9134 178.143 28.8931L178.313 18.8945ZM174.188 26.9727H164.188C164.188 30.4271 164.631 34.3944 166.487 37.8541C168.701 41.9836 172.876 45.0937 178.313 45.0937V35.0937V25.0937C179.423 25.0937 180.758 25.3965 182.005 26.1982C183.202 26.9673 183.834 27.8831 184.112 28.4018C184.371 28.8846 184.367 29.0928 184.31 28.7849C184.257 28.4977 184.188 27.9194 184.188 26.9727H174.188ZM178.313 35.0937V45.0937C183.912 45.0937 187.963 41.7294 190.039 37.7986C191.838 34.3926 192.309 30.4806 192.309 26.9727H182.309H172.309C172.309 27.9039 172.239 28.4806 172.185 28.7724C172.127 29.0842 172.117 28.9062 172.355 28.4572C172.603 27.9865 173.199 27.0851 174.371 26.3005C175.611 25.4703 177.02 25.0937 178.313 25.0937V35.0937ZM182.309 26.9727H192.309C192.309 23.4853 191.832 19.5914 190.047 16.199C188.016 12.3393 183.937 8.79061 178.131 8.89618L178.313 18.8945L178.494 28.8929C177.108 28.9181 175.633 28.5217 174.363 27.6697C173.174 26.8723 172.584 25.9614 172.347 25.511C172.117 25.075 172.128 24.9078 172.186 25.218C172.24 25.507 172.309 26.0715 172.309 26.9727H182.309ZM235.676 21.9023H245.676C245.676 16.3795 241.199 11.9023 235.676 11.9023V21.9023ZM235.676 24.8672H225.676C225.676 30.39 230.153 34.8672 235.676 34.8672V24.8672ZM250.457 24.8672H260.457C260.457 19.3443 255.98 14.8672 250.457 14.8672V24.8672ZM250.457 30.3242V40.3242C255.98 40.3242 260.457 35.8471 260.457 30.3242H250.457ZM214.191 30.3242H204.191C204.191 35.8471 208.669 40.3242 214.191 40.3242V30.3242ZM214.191 24.8672V14.8672C208.669 14.8672 204.191 19.3443 204.191 24.8672L214.191 24.8672ZM228.801 24.8672V34.8672C234.324 34.8672 238.801 30.39 238.801 24.8672H228.801ZM228.801 21.9023V11.9023C223.278 11.9023 218.801 16.3795 218.801 21.9023H228.801ZM247.148 10.8594H257.148C257.148 5.33653 252.671 0.859375 247.148 0.859375V10.8594ZM247.148 16.0156V26.0156C252.671 26.0156 257.148 21.5385 257.148 16.0156H247.148ZM238.082 16.0156V6.01562C234.023 6.01562 230.367 8.46885 228.829 12.2246C227.29 15.9804 228.174 20.2937 231.066 23.1413L238.082 16.0156ZM249.082 18.9375L258.29 22.839C259.568 19.8214 259.287 16.3689 257.537 13.5979C255.787 10.8269 252.791 9.08929 249.516 8.94694L249.082 18.9375ZM246.934 24.0078L246.379 33.9924C250.59 34.2264 254.496 31.7929 256.141 27.9093L246.934 24.0078ZM232.281 18.0781L240.8 12.8404C238.983 9.88565 235.765 8.08339 232.296 8.07814C228.828 8.07288 225.604 9.86539 223.779 12.8146L232.281 18.0781ZM217.629 24.0078L208.421 27.9093C210.067 31.7934 213.973 34.2269 218.185 33.9923L217.629 24.0078ZM215.48 18.9375L215.034 8.94746C211.762 9.09363 208.769 10.8327 207.022 13.603C205.275 16.3732 204.995 19.8234 206.273 22.839L215.48 18.9375ZM226.395 16.0156L233.137 23.4005C236.185 20.6175 237.21 16.2477 235.718 12.3996C234.225 8.55145 230.522 6.01562 226.395 6.01562V16.0156ZM217.5 16.0156H207.5C207.5 21.5385 211.977 26.0156 217.5 26.0156V16.0156ZM217.5 10.8594V0.859375C211.977 0.859375 207.5 5.33653 207.5 10.8594H217.5ZM247.063 33.5898H257.063C257.063 28.067 252.585 23.5898 247.063 23.5898V33.5898ZM247.063 38.6172V48.6172C252.585 48.6172 257.063 44.14 257.063 38.6172H247.063ZM217.371 38.6172H207.371C207.371 44.14 211.848 48.6172 217.371 48.6172V38.6172ZM217.371 33.5898V23.5898C211.848 23.5898 207.371 28.067 207.371 33.5898H217.371ZM228.758 33.5898V43.5898C234.281 43.5898 238.758 39.1127 238.758 33.5898H228.758ZM228.758 31.1836V21.1836C223.235 21.1836 218.758 25.6607 218.758 31.1836H228.758ZM235.719 31.1836H245.719C245.719 25.6607 241.242 21.1836 235.719 21.1836V31.1836ZM235.719 33.5898H225.719C225.719 39.1127 230.196 43.5898 235.719 43.5898V33.5898ZM235.676 21.9023H225.676V24.8672H235.676H245.676V21.9023H235.676ZM235.676 24.8672V34.8672H250.457V24.8672V14.8672H235.676V24.8672ZM250.457 24.8672H240.457V30.3242H250.457H260.457V24.8672H250.457ZM250.457 30.3242V20.3242H214.191V30.3242V40.3242H250.457V30.3242ZM214.191 30.3242H224.191V24.8672H214.191L204.191 24.8672V30.3242H214.191ZM214.191 24.8672V34.8672H228.801V24.8672V14.8672H214.191V24.8672ZM228.801 24.8672H238.801V21.9023H228.801H218.801V24.8672H228.801ZM228.801 21.9023V31.9023H235.676V21.9023V11.9023H228.801V21.9023ZM247.148 10.8594L237.148 10.8594V16.0156H247.148H257.148V10.8594H247.148ZM247.148 16.0156V6.01562H238.082V16.0156V26.0156H247.148V16.0156ZM238.082 16.0156L231.066 23.1413C235.277 27.2874 241.787 28.6298 248.648 28.9281L249.082 18.9375L249.516 8.94694C246.834 8.83029 245.29 8.52177 244.53 8.29727C243.712 8.05538 244.238 8.04266 245.098 8.88996L238.082 16.0156ZM249.082 18.9375L239.875 15.036L237.726 20.1063L246.934 24.0078L256.141 27.9093L258.29 22.839L249.082 18.9375ZM246.934 24.0078L247.488 14.0232C244.191 13.84 242.245 13.3073 241.229 12.8726C240.272 12.4631 240.462 12.2913 240.8 12.8404L232.281 18.0781L223.763 23.3159C228.347 30.7721 237.235 33.4844 246.379 33.9924L246.934 24.0078ZM232.281 18.0781L223.779 12.8146C224.119 12.2644 224.298 12.4476 223.32 12.8667C222.294 13.3063 220.346 13.8409 217.073 14.0233L217.629 24.0078L218.185 33.9923C227.334 33.4827 236.205 30.7381 240.784 23.3417L232.281 18.0781ZM217.629 24.0078L226.836 20.1063L224.688 15.036L215.48 18.9375L206.273 22.839L208.421 27.9093L217.629 24.0078ZM215.48 18.9375L215.927 28.9275C222.873 28.6172 229.01 27.1691 233.137 23.4005L226.395 16.0156L219.652 8.63077C220.339 8.00334 220.66 8.05994 219.863 8.29792C219.098 8.52662 217.594 8.8331 215.034 8.94746L215.48 18.9375ZM226.395 16.0156V6.01562H217.5V16.0156V26.0156H226.395V16.0156ZM217.5 16.0156H227.5V10.8594H217.5H207.5V16.0156H217.5ZM217.5 10.8594V20.8594H247.148V10.8594V0.859375L217.5 0.859375V10.8594ZM247.063 33.5898H237.063V38.6172H247.063H257.063V33.5898H247.063ZM247.063 38.6172V28.6172H217.371V38.6172V48.6172H247.063V38.6172ZM217.371 38.6172H227.371V33.5898H217.371H207.371V38.6172H217.371ZM217.371 33.5898V43.5898H228.758V33.5898V23.5898H217.371V33.5898ZM228.758 33.5898H238.758V31.1836H228.758H218.758V33.5898H228.758ZM228.758 31.1836V41.1836H235.719V31.1836V21.1836H228.758V31.1836ZM235.719 31.1836H225.719V33.5898H235.719H245.719V31.1836H235.719ZM235.719 33.5898V43.5898H247.063V33.5898V23.5898H235.719V33.5898ZM232.152 39.2617V49.2617C233.696 49.2617 234.929 49.3572 235.864 49.4983C236.828 49.6436 237.291 49.8098 237.393 49.8525C237.531 49.9106 236.879 49.6779 236.119 48.7892C235.218 47.7367 234.57 46.2155 234.57 44.5469H244.57H254.57C254.57 37.067 249.041 33.0508 245.131 31.4102C241.229 29.773 236.602 29.2617 232.152 29.2617V39.2617ZM244.57 44.5469H234.57C234.57 42.9194 235.197 41.4031 236.109 40.3342C236.878 39.4323 237.544 39.1941 237.412 39.2491C237.315 39.2895 236.855 39.4542 235.885 39.5983C234.945 39.7381 233.706 39.832 232.152 39.832V49.832V59.832C236.576 59.832 241.205 59.3372 245.111 57.7079C249.074 56.0552 254.57 52.024 254.57 44.5469H244.57ZM232.152 49.832V39.832C230.585 39.832 229.353 39.7377 228.431 39.5997C227.48 39.4574 227.056 39.2978 226.999 39.2737C226.916 39.2384 227.612 39.5049 228.387 40.4396C229.295 41.5345 229.863 43.0201 229.863 44.5469H219.863H209.863C209.863 51.8565 215.1 55.9497 219.183 57.6833C223.089 59.3416 227.722 59.832 232.152 59.832V49.832ZM219.863 44.5469H229.863C229.863 46.1141 229.276 47.6046 228.378 48.6839C227.611 49.6052 226.929 49.8662 227.019 49.8277C227.081 49.8013 227.507 49.6404 228.452 49.4969C229.369 49.3576 230.595 49.2617 232.152 49.2617V39.2617V29.2617C227.696 29.2617 223.065 29.7687 219.163 31.435C215.132 33.1567 209.863 37.2337 209.863 44.5469H219.863ZM232.152 43.7734V33.7734C230.547 33.7734 228.591 33.7797 226.997 33.9815C226.316 34.0677 224.6 34.3031 222.811 35.2033C220.66 36.286 216.996 39.2236 216.996 44.5469H226.996H236.996C236.996 46.6173 236.324 48.6627 235.05 50.3476C233.897 51.8722 232.576 52.6789 231.801 53.0687C231.013 53.4656 230.368 53.6418 230.078 53.7129C229.757 53.7915 229.545 53.8186 229.509 53.8232C229.458 53.8296 229.618 53.8088 230.15 53.7934C230.648 53.779 231.293 53.7734 232.152 53.7734V43.7734ZM226.996 44.5469H216.996C216.996 50.0403 220.888 52.8928 222.743 53.8442C224.453 54.7216 226.095 54.988 226.812 55.0925C228.467 55.3334 230.429 55.3633 232.152 55.3633V45.3633V35.3633C231.338 35.3633 230.724 35.3531 230.264 35.3345C229.772 35.3147 229.627 35.2914 229.693 35.3011C229.736 35.3073 229.94 35.3377 230.247 35.4187C230.526 35.4923 231.13 35.6689 231.87 36.0485C232.583 36.4143 233.846 37.1834 234.973 38.6352C236.228 40.2519 236.996 42.3188 236.996 44.5469H226.996ZM232.152 45.3633V55.3633C233.917 55.3633 235.906 55.3351 237.568 55.0885C238.287 54.9817 239.993 54.7019 241.761 53.7491C243.87 52.6127 247.309 49.6803 247.309 44.5469H237.309H227.309C227.309 42.5187 227.952 40.5328 229.148 38.8871C230.239 37.3862 231.501 36.5592 232.272 36.1436C233.053 35.7226 233.7 35.5251 234.009 35.4408C234.346 35.3489 234.575 35.3136 234.632 35.3051C234.726 35.2912 234.599 35.3144 234.099 35.3343C233.633 35.353 233.003 35.3633 232.152 35.3633V45.3633ZM237.309 44.5469H247.309C247.309 42.4951 246.702 40.3781 245.398 38.5372C244.189 36.8294 242.725 35.8425 241.691 35.2959C239.843 34.3184 238.059 34.0722 237.38 33.9846C235.783 33.7785 233.802 33.7734 232.152 33.7734V43.7734V53.7734C233.046 53.7734 233.707 53.779 234.212 53.7935C234.754 53.809 234.896 53.8299 234.82 53.8201C234.77 53.8137 234.534 53.7823 234.183 53.6936C233.863 53.6123 233.173 53.4157 232.342 52.9761C231.506 52.5342 230.189 51.6668 229.076 50.0953C227.869 48.3907 227.309 46.4268 227.309 44.5469H237.309ZM288.484 29.9375H298.484C298.484 24.4147 294.007 19.9375 288.484 19.9375V29.9375ZM288.484 35.3516V45.3516C294.007 45.3516 298.484 40.8744 298.484 35.3516H288.484ZM252.219 35.3516H242.219C242.219 40.8744 246.696 45.3516 252.219 45.3516V35.3516ZM252.219 29.9375V19.9375C246.696 19.9375 242.219 24.4147 242.219 29.9375H252.219ZM284.273 43.6875H294.273C294.273 38.1647 289.796 33.6875 284.273 33.6875V43.6875ZM284.273 49.1875V59.1875C289.796 59.1875 294.273 54.7103 294.273 49.1875H284.273ZM256.387 49.1875H246.387C246.387 54.7103 250.864 59.1875 256.387 59.1875V49.1875ZM256.387 37.5V27.5C250.864 27.5 246.387 31.9772 246.387 37.5H256.387ZM263.305 37.5H273.305C273.305 31.9772 268.828 27.5 263.305 27.5V37.5ZM263.305 43.6875H253.305C253.305 49.2103 257.782 53.6875 263.305 53.6875V43.6875ZM285.047 19.4102L295.047 19.4928C295.047 19.4372 295.047 19.3817 295.047 19.3261L285.047 19.4102ZM255.613 19.4102L265.613 19.4928C265.613 19.4372 265.613 19.3817 265.613 19.3261L255.613 19.4102ZM270.352 16.5312L270.439 6.53163C270.381 6.53113 270.323 6.53112 270.265 6.53162L270.352 16.5312ZM262.789 19.4102L272.787 19.6184C272.79 19.475 272.79 19.3315 272.787 19.188L262.789 19.4102ZM270.352 22.2461L270.439 12.2465C270.381 12.246 270.323 12.246 270.265 12.2465L270.352 22.2461ZM288.484 29.9375H278.484V35.3516H288.484H298.484V29.9375H288.484ZM288.484 35.3516V25.3516H252.219V35.3516V45.3516H288.484V35.3516ZM252.219 35.3516H262.219V29.9375H252.219H242.219V35.3516H252.219ZM252.219 29.9375V39.9375H288.484V29.9375V19.9375H252.219V29.9375ZM284.273 43.6875H274.273V49.1875H284.273H294.273V43.6875H284.273ZM284.273 49.1875V39.1875H256.387V49.1875V59.1875H284.273V49.1875ZM256.387 49.1875H266.387V37.5H256.387H246.387V49.1875H256.387ZM256.387 37.5V47.5H263.305V37.5V27.5H256.387V37.5ZM263.305 37.5H253.305V43.6875H263.305H273.305V37.5H263.305ZM263.305 43.6875V53.6875H284.273V43.6875V33.6875H263.305V43.6875ZM270.352 11.1172V21.1172C273.713 21.1172 275.518 21.7555 276.101 22.0809C276.335 22.2112 276.064 22.1183 275.708 21.5982C275.302 21.0039 275.053 20.2325 275.047 19.4942L285.047 19.4102L295.047 19.3261C294.987 12.2408 290.644 7.28992 285.839 4.61151C281.277 2.06871 275.755 1.11719 270.352 1.11719V11.1172ZM285.047 19.4102L275.047 19.3275C275.053 18.6476 275.28 17.9154 275.667 17.3389C276.008 16.8323 276.271 16.7399 276.046 16.8672C275.478 17.1886 273.696 17.832 270.352 17.832V27.832V37.832C275.772 37.832 281.317 36.8641 285.894 34.2744C290.734 31.5366 294.988 26.5412 295.047 19.4928L285.047 19.4102ZM270.352 27.832V17.832C266.945 17.832 265.13 17.1821 264.556 16.8584C264.329 16.7309 264.616 16.8348 264.976 17.3762C265.388 17.9944 265.619 18.7752 265.613 19.4928L255.613 19.4102L245.614 19.3275C245.554 26.487 249.876 31.5434 254.738 34.2832C259.331 36.8706 264.907 37.832 270.352 37.832V27.832ZM255.613 19.4102L265.613 19.3261C265.619 20.1031 265.366 20.9243 264.936 21.5609C264.56 22.1159 264.265 22.2202 264.5 22.0895C265.091 21.7618 266.928 21.1172 270.352 21.1172V11.1172V1.11719C264.923 1.11719 259.37 2.06243 254.794 4.6029C249.967 7.28237 245.553 12.2948 245.614 19.4942L255.613 19.4102ZM270.352 16.5312L270.265 6.53162C267.475 6.55568 264.152 6.79251 261.204 7.8871C259.671 8.45626 257.56 9.5024 255.778 11.5061C253.789 13.7437 252.724 16.6133 252.792 19.6323L262.789 19.4102L272.787 19.188C272.832 21.2402 272.079 23.2719 270.725 24.7951C269.579 26.0845 268.426 26.5398 268.166 26.6363C267.854 26.7523 267.842 26.7088 268.328 26.6467C268.777 26.5893 269.464 26.5393 270.438 26.5309L270.352 16.5312ZM262.789 19.4102L252.791 19.2019C252.731 22.073 253.677 24.9534 255.699 27.284C257.524 29.3863 259.716 30.4592 261.309 31.0306C264.326 32.1125 267.709 32.2692 270.438 32.2457L270.352 22.2461L270.265 12.2465C269.275 12.255 268.586 12.218 268.141 12.1696C267.654 12.1168 267.701 12.0757 268.061 12.2048C268.381 12.3196 269.615 12.8044 270.804 14.1749C272.192 15.7736 272.825 17.7785 272.787 19.6184L262.789 19.4102ZM270.352 22.2461L270.264 32.2457C272.974 32.2695 276.328 32.1084 279.333 31.0351C280.915 30.47 283.069 29.4207 284.885 27.385C286.893 25.1327 287.914 22.3066 287.914 19.4102H277.914H267.914C267.914 17.5449 268.602 15.5943 269.958 14.0739C271.121 12.77 272.302 12.3089 272.606 12.2003C272.949 12.0777 272.987 12.1185 272.512 12.1705C272.075 12.2183 271.402 12.2549 270.439 12.2465L270.352 22.2461ZM277.914 19.4102H287.914C287.914 16.3715 286.774 13.5618 284.804 11.406C283.034 9.46789 280.96 8.44528 279.438 7.88233C276.503 6.79719 273.209 6.55593 270.439 6.53163L270.352 16.5312L270.264 26.5309C271.21 26.5392 271.882 26.5886 272.323 26.6454C272.799 26.7067 272.797 26.7503 272.502 26.6411C272.258 26.5508 271.156 26.119 270.038 24.8953C268.721 23.4538 267.914 21.482 267.914 19.4102H277.914Z" fill="white" mask="url(#path-1-outside-1_3990_1444)"/>
</g>
<defs>
<filter id="filter0_d_3990_1444" x="0" y="0" width="302.484" height="67.875" filterUnits="userSpaceOnUse" color-interpolation-filters="sRGB">
<feFlood flood-opacity="0" result="BackgroundImageFix"/>
<feColorMatrix in="SourceAlpha" type="matrix" values="0 0 0 0 0 0 0 0 0 0 0 0 0 0 0 0 0 0 127 0" result="hardAlpha"/>
<feOffset dy="4"/>
<feGaussianBlur stdDeviation="2"/>
<feComposite in2="hardAlpha" operator="out"/>
<feColorMatrix type="matrix" values="0 0 0 0 0 0 0 0 0 0 0 0 0 0 0 0 0 0 0.07 0"/>
<feBlend mode="normal" in2="BackgroundImageFix" result="effect1_dropShadow_3990_1444"/>
<feBlend mode="normal" in="SourceGraphic" in2="effect1_dropShadow_3990_1444" result="shape"/>
</filter>
</defs>
</svg>
