<svg width="464" height="68" viewBox="0 0 464 68" fill="none" xmlns="http://www.w3.org/2000/svg">
<g filter="url(#filter0_d_3990_1447)">
<mask id="path-1-outside-1_3990_1447" maskUnits="userSpaceOnUse" x="3.14092" y="-0.507813" width="457" height="61" fill="black">
<rect fill="white" x="3.14092" y="-0.507813" width="457" height="61"/>
<path d="M24.7855 12.6641C30.973 12.6211 35.5276 18.207 35.5276 26.9727C35.5276 35.8672 30.973 41.4102 24.7855 41.4102C18.555 41.4102 13.9573 35.8672 14.0003 26.9727C13.9573 18.207 18.555 12.6211 24.7855 12.6641ZM24.7855 18.8945C22.2933 18.8516 20.6605 21.4727 20.7034 26.9727C20.6605 32.5586 22.2933 35.0938 24.7855 35.0938C27.3206 35.0938 28.9105 32.5586 28.9534 26.9727C28.9105 21.4727 27.3206 18.8516 24.7855 18.8945ZM45.7542 10V24.4375H51.1253V30.1523H45.7542V49.7461H38.8362V10L45.7542 10ZM85.6292 10V49.875H78.6683V10H85.6292ZM63.8011 12.6641C69.8597 12.6211 74.4144 18.207 74.4144 26.9727C74.4144 35.8672 69.8597 41.4102 63.8011 41.4102C57.6136 41.4102 53.0159 35.8672 53.0159 26.9727C53.0159 18.207 57.6136 12.6211 63.8011 12.6641ZM63.8011 18.8945C61.2659 18.8516 59.6761 21.4727 59.6761 26.9727C59.6761 32.5586 61.2659 35.0938 63.8011 35.0938C66.1644 35.0938 67.7972 32.5586 67.7972 26.9727C67.7972 21.4727 66.1644 18.8516 63.8011 18.8945ZM123.657 10V49.875H116.696V10H123.657ZM111.969 13.3516V18.8945H99.2933V34.8789C105.932 34.8574 109.907 34.707 114.332 33.8906L114.891 39.4766C109.907 40.5078 104.922 40.6797 95.9847 40.6367H92.4183V13.3516H111.969ZM139.254 12.6641C144.561 12.6211 148.6 16.8965 149.567 23.8359H155.196V10H162.028V49.875H155.196V29.3359H149.653C148.922 36.834 144.754 41.4102 139.254 41.4102C133.11 41.4102 128.684 35.8672 128.684 26.9727C128.684 18.207 133.11 12.6211 139.254 12.6641ZM139.254 18.8945C136.891 18.8516 135.258 21.4727 135.301 26.9727C135.258 32.5586 136.891 35.0938 139.254 35.0938C141.66 35.0937 143.207 32.5586 143.207 26.9727C143.207 21.4727 141.66 18.8516 139.254 18.8945ZM208.09 12.1914V15.8008C208.047 19.4961 208.047 23.5137 207.102 28.9922H212V34.4922H197.09V49.7891H190.129V34.4922H175.735V28.9922H200.184C201.043 24.3945 201.194 20.7852 201.215 17.6055H179.645V12.1914H208.09ZM226.653 22.0312C226.653 27.7676 228.092 33.4395 233.742 36.5547V30.2812H230.047V24.6953H233.742V10.5156L240.145 10.5156V48.0703H233.742V36.8555L230.176 41.668C226.91 40.0566 224.783 37.3926 223.473 34.1055C222.119 37.7363 219.971 40.7656 216.641 42.6562L212.731 37.5C218.703 34.0625 220.121 27.875 220.164 22.0312V21.8164H214.492V16.3594H220.164V11.375H226.567V16.3594H232.153V21.8164H226.653V22.0312ZM248.352 10V49.7461H241.864V10H248.352ZM284.145 10V25.6836H288.614V31.3555H284.145V49.7461H277.184V10H284.145ZM251.36 38.1445C254.024 38.1445 257.117 38.1445 260.383 38.1016V35.2656C256.43 34.2988 253.895 31.6133 253.895 28.1328C253.895 23.707 258.02 20.6133 263.907 20.6133C269.664 20.6133 273.875 23.707 273.875 28.1328C273.875 31.6348 271.254 34.3203 267.301 35.2656V37.8437C270.094 37.6934 272.887 37.457 275.508 37.1133L275.981 42.0547C267.645 43.6875 258.707 43.6875 252.176 43.6875L251.36 38.1445ZM275.465 14.168V19.5391H252.133V14.168H260.383V10.3437H267.301V14.168H275.465ZM263.907 25.7695C261.801 25.8125 260.426 26.543 260.469 28.1328C260.426 29.8086 261.801 30.4961 263.907 30.4961C265.926 30.4961 267.258 29.8086 267.258 28.1328C267.258 26.543 265.926 25.8125 263.907 25.7695ZM326.082 27.4023V32.4297H289.817V27.4023H326.082ZM321.871 33.6328V43.6445H300.645V44.9336H322.946V49.4883H293.813V39.3906H315.039V38.2734H293.813V33.6328H321.871ZM321.871 10.4727V20.4844H301.032V21.7734H322.559V26.2852H294.2V16.2305H314.996V15.0273H294.157V10.4727L321.871 10.4727ZM360.028 11.6328V16.9609H352.938C353.604 20.1836 356.032 23.3418 361.66 24.8672L358.481 30.1523C354.098 29.0352 351.133 26.6504 349.371 23.6211C347.588 27.0586 344.537 29.7441 339.789 30.9687L336.438 25.5977C342.389 23.9863 344.881 20.4844 345.547 16.9609H338.242V11.6328H360.028ZM369.223 10V17.3477H374.164V22.8477H369.223V30.3242H362.305V10L369.223 10ZM369.223 31.6562V42.7852H349.071V44.2031H370.168V49.3594H342.239V38.0156H362.348V36.7695H342.239V31.6562H369.223ZM407.164 10V25.082H412.535V30.7109H407.164V49.7461H400.332V10H407.164ZM398.399 15.6719V21.1289H375.239V15.6719H383.446V10.7305H390.321V15.6719H398.399ZM386.883 22.6758C392.77 22.6758 397.282 26.7148 397.282 32.3437C397.282 38.0156 392.77 42.0547 386.883 42.0547C380.867 42.0547 376.442 38.0156 376.442 32.3437C376.442 26.7148 380.867 22.6758 386.883 22.6758ZM386.883 28.2187C384.649 28.2187 383.016 29.6797 383.059 32.3437C383.016 35.1367 384.649 36.4687 386.883 36.4687C389.075 36.4687 390.664 35.1367 390.664 32.3437C390.664 29.6797 389.075 28.2187 386.883 28.2187ZM445.836 20.0977V25.4258H417.735V11.418H424.61V20.0977H445.836ZM449.746 28.9492V34.2773H413.481V28.9492H449.746ZM446.094 43.4727V48.9727H417.262V37.0273H424.223V43.4727H446.094Z"/>
</mask>
<path d="M24.7855 12.6641C30.973 12.6211 35.5276 18.207 35.5276 26.9727C35.5276 35.8672 30.973 41.4102 24.7855 41.4102C18.555 41.4102 13.9573 35.8672 14.0003 26.9727C13.9573 18.207 18.555 12.6211 24.7855 12.6641ZM24.7855 18.8945C22.2933 18.8516 20.6605 21.4727 20.7034 26.9727C20.6605 32.5586 22.2933 35.0938 24.7855 35.0938C27.3206 35.0938 28.9105 32.5586 28.9534 26.9727C28.9105 21.4727 27.3206 18.8516 24.7855 18.8945ZM45.7542 10V24.4375H51.1253V30.1523H45.7542V49.7461H38.8362V10L45.7542 10ZM85.6292 10V49.875H78.6683V10H85.6292ZM63.8011 12.6641C69.8597 12.6211 74.4144 18.207 74.4144 26.9727C74.4144 35.8672 69.8597 41.4102 63.8011 41.4102C57.6136 41.4102 53.0159 35.8672 53.0159 26.9727C53.0159 18.207 57.6136 12.6211 63.8011 12.6641ZM63.8011 18.8945C61.2659 18.8516 59.6761 21.4727 59.6761 26.9727C59.6761 32.5586 61.2659 35.0938 63.8011 35.0938C66.1644 35.0938 67.7972 32.5586 67.7972 26.9727C67.7972 21.4727 66.1644 18.8516 63.8011 18.8945ZM123.657 10V49.875H116.696V10H123.657ZM111.969 13.3516V18.8945H99.2933V34.8789C105.932 34.8574 109.907 34.707 114.332 33.8906L114.891 39.4766C109.907 40.5078 104.922 40.6797 95.9847 40.6367H92.4183V13.3516H111.969ZM139.254 12.6641C144.561 12.6211 148.6 16.8965 149.567 23.8359H155.196V10H162.028V49.875H155.196V29.3359H149.653C148.922 36.834 144.754 41.4102 139.254 41.4102C133.11 41.4102 128.684 35.8672 128.684 26.9727C128.684 18.207 133.11 12.6211 139.254 12.6641ZM139.254 18.8945C136.891 18.8516 135.258 21.4727 135.301 26.9727C135.258 32.5586 136.891 35.0938 139.254 35.0938C141.66 35.0937 143.207 32.5586 143.207 26.9727C143.207 21.4727 141.66 18.8516 139.254 18.8945ZM208.09 12.1914V15.8008C208.047 19.4961 208.047 23.5137 207.102 28.9922H212V34.4922H197.09V49.7891H190.129V34.4922H175.735V28.9922H200.184C201.043 24.3945 201.194 20.7852 201.215 17.6055H179.645V12.1914H208.09ZM226.653 22.0312C226.653 27.7676 228.092 33.4395 233.742 36.5547V30.2812H230.047V24.6953H233.742V10.5156L240.145 10.5156V48.0703H233.742V36.8555L230.176 41.668C226.91 40.0566 224.783 37.3926 223.473 34.1055C222.119 37.7363 219.971 40.7656 216.641 42.6562L212.731 37.5C218.703 34.0625 220.121 27.875 220.164 22.0312V21.8164H214.492V16.3594H220.164V11.375H226.567V16.3594H232.153V21.8164H226.653V22.0312ZM248.352 10V49.7461H241.864V10H248.352ZM284.145 10V25.6836H288.614V31.3555H284.145V49.7461H277.184V10H284.145ZM251.36 38.1445C254.024 38.1445 257.117 38.1445 260.383 38.1016V35.2656C256.43 34.2988 253.895 31.6133 253.895 28.1328C253.895 23.707 258.02 20.6133 263.907 20.6133C269.664 20.6133 273.875 23.707 273.875 28.1328C273.875 31.6348 271.254 34.3203 267.301 35.2656V37.8437C270.094 37.6934 272.887 37.457 275.508 37.1133L275.981 42.0547C267.645 43.6875 258.707 43.6875 252.176 43.6875L251.36 38.1445ZM275.465 14.168V19.5391H252.133V14.168H260.383V10.3437H267.301V14.168H275.465ZM263.907 25.7695C261.801 25.8125 260.426 26.543 260.469 28.1328C260.426 29.8086 261.801 30.4961 263.907 30.4961C265.926 30.4961 267.258 29.8086 267.258 28.1328C267.258 26.543 265.926 25.8125 263.907 25.7695ZM326.082 27.4023V32.4297H289.817V27.4023H326.082ZM321.871 33.6328V43.6445H300.645V44.9336H322.946V49.4883H293.813V39.3906H315.039V38.2734H293.813V33.6328H321.871ZM321.871 10.4727V20.4844H301.032V21.7734H322.559V26.2852H294.2V16.2305H314.996V15.0273H294.157V10.4727L321.871 10.4727ZM360.028 11.6328V16.9609H352.938C353.604 20.1836 356.032 23.3418 361.66 24.8672L358.481 30.1523C354.098 29.0352 351.133 26.6504 349.371 23.6211C347.588 27.0586 344.537 29.7441 339.789 30.9687L336.438 25.5977C342.389 23.9863 344.881 20.4844 345.547 16.9609H338.242V11.6328H360.028ZM369.223 10V17.3477H374.164V22.8477H369.223V30.3242H362.305V10L369.223 10ZM369.223 31.6562V42.7852H349.071V44.2031H370.168V49.3594H342.239V38.0156H362.348V36.7695H342.239V31.6562H369.223ZM407.164 10V25.082H412.535V30.7109H407.164V49.7461H400.332V10H407.164ZM398.399 15.6719V21.1289H375.239V15.6719H383.446V10.7305H390.321V15.6719H398.399ZM386.883 22.6758C392.77 22.6758 397.282 26.7148 397.282 32.3437C397.282 38.0156 392.77 42.0547 386.883 42.0547C380.867 42.0547 376.442 38.0156 376.442 32.3437C376.442 26.7148 380.867 22.6758 386.883 22.6758ZM386.883 28.2187C384.649 28.2187 383.016 29.6797 383.059 32.3437C383.016 35.1367 384.649 36.4687 386.883 36.4687C389.075 36.4687 390.664 35.1367 390.664 32.3437C390.664 29.6797 389.075 28.2187 386.883 28.2187ZM445.836 20.0977V25.4258H417.735V11.418H424.61V20.0977H445.836ZM449.746 28.9492V34.2773H413.481V28.9492H449.746ZM446.094 43.4727V48.9727H417.262V37.0273H424.223V43.4727H446.094Z" fill="#11DCA9"/>
<path d="M24.7855 12.6641L24.7165 22.6638C24.7626 22.6641 24.8088 22.6641 24.8549 22.6638L24.7855 12.6641ZM14.0003 26.9727L24.0002 27.021C24.0003 26.9885 24.0003 26.9561 24.0002 26.9236L14.0003 26.9727ZM24.7855 18.8945L24.6131 28.893C24.727 28.895 24.841 28.895 24.9549 28.8931L24.7855 18.8945ZM20.7034 26.9727L30.7031 27.0496C30.7035 26.9979 30.7035 26.9462 30.7031 26.8945L20.7034 26.9727ZM28.9534 26.9727L38.9531 27.0496C38.9535 26.9979 38.9535 26.9462 38.9531 26.8945L28.9534 26.9727ZM45.7542 10H55.7542C55.7542 4.47715 51.277 0 45.7542 0V10ZM45.7542 24.4375H35.7542C35.7542 29.9603 40.2314 34.4375 45.7542 34.4375V24.4375ZM51.1253 24.4375H61.1253C61.1253 18.9147 56.6481 14.4375 51.1253 14.4375V24.4375ZM51.1253 30.1523V40.1523C56.6481 40.1523 61.1253 35.6752 61.1253 30.1523H51.1253ZM45.7542 30.1523V20.1523C40.2314 20.1523 35.7542 24.6295 35.7542 30.1523H45.7542ZM45.7542 49.7461V59.7461C51.277 59.7461 55.7542 55.2689 55.7542 49.7461H45.7542ZM38.8362 49.7461H28.8362C28.8362 55.2689 33.3134 59.7461 38.8362 59.7461V49.7461ZM38.8362 10V0C33.3134 0 28.8362 4.47715 28.8362 10H38.8362ZM24.7855 12.6641L24.8549 22.6638C24.868 22.6637 24.8355 22.665 24.7703 22.6499C24.7047 22.6347 24.6342 22.6095 24.5689 22.5766C24.4234 22.5031 24.4335 22.4599 24.5493 22.6106C24.8107 22.9505 25.5276 24.2317 25.5276 26.9727H35.5276H45.5276C45.5276 20.9479 43.9672 15.0534 40.4044 10.4197C36.7057 5.60936 31.1332 2.61974 24.716 2.6643L24.7855 12.6641ZM35.5276 26.9727H25.5276C25.5276 29.8046 24.7976 31.1072 24.5367 31.4479C24.421 31.599 24.4088 31.5588 24.5468 31.4887C24.6942 31.4138 24.8063 31.4102 24.7855 31.4102V41.4102V51.4102C31.1558 51.4102 36.7146 48.4419 40.417 43.6058C43.9804 38.9514 45.5276 33.0353 45.5276 26.9727H35.5276ZM24.7855 41.4102V31.4102C24.7418 31.4102 24.834 31.4084 24.9672 31.4756C25.0924 31.5387 25.0772 31.5734 24.964 31.4265C24.7119 31.0989 23.9866 29.8217 24.0002 27.021L14.0003 26.9727L4.00041 26.9243C3.97097 33.0181 5.52311 38.9597 9.11663 43.6273C12.8448 48.4697 18.4259 51.4102 24.7855 51.4102V41.4102ZM14.0003 26.9727L24.0002 26.9236C23.9869 24.2146 24.6986 22.9589 24.9513 22.632C25.0646 22.4855 25.0778 22.5231 24.9452 22.5896C24.8027 22.661 24.6946 22.6637 24.7165 22.6638L24.7855 12.6641L24.8544 2.6643C18.4483 2.62012 12.8538 5.58142 9.12936 10.3982C5.5364 15.045 3.97073 20.9651 4.00041 27.0217L14.0003 26.9727ZM24.7855 18.8945L24.9578 8.89602C19.3093 8.79863 15.1268 12.1116 12.9732 16.1436C11.1253 19.6031 10.6765 23.5663 10.7037 27.0508L20.7034 26.9727L30.7031 26.8945C30.6961 25.9979 30.761 25.4486 30.81 25.1804C30.8628 24.8914 30.8663 25.0946 30.6143 25.5664C30.3487 26.0636 29.7277 26.9806 28.5255 27.7591C27.2582 28.5797 25.8522 28.9144 24.6131 28.893L24.7855 18.8945ZM20.7034 26.9727L10.7037 26.8957C10.6768 30.3994 11.1186 34.3811 12.9811 37.8541C15.1769 41.9486 19.3351 45.0938 24.7855 45.0938V35.0938V25.0938C25.937 25.0938 27.2809 25.4122 28.5176 26.2113C29.7025 26.977 30.329 27.8844 30.6064 28.4018C30.8664 28.8866 30.8643 29.1007 30.8114 28.8099C30.7621 28.5386 30.696 27.9768 30.7031 27.0496L20.7034 26.9727ZM24.7855 35.0938V45.0938C30.2241 45.0938 34.3857 41.9832 36.6019 37.8816C38.4598 34.4431 38.9266 30.4931 38.9531 27.0496L28.9534 26.9727L18.9537 26.8957C18.9464 27.8483 18.873 28.4335 18.8168 28.7288C18.7567 29.0449 18.751 28.8465 19.0061 28.3742C19.2802 27.867 19.9075 26.9593 21.0982 26.1949C22.3412 25.3971 23.6741 25.0938 24.7855 25.0938V35.0938ZM28.9534 26.9727L38.9531 26.8945C38.9264 23.4723 38.4531 19.5413 36.6099 16.1161C34.4352 12.0751 30.2496 8.80048 24.616 8.89597L24.7855 18.8945L24.9549 28.8931C23.7582 28.9134 22.3643 28.5949 21.0903 27.7755C19.8823 26.9985 19.2604 26.0811 18.9982 25.5939C18.751 25.1346 18.7583 24.9472 18.8184 25.2618C18.8744 25.5544 18.9465 26.1278 18.9537 27.0508L28.9534 26.9727ZM45.7542 10L35.7542 10V24.4375H45.7542H55.7542V10H45.7542ZM45.7542 24.4375V34.4375H51.1253V24.4375V14.4375H45.7542V24.4375ZM51.1253 24.4375H41.1253V30.1523H51.1253H61.1253V24.4375H51.1253ZM51.1253 30.1523V20.1523H45.7542V30.1523V40.1523H51.1253V30.1523ZM45.7542 30.1523H35.7542V49.7461H45.7542H55.7542V30.1523H45.7542ZM45.7542 49.7461V39.7461H38.8362V49.7461V59.7461H45.7542V49.7461ZM38.8362 49.7461H48.8362V10L38.8362 10H28.8362V49.7461H38.8362ZM38.8362 10V20H45.7542V10V0H38.8362V10ZM85.6292 10H95.6292C95.6292 4.47715 91.1521 0 85.6292 0V10ZM85.6292 49.875V59.875C91.1521 59.875 95.6292 55.3978 95.6292 49.875H85.6292ZM78.6683 49.875H68.6683C68.6683 55.3978 73.1454 59.875 78.6683 59.875V49.875ZM78.6683 10V0C73.1454 0 68.6683 4.47715 68.6683 10H78.6683ZM63.8011 12.6641L63.7316 22.6638C63.7784 22.6641 63.8252 22.6641 63.872 22.6638L63.8011 12.6641ZM63.8011 18.8945L63.6316 28.8931C63.7487 28.8951 63.8658 28.895 63.9829 28.8929L63.8011 18.8945ZM85.6292 10H75.6292V49.875H85.6292H95.6292V10H85.6292ZM85.6292 49.875V39.875H78.6683V49.875V59.875H85.6292V49.875ZM78.6683 49.875H88.6683V10H78.6683H68.6683V49.875H78.6683ZM78.6683 10V20H85.6292V10V0L78.6683 0V10ZM63.8011 12.6641L63.872 22.6638C63.8042 22.6643 63.6347 22.6406 63.4593 22.5508C63.2976 22.4681 63.3066 22.4198 63.4273 22.5782C63.6977 22.9327 64.4144 24.2334 64.4144 26.9727H74.4144L84.4144 26.9727C84.4144 20.9463 82.8537 15.0712 79.332 10.4521C75.6847 5.66819 70.1517 2.61877 63.7302 2.66431L63.8011 12.6641ZM74.4144 26.9727H64.4144C64.4144 29.8028 63.6846 31.1249 63.4148 31.4804C63.2943 31.6391 63.2831 31.594 63.4371 31.5147C63.6029 31.4293 63.7558 31.4102 63.8011 31.4102V41.4102V51.4102C70.1746 51.4102 75.6931 48.3834 79.3446 43.5733C82.8667 38.9337 84.4144 33.0371 84.4144 26.9727L74.4144 26.9727ZM63.8011 41.4102V31.4102C63.7796 31.4102 63.8844 31.4135 64.0218 31.483C64.15 31.5479 64.1312 31.5815 64.0119 31.4265C63.7464 31.0816 63.0159 29.7839 63.0159 26.9727H53.0159H43.0159C43.0159 33.056 44.5843 38.977 48.1645 43.6273C51.8773 48.4498 57.4389 51.4102 63.8011 51.4102V41.4102ZM53.0159 26.9727H63.0159C63.0159 24.2526 63.733 22.9762 63.9992 22.632C64.1187 22.4774 64.1354 22.5139 63.9998 22.5822C63.9392 22.6127 63.873 22.6363 63.8108 22.6507C63.7491 22.6649 63.7186 22.6637 63.7316 22.6638L63.8011 12.6641L63.8705 2.6643C57.4614 2.6198 51.8861 5.60151 48.1772 10.3982C44.5977 15.0277 43.0159 20.9271 43.0159 26.9727H53.0159ZM63.8011 18.8945L63.9705 8.89597C58.339 8.80052 54.1407 12.0746 51.9673 16.1436C50.1264 19.59 49.6761 23.5385 49.6761 26.9727H59.6761H69.6761C69.6761 26.0559 69.7442 25.4897 69.7968 25.2055C69.8535 24.8993 69.8594 25.0966 69.6085 25.5664C69.3422 26.0649 68.7159 26.9904 67.5019 27.7722C66.2237 28.5955 64.8271 28.9134 63.6316 28.8931L63.8011 18.8945ZM59.6761 26.9727H49.6761C49.6761 30.4271 50.1198 34.3944 51.9752 37.8541C54.1898 41.9836 58.3648 45.0938 63.8011 45.0938V35.0938V25.0938C64.9112 25.0938 66.2468 25.3965 67.494 26.1982C68.6907 26.9673 69.3224 27.8831 69.6006 28.4018C69.8595 28.8846 69.8551 29.0928 69.7983 28.7849C69.7454 28.4977 69.6761 27.9194 69.6761 26.9727H59.6761ZM63.8011 35.0938V45.0938C69.4003 45.0938 73.4512 41.7294 75.5276 37.7986C77.3267 34.3926 77.7972 30.4806 77.7972 26.9727L67.7972 26.9727H57.7972C57.7972 27.9039 57.7274 28.4806 57.6732 28.7724C57.6153 29.0842 57.606 28.9062 57.8431 28.4572C58.0918 27.9865 58.6875 27.0851 59.8596 26.3005C61.0996 25.4703 62.509 25.0938 63.8011 25.0938V35.0938ZM67.7972 26.9727L77.7972 26.9727C77.7972 23.4853 77.3201 19.5914 75.5353 16.199C73.5047 12.3393 69.4259 8.79061 63.6193 8.89618L63.8011 18.8945L63.9829 28.8929C62.597 28.9181 61.1217 28.5217 59.8516 27.6697C58.6629 26.8723 58.0724 25.9614 57.8354 25.511C57.606 25.075 57.6168 24.9078 57.6747 25.218C57.7286 25.507 57.7972 26.0715 57.7972 26.9727H67.7972ZM123.657 10H133.657C133.657 4.47715 129.179 0 123.657 0V10ZM123.657 49.875V59.875C129.179 59.875 133.657 55.3978 133.657 49.875H123.657ZM116.696 49.875H106.696C106.696 55.3978 111.173 59.875 116.696 59.875V49.875ZM116.696 10V0C111.173 0 106.696 4.47715 106.696 10L116.696 10ZM111.969 13.3516H121.969C121.969 7.82872 117.492 3.35156 111.969 3.35156V13.3516ZM111.969 18.8945V28.8945C117.492 28.8945 121.969 24.4174 121.969 18.8945H111.969ZM99.2933 18.8945V8.89453C93.7704 8.89453 89.2933 13.3717 89.2933 18.8945H99.2933ZM99.2933 34.8789H89.2933C89.2933 37.5367 90.3513 40.0851 92.2336 41.9614C94.116 43.8377 96.6679 44.8875 99.3256 44.8789L99.2933 34.8789ZM114.332 33.8906L124.283 32.8956C124.004 30.1136 122.574 27.5752 120.339 25.8958C118.104 24.2163 115.268 23.5494 112.518 24.0565L114.332 33.8906ZM114.891 39.4766L116.917 49.2692C121.93 48.2319 125.351 43.5757 124.841 38.4815L114.891 39.4766ZM95.9847 40.6367L96.0327 30.6368C96.0167 30.6368 96.0007 30.6367 95.9847 30.6367V40.6367ZM92.4183 40.6367H82.4183C82.4183 46.1596 86.8954 50.6367 92.4183 50.6367V40.6367ZM92.4183 13.3516V3.35156C86.8954 3.35156 82.4183 7.82872 82.4183 13.3516H92.4183ZM123.657 10H113.657V49.875H123.657H133.657V10H123.657ZM123.657 49.875V39.875H116.696V49.875V59.875H123.657V49.875ZM116.696 49.875H126.696V10H116.696L106.696 10V49.875H116.696ZM116.696 10V20H123.657V10V0L116.696 0V10ZM111.969 13.3516H101.969V18.8945H111.969H121.969V13.3516H111.969ZM111.969 18.8945V8.89453L99.2933 8.89453V18.8945V28.8945H111.969V18.8945ZM99.2933 18.8945H89.2933V34.8789H99.2933H109.293V18.8945H99.2933ZM99.2933 34.8789L99.3256 44.8789C106.039 44.8571 110.778 44.715 116.146 43.7247L114.332 33.8906L112.518 24.0565C109.035 24.6991 105.825 24.8577 99.2609 24.879L99.2933 34.8789ZM114.332 33.8906L104.382 34.8857L104.941 40.4716L114.891 39.4766L124.841 38.4815L124.283 32.8956L114.332 33.8906ZM114.891 39.4766L112.865 29.684C109.018 30.4798 104.985 30.6799 96.0327 30.6368L95.9847 40.6367L95.9366 50.6366C104.859 50.6795 110.795 50.5358 116.917 49.2692L114.891 39.4766ZM95.9847 40.6367V30.6367H92.4183V40.6367V50.6367H95.9847V40.6367ZM92.4183 40.6367H102.418V13.3516H92.4183H82.4183V40.6367H92.4183ZM92.4183 13.3516V23.3516H111.969V13.3516V3.35156L92.4183 3.35156V13.3516ZM139.254 12.6641L139.184 22.6638C139.235 22.6642 139.285 22.6641 139.335 22.6637L139.254 12.6641ZM149.567 23.8359L139.662 25.2158C140.351 30.1578 144.577 33.8359 149.567 33.8359V23.8359ZM155.196 23.8359V33.8359C160.718 33.8359 165.196 29.3588 165.196 23.8359H155.196ZM155.196 10V0C149.673 0 145.196 4.47715 145.196 10H155.196ZM162.028 10H172.028C172.028 4.47715 167.55 0 162.028 0V10ZM162.028 49.875V59.875C167.55 59.875 172.028 55.3978 172.028 49.875H162.028ZM155.196 49.875H145.196C145.196 55.3978 149.673 59.875 155.196 59.875V49.875ZM155.196 29.3359H165.196C165.196 23.8131 160.718 19.3359 155.196 19.3359V29.3359ZM149.653 29.3359V19.3359C144.505 19.3359 140.199 23.2433 139.7 28.3663L149.653 29.3359ZM139.254 18.8945L139.072 28.8929C139.193 28.8951 139.313 28.8951 139.433 28.8929L139.254 18.8945ZM135.301 26.9727L145.301 27.0496C145.301 26.9979 145.301 26.9462 145.301 26.8945L135.301 26.9727ZM139.254 12.6641L139.335 22.6637C139.283 22.6642 139.122 22.6489 138.93 22.5641C138.745 22.4823 138.678 22.4013 138.712 22.4381C138.806 22.5391 139.393 23.2826 139.662 25.2158L149.567 23.8359L159.471 22.4561C158.097 12.5942 151.326 2.56599 139.173 2.66439L139.254 12.6641ZM149.567 23.8359V33.8359H155.196V23.8359V13.8359H149.567V23.8359ZM155.196 23.8359H165.196V10H155.196H145.196V23.8359H155.196ZM155.196 10V20H162.028V10V0H155.196V10ZM162.028 10H152.028V49.875H162.028H172.028V10H162.028ZM162.028 49.875V39.875H155.196V49.875V59.875H162.028V49.875ZM155.196 49.875H165.196V29.3359H155.196H145.196V49.875H155.196ZM155.196 29.3359V19.3359H149.653V29.3359V39.3359H155.196V29.3359ZM149.653 29.3359L139.7 28.3663C139.486 30.5593 138.851 31.4454 138.716 31.6005C138.661 31.6632 138.709 31.59 138.883 31.5089C139.065 31.4247 139.215 31.4102 139.254 31.4102V41.4102V51.4102C151.84 51.4102 158.589 40.7357 159.606 30.3056L149.653 29.3359ZM139.254 41.4102V31.4102C139.242 31.4102 139.279 31.4092 139.354 31.4269C139.428 31.4447 139.511 31.4744 139.589 31.5147C139.762 31.6038 139.769 31.666 139.663 31.5241C139.412 31.1902 138.684 29.8661 138.684 26.9727H128.684H118.684C118.684 32.9737 120.169 38.8684 123.667 43.5296C127.321 48.398 132.858 51.4102 139.254 51.4102V41.4102ZM128.684 26.9727H138.684C138.684 24.1696 139.4 22.867 139.65 22.5344C139.757 22.3929 139.747 22.4583 139.566 22.5508C139.484 22.593 139.395 22.625 139.312 22.6445C139.229 22.6639 139.182 22.6638 139.184 22.6638L139.254 12.6641L139.324 2.66431C132.881 2.61925 127.33 5.65315 123.679 10.4958C120.181 15.1369 118.684 21.0101 118.684 26.9727H128.684ZM139.254 18.8945L139.436 8.89618C133.63 8.79063 129.54 12.3395 127.511 16.2269C125.729 19.6402 125.274 23.5516 125.301 27.0508L135.301 26.9727L145.301 26.8945C145.285 24.8937 145.625 24.7445 145.24 25.4831C144.999 25.9446 144.404 26.8637 143.21 27.6662C141.935 28.5223 140.457 28.9181 139.072 28.8929L139.254 18.8945ZM135.301 26.9727L125.301 26.8957C125.274 30.4145 125.722 34.3438 127.518 37.7707C129.593 41.7292 133.656 45.0938 139.254 45.0938V35.0938V25.0937C140.545 25.0937 141.957 25.4698 143.202 26.304C144.38 27.0937 144.98 28.0033 145.232 28.4852C145.473 28.9445 145.465 29.1323 145.41 28.8286C145.359 28.545 145.294 27.9752 145.301 27.0496L135.301 26.9727ZM139.254 35.0938V45.0938C144.871 45.0937 148.947 41.7289 151.019 37.7144C152.777 34.3088 153.207 30.4093 153.207 26.9727H143.207H133.207C133.207 27.9311 133.139 28.5297 133.084 28.8411C133.024 29.175 133.011 28.9983 133.247 28.5415C133.496 28.0586 134.102 27.1219 135.308 26.3112C136.584 25.4534 138.005 25.0937 139.254 25.0937V35.0938ZM143.207 26.9727H153.207C153.207 23.557 152.771 19.6757 151.027 16.2831C148.999 12.3383 144.897 8.79217 139.076 8.89612L139.254 18.8945L139.433 28.8929C138.093 28.9169 136.607 28.5393 135.3 27.659C134.078 26.8354 133.477 25.8892 133.239 25.4268C133.011 24.9829 133.025 24.817 133.085 25.149C133.14 25.4574 133.207 26.044 133.207 26.9727H143.207ZM208.09 12.1914H218.09C218.09 6.66856 213.613 2.19141 208.09 2.19141V12.1914ZM208.09 15.8008L218.089 15.9171C218.09 15.8783 218.09 15.8395 218.09 15.8008H208.09ZM207.102 28.9922L197.247 27.2918C196.746 30.1984 197.553 33.1781 199.453 35.4341C201.353 37.6901 204.152 38.9922 207.102 38.9922V28.9922ZM212 28.9922H222C222 23.4693 217.523 18.9922 212 18.9922V28.9922ZM212 34.4922V44.4922C217.523 44.4922 222 40.015 222 34.4922H212ZM197.09 34.4922V24.4922C191.567 24.4922 187.09 28.9693 187.09 34.4922H197.09ZM197.09 49.7891V59.7891C202.613 59.7891 207.09 55.3119 207.09 49.7891H197.09ZM190.129 49.7891H180.129C180.129 55.3119 184.606 59.7891 190.129 59.7891V49.7891ZM190.129 34.4922H200.129C200.129 28.9693 195.652 24.4922 190.129 24.4922V34.4922ZM175.735 34.4922H165.735C165.735 40.015 170.212 44.4922 175.735 44.4922V34.4922ZM175.735 28.9922V18.9922C170.212 18.9922 165.735 23.4693 165.735 28.9922H175.735ZM200.184 28.9922V38.9922C204.998 38.9922 209.129 35.5618 210.014 30.8295L200.184 28.9922ZM201.215 17.6055L211.215 17.673C211.233 15.0092 210.187 12.4483 208.31 10.5583C206.433 8.66833 203.879 7.60547 201.215 7.60547V17.6055ZM179.645 17.6055H169.645C169.645 23.1283 174.122 27.6055 179.645 27.6055V17.6055ZM179.645 12.1914V2.19141C174.122 2.19141 169.645 6.66856 169.645 12.1914L179.645 12.1914ZM208.09 12.1914H198.09V15.8008L208.09 15.8008H218.09V12.1914H208.09ZM208.09 15.8008L198.091 15.6845C198.048 19.3981 198.042 22.6883 197.247 27.2918L207.102 28.9922L216.956 30.6926C218.053 24.339 218.047 19.5941 218.089 15.9171L208.09 15.8008ZM207.102 28.9922V38.9922H212V28.9922V18.9922H207.102V28.9922ZM212 28.9922H202V34.4922H212H222V28.9922H212ZM212 34.4922V24.4922L197.09 24.4922V34.4922V44.4922H212V34.4922ZM197.09 34.4922H187.09V49.7891H197.09H207.09V34.4922H197.09ZM197.09 49.7891V39.7891H190.129V49.7891V59.7891H197.09V49.7891ZM190.129 49.7891H200.129V34.4922H190.129H180.129V49.7891H190.129ZM190.129 34.4922V24.4922H175.735V34.4922V44.4922H190.129V34.4922ZM175.735 34.4922H185.735V28.9922H175.735H165.735V34.4922H175.735ZM175.735 28.9922V38.9922H200.184V28.9922V18.9922H175.735V28.9922ZM200.184 28.9922L210.014 30.8295C211.02 25.4443 211.191 21.1951 211.215 17.673L201.215 17.6055L191.215 17.5379C191.196 20.3752 191.066 23.3447 190.354 27.1549L200.184 28.9922ZM201.215 17.6055V7.60547H179.645V17.6055V27.6055H201.215V17.6055ZM179.645 17.6055H189.645V12.1914H179.645L169.645 12.1914V17.6055H179.645ZM179.645 12.1914V22.1914L208.09 22.1914V12.1914V2.19141L179.645 2.19141V12.1914ZM233.742 36.5547L228.914 45.3119C232.012 47.0198 235.782 46.964 238.828 45.1652C241.874 43.3663 243.742 40.0921 243.742 36.5547H233.742ZM233.742 30.2812H243.742C243.742 24.7584 239.265 20.2812 233.742 20.2812V30.2812ZM230.047 30.2812H220.047C220.047 35.8041 224.524 40.2812 230.047 40.2812V30.2812ZM230.047 24.6953V14.6953C224.524 14.6953 220.047 19.1725 220.047 24.6953H230.047ZM233.742 24.6953V34.6953C239.265 34.6953 243.742 30.2182 243.742 24.6953H233.742ZM233.742 10.5156V0.515625C228.22 0.515625 223.742 4.99278 223.742 10.5156H233.742ZM240.145 10.5156H250.145C250.145 4.99278 245.668 0.515625 240.145 0.515625V10.5156ZM240.145 48.0703V58.0703C245.668 58.0703 250.145 53.5932 250.145 48.0703H240.145ZM233.742 48.0703H223.742C223.742 53.5932 228.22 58.0703 233.742 58.0703V48.0703ZM233.742 36.8555H243.742C243.742 32.5406 240.975 28.7123 236.878 27.3596C232.78 26.0069 228.277 27.4348 225.708 30.9015L233.742 36.8555ZM230.176 41.668L225.751 50.6357C230.087 52.775 235.332 51.5062 238.21 47.622L230.176 41.668ZM223.473 34.1055L232.762 30.402C231.231 26.5617 227.494 24.0595 223.36 24.1061C219.226 24.1527 215.547 26.7386 214.103 30.6125L223.473 34.1055ZM216.641 42.6562L208.673 48.6987C211.702 52.6926 217.219 53.8272 221.578 51.3525L216.641 42.6562ZM212.731 37.5L207.743 28.833C205.253 30.2657 203.5 32.6996 202.93 35.5146C202.36 38.3296 203.027 41.2539 204.763 43.5424L212.731 37.5ZM220.164 22.0312L230.164 22.1048C230.164 22.0803 230.164 22.0558 230.164 22.0312H220.164ZM220.164 21.8164H230.164C230.164 16.2936 225.687 11.8164 220.164 11.8164V21.8164ZM214.492 21.8164L204.492 21.8164C204.492 27.3393 208.97 31.8164 214.492 31.8164V21.8164ZM214.492 16.3594V6.35937C208.97 6.35937 204.492 10.8365 204.492 16.3594L214.492 16.3594ZM220.164 16.3594V26.3594C225.687 26.3594 230.164 21.8822 230.164 16.3594H220.164ZM220.164 11.375V1.375C214.642 1.375 210.164 5.85215 210.164 11.375H220.164ZM226.567 11.375H236.567C236.567 5.85215 232.09 1.375 226.567 1.375V11.375ZM226.567 16.3594H216.567C216.567 21.8822 221.044 26.3594 226.567 26.3594V16.3594ZM232.153 16.3594H242.153C242.153 10.8365 237.675 6.35937 232.153 6.35937V16.3594ZM232.153 21.8164V31.8164C237.675 31.8164 242.153 27.3393 242.153 21.8164H232.153ZM226.653 21.8164V11.8164C221.13 11.8164 216.653 16.2936 216.653 21.8164H226.653ZM248.352 10H258.352C258.352 4.47715 253.875 0 248.352 0V10ZM248.352 49.7461V59.7461C253.875 59.7461 258.352 55.2689 258.352 49.7461H248.352ZM241.864 49.7461H231.864C231.864 55.2689 236.341 59.7461 241.864 59.7461V49.7461ZM241.864 10V0C236.341 0 231.864 4.47715 231.864 10L241.864 10ZM226.653 22.0312H216.653C216.653 29.1098 218.469 39.5532 228.914 45.3119L233.742 36.5547L238.571 27.7975C237.87 27.4114 237.557 27.0148 237.291 26.3852C236.936 25.5461 236.653 24.1645 236.653 22.0312H226.653ZM233.742 36.5547H243.742V30.2812H233.742H223.742V36.5547H233.742ZM233.742 30.2812V20.2812H230.047V30.2812V40.2812H233.742V30.2812ZM230.047 30.2812H240.047V24.6953H230.047H220.047V30.2812H230.047ZM230.047 24.6953V34.6953H233.742V24.6953V14.6953H230.047V24.6953ZM233.742 24.6953H243.742V10.5156L233.742 10.5156H223.742V24.6953H233.742ZM233.742 10.5156V20.5156H240.145V10.5156V0.515625H233.742V10.5156ZM240.145 10.5156L230.145 10.5156V48.0703H240.145H250.145V10.5156H240.145ZM240.145 48.0703V38.0703H233.742V48.0703V58.0703H240.145V48.0703ZM233.742 48.0703H243.742V36.8555H233.742H223.742V48.0703H233.742ZM233.742 36.8555L225.708 30.9015L222.142 35.714L230.176 41.668L238.21 47.622L241.777 42.8095L233.742 36.8555ZM230.176 41.668L234.601 32.7002C233.964 32.3857 233.343 31.8596 232.762 30.402L223.473 34.1055L214.184 37.8089C216.224 42.9256 219.857 47.7276 225.751 50.6357L230.176 41.668ZM223.473 34.1055L214.103 30.6125C213.328 32.6921 212.459 33.531 211.704 33.96L216.641 42.6562L221.578 51.3525C227.483 48.0002 230.911 42.7806 232.843 37.5985L223.473 34.1055ZM216.641 42.6562L224.609 36.6138L220.699 31.4576L212.731 37.5L204.763 43.5424L208.673 48.6987L216.641 42.6562ZM212.731 37.5L217.719 46.167C228.401 40.0194 230.113 29.0938 230.164 22.1048L220.164 22.0312L210.165 21.9577C210.148 24.1968 209.858 25.8002 209.415 26.8845C209.051 27.7736 208.591 28.3449 207.743 28.833L212.731 37.5ZM220.164 22.0312H230.164V21.8164H220.164H210.164V22.0312H220.164ZM220.164 21.8164V11.8164H214.492V21.8164V31.8164H220.164V21.8164ZM214.492 21.8164H224.492V16.3594H214.492L204.492 16.3594V21.8164L214.492 21.8164ZM214.492 16.3594V26.3594H220.164V16.3594V6.35937H214.492V16.3594ZM220.164 16.3594H230.164V11.375H220.164H210.164V16.3594H220.164ZM220.164 11.375V21.375H226.567V11.375V1.375L220.164 1.375V11.375ZM226.567 11.375H216.567V16.3594H226.567H236.567V11.375H226.567ZM226.567 16.3594V26.3594H232.153V16.3594V6.35937H226.567V16.3594ZM232.153 16.3594H222.153V21.8164H232.153H242.153V16.3594H232.153ZM232.153 21.8164V11.8164H226.653V21.8164V31.8164H232.153V21.8164ZM226.653 21.8164H216.653V22.0312H226.653H236.653V21.8164H226.653ZM248.352 10H238.352V49.7461H248.352H258.352V10H248.352ZM248.352 49.7461V39.7461H241.864V49.7461V59.7461H248.352V49.7461ZM241.864 49.7461H251.864V10H241.864L231.864 10V49.7461H241.864ZM241.864 10V20H248.352V10V0L241.864 0V10ZM284.145 10H294.145C294.145 4.47715 289.668 0 284.145 0V10ZM284.145 25.6836H274.145C274.145 31.2064 278.622 35.6836 284.145 35.6836V25.6836ZM288.614 25.6836H298.614C298.614 20.1607 294.136 15.6836 288.614 15.6836V25.6836ZM288.614 31.3555V41.3555C294.136 41.3555 298.614 36.8783 298.614 31.3555H288.614ZM284.145 31.3555V21.3555C278.622 21.3555 274.145 25.8326 274.145 31.3555H284.145ZM284.145 49.7461V59.7461C289.668 59.7461 294.145 55.2689 294.145 49.7461H284.145ZM277.184 49.7461H267.184C267.184 55.2689 271.661 59.7461 277.184 59.7461V49.7461ZM277.184 10V0C271.661 0 267.184 4.47715 267.184 10H277.184ZM251.36 38.1445V28.1445C248.453 28.1445 245.691 29.4091 243.791 31.6089C241.891 33.8088 241.043 36.7262 241.466 39.6017L251.36 38.1445ZM260.383 38.1016L260.515 48.1007C265.986 48.0287 270.383 43.5731 270.383 38.1016H260.383ZM260.383 35.2656H270.383C270.383 30.6578 267.235 26.6465 262.759 25.5519L260.383 35.2656ZM267.301 35.2656L264.975 25.5398C260.475 26.6159 257.301 30.6387 257.301 35.2656H267.301ZM267.301 37.8437H257.301C257.301 40.5892 258.43 43.214 260.423 45.1024C262.416 46.9909 265.097 47.9769 267.839 47.8293L267.301 37.8437ZM275.508 37.1133L285.463 36.1611C285.204 33.4605 283.86 30.9807 281.738 29.2907C279.615 27.6007 276.898 26.8454 274.208 27.1982L275.508 37.1133ZM275.981 42.0547L277.903 51.8682C282.951 50.8795 286.425 46.2228 285.935 41.1025L275.981 42.0547ZM252.176 43.6875L242.283 45.1446C243.006 50.0517 247.216 53.6875 252.176 53.6875V43.6875ZM275.465 14.168H285.465C285.465 8.64512 280.988 4.16797 275.465 4.16797V14.168ZM275.465 19.5391V29.5391C280.988 29.5391 285.465 25.0619 285.465 19.5391H275.465ZM252.133 19.5391H242.133C242.133 25.0619 246.61 29.5391 252.133 29.5391V19.5391ZM252.133 14.168V4.16797C246.61 4.16797 242.133 8.64512 242.133 14.168H252.133ZM260.383 14.168V24.168C265.906 24.168 270.383 19.6908 270.383 14.168H260.383ZM260.383 10.3437V0.34375C254.86 0.34375 250.383 4.8209 250.383 10.3437H260.383ZM267.301 10.3437H277.301C277.301 4.8209 272.824 0.34375 267.301 0.34375V10.3437ZM267.301 14.168H257.301C257.301 19.6908 261.778 24.168 267.301 24.168V14.168ZM263.907 25.7695L264.119 15.7718C263.98 15.7688 263.841 15.7688 263.703 15.7716L263.907 25.7695ZM260.469 28.1328L270.466 28.3891C270.47 28.2137 270.47 28.0381 270.465 27.8626L260.469 28.1328ZM284.145 10H274.145V25.6836H284.145H294.145V10H284.145ZM284.145 25.6836V35.6836H288.614V25.6836V15.6836H284.145V25.6836ZM288.614 25.6836H278.614V31.3555H288.614H298.614V25.6836H288.614ZM288.614 31.3555V21.3555H284.145V31.3555V41.3555H288.614V31.3555ZM284.145 31.3555H274.145V49.7461H284.145H294.145V31.3555H284.145ZM284.145 49.7461V39.7461H277.184V49.7461V59.7461H284.145V49.7461ZM277.184 49.7461H287.184V10H277.184H267.184V49.7461H277.184ZM277.184 10V20H284.145V10V0H277.184V10ZM251.36 38.1445V48.1445C254.018 48.1445 257.174 48.1447 260.515 48.1007L260.383 38.1016L260.252 28.1024C257.061 28.1444 254.03 28.1445 251.36 28.1445V38.1445ZM260.383 38.1016H270.383V35.2656H260.383H250.383V38.1016H260.383ZM260.383 35.2656L262.759 25.5519C262.34 25.4496 262.582 25.3997 263.019 25.8751C263.243 26.1182 263.477 26.4615 263.651 26.8985C263.825 27.3397 263.895 27.7705 263.895 28.1328H253.895H243.895C243.895 37.4726 250.921 43.2462 258.007 44.9793L260.383 35.2656ZM253.895 28.1328H263.895C263.895 28.6213 263.771 29.1952 263.487 29.7367C263.212 30.2601 262.887 30.5681 262.697 30.7105C262.365 30.9595 262.619 30.6133 263.907 30.6133V20.6133V10.6133C259.307 10.6133 254.555 11.8139 250.689 14.7163C246.647 17.7513 243.895 22.4853 243.895 28.1328H253.895ZM263.907 20.6133V30.6133C265.088 30.6133 265.352 30.9393 265.058 30.7192C264.887 30.5914 264.57 30.2982 264.296 29.7825C264.011 29.2453 263.875 28.6568 263.875 28.1328H273.875H283.875C283.875 15.6915 272.31 10.6133 263.907 10.6133V20.6133ZM273.875 28.1328H263.875C263.875 27.7401 263.953 27.2881 264.136 26.8369C264.316 26.3919 264.555 26.0533 264.772 25.8223C265.189 25.3764 265.4 25.4384 264.975 25.5398L267.301 35.2656L269.627 44.9914C276.609 43.3217 283.875 37.62 283.875 28.1328H273.875ZM267.301 35.2656H257.301V37.8437H267.301H277.301V35.2656H267.301ZM267.301 37.8437L267.839 47.8293C270.824 47.6685 273.879 47.4126 276.808 47.0284L275.508 37.1133L274.208 27.1982C271.895 27.5015 269.364 27.7182 266.763 27.8582L267.301 37.8437ZM275.508 37.1133L265.554 38.0655L266.026 43.0069L275.981 42.0547L285.935 41.1025L285.463 36.1611L275.508 37.1133ZM275.981 42.0547L274.059 32.2412C266.823 33.6584 258.842 33.6875 252.176 33.6875V43.6875V53.6875C258.573 53.6875 268.467 53.7166 277.903 51.8682L275.981 42.0547ZM252.176 43.6875L262.069 42.2304L261.253 36.6874L251.36 38.1445L241.466 39.6017L242.283 45.1446L252.176 43.6875ZM275.465 14.168H265.465V19.5391H275.465H285.465V14.168H275.465ZM275.465 19.5391V9.53906H252.133V19.5391V29.5391H275.465V19.5391ZM252.133 19.5391H262.133V14.168H252.133H242.133V19.5391H252.133ZM252.133 14.168V24.168H260.383V14.168V4.16797L252.133 4.16797V14.168ZM260.383 14.168H270.383V10.3437H260.383H250.383V14.168H260.383ZM260.383 10.3437V20.3437H267.301V10.3437V0.34375L260.383 0.34375V10.3437ZM267.301 10.3437H257.301V14.168H267.301H277.301V10.3437H267.301ZM267.301 14.168V24.168H275.465V14.168V4.16797H267.301V14.168ZM263.907 25.7695L263.703 15.7716C261.82 15.81 258.808 16.1377 255.975 17.9593C252.466 20.2149 250.356 24.0681 250.473 28.403L260.469 28.1328L270.465 27.8626C270.495 28.9664 270.277 30.3728 269.52 31.7963C268.765 33.2146 267.724 34.1824 266.79 34.7829C265.905 35.3513 265.146 35.5784 264.755 35.6699C264.352 35.7645 264.114 35.7674 264.111 35.7674L263.907 25.7695ZM260.469 28.1328L250.472 27.8765C250.365 32.0542 252.311 36.0326 256.028 38.3888C258.97 40.2539 262.081 40.4961 263.907 40.4961V30.4961V20.4961C263.912 20.4961 263.97 20.4962 264.072 20.5056C264.173 20.515 264.342 20.5356 264.564 20.5831C264.976 20.671 265.791 20.8976 266.736 21.497C267.745 22.1366 268.815 23.1527 269.568 24.6024C270.311 26.0342 270.491 27.4002 270.466 28.3891L260.469 28.1328ZM263.907 30.4961V40.4961C265.758 40.4961 268.865 40.2325 271.798 38.322C275.419 35.9629 277.258 32.1023 277.258 28.1328H267.258H257.258C257.258 27.2082 257.449 25.9323 258.151 24.5868C258.864 23.2177 259.877 22.2182 260.882 21.5637C261.827 20.9479 262.66 20.7011 263.118 20.5995C263.583 20.4964 263.872 20.4961 263.907 20.4961V30.4961ZM267.258 28.1328H277.258C277.258 24.0207 275.274 20.2877 271.851 18.0271C269.031 16.1644 266.028 15.8124 264.119 15.7718L263.907 25.7695L263.694 35.7673C263.644 35.7662 263.364 35.7582 262.921 35.6505C262.486 35.5448 261.711 35.2982 260.828 34.7151C259.898 34.1008 258.914 33.1505 258.199 31.8121C257.485 30.4766 257.258 29.1651 257.258 28.1328H267.258ZM326.082 27.4023L336.082 27.4023C336.082 21.8795 331.605 17.4023 326.082 17.4023V27.4023ZM326.082 32.4297V42.4297C331.605 42.4297 336.082 37.9525 336.082 32.4297H326.082ZM289.817 32.4297H279.817C279.817 37.9525 284.294 42.4297 289.817 42.4297V32.4297ZM289.817 27.4023V17.4023C284.294 17.4023 279.817 21.8795 279.817 27.4023H289.817ZM321.871 33.6328H331.871C331.871 28.11 327.394 23.6328 321.871 23.6328V33.6328ZM321.871 43.6445V53.6445C327.394 53.6445 331.871 49.1674 331.871 43.6445H321.871ZM300.645 43.6445V33.6445C295.122 33.6445 290.645 38.1217 290.645 43.6445H300.645ZM300.645 44.9336H290.645C290.645 50.4564 295.122 54.9336 300.645 54.9336V44.9336ZM322.946 44.9336H332.946C332.946 39.4107 328.468 34.9336 322.946 34.9336V44.9336ZM322.946 49.4883V59.4883C328.468 59.4883 332.946 55.0111 332.946 49.4883H322.946ZM293.813 49.4883H283.813C283.813 55.0111 288.29 59.4883 293.813 59.4883V49.4883ZM293.813 39.3906V29.3906C288.29 29.3906 283.813 33.8678 283.813 39.3906H293.813ZM315.039 39.3906V49.3906C320.562 49.3906 325.039 44.9135 325.039 39.3906H315.039ZM315.039 38.2734H325.039C325.039 32.7506 320.562 28.2734 315.039 28.2734V38.2734ZM293.813 38.2734H283.813C283.813 43.7963 288.29 48.2734 293.813 48.2734V38.2734ZM293.813 33.6328V23.6328C288.29 23.6328 283.813 28.11 283.813 33.6328H293.813ZM321.871 10.4727H331.871C331.871 4.94981 327.394 0.472656 321.871 0.472656V10.4727ZM321.871 20.4844V30.4844C327.394 30.4844 331.871 26.0072 331.871 20.4844H321.871ZM301.032 20.4844V10.4844C295.509 10.4844 291.032 14.9615 291.032 20.4844H301.032ZM301.032 21.7734H291.032C291.032 27.2963 295.509 31.7734 301.032 31.7734V21.7734ZM322.559 21.7734H332.559C332.559 16.2506 328.082 11.7734 322.559 11.7734V21.7734ZM322.559 26.2852V36.2852C328.082 36.2852 332.559 31.808 332.559 26.2852H322.559ZM294.2 26.2852H284.2C284.2 31.808 288.677 36.2852 294.2 36.2852V26.2852ZM294.2 16.2305V6.23047C288.677 6.23047 284.2 10.7076 284.2 16.2305H294.2ZM314.996 16.2305V26.2305C320.519 26.2305 324.996 21.7533 324.996 16.2305H314.996ZM314.996 15.0273H324.996C324.996 9.5045 320.519 5.02734 314.996 5.02734V15.0273ZM294.157 15.0273H284.157C284.157 20.5502 288.634 25.0273 294.157 25.0273V15.0273ZM294.157 10.4727V0.472656C288.634 0.472656 284.157 4.94981 284.157 10.4727H294.157ZM326.082 27.4023H316.082V32.4297H326.082H336.082V27.4023L326.082 27.4023ZM326.082 32.4297V22.4297H289.817V32.4297V42.4297H326.082V32.4297ZM289.817 32.4297H299.817V27.4023H289.817H279.817V32.4297H289.817ZM289.817 27.4023V37.4023H326.082V27.4023V17.4023H289.817V27.4023ZM321.871 33.6328H311.871V43.6445H321.871H331.871V33.6328H321.871ZM321.871 43.6445V33.6445H300.645V43.6445V53.6445H321.871V43.6445ZM300.645 43.6445H290.645V44.9336H300.645H310.645V43.6445H300.645ZM300.645 44.9336V54.9336H322.946V44.9336V34.9336H300.645V44.9336ZM322.946 44.9336H312.946V49.4883H322.946H332.946V44.9336H322.946ZM322.946 49.4883V39.4883H293.813V49.4883V59.4883H322.946V49.4883ZM293.813 49.4883H303.813V39.3906H293.813H283.813V49.4883H293.813ZM293.813 39.3906V49.3906H315.039V39.3906V29.3906H293.813V39.3906ZM315.039 39.3906H325.039V38.2734H315.039H305.039V39.3906H315.039ZM315.039 38.2734V28.2734H293.813V38.2734V48.2734H315.039V38.2734ZM293.813 38.2734H303.813V33.6328H293.813H283.813V38.2734H293.813ZM293.813 33.6328V43.6328H321.871V33.6328V23.6328H293.813V33.6328ZM321.871 10.4727H311.871V20.4844H321.871H331.871V10.4727H321.871ZM321.871 20.4844V10.4844L301.032 10.4844V20.4844V30.4844H321.871V20.4844ZM301.032 20.4844H291.032V21.7734H301.032H311.032V20.4844H301.032ZM301.032 21.7734V31.7734H322.559V21.7734V11.7734L301.032 11.7734V21.7734ZM322.559 21.7734H312.559V26.2852H322.559H332.559V21.7734H322.559ZM322.559 26.2852V16.2852H294.2V26.2852V36.2852H322.559V26.2852ZM294.2 26.2852H304.2V16.2305H294.2H284.2V26.2852H294.2ZM294.2 16.2305V26.2305H314.996V16.2305V6.23047L294.2 6.23047V16.2305ZM314.996 16.2305H324.996V15.0273H314.996H304.996V16.2305H314.996ZM314.996 15.0273V5.02734L294.157 5.02734V15.0273V25.0273H314.996V15.0273ZM294.157 15.0273H304.157V10.4727L294.157 10.4727H284.157V15.0273H294.157ZM294.157 10.4727V20.4727H321.871V10.4727V0.472656L294.157 0.472656V10.4727ZM360.028 11.6328L370.028 11.6328C370.028 6.10997 365.55 1.63281 360.028 1.63281V11.6328ZM360.028 16.9609V26.9609C365.55 26.9609 370.028 22.4838 370.028 16.9609H360.028ZM352.938 16.9609V6.96094C349.931 6.96094 347.083 8.31419 345.184 10.6458C343.285 12.9775 342.536 16.0399 343.145 18.9848L352.938 16.9609ZM361.66 24.8672L370.229 30.0224C371.846 27.3356 372.108 24.0461 370.939 21.1369C369.769 18.2276 367.302 16.0354 364.276 15.2153L361.66 24.8672ZM358.481 30.1523L356.011 39.8425C360.288 40.9328 364.774 39.0898 367.05 35.3075L358.481 30.1523ZM349.371 23.6211L358.016 18.5938C356.182 15.4406 352.777 13.5361 349.13 13.624C345.484 13.7119 342.174 15.7784 340.495 19.0163L349.371 23.6211ZM339.789 30.9687L331.306 36.2626C333.616 39.9652 338.061 41.7418 342.287 40.6519L339.789 30.9687ZM336.438 25.5977L333.824 15.9452C330.77 16.7723 328.287 18.9964 327.13 21.9419C325.973 24.8875 326.279 28.2068 327.954 30.8915L336.438 25.5977ZM345.547 16.9609L355.373 18.8183C355.926 15.8927 355.147 12.8728 353.247 10.5802C351.347 8.28769 348.525 6.96094 345.547 6.96094V16.9609ZM338.242 16.9609L328.242 16.9609C328.242 22.4838 332.72 26.9609 338.242 26.9609V16.9609ZM338.242 11.6328V1.63281C332.72 1.63281 328.242 6.10997 328.242 11.6328H338.242ZM369.223 10H379.223C379.223 4.47715 374.746 0 369.223 0V10ZM369.223 17.3477H359.223C359.223 22.8705 363.7 27.3477 369.223 27.3477V17.3477ZM374.164 17.3477H384.164C384.164 11.8248 379.687 7.34766 374.164 7.34766V17.3477ZM374.164 22.8477V32.8477C379.687 32.8477 384.164 28.3705 384.164 22.8477H374.164ZM369.223 22.8477V12.8477C363.7 12.8477 359.223 17.3248 359.223 22.8477H369.223ZM369.223 30.3242V40.3242C374.746 40.3242 379.223 35.8471 379.223 30.3242H369.223ZM362.305 30.3242H352.305C352.305 35.8471 356.782 40.3242 362.305 40.3242V30.3242ZM362.305 10V0C356.782 0 352.305 4.47715 352.305 10H362.305ZM369.223 31.6562H379.223C379.223 26.1334 374.746 21.6562 369.223 21.6562V31.6562ZM369.223 42.7852V52.7852C374.746 52.7852 379.223 48.308 379.223 42.7852H369.223ZM349.071 42.7852V32.7852C343.548 32.7852 339.071 37.2623 339.071 42.7852H349.071ZM349.071 44.2031H339.071C339.071 49.726 343.548 54.2031 349.071 54.2031V44.2031ZM370.168 44.2031H380.168C380.168 38.6803 375.691 34.2031 370.168 34.2031V44.2031ZM370.168 49.3594V59.3594C375.691 59.3594 380.168 54.8822 380.168 49.3594H370.168ZM342.239 49.3594H332.239C332.239 54.8822 336.716 59.3594 342.239 59.3594V49.3594ZM342.239 38.0156V28.0156C336.716 28.0156 332.239 32.4928 332.239 38.0156H342.239ZM362.348 38.0156V48.0156C367.871 48.0156 372.348 43.5385 372.348 38.0156H362.348ZM362.348 36.7695H372.348C372.348 31.2467 367.871 26.7695 362.348 26.7695V36.7695ZM342.239 36.7695H332.239C332.239 42.2924 336.716 46.7695 342.239 46.7695V36.7695ZM342.239 31.6562V21.6562C336.716 21.6562 332.239 26.1334 332.239 31.6562H342.239ZM360.028 11.6328H350.028V16.9609H360.028H370.028V11.6328L360.028 11.6328ZM360.028 16.9609V6.96094H352.938V16.9609V26.9609H360.028V16.9609ZM352.938 16.9609L343.145 18.9848C344.679 26.4107 350.309 32.1517 359.045 34.5191L361.66 24.8672L364.276 15.2153C362.797 14.8145 362.419 14.3904 362.482 14.4522C362.503 14.4732 362.566 14.5449 362.628 14.6632C362.688 14.7766 362.718 14.8759 362.731 14.937L352.938 16.9609ZM361.66 24.8672L353.092 19.712L349.912 24.9971L358.481 30.1523L367.05 35.3075L370.229 30.0224L361.66 24.8672ZM358.481 30.1523L360.951 20.4622C359.902 20.1949 359.266 19.8419 358.883 19.5593C358.505 19.2799 358.232 18.9648 358.016 18.5938L349.371 23.6211L340.727 28.6484C343.915 34.1302 349.18 38.1014 356.011 39.8425L358.481 30.1523ZM349.371 23.6211L340.495 19.0163C340.199 19.5866 339.862 19.9848 339.473 20.294C339.084 20.603 338.429 20.9923 337.292 21.2856L339.789 30.9687L342.287 40.6519C349.77 38.7218 355.149 34.2003 358.248 28.2259L349.371 23.6211ZM339.789 30.9687L348.273 25.6749L344.922 20.3038L336.438 25.5977L327.954 30.8915L331.306 36.2626L339.789 30.9687ZM336.438 25.5977L339.051 35.2501C348.453 32.7046 353.949 26.3544 355.373 18.8183L345.547 16.9609L335.721 15.1036C335.71 15.1614 335.703 15.1643 335.718 15.1336C335.736 15.0964 335.755 15.0768 335.745 15.087C335.735 15.0981 335.635 15.2018 335.364 15.3548C335.086 15.5115 334.601 15.735 333.824 15.9452L336.438 25.5977ZM345.547 16.9609V6.96094H338.242V16.9609V26.9609H345.547V16.9609ZM338.242 16.9609H348.242V11.6328H338.242H328.242V16.9609L338.242 16.9609ZM338.242 11.6328V21.6328H360.028V11.6328V1.63281L338.242 1.63281V11.6328ZM369.223 10L359.223 10V17.3477H369.223H379.223V10H369.223ZM369.223 17.3477V27.3477H374.164V17.3477V7.34766H369.223V17.3477ZM374.164 17.3477H364.164V22.8477H374.164H384.164V17.3477H374.164ZM374.164 22.8477V12.8477H369.223V22.8477V32.8477H374.164V22.8477ZM369.223 22.8477H359.223V30.3242H369.223H379.223V22.8477H369.223ZM369.223 30.3242V20.3242H362.305V30.3242V40.3242H369.223V30.3242ZM362.305 30.3242H372.305V10L362.305 10H352.305V30.3242H362.305ZM362.305 10V20H369.223V10V0H362.305V10ZM369.223 31.6562H359.223V42.7852H369.223H379.223V31.6562H369.223ZM369.223 42.7852V32.7852H349.071V42.7852V52.7852H369.223V42.7852ZM349.071 42.7852H339.071V44.2031H349.071H359.071V42.7852H349.071ZM349.071 44.2031V54.2031H370.168V44.2031V34.2031H349.071V44.2031ZM370.168 44.2031H360.168V49.3594H370.168H380.168V44.2031H370.168ZM370.168 49.3594V39.3594H342.239V49.3594V59.3594H370.168V49.3594ZM342.239 49.3594H352.239V38.0156H342.239H332.239V49.3594H342.239ZM342.239 38.0156V48.0156H362.348V38.0156V28.0156H342.239V38.0156ZM362.348 38.0156H372.348V36.7695H362.348H352.348V38.0156H362.348ZM362.348 36.7695V26.7695H342.239V36.7695V46.7695H362.348V36.7695ZM342.239 36.7695H352.239V31.6562H342.239H332.239V36.7695H342.239ZM342.239 31.6562V41.6562H369.223V31.6562V21.6562H342.239V31.6562ZM407.164 10H417.164C417.164 4.47715 412.687 0 407.164 0V10ZM407.164 25.082H397.164C397.164 30.6049 401.641 35.082 407.164 35.082V25.082ZM412.535 25.082H422.535C422.535 19.5592 418.058 15.082 412.535 15.082V25.082ZM412.535 30.7109V40.7109C418.058 40.7109 422.535 36.2338 422.535 30.7109H412.535ZM407.164 30.7109V20.7109C401.641 20.7109 397.164 25.1881 397.164 30.7109H407.164ZM407.164 49.7461V59.7461C412.687 59.7461 417.164 55.2689 417.164 49.7461H407.164ZM400.332 49.7461L390.332 49.7461C390.332 55.2689 394.809 59.7461 400.332 59.7461V49.7461ZM400.332 10V0C394.809 0 390.332 4.47715 390.332 10H400.332ZM398.399 15.6719H408.399C408.399 10.149 403.922 5.67187 398.399 5.67187V15.6719ZM398.399 21.1289V31.1289C403.922 31.1289 408.399 26.6518 408.399 21.1289H398.399ZM375.239 21.1289H365.239C365.239 26.6518 369.716 31.1289 375.239 31.1289V21.1289ZM375.239 15.6719V5.67187C369.716 5.67187 365.239 10.149 365.239 15.6719H375.239ZM383.446 15.6719V25.6719C388.968 25.6719 393.446 21.1947 393.446 15.6719H383.446ZM383.446 10.7305V0.730469C377.923 0.730469 373.446 5.20762 373.446 10.7305H383.446ZM390.321 10.7305H400.321C400.321 5.20762 395.843 0.730469 390.321 0.730469V10.7305ZM390.321 15.6719H380.321C380.321 21.1947 384.798 25.6719 390.321 25.6719V15.6719ZM383.059 32.3437L393.058 32.4976C393.059 32.3926 393.059 32.2875 393.058 32.1825L383.059 32.3437ZM407.164 10H397.164V25.082H407.164H417.164V10H407.164ZM407.164 25.082V35.082H412.535V25.082V15.082H407.164V25.082ZM412.535 25.082H402.535V30.7109H412.535H422.535V25.082H412.535ZM412.535 30.7109V20.7109H407.164V30.7109V40.7109H412.535V30.7109ZM407.164 30.7109H397.164V49.7461H407.164H417.164V30.7109H407.164ZM407.164 49.7461V39.7461H400.332V49.7461V59.7461H407.164V49.7461ZM400.332 49.7461H410.332V10H400.332H390.332V49.7461L400.332 49.7461ZM400.332 10V20H407.164V10V0L400.332 0V10ZM398.399 15.6719H388.399V21.1289H398.399H408.399V15.6719H398.399ZM398.399 21.1289V11.1289H375.239V21.1289V31.1289L398.399 31.1289V21.1289ZM375.239 21.1289H385.239V15.6719H375.239H365.239V21.1289H375.239ZM375.239 15.6719V25.6719H383.446V15.6719V5.67187H375.239V15.6719ZM383.446 15.6719H393.446V10.7305H383.446H373.446V15.6719H383.446ZM383.446 10.7305V20.7305H390.321V10.7305V0.730469H383.446V10.7305ZM390.321 10.7305H380.321V15.6719H390.321H400.321V10.7305H390.321ZM390.321 15.6719V25.6719H398.399V15.6719V5.67187H390.321V15.6719ZM386.883 22.6758V32.6758C387.209 32.6758 387.408 32.7311 387.496 32.7641C387.585 32.7974 387.579 32.8128 387.522 32.7608C387.462 32.7055 387.386 32.6106 387.332 32.4862C387.275 32.3569 387.282 32.29 387.282 32.3437L397.282 32.3437H407.282C407.282 20.4166 397.484 12.6758 386.883 12.6758V22.6758ZM397.282 32.3437L387.282 32.3437C387.282 32.4188 387.27 32.3657 387.324 32.2435C387.376 32.1256 387.449 32.0317 387.511 31.9749C387.569 31.9214 387.578 31.9351 387.492 31.9673C387.406 31.9994 387.209 32.0547 386.883 32.0547V42.0547V52.0547C397.515 52.0547 407.282 44.2857 407.282 32.3437H397.282ZM386.883 42.0547V32.0547C386.5 32.0547 386.278 31.9911 386.189 31.9582C386.101 31.9257 386.123 31.9166 386.196 31.9846C386.274 32.056 386.353 32.1625 386.405 32.2831C386.458 32.4057 386.442 32.4461 386.442 32.3437H376.442H366.442C366.442 44.2597 376.095 52.0547 386.883 52.0547V42.0547ZM376.442 32.3437H386.442C386.442 32.2625 386.454 32.3167 386.398 32.4465C386.342 32.5737 386.261 32.6813 386.185 32.751C386.113 32.8175 386.094 32.8068 386.184 32.7732C386.276 32.7394 386.5 32.6758 386.883 32.6758V22.6758V12.6758C376.125 12.6758 366.442 20.4426 366.442 32.3437H376.442ZM386.883 28.2187V18.2187C383.569 18.2187 379.848 19.3418 376.964 22.2942C374.06 25.2668 373.005 29.0654 373.06 32.505L383.059 32.3437L393.058 32.1825C393.07 32.958 392.81 34.6941 391.27 36.2703C389.75 37.8262 387.962 38.2187 386.883 38.2187V28.2187ZM383.059 32.3437L373.06 32.1899C373.008 35.5736 373.996 39.4751 377.046 42.5247C380.048 45.5265 383.816 46.4687 386.883 46.4687V36.4687V26.4687C387.716 26.4687 389.55 26.745 391.188 28.3825C392.873 30.0678 393.067 31.9069 393.058 32.4976L383.059 32.3437ZM386.883 36.4687V46.4687C389.997 46.4687 393.753 45.4854 396.722 42.4683C399.695 39.448 400.664 35.6263 400.664 32.3437L390.664 32.3437H380.664C380.664 31.8542 380.839 30.095 382.469 28.4389C384.095 26.7861 385.961 26.4687 386.883 26.4687V36.4687ZM390.664 32.3437L400.664 32.3437C400.664 29.0131 399.635 25.2955 396.804 22.3511C393.955 19.3886 390.247 18.2187 386.883 18.2187V28.2187V38.2187C385.711 38.2187 383.893 37.7793 382.387 36.2133C380.899 34.6654 380.664 33.0104 380.664 32.3437H390.664ZM445.836 20.0977H455.836C455.836 14.5748 451.359 10.0977 445.836 10.0977V20.0977ZM445.836 25.4258V35.4258C451.359 35.4258 455.836 30.9486 455.836 25.4258H445.836ZM417.735 25.4258H407.735C407.735 30.9486 412.212 35.4258 417.735 35.4258V25.4258ZM417.735 11.418V1.41797C412.212 1.41797 407.735 5.89512 407.735 11.418H417.735ZM424.61 11.418L434.61 11.418C434.61 5.89512 430.133 1.41797 424.61 1.41797V11.418ZM424.61 20.0977H414.61C414.61 25.6205 419.087 30.0977 424.61 30.0977V20.0977ZM449.746 28.9492H459.746C459.746 23.4264 455.269 18.9492 449.746 18.9492V28.9492ZM449.746 34.2773V44.2773C455.269 44.2773 459.746 39.8002 459.746 34.2773H449.746ZM413.481 34.2773H403.481C403.481 39.8002 407.958 44.2773 413.481 44.2773V34.2773ZM413.481 28.9492V18.9492C407.958 18.9492 403.481 23.4264 403.481 28.9492H413.481ZM446.094 43.4727H456.094C456.094 37.9498 451.617 33.4727 446.094 33.4727V43.4727ZM446.094 48.9727V58.9727C451.617 58.9727 456.094 54.4955 456.094 48.9727H446.094ZM417.262 48.9727H407.262C407.262 54.4955 411.739 58.9727 417.262 58.9727V48.9727ZM417.262 37.0273V27.0273C411.739 27.0273 407.262 31.5045 407.262 37.0273H417.262ZM424.223 37.0273H434.223C434.223 31.5045 429.746 27.0273 424.223 27.0273V37.0273ZM424.223 43.4727H414.223C414.223 48.9955 418.7 53.4727 424.223 53.4727V43.4727ZM445.836 20.0977H435.836V25.4258H445.836H455.836V20.0977H445.836ZM445.836 25.4258V15.4258H417.735V25.4258V35.4258H445.836V25.4258ZM417.735 25.4258H427.735V11.418H417.735H407.735V25.4258H417.735ZM417.735 11.418V21.418H424.61V11.418V1.41797H417.735V11.418ZM424.61 11.418H414.61V20.0977H424.61H434.61V11.418L424.61 11.418ZM424.61 20.0977V30.0977H445.836V20.0977V10.0977L424.61 10.0977V20.0977ZM449.746 28.9492H439.746V34.2773H449.746H459.746V28.9492H449.746ZM449.746 34.2773V24.2773H413.481V34.2773V44.2773H449.746V34.2773ZM413.481 34.2773H423.481V28.9492H413.481H403.481V34.2773H413.481ZM413.481 28.9492V38.9492H449.746V28.9492V18.9492H413.481V28.9492ZM446.094 43.4727H436.094V48.9727H446.094H456.094V43.4727H446.094ZM446.094 48.9727V38.9727H417.262V48.9727V58.9727H446.094V48.9727ZM417.262 48.9727H427.262V37.0273H417.262H407.262V48.9727H417.262ZM417.262 37.0273V47.0273H424.223V37.0273V27.0273H417.262V37.0273ZM424.223 37.0273H414.223V43.4727H424.223H434.223V37.0273H424.223ZM424.223 43.4727V53.4727H446.094V43.4727V33.4727H424.223V43.4727Z" fill="white" mask="url(#path-1-outside-1_3990_1447)"/>
</g>
<defs>
<filter id="filter0_d_3990_1447" x="0" y="0" width="463.746" height="67.875" filterUnits="userSpaceOnUse" color-interpolation-filters="sRGB">
<feFlood flood-opacity="0" result="BackgroundImageFix"/>
<feColorMatrix in="SourceAlpha" type="matrix" values="0 0 0 0 0 0 0 0 0 0 0 0 0 0 0 0 0 0 127 0" result="hardAlpha"/>
<feOffset dy="4"/>
<feGaussianBlur stdDeviation="2"/>
<feComposite in2="hardAlpha" operator="out"/>
<feColorMatrix type="matrix" values="0 0 0 0 0 0 0 0 0 0 0 0 0 0 0 0 0 0 0.07 0"/>
<feBlend mode="normal" in2="BackgroundImageFix" result="effect1_dropShadow_3990_1447"/>
<feBlend mode="normal" in="SourceGraphic" in2="effect1_dropShadow_3990_1447" result="shape"/>
</filter>
</defs>
</svg>
