<svg width="341" height="68" viewBox="0 0 341 68" fill="none" xmlns="http://www.w3.org/2000/svg">
<g filter="url(#filter0_d_3990_1407)">
<mask id="path-1-outside-1_3990_1407" maskUnits="userSpaceOnUse" x="3.14092" y="-0.507813" width="334" height="61" fill="black">
<rect fill="white" x="3.14092" y="-0.507813" width="334" height="61"/>
<path d="M24.7855 12.6641C30.973 12.6211 35.5276 18.207 35.5276 26.9727C35.5276 35.8672 30.973 41.4102 24.7855 41.4102C18.555 41.4102 13.9573 35.8672 14.0003 26.9727C13.9573 18.207 18.555 12.6211 24.7855 12.6641ZM24.7855 18.8945C22.2933 18.8516 20.6605 21.4727 20.7034 26.9727C20.6605 32.5586 22.2933 35.0938 24.7855 35.0938C27.3206 35.0938 28.9105 32.5586 28.9534 26.9727C28.9105 21.4727 27.3206 18.8516 24.7855 18.8945ZM45.7542 10V24.4375H51.1253V30.1523H45.7542V49.7461H38.8362V10L45.7542 10ZM85.6292 10V49.875H78.6683V10H85.6292ZM63.8011 12.6641C69.8597 12.6211 74.4144 18.207 74.4144 26.9727C74.4144 35.8672 69.8597 41.4102 63.8011 41.4102C57.6136 41.4102 53.0159 35.8672 53.0159 26.9727C53.0159 18.207 57.6136 12.6211 63.8011 12.6641ZM63.8011 18.8945C61.2659 18.8516 59.6761 21.4727 59.6761 26.9727C59.6761 32.5586 61.2659 35.0938 63.8011 35.0938C66.1644 35.0938 67.7972 32.5586 67.7972 26.9727C67.7972 21.4727 66.1644 18.8516 63.8011 18.8945ZM123.657 10V49.875H116.696V10H123.657ZM111.969 13.3516V18.8945H99.2933V34.8789C105.932 34.8574 109.907 34.707 114.332 33.8906L114.891 39.4766C109.907 40.5078 104.922 40.6797 95.9847 40.6367H92.4183V13.3516H111.969ZM139.254 12.6641C144.561 12.6211 148.6 16.8965 149.567 23.8359H155.196V10H162.028V49.875H155.196V29.3359H149.653C148.922 36.834 144.754 41.4102 139.254 41.4102C133.11 41.4102 128.684 35.8672 128.684 26.9727C128.684 18.207 133.11 12.6211 139.254 12.6641ZM139.254 18.8945C136.891 18.8516 135.258 21.4727 135.301 26.9727C135.258 32.5586 136.891 35.0938 139.254 35.0938C141.66 35.0937 143.207 32.5586 143.207 26.9727C143.207 21.4727 141.66 18.8516 139.254 18.8945ZM197.864 10V24.6523H202.934V30.2812H197.864V49.6602H190.946V10H197.864ZM187.035 13.9531C186.992 26.2422 182.782 36.5547 169.203 43.2148L165.293 37.9727C174.145 33.5039 178.828 27.9395 180.032 19.5391H167.785V13.9531H187.035ZM250.028 28.4766V33.8906H235.289V35.7383C241.907 36.3828 245.774 38.832 245.774 42.7422C245.774 47.2969 240.532 49.832 231.809 49.832C223.043 49.832 217.801 47.2969 217.844 42.7422C217.801 38.8105 221.69 36.3613 228.371 35.7383V33.8906H213.762V28.4766H250.028ZM246.891 11.2031V16.6602H242.336V21.3008H246.547V26.7148H217.2V21.3008H221.367V16.6602H216.813V11.2031L246.891 11.2031ZM231.809 40.7227C226.867 40.7656 224.676 41.3242 224.719 42.7422C224.676 44.2461 226.867 44.8047 231.809 44.8047C236.621 44.8047 238.77 44.2461 238.77 42.7422C238.77 41.3242 236.621 40.7656 231.809 40.7227ZM228.242 21.3008H235.375V16.6602H228.242V21.3008ZM288.055 32.5156V37.8437H273.188V49.7461H266.356V37.8437H251.789V32.5156H288.055ZM262.532 11.5039V15.5H277.098V11.5039H284.016V29.3359H255.742V11.5039H262.532ZM262.532 23.8359H277.098V20.8281H262.532V23.8359ZM321.614 10.0859V21.6875H326.555V27.2734H321.614V39.6914H314.696V10.0859H321.614ZM313.278 13.8242V19.1523H289.774V13.8242H298.067V10L304.985 10V13.8242H313.278ZM301.504 20.0547C307.305 20.0547 311.43 23.2773 311.43 27.918C311.43 32.5586 307.305 35.6953 301.504 35.6523C295.66 35.6953 291.492 32.5586 291.492 27.918C291.492 23.2773 295.66 20.0547 301.504 20.0547ZM301.504 25.2539C299.528 25.2969 298.239 26.1133 298.239 27.918C298.239 29.7227 299.528 30.4961 301.504 30.4961C303.524 30.4961 304.899 29.7227 304.899 27.918C304.899 26.1133 303.524 25.2969 301.504 25.2539ZM322.774 43.6875V49.1875H295.274V37.457H302.192V43.6875H322.774Z"/>
</mask>
<path d="M24.7855 12.6641C30.973 12.6211 35.5276 18.207 35.5276 26.9727C35.5276 35.8672 30.973 41.4102 24.7855 41.4102C18.555 41.4102 13.9573 35.8672 14.0003 26.9727C13.9573 18.207 18.555 12.6211 24.7855 12.6641ZM24.7855 18.8945C22.2933 18.8516 20.6605 21.4727 20.7034 26.9727C20.6605 32.5586 22.2933 35.0938 24.7855 35.0938C27.3206 35.0938 28.9105 32.5586 28.9534 26.9727C28.9105 21.4727 27.3206 18.8516 24.7855 18.8945ZM45.7542 10V24.4375H51.1253V30.1523H45.7542V49.7461H38.8362V10L45.7542 10ZM85.6292 10V49.875H78.6683V10H85.6292ZM63.8011 12.6641C69.8597 12.6211 74.4144 18.207 74.4144 26.9727C74.4144 35.8672 69.8597 41.4102 63.8011 41.4102C57.6136 41.4102 53.0159 35.8672 53.0159 26.9727C53.0159 18.207 57.6136 12.6211 63.8011 12.6641ZM63.8011 18.8945C61.2659 18.8516 59.6761 21.4727 59.6761 26.9727C59.6761 32.5586 61.2659 35.0938 63.8011 35.0938C66.1644 35.0938 67.7972 32.5586 67.7972 26.9727C67.7972 21.4727 66.1644 18.8516 63.8011 18.8945ZM123.657 10V49.875H116.696V10H123.657ZM111.969 13.3516V18.8945H99.2933V34.8789C105.932 34.8574 109.907 34.707 114.332 33.8906L114.891 39.4766C109.907 40.5078 104.922 40.6797 95.9847 40.6367H92.4183V13.3516H111.969ZM139.254 12.6641C144.561 12.6211 148.6 16.8965 149.567 23.8359H155.196V10H162.028V49.875H155.196V29.3359H149.653C148.922 36.834 144.754 41.4102 139.254 41.4102C133.11 41.4102 128.684 35.8672 128.684 26.9727C128.684 18.207 133.11 12.6211 139.254 12.6641ZM139.254 18.8945C136.891 18.8516 135.258 21.4727 135.301 26.9727C135.258 32.5586 136.891 35.0938 139.254 35.0938C141.66 35.0937 143.207 32.5586 143.207 26.9727C143.207 21.4727 141.66 18.8516 139.254 18.8945ZM197.864 10V24.6523H202.934V30.2812H197.864V49.6602H190.946V10H197.864ZM187.035 13.9531C186.992 26.2422 182.782 36.5547 169.203 43.2148L165.293 37.9727C174.145 33.5039 178.828 27.9395 180.032 19.5391H167.785V13.9531H187.035ZM250.028 28.4766V33.8906H235.289V35.7383C241.907 36.3828 245.774 38.832 245.774 42.7422C245.774 47.2969 240.532 49.832 231.809 49.832C223.043 49.832 217.801 47.2969 217.844 42.7422C217.801 38.8105 221.69 36.3613 228.371 35.7383V33.8906H213.762V28.4766H250.028ZM246.891 11.2031V16.6602H242.336V21.3008H246.547V26.7148H217.2V21.3008H221.367V16.6602H216.813V11.2031L246.891 11.2031ZM231.809 40.7227C226.867 40.7656 224.676 41.3242 224.719 42.7422C224.676 44.2461 226.867 44.8047 231.809 44.8047C236.621 44.8047 238.77 44.2461 238.77 42.7422C238.77 41.3242 236.621 40.7656 231.809 40.7227ZM228.242 21.3008H235.375V16.6602H228.242V21.3008ZM288.055 32.5156V37.8437H273.188V49.7461H266.356V37.8437H251.789V32.5156H288.055ZM262.532 11.5039V15.5H277.098V11.5039H284.016V29.3359H255.742V11.5039H262.532ZM262.532 23.8359H277.098V20.8281H262.532V23.8359ZM321.614 10.0859V21.6875H326.555V27.2734H321.614V39.6914H314.696V10.0859H321.614ZM313.278 13.8242V19.1523H289.774V13.8242H298.067V10L304.985 10V13.8242H313.278ZM301.504 20.0547C307.305 20.0547 311.43 23.2773 311.43 27.918C311.43 32.5586 307.305 35.6953 301.504 35.6523C295.66 35.6953 291.492 32.5586 291.492 27.918C291.492 23.2773 295.66 20.0547 301.504 20.0547ZM301.504 25.2539C299.528 25.2969 298.239 26.1133 298.239 27.918C298.239 29.7227 299.528 30.4961 301.504 30.4961C303.524 30.4961 304.899 29.7227 304.899 27.918C304.899 26.1133 303.524 25.2969 301.504 25.2539ZM322.774 43.6875V49.1875H295.274V37.457H302.192V43.6875H322.774Z" fill="#11DCA9"/>
<path d="M24.7855 12.6641L24.7165 22.6638C24.7626 22.6641 24.8088 22.6641 24.8549 22.6638L24.7855 12.6641ZM14.0003 26.9727L24.0002 27.021C24.0003 26.9885 24.0003 26.9561 24.0002 26.9236L14.0003 26.9727ZM24.7855 18.8945L24.6131 28.893C24.727 28.895 24.841 28.895 24.9549 28.8931L24.7855 18.8945ZM20.7034 26.9727L30.7031 27.0496C30.7035 26.9979 30.7035 26.9462 30.7031 26.8945L20.7034 26.9727ZM28.9534 26.9727L38.9531 27.0496C38.9535 26.9979 38.9535 26.9462 38.9531 26.8945L28.9534 26.9727ZM45.7542 10H55.7542C55.7542 4.47715 51.277 0 45.7542 0V10ZM45.7542 24.4375H35.7542C35.7542 29.9603 40.2314 34.4375 45.7542 34.4375V24.4375ZM51.1253 24.4375H61.1253C61.1253 18.9147 56.6481 14.4375 51.1253 14.4375V24.4375ZM51.1253 30.1523V40.1523C56.6481 40.1523 61.1253 35.6752 61.1253 30.1523H51.1253ZM45.7542 30.1523V20.1523C40.2314 20.1523 35.7542 24.6295 35.7542 30.1523H45.7542ZM45.7542 49.7461V59.7461C51.277 59.7461 55.7542 55.2689 55.7542 49.7461H45.7542ZM38.8362 49.7461H28.8362C28.8362 55.2689 33.3134 59.7461 38.8362 59.7461V49.7461ZM38.8362 10V0C33.3134 0 28.8362 4.47715 28.8362 10H38.8362ZM24.7855 12.6641L24.8549 22.6638C24.868 22.6637 24.8355 22.665 24.7703 22.6499C24.7047 22.6347 24.6342 22.6095 24.5689 22.5766C24.4234 22.5031 24.4335 22.4599 24.5493 22.6106C24.8107 22.9505 25.5276 24.2317 25.5276 26.9727H35.5276H45.5276C45.5276 20.9479 43.9672 15.0534 40.4044 10.4197C36.7057 5.60936 31.1332 2.61974 24.716 2.6643L24.7855 12.6641ZM35.5276 26.9727H25.5276C25.5276 29.8046 24.7976 31.1072 24.5367 31.4479C24.421 31.599 24.4088 31.5588 24.5468 31.4887C24.6942 31.4138 24.8063 31.4102 24.7855 31.4102V41.4102V51.4102C31.1558 51.4102 36.7146 48.4419 40.417 43.6058C43.9804 38.9514 45.5276 33.0353 45.5276 26.9727H35.5276ZM24.7855 41.4102V31.4102C24.7418 31.4102 24.834 31.4084 24.9672 31.4756C25.0924 31.5387 25.0772 31.5734 24.964 31.4265C24.7119 31.0989 23.9866 29.8217 24.0002 27.021L14.0003 26.9727L4.00041 26.9243C3.97097 33.0181 5.52311 38.9597 9.11663 43.6273C12.8448 48.4697 18.4259 51.4102 24.7855 51.4102V41.4102ZM14.0003 26.9727L24.0002 26.9236C23.9869 24.2146 24.6986 22.9589 24.9513 22.632C25.0646 22.4855 25.0778 22.5231 24.9452 22.5896C24.8027 22.661 24.6946 22.6637 24.7165 22.6638L24.7855 12.6641L24.8544 2.6643C18.4483 2.62012 12.8538 5.58142 9.12936 10.3982C5.5364 15.045 3.97073 20.9651 4.00041 27.0217L14.0003 26.9727ZM24.7855 18.8945L24.9578 8.89602C19.3093 8.79863 15.1268 12.1116 12.9732 16.1436C11.1253 19.6031 10.6765 23.5663 10.7037 27.0508L20.7034 26.9727L30.7031 26.8945C30.6961 25.9979 30.761 25.4486 30.81 25.1804C30.8628 24.8914 30.8663 25.0946 30.6143 25.5664C30.3487 26.0636 29.7277 26.9806 28.5255 27.7591C27.2582 28.5797 25.8522 28.9144 24.6131 28.893L24.7855 18.8945ZM20.7034 26.9727L10.7037 26.8957C10.6768 30.3994 11.1186 34.3811 12.9811 37.8541C15.1769 41.9486 19.3351 45.0938 24.7855 45.0938V35.0938V25.0938C25.937 25.0938 27.2809 25.4122 28.5176 26.2113C29.7025 26.977 30.329 27.8844 30.6064 28.4018C30.8664 28.8866 30.8643 29.1007 30.8114 28.8099C30.7621 28.5386 30.696 27.9768 30.7031 27.0496L20.7034 26.9727ZM24.7855 35.0938V45.0938C30.2241 45.0938 34.3857 41.9832 36.6019 37.8816C38.4598 34.4431 38.9266 30.4931 38.9531 27.0496L28.9534 26.9727L18.9537 26.8957C18.9464 27.8483 18.873 28.4335 18.8168 28.7288C18.7567 29.0449 18.751 28.8465 19.0061 28.3742C19.2802 27.867 19.9075 26.9593 21.0982 26.1949C22.3412 25.3971 23.6741 25.0938 24.7855 25.0938V35.0938ZM28.9534 26.9727L38.9531 26.8945C38.9264 23.4723 38.4531 19.5413 36.6099 16.1161C34.4352 12.0751 30.2496 8.80048 24.616 8.89597L24.7855 18.8945L24.9549 28.8931C23.7582 28.9134 22.3643 28.5949 21.0903 27.7755C19.8823 26.9985 19.2604 26.0811 18.9982 25.5939C18.751 25.1346 18.7583 24.9472 18.8184 25.2618C18.8744 25.5544 18.9465 26.1278 18.9537 27.0508L28.9534 26.9727ZM45.7542 10L35.7542 10V24.4375H45.7542H55.7542V10H45.7542ZM45.7542 24.4375V34.4375H51.1253V24.4375V14.4375H45.7542V24.4375ZM51.1253 24.4375H41.1253V30.1523H51.1253H61.1253V24.4375H51.1253ZM51.1253 30.1523V20.1523H45.7542V30.1523V40.1523H51.1253V30.1523ZM45.7542 30.1523H35.7542V49.7461H45.7542H55.7542V30.1523H45.7542ZM45.7542 49.7461V39.7461H38.8362V49.7461V59.7461H45.7542V49.7461ZM38.8362 49.7461H48.8362V10L38.8362 10H28.8362V49.7461H38.8362ZM38.8362 10V20H45.7542V10V0H38.8362V10ZM85.6292 10H95.6292C95.6292 4.47715 91.1521 0 85.6292 0V10ZM85.6292 49.875V59.875C91.1521 59.875 95.6292 55.3978 95.6292 49.875H85.6292ZM78.6683 49.875H68.6683C68.6683 55.3978 73.1454 59.875 78.6683 59.875V49.875ZM78.6683 10V0C73.1454 0 68.6683 4.47715 68.6683 10H78.6683ZM63.8011 12.6641L63.7316 22.6638C63.7784 22.6641 63.8252 22.6641 63.872 22.6638L63.8011 12.6641ZM63.8011 18.8945L63.6316 28.8931C63.7487 28.8951 63.8658 28.895 63.9829 28.8929L63.8011 18.8945ZM85.6292 10H75.6292V49.875H85.6292H95.6292V10H85.6292ZM85.6292 49.875V39.875H78.6683V49.875V59.875H85.6292V49.875ZM78.6683 49.875H88.6683V10H78.6683H68.6683V49.875H78.6683ZM78.6683 10V20H85.6292V10V0L78.6683 0V10ZM63.8011 12.6641L63.872 22.6638C63.8042 22.6643 63.6347 22.6406 63.4593 22.5508C63.2976 22.4681 63.3066 22.4198 63.4273 22.5782C63.6977 22.9327 64.4144 24.2334 64.4144 26.9727H74.4144L84.4144 26.9727C84.4144 20.9463 82.8537 15.0712 79.332 10.4521C75.6847 5.66819 70.1517 2.61877 63.7302 2.66431L63.8011 12.6641ZM74.4144 26.9727H64.4144C64.4144 29.8028 63.6846 31.1249 63.4148 31.4804C63.2943 31.6391 63.2831 31.594 63.4371 31.5147C63.6029 31.4293 63.7558 31.4102 63.8011 31.4102V41.4102V51.4102C70.1746 51.4102 75.6931 48.3834 79.3446 43.5733C82.8667 38.9337 84.4144 33.0371 84.4144 26.9727L74.4144 26.9727ZM63.8011 41.4102V31.4102C63.7796 31.4102 63.8844 31.4135 64.0218 31.483C64.15 31.5479 64.1312 31.5815 64.0119 31.4265C63.7464 31.0816 63.0159 29.7839 63.0159 26.9727H53.0159H43.0159C43.0159 33.056 44.5843 38.977 48.1645 43.6273C51.8773 48.4498 57.4389 51.4102 63.8011 51.4102V41.4102ZM53.0159 26.9727H63.0159C63.0159 24.2526 63.733 22.9762 63.9992 22.632C64.1187 22.4774 64.1354 22.5139 63.9998 22.5822C63.9392 22.6127 63.873 22.6363 63.8108 22.6507C63.7491 22.6649 63.7186 22.6637 63.7316 22.6638L63.8011 12.6641L63.8705 2.6643C57.4614 2.6198 51.8861 5.60151 48.1772 10.3982C44.5977 15.0277 43.0159 20.9271 43.0159 26.9727H53.0159ZM63.8011 18.8945L63.9705 8.89597C58.339 8.80052 54.1407 12.0746 51.9673 16.1436C50.1264 19.59 49.6761 23.5385 49.6761 26.9727H59.6761H69.6761C69.6761 26.0559 69.7442 25.4897 69.7968 25.2055C69.8535 24.8993 69.8594 25.0966 69.6085 25.5664C69.3422 26.0649 68.7159 26.9904 67.5019 27.7722C66.2237 28.5955 64.8271 28.9134 63.6316 28.8931L63.8011 18.8945ZM59.6761 26.9727H49.6761C49.6761 30.4271 50.1198 34.3944 51.9752 37.8541C54.1898 41.9836 58.3648 45.0938 63.8011 45.0938V35.0938V25.0938C64.9112 25.0938 66.2468 25.3965 67.494 26.1982C68.6907 26.9673 69.3224 27.8831 69.6006 28.4018C69.8595 28.8846 69.8551 29.0928 69.7983 28.7849C69.7454 28.4977 69.6761 27.9194 69.6761 26.9727H59.6761ZM63.8011 35.0938V45.0938C69.4003 45.0938 73.4512 41.7294 75.5276 37.7986C77.3267 34.3926 77.7972 30.4806 77.7972 26.9727L67.7972 26.9727H57.7972C57.7972 27.9039 57.7274 28.4806 57.6732 28.7724C57.6153 29.0842 57.606 28.9062 57.8431 28.4572C58.0918 27.9865 58.6875 27.0851 59.8596 26.3005C61.0996 25.4703 62.509 25.0938 63.8011 25.0938V35.0938ZM67.7972 26.9727L77.7972 26.9727C77.7972 23.4853 77.3201 19.5914 75.5353 16.199C73.5047 12.3393 69.4259 8.79061 63.6193 8.89618L63.8011 18.8945L63.9829 28.8929C62.597 28.9181 61.1217 28.5217 59.8516 27.6697C58.6629 26.8723 58.0724 25.9614 57.8354 25.511C57.606 25.075 57.6168 24.9078 57.6747 25.218C57.7286 25.507 57.7972 26.0715 57.7972 26.9727H67.7972ZM123.657 10H133.657C133.657 4.47715 129.179 0 123.657 0V10ZM123.657 49.875V59.875C129.179 59.875 133.657 55.3978 133.657 49.875H123.657ZM116.696 49.875H106.696C106.696 55.3978 111.173 59.875 116.696 59.875V49.875ZM116.696 10V0C111.173 0 106.696 4.47715 106.696 10L116.696 10ZM111.969 13.3516H121.969C121.969 7.82872 117.492 3.35156 111.969 3.35156V13.3516ZM111.969 18.8945V28.8945C117.492 28.8945 121.969 24.4174 121.969 18.8945H111.969ZM99.2933 18.8945V8.89453C93.7704 8.89453 89.2933 13.3717 89.2933 18.8945H99.2933ZM99.2933 34.8789H89.2933C89.2933 37.5367 90.3513 40.0851 92.2336 41.9614C94.116 43.8377 96.6679 44.8875 99.3256 44.8789L99.2933 34.8789ZM114.332 33.8906L124.283 32.8956C124.004 30.1136 122.574 27.5752 120.339 25.8958C118.104 24.2163 115.268 23.5494 112.518 24.0565L114.332 33.8906ZM114.891 39.4766L116.917 49.2692C121.93 48.2319 125.351 43.5757 124.841 38.4815L114.891 39.4766ZM95.9847 40.6367L96.0327 30.6368C96.0167 30.6368 96.0007 30.6367 95.9847 30.6367V40.6367ZM92.4183 40.6367H82.4183C82.4183 46.1596 86.8954 50.6367 92.4183 50.6367V40.6367ZM92.4183 13.3516V3.35156C86.8954 3.35156 82.4183 7.82872 82.4183 13.3516H92.4183ZM123.657 10H113.657V49.875H123.657H133.657V10H123.657ZM123.657 49.875V39.875H116.696V49.875V59.875H123.657V49.875ZM116.696 49.875H126.696V10H116.696L106.696 10V49.875H116.696ZM116.696 10V20H123.657V10V0L116.696 0V10ZM111.969 13.3516H101.969V18.8945H111.969H121.969V13.3516H111.969ZM111.969 18.8945V8.89453L99.2933 8.89453V18.8945V28.8945H111.969V18.8945ZM99.2933 18.8945H89.2933V34.8789H99.2933H109.293V18.8945H99.2933ZM99.2933 34.8789L99.3256 44.8789C106.039 44.8571 110.778 44.715 116.146 43.7247L114.332 33.8906L112.518 24.0565C109.035 24.6991 105.825 24.8577 99.2609 24.879L99.2933 34.8789ZM114.332 33.8906L104.382 34.8857L104.941 40.4716L114.891 39.4766L124.841 38.4815L124.283 32.8956L114.332 33.8906ZM114.891 39.4766L112.865 29.684C109.018 30.4798 104.985 30.6799 96.0327 30.6368L95.9847 40.6367L95.9366 50.6366C104.859 50.6795 110.795 50.5358 116.917 49.2692L114.891 39.4766ZM95.9847 40.6367V30.6367H92.4183V40.6367V50.6367H95.9847V40.6367ZM92.4183 40.6367H102.418V13.3516H92.4183H82.4183V40.6367H92.4183ZM92.4183 13.3516V23.3516H111.969V13.3516V3.35156L92.4183 3.35156V13.3516ZM139.254 12.6641L139.184 22.6638C139.235 22.6642 139.285 22.6641 139.335 22.6637L139.254 12.6641ZM149.567 23.8359L139.662 25.2158C140.351 30.1578 144.577 33.8359 149.567 33.8359V23.8359ZM155.196 23.8359V33.8359C160.718 33.8359 165.196 29.3588 165.196 23.8359H155.196ZM155.196 10V0C149.673 0 145.196 4.47715 145.196 10H155.196ZM162.028 10H172.028C172.028 4.47715 167.55 0 162.028 0V10ZM162.028 49.875V59.875C167.55 59.875 172.028 55.3978 172.028 49.875H162.028ZM155.196 49.875H145.196C145.196 55.3978 149.673 59.875 155.196 59.875V49.875ZM155.196 29.3359H165.196C165.196 23.8131 160.718 19.3359 155.196 19.3359V29.3359ZM149.653 29.3359V19.3359C144.505 19.3359 140.199 23.2433 139.7 28.3663L149.653 29.3359ZM139.254 18.8945L139.072 28.8929C139.193 28.8951 139.313 28.8951 139.433 28.8929L139.254 18.8945ZM135.301 26.9727L145.301 27.0496C145.301 26.9979 145.301 26.9462 145.301 26.8945L135.301 26.9727ZM139.254 12.6641L139.335 22.6637C139.283 22.6642 139.122 22.6489 138.93 22.5641C138.745 22.4823 138.678 22.4013 138.712 22.4381C138.806 22.5391 139.393 23.2826 139.662 25.2158L149.567 23.8359L159.471 22.4561C158.097 12.5942 151.326 2.56599 139.173 2.66439L139.254 12.6641ZM149.567 23.8359V33.8359H155.196V23.8359V13.8359H149.567V23.8359ZM155.196 23.8359H165.196V10H155.196H145.196V23.8359H155.196ZM155.196 10V20H162.028V10V0H155.196V10ZM162.028 10H152.028V49.875H162.028H172.028V10H162.028ZM162.028 49.875V39.875H155.196V49.875V59.875H162.028V49.875ZM155.196 49.875H165.196V29.3359H155.196H145.196V49.875H155.196ZM155.196 29.3359V19.3359H149.653V29.3359V39.3359H155.196V29.3359ZM149.653 29.3359L139.7 28.3663C139.486 30.5593 138.851 31.4454 138.716 31.6005C138.661 31.6632 138.709 31.59 138.883 31.5089C139.065 31.4247 139.215 31.4102 139.254 31.4102V41.4102V51.4102C151.84 51.4102 158.589 40.7357 159.606 30.3056L149.653 29.3359ZM139.254 41.4102V31.4102C139.242 31.4102 139.279 31.4092 139.354 31.4269C139.428 31.4447 139.511 31.4744 139.589 31.5147C139.762 31.6038 139.769 31.666 139.663 31.5241C139.412 31.1902 138.684 29.8661 138.684 26.9727H128.684H118.684C118.684 32.9737 120.169 38.8684 123.667 43.5296C127.321 48.398 132.858 51.4102 139.254 51.4102V41.4102ZM128.684 26.9727H138.684C138.684 24.1696 139.4 22.867 139.65 22.5344C139.757 22.3929 139.747 22.4583 139.566 22.5508C139.484 22.593 139.395 22.625 139.312 22.6445C139.229 22.6639 139.182 22.6638 139.184 22.6638L139.254 12.6641L139.324 2.66431C132.881 2.61925 127.33 5.65315 123.679 10.4958C120.181 15.1369 118.684 21.0101 118.684 26.9727H128.684ZM139.254 18.8945L139.436 8.89618C133.63 8.79063 129.54 12.3395 127.511 16.2269C125.729 19.6402 125.274 23.5516 125.301 27.0508L135.301 26.9727L145.301 26.8945C145.285 24.8937 145.625 24.7445 145.24 25.4831C144.999 25.9446 144.404 26.8637 143.21 27.6662C141.935 28.5223 140.457 28.9181 139.072 28.8929L139.254 18.8945ZM135.301 26.9727L125.301 26.8957C125.274 30.4145 125.722 34.3438 127.518 37.7707C129.593 41.7292 133.656 45.0938 139.254 45.0938V35.0938V25.0937C140.545 25.0937 141.957 25.4698 143.202 26.304C144.38 27.0937 144.98 28.0033 145.232 28.4852C145.473 28.9445 145.465 29.1323 145.41 28.8286C145.359 28.545 145.294 27.9752 145.301 27.0496L135.301 26.9727ZM139.254 35.0938V45.0938C144.871 45.0937 148.947 41.7289 151.019 37.7144C152.777 34.3088 153.207 30.4093 153.207 26.9727H143.207H133.207C133.207 27.9311 133.139 28.5297 133.084 28.8411C133.024 29.175 133.011 28.9983 133.247 28.5415C133.496 28.0586 134.102 27.1219 135.308 26.3112C136.584 25.4534 138.005 25.0937 139.254 25.0937V35.0938ZM143.207 26.9727H153.207C153.207 23.557 152.771 19.6757 151.027 16.2831C148.999 12.3383 144.897 8.79217 139.076 8.89612L139.254 18.8945L139.433 28.8929C138.093 28.9169 136.607 28.5393 135.3 27.659C134.078 26.8354 133.477 25.8892 133.239 25.4268C133.011 24.9829 133.025 24.817 133.085 25.149C133.14 25.4574 133.207 26.044 133.207 26.9727H143.207ZM197.864 10H207.864C207.864 4.47715 203.386 0 197.864 0V10ZM197.864 24.6523H187.864C187.864 30.1752 192.341 34.6523 197.864 34.6523V24.6523ZM202.934 24.6523L212.934 24.6523C212.934 19.1295 208.457 14.6523 202.934 14.6523V24.6523ZM202.934 30.2812V40.2812C208.457 40.2812 212.934 35.8041 212.934 30.2812H202.934ZM197.864 30.2812V20.2812C192.341 20.2812 187.864 24.7584 187.864 30.2812H197.864ZM197.864 49.6602V59.6602C203.386 59.6602 207.864 55.183 207.864 49.6602H197.864ZM190.946 49.6602H180.946C180.946 55.183 185.423 59.6602 190.946 59.6602V49.6602ZM190.946 10V0C185.423 0 180.946 4.47715 180.946 10H190.946ZM187.035 13.9531L197.035 13.9881C197.045 11.3299 195.995 8.77736 194.119 6.89443C192.243 5.0115 189.694 3.95312 187.035 3.95312V13.9531ZM169.203 43.2148L161.188 49.1938C164.066 53.0526 169.285 54.313 173.607 52.193L169.203 43.2148ZM165.293 37.9727L160.786 29.0458C158.15 30.377 156.236 32.8059 155.559 35.6812C154.882 38.5565 155.511 41.5839 157.278 43.9516L165.293 37.9727ZM180.032 19.5391L189.931 20.9568C190.342 18.0866 189.487 15.1792 187.587 12.9884C185.688 10.7976 182.931 9.53906 180.032 9.53906V19.5391ZM167.785 19.5391H157.785C157.785 25.0619 162.263 29.5391 167.785 29.5391V19.5391ZM167.785 13.9531V3.95312C162.263 3.95312 157.785 8.43028 157.785 13.9531H167.785ZM197.864 10H187.864V24.6523H197.864L207.864 24.6523V10H197.864ZM197.864 24.6523V34.6523H202.934V24.6523V14.6523H197.864V24.6523ZM202.934 24.6523H192.934V30.2812H202.934H212.934V24.6523L202.934 24.6523ZM202.934 30.2812V20.2812H197.864V30.2812V40.2812H202.934V30.2812ZM197.864 30.2812H187.864V49.6602H197.864H207.864V30.2812H197.864ZM197.864 49.6602V39.6602H190.946V49.6602V59.6602H197.864V49.6602ZM190.946 49.6602H200.946V10H190.946H180.946V49.6602H190.946ZM190.946 10V20H197.864V10V0L190.946 0V10ZM187.035 13.9531L177.036 13.9182C177.018 18.9688 176.143 22.8059 174.459 25.8287C172.836 28.7423 170.038 31.6673 164.8 34.2367L169.203 43.2148L173.607 52.193C181.947 48.1022 188.043 42.5409 191.931 35.5609C195.758 28.6902 197.01 21.2265 197.035 13.9881L187.035 13.9531ZM169.203 43.2148L177.219 37.2359L173.309 31.9937L165.293 37.9727L157.278 43.9516L161.188 49.1938L169.203 43.2148ZM165.293 37.9727L169.8 46.8995C175.045 44.2517 179.719 40.951 183.304 36.5212C186.975 31.9849 189.099 26.7651 189.931 20.9568L180.032 19.5391L170.133 18.1213C169.761 20.7134 168.941 22.4761 167.757 23.9392C166.487 25.5089 164.393 27.2248 160.786 29.0458L165.293 37.9727ZM180.032 19.5391V9.53906L167.785 9.53906V19.5391V29.5391H180.032V19.5391ZM167.785 19.5391H177.785V13.9531H167.785H157.785V19.5391H167.785ZM167.785 13.9531V23.9531H187.035V13.9531V3.95312H167.785V13.9531ZM250.028 28.4766H260.028C260.028 22.9537 255.55 18.4766 250.028 18.4766V28.4766ZM250.028 33.8906V43.8906C255.55 43.8906 260.028 39.4135 260.028 33.8906H250.028ZM235.289 33.8906V23.8906C229.767 23.8906 225.289 28.3678 225.289 33.8906H235.289ZM235.289 35.7383H225.289C225.289 40.8856 229.197 45.1922 234.32 45.6912L235.289 35.7383ZM217.844 42.7422L227.844 42.8365C227.844 42.7687 227.844 42.7008 227.843 42.6329L217.844 42.7422ZM228.371 35.7383L229.3 45.6951C234.441 45.2157 238.371 40.9014 238.371 35.7383H228.371ZM228.371 33.8906H238.371C238.371 28.3678 233.894 23.8906 228.371 23.8906V33.8906ZM213.762 33.8906H203.762C203.762 39.4135 208.239 43.8906 213.762 43.8906V33.8906ZM213.762 28.4766V18.4766C208.239 18.4766 203.762 22.9537 203.762 28.4766L213.762 28.4766ZM246.891 11.2031H256.891C256.891 5.68028 252.414 1.20312 246.891 1.20312V11.2031ZM246.891 16.6602V26.6602C252.414 26.6602 256.891 22.183 256.891 16.6602H246.891ZM242.336 16.6602V6.66016C236.813 6.66016 232.336 11.1373 232.336 16.6602H242.336ZM242.336 21.3008H232.336C232.336 26.8236 236.813 31.3008 242.336 31.3008V21.3008ZM246.547 21.3008H256.547C256.547 15.7779 252.07 11.3008 246.547 11.3008V21.3008ZM246.547 26.7148V36.7148C252.07 36.7148 256.547 32.2377 256.547 26.7148H246.547ZM217.2 26.7148H207.2C207.2 32.2377 211.677 36.7148 217.2 36.7148V26.7148ZM217.2 21.3008V11.3008C211.677 11.3008 207.2 15.7779 207.2 21.3008H217.2ZM221.367 21.3008V31.3008C226.89 31.3008 231.367 26.8236 231.367 21.3008H221.367ZM221.367 16.6602H231.367C231.367 11.1373 226.89 6.66016 221.367 6.66016V16.6602ZM216.813 16.6602H206.813C206.813 22.183 211.29 26.6602 216.813 26.6602V16.6602ZM216.813 11.2031V1.20312C211.29 1.20312 206.813 5.68028 206.813 11.2031H216.813ZM231.809 40.7227L231.898 30.7231C231.839 30.7225 231.781 30.7225 231.722 30.723L231.809 40.7227ZM224.719 42.7422L234.715 43.0278C234.721 42.8317 234.72 42.6354 234.714 42.4393L224.719 42.7422ZM228.242 21.3008H218.242C218.242 26.8236 222.72 31.3008 228.242 31.3008V21.3008ZM235.375 21.3008V31.3008C240.898 31.3008 245.375 26.8236 245.375 21.3008H235.375ZM235.375 16.6602H245.375C245.375 11.1373 240.898 6.66016 235.375 6.66016V16.6602ZM228.242 16.6602V6.66016C222.72 6.66016 218.242 11.1373 218.242 16.6602H228.242ZM250.028 28.4766H240.028V33.8906H250.028H260.028V28.4766H250.028ZM250.028 33.8906V23.8906H235.289V33.8906V43.8906H250.028V33.8906ZM235.289 33.8906H225.289V35.7383H235.289H245.289V33.8906H235.289ZM235.289 35.7383L234.32 45.6912C235.478 45.804 236.321 45.9783 236.89 46.1463C237.473 46.3181 237.623 46.4399 237.512 46.3668C237.381 46.2806 236.899 45.9252 236.454 45.1712C235.98 44.3677 235.774 43.4893 235.774 42.7422H245.774H255.774C255.774 36.8553 252.606 32.3599 248.514 29.6645C244.819 27.2311 240.384 26.1872 236.259 25.7854L235.289 35.7383ZM245.774 42.7422H235.774C235.774 41.8365 236.074 40.8077 236.683 39.9562C237.221 39.2033 237.709 38.9915 237.582 39.0548C237.45 39.1209 236.945 39.335 235.902 39.5225C234.882 39.7059 233.525 39.832 231.809 39.832V49.832V59.832C236.895 59.832 242.161 59.1308 246.542 56.9354C251.33 54.536 255.774 49.8029 255.774 42.7422H245.774ZM231.809 49.832V39.832C230.08 39.832 228.713 39.7055 227.687 39.5215C226.636 39.3333 226.131 39.1188 226.003 39.0548C225.881 38.9935 226.385 39.2142 226.934 39.9892C227.556 40.8666 227.852 41.9199 227.844 42.8365L217.844 42.7422L207.844 42.6479C207.777 49.7551 212.237 54.5271 217.043 56.9354C221.429 59.1334 226.711 59.832 231.809 59.832V49.832ZM217.844 42.7422L227.843 42.6329C227.852 43.3876 227.651 44.2899 227.165 45.1219C226.709 45.9024 226.208 46.2709 226.07 46.362C225.951 46.4394 226.1 46.3175 226.691 46.1456C227.269 45.9779 228.124 45.8047 229.3 45.6951L228.371 35.7383L227.443 25.7815C223.294 26.1683 218.822 27.1977 215.102 29.6371C210.964 32.351 207.78 36.9041 207.845 42.8515L217.844 42.7422ZM228.371 35.7383H238.371V33.8906H228.371H218.371V35.7383H228.371ZM228.371 33.8906V23.8906H213.762V33.8906V43.8906H228.371V33.8906ZM213.762 33.8906H223.762V28.4766H213.762L203.762 28.4766V33.8906H213.762ZM213.762 28.4766V38.4766H250.028V28.4766V18.4766H213.762V28.4766ZM246.891 11.2031L236.891 11.2031V16.6602H246.891H256.891V11.2031H246.891ZM246.891 16.6602V6.66016H242.336V16.6602V26.6602H246.891V16.6602ZM242.336 16.6602H232.336V21.3008H242.336H252.336V16.6602H242.336ZM242.336 21.3008V31.3008H246.547V21.3008V11.3008H242.336V21.3008ZM246.547 21.3008H236.547V26.7148H246.547H256.547V21.3008H246.547ZM246.547 26.7148V16.7148H217.2V26.7148V36.7148H246.547V26.7148ZM217.2 26.7148H227.2V21.3008H217.2H207.2V26.7148H217.2ZM217.2 21.3008V31.3008H221.367V21.3008V11.3008H217.2V21.3008ZM221.367 21.3008H231.367V16.6602H221.367H211.367V21.3008H221.367ZM221.367 16.6602V6.66016H216.813V16.6602V26.6602H221.367V16.6602ZM216.813 16.6602H226.813V11.2031H216.813H206.813V16.6602H216.813ZM216.813 11.2031V21.2031H246.891V11.2031V1.20312L216.813 1.20312V11.2031ZM231.809 40.7227L231.722 30.723C229.185 30.7451 226.251 30.8781 223.718 31.5816C222.456 31.9322 220.311 32.6788 218.373 34.4481C216.035 36.5813 214.621 39.6516 214.724 43.0451L224.719 42.7422L234.714 42.4393C234.75 43.5975 234.554 44.9109 233.984 46.2261C233.419 47.5307 232.623 48.5197 231.855 49.2209C230.469 50.4853 229.173 50.8237 229.071 50.852C228.842 50.9156 228.917 50.8695 229.502 50.8171C230.045 50.7685 230.821 50.7316 231.896 50.7223L231.809 40.7227ZM224.719 42.7422L214.723 42.4566C214.632 45.6632 215.884 48.7142 218.212 50.9349C220.165 52.7978 222.359 53.5888 223.677 53.961C226.28 54.6962 229.278 54.8047 231.809 54.8047V44.8047V34.8047C230.739 34.8047 229.976 34.7736 229.451 34.7293C228.881 34.6812 228.842 34.6372 229.113 34.7138C229.27 34.7584 230.616 35.1277 232.016 36.463C232.785 37.1965 233.536 38.1929 234.057 39.4598C234.578 40.7266 234.745 41.964 234.715 43.0278L224.719 42.7422ZM231.809 44.8047V54.8047C234.286 54.8047 237.258 54.696 239.859 53.9475C241.191 53.5643 243.341 52.7662 245.261 50.9349C247.517 48.7834 248.77 45.8514 248.77 42.7422H238.77H228.77C228.77 41.7112 228.96 40.5293 229.475 39.3275C229.989 38.1258 230.712 37.173 231.457 36.463C232.823 35.1593 234.136 34.7829 234.329 34.7273C234.619 34.6438 234.605 34.6845 234.066 34.731C233.571 34.7738 232.842 34.8047 231.809 34.8047V44.8047ZM238.77 42.7422H248.77C248.77 39.4578 247.363 36.5134 245.1 34.4481C243.194 32.7088 241.093 31.9557 239.817 31.5947C237.288 30.8789 234.381 30.7452 231.898 30.7231L231.809 40.7227L231.72 50.7223C232.758 50.7315 233.501 50.7681 234.013 50.8151C234.567 50.866 234.618 50.9089 234.371 50.8389C234.234 50.8002 232.971 50.4553 231.618 49.2209C230.874 48.5421 230.11 47.5975 229.553 46.3621C228.991 45.1172 228.77 43.8647 228.77 42.7422H238.77ZM228.242 21.3008V31.3008H235.375V21.3008V11.3008H228.242V21.3008ZM235.375 21.3008H245.375V16.6602H235.375H225.375V21.3008H235.375ZM235.375 16.6602V6.66016H228.242V16.6602V26.6602H235.375V16.6602ZM228.242 16.6602H218.242V21.3008H228.242H238.242V16.6602H228.242ZM288.055 32.5156H298.055C298.055 26.9928 293.578 22.5156 288.055 22.5156V32.5156ZM288.055 37.8437V47.8437C293.578 47.8437 298.055 43.3666 298.055 37.8437H288.055ZM273.188 37.8437V27.8437C267.665 27.8437 263.188 32.3209 263.188 37.8437H273.188ZM273.188 49.7461V59.7461C278.711 59.7461 283.188 55.2689 283.188 49.7461H273.188ZM266.356 49.7461H256.356C256.356 55.2689 260.833 59.7461 266.356 59.7461V49.7461ZM266.356 37.8437H276.356C276.356 32.3209 271.879 27.8437 266.356 27.8437V37.8437ZM251.789 37.8437H241.789C241.789 43.3666 246.267 47.8437 251.789 47.8437V37.8437ZM251.789 32.5156V22.5156C246.267 22.5156 241.789 26.9928 241.789 32.5156H251.789ZM262.532 11.5039H272.532C272.532 5.98106 268.054 1.50391 262.532 1.50391V11.5039ZM262.532 15.5H252.532C252.532 21.0228 257.009 25.5 262.532 25.5V15.5ZM277.098 15.5V25.5C282.621 25.5 287.098 21.0228 287.098 15.5H277.098ZM277.098 11.5039V1.50391C271.575 1.50391 267.098 5.98106 267.098 11.5039H277.098ZM284.016 11.5039H294.016C294.016 5.98106 289.539 1.50391 284.016 1.50391V11.5039ZM284.016 29.3359V39.3359C289.539 39.3359 294.016 34.8588 294.016 29.3359H284.016ZM255.742 29.3359H245.742C245.742 34.8588 250.22 39.3359 255.742 39.3359V29.3359ZM255.742 11.5039V1.50391C250.22 1.50391 245.742 5.98106 245.742 11.5039H255.742ZM262.532 23.8359H252.532C252.532 29.3588 257.009 33.8359 262.532 33.8359V23.8359ZM277.098 23.8359V33.8359C282.621 33.8359 287.098 29.3588 287.098 23.8359H277.098ZM277.098 20.8281H287.098C287.098 15.3053 282.621 10.8281 277.098 10.8281V20.8281ZM262.532 20.8281V10.8281C257.009 10.8281 252.532 15.3053 252.532 20.8281H262.532ZM288.055 32.5156H278.055V37.8437H288.055H298.055V32.5156H288.055ZM288.055 37.8437V27.8437H273.188V37.8437V47.8437H288.055V37.8437ZM273.188 37.8437H263.188V49.7461H273.188H283.188V37.8437H273.188ZM273.188 49.7461V39.7461H266.356V49.7461V59.7461H273.188V49.7461ZM266.356 49.7461H276.356V37.8437H266.356H256.356V49.7461H266.356ZM266.356 37.8437V27.8437H251.789V37.8437V47.8437H266.356V37.8437ZM251.789 37.8437H261.789V32.5156H251.789H241.789V37.8437H251.789ZM251.789 32.5156V42.5156H288.055V32.5156V22.5156H251.789V32.5156ZM262.532 11.5039H252.532V15.5H262.532H272.532V11.5039H262.532ZM262.532 15.5V25.5H277.098V15.5V5.5H262.532V15.5ZM277.098 15.5H287.098V11.5039H277.098H267.098V15.5H277.098ZM277.098 11.5039V21.5039H284.016V11.5039V1.50391H277.098V11.5039ZM284.016 11.5039H274.016V29.3359H284.016H294.016V11.5039H284.016ZM284.016 29.3359V19.3359H255.742V29.3359V39.3359H284.016V29.3359ZM255.742 29.3359H265.742V11.5039H255.742H245.742V29.3359H255.742ZM255.742 11.5039V21.5039H262.532V11.5039V1.50391H255.742V11.5039ZM262.532 23.8359V33.8359H277.098V23.8359V13.8359H262.532V23.8359ZM277.098 23.8359H287.098V20.8281H277.098H267.098V23.8359H277.098ZM277.098 20.8281V10.8281H262.532V20.8281V30.8281H277.098V20.8281ZM262.532 20.8281H252.532V23.8359H262.532H272.532V20.8281H262.532ZM321.614 10.0859H331.614C331.614 4.56309 327.136 0.0859375 321.614 0.0859375V10.0859ZM321.614 21.6875H311.614C311.614 27.2103 316.091 31.6875 321.614 31.6875V21.6875ZM326.555 21.6875L336.555 21.6875C336.555 16.1647 332.078 11.6875 326.555 11.6875V21.6875ZM326.555 27.2734V37.2734C332.078 37.2734 336.555 32.7963 336.555 27.2734L326.555 27.2734ZM321.614 27.2734V17.2734C316.091 17.2734 311.614 21.7506 311.614 27.2734H321.614ZM321.614 39.6914V49.6914C327.136 49.6914 331.614 45.2143 331.614 39.6914H321.614ZM314.696 39.6914H304.696C304.696 45.2143 309.173 49.6914 314.696 49.6914V39.6914ZM314.696 10.0859V0.0859375C309.173 0.0859375 304.696 4.56309 304.696 10.0859H314.696ZM313.278 13.8242H323.278C323.278 8.30137 318.8 3.82422 313.278 3.82422V13.8242ZM313.278 19.1523V29.1523C318.8 29.1523 323.278 24.6752 323.278 19.1523H313.278ZM289.774 19.1523H279.774C279.774 24.6752 284.251 29.1523 289.774 29.1523V19.1523ZM289.774 13.8242V3.82422C284.251 3.82422 279.774 8.30137 279.774 13.8242H289.774ZM298.067 13.8242V23.8242C303.59 23.8242 308.067 19.3471 308.067 13.8242H298.067ZM298.067 10V0C292.544 0 288.067 4.47715 288.067 10H298.067ZM304.985 10H314.985C314.985 4.47715 310.508 0 304.985 0V10ZM304.985 13.8242H294.985C294.985 19.3471 299.462 23.8242 304.985 23.8242V13.8242ZM301.504 35.6523L301.578 25.6526C301.529 25.6523 301.48 25.6523 301.431 25.6526L301.504 35.6523ZM301.504 25.2539L301.717 15.2562C301.574 15.2531 301.43 15.2532 301.287 15.2563L301.504 25.2539ZM322.774 43.6875H332.774C332.774 38.1647 328.297 33.6875 322.774 33.6875V43.6875ZM322.774 49.1875V59.1875C328.297 59.1875 332.774 54.7103 332.774 49.1875H322.774ZM295.274 49.1875H285.274C285.274 54.7103 289.751 59.1875 295.274 59.1875V49.1875ZM295.274 37.457V27.457C289.751 27.457 285.274 31.9342 285.274 37.457H295.274ZM302.192 37.457H312.192C312.192 31.9342 307.715 27.457 302.192 27.457V37.457ZM302.192 43.6875H292.192C292.192 49.2103 296.669 53.6875 302.192 53.6875V43.6875ZM321.614 10.0859H311.614V21.6875H321.614H331.614V10.0859H321.614ZM321.614 21.6875V31.6875H326.555V21.6875V11.6875H321.614V21.6875ZM326.555 21.6875H316.555V27.2734H326.555L336.555 27.2734V21.6875L326.555 21.6875ZM326.555 27.2734V17.2734H321.614V27.2734V37.2734H326.555V27.2734ZM321.614 27.2734H311.614V39.6914H321.614H331.614V27.2734H321.614ZM321.614 39.6914V29.6914H314.696V39.6914V49.6914H321.614V39.6914ZM314.696 39.6914H324.696V10.0859H314.696H304.696V39.6914H314.696ZM314.696 10.0859V20.0859H321.614V10.0859V0.0859375H314.696V10.0859ZM313.278 13.8242H303.278V19.1523H313.278H323.278V13.8242H313.278ZM313.278 19.1523V9.15234L289.774 9.15234V19.1523V29.1523H313.278V19.1523ZM289.774 19.1523H299.774V13.8242H289.774H279.774V19.1523H289.774ZM289.774 13.8242V23.8242H298.067V13.8242V3.82422H289.774V13.8242ZM298.067 13.8242H308.067V10L298.067 10H288.067V13.8242H298.067ZM298.067 10V20H304.985V10V0H298.067V10ZM304.985 10L294.985 10V13.8242H304.985H314.985V10H304.985ZM304.985 13.8242V23.8242H313.278V13.8242V3.82422H304.985V13.8242ZM301.504 20.0547V30.0547C302.629 30.0547 302.794 30.3697 302.448 30.0968C302.259 29.9475 301.978 29.6587 301.751 29.2037C301.517 28.7368 301.43 28.2729 301.43 27.918H311.43H321.43C321.43 22.357 318.852 17.5637 314.837 14.3954C310.978 11.351 306.18 10.0547 301.504 10.0547V20.0547ZM311.43 27.918H301.43C301.43 27.5621 301.518 27.0793 301.767 26.5852C302.011 26.1028 302.314 25.7942 302.523 25.6324C302.902 25.3394 302.745 25.6613 301.578 25.6526L301.504 35.6523L301.43 45.6521C306.064 45.6864 310.87 44.4614 314.762 41.4506C318.833 38.3007 321.43 33.4973 321.43 27.918H311.43ZM301.504 35.6523L301.431 25.6526C300.226 25.6615 300.033 25.3307 300.391 25.6054C300.592 25.7591 300.897 26.0633 301.145 26.55C301.4 27.0498 301.492 27.5449 301.492 27.918H291.492H281.492C281.492 33.5383 284.136 38.3447 288.223 41.4776C292.126 44.4701 296.939 45.6862 301.578 45.6521L301.504 35.6523ZM291.492 27.918H301.492C301.492 28.29 301.4 28.7662 301.162 29.2388C300.93 29.6982 300.647 29.9827 300.466 30.1242C300.14 30.3793 300.341 30.0547 301.504 30.0547V20.0547V10.0547C292.569 10.0547 281.492 15.6025 281.492 27.918H291.492ZM301.504 25.2539L301.287 15.2563C299.2 15.3016 295.975 15.7513 293.058 17.9796C289.677 20.5634 288.239 24.3486 288.239 27.918H298.239H308.239C308.239 28.6625 308.102 29.7332 307.561 30.9136C307.004 32.1283 306.166 33.1346 305.202 33.871C303.425 35.2292 301.832 35.2491 301.722 35.2515L301.504 25.2539ZM298.239 27.918H288.239C288.239 31.492 289.69 35.3526 293.203 37.9382C296.195 40.1396 299.467 40.4961 301.504 40.4961V30.4961V20.4961C301.565 20.4961 303.204 20.4658 305.057 21.8294C306.071 22.5757 306.954 23.6099 307.538 24.8656C308.103 26.0805 308.239 27.1768 308.239 27.918H298.239ZM301.504 30.4961V40.4961C303.536 40.4961 306.743 40.1493 309.708 38.0657C313.235 35.5876 314.899 31.7381 314.899 27.918H304.899H294.899C294.899 27.0865 295.063 25.922 295.679 24.6692C296.309 23.3883 297.227 22.3918 298.209 21.7019C299.982 20.4562 301.492 20.4961 301.504 20.4961V30.4961ZM304.899 27.918H314.899C314.899 24.1082 313.252 20.3277 309.853 17.8474C306.958 15.7347 303.793 15.3003 301.717 15.2562L301.504 25.2539L301.291 35.2516C301.235 35.2505 299.767 35.2458 298.064 34.0032C297.129 33.321 296.255 32.3492 295.654 31.1087C295.063 29.8906 294.899 28.7524 294.899 27.918H304.899ZM322.774 43.6875H312.774V49.1875H322.774H332.774V43.6875H322.774ZM322.774 49.1875V39.1875H295.274V49.1875V59.1875H322.774V49.1875ZM295.274 49.1875H305.274V37.457H295.274H285.274V49.1875H295.274ZM295.274 37.457V47.457H302.192V37.457V27.457H295.274V37.457ZM302.192 37.457H292.192V43.6875H302.192H312.192V37.457H302.192ZM302.192 43.6875V53.6875H322.774V43.6875V33.6875H302.192V43.6875Z" fill="white" mask="url(#path-1-outside-1_3990_1407)"/>
</g>
<defs>
<filter id="filter0_d_3990_1407" x="0" y="0" width="340.555" height="67.875" filterUnits="userSpaceOnUse" color-interpolation-filters="sRGB">
<feFlood flood-opacity="0" result="BackgroundImageFix"/>
<feColorMatrix in="SourceAlpha" type="matrix" values="0 0 0 0 0 0 0 0 0 0 0 0 0 0 0 0 0 0 127 0" result="hardAlpha"/>
<feOffset dy="4"/>
<feGaussianBlur stdDeviation="2"/>
<feComposite in2="hardAlpha" operator="out"/>
<feColorMatrix type="matrix" values="0 0 0 0 0 0 0 0 0 0 0 0 0 0 0 0 0 0 0.07 0"/>
<feBlend mode="normal" in2="BackgroundImageFix" result="effect1_dropShadow_3990_1407"/>
<feBlend mode="normal" in="SourceGraphic" in2="effect1_dropShadow_3990_1407" result="shape"/>
</filter>
</defs>
</svg>
