<svg width="264" height="68" viewBox="0 0 264 68" fill="none" xmlns="http://www.w3.org/2000/svg">
<g filter="url(#filter0_d_3990_1432)">
<mask id="path-1-outside-1_3990_1432" maskUnits="userSpaceOnUse" x="3.84024" y="-0.507813" width="256" height="61" fill="black">
<rect fill="white" x="3.84024" y="-0.507813" width="256" height="61"/>
<path d="M48.4184 10V49.7461H41.8441V10L48.4184 10ZM39.9535 10.4727V48.0273H33.4652V29.6367H31.5316C30.9516 37.457 27.6215 42.0977 22.7231 42.0977C17.3949 42.0977 13.9574 36.5117 14.0004 27.2734C13.9574 18.1211 17.3949 12.5352 22.7231 12.5352C27.4711 12.5352 30.7367 16.8965 31.4887 24.2227H33.4652V10.4727H39.9535ZM22.7231 19.0664C21.0902 19.0664 20.2738 21.4297 20.3168 27.2734C20.2738 33.1602 21.0902 35.4805 22.7231 35.4805C24.3988 35.4805 25.3012 33.1602 25.3012 27.2734C25.3012 21.4297 24.3988 19.0664 22.7231 19.0664ZM85.7152 10V49.875H78.8402V27.3164L68.9574 27.3164V21.8164L78.8402 21.8164V10H85.7152ZM60.6215 14.168V34.9648C65.1762 34.8574 70.1176 34.3848 75.102 33.418L75.7895 39.0469C69.3441 40.4219 62.8988 40.7227 57.2699 40.6797H53.7465V14.168H60.6215ZM105.911 19.9687C105.911 26.1992 108.231 33.0742 115.407 35.9961L111.754 41.3672C107.2 39.498 104.256 36.0176 102.559 31.7422C100.819 36.4902 97.8324 40.3574 93.1918 42.3984L89.3246 36.9844C96.4574 33.8906 98.8637 26.6289 98.8637 19.9687V19.2812H91.0434V13.6953H113.516V19.2812H105.911V19.9687ZM123.356 10V49.7461H116.395V10H123.356ZM171.223 34.1055V49.4023H144.153V34.1055H171.223ZM150.985 39.5195V43.9023H164.52V39.5195H150.985ZM146.344 11.9336V26.0273C150.727 25.8984 155.582 25.4902 160.524 24.5664L161.211 30.2812C154.809 31.5273 148.536 31.8281 143.036 31.7852L139.555 31.7852V11.9336H146.344ZM171.223 10V32.6016H164.348V21.6875H155.539V16.1875H164.348V10H171.223ZM208.907 10V49.7461H202.032V10H208.907ZM191.547 22.2031C191.547 27.3594 193.868 33.8477 200.914 36.7266L197.262 41.9687C192.858 40.25 189.893 36.8125 188.153 32.6875C186.413 37.0703 183.405 40.7441 178.871 42.5273L175.262 37.2852C182.223 34.2773 184.629 27.6172 184.629 22.2031V21.6875H176.766V16.2305H184.586V11.0312H191.461V16.2305H199.153V21.6875H191.547V22.2031ZM245.817 20.0977V25.4258H217.715V11.418H224.59V20.0977H245.817ZM249.727 28.9492V34.2773H213.461V28.9492H249.727ZM246.075 43.4727V48.9727H217.243V37.0273H224.204V43.4727H246.075Z"/>
</mask>
<path d="M48.4184 10V49.7461H41.8441V10L48.4184 10ZM39.9535 10.4727V48.0273H33.4652V29.6367H31.5316C30.9516 37.457 27.6215 42.0977 22.7231 42.0977C17.3949 42.0977 13.9574 36.5117 14.0004 27.2734C13.9574 18.1211 17.3949 12.5352 22.7231 12.5352C27.4711 12.5352 30.7367 16.8965 31.4887 24.2227H33.4652V10.4727H39.9535ZM22.7231 19.0664C21.0902 19.0664 20.2738 21.4297 20.3168 27.2734C20.2738 33.1602 21.0902 35.4805 22.7231 35.4805C24.3988 35.4805 25.3012 33.1602 25.3012 27.2734C25.3012 21.4297 24.3988 19.0664 22.7231 19.0664ZM85.7152 10V49.875H78.8402V27.3164L68.9574 27.3164V21.8164L78.8402 21.8164V10H85.7152ZM60.6215 14.168V34.9648C65.1762 34.8574 70.1176 34.3848 75.102 33.418L75.7895 39.0469C69.3441 40.4219 62.8988 40.7227 57.2699 40.6797H53.7465V14.168H60.6215ZM105.911 19.9687C105.911 26.1992 108.231 33.0742 115.407 35.9961L111.754 41.3672C107.2 39.498 104.256 36.0176 102.559 31.7422C100.819 36.4902 97.8324 40.3574 93.1918 42.3984L89.3246 36.9844C96.4574 33.8906 98.8637 26.6289 98.8637 19.9687V19.2812H91.0434V13.6953H113.516V19.2812H105.911V19.9687ZM123.356 10V49.7461H116.395V10H123.356ZM171.223 34.1055V49.4023H144.153V34.1055H171.223ZM150.985 39.5195V43.9023H164.52V39.5195H150.985ZM146.344 11.9336V26.0273C150.727 25.8984 155.582 25.4902 160.524 24.5664L161.211 30.2812C154.809 31.5273 148.536 31.8281 143.036 31.7852L139.555 31.7852V11.9336H146.344ZM171.223 10V32.6016H164.348V21.6875H155.539V16.1875H164.348V10H171.223ZM208.907 10V49.7461H202.032V10H208.907ZM191.547 22.2031C191.547 27.3594 193.868 33.8477 200.914 36.7266L197.262 41.9687C192.858 40.25 189.893 36.8125 188.153 32.6875C186.413 37.0703 183.405 40.7441 178.871 42.5273L175.262 37.2852C182.223 34.2773 184.629 27.6172 184.629 22.2031V21.6875H176.766V16.2305H184.586V11.0312H191.461V16.2305H199.153V21.6875H191.547V22.2031ZM245.817 20.0977V25.4258H217.715V11.418H224.59V20.0977H245.817ZM249.727 28.9492V34.2773H213.461V28.9492H249.727ZM246.075 43.4727V48.9727H217.243V37.0273H224.204V43.4727H246.075Z" fill="#11DCA9"/>
<path d="M48.4184 10H58.4184C58.4184 4.47715 53.9412 0 48.4184 0V10ZM48.4184 49.7461V59.7461C53.9412 59.7461 58.4184 55.2689 58.4184 49.7461H48.4184ZM41.8441 49.7461H31.8441C31.8441 55.2689 36.3213 59.7461 41.8441 59.7461V49.7461ZM41.8441 10V0C36.3213 0 31.8441 4.47715 31.8441 10H41.8441ZM39.9535 10.4727L49.9535 10.4727C49.9535 4.94981 45.4764 0.472656 39.9535 0.472656V10.4727ZM39.9535 48.0273V58.0273C45.4764 58.0273 49.9535 53.5502 49.9535 48.0273H39.9535ZM33.4652 48.0273H23.4652C23.4652 53.5502 27.9424 58.0273 33.4652 58.0273V48.0273ZM33.4652 29.6367H43.4652C43.4652 24.1139 38.9881 19.6367 33.4652 19.6367V29.6367ZM31.5316 29.6367V19.6367C26.2958 19.6367 21.9464 23.6755 21.559 28.897L31.5316 29.6367ZM14.0004 27.2734L24.0003 27.3199C24.0004 27.2888 24.0004 27.2576 24.0003 27.2265L14.0004 27.2734ZM31.4887 24.2227L21.5409 25.2437C22.0645 30.3444 26.3612 34.2227 31.4887 34.2227V24.2227ZM33.4652 24.2227V34.2227C38.9881 34.2227 43.4652 29.7455 43.4652 24.2227H33.4652ZM33.4652 10.4727V0.472656C27.9424 0.472656 23.4652 4.94981 23.4652 10.4727H33.4652ZM20.3168 27.2734L30.3165 27.3464C30.3169 27.2976 30.3169 27.2487 30.3165 27.1999L20.3168 27.2734ZM48.4184 10L38.4184 10V49.7461H48.4184H58.4184V10H48.4184ZM48.4184 49.7461V39.7461H41.8441V49.7461V59.7461H48.4184V49.7461ZM41.8441 49.7461H51.8441V10L41.8441 10H31.8441V49.7461H41.8441ZM41.8441 10V20H48.4184V10V0H41.8441V10ZM39.9535 10.4727H29.9535V48.0273H39.9535H49.9535V10.4727L39.9535 10.4727ZM39.9535 48.0273V38.0273H33.4652V48.0273V58.0273H39.9535V48.0273ZM33.4652 48.0273H43.4652V29.6367H33.4652H23.4652V48.0273H33.4652ZM33.4652 29.6367V19.6367H31.5316V29.6367V39.6367H33.4652V29.6367ZM31.5316 29.6367L21.559 28.897C21.4597 30.2367 21.2557 31.2436 21.0382 31.9531C20.8185 32.6701 20.6198 32.9727 20.5921 33.0117C20.5776 33.0321 20.7679 32.7625 21.2539 32.4944C21.7693 32.2101 22.3119 32.0977 22.7231 32.0977V42.0977V52.0977C28.8121 52.0977 33.7526 49.024 36.9013 44.5879C39.8266 40.4667 41.1332 35.3792 41.5042 30.3764L31.5316 29.6367ZM22.7231 42.0977V32.0977C23.2171 32.0977 23.8443 32.25 24.3991 32.596C24.9048 32.9115 25.0303 33.1857 24.9384 33.0316C24.6743 32.5883 23.9837 30.8849 24.0003 27.3199L14.0004 27.2734L4.0005 27.2269C3.97412 32.9002 4.98078 38.609 7.75672 43.2682C10.7468 48.287 15.9292 52.0977 22.7231 52.0977V42.0977ZM14.0004 27.2734L24.0003 27.2265C23.9838 23.7189 24.6694 22.0402 24.9289 21.6064C25.0191 21.4557 24.8935 21.7276 24.3914 22.0402C23.8406 22.3831 23.2168 22.5352 22.7231 22.5352V12.5352V2.53516C15.9358 2.53516 10.7575 6.33843 7.76624 11.3379C4.9857 15.9852 3.974 21.6756 4.00051 27.3204L14.0004 27.2734ZM22.7231 12.5352V22.5352C22.3275 22.5352 21.8047 22.431 21.3002 22.1632C20.821 21.9087 20.613 21.6431 20.6031 21.6299C20.6016 21.6279 20.6469 21.6882 20.721 21.834C20.7951 21.98 20.8918 22.1994 20.9954 22.5058C21.2055 23.128 21.4162 24.0281 21.5409 25.2437L31.4887 24.2227L41.4364 23.2016C40.9473 18.4359 39.5552 13.5677 36.6057 9.63331C33.4366 5.40601 28.6 2.53516 22.7231 2.53516V12.5352ZM31.4887 24.2227V34.2227H33.4652V24.2227V14.2227H31.4887V24.2227ZM33.4652 24.2227H43.4652V10.4727H33.4652H23.4652V24.2227H33.4652ZM33.4652 10.4727V20.4727H39.9535V10.4727V0.472656L33.4652 0.472656V10.4727ZM22.7231 19.0664V9.06641C19.5636 9.06641 16.6437 10.3424 14.4972 12.5409C12.6395 14.4435 11.7703 16.6056 11.3262 18.0623C10.457 20.9133 10.2942 24.2421 10.3171 27.347L20.3168 27.2734L30.3165 27.1999C30.3074 25.9553 30.3461 25.0595 30.403 24.4421C30.4635 23.7845 30.5245 23.6728 30.4568 23.8948C30.4156 24.0301 30.054 25.2362 28.8072 26.5131C28.1318 27.2048 27.2215 27.8881 26.0679 28.3795C24.91 28.8728 23.7557 29.0664 22.7231 29.0664V19.0664ZM20.3168 27.2734L10.3171 27.2004C10.2943 30.3168 10.4553 33.656 11.3295 36.5116C11.7777 37.9756 12.6561 40.1469 14.535 42.0505C16.704 44.2482 19.6181 45.4805 22.7231 45.4805V35.4805V25.4805C23.7316 25.4805 24.8698 25.6659 26.0202 26.1489C27.1688 26.6311 28.0839 27.3067 28.7694 28.0013C30.0374 29.286 30.4082 30.5093 30.4535 30.6573C30.5245 30.8893 30.4638 30.7848 30.4031 30.1247C30.3463 29.5055 30.3074 28.6041 30.3165 27.3464L20.3168 27.2734ZM22.7231 35.4805V45.4805C25.7441 45.4805 28.6039 44.3219 30.7823 42.2166C32.6974 40.3657 33.6388 38.2247 34.1351 36.7235C35.0956 33.8183 35.3012 30.4309 35.3012 27.2734H25.3012H15.3012C15.3012 28.5116 15.2527 29.3909 15.1897 29.9854C15.1225 30.6193 15.062 30.6994 15.146 30.4455C15.2072 30.2602 15.6088 29.0671 16.8834 27.8353C17.5659 27.1757 18.4593 26.5468 19.5612 26.1005C20.6639 25.654 21.7527 25.4805 22.7231 25.4805V35.4805ZM25.3012 27.2734H35.3012C35.3012 24.1273 35.0938 20.751 34.1389 17.851C33.6472 16.3577 32.7156 14.2248 30.821 12.3739C28.6634 10.2661 25.7966 9.06641 22.7231 9.06641V19.0664V29.0664C21.7294 29.0664 20.6248 28.8853 19.5144 28.429C18.4071 27.974 17.5177 27.3375 16.8447 26.68C15.5906 25.4548 15.1988 24.278 15.1422 24.106C15.0619 23.8624 15.1228 23.9499 15.1899 24.5816C15.2529 25.1746 15.3012 26.0484 15.3012 27.2734H25.3012ZM85.7152 10H95.7152C95.7152 4.47715 91.2381 0 85.7152 0V10ZM85.7152 49.875V59.875C91.2381 59.875 95.7152 55.3978 95.7152 49.875H85.7152ZM78.8402 49.875H68.8402C68.8402 55.3978 73.3174 59.875 78.8402 59.875V49.875ZM78.8402 27.3164H88.8402C88.8402 21.7936 84.3631 17.3164 78.8402 17.3164V27.3164ZM68.9574 27.3164H58.9574C58.9574 32.8393 63.4346 37.3164 68.9574 37.3164V27.3164ZM68.9574 21.8164V11.8164C63.4346 11.8164 58.9574 16.2936 58.9574 21.8164H68.9574ZM78.8402 21.8164V31.8164C84.3631 31.8164 88.8402 27.3393 88.8402 21.8164H78.8402ZM78.8402 10V0C73.3174 0 68.8402 4.47715 68.8402 10H78.8402ZM60.6215 14.168H70.6215C70.6215 8.64512 66.1443 4.16797 60.6215 4.16797V14.168ZM60.6215 34.9648H50.6215C50.6215 37.6579 51.7077 40.2371 53.6343 42.1188C55.5609 44.0005 58.165 45.0256 60.8573 44.9621L60.6215 34.9648ZM75.102 33.418L85.0282 32.2056C84.6919 29.4523 83.2272 26.9624 80.984 25.3308C78.7408 23.6993 75.9208 23.0728 73.1978 23.6009L75.102 33.418ZM75.7895 39.0469L77.8758 48.8268C82.9416 47.7461 86.3437 42.9761 85.7157 37.8345L75.7895 39.0469ZM57.2699 40.6797L57.3463 30.68C57.3208 30.6798 57.2954 30.6797 57.2699 30.6797V40.6797ZM53.7465 40.6797H43.7465C43.7465 46.2025 48.2236 50.6797 53.7465 50.6797V40.6797ZM53.7465 14.168V4.16797C48.2236 4.16797 43.7465 8.64512 43.7465 14.168H53.7465ZM85.7152 10H75.7152V49.875H85.7152H95.7152V10H85.7152ZM85.7152 49.875V39.875H78.8402V49.875V59.875H85.7152V49.875ZM78.8402 49.875H88.8402V27.3164H78.8402L68.8402 27.3164V49.875H78.8402ZM78.8402 27.3164V17.3164L68.9574 17.3164V27.3164V37.3164H78.8402V27.3164ZM68.9574 27.3164L78.9574 27.3164V21.8164L68.9574 21.8164H58.9574V27.3164H68.9574ZM68.9574 21.8164V31.8164H78.8402V21.8164V11.8164H68.9574V21.8164ZM78.8402 21.8164H88.8402V10H78.8402H68.8402V21.8164L78.8402 21.8164ZM78.8402 10V20H85.7152V10V0L78.8402 0V10ZM60.6215 14.168H50.6215V34.9648H60.6215H70.6215V14.168H60.6215ZM60.6215 34.9648L60.8573 44.9621C65.9177 44.8427 71.4207 44.3184 77.0061 43.235L75.102 33.418L73.1978 23.6009C68.8145 24.4511 64.4346 24.8721 60.3857 24.9676L60.6215 34.9648ZM75.102 33.418L65.1757 34.6303L65.8632 40.2592L75.7895 39.0469L85.7157 37.8345L85.0282 32.2056L75.102 33.418ZM75.7895 39.0469L73.7031 29.2669C68.2485 30.4306 62.6052 30.7201 57.3463 30.68L57.2699 40.6797L57.1936 50.6794C63.1924 50.7252 70.4398 50.4132 77.8758 48.8268L75.7895 39.0469ZM57.2699 40.6797V30.6797H53.7465V40.6797V50.6797H57.2699V40.6797ZM53.7465 40.6797H63.7465V14.168H53.7465H43.7465V40.6797H53.7465ZM53.7465 14.168V24.168H60.6215V14.168V4.16797H53.7465V14.168ZM115.407 35.9961L123.676 41.6192C125.373 39.1228 125.852 35.9932 124.979 33.1034C124.106 30.2136 121.974 27.8729 119.178 26.7345L115.407 35.9961ZM111.754 41.3672L107.958 50.6185C112.332 52.4134 117.365 50.8999 120.024 46.9903L111.754 41.3672ZM102.559 31.7422L111.853 28.0525C110.323 24.198 106.573 21.6879 102.426 21.7431C98.2793 21.7982 94.5969 24.4071 93.1698 28.3009L102.559 31.7422ZM93.1918 42.3984L85.0545 48.2108C87.8066 52.0637 92.8836 53.4585 97.2178 51.5522L93.1918 42.3984ZM89.3246 36.9844L85.3454 27.8102C82.575 29.0118 80.496 31.401 79.6886 34.3108C78.8813 37.2206 79.4321 40.3395 81.1873 42.7968L89.3246 36.9844ZM98.8637 19.2812H108.864C108.864 13.7584 104.387 9.28125 98.8637 9.28125V19.2812ZM91.0434 19.2812H81.0434C81.0434 24.8041 85.5205 29.2812 91.0434 29.2812V19.2812ZM91.0434 13.6953V3.69531C85.5205 3.69531 81.0434 8.17247 81.0434 13.6953H91.0434ZM113.516 13.6953H123.516C123.516 8.17247 119.039 3.69531 113.516 3.69531V13.6953ZM113.516 19.2812V29.2812C119.039 29.2812 123.516 24.8041 123.516 19.2812H113.516ZM105.911 19.2812V9.28125C100.388 9.28125 95.9106 13.7584 95.9106 19.2812H105.911ZM123.356 10H133.356C133.356 4.47715 128.879 0 123.356 0V10ZM123.356 49.7461V59.7461C128.879 59.7461 133.356 55.2689 133.356 49.7461H123.356ZM116.395 49.7461H106.395C106.395 55.2689 110.872 59.7461 116.395 59.7461V49.7461ZM116.395 10V0C110.872 0 106.395 4.47715 106.395 10L116.395 10ZM105.911 19.9687H95.9106C95.9106 28.2505 99.123 40.1628 111.635 45.2577L115.407 35.9961L119.178 26.7345C117.976 26.2452 117.33 25.5594 116.855 24.638C116.29 23.5438 115.911 21.937 115.911 19.9687H105.911ZM115.407 35.9961L107.137 30.373L103.485 35.7441L111.754 41.3672L120.024 46.9903L123.676 41.6192L115.407 35.9961ZM111.754 41.3672L115.551 32.1159C113.927 31.4494 112.729 30.2591 111.853 28.0525L102.559 31.7422L93.2646 35.4319C95.7831 41.776 100.472 47.5467 107.958 50.6185L111.754 41.3672ZM102.559 31.7422L93.1698 28.3009C92.1072 31.1999 90.7032 32.5685 89.1658 33.2447L93.1918 42.3984L97.2178 51.5522C104.962 48.1464 109.53 41.7805 111.948 35.1835L102.559 31.7422ZM93.1918 42.3984L101.329 36.5861L97.462 31.172L89.3246 36.9844L81.1873 42.7968L85.0545 48.2108L93.1918 42.3984ZM89.3246 36.9844L93.3038 46.1586C105.725 40.7711 108.864 28.4633 108.864 19.9687H98.8637H88.8637C88.8637 22.1894 88.4493 24.0718 87.7963 25.3991C87.2187 26.573 86.4766 27.3196 85.3454 27.8102L89.3246 36.9844ZM98.8637 19.9687H108.864V19.2812H98.8637H88.8637V19.9687H98.8637ZM98.8637 19.2812V9.28125H91.0434V19.2812V29.2812H98.8637V19.2812ZM91.0434 19.2812H101.043V13.6953H91.0434H81.0434V19.2812H91.0434ZM91.0434 13.6953V23.6953H113.516V13.6953V3.69531L91.0434 3.69531V13.6953ZM113.516 13.6953H103.516V19.2812H113.516H123.516V13.6953H113.516ZM113.516 19.2812V9.28125L105.911 9.28125V19.2812V29.2812H113.516V19.2812ZM105.911 19.2812H95.9106V19.9687H105.911H115.911V19.2812H105.911ZM123.356 10H113.356V49.7461H123.356H133.356V10H123.356ZM123.356 49.7461V39.7461H116.395V49.7461V59.7461H123.356V49.7461ZM116.395 49.7461H126.395V10H116.395L106.395 10V49.7461H116.395ZM116.395 10V20H123.356V10V0L116.395 0V10ZM171.223 34.1055H181.223C181.223 28.5826 176.746 24.1055 171.223 24.1055V34.1055ZM171.223 49.4023V59.4023C176.746 59.4023 181.223 54.9252 181.223 49.4023H171.223ZM144.153 49.4023L134.153 49.4023C134.153 54.9252 138.63 59.4023 144.153 59.4023V49.4023ZM144.153 34.1055V24.1055C138.63 24.1055 134.153 28.5826 134.153 34.1055L144.153 34.1055ZM150.985 39.5195V29.5195C145.462 29.5195 140.985 33.9967 140.985 39.5195H150.985ZM150.985 43.9023H140.985C140.985 49.4252 145.462 53.9023 150.985 53.9023V43.9023ZM164.52 43.9023V53.9023C170.043 53.9023 174.52 49.4252 174.52 43.9023H164.52ZM164.52 39.5195H174.52C174.52 33.9967 170.043 29.5195 164.52 29.5195V39.5195ZM146.344 11.9336H156.344C156.344 6.41075 151.867 1.93359 146.344 1.93359V11.9336ZM146.344 26.0273H136.344C136.344 28.7305 137.438 31.3185 139.378 33.2016C141.317 35.0847 143.936 36.1025 146.638 36.023L146.344 26.0273ZM160.524 24.5664L170.452 23.372C170.122 20.6267 168.67 18.1406 166.44 16.5046C164.211 14.8685 161.404 14.2286 158.686 14.7367L160.524 24.5664ZM161.211 30.2812L163.122 40.0971C168.267 39.0956 171.766 34.2911 171.14 29.0869L161.211 30.2812ZM143.036 31.7852L143.114 21.7855C143.088 21.7853 143.062 21.7852 143.036 21.7852V31.7852ZM139.555 31.7852H129.555C129.555 37.308 134.032 41.7852 139.555 41.7852V31.7852ZM139.555 11.9336V1.93359C134.032 1.93359 129.555 6.41075 129.555 11.9336H139.555ZM171.223 10L181.223 10C181.223 4.47715 176.746 0 171.223 0V10ZM171.223 32.6016V42.6016C176.746 42.6016 181.223 38.1244 181.223 32.6016H171.223ZM164.348 32.6016H154.348C154.348 38.1244 158.825 42.6016 164.348 42.6016V32.6016ZM164.348 21.6875H174.348C174.348 16.1647 169.871 11.6875 164.348 11.6875V21.6875ZM155.539 21.6875H145.539C145.539 27.2103 150.017 31.6875 155.539 31.6875V21.6875ZM155.539 16.1875V6.1875C150.017 6.1875 145.539 10.6647 145.539 16.1875H155.539ZM164.348 16.1875V26.1875C169.871 26.1875 174.348 21.7103 174.348 16.1875H164.348ZM164.348 10V0C158.825 0 154.348 4.47715 154.348 10H164.348ZM171.223 34.1055H161.223V49.4023H171.223H181.223V34.1055H171.223ZM171.223 49.4023V39.4023H144.153V49.4023V59.4023H171.223V49.4023ZM144.153 49.4023H154.153V34.1055H144.153L134.153 34.1055V49.4023L144.153 49.4023ZM144.153 34.1055V44.1055H171.223V34.1055V24.1055H144.153V34.1055ZM150.985 39.5195H140.985V43.9023H150.985H160.985V39.5195H150.985ZM150.985 43.9023V53.9023H164.52V43.9023V33.9023H150.985V43.9023ZM164.52 43.9023H174.52V39.5195H164.52H154.52V43.9023H164.52ZM164.52 39.5195V29.5195H150.985V39.5195V49.5195H164.52V39.5195ZM146.344 11.9336H136.344V26.0273H146.344H156.344V11.9336H146.344ZM146.344 26.0273L146.638 36.023C151.408 35.8827 156.796 35.4365 162.362 34.3961L160.524 24.5664L158.686 14.7367C154.368 15.5439 150.046 15.9142 146.05 16.0317L146.344 26.0273ZM160.524 24.5664L150.595 25.7608L151.283 31.4756L161.211 30.2812L171.14 29.0869L170.452 23.372L160.524 24.5664ZM161.211 30.2812L159.301 20.4654C153.775 21.541 148.218 21.8253 143.114 21.7855L143.036 31.7852L142.957 41.7849C148.854 41.8309 155.843 41.5137 163.122 40.0971L161.211 30.2812ZM143.036 31.7852V21.7852H139.555V31.7852V41.7852L143.036 41.7852V31.7852ZM139.555 31.7852L149.555 31.7852V11.9336H139.555H129.555V31.7852H139.555ZM139.555 11.9336V21.9336H146.344V11.9336V1.93359H139.555V11.9336ZM171.223 10H161.223V32.6016H171.223H181.223V10L171.223 10ZM171.223 32.6016V22.6016H164.348V32.6016V42.6016H171.223V32.6016ZM164.348 32.6016H174.348V21.6875H164.348H154.348V32.6016H164.348ZM164.348 21.6875V11.6875H155.539V21.6875V31.6875H164.348V21.6875ZM155.539 21.6875H165.539V16.1875H155.539H145.539V21.6875H155.539ZM155.539 16.1875V26.1875H164.348V16.1875V6.1875H155.539V16.1875ZM164.348 16.1875H174.348V10L164.348 10H154.348V16.1875H164.348ZM164.348 10V20H171.223V10V0L164.348 0V10ZM208.907 10H218.907C218.907 4.47715 214.429 0 208.907 0V10ZM208.907 49.7461V59.7461C214.429 59.7461 218.907 55.2689 218.907 49.7461H208.907ZM202.032 49.7461H192.032C192.032 55.2689 196.509 59.7461 202.032 59.7461V49.7461ZM202.032 10V0C196.509 0 192.032 4.47715 192.032 10H202.032ZM200.914 36.7266L209.119 42.4431C210.855 39.9515 211.365 36.8061 210.505 33.8937C209.645 30.9814 207.508 28.6178 204.696 27.4693L200.914 36.7266ZM197.262 41.9687L193.627 51.2845C197.931 52.9643 202.826 51.4764 205.467 47.6853L197.262 41.9687ZM188.153 32.6875L197.366 28.8005C195.788 25.0602 192.106 22.6449 188.046 22.6881C183.987 22.7312 180.357 25.2241 178.859 28.9972L188.153 32.6875ZM178.871 42.5273L170.635 48.1984C173.273 52.0294 178.204 53.5359 182.532 51.8332L178.871 42.5273ZM175.262 37.2852L171.296 28.1055C168.549 29.2922 166.478 31.6464 165.651 34.5219C164.825 37.3973 165.329 40.4919 167.026 42.9562L175.262 37.2852ZM184.629 21.6875H194.629C194.629 16.1647 190.152 11.6875 184.629 11.6875V21.6875ZM176.766 21.6875H166.766C166.766 27.2103 171.243 31.6875 176.766 31.6875V21.6875ZM176.766 16.2305V6.23047C171.243 6.23047 166.766 10.7076 166.766 16.2305H176.766ZM184.586 16.2305V26.2305C190.109 26.2305 194.586 21.7533 194.586 16.2305H184.586ZM184.586 11.0312V1.03125C179.063 1.03125 174.586 5.5084 174.586 11.0312H184.586ZM191.461 11.0312H201.461C201.461 5.5084 196.984 1.03125 191.461 1.03125V11.0312ZM191.461 16.2305H181.461C181.461 21.7533 185.938 26.2305 191.461 26.2305V16.2305ZM199.153 16.2305L209.153 16.2305C209.153 10.7076 204.676 6.23047 199.153 6.23047V16.2305ZM199.153 21.6875V31.6875C204.676 31.6875 209.153 27.2103 209.153 21.6875L199.153 21.6875ZM191.547 21.6875V11.6875C186.024 11.6875 181.547 16.1647 181.547 21.6875H191.547ZM208.907 10H198.907V49.7461H208.907H218.907V10H208.907ZM208.907 49.7461V39.7461H202.032V49.7461V59.7461H208.907V49.7461ZM202.032 49.7461H212.032V10H202.032H192.032V49.7461H202.032ZM202.032 10V20L208.907 20V10V0H202.032V10ZM191.547 22.2031H181.547C181.547 29.9923 185.157 41.0916 197.133 45.9838L200.914 36.7266L204.696 27.4693C203.407 26.9424 202.754 26.2242 202.327 25.4579C201.825 24.5544 201.547 23.3727 201.547 22.2031H191.547ZM200.914 36.7266L192.71 31.01L189.057 36.2522L197.262 41.9687L205.467 47.6853L209.119 42.4431L200.914 36.7266ZM197.262 41.9687L200.898 32.653C199.518 32.1146 198.29 30.9891 197.366 28.8005L188.153 32.6875L178.939 36.5745C181.496 42.6359 186.198 48.3854 193.627 51.2845L197.262 41.9687ZM188.153 32.6875L178.859 28.9972C177.861 31.5089 176.545 32.6965 175.211 33.2214L178.871 42.5273L182.532 51.8332C190.264 48.7918 194.964 42.6317 197.447 36.3778L188.153 32.6875ZM178.871 42.5273L187.108 36.8563L183.499 31.6141L175.262 37.2852L167.026 42.9562L170.635 48.1984L178.871 42.5273ZM175.262 37.2852L179.229 46.4648C191.017 41.3711 194.629 30.1614 194.629 22.2031H184.629H174.629C174.629 23.5167 174.323 24.8491 173.763 25.8848C173.269 26.797 172.55 27.5636 171.296 28.1055L175.262 37.2852ZM184.629 22.2031H194.629V21.6875H184.629H174.629V22.2031H184.629ZM184.629 21.6875V11.6875H176.766V21.6875V31.6875H184.629V21.6875ZM176.766 21.6875H186.766V16.2305H176.766H166.766V21.6875H176.766ZM176.766 16.2305V26.2305H184.586V16.2305V6.23047H176.766V16.2305ZM184.586 16.2305H194.586V11.0312H184.586H174.586V16.2305H184.586ZM184.586 11.0312V21.0312H191.461V11.0312V1.03125L184.586 1.03125V11.0312ZM191.461 11.0312H181.461V16.2305H191.461H201.461V11.0312H191.461ZM191.461 16.2305V26.2305H199.153V16.2305V6.23047H191.461V16.2305ZM199.153 16.2305H189.153V21.6875H199.153L209.153 21.6875V16.2305L199.153 16.2305ZM199.153 21.6875V11.6875H191.547V21.6875V31.6875H199.153V21.6875ZM191.547 21.6875H181.547V22.2031H191.547H201.547V21.6875H191.547ZM245.817 20.0977H255.817C255.817 14.5748 251.34 10.0977 245.817 10.0977V20.0977ZM245.817 25.4258V35.4258C251.34 35.4258 255.817 30.9486 255.817 25.4258H245.817ZM217.715 25.4258H207.715C207.715 30.9486 212.192 35.4258 217.715 35.4258V25.4258ZM217.715 11.418V1.41797C212.192 1.41797 207.715 5.89512 207.715 11.418H217.715ZM224.59 11.418H234.59C234.59 5.89512 230.113 1.41797 224.59 1.41797V11.418ZM224.59 20.0977H214.59C214.59 25.6205 219.067 30.0977 224.59 30.0977V20.0977ZM249.727 28.9492H259.727C259.727 23.4264 255.25 18.9492 249.727 18.9492V28.9492ZM249.727 34.2773V44.2773C255.25 44.2773 259.727 39.8002 259.727 34.2773H249.727ZM213.461 34.2773H203.461C203.461 39.8002 207.938 44.2773 213.461 44.2773V34.2773ZM213.461 28.9492V18.9492C207.938 18.9492 203.461 23.4264 203.461 28.9492H213.461ZM246.075 43.4727H256.075C256.075 37.9498 251.597 33.4727 246.075 33.4727V43.4727ZM246.075 48.9727V58.9727C251.597 58.9727 256.075 54.4955 256.075 48.9727H246.075ZM217.243 48.9727H207.243C207.243 54.4955 211.72 58.9727 217.243 58.9727V48.9727ZM217.243 37.0273V27.0273C211.72 27.0273 207.243 31.5045 207.243 37.0273H217.243ZM224.204 37.0273H234.204C234.204 31.5045 229.726 27.0273 224.204 27.0273V37.0273ZM224.204 43.4727H214.204C214.204 48.9955 218.681 53.4727 224.204 53.4727V43.4727ZM245.817 20.0977H235.817V25.4258H245.817H255.817V20.0977H245.817ZM245.817 25.4258V15.4258H217.715V25.4258V35.4258H245.817V25.4258ZM217.715 25.4258H227.715V11.418H217.715H207.715V25.4258H217.715ZM217.715 11.418V21.418H224.59V11.418V1.41797L217.715 1.41797V11.418ZM224.59 11.418H214.59V20.0977H224.59H234.59V11.418H224.59ZM224.59 20.0977V30.0977H245.817V20.0977V10.0977L224.59 10.0977V20.0977ZM249.727 28.9492H239.727V34.2773H249.727H259.727V28.9492H249.727ZM249.727 34.2773V24.2773H213.461V34.2773V44.2773H249.727V34.2773ZM213.461 34.2773H223.461V28.9492H213.461H203.461V34.2773H213.461ZM213.461 28.9492V38.9492H249.727V28.9492V18.9492H213.461V28.9492ZM246.075 43.4727H236.075V48.9727H246.075H256.075V43.4727H246.075ZM246.075 48.9727V38.9727H217.243V48.9727V58.9727H246.075V48.9727ZM217.243 48.9727H227.243V37.0273H217.243H207.243V48.9727H217.243ZM217.243 37.0273V47.0273H224.204V37.0273V27.0273H217.243V37.0273ZM224.204 37.0273H214.204V43.4727H224.204H234.204V37.0273H224.204ZM224.204 43.4727V53.4727H246.075V43.4727V33.4727H224.204V43.4727Z" fill="white" mask="url(#path-1-outside-1_3990_1432)"/>
</g>
<defs>
<filter id="filter0_d_3990_1432" x="0" y="0" width="263.727" height="67.875" filterUnits="userSpaceOnUse" color-interpolation-filters="sRGB">
<feFlood flood-opacity="0" result="BackgroundImageFix"/>
<feColorMatrix in="SourceAlpha" type="matrix" values="0 0 0 0 0 0 0 0 0 0 0 0 0 0 0 0 0 0 127 0" result="hardAlpha"/>
<feOffset dy="4"/>
<feGaussianBlur stdDeviation="2"/>
<feComposite in2="hardAlpha" operator="out"/>
<feColorMatrix type="matrix" values="0 0 0 0 0 0 0 0 0 0 0 0 0 0 0 0 0 0 0.07 0"/>
<feBlend mode="normal" in2="BackgroundImageFix" result="effect1_dropShadow_3990_1432"/>
<feBlend mode="normal" in="SourceGraphic" in2="effect1_dropShadow_3990_1432" result="shape"/>
</filter>
</defs>
</svg>
