<svg width="350" height="68" viewBox="0 0 350 68" fill="none" xmlns="http://www.w3.org/2000/svg">
<g filter="url(#filter0_d_3990_1508)">
<mask id="path-1-outside-1_3990_1508" maskUnits="userSpaceOnUse" x="3.84021" y="-0.507813" width="342" height="61" fill="black">
<rect fill="white" x="3.84021" y="-0.507813" width="342" height="61"/>
<path d="M48.4183 10V49.7461H41.8441V10L48.4183 10ZM39.9535 10.4727V48.0273H33.4652V29.6367H31.5316C30.9515 37.457 27.6215 42.0977 22.723 42.0977C17.3949 42.0977 13.9574 36.5117 14.0004 27.2734C13.9574 18.1211 17.3949 12.5352 22.723 12.5352C27.4711 12.5352 30.7367 16.8965 31.4886 24.2227H33.4652V10.4727H39.9535ZM22.723 19.0664C21.0902 19.0664 20.2738 21.4297 20.3168 27.2734C20.2738 33.1602 21.0902 35.4805 22.723 35.4805C24.3988 35.4805 25.3011 33.1602 25.3011 27.2734C25.3011 21.4297 24.3988 19.0664 22.723 19.0664ZM85.7152 10V49.875H78.8402V27.3164L68.9574 27.3164V21.8164L78.8402 21.8164V10H85.7152ZM60.6215 14.168V34.9648C65.1761 34.8574 70.1176 34.3848 75.1019 33.418L75.7894 39.0469C69.3441 40.4219 62.8988 40.7227 57.2699 40.6797H53.7465V14.168H60.6215ZM105.911 19.9687C105.911 26.1992 108.231 33.0742 115.407 35.9961L111.754 41.3672C107.2 39.498 104.256 36.0176 102.559 31.7422C100.819 36.4902 97.8324 40.3574 93.1918 42.3984L89.3246 36.9844C96.4574 33.8906 98.8636 26.6289 98.8636 19.9687V19.2812H91.0433V13.6953H113.516V19.2812H105.911V19.9687ZM123.356 10V49.7461H116.395V10H123.356ZM171.223 10V39.0898H164.348V30.4102H160.481V24.7812H164.348V22.1172H160.481V16.6602H164.348V10H171.223ZM159.493 12.6211V18.0781H156.743V28.9492L159.621 28.6914L159.922 33.6758C152.661 34.8789 144.196 35.0937 138.008 35.0508L137.364 29.5078L140.973 29.5078V18.0781H138.309V12.6211H159.493ZM172.082 43.6875V49.1875H144.282V37.0703H151.243V43.6875H172.082ZM147.633 29.3789L150.168 29.3359V18.0781H147.633V29.3789ZM190.516 22.2031C190.473 27.3594 192.621 33.6328 199.325 36.7266L195.586 41.9258C191.483 40.1426 188.754 36.791 187.121 32.8164C185.446 37.1348 182.567 40.7441 178.141 42.5703L174.446 37.2852C181.321 34.3203 183.641 27.5742 183.641 22.2031V21.6875H175.993V16.2305H183.598V11.0312H190.516V16.2305H198.036V21.6875H190.516V22.2031ZM207.145 10V24.9102H212.516V30.625H207.145V49.7461H200.227V10H207.145ZM245.172 10V24.6523H250.243V30.2812H245.172V49.6602H238.254V10H245.172ZM234.344 13.9531C234.301 26.2422 230.09 36.5547 216.512 43.2148L212.602 37.9727C221.453 33.5039 226.137 27.9395 227.34 19.5391H215.094V13.9531H234.344ZM276.196 34.793C276.196 37.7578 277.227 40.7871 280.063 42.9141C282.92 40.7012 284.059 37.6504 284.102 34.793V33.9336H290.848V34.793C290.848 38.9609 292.524 42.6133 297.938 44.2031L294.629 49.1445C290.955 47.9629 288.614 45.7715 287.239 42.9141C285.907 45.8145 283.651 48.2422 280.192 49.5312C276.561 48.2637 274.284 45.9004 272.973 43.043C271.555 45.793 269.256 47.9629 265.754 49.1445L262.403 44.2031C267.731 42.4414 269.45 38.6602 269.45 34.793V33.9336H276.196V34.793ZM294.586 10.0859V32.3437H287.668V10.0859H294.586ZM272.629 11.8906C278.903 11.8906 283.758 15.9297 283.758 21.6445C283.758 27.1875 278.903 31.2695 272.629 31.2695C266.313 31.2695 261.457 27.1875 261.5 21.6445C261.457 15.9297 266.313 11.8906 272.629 11.8906ZM272.629 17.6484C270.008 17.6484 268.203 18.9805 268.203 21.6445C268.203 24.1797 270.008 25.5977 272.629 25.5547C275.121 25.5977 276.926 24.1797 276.926 21.6445C276.926 18.9805 275.121 17.6484 272.629 17.6484ZM331.453 20.0977V25.4258H303.352V11.418H310.227V20.0977H331.453ZM335.364 28.9492V34.2773H299.098V28.9492H335.364ZM331.711 43.4727V48.9727H302.879V37.0273H309.84V43.4727H331.711Z"/>
</mask>
<path d="M48.4183 10V49.7461H41.8441V10L48.4183 10ZM39.9535 10.4727V48.0273H33.4652V29.6367H31.5316C30.9515 37.457 27.6215 42.0977 22.723 42.0977C17.3949 42.0977 13.9574 36.5117 14.0004 27.2734C13.9574 18.1211 17.3949 12.5352 22.723 12.5352C27.4711 12.5352 30.7367 16.8965 31.4886 24.2227H33.4652V10.4727H39.9535ZM22.723 19.0664C21.0902 19.0664 20.2738 21.4297 20.3168 27.2734C20.2738 33.1602 21.0902 35.4805 22.723 35.4805C24.3988 35.4805 25.3011 33.1602 25.3011 27.2734C25.3011 21.4297 24.3988 19.0664 22.723 19.0664ZM85.7152 10V49.875H78.8402V27.3164L68.9574 27.3164V21.8164L78.8402 21.8164V10H85.7152ZM60.6215 14.168V34.9648C65.1761 34.8574 70.1176 34.3848 75.1019 33.418L75.7894 39.0469C69.3441 40.4219 62.8988 40.7227 57.2699 40.6797H53.7465V14.168H60.6215ZM105.911 19.9687C105.911 26.1992 108.231 33.0742 115.407 35.9961L111.754 41.3672C107.2 39.498 104.256 36.0176 102.559 31.7422C100.819 36.4902 97.8324 40.3574 93.1918 42.3984L89.3246 36.9844C96.4574 33.8906 98.8636 26.6289 98.8636 19.9687V19.2812H91.0433V13.6953H113.516V19.2812H105.911V19.9687ZM123.356 10V49.7461H116.395V10H123.356ZM171.223 10V39.0898H164.348V30.4102H160.481V24.7812H164.348V22.1172H160.481V16.6602H164.348V10H171.223ZM159.493 12.6211V18.0781H156.743V28.9492L159.621 28.6914L159.922 33.6758C152.661 34.8789 144.196 35.0937 138.008 35.0508L137.364 29.5078L140.973 29.5078V18.0781H138.309V12.6211H159.493ZM172.082 43.6875V49.1875H144.282V37.0703H151.243V43.6875H172.082ZM147.633 29.3789L150.168 29.3359V18.0781H147.633V29.3789ZM190.516 22.2031C190.473 27.3594 192.621 33.6328 199.325 36.7266L195.586 41.9258C191.483 40.1426 188.754 36.791 187.121 32.8164C185.446 37.1348 182.567 40.7441 178.141 42.5703L174.446 37.2852C181.321 34.3203 183.641 27.5742 183.641 22.2031V21.6875H175.993V16.2305H183.598V11.0312H190.516V16.2305H198.036V21.6875H190.516V22.2031ZM207.145 10V24.9102H212.516V30.625H207.145V49.7461H200.227V10H207.145ZM245.172 10V24.6523H250.243V30.2812H245.172V49.6602H238.254V10H245.172ZM234.344 13.9531C234.301 26.2422 230.09 36.5547 216.512 43.2148L212.602 37.9727C221.453 33.5039 226.137 27.9395 227.34 19.5391H215.094V13.9531H234.344ZM276.196 34.793C276.196 37.7578 277.227 40.7871 280.063 42.9141C282.92 40.7012 284.059 37.6504 284.102 34.793V33.9336H290.848V34.793C290.848 38.9609 292.524 42.6133 297.938 44.2031L294.629 49.1445C290.955 47.9629 288.614 45.7715 287.239 42.9141C285.907 45.8145 283.651 48.2422 280.192 49.5312C276.561 48.2637 274.284 45.9004 272.973 43.043C271.555 45.793 269.256 47.9629 265.754 49.1445L262.403 44.2031C267.731 42.4414 269.45 38.6602 269.45 34.793V33.9336H276.196V34.793ZM294.586 10.0859V32.3437H287.668V10.0859H294.586ZM272.629 11.8906C278.903 11.8906 283.758 15.9297 283.758 21.6445C283.758 27.1875 278.903 31.2695 272.629 31.2695C266.313 31.2695 261.457 27.1875 261.5 21.6445C261.457 15.9297 266.313 11.8906 272.629 11.8906ZM272.629 17.6484C270.008 17.6484 268.203 18.9805 268.203 21.6445C268.203 24.1797 270.008 25.5977 272.629 25.5547C275.121 25.5977 276.926 24.1797 276.926 21.6445C276.926 18.9805 275.121 17.6484 272.629 17.6484ZM331.453 20.0977V25.4258H303.352V11.418H310.227V20.0977H331.453ZM335.364 28.9492V34.2773H299.098V28.9492H335.364ZM331.711 43.4727V48.9727H302.879V37.0273H309.84V43.4727H331.711Z" fill="#11DCA9"/>
<path d="M48.4183 10H58.4183C58.4183 4.47715 53.9412 0 48.4183 0V10ZM48.4183 49.7461V59.7461C53.9412 59.7461 58.4183 55.2689 58.4183 49.7461H48.4183ZM41.8441 49.7461H31.8441C31.8441 55.2689 36.3213 59.7461 41.8441 59.7461V49.7461ZM41.8441 10V0C36.3213 0 31.8441 4.47715 31.8441 10H41.8441ZM39.9535 10.4727L49.9535 10.4727C49.9535 4.94981 45.4763 0.472656 39.9535 0.472656V10.4727ZM39.9535 48.0273V58.0273C45.4763 58.0273 49.9535 53.5502 49.9535 48.0273H39.9535ZM33.4652 48.0273H23.4652C23.4652 53.5502 27.9424 58.0273 33.4652 58.0273V48.0273ZM33.4652 29.6367H43.4652C43.4652 24.1139 38.9881 19.6367 33.4652 19.6367V29.6367ZM31.5316 29.6367V19.6367C26.2957 19.6367 21.9463 23.6755 21.559 28.897L31.5316 29.6367ZM14.0004 27.2734L24.0003 27.3199C24.0004 27.2888 24.0004 27.2576 24.0003 27.2265L14.0004 27.2734ZM31.4886 24.2227L21.5409 25.2437C22.0644 30.3444 26.3611 34.2227 31.4886 34.2227V24.2227ZM33.4652 24.2227V34.2227C38.9881 34.2227 43.4652 29.7455 43.4652 24.2227H33.4652ZM33.4652 10.4727V0.472656C27.9424 0.472656 23.4652 4.94981 23.4652 10.4727H33.4652ZM20.3168 27.2734L30.3165 27.3464C30.3169 27.2976 30.3169 27.2487 30.3165 27.1999L20.3168 27.2734ZM48.4183 10L38.4183 10V49.7461H48.4183H58.4183V10H48.4183ZM48.4183 49.7461V39.7461H41.8441V49.7461V59.7461H48.4183V49.7461ZM41.8441 49.7461H51.8441V10L41.8441 10H31.8441V49.7461H41.8441ZM41.8441 10V20H48.4183V10V0H41.8441V10ZM39.9535 10.4727H29.9535V48.0273H39.9535H49.9535V10.4727L39.9535 10.4727ZM39.9535 48.0273V38.0273H33.4652V48.0273V58.0273H39.9535V48.0273ZM33.4652 48.0273H43.4652V29.6367H33.4652H23.4652V48.0273H33.4652ZM33.4652 29.6367V19.6367H31.5316V29.6367V39.6367H33.4652V29.6367ZM31.5316 29.6367L21.559 28.897C21.4596 30.2367 21.2556 31.2436 21.0382 31.9531C20.8185 32.6701 20.6197 32.9727 20.5921 33.0117C20.5776 33.0321 20.7679 32.7625 21.2539 32.4944C21.7693 32.2101 22.3119 32.0977 22.723 32.0977V42.0977V52.0977C28.812 52.0977 33.7526 49.024 36.9013 44.5879C39.8265 40.4667 41.1331 35.3792 41.5042 30.3764L31.5316 29.6367ZM22.723 42.0977V32.0977C23.2171 32.0977 23.8443 32.25 24.3991 32.596C24.9048 32.9115 25.0302 33.1857 24.9384 33.0316C24.6743 32.5883 23.9837 30.8849 24.0003 27.3199L14.0004 27.2734L4.00047 27.2269C3.97409 32.9002 4.98075 38.609 7.75669 43.2682C10.7468 48.287 15.9292 52.0977 22.723 52.0977V42.0977ZM14.0004 27.2734L24.0003 27.2265C23.9838 23.7189 24.6694 22.0402 24.9289 21.6064C25.019 21.4557 24.8935 21.7276 24.3914 22.0402C23.8406 22.3831 23.2168 22.5352 22.723 22.5352V12.5352V2.53516C15.9358 2.53516 10.7574 6.33843 7.76621 11.3379C4.98568 15.9852 3.97398 21.6756 4.00048 27.3204L14.0004 27.2734ZM22.723 12.5352V22.5352C22.3274 22.5352 21.8047 22.431 21.3002 22.1632C20.821 21.9087 20.613 21.6431 20.6031 21.6299C20.6016 21.6279 20.6469 21.6882 20.721 21.834C20.7951 21.98 20.8918 22.1994 20.9953 22.5058C21.2055 23.128 21.4161 24.0281 21.5409 25.2437L31.4886 24.2227L41.4364 23.2016C40.9472 18.4359 39.5551 13.5677 36.6057 9.63331C33.4366 5.40601 28.5999 2.53516 22.723 2.53516V12.5352ZM31.4886 24.2227V34.2227H33.4652V24.2227V14.2227H31.4886V24.2227ZM33.4652 24.2227H43.4652V10.4727H33.4652H23.4652V24.2227H33.4652ZM33.4652 10.4727V20.4727H39.9535V10.4727V0.472656L33.4652 0.472656V10.4727ZM22.723 19.0664V9.06641C19.5636 9.06641 16.6437 10.3424 14.4971 12.5409C12.6394 14.4435 11.7703 16.6056 11.3262 18.0623C10.4569 20.9133 10.2942 24.2421 10.317 27.347L20.3168 27.2734L30.3165 27.1999C30.3074 25.9553 30.3461 25.0595 30.4029 24.4421C30.4634 23.7845 30.5245 23.6728 30.4568 23.8948C30.4155 24.0301 30.0539 25.2362 28.8072 26.5131C28.1318 27.2048 27.2215 27.8881 26.0679 28.3795C24.9099 28.8728 23.7557 29.0664 22.723 29.0664V19.0664ZM20.3168 27.2734L10.317 27.2004C10.2943 30.3168 10.4553 33.656 11.3295 36.5116C11.7776 37.9756 12.656 40.1469 14.5349 42.0505C16.704 44.2482 19.6181 45.4805 22.723 45.4805V35.4805V25.4805C23.7316 25.4805 24.8697 25.6659 26.0201 26.1489C27.1687 26.6311 28.0838 27.3067 28.7694 28.0013C30.0373 29.286 30.4082 30.5093 30.4535 30.6573C30.5245 30.8893 30.4637 30.7848 30.4031 30.1247C30.3462 29.5055 30.3073 28.6041 30.3165 27.3464L20.3168 27.2734ZM22.723 35.4805V45.4805C25.7441 45.4805 28.6039 44.3219 30.7823 42.2166C32.6973 40.3657 33.6387 38.2247 34.1351 36.7235C35.0956 33.8183 35.3011 30.4309 35.3011 27.2734H25.3011H15.3011C15.3011 28.5116 15.2527 29.3909 15.1897 29.9854C15.1225 30.6193 15.062 30.6994 15.1459 30.4455C15.2072 30.2602 15.6088 29.0671 16.8834 27.8353C17.5659 27.1757 18.4593 26.5468 19.5612 26.1005C20.6639 25.654 21.7527 25.4805 22.723 25.4805V35.4805ZM25.3011 27.2734H35.3011C35.3011 24.1273 35.0937 20.751 34.1389 17.851C33.6472 16.3577 32.7156 14.2248 30.8209 12.3739C28.6633 10.2661 25.7966 9.06641 22.723 9.06641V19.0664V29.0664C21.7294 29.0664 20.6248 28.8853 19.5144 28.429C18.407 27.974 17.5177 27.3375 16.8447 26.68C15.5906 25.4548 15.1988 24.278 15.1422 24.106C15.0619 23.8624 15.1228 23.9499 15.1899 24.5816C15.2528 25.1746 15.3011 26.0484 15.3011 27.2734H25.3011ZM85.7152 10H95.7152C95.7152 4.47715 91.2381 0 85.7152 0V10ZM85.7152 49.875V59.875C91.2381 59.875 95.7152 55.3978 95.7152 49.875H85.7152ZM78.8402 49.875H68.8402C68.8402 55.3978 73.3174 59.875 78.8402 59.875V49.875ZM78.8402 27.3164H88.8402C88.8402 21.7936 84.3631 17.3164 78.8402 17.3164V27.3164ZM68.9574 27.3164H58.9574C58.9574 32.8393 63.4346 37.3164 68.9574 37.3164V27.3164ZM68.9574 21.8164V11.8164C63.4346 11.8164 58.9574 16.2936 58.9574 21.8164H68.9574ZM78.8402 21.8164V31.8164C84.3631 31.8164 88.8402 27.3393 88.8402 21.8164H78.8402ZM78.8402 10V0C73.3174 0 68.8402 4.47715 68.8402 10H78.8402ZM60.6215 14.168H70.6215C70.6215 8.64512 66.1443 4.16797 60.6215 4.16797V14.168ZM60.6215 34.9648H50.6215C50.6215 37.6579 51.7077 40.2371 53.6343 42.1188C55.5608 44.0005 58.1649 45.0256 60.8572 44.9621L60.6215 34.9648ZM75.1019 33.418L85.0282 32.2056C84.6919 29.4523 83.2271 26.9624 80.984 25.3308C78.7408 23.6993 75.9208 23.0728 73.1978 23.6009L75.1019 33.418ZM75.7894 39.0469L77.8758 48.8268C82.9416 47.7461 86.3436 42.9761 85.7157 37.8345L75.7894 39.0469ZM57.2699 40.6797L57.3462 30.68C57.3208 30.6798 57.2953 30.6797 57.2699 30.6797V40.6797ZM53.7465 40.6797H43.7465C43.7465 46.2025 48.2236 50.6797 53.7465 50.6797V40.6797ZM53.7465 14.168V4.16797C48.2236 4.16797 43.7465 8.64512 43.7465 14.168H53.7465ZM85.7152 10H75.7152V49.875H85.7152H95.7152V10H85.7152ZM85.7152 49.875V39.875H78.8402V49.875V59.875H85.7152V49.875ZM78.8402 49.875H88.8402V27.3164H78.8402L68.8402 27.3164V49.875H78.8402ZM78.8402 27.3164V17.3164L68.9574 17.3164V27.3164V37.3164H78.8402V27.3164ZM68.9574 27.3164L78.9574 27.3164V21.8164L68.9574 21.8164H58.9574V27.3164H68.9574ZM68.9574 21.8164V31.8164H78.8402V21.8164V11.8164H68.9574V21.8164ZM78.8402 21.8164H88.8402V10H78.8402H68.8402V21.8164L78.8402 21.8164ZM78.8402 10V20H85.7152V10V0L78.8402 0V10ZM60.6215 14.168H50.6215V34.9648H60.6215H70.6215V14.168H60.6215ZM60.6215 34.9648L60.8572 44.9621C65.9177 44.8427 71.4207 44.3184 77.0061 43.235L75.1019 33.418L73.1978 23.6009C68.8144 24.4511 64.4346 24.8721 60.3857 24.9676L60.6215 34.9648ZM75.1019 33.418L65.1757 34.6303L65.8632 40.2592L75.7894 39.0469L85.7157 37.8345L85.0282 32.2056L75.1019 33.418ZM75.7894 39.0469L73.703 29.2669C68.2485 30.4306 62.6052 30.7201 57.3462 30.68L57.2699 40.6797L57.1936 50.6794C63.1924 50.7252 70.4397 50.4132 77.8758 48.8268L75.7894 39.0469ZM57.2699 40.6797V30.6797H53.7465V40.6797V50.6797H57.2699V40.6797ZM53.7465 40.6797H63.7465V14.168H53.7465H43.7465V40.6797H53.7465ZM53.7465 14.168V24.168H60.6215V14.168V4.16797H53.7465V14.168ZM115.407 35.9961L123.676 41.6192C125.373 39.1228 125.852 35.9932 124.979 33.1034C124.106 30.2136 121.974 27.8729 119.178 26.7345L115.407 35.9961ZM111.754 41.3672L107.958 50.6185C112.332 52.4134 117.365 50.8999 120.024 46.9903L111.754 41.3672ZM102.559 31.7422L111.853 28.0525C110.323 24.198 106.573 21.6879 102.426 21.7431C98.2793 21.7982 94.5969 24.4071 93.1697 28.3009L102.559 31.7422ZM93.1918 42.3984L85.0544 48.2108C87.8065 52.0637 92.8835 53.4585 97.2177 51.5522L93.1918 42.3984ZM89.3246 36.9844L85.3454 27.8102C82.575 29.0118 80.496 31.401 79.6886 34.3108C78.8813 37.2206 79.432 40.3395 81.1872 42.7968L89.3246 36.9844ZM98.8636 19.2812H108.864C108.864 13.7584 104.386 9.28125 98.8636 9.28125V19.2812ZM91.0433 19.2812H81.0433C81.0433 24.8041 85.5205 29.2812 91.0433 29.2812V19.2812ZM91.0433 13.6953V3.69531C85.5205 3.69531 81.0433 8.17247 81.0433 13.6953H91.0433ZM113.516 13.6953H123.516C123.516 8.17247 119.039 3.69531 113.516 3.69531V13.6953ZM113.516 19.2812V29.2812C119.039 29.2812 123.516 24.8041 123.516 19.2812H113.516ZM105.911 19.2812V9.28125C100.388 9.28125 95.9105 13.7584 95.9105 19.2812H105.911ZM123.356 10H133.356C133.356 4.47715 128.879 0 123.356 0V10ZM123.356 49.7461V59.7461C128.879 59.7461 133.356 55.2689 133.356 49.7461H123.356ZM116.395 49.7461H106.395C106.395 55.2689 110.872 59.7461 116.395 59.7461V49.7461ZM116.395 10V0C110.872 0 106.395 4.47715 106.395 10L116.395 10ZM105.911 19.9687H95.9105C95.9105 28.2505 99.1229 40.1628 111.635 45.2577L115.407 35.9961L119.178 26.7345C117.976 26.2452 117.33 25.5594 116.855 24.638C116.29 23.5438 115.911 21.937 115.911 19.9687H105.911ZM115.407 35.9961L107.137 30.373L103.485 35.7441L111.754 41.3672L120.024 46.9903L123.676 41.6192L115.407 35.9961ZM111.754 41.3672L115.551 32.1159C113.927 31.4494 112.729 30.2591 111.853 28.0525L102.559 31.7422L93.2646 35.4319C95.7831 41.776 100.472 47.5467 107.958 50.6185L111.754 41.3672ZM102.559 31.7422L93.1697 28.3009C92.1072 31.1999 90.7032 32.5685 89.1658 33.2447L93.1918 42.3984L97.2177 51.5522C104.962 48.1464 109.53 41.7805 111.948 35.1835L102.559 31.7422ZM93.1918 42.3984L101.329 36.5861L97.4619 31.172L89.3246 36.9844L81.1872 42.7968L85.0544 48.2108L93.1918 42.3984ZM89.3246 36.9844L93.3038 46.1586C105.725 40.7711 108.864 28.4633 108.864 19.9687H98.8636H88.8636C88.8636 22.1894 88.4493 24.0718 87.7962 25.3991C87.2186 26.573 86.4765 27.3196 85.3454 27.8102L89.3246 36.9844ZM98.8636 19.9687H108.864V19.2812H98.8636H88.8636V19.9687H98.8636ZM98.8636 19.2812V9.28125H91.0433V19.2812V29.2812H98.8636V19.2812ZM91.0433 19.2812H101.043V13.6953H91.0433H81.0433V19.2812H91.0433ZM91.0433 13.6953V23.6953H113.516V13.6953V3.69531L91.0433 3.69531V13.6953ZM113.516 13.6953H103.516V19.2812H113.516H123.516V13.6953H113.516ZM113.516 19.2812V9.28125L105.911 9.28125V19.2812V29.2812H113.516V19.2812ZM105.911 19.2812H95.9105V19.9687H105.911H115.911V19.2812H105.911ZM123.356 10H113.356V49.7461H123.356H133.356V10H123.356ZM123.356 49.7461V39.7461H116.395V49.7461V59.7461H123.356V49.7461ZM116.395 49.7461H126.395V10H116.395L106.395 10V49.7461H116.395ZM116.395 10V20H123.356V10V0L116.395 0V10ZM171.223 10L181.223 10C181.223 4.47715 176.746 0 171.223 0V10ZM171.223 39.0898V49.0898C176.746 49.0898 181.223 44.6127 181.223 39.0898H171.223ZM164.348 39.0898H154.348C154.348 44.6127 158.825 49.0898 164.348 49.0898V39.0898ZM164.348 30.4102H174.348C174.348 24.8873 169.871 20.4102 164.348 20.4102V30.4102ZM160.481 30.4102H150.481C150.481 35.933 154.958 40.4102 160.481 40.4102V30.4102ZM160.481 24.7812V14.7812C154.958 14.7812 150.481 19.2584 150.481 24.7812H160.481ZM164.348 24.7812V34.7812C169.871 34.7812 174.348 30.3041 174.348 24.7812H164.348ZM164.348 22.1172H174.348C174.348 16.5943 169.871 12.1172 164.348 12.1172V22.1172ZM160.481 22.1172H150.481C150.481 27.64 154.958 32.1172 160.481 32.1172V22.1172ZM160.481 16.6602V6.66016C154.958 6.66016 150.481 11.1373 150.481 16.6602H160.481ZM164.348 16.6602V26.6602C169.871 26.6602 174.348 22.183 174.348 16.6602H164.348ZM164.348 10V0C158.825 0 154.348 4.47715 154.348 10H164.348ZM159.493 12.6211H169.493C169.493 7.09825 165.015 2.62109 159.493 2.62109V12.6211ZM159.493 18.0781V28.0781C165.015 28.0781 169.493 23.601 169.493 18.0781H159.493ZM156.743 18.0781V8.07812C151.22 8.07812 146.743 12.5553 146.743 18.0781H156.743ZM156.743 28.9492H146.743C146.743 31.7565 147.923 34.4345 149.994 36.3289C152.066 38.2233 154.838 39.1598 157.635 38.9094L156.743 28.9492ZM159.621 28.6914L169.603 28.0891C169.441 25.3914 168.193 22.8746 166.144 21.1117C164.096 19.3489 161.421 18.4902 158.73 18.7313L159.621 28.6914ZM159.922 33.6758L161.557 43.5413C166.609 42.7042 170.213 38.1854 169.904 33.0734L159.922 33.6758ZM138.008 35.0508L128.075 36.2058C128.658 41.2215 132.889 45.0155 137.939 45.0505L138.008 35.0508ZM137.364 29.5078V19.5078C134.51 19.5078 131.793 20.7267 129.895 22.8576C127.998 24.9886 127.101 27.8286 127.431 30.6628L137.364 29.5078ZM140.973 29.5078V39.5078C146.496 39.5078 150.973 35.0307 150.973 29.5078H140.973ZM140.973 18.0781H150.973C150.973 12.5553 146.496 8.07812 140.973 8.07812V18.0781ZM138.309 18.0781H128.309C128.309 23.601 132.786 28.0781 138.309 28.0781V18.0781ZM138.309 12.6211V2.62109C132.786 2.62109 128.309 7.09825 128.309 12.6211H138.309ZM172.082 43.6875H182.082C182.082 38.1647 177.605 33.6875 172.082 33.6875V43.6875ZM172.082 49.1875V59.1875C177.605 59.1875 182.082 54.7103 182.082 49.1875H172.082ZM144.282 49.1875L134.282 49.1875C134.282 54.7103 138.759 59.1875 144.282 59.1875V49.1875ZM144.282 37.0703V27.0703C138.759 27.0703 134.282 31.5475 134.282 37.0703L144.282 37.0703ZM151.243 37.0703H161.243C161.243 31.5475 156.765 27.0703 151.243 27.0703V37.0703ZM151.243 43.6875H141.243C141.243 49.2103 145.72 53.6875 151.243 53.6875V43.6875ZM147.633 29.3789L137.633 29.3789C137.633 32.0604 138.71 34.6296 140.622 36.5096C142.534 38.3896 145.121 39.4229 147.803 39.3775L147.633 29.3789ZM150.168 29.3359L150.338 39.3345C155.794 39.242 160.168 34.7927 160.168 29.3359H150.168ZM150.168 18.0781H160.168C160.168 12.5553 155.691 8.07812 150.168 8.07812V18.0781ZM147.633 18.0781V8.07812C142.11 8.07812 137.633 12.5553 137.633 18.0781H147.633ZM171.223 10H161.223V39.0898H171.223H181.223V10L171.223 10ZM171.223 39.0898V29.0898H164.348V39.0898V49.0898H171.223V39.0898ZM164.348 39.0898H174.348V30.4102H164.348H154.348V39.0898H164.348ZM164.348 30.4102V20.4102H160.481V30.4102V40.4102H164.348V30.4102ZM160.481 30.4102H170.481V24.7812H160.481H150.481V30.4102H160.481ZM160.481 24.7812V34.7812H164.348V24.7812V14.7812H160.481V24.7812ZM164.348 24.7812H174.348V22.1172H164.348H154.348V24.7812H164.348ZM164.348 22.1172V12.1172H160.481V22.1172V32.1172H164.348V22.1172ZM160.481 22.1172H170.481V16.6602H160.481H150.481V22.1172H160.481ZM160.481 16.6602V26.6602H164.348V16.6602V6.66016H160.481V16.6602ZM164.348 16.6602H174.348V10L164.348 10H154.348V16.6602H164.348ZM164.348 10V20H171.223V10V0L164.348 0V10ZM159.493 12.6211H149.493V18.0781H159.493H169.493V12.6211H159.493ZM159.493 18.0781V8.07812H156.743V18.0781V28.0781H159.493V18.0781ZM156.743 18.0781H146.743V28.9492H156.743H166.743V18.0781H156.743ZM156.743 28.9492L157.635 38.9094L160.513 38.6515L159.621 28.6914L158.73 18.7313L155.851 18.9891L156.743 28.9492ZM159.621 28.6914L149.64 29.2938L149.94 34.2781L159.922 33.6758L169.904 33.0734L169.603 28.0891L159.621 28.6914ZM159.922 33.6758L158.288 23.8103C151.883 24.8713 144.101 25.0928 138.078 25.051L138.008 35.0508L137.939 45.0505C144.291 45.0947 153.438 44.8865 161.557 43.5413L159.922 33.6758ZM138.008 35.0508L147.941 33.8958L147.297 28.3528L137.364 29.5078L127.431 30.6628L128.075 36.2058L138.008 35.0508ZM137.364 29.5078V39.5078L140.973 39.5078V29.5078V19.5078H137.364V29.5078ZM140.973 29.5078H150.973V18.0781H140.973H130.973V29.5078L140.973 29.5078ZM140.973 18.0781V8.07812H138.309V18.0781V28.0781H140.973V18.0781ZM138.309 18.0781H148.309V12.6211H138.309H128.309V18.0781H138.309ZM138.309 12.6211V22.6211H159.493V12.6211V2.62109L138.309 2.62109V12.6211ZM172.082 43.6875H162.082V49.1875H172.082H182.082V43.6875H172.082ZM172.082 49.1875V39.1875H144.282V49.1875V59.1875H172.082V49.1875ZM144.282 49.1875H154.282V37.0703H144.282L134.282 37.0703V49.1875L144.282 49.1875ZM144.282 37.0703V47.0703H151.243V37.0703V27.0703H144.282V37.0703ZM151.243 37.0703H141.243V43.6875H151.243H161.243V37.0703H151.243ZM151.243 43.6875V53.6875H172.082V43.6875V33.6875H151.243V43.6875ZM147.633 29.3789L147.803 39.3775L150.338 39.3345L150.168 29.3359L149.999 19.3374L147.464 19.3803L147.633 29.3789ZM150.168 29.3359H160.168V18.0781H150.168H140.168V29.3359L150.168 29.3359ZM150.168 18.0781V8.07812H147.633V18.0781V28.0781H150.168V18.0781ZM147.633 18.0781H137.633V29.3789L147.633 29.3789H157.633V18.0781H147.633ZM190.516 22.2031L200.516 22.2865C200.516 22.2587 200.516 22.2309 200.516 22.2031H190.516ZM199.325 36.7266L207.444 42.5643C209.186 40.141 209.755 37.0661 208.995 34.1798C208.235 31.2936 206.225 28.8977 203.515 27.647L199.325 36.7266ZM195.586 41.9258L191.601 51.0972C195.917 52.9731 200.958 51.5849 203.705 47.7635L195.586 41.9258ZM187.121 32.8164L196.371 29.0165C194.817 25.2324 191.114 22.7768 187.023 22.8169C182.933 22.857 179.279 25.3848 177.799 29.1987L187.121 32.8164ZM178.141 42.5703L169.946 48.3005C172.631 52.1411 177.623 53.6018 181.955 51.8143L178.141 42.5703ZM174.446 37.2852L170.486 28.1026C167.726 29.2929 165.647 31.6616 164.826 34.553C164.005 37.4445 164.528 40.5519 166.25 43.0153L174.446 37.2852ZM183.641 21.6875H193.641C193.641 16.1647 189.164 11.6875 183.641 11.6875V21.6875ZM175.993 21.6875H165.993C165.993 27.2103 170.47 31.6875 175.993 31.6875V21.6875ZM175.993 16.2305V6.23047C170.47 6.23047 165.993 10.7076 165.993 16.2305H175.993ZM183.598 16.2305V26.2305C189.121 26.2305 193.598 21.7533 193.598 16.2305H183.598ZM183.598 11.0312V1.03125C178.075 1.03125 173.598 5.5084 173.598 11.0312H183.598ZM190.516 11.0312H200.516C200.516 5.5084 196.039 1.03125 190.516 1.03125V11.0312ZM190.516 16.2305H180.516C180.516 21.7533 184.993 26.2305 190.516 26.2305V16.2305ZM198.036 16.2305L208.036 16.2305C208.036 10.7076 203.558 6.23047 198.036 6.23047V16.2305ZM198.036 21.6875V31.6875C203.558 31.6875 208.036 27.2103 208.036 21.6875L198.036 21.6875ZM190.516 21.6875V11.6875C184.993 11.6875 180.516 16.1647 180.516 21.6875H190.516ZM207.145 10H217.145C217.145 4.47715 212.668 0 207.145 0V10ZM207.145 24.9102L197.145 24.9102C197.145 30.433 201.622 34.9102 207.145 34.9102V24.9102ZM212.516 24.9102H222.516C222.516 19.3873 218.039 14.9102 212.516 14.9102V24.9102ZM212.516 30.625V40.625C218.039 40.625 222.516 36.1478 222.516 30.625H212.516ZM207.145 30.625V20.625C201.622 20.625 197.145 25.1022 197.145 30.625H207.145ZM207.145 49.7461V59.7461C212.668 59.7461 217.145 55.2689 217.145 49.7461H207.145ZM200.227 49.7461H190.227C190.227 55.2689 194.704 59.7461 200.227 59.7461V49.7461ZM200.227 10V0C194.704 0 190.227 4.47715 190.227 10H200.227ZM190.516 22.2031L180.516 22.1198C180.452 29.8575 183.78 40.5659 195.134 45.8062L199.325 36.7266L203.515 27.647C202.268 27.0713 201.64 26.3409 201.238 25.5771C200.769 24.688 200.505 23.5179 200.516 22.2865L190.516 22.2031ZM199.325 36.7266L191.205 30.8888L187.467 36.088L195.586 41.9258L203.705 47.7635L207.444 42.5643L199.325 36.7266ZM195.586 41.9258L199.572 32.7543C198.398 32.2442 197.266 31.193 196.371 29.0165L187.121 32.8164L177.872 36.6164C180.243 42.389 184.568 48.041 191.601 51.0972L195.586 41.9258ZM187.121 32.8164L177.799 29.1987C176.841 31.667 175.605 32.7987 174.327 33.3263L178.141 42.5703L181.955 51.8143C189.528 48.6896 194.05 42.6025 196.444 36.4342L187.121 32.8164ZM178.141 42.5703L186.336 36.8402L182.641 31.555L174.446 37.2852L166.25 43.0153L169.946 48.3005L178.141 42.5703ZM174.446 37.2852L178.406 46.4677C190.253 41.3585 193.641 29.9181 193.641 22.2031H183.641H173.641C173.641 23.5468 173.335 24.9222 172.777 25.9804C172.287 26.9096 171.61 27.6177 170.486 28.1026L174.446 37.2852ZM183.641 22.2031H193.641V21.6875H183.641H173.641V22.2031H183.641ZM183.641 21.6875V11.6875H175.993V21.6875V31.6875H183.641V21.6875ZM175.993 21.6875H185.993V16.2305H175.993H165.993V21.6875H175.993ZM175.993 16.2305V26.2305H183.598V16.2305V6.23047H175.993V16.2305ZM183.598 16.2305H193.598V11.0312H183.598H173.598V16.2305H183.598ZM183.598 11.0312V21.0312H190.516V11.0312V1.03125L183.598 1.03125V11.0312ZM190.516 11.0312H180.516V16.2305H190.516H200.516V11.0312H190.516ZM190.516 16.2305V26.2305H198.036V16.2305V6.23047H190.516V16.2305ZM198.036 16.2305H188.036V21.6875H198.036L208.036 21.6875V16.2305L198.036 16.2305ZM198.036 21.6875V11.6875H190.516V21.6875V31.6875H198.036V21.6875ZM190.516 21.6875H180.516V22.2031H190.516H200.516V21.6875H190.516ZM207.145 10H197.145V24.9102L207.145 24.9102H217.145V10H207.145ZM207.145 24.9102V34.9102H212.516V24.9102V14.9102H207.145V24.9102ZM212.516 24.9102L202.516 24.9102V30.625H212.516H222.516V24.9102H212.516ZM212.516 30.625V20.625H207.145V30.625V40.625H212.516V30.625ZM207.145 30.625H197.145V49.7461H207.145H217.145V30.625H207.145ZM207.145 49.7461V39.7461H200.227V49.7461V59.7461H207.145V49.7461ZM200.227 49.7461H210.227V10H200.227H190.227V49.7461H200.227ZM200.227 10V20L207.145 20V10V0H200.227V10ZM245.172 10H255.172C255.172 4.47715 250.695 0 245.172 0V10ZM245.172 24.6523H235.172C235.172 30.1752 239.649 34.6523 245.172 34.6523V24.6523ZM250.243 24.6523H260.243C260.243 19.1295 255.765 14.6523 250.243 14.6523V24.6523ZM250.243 30.2812V40.2812C255.765 40.2812 260.243 35.8041 260.243 30.2812H250.243ZM245.172 30.2812V20.2812C239.649 20.2812 235.172 24.7584 235.172 30.2812H245.172ZM245.172 49.6602V59.6602C250.695 59.6602 255.172 55.183 255.172 49.6602H245.172ZM238.254 49.6602H228.254C228.254 55.183 232.731 59.6602 238.254 59.6602V49.6602ZM238.254 10V0C232.731 0 228.254 4.47715 228.254 10L238.254 10ZM234.344 13.9531L244.344 13.9881C244.353 11.3299 243.304 8.77736 241.428 6.89443C239.551 5.0115 237.002 3.95312 234.344 3.95312V13.9531ZM216.512 43.2148L208.496 49.1938C211.375 53.0526 216.594 54.313 220.916 52.193L216.512 43.2148ZM212.602 37.9727L208.095 29.0458C205.458 30.377 203.545 32.8059 202.868 35.6812C202.191 38.5565 202.82 41.5839 204.586 43.9516L212.602 37.9727ZM227.34 19.5391L237.239 20.9568C237.65 18.0866 236.795 15.1792 234.896 12.9884C232.997 10.7976 230.24 9.53906 227.34 9.53906V19.5391ZM215.094 19.5391H205.094C205.094 25.0619 209.571 29.5391 215.094 29.5391V19.5391ZM215.094 13.9531V3.95312C209.571 3.95312 205.094 8.43028 205.094 13.9531H215.094ZM245.172 10L235.172 10V24.6523H245.172H255.172V10H245.172ZM245.172 24.6523V34.6523H250.243V24.6523V14.6523H245.172V24.6523ZM250.243 24.6523H240.243V30.2812H250.243H260.243V24.6523H250.243ZM250.243 30.2812V20.2812H245.172V30.2812V40.2812H250.243V30.2812ZM245.172 30.2812H235.172V49.6602H245.172H255.172V30.2812H245.172ZM245.172 49.6602V39.6602H238.254V49.6602V59.6602H245.172V49.6602ZM238.254 49.6602H248.254V10H238.254L228.254 10V49.6602H238.254ZM238.254 10V20H245.172V10V0L238.254 0V10ZM234.344 13.9531L224.344 13.9182C224.327 18.9688 223.451 22.8059 221.768 25.8287C220.145 28.7423 217.347 31.6673 212.108 34.2367L216.512 43.2148L220.916 52.193C229.256 48.1022 235.352 42.5409 239.24 35.5609C243.067 28.6902 244.319 21.2265 244.344 13.9881L234.344 13.9531ZM216.512 43.2148L224.528 37.2359L220.618 31.9937L212.602 37.9727L204.586 43.9516L208.496 49.1938L216.512 43.2148ZM212.602 37.9727L217.109 46.8995C222.353 44.2517 227.027 40.951 230.612 36.5212C234.284 31.9849 236.407 26.7651 237.239 20.9568L227.34 19.5391L217.441 18.1213C217.07 20.7134 216.25 22.4761 215.066 23.9392C213.796 25.5089 211.702 27.2248 208.095 29.0458L212.602 37.9727ZM227.34 19.5391V9.53906H215.094V19.5391V29.5391H227.34V19.5391ZM215.094 19.5391H225.094V13.9531H215.094H205.094V19.5391H215.094ZM215.094 13.9531V23.9531H234.344V13.9531V3.95312L215.094 3.95312V13.9531ZM280.063 42.9141L274.063 50.9141C277.664 53.6151 282.627 53.5768 286.186 50.8204L280.063 42.9141ZM284.102 34.793L294.101 34.9433C294.102 34.8932 294.102 34.8431 294.102 34.793H284.102ZM284.102 33.9336V23.9336C278.579 23.9336 274.102 28.4107 274.102 33.9336H284.102ZM290.848 33.9336H300.848C300.848 28.4107 296.371 23.9336 290.848 23.9336V33.9336ZM297.938 44.2031L306.247 49.7668C308.019 47.1212 308.424 43.7903 307.34 40.7969C306.255 37.8034 303.81 35.5053 300.755 34.6083L297.938 44.2031ZM294.629 49.1445L291.567 58.6642C295.816 60.0307 300.456 58.4166 302.939 54.7082L294.629 49.1445ZM287.239 42.9141L296.25 38.5779C294.569 35.0863 291.023 32.8797 287.149 32.9145C283.274 32.9493 279.768 35.2193 278.151 38.7406L287.239 42.9141ZM280.192 49.5312L276.896 58.9724C279.097 59.7411 281.499 59.7161 283.684 58.9017L280.192 49.5312ZM272.973 43.043L282.063 38.8741C280.468 35.3965 277.028 33.1337 273.203 33.0456C269.378 32.9575 265.838 35.0596 264.085 38.4601L272.973 43.043ZM265.754 49.1445L257.478 54.7578C260.001 58.4766 264.694 60.0563 268.951 58.6197L265.754 49.1445ZM262.403 44.2031L259.263 34.7087C256.287 35.6928 253.944 38.0159 252.935 40.9841C251.926 43.9522 252.367 47.2219 254.127 49.8164L262.403 44.2031ZM269.45 33.9336V23.9336C263.927 23.9336 259.45 28.4107 259.45 33.9336H269.45ZM276.196 33.9336H286.196C286.196 28.4107 281.719 23.9336 276.196 23.9336V33.9336ZM294.586 10.0859L304.586 10.0859C304.586 4.56309 300.109 0.0859375 294.586 0.0859375V10.0859ZM294.586 32.3437V42.3437C300.109 42.3437 304.586 37.8666 304.586 32.3437H294.586ZM287.668 32.3437H277.668C277.668 37.8666 282.145 42.3437 287.668 42.3437V32.3437ZM287.668 10.0859V0.0859375C282.145 0.0859375 277.668 4.56309 277.668 10.0859H287.668ZM261.5 21.6445L271.5 21.722C271.5 21.6711 271.5 21.6202 271.5 21.5693L261.5 21.6445ZM272.629 25.5547L272.802 15.5562C272.69 15.5542 272.577 15.5542 272.465 15.556L272.629 25.5547ZM276.196 34.793H266.196C266.196 40.1276 268.146 46.4761 274.063 50.9141L280.063 42.9141L286.063 34.9141C286.049 34.9034 286.051 34.9037 286.064 34.9168C286.078 34.9299 286.097 34.9509 286.12 34.9793C286.168 35.0405 286.202 35.1019 286.221 35.1457C286.239 35.1857 286.233 35.185 286.222 35.1276C286.21 35.068 286.196 34.9576 286.196 34.793H276.196ZM280.063 42.9141L286.186 50.8204C291.781 46.4873 294.019 40.392 294.101 34.9433L284.102 34.793L274.103 34.6426C274.101 34.8084 274.067 34.8854 274.065 34.8903C274.064 34.8911 274.065 34.8915 274.06 34.898C274.055 34.9034 274.024 34.9426 273.94 35.0078L280.063 42.9141ZM284.102 34.793H294.102V33.9336H284.102H274.102V34.793H284.102ZM284.102 33.9336V43.9336H290.848V33.9336V23.9336H284.102V33.9336ZM290.848 33.9336H280.848V34.793H290.848H300.848V33.9336H290.848ZM290.848 34.793H280.848C280.848 38.1525 281.519 42.2523 284.059 46.037C286.689 49.9562 290.605 52.4721 295.12 53.798L297.938 44.2031L300.755 34.6083C300.26 34.4628 300.132 34.3534 300.209 34.4064C300.247 34.4323 300.32 34.4876 300.409 34.5778C300.499 34.6685 300.588 34.7752 300.666 34.8927C300.745 35.0092 300.8 35.1161 300.837 35.2011C300.873 35.2846 300.886 35.3352 300.888 35.3406C300.889 35.3449 300.879 35.305 300.868 35.212C300.858 35.1186 300.848 34.9808 300.848 34.793H290.848ZM297.938 44.2031L289.629 38.6395L286.32 43.5809L294.629 49.1445L302.939 54.7082L306.247 49.7668L297.938 44.2031ZM294.629 49.1445L297.691 39.6248C297.004 39.4037 296.716 39.1827 296.615 39.0959C296.519 39.012 296.395 38.8797 296.25 38.5779L287.239 42.9141L278.228 47.2502C280.813 52.6223 285.331 56.6584 291.567 58.6642L294.629 49.1445ZM287.239 42.9141L278.151 38.7406C277.939 39.2032 277.721 39.4828 277.542 39.6572C277.378 39.8166 277.135 39.9985 276.7 40.1608L280.192 49.5312L283.684 58.9017C289.922 56.5768 294.031 52.0844 296.326 47.0876L287.239 42.9141ZM280.192 49.5312L283.488 40.0901C282.917 39.8908 282.655 39.6844 282.531 39.5683C282.396 39.4432 282.232 39.2435 282.063 38.8741L272.973 43.043L263.883 47.2119C266.255 52.3818 270.536 56.7521 276.896 58.9724L280.192 49.5312ZM272.973 43.043L264.085 38.4601C263.903 38.8127 263.733 39.0058 263.585 39.134C263.442 39.2587 263.152 39.4686 262.557 39.6694L265.754 49.1445L268.951 58.6197C274.986 56.5833 279.289 52.6142 281.861 47.6259L272.973 43.043ZM265.754 49.1445L274.03 43.5313L270.679 38.5899L262.403 44.2031L254.127 49.8164L257.478 54.7578L265.754 49.1445ZM262.403 44.2031L265.542 53.6976C270.017 52.2179 273.748 49.5914 276.253 45.8221C278.694 42.1489 279.45 38.1773 279.45 34.793H269.45H259.45C259.45 35.0272 259.423 35.1179 259.429 35.0949C259.433 35.0809 259.445 35.0384 259.473 34.975C259.501 34.9106 259.542 34.8341 259.595 34.7531C259.65 34.6716 259.708 34.6003 259.763 34.5425C259.819 34.4849 259.858 34.4549 259.867 34.4483C259.889 34.4322 259.732 34.5537 259.263 34.7087L262.403 44.2031ZM269.45 34.793H279.45V33.9336H269.45H259.45V34.793H269.45ZM269.45 33.9336V43.9336H276.196V33.9336V23.9336H269.45V33.9336ZM276.196 33.9336H266.196V34.793H276.196H286.196V33.9336H276.196ZM294.586 10.0859H284.586V32.3437H294.586H304.586V10.0859L294.586 10.0859ZM294.586 32.3437V22.3437H287.668V32.3437V42.3437H294.586V32.3437ZM287.668 32.3437H297.668V10.0859H287.668H277.668V32.3437H287.668ZM287.668 10.0859V20.0859H294.586V10.0859V0.0859375L287.668 0.0859375V10.0859ZM272.629 11.8906V21.8906C273.65 21.8906 274.034 22.2137 274.013 22.1955C273.999 22.1828 273.917 22.1039 273.844 21.9477C273.81 21.874 273.786 21.8019 273.772 21.7389C273.758 21.6758 273.758 21.6412 273.758 21.6445H283.758H293.758C293.758 9.07375 282.991 1.89062 272.629 1.89062V11.8906ZM283.758 21.6445H273.758C273.758 21.5434 273.786 21.3695 273.872 21.1888C273.911 21.1079 273.951 21.0461 273.984 21.0035C274.017 20.9614 274.038 20.9436 274.037 20.9445C274.03 20.9503 273.625 21.2695 272.629 21.2695V31.2695V41.2695C282.928 41.2695 293.758 34.0972 293.758 21.6445H283.758ZM272.629 31.2695V21.2695C271.594 21.2695 271.184 20.9393 271.19 20.9445C271.198 20.9516 271.29 21.0366 271.378 21.2229C271.472 21.4208 271.501 21.6105 271.5 21.722L261.5 21.6445L251.501 21.567C251.403 34.123 262.341 41.2695 272.629 41.2695V31.2695ZM261.5 21.6445L271.5 21.5693C271.5 21.5687 271.5 21.5792 271.498 21.5995C271.496 21.6199 271.492 21.6477 271.485 21.6817C271.47 21.7522 271.444 21.8323 271.406 21.9138C271.326 22.0865 271.235 22.1766 271.213 22.1955C271.179 22.2247 271.568 21.8906 272.629 21.8906V11.8906V1.89062C262.277 1.89062 251.405 9.04869 251.501 21.7197L261.5 21.6445ZM272.629 17.6484V7.64844C269.751 7.64844 266.06 8.37445 262.934 11.0475C259.574 13.9207 258.203 17.8978 258.203 21.6445H268.203H278.203C278.203 22.7272 277.735 24.7062 275.933 26.2474C274.365 27.5884 272.887 27.6484 272.629 27.6484V17.6484ZM268.203 21.6445H258.203C258.203 25.4491 259.656 29.363 262.934 32.1664C266.028 34.8124 269.727 35.6036 272.793 35.5533L272.629 25.5547L272.465 15.556C272.91 15.5487 274.396 15.6524 275.933 16.9664C277.653 18.4378 278.203 20.3751 278.203 21.6445H268.203ZM272.629 25.5547L272.457 35.5532C275.576 35.607 279.25 34.7529 282.29 32.0987C285.484 29.3094 286.926 25.4398 286.926 21.6445H276.926H266.926C266.926 20.3844 267.466 18.4913 269.135 17.0341C270.649 15.7119 272.174 15.5454 272.802 15.5562L272.629 25.5547ZM276.926 21.6445H286.926C286.926 17.9056 285.565 13.9747 282.29 11.1151C279.216 8.43063 275.554 7.64844 272.629 7.64844V17.6484V27.6484C272.197 27.6484 270.684 27.5323 269.135 26.1798C267.385 24.6522 266.926 22.7194 266.926 21.6445H276.926ZM331.453 20.0977L341.453 20.0977C341.453 14.5748 336.976 10.0977 331.453 10.0977V20.0977ZM331.453 25.4258V35.4258C336.976 35.4258 341.453 30.9486 341.453 25.4258L331.453 25.4258ZM303.352 25.4258H293.352C293.352 30.9486 297.829 35.4258 303.352 35.4258V25.4258ZM303.352 11.418V1.41797C297.829 1.41797 293.352 5.89512 293.352 11.418L303.352 11.418ZM310.227 11.418H320.227C320.227 5.89512 315.75 1.41797 310.227 1.41797V11.418ZM310.227 20.0977H300.227C300.227 25.6205 304.704 30.0977 310.227 30.0977V20.0977ZM335.364 28.9492H345.364C345.364 23.4264 340.887 18.9492 335.364 18.9492V28.9492ZM335.364 34.2773V44.2773C340.887 44.2773 345.364 39.8002 345.364 34.2773H335.364ZM299.098 34.2773H289.098C289.098 39.8002 293.575 44.2773 299.098 44.2773V34.2773ZM299.098 28.9492V18.9492C293.575 18.9492 289.098 23.4264 289.098 28.9492H299.098ZM331.711 43.4727H341.711C341.711 37.9498 337.234 33.4727 331.711 33.4727V43.4727ZM331.711 48.9727V58.9727C337.234 58.9727 341.711 54.4955 341.711 48.9727H331.711ZM302.879 48.9727H292.879C292.879 54.4955 297.356 58.9727 302.879 58.9727V48.9727ZM302.879 37.0273V27.0273C297.356 27.0273 292.879 31.5045 292.879 37.0273H302.879ZM309.84 37.0273H319.84C319.84 31.5045 315.363 27.0273 309.84 27.0273V37.0273ZM309.84 43.4727H299.84C299.84 48.9955 304.317 53.4727 309.84 53.4727V43.4727ZM331.453 20.0977H321.453V25.4258H331.453L341.453 25.4258V20.0977L331.453 20.0977ZM331.453 25.4258V15.4258H303.352V25.4258V35.4258H331.453V25.4258ZM303.352 25.4258H313.352V11.418H303.352L293.352 11.418V25.4258H303.352ZM303.352 11.418V21.418H310.227V11.418V1.41797H303.352V11.418ZM310.227 11.418L300.227 11.418V20.0977H310.227H320.227V11.418H310.227ZM310.227 20.0977V30.0977H331.453V20.0977V10.0977H310.227V20.0977ZM335.364 28.9492H325.364V34.2773H335.364H345.364V28.9492H335.364ZM335.364 34.2773V24.2773L299.098 24.2773V34.2773V44.2773H335.364V34.2773ZM299.098 34.2773H309.098V28.9492H299.098H289.098V34.2773H299.098ZM299.098 28.9492V38.9492H335.364V28.9492V18.9492L299.098 18.9492V28.9492ZM331.711 43.4727H321.711V48.9727H331.711H341.711V43.4727H331.711ZM331.711 48.9727V38.9727H302.879V48.9727V58.9727H331.711V48.9727ZM302.879 48.9727H312.879V37.0273H302.879H292.879V48.9727H302.879ZM302.879 37.0273V47.0273H309.84V37.0273V27.0273H302.879V37.0273ZM309.84 37.0273H299.84V43.4727H309.84H319.84V37.0273H309.84ZM309.84 43.4727V53.4727H331.711V43.4727V33.4727H309.84V43.4727Z" fill="white" mask="url(#path-1-outside-1_3990_1508)"/>
</g>
<defs>
<filter id="filter0_d_3990_1508" x="0" y="0" width="349.364" height="67.875" filterUnits="userSpaceOnUse" color-interpolation-filters="sRGB">
<feFlood flood-opacity="0" result="BackgroundImageFix"/>
<feColorMatrix in="SourceAlpha" type="matrix" values="0 0 0 0 0 0 0 0 0 0 0 0 0 0 0 0 0 0 127 0" result="hardAlpha"/>
<feOffset dy="4"/>
<feGaussianBlur stdDeviation="2"/>
<feComposite in2="hardAlpha" operator="out"/>
<feColorMatrix type="matrix" values="0 0 0 0 0 0 0 0 0 0 0 0 0 0 0 0 0 0 0.07 0"/>
<feBlend mode="normal" in2="BackgroundImageFix" result="effect1_dropShadow_3990_1508"/>
<feBlend mode="normal" in="SourceGraphic" in2="effect1_dropShadow_3990_1508" result="shape"/>
</filter>
</defs>
</svg>
