<svg width="177" height="68" viewBox="0 0 177 68" fill="none" xmlns="http://www.w3.org/2000/svg">
<g filter="url(#filter0_d_3990_1442)">
<mask id="path-1-outside-1_3990_1442" maskUnits="userSpaceOnUse" x="3.66833" y="-0.507813" width="169" height="61" fill="black">
<rect fill="white" x="3.66833" y="-0.507813" width="169" height="61"/>
<path d="M24.7425 10.9883C27.7933 10.9883 30.4789 11.9766 32.391 13.6523H40.5121V10L47.3871 10V29.6367H40.5121V26.8867H32.348C30.4359 28.541 27.7718 29.5078 24.7425 29.5078C18.641 29.5078 13.9574 25.6836 14.0004 20.2266C13.9574 14.8125 18.641 10.9883 24.7425 10.9883ZM24.7425 16.4883C22.2504 16.5312 20.4886 17.7344 20.5316 20.2266C20.4886 22.7617 22.2504 24.0078 24.7425 24.0078C27.1488 24.0078 28.8246 22.7617 28.8675 20.2266C28.8246 17.7344 27.1488 16.5312 24.7425 16.4883ZM47.3871 31.0977V42.6133H27.4925V44.0312H48.3324V49.4023H20.5316V37.6289H40.5121V36.3398H20.5316V31.0977H47.3871ZM35.3129 21.5586H40.5121V18.8945H35.3129C35.3558 19.3242 35.3988 19.7754 35.3988 20.2266C35.3988 20.6777 35.3558 21.1289 35.3129 21.5586ZM85.4144 10V33.5898H78.5394V24.8242L73.555 24.8242V19.2812L78.5394 19.2812V10H85.4144ZM71.5785 34.2344C80.2152 34.2344 85.5004 37.1133 85.5004 42.0547C85.5004 46.9531 80.2152 49.875 71.5785 49.875C63.0277 49.875 57.7425 46.9531 57.7425 42.0547C57.7425 37.1133 63.0277 34.2344 71.5785 34.2344ZM71.5785 39.4336C66.8519 39.4336 64.5746 40.1641 64.6175 42.0547C64.5746 43.9023 66.8519 44.6758 71.5785 44.6758C76.348 44.6758 78.6683 43.9023 78.6683 42.0547C78.6683 40.1641 76.348 39.4336 71.5785 39.4336ZM74.6293 12.1055V17.6055H67.4535C67.8617 21.5801 70.182 25.5762 76.0472 27.4883L72.7386 32.8594C68.4847 31.5488 65.6703 28.9707 63.93 25.7695C62.2113 29.4219 59.225 32.3652 54.6488 33.8477L51.0824 28.3906C57.4203 26.3711 59.805 21.8594 60.2347 17.6055H53.016V12.1055H74.6293ZM112.657 11.9336V17.3477H105.438C105.782 21.3652 108.08 25.4902 114.075 27.4453L110.766 32.7305C106.491 31.4629 103.655 28.9062 101.957 25.6836C100.196 29.25 97.2308 32.1074 92.6761 33.4609L89.1527 28.0469C95.555 26.1348 97.8968 21.5801 98.305 17.3477H91.0433V11.9336L112.657 11.9336ZM123.442 35.1367V49.7461H116.567V40.5938H95.8129V35.1367H123.442ZM123.442 10V33.6328H116.567V24.6094H111.625V19.0234H116.567V10H123.442ZM161.168 10.0859V38.3164H154.25V10.0859H161.168ZM162.114 43.6875V49.1875L133.969 49.1875V35.4805L140.93 35.4805V43.6875H162.114ZM139.211 12.4492C145.399 12.4492 150.34 16.7461 150.34 22.6328C150.34 28.6484 145.399 32.9023 139.211 32.9023C133.024 32.9023 128.039 28.6484 128.082 22.6328C128.039 16.7461 133.024 12.4492 139.211 12.4492ZM139.211 18.4219C136.676 18.4219 134.786 19.8398 134.786 22.6328C134.786 25.5547 136.676 26.9297 139.211 26.9297C141.618 26.9297 143.508 25.5547 143.508 22.6328C143.508 19.8398 141.618 18.4219 139.211 18.4219Z"/>
</mask>
<path d="M24.7425 10.9883C27.7933 10.9883 30.4789 11.9766 32.391 13.6523H40.5121V10L47.3871 10V29.6367H40.5121V26.8867H32.348C30.4359 28.541 27.7718 29.5078 24.7425 29.5078C18.641 29.5078 13.9574 25.6836 14.0004 20.2266C13.9574 14.8125 18.641 10.9883 24.7425 10.9883ZM24.7425 16.4883C22.2504 16.5312 20.4886 17.7344 20.5316 20.2266C20.4886 22.7617 22.2504 24.0078 24.7425 24.0078C27.1488 24.0078 28.8246 22.7617 28.8675 20.2266C28.8246 17.7344 27.1488 16.5312 24.7425 16.4883ZM47.3871 31.0977V42.6133H27.4925V44.0312H48.3324V49.4023H20.5316V37.6289H40.5121V36.3398H20.5316V31.0977H47.3871ZM35.3129 21.5586H40.5121V18.8945H35.3129C35.3558 19.3242 35.3988 19.7754 35.3988 20.2266C35.3988 20.6777 35.3558 21.1289 35.3129 21.5586ZM85.4144 10V33.5898H78.5394V24.8242L73.555 24.8242V19.2812L78.5394 19.2812V10H85.4144ZM71.5785 34.2344C80.2152 34.2344 85.5004 37.1133 85.5004 42.0547C85.5004 46.9531 80.2152 49.875 71.5785 49.875C63.0277 49.875 57.7425 46.9531 57.7425 42.0547C57.7425 37.1133 63.0277 34.2344 71.5785 34.2344ZM71.5785 39.4336C66.8519 39.4336 64.5746 40.1641 64.6175 42.0547C64.5746 43.9023 66.8519 44.6758 71.5785 44.6758C76.348 44.6758 78.6683 43.9023 78.6683 42.0547C78.6683 40.1641 76.348 39.4336 71.5785 39.4336ZM74.6293 12.1055V17.6055H67.4535C67.8617 21.5801 70.182 25.5762 76.0472 27.4883L72.7386 32.8594C68.4847 31.5488 65.6703 28.9707 63.93 25.7695C62.2113 29.4219 59.225 32.3652 54.6488 33.8477L51.0824 28.3906C57.4203 26.3711 59.805 21.8594 60.2347 17.6055H53.016V12.1055H74.6293ZM112.657 11.9336V17.3477H105.438C105.782 21.3652 108.08 25.4902 114.075 27.4453L110.766 32.7305C106.491 31.4629 103.655 28.9062 101.957 25.6836C100.196 29.25 97.2308 32.1074 92.6761 33.4609L89.1527 28.0469C95.555 26.1348 97.8968 21.5801 98.305 17.3477H91.0433V11.9336L112.657 11.9336ZM123.442 35.1367V49.7461H116.567V40.5938H95.8129V35.1367H123.442ZM123.442 10V33.6328H116.567V24.6094H111.625V19.0234H116.567V10H123.442ZM161.168 10.0859V38.3164H154.25V10.0859H161.168ZM162.114 43.6875V49.1875L133.969 49.1875V35.4805L140.93 35.4805V43.6875H162.114ZM139.211 12.4492C145.399 12.4492 150.34 16.7461 150.34 22.6328C150.34 28.6484 145.399 32.9023 139.211 32.9023C133.024 32.9023 128.039 28.6484 128.082 22.6328C128.039 16.7461 133.024 12.4492 139.211 12.4492ZM139.211 18.4219C136.676 18.4219 134.786 19.8398 134.786 22.6328C134.786 25.5547 136.676 26.9297 139.211 26.9297C141.618 26.9297 143.508 25.5547 143.508 22.6328C143.508 19.8398 141.618 18.4219 139.211 18.4219Z" fill="#11DCA9"/>
<path d="M32.391 13.6523L25.8 21.1729C27.6237 22.7712 29.966 23.6523 32.391 23.6523V13.6523ZM40.5121 13.6523V23.6523C46.0349 23.6523 50.5121 19.1752 50.5121 13.6523H40.5121ZM40.5121 10V0C34.9892 0 30.5121 4.47715 30.5121 10H40.5121ZM47.3871 10H57.3871C57.3871 4.47715 52.9099 0 47.3871 0V10ZM47.3871 29.6367V39.6367C52.9099 39.6367 57.3871 35.1596 57.3871 29.6367H47.3871ZM40.5121 29.6367H30.5121C30.5121 35.1596 34.9892 39.6367 40.5121 39.6367V29.6367ZM40.5121 26.8867H50.5121C50.5121 21.3639 46.0349 16.8867 40.5121 16.8867V26.8867ZM32.348 26.8867V16.8867C29.945 16.8867 27.6224 17.752 25.8052 19.3242L32.348 26.8867ZM14.0004 20.2266L24.0001 20.3053C24.0005 20.2526 24.0005 20.1999 24 20.1472L14.0004 20.2266ZM24.7425 16.4883L24.9211 6.48987C24.8041 6.48779 24.6871 6.48775 24.5702 6.48977L24.7425 16.4883ZM20.5316 20.2266L30.5302 20.396C30.5321 20.2821 30.5321 20.1681 30.5301 20.0542L20.5316 20.2266ZM28.8675 20.2266L38.8661 20.396C38.868 20.2821 38.868 20.1681 38.8661 20.0542L28.8675 20.2266ZM47.3871 31.0977H57.3871C57.3871 25.5748 52.9099 21.0977 47.3871 21.0977V31.0977ZM47.3871 42.6133V52.6133C52.9099 52.6133 57.3871 48.1361 57.3871 42.6133H47.3871ZM27.4925 42.6133V32.6133C21.9697 32.6133 17.4925 37.0904 17.4925 42.6133H27.4925ZM27.4925 44.0312H17.4925C17.4925 49.5541 21.9697 54.0312 27.4925 54.0312V44.0312ZM48.3324 44.0312H58.3324C58.3324 38.5084 53.8552 34.0312 48.3324 34.0312V44.0312ZM48.3324 49.4023V59.4023C53.8552 59.4023 58.3324 54.9252 58.3324 49.4023H48.3324ZM20.5316 49.4023H10.5316C10.5316 54.9252 15.0088 59.4023 20.5316 59.4023V49.4023ZM20.5316 37.6289V27.6289C15.0088 27.6289 10.5316 32.1061 10.5316 37.6289H20.5316ZM40.5121 37.6289V47.6289C46.0349 47.6289 50.5121 43.1518 50.5121 37.6289H40.5121ZM40.5121 36.3398H50.5121C50.5121 30.817 46.0349 26.3398 40.5121 26.3398V36.3398ZM20.5316 36.3398H10.5316C10.5316 41.8627 15.0088 46.3398 20.5316 46.3398V36.3398ZM20.5316 31.0977V21.0977C15.0088 21.0977 10.5316 25.5748 10.5316 31.0977H20.5316ZM35.3129 21.5586L25.3625 20.5636C25.0814 23.3748 26.0026 26.1738 27.8983 28.2686C29.7941 30.3635 32.4876 31.5586 35.3129 31.5586V21.5586ZM40.5121 21.5586V31.5586C46.0349 31.5586 50.5121 27.0814 50.5121 21.5586H40.5121ZM40.5121 18.8945H50.5121C50.5121 13.3717 46.0349 8.89453 40.5121 8.89453V18.8945ZM35.3129 18.8945V8.89453C32.4876 8.89453 29.7941 10.0897 27.8983 12.1845C26.0026 14.2793 25.0814 17.0783 25.3625 19.8896L35.3129 18.8945ZM24.7425 10.9883V20.9883C25.6621 20.9883 25.921 21.2789 25.8 21.1729L32.391 13.6523L38.982 6.13181C35.0368 2.67419 29.9246 0.988281 24.7425 0.988281V10.9883ZM32.391 13.6523V23.6523H40.5121V13.6523V3.65234H32.391V13.6523ZM40.5121 13.6523H50.5121V10L40.5121 10H30.5121V13.6523H40.5121ZM40.5121 10V20H47.3871V10V0H40.5121V10ZM47.3871 10L37.3871 10V29.6367H47.3871H57.3871V10H47.3871ZM47.3871 29.6367V19.6367H40.5121V29.6367V39.6367H47.3871V29.6367ZM40.5121 29.6367H50.5121V26.8867H40.5121H30.5121V29.6367H40.5121ZM40.5121 26.8867V16.8867H32.348V26.8867V36.8867H40.5121V26.8867ZM32.348 26.8867L25.8052 19.3242C25.9248 19.2207 25.6686 19.5078 24.7425 19.5078V29.5078V39.5078C29.8751 39.5078 34.947 37.8613 38.8909 34.4492L32.348 26.8867ZM24.7425 29.5078V19.5078C23.7372 19.5078 23.4281 19.196 23.5419 19.2926C23.6063 19.3473 23.7419 19.4887 23.8554 19.7306C23.9737 19.9827 24.0009 20.2019 24.0001 20.3053L14.0004 20.2266L4.00067 20.1478C3.90184 32.6991 14.7641 39.5078 24.7425 39.5078V29.5078ZM14.0004 20.2266L24 20.1472C24.001 20.2735 23.9687 20.5073 23.8465 20.7661C23.7296 21.0141 23.5917 21.1559 23.5295 21.2086C23.4208 21.3006 23.7369 20.9883 24.7425 20.9883V10.9883V0.988281C14.7977 0.988281 3.90118 7.76886 4.00068 20.3059L14.0004 20.2266ZM24.7425 16.4883L24.5702 6.48977C21.9251 6.53537 18.3747 7.20005 15.3119 9.73408C11.916 12.5436 10.4665 16.5341 10.5331 20.399L20.5316 20.2266L30.5301 20.0542C30.54 20.6295 30.4492 21.5133 30.0179 22.5234C29.5754 23.5601 28.8874 24.4601 28.0609 25.1438C26.4912 26.4425 25.0678 26.4842 24.9149 26.4868L24.7425 16.4883ZM20.5316 20.2266L10.533 20.0571C10.4685 23.8649 11.861 27.8685 15.2467 30.7184C18.3471 33.3281 21.9778 34.0078 24.7425 34.0078V24.0078V14.0078C25.0151 14.0078 26.5188 14.0645 28.1261 15.4173C30.0187 17.0104 30.5517 19.1233 30.5302 20.396L20.5316 20.2266ZM24.7425 24.0078V34.0078C27.5665 34.0078 31.1809 33.2765 34.2406 30.6248C37.4908 27.8079 38.8057 23.9622 38.8661 20.396L28.8675 20.2266L18.869 20.0571C18.8865 19.0261 19.342 17.071 21.142 15.511C22.7515 14.1161 24.3248 14.0078 24.7425 14.0078V24.0078ZM28.8675 20.2266L38.8661 20.0542C38.8037 16.4367 37.4381 12.6054 34.1759 9.82653C31.152 7.25056 27.62 6.53807 24.9211 6.48987L24.7425 16.4883L24.564 26.4867C24.2714 26.4815 22.7804 26.392 21.2066 25.0514C19.3947 23.5079 18.8884 21.5242 18.869 20.399L28.8675 20.2266ZM47.3871 31.0977H37.3871V42.6133H47.3871H57.3871V31.0977H47.3871ZM47.3871 42.6133V32.6133H27.4925V42.6133V52.6133H47.3871V42.6133ZM27.4925 42.6133H17.4925V44.0312H27.4925H37.4925V42.6133H27.4925ZM27.4925 44.0312V54.0312H48.3324V44.0312V34.0312H27.4925V44.0312ZM48.3324 44.0312H38.3324V49.4023H48.3324H58.3324V44.0312H48.3324ZM48.3324 49.4023V39.4023H20.5316V49.4023V59.4023H48.3324V49.4023ZM20.5316 49.4023H30.5316V37.6289H20.5316H10.5316V49.4023H20.5316ZM20.5316 37.6289V47.6289H40.5121V37.6289V27.6289H20.5316V37.6289ZM40.5121 37.6289H50.5121V36.3398H40.5121H30.5121V37.6289H40.5121ZM40.5121 36.3398V26.3398H20.5316V36.3398V46.3398H40.5121V36.3398ZM20.5316 36.3398H30.5316V31.0977H20.5316H10.5316V36.3398H20.5316ZM20.5316 31.0977V41.0977H47.3871V31.0977V21.0977H20.5316V31.0977ZM35.3129 21.5586V31.5586H40.5121V21.5586V11.5586H35.3129V21.5586ZM40.5121 21.5586H50.5121V18.8945H40.5121H30.5121V21.5586H40.5121ZM40.5121 18.8945V8.89453H35.3129V18.8945V28.8945H40.5121V18.8945ZM35.3129 18.8945L25.3625 19.8896C25.3727 19.9919 25.3801 20.067 25.3862 20.1341C25.3922 20.1993 25.3958 20.2433 25.398 20.2735C25.4026 20.3381 25.3988 20.3114 25.3988 20.2266H35.3988H45.3988C45.3988 19.2118 45.303 18.2968 45.2632 17.8995L35.3129 18.8945ZM35.3988 20.2266H25.3988C25.3988 20.1417 25.4026 20.1151 25.398 20.1796C25.3958 20.2098 25.3922 20.2538 25.3862 20.319C25.3801 20.3861 25.3727 20.4613 25.3625 20.5636L35.3129 21.5586L45.2632 22.5536C45.303 22.1563 45.3988 21.2414 45.3988 20.2266H35.3988ZM85.4144 10H95.4144C95.4144 4.47715 90.9373 0 85.4144 0V10ZM85.4144 33.5898V43.5898C90.9373 43.5898 95.4144 39.1127 95.4144 33.5898H85.4144ZM78.5394 33.5898H68.5394C68.5394 39.1127 73.0166 43.5898 78.5394 43.5898V33.5898ZM78.5394 24.8242H88.5394C88.5394 19.3014 84.0623 14.8242 78.5394 14.8242V24.8242ZM73.555 24.8242H63.555C63.555 30.3471 68.0322 34.8242 73.555 34.8242V24.8242ZM73.555 19.2812V9.28125C68.0322 9.28125 63.555 13.7584 63.555 19.2812H73.555ZM78.5394 19.2812V29.2812C84.0623 29.2812 88.5394 24.8041 88.5394 19.2812H78.5394ZM78.5394 10V0C73.0166 0 68.5394 4.47715 68.5394 10H78.5394ZM64.6175 42.0547L74.6148 42.2872C74.6184 42.134 74.6184 41.9807 74.615 41.8275L64.6175 42.0547ZM74.6293 12.1055H84.6293C84.6293 6.58262 80.1521 2.10547 74.6293 2.10547V12.1055ZM74.6293 17.6055V27.6055C80.1521 27.6055 84.6293 23.1283 84.6293 17.6055L74.6293 17.6055ZM67.4535 17.6055V7.60547C64.6235 7.60547 61.9261 8.80453 60.03 10.9053C58.1339 13.0062 57.2167 15.812 57.5058 18.6271L67.4535 17.6055ZM76.0472 27.4883L84.5615 32.7331C86.1691 30.1232 86.491 26.9202 85.4349 24.0426C84.3787 21.1651 82.0611 18.9308 79.1468 17.9808L76.0472 27.4883ZM72.7386 32.8594L69.7944 42.4161C74.1502 43.7581 78.8624 41.9848 81.2529 38.1041L72.7386 32.8594ZM63.93 25.7695L72.7158 20.9934C70.9157 17.6822 67.4069 15.6643 63.6396 15.7738C59.8724 15.8832 56.4866 18.1014 54.8819 21.5116L63.93 25.7695ZM54.6488 33.8477L46.2779 39.3184C48.7463 43.0953 53.4382 44.7514 57.7306 43.3609L54.6488 33.8477ZM51.0824 28.3906L48.0464 18.8626C45.0698 19.8111 42.7075 22.0961 41.6606 25.0394C40.6137 27.9828 41.0025 31.2463 42.7115 33.8613L51.0824 28.3906ZM60.2347 17.6055L70.1841 18.6105C70.4682 15.7977 69.5485 12.9962 67.6526 10.8991C65.7567 8.80207 63.0618 7.60547 60.2347 7.60547V17.6055ZM53.016 17.6055H43.016C43.016 23.1283 47.4931 27.6055 53.016 27.6055V17.6055ZM53.016 12.1055V2.10547C47.4931 2.10547 43.016 6.58262 43.016 12.1055L53.016 12.1055ZM85.4144 10H75.4144V33.5898H85.4144H95.4144V10H85.4144ZM85.4144 33.5898V23.5898H78.5394V33.5898V43.5898H85.4144V33.5898ZM78.5394 33.5898H88.5394V24.8242H78.5394L68.5394 24.8242V33.5898H78.5394ZM78.5394 24.8242V14.8242L73.555 14.8242V24.8242V34.8242H78.5394V24.8242ZM73.555 24.8242L83.555 24.8242V19.2812L73.555 19.2812H63.555V24.8242H73.555ZM73.555 19.2812V29.2812H78.5394V19.2812V9.28125H73.555V19.2812ZM78.5394 19.2812H88.5394V10H78.5394H68.5394V19.2812L78.5394 19.2812ZM78.5394 10V20H85.4144V10V0L78.5394 0V10ZM71.5785 34.2344V44.2344C73.2011 44.2344 74.4703 44.3712 75.4081 44.5616C76.3636 44.7555 76.811 44.9714 76.9118 45.0275C76.9957 45.0742 76.5944 44.8702 76.1684 44.2182C75.6999 43.5014 75.5004 42.6952 75.5004 42.0547H85.5004H95.5004C95.5004 35.2516 91.5469 30.2863 86.6446 27.5555C82.1751 25.0657 76.7817 24.2344 71.5785 24.2344V34.2344ZM85.5004 42.0547H75.5004C75.5004 41.3866 75.709 40.5745 76.1736 39.865C76.5952 39.2211 76.9879 39.0231 76.8969 39.074C76.7909 39.1333 76.3408 39.3506 75.3897 39.5455C74.4557 39.737 73.1922 39.875 71.5785 39.875V49.875V59.875C76.8047 59.875 82.1964 59.0256 86.6595 56.5295C91.528 53.8066 95.5004 48.8554 95.5004 42.0547H85.5004ZM71.5785 49.875V39.875C69.9921 39.875 68.7492 39.7379 67.8307 39.5484C66.8953 39.3553 66.4538 39.1406 66.3519 39.0834C66.2648 39.0344 66.6549 39.2329 67.0733 39.8732C67.5342 40.5786 67.7425 41.387 67.7425 42.0547H57.7425H47.7425C47.7425 48.8478 51.7062 53.7955 56.556 56.5201C61.008 59.0212 66.3814 59.875 71.5785 59.875V49.875ZM57.7425 42.0547H67.7425C67.7425 42.6948 67.5433 43.4973 67.0785 44.2101C66.6558 44.8584 66.257 45.063 66.337 45.0182C66.4336 44.9642 66.8725 44.7509 67.8121 44.5588C68.7345 44.3702 69.9832 44.2344 71.5785 44.2344V34.2344V24.2344C66.4045 24.2344 61.0294 25.07 56.5709 27.5648C51.6873 30.2974 47.7425 35.2592 47.7425 42.0547H57.7425ZM71.5785 39.4336V29.4336C69.053 29.4336 65.8028 29.5812 62.899 30.6347C61.3416 31.1997 59.1651 32.2766 57.3705 34.4095C55.3897 36.7637 54.559 39.5902 54.6201 42.2819L64.6175 42.0547L74.615 41.8275C74.6547 43.5739 74.0925 45.6 72.6743 47.2856C71.4424 48.7498 70.1225 49.2896 69.7199 49.4356C69.288 49.5923 69.1655 49.5641 69.6009 49.5155C69.9927 49.4717 70.6276 49.4336 71.5785 49.4336V39.4336ZM64.6175 42.0547L54.6203 41.8222C54.5565 44.5629 55.4238 47.3821 57.3897 49.7045C59.1671 51.8043 61.3145 52.8764 62.8605 53.4445C65.7623 54.5107 69.0063 54.6758 71.5785 54.6758V44.6758V34.6758C70.6441 34.6758 70.0201 34.6362 69.6385 34.5921C69.2151 34.5432 69.3341 34.5158 69.7584 34.6717C70.1496 34.8155 71.4403 35.3478 72.6551 36.7829C74.0583 38.4407 74.6571 40.4703 74.6148 42.2872L64.6175 42.0547ZM71.5785 44.6758V54.6758C74.179 54.6758 77.4128 54.5082 80.3053 53.4648C81.8406 52.9109 83.9604 51.8732 85.7429 49.8449C87.7158 47.5998 88.6683 44.8269 88.6683 42.0547H78.6683H68.6683C68.6683 40.2063 69.3308 38.2229 70.7196 36.6426C71.918 35.2789 73.1596 34.781 73.5187 34.6514C73.9127 34.5093 74.0034 34.5405 73.5644 34.5906C73.1653 34.6361 72.5254 34.6758 71.5785 34.6758V44.6758ZM78.6683 42.0547H88.6683C88.6683 39.3294 87.7526 36.547 85.7626 34.2689C83.9623 32.2078 81.8135 31.1656 80.2672 30.6148C77.3727 29.5839 74.133 29.4336 71.5785 29.4336V39.4336V49.4336C72.5417 49.4336 73.1924 49.4718 73.6015 49.5169C74.0523 49.5667 73.9582 49.5985 73.5568 49.4555C73.1868 49.3237 71.9161 48.8186 70.6999 47.4262C69.294 45.8167 68.6683 43.8347 68.6683 42.0547H78.6683ZM74.6293 12.1055H64.6293V17.6055H74.6293L84.6293 17.6055V12.1055H74.6293ZM74.6293 17.6055V7.60547H67.4535V17.6055V27.6055H74.6293V17.6055ZM67.4535 17.6055L57.5058 18.6271C58.2973 26.334 63.1337 33.7964 72.9477 36.9958L76.0472 27.4883L79.1468 17.9808C78.4749 17.7617 78.08 17.541 77.87 17.3996C77.666 17.2624 77.5874 17.1678 77.5646 17.1389C77.5423 17.1105 77.4424 16.9857 77.4012 16.5838L67.4535 17.6055ZM76.0472 27.4883L67.533 22.2435L64.2244 27.6146L72.7386 32.8594L81.2529 38.1041L84.5615 32.7331L76.0472 27.4883ZM72.7386 32.8594L75.6829 23.3026C74.7544 23.0166 74.1738 22.6575 73.7866 22.3354C73.3927 22.0078 73.0356 21.5818 72.7158 20.9934L63.93 25.7695L55.1443 30.5457C58.0771 35.9405 62.935 40.3029 69.7944 42.4161L72.7386 32.8594ZM63.93 25.7695L54.8819 21.5116C54.2786 22.7935 53.3792 23.7473 51.567 24.3344L54.6488 33.8477L57.7306 43.3609C65.0707 40.9831 70.144 36.0503 72.9782 30.0275L63.93 25.7695ZM54.6488 33.8477L63.0197 28.3769L59.4532 22.9199L51.0824 28.3906L42.7115 33.8613L46.2779 39.3184L54.6488 33.8477ZM51.0824 28.3906L54.1184 37.9186C64.775 34.523 69.412 26.2539 70.1841 18.6105L60.2347 17.6055L50.2854 16.6005C50.2189 17.2589 50.0355 17.6219 49.8903 17.8144C49.8005 17.9335 49.4172 18.4258 48.0464 18.8626L51.0824 28.3906ZM60.2347 17.6055V7.60547H53.016V17.6055V27.6055H60.2347V17.6055ZM53.016 17.6055H63.016V12.1055H53.016L43.016 12.1055V17.6055H53.016ZM53.016 12.1055V22.1055H74.6293V12.1055V2.10547L53.016 2.10547V12.1055ZM112.657 11.9336H122.657C122.657 6.41075 118.179 1.93359 112.657 1.93359V11.9336ZM112.657 17.3477V27.3477C118.179 27.3477 122.657 22.8705 122.657 17.3477H112.657ZM105.438 17.3477V7.34766C102.637 7.34766 99.9654 8.52187 98.0716 10.5847C96.1777 12.6475 95.2355 15.41 95.4743 18.2002L105.438 17.3477ZM114.075 27.4453L122.551 32.7515C124.184 30.1428 124.525 26.9274 123.475 24.0343C122.425 21.1411 120.101 18.8926 117.175 17.9382L114.075 27.4453ZM110.766 32.7305L107.923 42.318C112.23 43.5947 116.859 41.8437 119.242 38.0367L110.766 32.7305ZM101.957 25.6836L110.805 21.0237C109.054 17.6983 105.586 15.6357 101.828 15.6844C98.0696 15.7332 94.6562 17.885 92.9916 21.2547L101.957 25.6836ZM92.6761 33.4609L84.2947 38.9155C86.7104 42.6273 91.2796 44.3082 95.5247 43.0466L92.6761 33.4609ZM89.1527 28.0469L86.291 18.4651C83.2702 19.3673 80.8517 21.6412 79.7652 24.6008C78.6788 27.5604 79.0517 30.859 80.7713 33.5014L89.1527 28.0469ZM98.305 17.3477L108.259 18.3077C108.53 15.5015 107.603 12.7115 105.708 10.6246C103.812 8.53762 101.124 7.34766 98.305 7.34766V17.3477ZM91.0433 17.3477H81.0433C81.0433 22.8705 85.5205 27.3477 91.0433 27.3477V17.3477ZM91.0433 11.9336V1.93359C85.5205 1.93359 81.0433 6.41075 81.0433 11.9336H91.0433ZM123.442 35.1367H133.442C133.442 29.6139 128.965 25.1367 123.442 25.1367V35.1367ZM123.442 49.7461V59.7461C128.965 59.7461 133.442 55.2689 133.442 49.7461H123.442ZM116.567 49.7461H106.567C106.567 55.2689 111.044 59.7461 116.567 59.7461V49.7461ZM116.567 40.5938H126.567C126.567 35.0709 122.09 30.5938 116.567 30.5938V40.5938ZM95.8129 40.5938H85.8129C85.8129 46.1166 90.29 50.5938 95.8129 50.5938V40.5938ZM95.8129 35.1367V25.1367C90.29 25.1367 85.8129 29.6139 85.8129 35.1367H95.8129ZM123.442 10H133.442C133.442 4.47715 128.965 0 123.442 0V10ZM123.442 33.6328V43.6328C128.965 43.6328 133.442 39.1557 133.442 33.6328H123.442ZM116.567 33.6328H106.567C106.567 39.1557 111.044 43.6328 116.567 43.6328V33.6328ZM116.567 24.6094H126.567C126.567 19.0865 122.09 14.6094 116.567 14.6094V24.6094ZM111.625 24.6094H101.625C101.625 30.1322 106.103 34.6094 111.625 34.6094V24.6094ZM111.625 19.0234V9.02344C106.103 9.02344 101.625 13.5006 101.625 19.0234H111.625ZM116.567 19.0234V29.0234C122.09 29.0234 126.567 24.5463 126.567 19.0234H116.567ZM116.567 10V0C111.044 0 106.567 4.47715 106.567 10L116.567 10ZM112.657 11.9336L102.657 11.9336V17.3477H112.657H122.657V11.9336H112.657ZM112.657 17.3477V7.34766L105.438 7.34766V17.3477V27.3477H112.657V17.3477ZM105.438 17.3477L95.4743 18.2002C95.7831 21.8092 97.0024 25.7441 99.7098 29.2653C102.449 32.8285 106.299 35.4276 110.974 36.9524L114.075 27.4453L117.175 17.9382C116.487 17.7137 116.085 17.4865 115.873 17.3422C115.667 17.2021 115.588 17.1052 115.565 17.0746C115.538 17.0401 115.436 16.9037 115.401 16.4952L105.438 17.3477ZM114.075 27.4453L105.598 22.1391L102.29 27.4243L110.766 32.7305L119.242 38.0367L122.551 32.7515L114.075 27.4453ZM110.766 32.7305L113.609 23.143C112.675 22.8663 112.113 22.5185 111.757 22.2254C111.399 21.9295 111.082 21.55 110.805 21.0237L101.957 25.6836L93.1095 30.3435C96.0458 35.9188 101.029 40.274 107.923 42.318L110.766 32.7305ZM101.957 25.6836L92.9916 21.2547C92.3664 22.5204 91.5133 23.3743 89.8276 23.8752L92.6761 33.4609L95.5247 43.0466C102.948 40.8405 108.025 35.9796 110.923 30.1125L101.957 25.6836ZM92.6761 33.4609L101.058 28.0064L97.5341 22.5923L89.1527 28.0469L80.7713 33.5014L84.2947 38.9155L92.6761 33.4609ZM89.1527 28.0469L92.0144 37.6287C97.085 36.1143 101.136 33.3369 103.963 29.5854C106.723 25.9231 107.915 21.8708 108.259 18.3077L98.305 17.3477L88.3512 16.3876C88.2867 17.057 88.1041 17.3982 87.9902 17.5494C87.9327 17.6258 87.8309 17.7403 87.6225 17.8813C87.4087 18.026 87.001 18.253 86.291 18.4651L89.1527 28.0469ZM98.305 17.3477V7.34766H91.0433V17.3477V27.3477H98.305V17.3477ZM91.0433 17.3477H101.043V11.9336H91.0433H81.0433V17.3477H91.0433ZM91.0433 11.9336V21.9336H112.657V11.9336V1.93359L91.0433 1.93359V11.9336ZM123.442 35.1367H113.442V49.7461H123.442H133.442V35.1367H123.442ZM123.442 49.7461V39.7461H116.567V49.7461V59.7461H123.442V49.7461ZM116.567 49.7461H126.567V40.5938H116.567H106.567V49.7461H116.567ZM116.567 40.5938V30.5938H95.8129V40.5938V50.5938H116.567V40.5938ZM95.8129 40.5938H105.813V35.1367H95.8129H85.8129V40.5938H95.8129ZM95.8129 35.1367V45.1367H123.442V35.1367V25.1367H95.8129V35.1367ZM123.442 10H113.442V33.6328H123.442H133.442V10H123.442ZM123.442 33.6328V23.6328H116.567V33.6328V43.6328H123.442V33.6328ZM116.567 33.6328H126.567V24.6094H116.567H106.567V33.6328H116.567ZM116.567 24.6094V14.6094H111.625V24.6094V34.6094H116.567V24.6094ZM111.625 24.6094H121.625V19.0234H111.625H101.625V24.6094H111.625ZM111.625 19.0234V29.0234H116.567V19.0234V9.02344H111.625V19.0234ZM116.567 19.0234H126.567V10H116.567L106.567 10V19.0234H116.567ZM116.567 10V20H123.442V10V0L116.567 0V10ZM161.168 10.0859H171.168C171.168 4.56309 166.691 0.0859375 161.168 0.0859375V10.0859ZM161.168 38.3164V48.3164C166.691 48.3164 171.168 43.8393 171.168 38.3164H161.168ZM154.25 38.3164H144.25C144.25 43.8393 148.728 48.3164 154.25 48.3164V38.3164ZM154.25 10.0859V0.0859375C148.728 0.0859375 144.25 4.56309 144.25 10.0859H154.25ZM162.114 43.6875H172.114C172.114 38.1647 167.636 33.6875 162.114 33.6875V43.6875ZM162.114 49.1875V59.1875C167.636 59.1875 172.114 54.7103 172.114 49.1875H162.114ZM133.969 49.1875H123.969C123.969 54.7103 128.446 59.1875 133.969 59.1875V49.1875ZM133.969 35.4805V25.4805C128.446 25.4805 123.969 29.9576 123.969 35.4805H133.969ZM140.93 35.4805H150.93C150.93 29.9576 146.453 25.4805 140.93 25.4805V35.4805ZM140.93 43.6875L130.93 43.6875C130.93 49.2103 135.407 53.6875 140.93 53.6875V43.6875ZM128.082 22.6328L138.082 22.7042C138.082 22.6561 138.082 22.608 138.082 22.5598L128.082 22.6328ZM161.168 10.0859H151.168V38.3164H161.168H171.168V10.0859H161.168ZM161.168 38.3164V28.3164H154.25V38.3164V48.3164H161.168V38.3164ZM154.25 38.3164H164.25V10.0859H154.25H144.25V38.3164H154.25ZM154.25 10.0859V20.0859H161.168V10.0859V0.0859375H154.25V10.0859ZM162.114 43.6875H152.114V49.1875H162.114H172.114V43.6875H162.114ZM162.114 49.1875V39.1875L133.969 39.1875V49.1875V59.1875L162.114 59.1875V49.1875ZM133.969 49.1875L143.969 49.1875V35.4805L133.969 35.4805H123.969V49.1875H133.969ZM133.969 35.4805V45.4805L140.93 45.4805V35.4805V25.4805H133.969V35.4805ZM140.93 35.4805L130.93 35.4805V43.6875L140.93 43.6875H150.93V35.4805H140.93ZM140.93 43.6875V53.6875H162.114V43.6875V33.6875H140.93V43.6875ZM139.211 12.4492V22.4492C139.997 22.4492 140.349 22.7145 140.402 22.7625C140.428 22.7856 140.4 22.7678 140.369 22.6996C140.334 22.6226 140.34 22.582 140.34 22.6328H150.34H160.34C160.34 10.2688 149.916 2.44922 139.211 2.44922V12.4492ZM150.34 22.6328H140.34C140.34 22.7467 140.321 22.7399 140.352 22.6728C140.379 22.6131 140.406 22.5906 140.391 22.6043C140.36 22.6322 140.023 22.9023 139.211 22.9023V32.9023V42.9023C149.945 42.9023 160.34 35.0994 160.34 22.6328H150.34ZM139.211 32.9023V22.9023C138.393 22.9023 138.041 22.6277 138.006 22.5954C137.99 22.5816 138.025 22.6101 138.058 22.6851C138.096 22.7686 138.081 22.7961 138.082 22.7042L128.082 22.6328L118.083 22.5614C117.993 35.147 128.55 42.9023 139.211 42.9023V32.9023ZM128.082 22.6328L138.082 22.5598C138.082 22.5318 138.083 22.5937 138.041 22.6872C138.003 22.7708 137.969 22.7945 137.995 22.7714C138.053 22.7191 138.419 22.4492 139.211 22.4492V12.4492V2.44922C128.58 2.44922 117.992 10.2208 118.083 22.7058L128.082 22.6328ZM139.211 18.4219V8.42187C136.162 8.42187 132.462 9.281 129.395 12.0143C126.158 14.899 124.786 18.8404 124.786 22.6328H134.786H144.786C144.786 23.6323 144.359 25.4682 142.701 26.9457C141.213 28.2717 139.726 28.4219 139.211 28.4219V18.4219ZM134.786 22.6328H124.786C124.786 26.3614 126.074 30.361 129.366 33.3174C132.485 36.1181 136.234 36.9297 139.211 36.9297V26.9297V16.9297C139.654 16.9297 141.189 17.0538 142.729 18.4365C144.442 19.9749 144.786 21.8261 144.786 22.6328H134.786ZM139.211 26.9297V36.9297C142.243 36.9297 145.959 36.0539 149.019 33.2485C152.226 30.3089 153.508 26.3568 153.508 22.6328H143.508H133.508C133.508 21.8307 133.845 20.027 135.505 18.5054C137.018 17.118 138.586 16.9297 139.211 16.9297V26.9297ZM143.508 22.6328H153.508C153.508 18.8465 152.144 14.9508 148.991 12.0829C145.984 9.347 142.315 8.42187 139.211 8.42187V18.4219V28.4219C138.513 28.4219 136.993 28.2057 135.533 26.8771C133.927 25.4164 133.508 23.6261 133.508 22.6328H143.508Z" fill="white" mask="url(#path-1-outside-1_3990_1442)"/>
</g>
<defs>
<filter id="filter0_d_3990_1442" x="0" y="0" width="176.114" height="67.875" filterUnits="userSpaceOnUse" color-interpolation-filters="sRGB">
<feFlood flood-opacity="0" result="BackgroundImageFix"/>
<feColorMatrix in="SourceAlpha" type="matrix" values="0 0 0 0 0 0 0 0 0 0 0 0 0 0 0 0 0 0 127 0" result="hardAlpha"/>
<feOffset dy="4"/>
<feGaussianBlur stdDeviation="2"/>
<feComposite in2="hardAlpha" operator="out"/>
<feColorMatrix type="matrix" values="0 0 0 0 0 0 0 0 0 0 0 0 0 0 0 0 0 0 0.07 0"/>
<feBlend mode="normal" in2="BackgroundImageFix" result="effect1_dropShadow_3990_1442"/>
<feBlend mode="normal" in="SourceGraphic" in2="effect1_dropShadow_3990_1442" result="shape"/>
</filter>
</defs>
</svg>
