<svg width="264" height="68" viewBox="0 0 264 68" fill="none" xmlns="http://www.w3.org/2000/svg">
<g filter="url(#filter0_d_3990_1488)">
<mask id="path-1-outside-1_3990_1488" maskUnits="userSpaceOnUse" x="3.09766" y="-0.507813" width="257" height="61" fill="black">
<rect fill="white" x="3.09766" y="-0.507813" width="257" height="61"/>
<path d="M50.2656 31.7852V37.2852H42.4453V49.7461H35.4414V37.2852H28.6094V49.7461H21.5625V37.2852H14V31.7852H50.2656ZM32.0039 11.2031C40.6406 11.1602 46.8281 14.7695 46.8281 20.3555C46.8281 25.7695 40.6406 29.207 32.0039 29.207C23.3672 29.207 17.2656 25.7695 17.3086 20.3555C17.2656 14.7695 23.3672 11.1602 32.0039 11.2031ZM32.0039 16.6602C27.2344 16.6602 24.3984 17.8203 24.3984 20.3555C24.3984 22.6758 27.2344 23.793 32.0039 23.8359C36.8594 23.793 39.6523 22.6758 39.6523 20.3555C39.6523 17.8203 36.8594 16.6602 32.0039 16.6602ZM85.8438 10.0859V38.918H78.9688V30.3672H70.6328C68.6992 32.1934 66.0781 33.2891 63.1992 33.2891C57.1406 33.2891 52.4141 28.7773 52.457 22.8047C52.4141 16.7031 57.1406 12.2344 63.1992 12.2344C66.0996 12.2344 68.7422 13.3301 70.6758 15.1992L78.9688 15.1992V10.0859H85.8438ZM86.7031 43.6875V49.1875H58.9453V36.082H65.8203V43.6875H86.7031ZM63.1992 18.3789C60.707 18.3359 58.9453 19.8398 58.9883 22.8047C58.9453 25.6836 60.707 27.1445 63.1992 27.1875C65.4766 27.1445 67.2812 25.6836 67.3242 22.8047C67.2812 19.8398 65.4766 18.3359 63.1992 18.3789ZM73.6406 24.9102L78.9688 24.9102V20.6562L73.6406 20.6562C73.7695 21.3438 73.8555 22.0527 73.8555 22.8047C73.8555 23.5352 73.7695 24.2441 73.6406 24.9102ZM121.766 10V25.082H127.137V30.7109H121.766V49.7461H114.934V10H121.766ZM113 15.6719V21.1289H89.8398V15.6719H98.0469V10.7305H104.922V15.6719H113ZM101.484 22.6758C107.371 22.6758 111.883 26.7148 111.883 32.3438C111.883 38.0156 107.371 42.0547 101.484 42.0547C95.4688 42.0547 91.043 38.0156 91.043 32.3438C91.043 26.7148 95.4688 22.6758 101.484 22.6758ZM101.484 28.2187C99.25 28.2187 97.6172 29.6797 97.6602 32.3438C97.6172 35.1367 99.25 36.4688 101.484 36.4688C103.676 36.4688 105.266 35.1367 105.266 32.3438C105.266 29.6797 103.676 28.2187 101.484 28.2187ZM144.195 19.9687C144.195 26.1992 146.516 33.0742 153.691 35.9961L150.039 41.3672C145.484 39.498 142.541 36.0176 140.844 31.7422C139.104 36.4902 136.117 40.3574 131.477 42.3984L127.609 36.9844C134.742 33.8906 137.148 26.6289 137.148 19.9687V19.2812H129.328V13.6953H151.801V19.2812H144.195V19.9687ZM161.641 10V49.7461H154.68V10H161.641ZM186.562 11.7187C192.793 11.7187 197.434 15.6289 197.434 21C197.434 26.5 192.793 30.4102 186.562 30.4102C180.418 30.4102 175.648 26.5 175.648 21C175.648 15.6289 180.418 11.7187 186.562 11.7187ZM186.562 17.3477C184.156 17.3477 182.309 18.5937 182.352 21C182.309 23.4922 184.156 24.7812 186.562 24.8242C188.969 24.7812 190.73 23.4922 190.773 21C190.73 18.5937 188.969 17.3477 186.562 17.3477ZM207.488 10V17.8633H212.43V23.4922H207.488V29.5078H200.57V10H207.488ZM185.574 33.0312V43.0859C187.486 42.957 189.055 42.6562 190.688 42.1406L191.633 47.4258C188.625 48.5859 185.789 48.7148 181.234 48.7148H178.828V33.0312H185.574ZM210.238 32.9883V37.9297H190.301V32.9883H197.004V30.625H203.664V32.9883H210.238ZM200.227 38.5742C204.867 38.6172 208.09 40.8086 208.133 44.2461C208.09 47.6836 204.867 49.832 200.227 49.832C195.5 49.832 192.363 47.6836 192.363 44.2461C192.363 40.8086 195.5 38.6172 200.227 38.5742ZM200.227 43.3008C199.238 43.3008 198.465 43.5156 198.465 44.2461C198.465 44.9766 199.238 45.1914 200.227 45.1914C201.215 45.1914 201.988 44.9766 201.988 44.2461C201.988 43.5156 201.215 43.3008 200.227 43.3008ZM249.984 29.9375V35.3516H213.719V29.9375H249.984ZM245.773 43.6875V49.1875H217.887V37.5H224.805V43.6875H245.773ZM231.852 11.1172C240.617 11.1172 246.504 14.2969 246.547 19.4102C246.504 24.6094 240.617 27.832 231.852 27.832C223 27.832 217.07 24.6094 217.113 19.4102C217.07 14.2969 223 11.1172 231.852 11.1172ZM231.852 16.5312C226.867 16.5742 224.246 17.4766 224.289 19.4102C224.246 21.4727 226.867 22.2891 231.852 22.2461C236.75 22.2891 239.414 21.4727 239.414 19.4102C239.414 17.4766 236.75 16.5742 231.852 16.5312Z"/>
</mask>
<path d="M50.2656 31.7852V37.2852H42.4453V49.7461H35.4414V37.2852H28.6094V49.7461H21.5625V37.2852H14V31.7852H50.2656ZM32.0039 11.2031C40.6406 11.1602 46.8281 14.7695 46.8281 20.3555C46.8281 25.7695 40.6406 29.207 32.0039 29.207C23.3672 29.207 17.2656 25.7695 17.3086 20.3555C17.2656 14.7695 23.3672 11.1602 32.0039 11.2031ZM32.0039 16.6602C27.2344 16.6602 24.3984 17.8203 24.3984 20.3555C24.3984 22.6758 27.2344 23.793 32.0039 23.8359C36.8594 23.793 39.6523 22.6758 39.6523 20.3555C39.6523 17.8203 36.8594 16.6602 32.0039 16.6602ZM85.8438 10.0859V38.918H78.9688V30.3672H70.6328C68.6992 32.1934 66.0781 33.2891 63.1992 33.2891C57.1406 33.2891 52.4141 28.7773 52.457 22.8047C52.4141 16.7031 57.1406 12.2344 63.1992 12.2344C66.0996 12.2344 68.7422 13.3301 70.6758 15.1992L78.9688 15.1992V10.0859H85.8438ZM86.7031 43.6875V49.1875H58.9453V36.082H65.8203V43.6875H86.7031ZM63.1992 18.3789C60.707 18.3359 58.9453 19.8398 58.9883 22.8047C58.9453 25.6836 60.707 27.1445 63.1992 27.1875C65.4766 27.1445 67.2812 25.6836 67.3242 22.8047C67.2812 19.8398 65.4766 18.3359 63.1992 18.3789ZM73.6406 24.9102L78.9688 24.9102V20.6562L73.6406 20.6562C73.7695 21.3438 73.8555 22.0527 73.8555 22.8047C73.8555 23.5352 73.7695 24.2441 73.6406 24.9102ZM121.766 10V25.082H127.137V30.7109H121.766V49.7461H114.934V10H121.766ZM113 15.6719V21.1289H89.8398V15.6719H98.0469V10.7305H104.922V15.6719H113ZM101.484 22.6758C107.371 22.6758 111.883 26.7148 111.883 32.3438C111.883 38.0156 107.371 42.0547 101.484 42.0547C95.4688 42.0547 91.043 38.0156 91.043 32.3438C91.043 26.7148 95.4688 22.6758 101.484 22.6758ZM101.484 28.2187C99.25 28.2187 97.6172 29.6797 97.6602 32.3438C97.6172 35.1367 99.25 36.4688 101.484 36.4688C103.676 36.4688 105.266 35.1367 105.266 32.3438C105.266 29.6797 103.676 28.2187 101.484 28.2187ZM144.195 19.9687C144.195 26.1992 146.516 33.0742 153.691 35.9961L150.039 41.3672C145.484 39.498 142.541 36.0176 140.844 31.7422C139.104 36.4902 136.117 40.3574 131.477 42.3984L127.609 36.9844C134.742 33.8906 137.148 26.6289 137.148 19.9687V19.2812H129.328V13.6953H151.801V19.2812H144.195V19.9687ZM161.641 10V49.7461H154.68V10H161.641ZM186.562 11.7187C192.793 11.7187 197.434 15.6289 197.434 21C197.434 26.5 192.793 30.4102 186.562 30.4102C180.418 30.4102 175.648 26.5 175.648 21C175.648 15.6289 180.418 11.7187 186.562 11.7187ZM186.562 17.3477C184.156 17.3477 182.309 18.5937 182.352 21C182.309 23.4922 184.156 24.7812 186.562 24.8242C188.969 24.7812 190.73 23.4922 190.773 21C190.73 18.5937 188.969 17.3477 186.562 17.3477ZM207.488 10V17.8633H212.43V23.4922H207.488V29.5078H200.57V10H207.488ZM185.574 33.0312V43.0859C187.486 42.957 189.055 42.6562 190.688 42.1406L191.633 47.4258C188.625 48.5859 185.789 48.7148 181.234 48.7148H178.828V33.0312H185.574ZM210.238 32.9883V37.9297H190.301V32.9883H197.004V30.625H203.664V32.9883H210.238ZM200.227 38.5742C204.867 38.6172 208.09 40.8086 208.133 44.2461C208.09 47.6836 204.867 49.832 200.227 49.832C195.5 49.832 192.363 47.6836 192.363 44.2461C192.363 40.8086 195.5 38.6172 200.227 38.5742ZM200.227 43.3008C199.238 43.3008 198.465 43.5156 198.465 44.2461C198.465 44.9766 199.238 45.1914 200.227 45.1914C201.215 45.1914 201.988 44.9766 201.988 44.2461C201.988 43.5156 201.215 43.3008 200.227 43.3008ZM249.984 29.9375V35.3516H213.719V29.9375H249.984ZM245.773 43.6875V49.1875H217.887V37.5H224.805V43.6875H245.773ZM231.852 11.1172C240.617 11.1172 246.504 14.2969 246.547 19.4102C246.504 24.6094 240.617 27.832 231.852 27.832C223 27.832 217.07 24.6094 217.113 19.4102C217.07 14.2969 223 11.1172 231.852 11.1172ZM231.852 16.5312C226.867 16.5742 224.246 17.4766 224.289 19.4102C224.246 21.4727 226.867 22.2891 231.852 22.2461C236.75 22.2891 239.414 21.4727 239.414 19.4102C239.414 17.4766 236.75 16.5742 231.852 16.5312Z" fill="#11DCA9"/>
<path d="M50.2656 31.7852H60.2656C60.2656 26.2623 55.7885 21.7852 50.2656 21.7852V31.7852ZM50.2656 37.2852V47.2852C55.7885 47.2852 60.2656 42.808 60.2656 37.2852H50.2656ZM42.4453 37.2852V27.2852C36.9225 27.2852 32.4453 31.7623 32.4453 37.2852H42.4453ZM42.4453 49.7461V59.7461C47.9682 59.7461 52.4453 55.2689 52.4453 49.7461H42.4453ZM35.4414 49.7461H25.4414C25.4414 55.2689 29.9186 59.7461 35.4414 59.7461V49.7461ZM35.4414 37.2852H45.4414C45.4414 31.7623 40.9643 27.2852 35.4414 27.2852V37.2852ZM28.6094 37.2852V27.2852C23.0865 27.2852 18.6094 31.7623 18.6094 37.2852H28.6094ZM28.6094 49.7461V59.7461C34.1322 59.7461 38.6094 55.2689 38.6094 49.7461H28.6094ZM21.5625 49.7461H11.5625C11.5625 55.2689 16.0397 59.7461 21.5625 59.7461V49.7461ZM21.5625 37.2852H31.5625C31.5625 31.7623 27.0853 27.2852 21.5625 27.2852V37.2852ZM14 37.2852H4C4 42.808 8.47715 47.2852 14 47.2852V37.2852ZM14 31.7852L14 21.7852C8.47715 21.7852 4 26.2623 4 31.7852H14ZM32.0039 11.2031L31.9542 21.203C31.9873 21.2032 32.0205 21.2032 32.0537 21.203L32.0039 11.2031ZM17.3086 20.3555L27.3083 20.4348C27.3087 20.3827 27.3087 20.3306 27.3083 20.2785L17.3086 20.3555ZM32.0039 23.8359L31.9138 33.8355C31.9733 33.8361 32.0329 33.8361 32.0924 33.8355L32.0039 23.8359ZM50.2656 31.7852H40.2656V37.2852H50.2656H60.2656V31.7852H50.2656ZM50.2656 37.2852V27.2852H42.4453V37.2852V47.2852H50.2656V37.2852ZM42.4453 37.2852H32.4453V49.7461H42.4453H52.4453V37.2852H42.4453ZM42.4453 49.7461V39.7461H35.4414V49.7461V59.7461H42.4453V49.7461ZM35.4414 49.7461H45.4414V37.2852H35.4414H25.4414V49.7461H35.4414ZM35.4414 37.2852V27.2852H28.6094V37.2852V47.2852H35.4414V37.2852ZM28.6094 37.2852H18.6094V49.7461H28.6094H38.6094V37.2852H28.6094ZM28.6094 49.7461V39.7461H21.5625V49.7461V59.7461H28.6094V49.7461ZM21.5625 49.7461H31.5625V37.2852H21.5625H11.5625V49.7461H21.5625ZM21.5625 37.2852V27.2852H14L14 37.2852V47.2852H21.5625V37.2852ZM14 37.2852H24V31.7852H14H4V37.2852H14ZM14 31.7852V41.7852H50.2656V31.7852V21.7852H14L14 31.7852ZM32.0039 11.2031L32.0537 21.203C35.1292 21.1877 36.8638 21.8512 37.4636 22.2155C37.7152 22.3683 37.5426 22.3288 37.2906 21.9329C37.0016 21.479 36.8281 20.8939 36.8281 20.3555H46.8281H56.8281C56.8281 13.2776 52.713 8.07746 47.8459 5.12141C43.1929 2.29531 37.5154 1.17558 31.9542 1.20325L32.0039 11.2031ZM46.8281 20.3555H36.8281C36.8281 19.7032 37.0428 19.0256 37.3797 18.515C37.6713 18.0731 37.8738 18.023 37.6062 18.1795C36.9699 18.5516 35.1675 19.207 32.0039 19.207V29.207V39.207C37.477 39.207 43.0867 38.1437 47.7034 35.4435C52.5228 32.6248 56.8281 27.5226 56.8281 20.3555H46.8281ZM32.0039 29.207V19.207C28.8366 19.207 27.0776 18.5503 26.4887 18.2023C26.2471 18.0595 26.4692 18.1285 26.7686 18.5914C27.1117 19.1218 27.3133 19.8027 27.3083 20.4348L17.3086 20.3555L7.30891 20.2761C7.25224 27.4166 11.4749 32.5612 16.3141 35.4208C20.9243 38.145 26.5345 39.207 32.0039 39.207V29.207ZM17.3086 20.3555L27.3083 20.2785C27.3123 20.7976 27.1503 21.3849 26.8558 21.8569C26.5966 22.2722 26.4056 22.3303 26.6315 22.1917C27.1842 21.8525 28.8751 21.1877 31.9542 21.203L32.0039 11.2031L32.0537 1.20325C26.496 1.1756 20.8177 2.29394 16.1712 5.14523C11.2877 8.14194 7.25466 13.3822 7.30889 20.4324L17.3086 20.3555ZM32.0039 16.6602V6.66016C29.1014 6.66016 25.4684 6.96784 22.196 8.48959C20.4493 9.30184 18.4332 10.6337 16.8454 12.804C15.1764 15.0853 14.3984 17.7293 14.3984 20.3555H24.3984H34.3984C34.3984 21.7141 33.975 23.2624 32.9868 24.6131C32.0797 25.8529 31.0707 26.4193 30.6292 26.6247C30.1993 26.8246 30.0438 26.8092 30.3681 26.7579C30.6636 26.7111 31.1935 26.6602 32.0039 26.6602V16.6602ZM24.3984 20.3555H14.3984C14.3984 26.8076 18.8439 30.5435 22.3827 32.1017C25.534 33.4894 29.0405 33.8096 31.9138 33.8355L32.0039 23.8359L32.094 13.8363C31.2616 13.8288 30.6948 13.7747 30.3543 13.7213C29.9839 13.6631 30.075 13.6359 30.4425 13.7977C30.7985 13.9544 31.8104 14.4652 32.7687 15.6804C33.8432 17.0432 34.3984 18.7281 34.3984 20.3555H24.3984ZM32.0039 23.8359L32.0924 33.8355C34.9879 33.8099 38.516 33.4945 41.6788 32.1017C43.3518 31.3651 45.378 30.128 47.0164 28.0336C48.7682 25.7943 49.6523 23.1064 49.6523 20.3555H39.6523H29.6523C29.6523 18.7647 30.1874 17.0866 31.2637 15.7107C32.2267 14.4797 33.2512 13.9596 33.619 13.7977C33.9948 13.6322 34.0896 13.6601 33.7094 13.7193C33.3596 13.7737 32.7764 13.8287 31.9154 13.8363L32.0039 23.8359ZM39.6523 20.3555H49.6523C49.6523 17.7631 48.8964 15.1263 47.233 12.8345C45.647 10.6494 43.6247 9.30765 41.8655 8.48959C38.5813 6.96237 34.9264 6.66016 32.0039 6.66016V16.6602V26.6602C32.8438 26.6602 33.3905 26.712 33.6957 26.7599C34.0302 26.8125 33.8708 26.8286 33.4323 26.6247C32.9783 26.4135 31.9577 25.8372 31.0472 24.5826C30.0591 23.2214 29.6523 21.6803 29.6523 20.3555H39.6523ZM85.8438 10.0859H95.8438C95.8438 4.56309 91.3666 0.0859375 85.8438 0.0859375V10.0859ZM85.8438 38.918V48.918C91.3666 48.918 95.8438 44.4408 95.8438 38.918H85.8438ZM78.9688 38.918H68.9688C68.9688 44.4408 73.4459 48.918 78.9688 48.918V38.918ZM78.9688 30.3672H88.9688C88.9688 24.8443 84.4916 20.3672 78.9688 20.3672V30.3672ZM70.6328 30.3672V20.3672C68.0795 20.3672 65.6229 21.3439 63.7666 23.0971L70.6328 30.3672ZM52.457 22.8047L62.4568 22.8766C62.4571 22.8292 62.4571 22.7817 62.4568 22.7343L52.457 22.8047ZM70.6758 15.1992L63.7256 22.3891C65.5902 24.1916 68.0823 25.1992 70.6758 25.1992V15.1992ZM78.9688 15.1992V25.1992C84.4916 25.1992 88.9688 20.7221 88.9688 15.1992H78.9688ZM78.9688 10.0859V0.0859375C73.4459 0.0859375 68.9688 4.56309 68.9688 10.0859H78.9688ZM86.7031 43.6875H96.7031C96.7031 38.1647 92.226 33.6875 86.7031 33.6875V43.6875ZM86.7031 49.1875V59.1875C92.226 59.1875 96.7031 54.7103 96.7031 49.1875H86.7031ZM58.9453 49.1875H48.9453C48.9453 54.7103 53.4225 59.1875 58.9453 59.1875V49.1875ZM58.9453 36.082V26.082C53.4225 26.082 48.9453 30.5592 48.9453 36.082H58.9453ZM65.8203 36.082H75.8203C75.8203 30.5592 71.3432 26.082 65.8203 26.082V36.082ZM65.8203 43.6875H55.8203C55.8203 49.2103 60.2975 53.6875 65.8203 53.6875V43.6875ZM63.1992 18.3789L63.0268 28.3774C63.1472 28.3795 63.2675 28.3794 63.3879 28.3771L63.1992 18.3789ZM58.9883 22.8047L68.9872 22.9539C68.9886 22.8559 68.9887 22.7578 68.9872 22.6598L58.9883 22.8047ZM63.1992 27.1875L63.0268 37.186C63.1472 37.1881 63.2675 37.188 63.3879 37.1857L63.1992 27.1875ZM67.3242 22.8047L77.3231 22.9539C77.3246 22.8559 77.3246 22.7578 77.3232 22.6598L67.3242 22.8047ZM73.6406 24.9102L63.8228 23.0099C63.2556 25.9406 64.0273 28.9714 65.9269 31.274C67.8266 33.5766 70.6556 34.9102 73.6406 34.9102V24.9102ZM78.9688 24.9102V34.9102C84.4916 34.9102 88.9688 30.433 88.9688 24.9102H78.9688ZM78.9688 20.6562H88.9688C88.9688 15.1334 84.4916 10.6562 78.9688 10.6562V20.6562ZM73.6406 20.6562V10.6562C70.6658 10.6562 67.8454 11.9807 65.9455 14.2699C64.0457 16.5591 63.2637 19.5752 63.8119 22.4991L73.6406 20.6562ZM85.8438 10.0859H75.8438V38.918H85.8438H95.8438V10.0859H85.8438ZM85.8438 38.918V28.918H78.9688V38.918V48.918H85.8438V38.918ZM78.9688 38.918H88.9688V30.3672H78.9688H68.9688V38.918H78.9688ZM78.9688 30.3672V20.3672L70.6328 20.3672V30.3672V40.3672H78.9688V30.3672ZM70.6328 30.3672L63.7666 23.0971C63.7141 23.1467 63.6457 23.1926 63.56 23.2268C63.4784 23.2594 63.3624 23.2891 63.1992 23.2891V33.2891V43.2891C68.6561 43.2891 73.7271 41.1997 77.499 37.6373L70.6328 30.3672ZM63.1992 33.2891V23.2891C62.9322 23.2891 62.7598 23.2408 62.6635 23.2024C62.5642 23.1628 62.5168 23.1225 62.5006 23.1067C62.4856 23.0922 62.4835 23.0861 62.4817 23.082C62.48 23.0778 62.4745 23.064 62.4691 23.0364C62.4637 23.009 62.4562 22.9574 62.4568 22.8766L52.457 22.8047L42.4573 22.7327C42.3718 34.6144 51.9547 43.2891 63.1992 43.2891V33.2891ZM52.457 22.8047L62.4568 22.7343C62.4553 22.5223 62.493 22.4328 62.497 22.4231C62.5028 22.4091 62.5052 22.4069 62.5108 22.4014C62.5183 22.3941 62.5566 22.3589 62.651 22.3213C62.7436 22.2846 62.9197 22.2344 63.1992 22.2344V12.2344V2.23437C51.9263 2.23437 42.3729 10.8931 42.4573 22.8751L52.457 22.8047ZM63.1992 12.2344V22.2344C63.3839 22.2344 63.5047 22.268 63.576 22.2966C63.6495 22.3261 63.6958 22.3604 63.7256 22.3891L70.6758 15.1992L77.626 8.00933C73.8007 4.31155 68.6553 2.23437 63.1992 2.23437V12.2344ZM70.6758 15.1992V25.1992L78.9688 25.1992V15.1992V5.19922H70.6758V15.1992ZM78.9688 15.1992H88.9688V10.0859H78.9688H68.9688V15.1992L78.9688 15.1992ZM78.9688 10.0859V20.0859H85.8438V10.0859V0.0859375L78.9688 0.0859375V10.0859ZM86.7031 43.6875H76.7031V49.1875H86.7031H96.7031V43.6875H86.7031ZM86.7031 49.1875V39.1875H58.9453V49.1875V59.1875H86.7031V49.1875ZM58.9453 49.1875H68.9453V36.082H58.9453H48.9453V49.1875H58.9453ZM58.9453 36.082V46.082H65.8203V36.082V26.082H58.9453V36.082ZM65.8203 36.082H55.8203V43.6875H65.8203H75.8203V36.082H65.8203ZM65.8203 43.6875V53.6875H86.7031V43.6875V33.6875H65.8203V43.6875ZM63.1992 18.3789L63.3716 8.38039C60.093 8.32386 56.1862 9.3009 53.0976 12.3673C49.9794 15.4631 48.9386 19.4508 48.9893 22.9496L58.9883 22.8047L68.9872 22.6598C68.995 23.1937 68.8136 24.9471 67.1886 26.5604C65.5931 28.1444 63.8133 28.391 63.0268 28.3774L63.1992 18.3789ZM58.9883 22.8047L48.9894 22.6555C48.9362 26.2192 50.0418 30.1667 53.1496 33.2074C56.1651 36.1578 59.9217 37.1325 63.0268 37.186L63.1992 27.1875L63.3716 17.189C63.9846 17.1996 65.6142 17.4222 67.1366 18.9118C68.7511 20.4915 68.9974 22.2691 68.9872 22.9539L58.9883 22.8047ZM63.1992 27.1875L63.3879 37.1857C66.6066 37.125 70.237 36.0222 73.1189 33.1821C76.0568 30.2868 77.2699 26.5219 77.3231 22.9539L67.3242 22.8047L57.3253 22.6555C57.3356 21.9664 57.6249 20.3714 59.0803 18.9371C60.4798 17.5579 62.0692 17.207 63.0106 17.1893L63.1992 27.1875ZM67.3242 22.8047L77.3232 22.6598C77.2723 19.1521 76.1227 15.3448 73.1707 12.3928C70.2208 9.44294 66.4319 8.31613 63.0106 8.38069L63.1992 18.3789L63.3879 28.3771C62.2439 28.3987 60.496 28.0024 59.0285 26.5349C57.5589 25.0653 57.3331 23.4924 57.3253 22.9496L67.3242 22.8047ZM73.6406 24.9102V34.9102H78.9688V24.9102V14.9102L73.6406 14.9102V24.9102ZM78.9688 24.9102H88.9688V20.6562H78.9688L68.9688 20.6562V24.9102L78.9688 24.9102ZM78.9688 20.6562V10.6562H73.6406V20.6562V30.6562H78.9688V20.6562ZM73.6406 20.6562L63.8119 22.4991C63.859 22.7501 63.8555 22.8237 63.8555 22.8047H73.8555L83.8555 22.8047C83.8555 21.2818 83.6801 19.9374 83.4693 18.8134L73.6406 20.6562ZM73.8555 22.8047H63.8555C63.8555 22.7788 63.8569 22.7822 63.853 22.8189C63.8491 22.8559 63.8405 22.9184 63.8228 23.0099L73.6406 24.9102L83.4584 26.8104C83.6793 25.6693 83.8555 24.3103 83.8555 22.8047L73.8555 22.8047ZM121.766 10H131.766C131.766 4.47715 127.288 0 121.766 0V10ZM121.766 25.082H111.766C111.766 30.6049 116.243 35.082 121.766 35.082V25.082ZM127.137 25.082H137.137C137.137 19.5592 132.66 15.082 127.137 15.082V25.082ZM127.137 30.7109V40.7109C132.66 40.7109 137.137 36.2338 137.137 30.7109H127.137ZM121.766 30.7109V20.7109C116.243 20.7109 111.766 25.1881 111.766 30.7109H121.766ZM121.766 49.7461V59.7461C127.288 59.7461 131.766 55.2689 131.766 49.7461H121.766ZM114.934 49.7461H104.934C104.934 55.2689 109.411 59.7461 114.934 59.7461V49.7461ZM114.934 10V0C109.411 0 104.934 4.47715 104.934 10L114.934 10ZM113 15.6719H123C123 10.149 118.523 5.67187 113 5.67187V15.6719ZM113 21.1289V31.1289C118.523 31.1289 123 26.6518 123 21.1289H113ZM89.8398 21.1289H79.8398C79.8398 26.6518 84.317 31.1289 89.8398 31.1289V21.1289ZM89.8398 15.6719V5.67187C84.317 5.67187 79.8398 10.149 79.8398 15.6719H89.8398ZM98.0469 15.6719V25.6719C103.57 25.6719 108.047 21.1947 108.047 15.6719H98.0469ZM98.0469 10.7305V0.730469C92.524 0.730469 88.0469 5.20762 88.0469 10.7305H98.0469ZM104.922 10.7305L114.922 10.7305C114.922 5.20762 110.445 0.730469 104.922 0.730469V10.7305ZM104.922 15.6719H94.9219C94.9219 21.1947 99.399 25.6719 104.922 25.6719V15.6719ZM97.6602 32.3438L107.659 32.4976C107.661 32.3926 107.661 32.2875 107.659 32.1825L97.6602 32.3438ZM121.766 10H111.766V25.082H121.766H131.766V10H121.766ZM121.766 25.082V35.082H127.137V25.082V15.082H121.766V25.082ZM127.137 25.082H117.137V30.7109H127.137H137.137V25.082H127.137ZM127.137 30.7109V20.7109H121.766V30.7109V40.7109H127.137V30.7109ZM121.766 30.7109H111.766V49.7461H121.766H131.766V30.7109H121.766ZM121.766 49.7461V39.7461H114.934V49.7461V59.7461H121.766V49.7461ZM114.934 49.7461H124.934V10H114.934L104.934 10V49.7461H114.934ZM114.934 10V20H121.766V10V0L114.934 0V10ZM113 15.6719H103V21.1289H113H123V15.6719H113ZM113 21.1289V11.1289L89.8398 11.1289V21.1289V31.1289H113V21.1289ZM89.8398 21.1289H99.8398V15.6719H89.8398H79.8398V21.1289H89.8398ZM89.8398 15.6719V25.6719H98.0469V15.6719V5.67187H89.8398V15.6719ZM98.0469 15.6719H108.047V10.7305H98.0469H88.0469V15.6719H98.0469ZM98.0469 10.7305V20.7305H104.922V10.7305V0.730469H98.0469V10.7305ZM104.922 10.7305H94.9219V15.6719H104.922H114.922V10.7305L104.922 10.7305ZM104.922 15.6719V25.6719H113V15.6719V5.67187L104.922 5.67187V15.6719ZM101.484 22.6758V32.6758C101.811 32.6758 102.009 32.7311 102.097 32.7641C102.187 32.7974 102.18 32.8128 102.123 32.7608C102.063 32.7055 101.988 32.6106 101.933 32.4862C101.876 32.3569 101.883 32.29 101.883 32.3438H111.883H121.883C121.883 20.4166 112.085 12.6758 101.484 12.6758V22.6758ZM111.883 32.3438H101.883C101.883 32.4188 101.872 32.3657 101.925 32.2435C101.977 32.1256 102.05 32.0317 102.112 31.9749C102.17 31.9214 102.179 31.9351 102.093 31.9673C102.007 31.9994 101.811 32.0547 101.484 32.0547V42.0547V52.0547C112.116 52.0547 121.883 44.2857 121.883 32.3438H111.883ZM101.484 42.0547V32.0547C101.101 32.0547 100.879 31.9911 100.79 31.9582C100.702 31.9257 100.724 31.9166 100.798 31.9846C100.875 32.056 100.954 32.1625 101.006 32.2831C101.059 32.4057 101.043 32.4461 101.043 32.3438H91.043H81.043C81.043 44.2597 90.6958 52.0547 101.484 52.0547V42.0547ZM91.043 32.3438H101.043C101.043 32.2625 101.055 32.3167 100.999 32.4465C100.944 32.5737 100.862 32.6813 100.786 32.751C100.714 32.8175 100.695 32.8068 100.786 32.7732C100.877 32.7394 101.101 32.6758 101.484 32.6758V22.6758V12.6758C90.7264 12.6758 81.043 20.4426 81.043 32.3438H91.043ZM101.484 28.2187V18.2187C98.1706 18.2187 94.4494 19.3418 91.5651 22.2942C88.6611 25.2668 87.606 29.0654 87.6615 32.505L97.6602 32.3438L107.659 32.1825C107.671 32.958 107.411 34.6941 105.871 36.2703C104.351 37.8262 102.564 38.2188 101.484 38.2188V28.2187ZM97.6602 32.3438L87.6613 32.1899C87.6093 35.5736 88.5976 39.4751 91.6472 42.5247C94.649 45.5265 98.4175 46.4688 101.484 46.4688V36.4688V26.4687C102.317 26.4687 104.152 26.745 105.789 28.3825C107.475 30.0678 107.668 31.9069 107.659 32.4976L97.6602 32.3438ZM101.484 36.4688V46.4688C104.598 46.4688 108.354 45.4854 111.324 42.4683C114.297 39.448 115.266 35.6263 115.266 32.3438H105.266H95.2656C95.2656 31.8542 95.4398 30.095 97.0698 28.4389C98.6966 26.7861 100.562 26.4687 101.484 26.4687V36.4688ZM105.266 32.3438H115.266C115.266 29.0131 114.236 25.2955 111.405 22.3511C108.557 19.3886 104.848 18.2187 101.484 18.2187V28.2187V38.2188C100.312 38.2188 98.4942 37.7793 96.9884 36.2133C95.5001 34.6654 95.2656 33.0104 95.2656 32.3438H105.266ZM153.691 35.9961L161.961 41.6192C163.658 39.1228 164.137 35.9932 163.264 33.1034C162.391 30.2136 160.259 27.8729 157.463 26.7345L153.691 35.9961ZM150.039 41.3672L146.243 50.6185C150.616 52.4134 155.65 50.8999 158.308 46.9903L150.039 41.3672ZM140.844 31.7422L150.138 28.0525C148.608 24.198 144.858 21.6879 140.711 21.7431C136.564 21.7982 132.882 24.4071 131.455 28.3009L140.844 31.7422ZM131.477 42.3984L123.339 48.2108C126.091 52.0637 131.168 53.4585 135.503 51.5522L131.477 42.3984ZM127.609 36.9844L123.63 27.8102C120.86 29.0118 118.781 31.401 117.973 34.3108C117.166 37.2206 117.717 40.3395 119.472 42.7968L127.609 36.9844ZM137.148 19.2812H147.148C147.148 13.7584 142.671 9.28125 137.148 9.28125V19.2812ZM129.328 19.2812H119.328C119.328 24.8041 123.805 29.2812 129.328 29.2812V19.2812ZM129.328 13.6953V3.69531C123.805 3.69531 119.328 8.17247 119.328 13.6953H129.328ZM151.801 13.6953H161.801C161.801 8.17247 157.324 3.69531 151.801 3.69531V13.6953ZM151.801 19.2812V29.2812C157.324 29.2812 161.801 24.8041 161.801 19.2812H151.801ZM144.195 19.2812V9.28125C138.672 9.28125 134.195 13.7584 134.195 19.2812H144.195ZM161.641 10H171.641C171.641 4.47715 167.163 0 161.641 0V10ZM161.641 49.7461V59.7461C167.163 59.7461 171.641 55.2689 171.641 49.7461H161.641ZM154.68 49.7461H144.68C144.68 55.2689 149.157 59.7461 154.68 59.7461V49.7461ZM154.68 10V0C149.157 0 144.68 4.47715 144.68 10H154.68ZM144.195 19.9687H134.195C134.195 28.2505 137.408 40.1628 149.92 45.2577L153.691 35.9961L157.463 26.7345C156.261 26.2452 155.615 25.5594 155.139 24.638C154.575 23.5438 154.195 21.937 154.195 19.9687H144.195ZM153.691 35.9961L145.422 30.373L141.77 35.7441L150.039 41.3672L158.308 46.9903L161.961 41.6192L153.691 35.9961ZM150.039 41.3672L153.836 32.1159C152.212 31.4494 151.014 30.2591 150.138 28.0525L140.844 31.7422L131.549 35.4319C134.068 41.776 138.757 47.5467 146.243 50.6185L150.039 41.3672ZM140.844 31.7422L131.455 28.3009C130.392 31.1999 128.988 32.5685 127.451 33.2447L131.477 42.3984L135.503 51.5522C143.246 48.1464 147.815 41.7805 150.233 35.1835L140.844 31.7422ZM131.477 42.3984L139.614 36.5861L135.747 31.172L127.609 36.9844L119.472 42.7968L123.339 48.2108L131.477 42.3984ZM127.609 36.9844L131.589 46.1586C144.01 40.7711 147.148 28.4633 147.148 19.9687H137.148H127.148C127.148 22.1894 126.734 24.0718 126.081 25.3991C125.503 26.573 124.761 27.3196 123.63 27.8102L127.609 36.9844ZM137.148 19.9687H147.148V19.2812H137.148H127.148V19.9687H137.148ZM137.148 19.2812V9.28125H129.328V19.2812V29.2812H137.148V19.2812ZM129.328 19.2812H139.328V13.6953H129.328H119.328V19.2812H129.328ZM129.328 13.6953V23.6953H151.801V13.6953V3.69531H129.328V13.6953ZM151.801 13.6953H141.801V19.2812H151.801H161.801V13.6953H151.801ZM151.801 19.2812V9.28125H144.195V19.2812V29.2812H151.801V19.2812ZM144.195 19.2812H134.195V19.9687H144.195H154.195V19.2812H144.195ZM161.641 10H151.641V49.7461H161.641H171.641V10H161.641ZM161.641 49.7461V39.7461H154.68V49.7461V59.7461H161.641V49.7461ZM154.68 49.7461H164.68V10H154.68H144.68V49.7461H154.68ZM154.68 10V20H161.641V10V0H154.68V10ZM182.352 21L192.35 21.1724C192.352 21.0554 192.352 20.9384 192.35 20.8215L182.352 21ZM186.562 24.8242L186.384 34.8226C186.503 34.8247 186.622 34.8247 186.741 34.8226L186.562 24.8242ZM190.773 21L200.772 21.1724C200.774 21.0554 200.774 20.9384 200.772 20.8215L190.773 21ZM207.488 10H217.488C217.488 4.47715 213.011 0 207.488 0V10ZM207.488 17.8633L197.488 17.8633C197.488 23.3861 201.965 27.8633 207.488 27.8633V17.8633ZM212.43 17.8633H222.43C222.43 12.3404 217.953 7.86328 212.43 7.86328V17.8633ZM212.43 23.4922V33.4922C217.953 33.4922 222.43 29.015 222.43 23.4922H212.43ZM207.488 23.4922V13.4922C201.965 13.4922 197.488 17.9693 197.488 23.4922L207.488 23.4922ZM207.488 29.5078V39.5078C213.011 39.5078 217.488 35.0307 217.488 29.5078H207.488ZM200.57 29.5078H190.57C190.57 35.0307 195.047 39.5078 200.57 39.5078V29.5078ZM200.57 10V0C195.047 0 190.57 4.47715 190.57 10H200.57ZM185.574 33.0312H195.574C195.574 27.5084 191.097 23.0312 185.574 23.0312V33.0312ZM185.574 43.0859H175.574C175.574 45.8549 176.722 48.5 178.745 50.3909C180.768 52.2819 183.484 53.2495 186.247 53.0633L185.574 43.0859ZM190.688 42.1406L200.531 40.3799C200.025 37.5487 198.324 35.0725 195.863 33.584C193.402 32.0955 190.419 31.7387 187.676 32.6048L190.688 42.1406ZM191.633 47.4258L195.232 56.7558C199.701 55.0319 202.32 50.3806 201.477 45.6651L191.633 47.4258ZM178.828 48.7148H168.828C168.828 54.2377 173.305 58.7148 178.828 58.7148V48.7148ZM178.828 33.0312V23.0312C173.305 23.0312 168.828 27.5084 168.828 33.0312H178.828ZM210.238 32.9883H220.238C220.238 27.4654 215.761 22.9883 210.238 22.9883V32.9883ZM210.238 37.9297V47.9297C215.761 47.9297 220.238 43.4525 220.238 37.9297H210.238ZM190.301 37.9297H180.301C180.301 43.4525 184.778 47.9297 190.301 47.9297V37.9297ZM190.301 32.9883V22.9883C184.778 22.9883 180.301 27.4654 180.301 32.9883H190.301ZM197.004 32.9883V42.9883C202.527 42.9883 207.004 38.5111 207.004 32.9883H197.004ZM197.004 30.625V20.625C191.481 20.625 187.004 25.1022 187.004 30.625H197.004ZM203.664 30.625H213.664C213.664 25.1022 209.187 20.625 203.664 20.625V30.625ZM203.664 32.9883H193.664C193.664 38.5111 198.141 42.9883 203.664 42.9883V32.9883ZM200.227 38.5742L200.319 28.5746C200.258 28.5741 200.197 28.5741 200.136 28.5746L200.227 38.5742ZM208.133 44.2461L218.132 44.3711C218.133 44.2878 218.133 44.2044 218.132 44.1211L208.133 44.2461ZM186.562 11.7187V21.7187C187.617 21.7187 187.951 22.0434 187.856 21.963C187.806 21.9201 187.683 21.795 187.577 21.5712C187.466 21.3381 187.434 21.1234 187.434 21H197.434L207.434 21C207.434 8.64802 196.735 1.71875 186.562 1.71875V11.7187ZM197.434 21H187.434C187.434 20.9444 187.451 20.7724 187.551 20.5592C187.647 20.3535 187.763 20.2298 187.82 20.1809C187.929 20.0871 187.616 20.4102 186.562 20.4102V30.4102V40.4102C196.833 40.4102 207.434 33.3977 207.434 21L197.434 21ZM186.562 30.4102V20.4102C185.574 20.4102 185.22 20.0989 185.275 20.1456C185.309 20.1746 185.419 20.2832 185.517 20.4895C185.621 20.7066 185.648 20.9019 185.648 21H175.648H165.648C165.648 33.4919 176.489 40.4102 186.562 40.4102V30.4102ZM175.648 21H185.648C185.648 21.1668 185.605 21.405 185.49 21.6415C185.382 21.8652 185.266 21.975 185.238 21.9981C185.198 22.0317 185.573 21.7187 186.562 21.7187V11.7187V1.71875C176.586 1.71875 165.648 8.55446 165.648 21H175.648ZM186.562 17.3477V7.34766C183.771 7.34766 180.265 8.05833 177.251 10.4952C173.94 13.1722 172.28 17.101 172.353 21.1785L182.352 21L192.35 20.8215C192.363 21.5337 192.236 22.488 191.773 23.5167C191.306 24.5552 190.61 25.4134 189.826 26.0478C188.326 27.26 186.948 27.3477 186.562 27.3477V17.3477ZM182.352 21L172.353 20.8276C172.284 24.8251 173.846 28.7361 177.089 31.4726C180.065 33.9841 183.568 34.7723 186.384 34.8226L186.562 24.8242L186.741 14.8258C187.151 14.8331 188.527 14.9554 189.988 16.1885C191.716 17.6467 192.376 19.6671 192.35 21.1724L182.352 21ZM186.562 24.8242L186.741 34.8226C189.587 34.7718 193.09 33.9675 196.058 31.427C199.232 28.7096 200.707 24.9268 200.772 21.1724L190.773 21L180.775 20.8276C180.797 19.5654 181.37 17.6732 183.051 16.2341C184.525 14.972 185.944 14.8337 186.384 14.8258L186.562 24.8242ZM190.773 21L200.772 20.8215C200.704 16.9985 199.141 13.2009 195.896 10.5394C192.887 8.0722 189.381 7.34766 186.562 7.34766V17.3477V27.3477C186.15 27.3477 184.728 27.2462 183.213 26.0036C181.461 24.5667 180.8 22.5953 180.775 21.1785L190.773 21ZM207.488 10H197.488V17.8633L207.488 17.8633H217.488V10H207.488ZM207.488 17.8633V27.8633H212.43V17.8633V7.86328H207.488V17.8633ZM212.43 17.8633L202.43 17.8633V23.4922L212.43 23.4922H222.43V17.8633H212.43ZM212.43 23.4922V13.4922H207.488V23.4922V33.4922H212.43V23.4922ZM207.488 23.4922L197.488 23.4922V29.5078H207.488H217.488V23.4922H207.488ZM207.488 29.5078V19.5078L200.57 19.5078V29.5078V39.5078H207.488V29.5078ZM200.57 29.5078H210.57V10H200.57H190.57V29.5078H200.57ZM200.57 10V20L207.488 20V10V0H200.57V10ZM185.574 33.0312H175.574V43.0859H185.574H195.574V33.0312H185.574ZM185.574 43.0859L186.247 53.0633C188.923 52.8829 191.279 52.4407 193.699 51.6765L190.688 42.1406L187.676 32.6048C186.831 32.8718 186.049 33.0312 184.902 33.1086L185.574 43.0859ZM190.688 42.1406L180.844 43.9013L181.789 49.1865L191.633 47.4258L201.477 45.6651L200.531 40.3799L190.688 42.1406ZM191.633 47.4258L188.034 38.0958C186.949 38.5144 185.824 38.7148 181.234 38.7148V48.7148V58.7148C185.754 58.7148 190.301 58.6575 195.232 56.7558L191.633 47.4258ZM181.234 48.7148V38.7148H178.828V48.7148V58.7148H181.234V48.7148ZM178.828 48.7148H188.828V33.0312H178.828H168.828V48.7148H178.828ZM178.828 33.0312V43.0312H185.574V33.0312V23.0312H178.828V33.0312ZM210.238 32.9883H200.238V37.9297H210.238H220.238V32.9883H210.238ZM210.238 37.9297V27.9297L190.301 27.9297V37.9297V47.9297H210.238V37.9297ZM190.301 37.9297H200.301V32.9883H190.301H180.301V37.9297H190.301ZM190.301 32.9883V42.9883H197.004V32.9883V22.9883H190.301V32.9883ZM197.004 32.9883H207.004V30.625H197.004H187.004V32.9883H197.004ZM197.004 30.625V40.625H203.664V30.625V20.625H197.004V30.625ZM203.664 30.625H193.664V32.9883H203.664H213.664V30.625H203.664ZM203.664 32.9883V42.9883H210.238V32.9883V22.9883L203.664 22.9883V32.9883ZM200.227 38.5742L200.134 48.5738C201.036 48.5821 200.845 48.8074 200.133 48.3043C199.737 48.024 199.206 47.5255 198.778 46.749C198.337 45.9512 198.143 45.1082 198.134 44.3711L208.133 44.2461L218.132 44.1211C218.067 38.9005 215.428 34.6223 211.674 31.9701C208.18 29.5012 204.058 28.6093 200.319 28.5746L200.227 38.5742ZM208.133 44.2461L198.134 44.1211C198.143 43.3834 198.338 42.527 198.792 41.7105C199.234 40.9149 199.783 40.4041 200.197 40.1165C200.938 39.6016 201.144 39.832 200.227 39.832V49.832V59.832C203.95 59.832 208.088 58.9882 211.611 56.5398C215.412 53.898 218.067 49.6056 218.132 44.3711L208.133 44.2461ZM200.227 49.832V39.832C199.227 39.832 199.474 39.5852 200.274 40.1478C200.722 40.4626 201.291 41.008 201.736 41.8363C202.19 42.6809 202.363 43.5402 202.363 44.2461H192.363H182.363C182.363 49.4283 184.907 53.7918 188.771 56.5084C192.321 59.0047 196.5 59.832 200.227 59.832V49.832ZM192.363 44.2461H202.363C202.363 44.9518 202.19 45.7977 201.75 46.6234C201.318 47.4322 200.768 47.9649 200.338 48.2724C199.566 48.8239 199.335 48.5827 200.317 48.5738L200.227 38.5742L200.136 28.5746C196.392 28.6087 192.229 29.4847 188.707 32.002C184.892 34.7289 182.363 39.0765 182.363 44.2461H192.363ZM200.227 43.3008V33.3008C199.341 33.3008 197.135 33.3442 194.814 34.4064C193.514 35.0015 191.824 36.0778 190.47 37.9694C189.047 39.957 188.465 42.191 188.465 44.2461H198.465H208.465C208.465 45.9359 207.979 47.8692 206.732 49.611C205.554 51.2569 204.12 52.1425 203.136 52.5926C202.18 53.0304 201.391 53.1795 201.01 53.2363C200.598 53.2978 200.315 53.3008 200.227 53.3008V43.3008ZM198.465 44.2461H188.465C188.465 46.3012 189.047 48.5352 190.47 50.5228C191.824 52.4144 193.514 53.4907 194.814 54.0858C197.135 55.148 199.341 55.1914 200.227 55.1914V45.1914V35.1914C200.315 35.1914 200.598 35.1944 201.01 35.2559C201.391 35.3127 202.18 35.4618 203.136 35.8996C204.12 36.3496 205.554 37.2353 206.732 38.8812C207.979 40.623 208.465 42.5563 208.465 44.2461H198.465ZM200.227 45.1914V55.1914C201.112 55.1914 203.318 55.148 205.639 54.0858C206.94 53.4907 208.629 52.4144 209.983 50.5228C211.406 48.5352 211.988 46.3012 211.988 44.2461H201.988H191.988C191.988 42.5563 192.474 40.623 193.721 38.8812C194.899 37.2353 196.333 36.3496 197.317 35.8996C198.273 35.4618 199.062 35.3127 199.443 35.2559C199.855 35.1944 200.138 35.1914 200.227 35.1914V45.1914ZM201.988 44.2461H211.988C211.988 42.191 211.406 39.957 209.983 37.9694C208.629 36.0778 206.94 35.0015 205.639 34.4064C203.318 33.3442 201.112 33.3008 200.227 33.3008V43.3008V53.3008C200.138 53.3008 199.855 53.2978 199.443 53.2363C199.062 53.1795 198.273 53.0304 197.317 52.5926C196.333 52.1425 194.899 51.2569 193.721 49.611C192.474 47.8692 191.988 45.9359 191.988 44.2461H201.988ZM249.984 29.9375H259.984C259.984 24.4147 255.507 19.9375 249.984 19.9375V29.9375ZM249.984 35.3516V45.3516C255.507 45.3516 259.984 40.8744 259.984 35.3516H249.984ZM213.719 35.3516H203.719C203.719 40.8744 208.196 45.3516 213.719 45.3516V35.3516ZM213.719 29.9375V19.9375C208.196 19.9375 203.719 24.4147 203.719 29.9375H213.719ZM245.773 43.6875H255.773C255.773 38.1647 251.296 33.6875 245.773 33.6875V43.6875ZM245.773 49.1875V59.1875C251.296 59.1875 255.773 54.7103 255.773 49.1875H245.773ZM217.887 49.1875H207.887C207.887 54.7103 212.364 59.1875 217.887 59.1875V49.1875ZM217.887 37.5V27.5C212.364 27.5 207.887 31.9772 207.887 37.5H217.887ZM224.805 37.5H234.805C234.805 31.9772 230.328 27.5 224.805 27.5V37.5ZM224.805 43.6875H214.805C214.805 49.2103 219.282 53.6875 224.805 53.6875V43.6875ZM246.547 19.4102L256.547 19.4928C256.547 19.4372 256.547 19.3817 256.547 19.3261L246.547 19.4102ZM217.113 19.4102L227.113 19.4928C227.113 19.4372 227.113 19.3817 227.113 19.3261L217.113 19.4102ZM231.852 16.5312L231.939 6.53163C231.881 6.53113 231.823 6.53112 231.765 6.53162L231.852 16.5312ZM224.289 19.4102L234.287 19.6184C234.29 19.475 234.29 19.3315 234.287 19.188L224.289 19.4102ZM231.852 22.2461L231.939 12.2465C231.881 12.246 231.823 12.246 231.765 12.2465L231.852 22.2461ZM249.984 29.9375H239.984V35.3516H249.984H259.984V29.9375H249.984ZM249.984 35.3516V25.3516H213.719V35.3516V45.3516H249.984V35.3516ZM213.719 35.3516H223.719V29.9375H213.719H203.719V35.3516H213.719ZM213.719 29.9375V39.9375H249.984V29.9375V19.9375H213.719V29.9375ZM245.773 43.6875H235.773V49.1875H245.773H255.773V43.6875H245.773ZM245.773 49.1875V39.1875H217.887V49.1875V59.1875H245.773V49.1875ZM217.887 49.1875H227.887V37.5H217.887H207.887V49.1875H217.887ZM217.887 37.5V47.5H224.805V37.5V27.5H217.887V37.5ZM224.805 37.5H214.805V43.6875H224.805H234.805V37.5H224.805ZM224.805 43.6875V53.6875H245.773V43.6875V33.6875H224.805V43.6875ZM231.852 11.1172V21.1172C235.213 21.1172 237.018 21.7555 237.601 22.0809C237.835 22.2112 237.564 22.1183 237.208 21.5982C236.802 21.0039 236.553 20.2325 236.547 19.4942L246.547 19.4102L256.547 19.3261C256.487 12.2408 252.144 7.28992 247.339 4.61151C242.777 2.06871 237.255 1.11719 231.852 1.11719V11.1172ZM246.547 19.4102L236.547 19.3275C236.553 18.6476 236.78 17.9154 237.167 17.3389C237.508 16.8323 237.771 16.7399 237.546 16.8672C236.978 17.1886 235.196 17.832 231.852 17.832V27.832V37.832C237.272 37.832 242.817 36.8641 247.394 34.2744C252.234 31.5366 256.488 26.5412 256.547 19.4928L246.547 19.4102ZM231.852 27.832V17.832C228.445 17.832 226.63 17.1821 226.056 16.8584C225.829 16.7309 226.116 16.8348 226.476 17.3762C226.888 17.9944 227.119 18.7752 227.113 19.4928L217.113 19.4102L207.114 19.3275C207.054 26.487 211.376 31.5434 216.238 34.2832C220.831 36.8706 226.407 37.832 231.852 37.832V27.832ZM217.113 19.4102L227.113 19.3261C227.119 20.1031 226.866 20.9243 226.436 21.5609C226.06 22.1159 225.765 22.2202 226 22.0895C226.591 21.7618 228.428 21.1172 231.852 21.1172V11.1172V1.11719C226.423 1.11719 220.87 2.06243 216.294 4.6029C211.467 7.28237 207.053 12.2948 207.114 19.4942L217.113 19.4102ZM231.852 16.5312L231.765 6.53162C228.975 6.55568 225.652 6.79251 222.704 7.8871C221.171 8.45626 219.06 9.5024 217.278 11.5061C215.289 13.7437 214.224 16.6133 214.292 19.6323L224.289 19.4102L234.287 19.188C234.332 21.2402 233.579 23.2719 232.225 24.7951C231.079 26.0845 229.926 26.5398 229.666 26.6363C229.354 26.7523 229.342 26.7088 229.828 26.6467C230.277 26.5893 230.964 26.5393 231.938 26.5309L231.852 16.5312ZM224.289 19.4102L214.291 19.2019C214.231 22.073 215.177 24.9534 217.199 27.284C219.024 29.3863 221.216 30.4592 222.809 31.0306C225.826 32.1125 229.209 32.2692 231.938 32.2457L231.852 22.2461L231.765 12.2465C230.775 12.255 230.086 12.218 229.641 12.1696C229.154 12.1168 229.201 12.0757 229.561 12.2048C229.881 12.3196 231.115 12.8044 232.304 14.1749C233.692 15.7736 234.325 17.7785 234.287 19.6184L224.289 19.4102ZM231.852 22.2461L231.764 32.2457C234.473 32.2695 237.828 32.1084 240.833 31.0351C242.415 30.47 244.569 29.4207 246.385 27.385C248.393 25.1327 249.414 22.3066 249.414 19.4102H239.414H229.414C229.414 17.5449 230.102 15.5943 231.458 14.0739C232.62 12.77 233.802 12.3089 234.106 12.2003C234.449 12.0777 234.487 12.1185 234.012 12.1705C233.575 12.2183 232.902 12.2549 231.939 12.2465L231.852 22.2461ZM239.414 19.4102H249.414C249.414 16.3715 248.274 13.5618 246.304 11.406C244.534 9.46789 242.46 8.44528 240.938 7.88233C238.003 6.79719 234.709 6.55593 231.939 6.53163L231.852 16.5312L231.764 26.5309C232.71 26.5392 233.382 26.5886 233.823 26.6454C234.299 26.7067 234.297 26.7503 234.002 26.6411C233.758 26.5508 232.656 26.119 231.538 24.8953C230.221 23.4538 229.414 21.482 229.414 19.4102H239.414Z" fill="white" mask="url(#path-1-outside-1_3990_1488)"/>
</g>
<defs>
<filter id="filter0_d_3990_1488" x="0" y="0" width="263.984" height="67.832" filterUnits="userSpaceOnUse" color-interpolation-filters="sRGB">
<feFlood flood-opacity="0" result="BackgroundImageFix"/>
<feColorMatrix in="SourceAlpha" type="matrix" values="0 0 0 0 0 0 0 0 0 0 0 0 0 0 0 0 0 0 127 0" result="hardAlpha"/>
<feOffset dy="4"/>
<feGaussianBlur stdDeviation="2"/>
<feComposite in2="hardAlpha" operator="out"/>
<feColorMatrix type="matrix" values="0 0 0 0 0 0 0 0 0 0 0 0 0 0 0 0 0 0 0.07 0"/>
<feBlend mode="normal" in2="BackgroundImageFix" result="effect1_dropShadow_3990_1488"/>
<feBlend mode="normal" in="SourceGraphic" in2="effect1_dropShadow_3990_1488" result="shape"/>
</filter>
</defs>
</svg>
