<svg width="303" height="68" viewBox="0 0 303 68" fill="none" xmlns="http://www.w3.org/2000/svg">
<g filter="url(#filter0_d_3990_1490)">
<mask id="path-1-outside-1_3990_1490" maskUnits="userSpaceOnUse" x="3.96881" y="-0.464844" width="295" height="61" fill="black">
<rect fill="white" x="3.96881" y="-0.464844" width="295" height="61"/>
<path d="M26.6329 12.5781C32.9922 12.5352 37.8477 16.7891 37.8477 22.5898C37.8477 28.4336 32.9922 32.6445 26.6329 32.6016C20.4024 32.6445 15.418 28.4336 15.418 22.5898C15.418 16.7891 20.4024 12.5352 26.6329 12.5781ZM26.6329 18.5078C24.2266 18.5078 22.293 19.8828 22.293 22.5898C22.293 25.3828 24.2266 26.6719 26.6329 26.6719C29.168 26.6719 31.1446 25.3828 31.1446 22.5898C31.1446 19.8828 29.168 18.5078 26.6329 18.5078ZM47.7305 10.043V49.918H40.8985V10.043L47.7305 10.043ZM14.0001 36.6836C20.918 36.6836 30.586 36.5547 38.879 35.4375L39.3946 40.3789C30.8008 42.0977 21.5626 42.1836 14.7735 42.1836L14.0001 36.6836ZM85.6719 10.1289V39.1758H78.8399V31.7422H70.8047V26.2852L78.8399 26.2852V22.8906L71.4063 22.8906C68.5704 28.7773 63.0274 33.0742 55.1641 35.3516L52.3712 30.0234C60.2559 27.5742 64.918 23.4707 66.0352 18.4648H54.5626V13.0078H73.5118C73.5118 14.5332 73.3829 16.0156 73.1251 17.4336L78.8399 17.4336V10.1289H85.6719ZM86.7462 43.7305V49.2305H58.9454V36.2969H65.9493V43.7305H86.7462ZM126.234 40.25V45.707H89.9258V40.25H98.2188V33.9336H92.7618V28.4336H97.5313V18.3789H92.5469V12.9219H123.484V18.3789H118.371V28.4336H123.27V33.9336H117.813V40.25H126.234ZM104.406 28.4336H111.539V18.3789H104.406V28.4336ZM105.137 40.25H110.895V33.9336H105.137V40.25ZM161.77 10.1289V40.3359H154.895V33.5469H150.512V28.1328H154.895V25.0391H150.512V19.5391H154.895V10.1289H161.77ZM149.867 13.8672V19.1953H128.082V13.8672H135.902V10H142.777V13.8672H149.867ZM139.254 20.0977C144.797 20.0977 148.879 23.4492 148.879 28.0469C148.879 32.6875 144.797 35.9531 139.254 35.9531C133.84 35.9531 129.715 32.6875 129.758 28.0469C129.715 23.4492 133.84 20.0977 139.254 20.0977ZM139.254 25.3828C137.449 25.4258 136.16 26.2422 136.16 28.0469C136.16 29.9805 137.449 30.7539 139.254 30.7539C141.016 30.7539 142.434 29.9805 142.434 28.0469C142.434 26.2422 141.016 25.4258 139.254 25.3828ZM162.586 43.7305V49.2305L134.828 49.2305V37.8438L141.832 37.8437V43.7305H162.586ZM199.539 10.043V49.918H192.578V10.043H199.539ZM177.711 12.707C183.77 12.6641 188.324 18.25 188.324 27.0156C188.324 35.9102 183.77 41.4531 177.711 41.4531C171.523 41.4531 166.926 35.9102 166.926 27.0156C166.926 18.25 171.523 12.6641 177.711 12.707ZM177.711 18.9375C175.176 18.8945 173.586 21.5156 173.586 27.0156C173.586 32.6016 175.176 35.1367 177.711 35.1367C180.074 35.1367 181.707 32.6016 181.707 27.0156C181.707 21.5156 180.074 18.8945 177.711 18.9375ZM245.387 10.043V18.8086H250.328V24.3516H245.387V32.6445H238.469V10.043H245.387ZM234.172 12.4922C234.172 23.4062 227.856 30.7969 215.824 34.0195L213.117 28.4766C221.281 26.4355 225.621 22.5684 226.609 17.9492H215.094V12.4922H234.172ZM232.109 33.1172C240.316 33.1172 245.773 36.4258 245.816 41.4961C245.773 46.6953 240.316 49.918 232.109 49.918C223.988 49.918 218.359 46.6953 218.402 41.4961C218.359 36.4258 223.988 33.1172 232.109 33.1172ZM232.109 38.4453C227.684 38.4023 225.234 39.4336 225.234 41.4961C225.234 43.5586 227.684 44.6328 232.109 44.5898C236.535 44.6328 238.984 43.5586 238.984 41.4961C238.984 39.4336 236.535 38.4023 232.109 38.4453ZM283.414 10.1289V21.7305H288.356V27.3164H283.414V39.7344H276.496V10.1289H283.414ZM275.078 13.8672V19.1953H251.574V13.8672H259.867V10.043H266.785V13.8672H275.078ZM263.305 20.0977C269.106 20.0977 273.231 23.3203 273.231 27.9609C273.231 32.6016 269.106 35.7383 263.305 35.6953C257.461 35.7383 253.293 32.6016 253.293 27.9609C253.293 23.3203 257.461 20.0977 263.305 20.0977ZM263.305 25.2969C261.328 25.3398 260.039 26.1562 260.039 27.9609C260.039 29.7656 261.328 30.5391 263.305 30.5391C265.324 30.5391 266.699 29.7656 266.699 27.9609C266.699 26.1562 265.324 25.3398 263.305 25.2969ZM284.574 43.7305V49.2305H257.074V37.5H263.992V43.7305H284.574Z"/>
</mask>
<path d="M26.6329 12.5781C32.9922 12.5352 37.8477 16.7891 37.8477 22.5898C37.8477 28.4336 32.9922 32.6445 26.6329 32.6016C20.4024 32.6445 15.418 28.4336 15.418 22.5898C15.418 16.7891 20.4024 12.5352 26.6329 12.5781ZM26.6329 18.5078C24.2266 18.5078 22.293 19.8828 22.293 22.5898C22.293 25.3828 24.2266 26.6719 26.6329 26.6719C29.168 26.6719 31.1446 25.3828 31.1446 22.5898C31.1446 19.8828 29.168 18.5078 26.6329 18.5078ZM47.7305 10.043V49.918H40.8985V10.043L47.7305 10.043ZM14.0001 36.6836C20.918 36.6836 30.586 36.5547 38.879 35.4375L39.3946 40.3789C30.8008 42.0977 21.5626 42.1836 14.7735 42.1836L14.0001 36.6836ZM85.6719 10.1289V39.1758H78.8399V31.7422H70.8047V26.2852L78.8399 26.2852V22.8906L71.4063 22.8906C68.5704 28.7773 63.0274 33.0742 55.1641 35.3516L52.3712 30.0234C60.2559 27.5742 64.918 23.4707 66.0352 18.4648H54.5626V13.0078H73.5118C73.5118 14.5332 73.3829 16.0156 73.1251 17.4336L78.8399 17.4336V10.1289H85.6719ZM86.7462 43.7305V49.2305H58.9454V36.2969H65.9493V43.7305H86.7462ZM126.234 40.25V45.707H89.9258V40.25H98.2188V33.9336H92.7618V28.4336H97.5313V18.3789H92.5469V12.9219H123.484V18.3789H118.371V28.4336H123.27V33.9336H117.813V40.25H126.234ZM104.406 28.4336H111.539V18.3789H104.406V28.4336ZM105.137 40.25H110.895V33.9336H105.137V40.25ZM161.77 10.1289V40.3359H154.895V33.5469H150.512V28.1328H154.895V25.0391H150.512V19.5391H154.895V10.1289H161.77ZM149.867 13.8672V19.1953H128.082V13.8672H135.902V10H142.777V13.8672H149.867ZM139.254 20.0977C144.797 20.0977 148.879 23.4492 148.879 28.0469C148.879 32.6875 144.797 35.9531 139.254 35.9531C133.84 35.9531 129.715 32.6875 129.758 28.0469C129.715 23.4492 133.84 20.0977 139.254 20.0977ZM139.254 25.3828C137.449 25.4258 136.16 26.2422 136.16 28.0469C136.16 29.9805 137.449 30.7539 139.254 30.7539C141.016 30.7539 142.434 29.9805 142.434 28.0469C142.434 26.2422 141.016 25.4258 139.254 25.3828ZM162.586 43.7305V49.2305L134.828 49.2305V37.8438L141.832 37.8437V43.7305H162.586ZM199.539 10.043V49.918H192.578V10.043H199.539ZM177.711 12.707C183.77 12.6641 188.324 18.25 188.324 27.0156C188.324 35.9102 183.77 41.4531 177.711 41.4531C171.523 41.4531 166.926 35.9102 166.926 27.0156C166.926 18.25 171.523 12.6641 177.711 12.707ZM177.711 18.9375C175.176 18.8945 173.586 21.5156 173.586 27.0156C173.586 32.6016 175.176 35.1367 177.711 35.1367C180.074 35.1367 181.707 32.6016 181.707 27.0156C181.707 21.5156 180.074 18.8945 177.711 18.9375ZM245.387 10.043V18.8086H250.328V24.3516H245.387V32.6445H238.469V10.043H245.387ZM234.172 12.4922C234.172 23.4062 227.856 30.7969 215.824 34.0195L213.117 28.4766C221.281 26.4355 225.621 22.5684 226.609 17.9492H215.094V12.4922H234.172ZM232.109 33.1172C240.316 33.1172 245.773 36.4258 245.816 41.4961C245.773 46.6953 240.316 49.918 232.109 49.918C223.988 49.918 218.359 46.6953 218.402 41.4961C218.359 36.4258 223.988 33.1172 232.109 33.1172ZM232.109 38.4453C227.684 38.4023 225.234 39.4336 225.234 41.4961C225.234 43.5586 227.684 44.6328 232.109 44.5898C236.535 44.6328 238.984 43.5586 238.984 41.4961C238.984 39.4336 236.535 38.4023 232.109 38.4453ZM283.414 10.1289V21.7305H288.356V27.3164H283.414V39.7344H276.496V10.1289H283.414ZM275.078 13.8672V19.1953H251.574V13.8672H259.867V10.043H266.785V13.8672H275.078ZM263.305 20.0977C269.106 20.0977 273.231 23.3203 273.231 27.9609C273.231 32.6016 269.106 35.7383 263.305 35.6953C257.461 35.7383 253.293 32.6016 253.293 27.9609C253.293 23.3203 257.461 20.0977 263.305 20.0977ZM263.305 25.2969C261.328 25.3398 260.039 26.1562 260.039 27.9609C260.039 29.7656 261.328 30.5391 263.305 30.5391C265.324 30.5391 266.699 29.7656 266.699 27.9609C266.699 26.1562 265.324 25.3398 263.305 25.2969ZM284.574 43.7305V49.2305H257.074V37.5H263.992V43.7305H284.574Z" fill="#11DCA9"/>
<path d="M26.6329 12.5781L26.5639 22.5779C26.6094 22.5782 26.6549 22.5782 26.7004 22.5779L26.6329 12.5781ZM26.6329 32.6016L26.7004 22.6018C26.6549 22.6015 26.6094 22.6015 26.5639 22.6018L26.6329 32.6016ZM47.7305 10.043H57.7305C57.7305 4.52012 53.2534 0.0429687 47.7305 0.0429687V10.043ZM47.7305 49.918V59.918C53.2534 59.918 57.7305 55.4408 57.7305 49.918H47.7305ZM40.8985 49.918H30.8985C30.8985 55.4408 35.3757 59.918 40.8985 59.918V49.918ZM40.8985 10.043V0.0429687C35.3757 0.0429687 30.8985 4.52012 30.8985 10.043H40.8985ZM14.0001 36.6836L14.0001 26.6836C11.105 26.6836 8.35196 27.9383 6.45269 30.1233C4.55343 32.3083 3.69434 35.2093 4.0975 38.0761L14.0001 36.6836ZM38.879 35.4375L48.825 34.3997C48.5443 31.7102 47.1865 29.249 45.061 27.5773C42.9356 25.9057 40.2237 25.166 37.5439 25.527L38.879 35.4375ZM39.3946 40.3789L41.3558 50.1847C46.417 49.1725 49.8763 44.4746 49.3406 39.3411L39.3946 40.3789ZM14.7735 42.1836L4.87093 43.5761C5.56509 48.5124 9.78868 52.1836 14.7735 52.1836V42.1836ZM26.6329 12.5781L26.7004 22.5779C27.166 22.5748 27.4938 22.6505 27.6958 22.7228C27.8992 22.7957 27.981 22.8663 27.9864 22.8711C27.9882 22.8727 27.9393 22.827 27.894 22.7277C27.8453 22.6212 27.8477 22.5558 27.8477 22.5898H37.8477H47.8477C47.8477 10.2095 37.3846 2.50525 26.5653 2.57835L26.6329 12.5781ZM37.8477 22.5898H27.8477C27.8477 22.6448 27.8411 22.586 27.8914 22.4758C27.9128 22.4287 27.9374 22.3888 27.9601 22.3583C27.9825 22.3282 27.9976 22.3147 27.9976 22.3148C27.9973 22.3151 27.9786 22.3316 27.9344 22.3574C27.8901 22.3833 27.8191 22.419 27.7166 22.4555C27.5126 22.528 27.178 22.605 26.7004 22.6018L26.6329 32.6016L26.5653 42.6013C37.3547 42.6742 47.8477 35.0398 47.8477 22.5898H37.8477ZM26.6329 32.6016L26.5639 22.6018C25.7025 22.6077 25.3257 22.3228 25.2868 22.2886C25.2704 22.2742 25.3165 22.3115 25.3639 22.4137C25.4159 22.5257 25.418 22.6051 25.418 22.5898H15.418H5.41803C5.41803 35.1096 16.1188 42.6743 26.7018 42.6013L26.6329 32.6016ZM15.418 22.5898H25.418C25.418 22.5839 25.4183 22.6071 25.4085 22.6515C25.3988 22.6955 25.3828 22.7435 25.3613 22.7899C25.3157 22.8878 25.2744 22.9182 25.298 22.8973C25.3508 22.8508 25.7293 22.5721 26.5639 22.5779L26.6329 12.5781L26.7018 2.57836C16.0888 2.50517 5.41803 10.1396 5.41803 22.5898H15.418ZM26.6329 18.5078V8.50781C23.6125 8.50781 20.0054 9.37236 16.9975 11.9887C13.7953 14.7743 12.293 18.6689 12.293 22.5898H22.293H32.293C32.293 23.8038 31.7576 25.6574 30.1237 27.0786C28.6842 28.3308 27.247 28.5078 26.6329 28.5078V18.5078ZM22.293 22.5898H12.293C12.293 26.4759 13.7456 30.4394 17.057 33.2745C20.1325 35.9076 23.7625 36.6719 26.6329 36.6719V26.6719V16.6719C27.097 16.6719 28.5571 16.7916 30.0642 18.082C31.8073 19.5743 32.293 21.4968 32.293 22.5898H22.293ZM26.6329 26.6719V36.6719C29.4552 36.6719 33.0947 35.9652 36.2161 33.3813C39.6187 30.5646 41.1446 26.5578 41.1446 22.5898H31.1446H21.1446C21.1446 21.4149 21.6822 19.4491 23.4627 17.9751C24.962 16.734 26.3457 16.6719 26.6329 16.6719V26.6719ZM31.1446 22.5898H41.1446C41.1446 18.5865 39.5676 14.649 36.2761 11.8806C33.2178 9.30847 29.6001 8.50781 26.6329 8.50781V18.5078V28.5078C26.2008 28.5078 24.8389 28.3947 23.4027 27.1867C21.7333 25.7826 21.1446 23.8862 21.1446 22.5898H31.1446ZM47.7305 10.043L37.7305 10.043V49.918H47.7305H57.7305V10.043H47.7305ZM47.7305 49.918V39.918H40.8985V49.918V59.918H47.7305V49.918ZM40.8985 49.918H50.8985V10.043L40.8985 10.043H30.8985V49.918H40.8985ZM40.8985 10.043V20.043H47.7305V10.043V0.0429687H40.8985V10.043ZM14.0001 36.6836V46.6836C20.9279 46.6836 31.1916 46.5634 40.2141 45.348L38.879 35.4375L37.5439 25.527C29.9804 26.5459 20.9082 26.6836 14.0001 26.6836L14.0001 36.6836ZM38.879 35.4375L28.933 36.4753L29.4486 41.4167L39.3946 40.3789L49.3406 39.3411L48.825 34.3997L38.879 35.4375ZM39.3946 40.3789L37.4334 30.5731C29.9269 32.0744 21.6035 32.1836 14.7735 32.1836L14.7735 42.1836V52.1836C21.5216 52.1836 31.6748 52.1209 41.3558 50.1847L39.3946 40.3789ZM14.7735 42.1836L24.6761 40.791L23.9026 35.291L14.0001 36.6836L4.0975 38.0761L4.87093 43.5761L14.7735 42.1836ZM85.6719 10.1289H95.6719C95.6719 4.60606 91.1948 0.128906 85.6719 0.128906V10.1289ZM85.6719 39.1758V49.1758C91.1948 49.1758 95.6719 44.6986 95.6719 39.1758H85.6719ZM78.8399 39.1758H68.8399C68.8399 44.6986 73.3171 49.1758 78.8399 49.1758V39.1758ZM78.8399 31.7422H88.8399C88.8399 26.2193 84.3628 21.7422 78.8399 21.7422V31.7422ZM70.8047 31.7422H60.8047C60.8047 37.265 65.2819 41.7422 70.8047 41.7422V31.7422ZM70.8047 26.2852V16.2852C65.2819 16.2852 60.8047 20.7623 60.8047 26.2852H70.8047ZM78.8399 26.2852V36.2852C84.3628 36.2852 88.8399 31.808 88.8399 26.2852H78.8399ZM78.8399 22.8906H88.8399C88.8399 17.3678 84.3628 12.8906 78.8399 12.8906V22.8906ZM71.4063 22.8906V12.8906C67.5656 12.8906 64.0642 15.0903 62.3972 18.5505L71.4063 22.8906ZM55.1641 35.3516L46.3072 39.9943C48.5142 44.2045 53.38 46.2792 57.946 44.9568L55.1641 35.3516ZM52.3712 30.0234L49.4047 20.4736C46.57 21.3541 44.2729 23.4485 43.1351 26.1901C41.9972 28.9317 42.1361 32.0371 43.5142 34.6662L52.3712 30.0234ZM66.0352 18.4648L75.7951 20.643C76.4561 17.6811 75.7364 14.5792 73.8385 12.2111C71.9406 9.84299 69.07 8.46484 66.0352 8.46484V18.4648ZM54.5626 18.4648H44.5626C44.5626 23.9877 49.0397 28.4648 54.5626 28.4648V18.4648ZM54.5626 13.0078V3.00781C49.0397 3.00781 44.5626 7.48497 44.5626 13.0078H54.5626ZM73.5118 13.0078L83.5118 13.0078C83.5118 7.48497 79.0346 3.00781 73.5118 3.00781V13.0078ZM73.1251 17.4336L63.2864 15.6447C62.7559 18.5621 63.5476 21.5645 65.4475 23.8411C67.3475 26.1176 70.1598 27.4336 73.1251 27.4336V17.4336ZM78.8399 17.4336V27.4336C84.3628 27.4336 88.8399 22.9564 88.8399 17.4336H78.8399ZM78.8399 10.1289V0.128906C73.3171 0.128906 68.8399 4.60606 68.8399 10.1289H78.8399ZM86.7462 43.7305H96.7462C96.7462 38.2076 92.269 33.7305 86.7462 33.7305V43.7305ZM86.7462 49.2305V59.2305C92.269 59.2305 96.7462 54.7533 96.7462 49.2305H86.7462ZM58.9454 49.2305H48.9454C48.9454 54.7533 53.4225 59.2305 58.9454 59.2305V49.2305ZM58.9454 36.2969V26.2969C53.4225 26.2969 48.9454 30.774 48.9454 36.2969H58.9454ZM65.9493 36.2969H75.9493C75.9493 30.774 71.4721 26.2969 65.9493 26.2969V36.2969ZM65.9493 43.7305H55.9493C55.9493 49.2533 60.4264 53.7305 65.9493 53.7305V43.7305ZM85.6719 10.1289H75.6719V39.1758H85.6719H95.6719V10.1289H85.6719ZM85.6719 39.1758V29.1758H78.8399V39.1758V49.1758H85.6719V39.1758ZM78.8399 39.1758H88.8399V31.7422H78.8399H68.8399V39.1758H78.8399ZM78.8399 31.7422V21.7422L70.8047 21.7422V31.7422V41.7422H78.8399V31.7422ZM70.8047 31.7422H80.8047V26.2852L70.8047 26.2852H60.8047V31.7422H70.8047ZM70.8047 26.2852V36.2852H78.8399V26.2852V16.2852L70.8047 16.2852V26.2852ZM78.8399 26.2852H88.8399V22.8906H78.8399L68.8399 22.8906V26.2852L78.8399 26.2852ZM78.8399 22.8906V12.8906L71.4063 12.8906V22.8906V32.8906H78.8399V22.8906ZM71.4063 22.8906L62.3972 18.5505C61.0721 21.3012 58.197 24.0622 52.3823 25.7463L55.1641 35.3516L57.946 44.9568C67.8578 42.0862 76.0686 36.2535 80.4154 27.2308L71.4063 22.8906ZM55.1641 35.3516L64.021 30.7088L61.2281 25.3807L52.3712 30.0234L43.5142 34.6662L46.3072 39.9943L55.1641 35.3516ZM52.3712 30.0234L55.3376 39.5733C64.7169 36.6599 73.54 30.7477 75.7951 20.643L66.0352 18.4648L56.2753 16.2867C56.2629 16.3424 56.169 16.8104 55.2441 17.6009C54.251 18.4496 52.4312 19.5335 49.4047 20.4736L52.3712 30.0234ZM66.0352 18.4648V8.46484H54.5626V18.4648V28.4648H66.0352V18.4648ZM54.5626 18.4648H64.5626V13.0078H54.5626H44.5626V18.4648H54.5626ZM54.5626 13.0078V23.0078H73.5118V13.0078V3.00781L54.5626 3.00781V13.0078ZM73.5118 13.0078H63.5118C63.5118 13.9724 63.4301 14.8543 63.2864 15.6447L73.1251 17.4336L82.9638 19.2224C83.3357 17.177 83.5118 15.094 83.5118 13.0078L73.5118 13.0078ZM73.1251 17.4336V27.4336L78.8399 27.4336V17.4336V7.43359H73.1251V17.4336ZM78.8399 17.4336H88.8399V10.1289H78.8399H68.8399V17.4336L78.8399 17.4336ZM78.8399 10.1289V20.1289H85.6719V10.1289V0.128906L78.8399 0.128906V10.1289ZM86.7462 43.7305H76.7462V49.2305H86.7462H96.7462V43.7305H86.7462ZM86.7462 49.2305V39.2305H58.9454V49.2305V59.2305H86.7462V49.2305ZM58.9454 49.2305H68.9454V36.2969H58.9454H48.9454V49.2305H58.9454ZM58.9454 36.2969V46.2969H65.9493V36.2969V26.2969H58.9454V36.2969ZM65.9493 36.2969H55.9493V43.7305H65.9493H75.9493V36.2969H65.9493ZM65.9493 43.7305V53.7305H86.7462V43.7305V33.7305H65.9493V43.7305ZM126.234 40.25H136.234C136.234 34.7272 131.757 30.25 126.234 30.25V40.25ZM126.234 45.707V55.707C131.757 55.707 136.234 51.2299 136.234 45.707H126.234ZM89.9258 45.707H79.9258C79.9258 51.2299 84.403 55.707 89.9258 55.707V45.707ZM89.9258 40.25V30.25C84.403 30.25 79.9258 34.7272 79.9258 40.25H89.9258ZM98.2188 40.25V50.25C103.742 50.25 108.219 45.7728 108.219 40.25H98.2188ZM98.2188 33.9336H108.219C108.219 28.4107 103.742 23.9336 98.2188 23.9336V33.9336ZM92.7618 33.9336H82.7618C82.7618 39.4564 87.2389 43.9336 92.7618 43.9336V33.9336ZM92.7618 28.4336V18.4336C87.2389 18.4336 82.7618 22.9107 82.7618 28.4336H92.7618ZM97.5313 28.4336V38.4336C103.054 38.4336 107.531 33.9564 107.531 28.4336H97.5313ZM97.5313 18.3789H107.531C107.531 12.8561 103.054 8.37891 97.5313 8.37891V18.3789ZM92.5469 18.3789H82.5469C82.5469 23.9018 87.0241 28.3789 92.5469 28.3789V18.3789ZM92.5469 12.9219V2.92187C87.0241 2.92187 82.5469 7.39903 82.5469 12.9219H92.5469ZM123.484 12.9219H133.484C133.484 7.39903 129.007 2.92187 123.484 2.92187V12.9219ZM123.484 18.3789V28.3789C129.007 28.3789 133.484 23.9018 133.484 18.3789H123.484ZM118.371 18.3789V8.37891C112.848 8.37891 108.371 12.8561 108.371 18.3789H118.371ZM118.371 28.4336H108.371C108.371 33.9564 112.848 38.4336 118.371 38.4336V28.4336ZM123.27 28.4336H133.27C133.27 22.9107 128.792 18.4336 123.27 18.4336V28.4336ZM123.27 33.9336V43.9336C128.792 43.9336 133.27 39.4564 133.27 33.9336H123.27ZM117.813 33.9336V23.9336C112.29 23.9336 107.813 28.4107 107.813 33.9336H117.813ZM117.813 40.25H107.813C107.813 45.7728 112.29 50.25 117.813 50.25V40.25ZM104.406 28.4336H94.4063C94.4063 33.9564 98.8835 38.4336 104.406 38.4336V28.4336ZM111.539 28.4336V38.4336C117.062 38.4336 121.539 33.9564 121.539 28.4336H111.539ZM111.539 18.3789H121.539C121.539 12.8561 117.062 8.37891 111.539 8.37891V18.3789ZM104.406 18.3789V8.37891C98.8835 8.37891 94.4063 12.8561 94.4063 18.3789H104.406ZM105.137 40.25H95.1368C95.1368 45.7728 99.6139 50.25 105.137 50.25V40.25ZM110.895 40.25V50.25C116.417 50.25 120.895 45.7728 120.895 40.25H110.895ZM110.895 33.9336H120.895C120.895 28.4107 116.417 23.9336 110.895 23.9336V33.9336ZM105.137 33.9336V23.9336C99.6139 23.9336 95.1368 28.4107 95.1368 33.9336H105.137ZM126.234 40.25H116.234V45.707H126.234H136.234V40.25H126.234ZM126.234 45.707V35.707H89.9258V45.707V55.707H126.234V45.707ZM89.9258 45.707H99.9258V40.25H89.9258H79.9258V45.707H89.9258ZM89.9258 40.25V50.25H98.2188V40.25V30.25H89.9258V40.25ZM98.2188 40.25H108.219V33.9336H98.2188H88.2188V40.25H98.2188ZM98.2188 33.9336V23.9336H92.7618V33.9336V43.9336H98.2188V33.9336ZM92.7618 33.9336H102.762V28.4336H92.7618H82.7618V33.9336H92.7618ZM92.7618 28.4336V38.4336H97.5313V28.4336V18.4336H92.7618V28.4336ZM97.5313 28.4336H107.531V18.3789H97.5313H87.5313V28.4336H97.5313ZM97.5313 18.3789V8.37891H92.5469V18.3789V28.3789H97.5313V18.3789ZM92.5469 18.3789H102.547V12.9219H92.5469H82.5469V18.3789H92.5469ZM92.5469 12.9219V22.9219H123.484V12.9219V2.92187L92.5469 2.92187V12.9219ZM123.484 12.9219H113.484V18.3789H123.484H133.484V12.9219H123.484ZM123.484 18.3789V8.37891H118.371V18.3789V28.3789H123.484V18.3789ZM118.371 18.3789H108.371V28.4336H118.371H128.371V18.3789H118.371ZM118.371 28.4336V38.4336H123.27V28.4336V18.4336H118.371V28.4336ZM123.27 28.4336H113.27V33.9336H123.27H133.27V28.4336H123.27ZM123.27 33.9336V23.9336H117.813V33.9336V43.9336H123.27V33.9336ZM117.813 33.9336H107.813V40.25H117.813H127.813V33.9336H117.813ZM117.813 40.25V50.25H126.234V40.25V30.25H117.813V40.25ZM104.406 28.4336V38.4336H111.539V28.4336V18.4336H104.406V28.4336ZM111.539 28.4336H121.539V18.3789H111.539H101.539V28.4336H111.539ZM111.539 18.3789V8.37891L104.406 8.37891V18.3789V28.3789H111.539V18.3789ZM104.406 18.3789H94.4063V28.4336H104.406H114.406V18.3789H104.406ZM105.137 40.25V50.25H110.895V40.25V30.25H105.137V40.25ZM110.895 40.25H120.895V33.9336H110.895H100.895V40.25H110.895ZM110.895 33.9336V23.9336H105.137V33.9336V43.9336H110.895V33.9336ZM105.137 33.9336H95.1368V40.25H105.137H115.137V33.9336H105.137ZM161.77 10.1289H171.77C171.77 4.60606 167.292 0.128906 161.77 0.128906V10.1289ZM161.77 40.3359V50.3359C167.292 50.3359 171.77 45.8588 171.77 40.3359H161.77ZM154.895 40.3359H144.895C144.895 45.8588 149.372 50.3359 154.895 50.3359V40.3359ZM154.895 33.5469H164.895C164.895 28.024 160.417 23.5469 154.895 23.5469V33.5469ZM150.512 33.5469L140.512 33.5469C140.512 39.0697 144.989 43.5469 150.512 43.5469V33.5469ZM150.512 28.1328V18.1328C144.989 18.1328 140.512 22.61 140.512 28.1328H150.512ZM154.895 28.1328V38.1328C160.417 38.1328 164.895 33.6557 164.895 28.1328H154.895ZM154.895 25.0391H164.895C164.895 19.5162 160.417 15.0391 154.895 15.0391V25.0391ZM150.512 25.0391H140.512C140.512 30.5619 144.989 35.0391 150.512 35.0391V25.0391ZM150.512 19.5391V9.53906C144.989 9.53906 140.512 14.0162 140.512 19.5391H150.512ZM154.895 19.5391V29.5391C160.417 29.5391 164.895 25.0619 164.895 19.5391H154.895ZM154.895 10.1289V0.128906C149.372 0.128906 144.895 4.60606 144.895 10.1289H154.895ZM149.867 13.8672H159.867C159.867 8.34434 155.39 3.86719 149.867 3.86719V13.8672ZM149.867 19.1953V29.1953C155.39 29.1953 159.867 24.7182 159.867 19.1953H149.867ZM128.082 19.1953H118.082C118.082 24.7182 122.559 29.1953 128.082 29.1953V19.1953ZM128.082 13.8672V3.86719C122.559 3.86719 118.082 8.34434 118.082 13.8672H128.082ZM135.902 13.8672V23.8672C141.425 23.8672 145.902 19.39 145.902 13.8672H135.902ZM135.902 10V0C130.38 0 125.902 4.47715 125.902 10H135.902ZM142.777 10H152.777C152.777 4.47715 148.3 0 142.777 0V10ZM142.777 13.8672H132.777C132.777 19.39 137.255 23.8672 142.777 23.8672V13.8672ZM129.758 28.0469L139.757 28.1395C139.758 28.0775 139.758 28.0154 139.757 27.9534L129.758 28.0469ZM139.254 25.3828L139.498 15.3858C139.337 15.3819 139.177 15.3818 139.016 15.3856L139.254 25.3828ZM162.586 43.7305H172.586C172.586 38.2076 168.109 33.7305 162.586 33.7305V43.7305ZM162.586 49.2305V59.2305C168.109 59.2305 172.586 54.7533 172.586 49.2305H162.586ZM134.828 49.2305H124.828C124.828 54.7533 129.305 59.2305 134.828 59.2305V49.2305ZM134.828 37.8438V27.8437C129.305 27.8437 124.828 32.3209 124.828 37.8438H134.828ZM141.832 37.8437H151.832C151.832 32.3209 147.355 27.8437 141.832 27.8437V37.8437ZM141.832 43.7305L131.832 43.7305C131.832 49.2533 136.309 53.7305 141.832 53.7305V43.7305ZM161.77 10.1289H151.77V40.3359H161.77H171.77V10.1289H161.77ZM161.77 40.3359V30.3359H154.895V40.3359V50.3359H161.77V40.3359ZM154.895 40.3359H164.895V33.5469H154.895H144.895V40.3359H154.895ZM154.895 33.5469V23.5469H150.512V33.5469V43.5469H154.895V33.5469ZM150.512 33.5469H160.512V28.1328H150.512H140.512V33.5469L150.512 33.5469ZM150.512 28.1328V38.1328H154.895V28.1328V18.1328H150.512V28.1328ZM154.895 28.1328H164.895V25.0391H154.895H144.895V28.1328H154.895ZM154.895 25.0391V15.0391H150.512V25.0391V35.0391H154.895V25.0391ZM150.512 25.0391H160.512V19.5391H150.512H140.512V25.0391H150.512ZM150.512 19.5391V29.5391H154.895V19.5391V9.53906H150.512V19.5391ZM154.895 19.5391H164.895V10.1289H154.895H144.895V19.5391H154.895ZM154.895 10.1289V20.1289H161.77V10.1289V0.128906H154.895V10.1289ZM149.867 13.8672H139.867V19.1953H149.867H159.867V13.8672H149.867ZM149.867 19.1953V9.19531H128.082V19.1953V29.1953L149.867 29.1953V19.1953ZM128.082 19.1953H138.082V13.8672H128.082H118.082V19.1953H128.082ZM128.082 13.8672V23.8672H135.902V13.8672V3.86719H128.082V13.8672ZM135.902 13.8672H145.902V10H135.902H125.902V13.8672H135.902ZM135.902 10V20H142.777V10V0H135.902V10ZM142.777 10H132.777V13.8672H142.777H152.777V10H142.777ZM142.777 13.8672V23.8672H149.867V13.8672V3.86719H142.777V13.8672ZM139.254 20.0977V30.0977C140.056 30.0977 140.115 30.3373 139.784 30.064C139.611 29.9211 139.367 29.6588 139.169 29.2542C138.966 28.838 138.879 28.4072 138.879 28.0469H148.879H158.879C158.879 16.2071 148.427 10.0977 139.254 10.0977V20.0977ZM148.879 28.0469H138.879C138.879 27.7101 138.96 27.2776 139.173 26.8435C139.38 26.4206 139.639 26.1423 139.827 25.9888C140.183 25.6991 140.119 25.9531 139.254 25.9531V35.9531V45.9531C148.311 45.9531 158.879 40.0247 158.879 28.0469H148.879ZM139.254 35.9531V25.9531C138.498 25.9531 138.455 25.7241 138.801 26.0083C138.987 26.1608 139.249 26.4413 139.459 26.874C139.675 27.3204 139.761 27.7741 139.757 28.1395L129.758 28.0469L119.758 27.9543C119.647 40.0036 130.33 45.9531 139.254 45.9531V35.9531ZM129.758 28.0469L139.757 27.9534C139.761 28.3429 139.67 28.7953 139.462 29.2237C139.262 29.6381 139.015 29.9027 138.845 30.0443C138.523 30.3113 138.562 30.0977 139.254 30.0977V20.0977V10.0977C130.214 10.0977 119.647 16.2284 119.758 28.1403L129.758 28.0469ZM139.254 25.3828L139.016 15.3856C136.855 15.4371 133.665 15.957 130.812 18.2231C127.574 20.7944 126.16 24.5006 126.16 28.0469H136.16H146.16C146.16 29.7885 145.391 32.1842 143.249 33.8853C141.491 35.2813 139.848 35.3715 139.492 35.38L139.254 25.3828ZM136.16 28.0469H126.16C126.16 31.4249 127.415 35.2597 130.812 37.9566C133.806 40.3343 137.146 40.7539 139.254 40.7539V30.7539V20.7539C139.558 20.7539 141.351 20.7868 143.249 22.2944C145.55 24.1212 146.16 26.6025 146.16 28.0469H136.16ZM139.254 30.7539V40.7539C141.388 40.7539 144.612 40.3153 147.54 38.0986C150.906 35.5506 152.434 31.7573 152.434 28.0469H142.434H132.434C132.434 27.2985 132.575 26.2323 133.12 25.0625C133.678 23.8652 134.513 22.8761 135.469 22.1524C137.248 20.8058 138.882 20.7539 139.254 20.7539V30.7539ZM142.434 28.0469H152.434C152.434 24.1632 150.73 20.4955 147.54 18.0811C144.752 15.9701 141.671 15.4388 139.498 15.3858L139.254 25.3828L139.01 35.3798C138.599 35.3698 137.108 35.2681 135.469 34.0273C134.588 33.3607 133.762 32.4263 133.186 31.2376C132.614 30.0575 132.434 28.9291 132.434 28.0469H142.434ZM162.586 43.7305H152.586V49.2305H162.586H172.586V43.7305H162.586ZM162.586 49.2305V39.2305L134.828 39.2305V49.2305V59.2305L162.586 59.2305V49.2305ZM134.828 49.2305L144.828 49.2305V37.8437L134.828 37.8438H124.828V49.2305H134.828ZM134.828 37.8438V47.8438L141.832 47.8437V37.8437V27.8437H134.828V37.8438ZM141.832 37.8437L131.832 37.8438V43.7305L141.832 43.7305H151.832V37.8437H141.832ZM141.832 43.7305V53.7305H162.586V43.7305V33.7305H141.832V43.7305ZM199.539 10.043H209.539C209.539 4.52012 205.062 0.0429687 199.539 0.0429687V10.043ZM199.539 49.918V59.918C205.062 59.918 209.539 55.4408 209.539 49.918H199.539ZM192.578 49.918H182.578C182.578 55.4408 187.055 59.918 192.578 59.918V49.918ZM192.578 10.043V0.0429687C187.055 0.0429687 182.578 4.52012 182.578 10.043H192.578ZM177.711 12.707L177.642 22.7068C177.688 22.7071 177.735 22.7071 177.782 22.7068L177.711 12.707ZM177.711 18.9375L177.542 28.9361C177.659 28.938 177.776 28.938 177.893 28.9358L177.711 18.9375ZM199.539 10.043H189.539V49.918H199.539H209.539V10.043H199.539ZM199.539 49.918V39.918H192.578V49.918V59.918H199.539V49.918ZM192.578 49.918H202.578V10.043H192.578H182.578V49.918H192.578ZM192.578 10.043V20.043H199.539V10.043V0.0429687L192.578 0.0429687V10.043ZM177.711 12.707L177.782 22.7068C177.714 22.7073 177.545 22.6835 177.369 22.5938C177.208 22.511 177.217 22.4628 177.337 22.6211C177.608 22.9757 178.324 24.2764 178.324 27.0156H188.324H198.324C198.324 20.9893 196.764 15.1141 193.242 10.4951C189.595 5.71116 184.062 2.66174 177.64 2.70728L177.711 12.707ZM188.324 27.0156H178.324C178.324 29.8458 177.595 31.1679 177.325 31.5233C177.204 31.6821 177.193 31.637 177.347 31.5576C177.513 31.4722 177.666 31.4531 177.711 31.4531V41.4531V51.4531C184.085 51.4531 189.603 48.4264 193.255 43.6163C196.777 38.9767 198.324 33.08 198.324 27.0156H188.324ZM177.711 41.4531V31.4531C177.69 31.4531 177.794 31.4565 177.932 31.526C178.06 31.5909 178.041 31.6244 177.922 31.4694C177.656 31.1245 176.926 29.8268 176.926 27.0156H166.926H156.926C156.926 33.0989 158.494 39.02 162.074 43.6702C165.787 48.4928 171.349 51.4531 177.711 51.4531V41.4531ZM166.926 27.0156H176.926C176.926 24.2956 177.643 23.0192 177.909 22.675C178.029 22.5203 178.045 22.5569 177.91 22.6251C177.849 22.6556 177.783 22.6793 177.721 22.6937C177.659 22.7079 177.629 22.7067 177.642 22.7068L177.711 12.707L177.78 2.70727C171.371 2.66276 165.796 5.64447 162.087 10.4412C158.508 15.0706 156.926 20.97 156.926 27.0156H166.926ZM177.711 18.9375L177.88 8.93894C172.249 8.84349 168.051 12.1176 165.877 16.1866C164.036 19.633 163.586 23.5815 163.586 27.0156H173.586H183.586C183.586 26.0989 183.654 25.5327 183.707 25.2484C183.763 24.9423 183.769 25.1395 183.518 25.6093C183.252 26.1079 182.626 27.0333 181.412 27.8152C180.134 28.6385 178.737 28.9563 177.542 28.9361L177.711 18.9375ZM173.586 27.0156H163.586C163.586 30.4701 164.03 34.4374 165.885 37.8971C168.1 42.0266 172.275 45.1367 177.711 45.1367V35.1367V25.1367C178.821 25.1367 180.157 25.4395 181.404 26.2412C182.601 27.0103 183.232 27.9261 183.51 28.4447C183.769 28.9275 183.765 29.1358 183.708 28.8278C183.655 28.5407 183.586 27.9624 183.586 27.0156H173.586ZM177.711 35.1367V45.1367C183.31 45.1367 187.361 41.7724 189.437 37.8416C191.237 34.4356 191.707 30.5236 191.707 27.0156H181.707H171.707C171.707 27.9469 171.637 28.5236 171.583 28.8154C171.525 29.1272 171.516 28.9492 171.753 28.5002C172.002 28.0295 172.597 27.1281 173.769 26.3434C175.01 25.5133 176.419 25.1367 177.711 25.1367V35.1367ZM181.707 27.0156H191.707C191.707 23.5283 191.23 19.6343 189.445 16.2419C187.415 12.3823 183.336 8.83358 177.529 8.93915L177.711 18.9375L177.893 28.9358C176.507 28.961 175.032 28.5647 173.762 27.7127C172.573 26.9153 171.982 26.0044 171.745 25.5539C171.516 25.118 171.527 24.9508 171.585 25.2609C171.639 25.55 171.707 26.1145 171.707 27.0156H181.707ZM245.387 10.043H255.387C255.387 4.52012 250.91 0.0429687 245.387 0.0429687V10.043ZM245.387 18.8086H235.387C235.387 24.3314 239.864 28.8086 245.387 28.8086V18.8086ZM250.328 18.8086H260.328C260.328 13.2857 255.851 8.80859 250.328 8.80859V18.8086ZM250.328 24.3516V34.3516C255.851 34.3516 260.328 29.8744 260.328 24.3516H250.328ZM245.387 24.3516V14.3516C239.864 14.3516 235.387 18.8287 235.387 24.3516H245.387ZM245.387 32.6445V42.6445C250.91 42.6445 255.387 38.1674 255.387 32.6445H245.387ZM238.469 32.6445H228.469C228.469 38.1674 232.946 42.6445 238.469 42.6445V32.6445ZM238.469 10.043V0.0429687C232.946 0.0429687 228.469 4.52012 228.469 10.043L238.469 10.043ZM234.172 12.4922L244.172 12.4922C244.172 6.96934 239.695 2.49219 234.172 2.49219V12.4922ZM215.824 34.0195L206.839 38.4079C208.938 42.7074 213.79 44.917 218.412 43.679L215.824 34.0195ZM213.117 28.4766L210.692 18.7751C207.765 19.5068 205.325 21.5207 204.052 24.2556C202.778 26.9905 202.808 30.1541 204.132 32.8649L213.117 28.4766ZM226.609 17.9492L236.388 20.0414C237.02 17.0889 236.284 14.009 234.385 11.6612C232.487 9.31345 229.629 7.94922 226.609 7.94922V17.9492ZM215.094 17.9492H205.094C205.094 23.4721 209.571 27.9492 215.094 27.9492V17.9492ZM215.094 12.4922V2.49219C209.571 2.49219 205.094 6.96934 205.094 12.4922H215.094ZM245.816 41.4961L255.816 41.5787C255.817 41.5229 255.817 41.4671 255.816 41.4114L245.816 41.4961ZM218.402 41.4961L228.402 41.5787C228.403 41.5229 228.403 41.4671 228.402 41.4114L218.402 41.4961ZM232.109 38.4453L232.012 48.4448C232.077 48.4455 232.142 48.4455 232.207 48.4448L232.109 38.4453ZM232.109 44.5898L232.207 34.5903C232.142 34.5897 232.077 34.5897 232.012 34.5903L232.109 44.5898ZM245.387 10.043L235.387 10.043V18.8086H245.387H255.387V10.043H245.387ZM245.387 18.8086V28.8086H250.328V18.8086V8.80859H245.387V18.8086ZM250.328 18.8086H240.328V24.3516H250.328H260.328V18.8086H250.328ZM250.328 24.3516V14.3516H245.387V24.3516V34.3516H250.328V24.3516ZM245.387 24.3516H235.387V32.6445H245.387H255.387V24.3516H245.387ZM245.387 32.6445V22.6445H238.469V32.6445V42.6445H245.387V32.6445ZM238.469 32.6445H248.469V10.043H238.469L228.469 10.043V32.6445H238.469ZM238.469 10.043V20.043H245.387V10.043V0.0429687L238.469 0.0429687V10.043ZM234.172 12.4922H224.172C224.172 15.9096 223.234 18.0882 221.901 19.6509C220.474 21.3249 217.874 23.1178 213.237 24.3601L215.824 34.0195L218.412 43.679C225.805 41.6986 232.38 38.1849 237.118 32.6294C241.952 26.9626 244.172 19.9888 244.172 12.4922L234.172 12.4922ZM215.824 34.0195L224.81 29.6312L222.103 24.0882L213.117 28.4766L204.132 32.8649L206.839 38.4079L215.824 34.0195ZM213.117 28.4766L215.543 38.178C225.347 35.7268 234.237 30.0957 236.388 20.0414L226.609 17.9492L216.831 15.857C216.878 15.6353 216.964 15.8406 216.273 16.3985C215.483 17.0363 213.808 17.9962 210.692 18.7751L213.117 28.4766ZM226.609 17.9492V7.94922H215.094V17.9492V27.9492H226.609V17.9492ZM215.094 17.9492H225.094V12.4922H215.094H205.094V17.9492H215.094ZM215.094 12.4922V22.4922H234.172V12.4922V2.49219L215.094 2.49219V12.4922ZM232.109 33.1172V43.1172C233.504 43.1172 234.61 43.259 235.432 43.451C236.266 43.6459 236.689 43.8641 236.818 43.9428C236.937 44.0158 236.667 43.8811 236.355 43.3857C236.01 42.8394 235.822 42.1783 235.817 41.5808L245.816 41.4961L255.816 41.4114C255.759 34.7296 251.937 29.7374 247.231 26.8677C242.785 24.1564 237.389 23.1172 232.109 23.1172V33.1172ZM245.816 41.4961L235.817 41.4135C235.821 40.8946 235.984 40.2605 236.331 39.7049C236.648 39.1981 236.932 39.0495 236.832 39.1107C236.717 39.1802 236.304 39.3948 235.465 39.5878C234.639 39.7779 233.522 39.918 232.109 39.918V49.918V59.918C237.341 59.918 242.749 58.9181 247.217 56.2028C252.002 53.2952 255.761 48.26 255.816 41.5787L245.816 41.4961ZM232.109 49.918V39.918C230.725 39.918 229.611 39.7793 228.774 39.587C227.923 39.3914 227.488 39.1711 227.353 39.0902C227.228 39.0149 227.521 39.1595 227.854 39.6891C228.224 40.2783 228.407 40.9765 228.402 41.5787L218.402 41.4961L208.403 41.4135C208.346 48.2868 212.279 53.3589 217.035 56.2233C221.502 58.9134 226.908 59.918 232.109 59.918V49.918ZM218.402 41.4961L228.402 41.4114C228.408 42.0953 228.197 42.8222 227.83 43.4015C227.502 43.9196 227.223 44.0503 227.367 43.9634C227.516 43.8734 227.961 43.6494 228.808 43.4518C229.641 43.2575 230.744 43.1172 232.109 43.1172V33.1172V23.1172C226.86 23.1172 221.465 24.1611 217.021 26.8472C212.348 29.6719 208.344 34.7032 208.403 41.5808L218.402 41.4961ZM232.109 38.4453L232.207 28.4458C229.482 28.4193 226.09 28.6685 223.002 30.0205C221.362 30.7386 219.378 31.9557 217.778 34.0229C216.074 36.2249 215.234 38.8471 215.234 41.4961H225.234H235.234C235.234 43.1138 234.701 44.8337 233.595 46.2636C232.592 47.5587 231.497 48.1339 231.023 48.3418C230.545 48.5507 230.336 48.5488 230.595 48.5114C230.825 48.4784 231.281 48.4377 232.012 48.4448L232.109 38.4453ZM225.234 41.4961H215.234C215.234 47.6407 219.37 51.3699 222.931 52.9619C226.032 54.348 229.442 54.6162 232.207 54.5894L232.109 44.5898L232.012 34.5903C230.351 34.6064 230.323 34.359 231.093 34.7031C231.571 34.9167 232.645 35.4949 233.625 36.7751C234.704 38.1839 235.234 39.8819 235.234 41.4961H225.234ZM232.109 44.5898L232.012 54.5894C234.777 54.6162 238.187 54.348 241.287 52.9619C244.849 51.3699 248.984 47.6407 248.984 41.4961H238.984H228.984C228.984 39.8819 229.515 38.1839 230.594 36.7751C231.574 35.4949 232.648 34.9167 233.126 34.7031C233.896 34.359 233.867 34.6064 232.207 34.5903L232.109 44.5898ZM238.984 41.4961H248.984C248.984 38.8471 248.145 36.2249 246.441 34.0229C244.841 31.9557 242.857 30.7386 241.217 30.0205C238.129 28.6685 234.737 28.4193 232.012 28.4458L232.109 38.4453L232.207 48.4448C232.938 48.4377 233.394 48.4784 233.623 48.5114C233.883 48.5488 233.674 48.5507 233.196 48.3418C232.721 48.1339 231.627 47.5587 230.624 46.2636C229.518 44.8337 228.984 43.1138 228.984 41.4961H238.984ZM283.414 10.1289H293.414C293.414 4.60606 288.937 0.128906 283.414 0.128906V10.1289ZM283.414 21.7305H273.414C273.414 27.2533 277.891 31.7305 283.414 31.7305V21.7305ZM288.356 21.7305H298.356C298.356 16.2076 293.878 11.7305 288.356 11.7305V21.7305ZM288.356 27.3164V37.3164C293.878 37.3164 298.356 32.8393 298.356 27.3164H288.356ZM283.414 27.3164V17.3164C277.891 17.3164 273.414 21.7936 273.414 27.3164H283.414ZM283.414 39.7344V49.7344C288.937 49.7344 293.414 45.2572 293.414 39.7344H283.414ZM276.496 39.7344H266.496C266.496 45.2572 270.973 49.7344 276.496 49.7344V39.7344ZM276.496 10.1289V0.128906C270.973 0.128906 266.496 4.60606 266.496 10.1289H276.496ZM275.078 13.8672H285.078C285.078 8.34434 280.601 3.86719 275.078 3.86719V13.8672ZM275.078 19.1953V29.1953C280.601 29.1953 285.078 24.7182 285.078 19.1953H275.078ZM251.574 19.1953H241.574C241.574 24.7182 246.051 29.1953 251.574 29.1953V19.1953ZM251.574 13.8672V3.86719C246.051 3.86719 241.574 8.34434 241.574 13.8672H251.574ZM259.867 13.8672V23.8672C265.39 23.8672 269.867 19.39 269.867 13.8672H259.867ZM259.867 10.043V0.0429687C254.344 0.0429687 249.867 4.52012 249.867 10.043H259.867ZM266.785 10.043H276.785C276.785 4.52012 272.308 0.0429687 266.785 0.0429687V10.043ZM266.785 13.8672H256.785C256.785 19.39 261.262 23.8672 266.785 23.8672V13.8672ZM263.305 35.6953L263.379 25.6956C263.33 25.6952 263.28 25.6952 263.231 25.6956L263.305 35.6953ZM263.305 25.2969L263.517 15.2991C263.374 15.2961 263.231 15.2961 263.087 15.2992L263.305 25.2969ZM284.574 43.7305H294.574C294.574 38.2076 290.097 33.7305 284.574 33.7305V43.7305ZM284.574 49.2305V59.2305C290.097 59.2305 294.574 54.7533 294.574 49.2305H284.574ZM257.074 49.2305H247.074C247.074 54.7533 251.551 59.2305 257.074 59.2305V49.2305ZM257.074 37.5V27.5C251.551 27.5 247.074 31.9772 247.074 37.5H257.074ZM263.992 37.5H273.992C273.992 31.9772 269.515 27.5 263.992 27.5V37.5ZM263.992 43.7305H253.992C253.992 49.2533 258.469 53.7305 263.992 53.7305V43.7305ZM283.414 10.1289H273.414V21.7305H283.414H293.414V10.1289H283.414ZM283.414 21.7305V31.7305H288.356V21.7305V11.7305H283.414V21.7305ZM288.356 21.7305H278.356V27.3164H288.356H298.356V21.7305H288.356ZM288.356 27.3164V17.3164H283.414V27.3164V37.3164H288.356V27.3164ZM283.414 27.3164H273.414V39.7344H283.414H293.414V27.3164H283.414ZM283.414 39.7344V29.7344H276.496V39.7344V49.7344H283.414V39.7344ZM276.496 39.7344H286.496V10.1289H276.496H266.496V39.7344H276.496ZM276.496 10.1289V20.1289H283.414V10.1289V0.128906L276.496 0.128906V10.1289ZM275.078 13.8672H265.078V19.1953H275.078H285.078V13.8672H275.078ZM275.078 19.1953V9.19531H251.574V19.1953V29.1953H275.078V19.1953ZM251.574 19.1953H261.574V13.8672H251.574H241.574V19.1953H251.574ZM251.574 13.8672V23.8672H259.867V13.8672V3.86719L251.574 3.86719V13.8672ZM259.867 13.8672H269.867V10.043H259.867H249.867V13.8672H259.867ZM259.867 10.043V20.043H266.785V10.043V0.0429687L259.867 0.0429687V10.043ZM266.785 10.043H256.785V13.8672H266.785H276.785V10.043H266.785ZM266.785 13.8672V23.8672H275.078V13.8672V3.86719H266.785V13.8672ZM263.305 20.0977V30.0977C264.429 30.0977 264.595 30.4127 264.249 30.1397C264.06 29.9905 263.779 29.7017 263.551 29.2467C263.318 28.7798 263.231 28.3159 263.231 27.9609H273.231H283.231C283.231 22.4 280.653 17.6067 276.637 14.4384C272.778 11.3939 267.981 10.0977 263.305 10.0977V20.0977ZM273.231 27.9609H263.231C263.231 27.605 263.318 27.1223 263.568 26.6282C263.811 26.1458 264.115 25.8371 264.324 25.6753C264.702 25.3823 264.546 25.7042 263.379 25.6956L263.305 35.6953L263.231 45.695C267.865 45.7294 272.671 44.5044 276.562 41.4936C280.633 38.3437 283.231 33.5403 283.231 27.9609H273.231ZM263.305 35.6953L263.231 25.6956C262.026 25.7044 261.833 25.3737 262.192 25.6484C262.392 25.8021 262.697 26.1063 262.945 26.5929C263.2 27.0927 263.293 27.5879 263.293 27.9609H253.293H243.293C243.293 33.5813 245.937 38.3877 250.023 41.5205C253.926 44.5131 258.74 45.7291 263.378 45.695L263.305 35.6953ZM253.293 27.9609H263.293C263.293 28.333 263.201 28.8092 262.962 29.2818C262.73 29.7411 262.448 30.0257 262.267 30.1671C261.94 30.4222 262.141 30.0977 263.305 30.0977V20.0977V10.0977C254.37 10.0977 243.293 15.6455 243.293 27.9609H253.293ZM263.305 25.2969L263.087 15.2992C261.001 15.3446 257.775 15.7943 254.859 18.0226C251.478 20.6064 250.039 24.3916 250.039 27.9609H260.039H270.039C270.039 28.7055 269.903 29.7762 269.362 30.9566C268.805 32.1713 267.966 33.1776 267.002 33.914C265.225 35.2721 263.632 35.2921 263.522 35.2945L263.305 25.2969ZM260.039 27.9609H250.039C250.039 31.535 251.49 35.3956 255.004 37.9811C257.996 40.1826 261.267 40.5391 263.305 40.5391V30.5391V20.5391C263.366 20.5391 265.004 20.5088 266.858 21.8724C267.872 22.6187 268.755 23.6528 269.339 24.9085C269.904 26.1234 270.039 27.2198 270.039 27.9609H260.039ZM263.305 30.5391V40.5391C265.336 40.5391 268.544 40.1923 271.509 38.1087C275.035 35.6305 276.699 31.7811 276.699 27.9609H266.699H256.699C256.699 27.1295 256.863 25.965 257.479 24.7122C258.109 23.4313 259.028 22.4348 260.01 21.7448C261.783 20.4991 263.293 20.5391 263.305 20.5391V30.5391ZM266.699 27.9609H276.699C276.699 24.1512 275.053 20.3706 271.654 17.8904C268.759 15.7777 265.593 15.3433 263.517 15.2991L263.305 25.2969L263.092 35.2946C263.036 35.2934 261.567 35.2887 259.865 34.0462C258.93 33.364 258.056 32.3921 257.455 31.1517C256.864 29.9336 256.699 28.7954 256.699 27.9609H266.699ZM284.574 43.7305H274.574V49.2305H284.574H294.574V43.7305H284.574ZM284.574 49.2305V39.2305H257.074V49.2305V59.2305H284.574V49.2305ZM257.074 49.2305H267.074V37.5H257.074H247.074V49.2305H257.074ZM257.074 37.5V47.5H263.992V37.5V27.5H257.074V37.5ZM263.992 37.5H253.992V43.7305H263.992H273.992V37.5H263.992ZM263.992 43.7305V53.7305H284.574V43.7305V33.7305H263.992V43.7305Z" fill="white" mask="url(#path-1-outside-1_3990_1490)"/>
</g>
<defs>
<filter id="filter0_d_3990_1490" x="0" y="0" width="302.356" height="67.918" filterUnits="userSpaceOnUse" color-interpolation-filters="sRGB">
<feFlood flood-opacity="0" result="BackgroundImageFix"/>
<feColorMatrix in="SourceAlpha" type="matrix" values="0 0 0 0 0 0 0 0 0 0 0 0 0 0 0 0 0 0 127 0" result="hardAlpha"/>
<feOffset dy="4"/>
<feGaussianBlur stdDeviation="2"/>
<feComposite in2="hardAlpha" operator="out"/>
<feColorMatrix type="matrix" values="0 0 0 0 0 0 0 0 0 0 0 0 0 0 0 0 0 0 0.07 0"/>
<feBlend mode="normal" in2="BackgroundImageFix" result="effect1_dropShadow_3990_1490"/>
<feBlend mode="normal" in="SourceGraphic" in2="effect1_dropShadow_3990_1490" result="shape"/>
</filter>
</defs>
</svg>
