<svg width="264" height="68" viewBox="0 0 264 68" fill="none" xmlns="http://www.w3.org/2000/svg">
<g filter="url(#filter0_d_3990_1494)">
<mask id="path-1-outside-1_3990_1494" maskUnits="userSpaceOnUse" x="3.96881" y="-0.507813" width="256" height="61" fill="black">
<rect fill="white" x="3.96881" y="-0.507813" width="256" height="61"/>
<path d="M26.6329 12.5352C32.9922 12.4922 37.8477 16.7461 37.8477 22.5469C37.8477 28.3906 32.9922 32.6016 26.6329 32.5586C20.4024 32.6016 15.418 28.3906 15.418 22.5469C15.418 16.7461 20.4024 12.4922 26.6329 12.5352ZM26.6329 18.4648C24.2266 18.4648 22.293 19.8398 22.293 22.5469C22.293 25.3398 24.2266 26.6289 26.6329 26.6289C29.168 26.6289 31.1446 25.3398 31.1446 22.5469C31.1446 19.8398 29.168 18.4648 26.6329 18.4648ZM47.7305 10V49.875H40.8985V10L47.7305 10ZM14.0001 36.6406C20.918 36.6406 30.586 36.5117 38.879 35.3945L39.3946 40.3359C30.8008 42.0547 21.5626 42.1406 14.7735 42.1406L14.0001 36.6406ZM70.0313 10.5586C78.9688 10.6016 84.6837 13.6953 84.7266 18.5508C84.7051 21.1289 83.0723 23.2129 80.2149 24.6094V29.1641H88.1641V34.4922H51.8985V29.1641H59.5469V24.4375C56.8184 23.084 55.2715 21.043 55.293 18.5508C55.2501 13.6953 61.1368 10.6016 70.0313 10.5586ZM70.0313 15.9297C65.004 15.8867 62.4258 16.6172 62.4688 18.5508C62.4258 20.3984 65.004 21.2148 70.0313 21.2148C74.9297 21.2148 77.5938 20.3984 77.5938 18.5508C77.5938 16.6172 74.9297 15.8867 70.0313 15.9297ZM83.7813 36.6406V49.7461H76.9063V42.0117H55.9376V36.6406H83.7813ZM66.5079 29.1641H73.3399V26.3281C72.2872 26.457 71.1915 26.5 70.0313 26.5C68.8067 26.5 67.6251 26.4355 66.5079 26.3281V29.1641ZM123.484 10V49.875H116.523V10H123.484ZM101.656 12.6641C107.715 12.6211 112.27 18.207 112.27 26.9727C112.27 35.8672 107.715 41.4102 101.656 41.4102C95.4688 41.4102 90.8712 35.8672 90.8712 26.9727C90.8712 18.207 95.4688 12.6211 101.656 12.6641ZM101.656 18.8945C99.1212 18.8516 97.5313 21.4727 97.5313 26.9727C97.5313 32.5586 99.1212 35.0938 101.656 35.0938C104.02 35.0938 105.652 32.5586 105.652 26.9727C105.652 21.4727 104.02 18.8516 101.656 18.8945ZM169.332 10.0859V18.207H174.273V23.75H169.332V31.8281H162.414V10.0859H169.332ZM169.891 33.332V38.6602H165.551V43.6445H170.363V49.1875H142.477V43.6445H147.203V38.6602H142.777V33.332H169.891ZM148.664 11.8906C154.895 11.8906 159.793 15.9297 159.793 21.6445C159.793 27.1875 154.895 31.2695 148.664 31.2695C142.391 31.2695 137.492 27.1875 137.492 21.6445C137.492 15.9297 142.391 11.8906 148.664 11.8906ZM148.664 17.6055C146.172 17.6055 144.238 18.8945 144.238 21.6445C144.238 24.2227 146.172 25.5547 148.664 25.5117C151.113 25.5547 153.047 24.2227 153.09 21.6445C153.047 18.8945 151.113 17.6055 148.664 17.6055ZM153.949 43.6445H158.805V38.6602H153.949V43.6445ZM191.289 17.9492C191.246 25.5977 193.266 32.9023 200.398 35.8672L196.188 41.3242C191.998 39.3262 189.334 35.9531 187.766 31.6562C186.133 36.2754 183.34 39.9707 178.957 42.0547L174.66 36.4258C182.094 33.2031 184.242 25.5117 184.242 17.9492V12.8359H191.289V17.9492ZM209.465 10V49.875H202.633V27.3594H195.887V21.8594H202.633V10H209.465ZM245.945 20.0977V25.4258H217.844V11.418H224.719V20.0977H245.945ZM249.856 28.9492V34.2773H213.59V28.9492H249.856ZM246.203 43.4727V48.9727H217.371V37.0273H224.332V43.4727H246.203Z"/>
</mask>
<path d="M26.6329 12.5352C32.9922 12.4922 37.8477 16.7461 37.8477 22.5469C37.8477 28.3906 32.9922 32.6016 26.6329 32.5586C20.4024 32.6016 15.418 28.3906 15.418 22.5469C15.418 16.7461 20.4024 12.4922 26.6329 12.5352ZM26.6329 18.4648C24.2266 18.4648 22.293 19.8398 22.293 22.5469C22.293 25.3398 24.2266 26.6289 26.6329 26.6289C29.168 26.6289 31.1446 25.3398 31.1446 22.5469C31.1446 19.8398 29.168 18.4648 26.6329 18.4648ZM47.7305 10V49.875H40.8985V10L47.7305 10ZM14.0001 36.6406C20.918 36.6406 30.586 36.5117 38.879 35.3945L39.3946 40.3359C30.8008 42.0547 21.5626 42.1406 14.7735 42.1406L14.0001 36.6406ZM70.0313 10.5586C78.9688 10.6016 84.6837 13.6953 84.7266 18.5508C84.7051 21.1289 83.0723 23.2129 80.2149 24.6094V29.1641H88.1641V34.4922H51.8985V29.1641H59.5469V24.4375C56.8184 23.084 55.2715 21.043 55.293 18.5508C55.2501 13.6953 61.1368 10.6016 70.0313 10.5586ZM70.0313 15.9297C65.004 15.8867 62.4258 16.6172 62.4688 18.5508C62.4258 20.3984 65.004 21.2148 70.0313 21.2148C74.9297 21.2148 77.5938 20.3984 77.5938 18.5508C77.5938 16.6172 74.9297 15.8867 70.0313 15.9297ZM83.7813 36.6406V49.7461H76.9063V42.0117H55.9376V36.6406H83.7813ZM66.5079 29.1641H73.3399V26.3281C72.2872 26.457 71.1915 26.5 70.0313 26.5C68.8067 26.5 67.6251 26.4355 66.5079 26.3281V29.1641ZM123.484 10V49.875H116.523V10H123.484ZM101.656 12.6641C107.715 12.6211 112.27 18.207 112.27 26.9727C112.27 35.8672 107.715 41.4102 101.656 41.4102C95.4688 41.4102 90.8712 35.8672 90.8712 26.9727C90.8712 18.207 95.4688 12.6211 101.656 12.6641ZM101.656 18.8945C99.1212 18.8516 97.5313 21.4727 97.5313 26.9727C97.5313 32.5586 99.1212 35.0938 101.656 35.0938C104.02 35.0938 105.652 32.5586 105.652 26.9727C105.652 21.4727 104.02 18.8516 101.656 18.8945ZM169.332 10.0859V18.207H174.273V23.75H169.332V31.8281H162.414V10.0859H169.332ZM169.891 33.332V38.6602H165.551V43.6445H170.363V49.1875H142.477V43.6445H147.203V38.6602H142.777V33.332H169.891ZM148.664 11.8906C154.895 11.8906 159.793 15.9297 159.793 21.6445C159.793 27.1875 154.895 31.2695 148.664 31.2695C142.391 31.2695 137.492 27.1875 137.492 21.6445C137.492 15.9297 142.391 11.8906 148.664 11.8906ZM148.664 17.6055C146.172 17.6055 144.238 18.8945 144.238 21.6445C144.238 24.2227 146.172 25.5547 148.664 25.5117C151.113 25.5547 153.047 24.2227 153.09 21.6445C153.047 18.8945 151.113 17.6055 148.664 17.6055ZM153.949 43.6445H158.805V38.6602H153.949V43.6445ZM191.289 17.9492C191.246 25.5977 193.266 32.9023 200.398 35.8672L196.188 41.3242C191.998 39.3262 189.334 35.9531 187.766 31.6562C186.133 36.2754 183.34 39.9707 178.957 42.0547L174.66 36.4258C182.094 33.2031 184.242 25.5117 184.242 17.9492V12.8359H191.289V17.9492ZM209.465 10V49.875H202.633V27.3594H195.887V21.8594H202.633V10H209.465ZM245.945 20.0977V25.4258H217.844V11.418H224.719V20.0977H245.945ZM249.856 28.9492V34.2773H213.59V28.9492H249.856ZM246.203 43.4727V48.9727H217.371V37.0273H224.332V43.4727H246.203Z" fill="#11DCA9"/>
<path d="M26.6329 12.5352L26.5639 22.5349C26.6094 22.5352 26.6549 22.5352 26.7004 22.5349L26.6329 12.5352ZM26.6329 32.5586L26.7004 22.5588C26.6549 22.5585 26.6094 22.5585 26.5639 22.5588L26.6329 32.5586ZM47.7305 10H57.7305C57.7305 4.47715 53.2534 0 47.7305 0V10ZM47.7305 49.875V59.875C53.2534 59.875 57.7305 55.3978 57.7305 49.875H47.7305ZM40.8985 49.875H30.8985C30.8985 55.3978 35.3757 59.875 40.8985 59.875V49.875ZM40.8985 10V0C35.3757 0 30.8985 4.47715 30.8985 10H40.8985ZM14.0001 36.6406L14.0001 26.6406C11.105 26.6406 8.35196 27.8953 6.45269 30.0803C4.55343 32.2654 3.69434 35.1663 4.0975 38.0332L14.0001 36.6406ZM38.879 35.3945L48.825 34.3567C48.5443 31.6672 47.1865 29.206 45.061 27.5344C42.9356 25.8627 40.2237 25.123 37.5439 25.4841L38.879 35.3945ZM39.3946 40.3359L41.3558 50.1417C46.417 49.1295 49.8763 44.4317 49.3406 39.2981L39.3946 40.3359ZM14.7735 42.1406L4.87093 43.5332C5.56509 48.4694 9.78868 52.1406 14.7735 52.1406V42.1406ZM26.6329 12.5352L26.7004 22.5349C27.166 22.5318 27.4938 22.6075 27.6958 22.6799C27.8992 22.7527 27.981 22.8233 27.9864 22.8281C27.9882 22.8297 27.9393 22.784 27.894 22.6848C27.8453 22.5782 27.8477 22.5128 27.8477 22.5469H37.8477H47.8477C47.8477 10.1666 37.3846 2.46228 26.5653 2.53538L26.6329 12.5352ZM37.8477 22.5469H27.8477C27.8477 22.6018 27.8411 22.543 27.8914 22.4328C27.9128 22.3858 27.9374 22.3458 27.9601 22.3153C27.9825 22.2853 27.9976 22.2718 27.9976 22.2718C27.9973 22.2721 27.9786 22.2886 27.9344 22.3144C27.8901 22.3403 27.8191 22.376 27.7166 22.4125C27.5126 22.4851 27.178 22.562 26.7004 22.5588L26.6329 32.5586L26.5653 42.5584C37.3547 42.6313 47.8477 34.9968 47.8477 22.5469H37.8477ZM26.6329 32.5586L26.5639 22.5588C25.7025 22.5648 25.3257 22.2798 25.2868 22.2456C25.2704 22.2312 25.3165 22.2685 25.3639 22.3707C25.4159 22.4827 25.418 22.5621 25.418 22.5469H15.418H5.41803C5.41803 35.0666 16.1188 42.6313 26.7018 42.5584L26.6329 32.5586ZM15.418 22.5469H25.418C25.418 22.5409 25.4183 22.5641 25.4085 22.6086C25.3988 22.6526 25.3828 22.7006 25.3613 22.7469C25.3157 22.8448 25.2744 22.8752 25.298 22.8544C25.3508 22.8078 25.7293 22.5292 26.5639 22.5349L26.6329 12.5352L26.7018 2.53539C16.0888 2.4622 5.41803 10.0966 5.41803 22.5469H15.418ZM26.6329 18.4648V8.46484C23.6125 8.46484 20.0054 9.32939 16.9975 11.9458C13.7953 14.7313 12.293 18.6259 12.293 22.5469H22.293H32.293C32.293 23.7608 31.7576 25.6144 30.1237 27.0357C28.6842 28.2878 27.247 28.4648 26.6329 28.4648V18.4648ZM22.293 22.5469H12.293C12.293 26.4329 13.7456 30.3964 17.057 33.2315C20.1325 35.8646 23.7625 36.6289 26.6329 36.6289V26.6289V16.6289C27.097 16.6289 28.5571 16.7486 30.0642 18.039C31.8073 19.5313 32.293 21.4538 32.293 22.5469H22.293ZM26.6329 26.6289V36.6289C29.4552 36.6289 33.0947 35.9223 36.2161 33.3383C39.6187 30.5216 41.1446 26.5148 41.1446 22.5469H31.1446H21.1446C21.1446 21.3719 21.6822 19.4061 23.4627 17.9322C24.962 16.691 26.3457 16.6289 26.6329 16.6289V26.6289ZM31.1446 22.5469H41.1446C41.1446 18.5435 39.5676 14.606 36.2761 11.8377C33.2178 9.2655 29.6001 8.46484 26.6329 8.46484V18.4648V28.4648C26.2008 28.4648 24.8389 28.3517 23.4027 27.1438C21.7333 25.7397 21.1446 23.8432 21.1446 22.5469H31.1446ZM47.7305 10L37.7305 10V49.875H47.7305H57.7305V10H47.7305ZM47.7305 49.875V39.875H40.8985V49.875V59.875H47.7305V49.875ZM40.8985 49.875H50.8985V10L40.8985 10H30.8985V49.875H40.8985ZM40.8985 10V20H47.7305V10V0H40.8985V10ZM14.0001 36.6406V46.6406C20.9279 46.6406 31.1916 46.5205 40.2141 45.305L38.879 35.3945L37.5439 25.4841C29.9804 26.503 20.9082 26.6406 14.0001 26.6406L14.0001 36.6406ZM38.879 35.3945L28.933 36.4324L29.4486 41.3738L39.3946 40.3359L49.3406 39.2981L48.825 34.3567L38.879 35.3945ZM39.3946 40.3359L37.4334 30.5301C29.9269 32.0314 21.6035 32.1406 14.7735 32.1406L14.7735 42.1406V52.1406C21.5216 52.1406 31.6748 52.0779 41.3558 50.1417L39.3946 40.3359ZM14.7735 42.1406L24.6761 40.7481L23.9026 35.2481L14.0001 36.6406L4.0975 38.0332L4.87093 43.5332L14.7735 42.1406ZM70.0313 10.5586L70.0794 0.558709C70.0473 0.558555 70.0151 0.558555 69.983 0.558711L70.0313 10.5586ZM84.7266 18.5508L94.7263 18.6341C94.7268 18.5768 94.7267 18.5196 94.7262 18.4623L84.7266 18.5508ZM80.2149 24.6094L75.824 15.6249C72.3916 17.3024 70.2149 20.789 70.2149 24.6094L80.2149 24.6094ZM80.2149 29.1641H70.2149C70.2149 34.6869 74.6921 39.1641 80.2149 39.1641V29.1641ZM88.1641 29.1641H98.1641C98.1641 23.6412 93.687 19.1641 88.1641 19.1641V29.1641ZM88.1641 34.4922V44.4922C93.687 44.4922 98.1641 40.015 98.1641 34.4922H88.1641ZM51.8985 34.4922H41.8985C41.8985 40.015 46.3757 44.4922 51.8985 44.4922V34.4922ZM51.8985 29.1641V19.1641C46.3757 19.1641 41.8985 23.6412 41.8985 29.1641H51.8985ZM59.5469 29.1641V39.1641C65.0698 39.1641 69.5469 34.6869 69.5469 29.1641H59.5469ZM59.5469 24.4375H69.5469C69.5469 20.6384 67.3942 17.1674 63.9908 15.4792L59.5469 24.4375ZM55.293 18.5508L65.2927 18.637C65.2932 18.5788 65.2932 18.5205 65.2926 18.4623L55.293 18.5508ZM70.0313 15.9297L69.9458 25.9293C70.0036 25.9298 70.0613 25.9298 70.119 25.9293L70.0313 15.9297ZM62.4688 18.5508L72.4661 18.7833C72.4696 18.6317 72.4697 18.4802 72.4663 18.3286L62.4688 18.5508ZM83.7813 36.6406H93.7813C93.7813 31.1178 89.3042 26.6406 83.7813 26.6406V36.6406ZM83.7813 49.7461V59.7461C89.3042 59.7461 93.7813 55.2689 93.7813 49.7461H83.7813ZM76.9063 49.7461H66.9063C66.9063 55.2689 71.3835 59.7461 76.9063 59.7461V49.7461ZM76.9063 42.0117H86.9063C86.9063 36.4889 82.4292 32.0117 76.9063 32.0117V42.0117ZM55.9376 42.0117H45.9376C45.9376 47.5346 50.4147 52.0117 55.9376 52.0117V42.0117ZM55.9376 36.6406V26.6406C50.4147 26.6406 45.9376 31.1178 45.9376 36.6406H55.9376ZM66.5079 29.1641H56.5079C56.5079 34.6869 60.985 39.1641 66.5079 39.1641V29.1641ZM73.3399 29.1641V39.1641C78.8628 39.1641 83.3399 34.6869 83.3399 29.1641H73.3399ZM73.3399 26.3281L83.3399 26.3281C83.3399 23.4642 82.112 20.7377 79.9673 18.8397C77.8227 16.9416 74.9672 16.0542 72.1245 16.4023L73.3399 26.3281ZM66.5079 26.3281L67.465 16.374C64.6593 16.1043 61.87 17.0311 59.7837 18.9264C57.6974 20.8217 56.5079 23.5095 56.5079 26.3281H66.5079ZM70.0313 10.5586L69.9832 20.5585C73.5021 20.5754 75.3523 21.2174 75.9415 21.5374C76.1773 21.6655 75.8716 21.5581 75.4769 20.9943C75.0254 20.3493 74.7346 19.4924 74.727 18.6393L84.7266 18.5508L94.7262 18.4623C94.6636 11.387 90.2292 6.53813 85.4874 3.96257C80.974 1.51108 75.498 0.58476 70.0794 0.558709L70.0313 10.5586ZM84.7266 18.5508L74.727 18.4675C74.7304 18.0514 74.8022 17.5864 74.9649 17.1167C75.1264 16.6503 75.344 16.2752 75.552 15.9996C75.9507 15.4712 76.2073 15.4376 75.824 15.6249L80.2149 24.6094L84.6058 33.5938C89.6037 31.1512 94.663 26.2308 94.7263 18.6341L84.7266 18.5508ZM80.2149 24.6094L70.2149 24.6094V29.1641H80.2149H90.2149V24.6094H80.2149ZM80.2149 29.1641V39.1641H88.1641V29.1641V19.1641H80.2149V29.1641ZM88.1641 29.1641H78.1641V34.4922H88.1641H98.1641V29.1641H88.1641ZM88.1641 34.4922V24.4922L51.8985 24.4922V34.4922V44.4922H88.1641V34.4922ZM51.8985 34.4922H61.8985V29.1641H51.8985H41.8985V34.4922H51.8985ZM51.8985 29.1641V39.1641H59.5469V29.1641V19.1641H51.8985V29.1641ZM59.5469 29.1641H69.5469V24.4375H59.5469H49.5469V29.1641H59.5469ZM59.5469 24.4375L63.9908 15.4792C63.706 15.3379 64.0275 15.4263 64.459 16.016C64.9602 16.701 65.3011 17.6554 65.2927 18.637L55.293 18.5508L45.2934 18.4646C45.2287 25.9752 50.155 30.9413 55.103 33.3958L59.5469 24.4375ZM55.293 18.5508L65.2926 18.4623C65.301 19.4078 64.9829 20.3353 64.506 21.0132C64.0948 21.5977 63.7811 21.7001 64.045 21.5582C64.6822 21.2157 66.5869 20.5753 70.0796 20.5585L70.0313 10.5586L69.983 0.558711C64.5812 0.584806 59.0952 1.51277 54.5762 3.94176C49.8756 6.4683 45.229 11.3543 45.2934 18.6393L55.293 18.5508ZM70.0313 15.9297L70.1168 5.93005C67.4272 5.90707 64.1303 6.03916 61.2106 7.00417C59.686 7.50807 57.4697 8.4906 55.584 10.5294C53.4492 12.8376 52.4049 15.7846 52.4713 18.7729L62.4688 18.5508L72.4663 18.3286C72.5113 20.3502 71.7731 22.4808 70.2667 24.1095C69.0094 25.4689 67.7438 25.9089 67.4868 25.9939C67.1676 26.0994 67.1646 26.0537 67.6954 26.0018C68.184 25.954 68.9143 25.9205 69.9458 25.9293L70.0313 15.9297ZM62.4688 18.5508L52.4715 18.3183C52.3995 21.4144 53.5323 24.3404 55.6177 26.5728C57.458 28.5428 59.6063 29.5206 61.1024 30.0341C63.9981 31.0279 67.2711 31.2148 70.0313 31.2148V21.2148V11.2148C69.0233 11.2148 68.306 11.1728 67.8278 11.1197C67.3108 11.0622 67.2992 11.0158 67.595 11.1173C67.8235 11.1957 69.0212 11.6229 70.233 12.9202C71.69 14.4799 72.5166 16.611 72.4661 18.7833L62.4688 18.5508ZM70.0313 21.2148V31.2148C72.7603 31.2148 75.9934 31.0219 78.8714 30.0424C80.3507 29.539 82.4514 28.593 84.2787 26.7093C86.3416 24.5828 87.5938 21.7158 87.5938 18.5508H77.5938L67.5938 18.5508C67.5938 16.3096 68.513 14.2375 69.9233 12.7837C71.098 11.5728 72.2266 11.1773 72.4276 11.1089C72.6965 11.0174 72.6681 11.0642 72.1635 11.1209C71.6949 11.1735 70.9987 11.2148 70.0313 11.2148V21.2148ZM77.5938 18.5508H87.5938C87.5938 15.489 86.4311 12.5974 84.3132 10.3924C82.4393 8.44136 80.2716 7.49049 78.7638 6.99634C75.8598 6.04461 72.6026 5.90675 69.9436 5.93007L70.0313 15.9297L70.119 25.9293C71.1099 25.9206 71.8189 25.9536 72.2971 26.0008C72.8146 26.0519 72.828 26.0977 72.5351 26.0017C72.3057 25.9265 71.1101 25.5181 69.8888 24.2466C68.4235 22.7209 67.5938 20.6458 67.5938 18.5508L77.5938 18.5508ZM83.7813 36.6406H73.7813V49.7461H83.7813H93.7813V36.6406H83.7813ZM83.7813 49.7461V39.7461H76.9063V49.7461V59.7461H83.7813V49.7461ZM76.9063 49.7461H86.9063V42.0117H76.9063H66.9063V49.7461H76.9063ZM76.9063 42.0117V32.0117H55.9376V42.0117V52.0117H76.9063V42.0117ZM55.9376 42.0117H65.9376V36.6406H55.9376H45.9376V42.0117H55.9376ZM55.9376 36.6406V46.6406H83.7813V36.6406V26.6406L55.9376 26.6406V36.6406ZM66.5079 29.1641V39.1641H73.3399V29.1641V19.1641H66.5079V29.1641ZM73.3399 29.1641H83.3399V26.3281L73.3399 26.3281H63.3399V29.1641H73.3399ZM73.3399 26.3281L72.1245 16.4023C71.6204 16.464 70.9641 16.5 70.0313 16.5V26.5V36.5C71.4188 36.5 72.954 36.4501 74.5553 36.254L73.3399 26.3281ZM70.0313 26.5V16.5C69.1557 16.5 68.2948 16.4538 67.465 16.374L66.5079 26.3281L65.5508 36.2822C66.9554 36.4173 68.4577 36.5 70.0313 36.5V26.5ZM66.5079 26.3281H56.5079V29.1641H66.5079H76.5079V26.3281H66.5079ZM123.484 10H133.484C133.484 4.47715 129.007 0 123.484 0V10ZM123.484 49.875V59.875C129.007 59.875 133.484 55.3978 133.484 49.875H123.484ZM116.523 49.875H106.523C106.523 55.3978 111.001 59.875 116.523 59.875V49.875ZM116.523 10V0C111.001 0 106.523 4.47715 106.523 10L116.523 10ZM101.656 12.6641L101.587 22.6638C101.634 22.6641 101.68 22.6641 101.727 22.6638L101.656 12.6641ZM101.656 18.8945L101.487 28.8931C101.604 28.8951 101.721 28.895 101.838 28.8929L101.656 18.8945ZM123.484 10H113.484V49.875H123.484H133.484V10H123.484ZM123.484 49.875V39.875H116.523V49.875V59.875H123.484V49.875ZM116.523 49.875H126.523V10H116.523L106.523 10V49.875H116.523ZM116.523 10V20H123.484V10V0L116.523 0V10ZM101.656 12.6641L101.727 22.6638C101.659 22.6643 101.49 22.6406 101.315 22.5508C101.153 22.4681 101.162 22.4198 101.283 22.5782C101.553 22.9327 102.27 24.2334 102.27 26.9727H112.27H122.27C122.27 20.9463 120.709 15.0712 117.187 10.4521C113.54 5.66819 108.007 2.61877 101.585 2.66431L101.656 12.6641ZM112.27 26.9727H102.27C102.27 29.8028 101.54 31.1249 101.27 31.4804C101.149 31.6391 101.138 31.594 101.292 31.5147C101.458 31.4293 101.611 31.4102 101.656 31.4102V41.4102V51.4102C108.03 51.4102 113.548 48.3834 117.2 43.5733C120.722 38.9337 122.27 33.0371 122.27 26.9727H112.27ZM101.656 41.4102V31.4102C101.635 31.4102 101.74 31.4135 101.877 31.483C102.005 31.5479 101.986 31.5815 101.867 31.4265C101.602 31.0816 100.871 29.7839 100.871 26.9727H90.8712H80.8712C80.8712 33.056 82.4395 38.977 86.0197 43.6273C89.7325 48.4498 95.2941 51.4102 101.656 51.4102V41.4102ZM90.8712 26.9727H100.871C100.871 24.2526 101.588 22.9762 101.854 22.632C101.974 22.4774 101.991 22.5139 101.855 22.5822C101.794 22.6127 101.728 22.6363 101.666 22.6507C101.604 22.6649 101.574 22.6637 101.587 22.6638L101.656 12.6641L101.726 2.6643C95.3167 2.6198 89.7414 5.60151 86.0324 10.3982C82.4529 15.0277 80.8712 20.9271 80.8712 26.9727H90.8712ZM101.656 18.8945L101.826 8.89597C96.1942 8.80052 91.9959 12.0746 89.8225 16.1436C87.9817 19.59 87.5313 23.5385 87.5313 26.9727H97.5313H107.531C107.531 26.0559 107.599 25.4897 107.652 25.2055C107.709 24.8993 107.715 25.0966 107.464 25.5664C107.197 26.0649 106.571 26.9904 105.357 27.7722C104.079 28.5955 102.682 28.9134 101.487 28.8931L101.656 18.8945ZM97.5313 26.9727H87.5313C87.5313 30.4271 87.9751 34.3944 89.8304 37.8541C92.0451 41.9836 96.22 45.0938 101.656 45.0938V35.0938V25.0937C102.766 25.0937 104.102 25.3965 105.349 26.1982C106.546 26.9673 107.178 27.8831 107.456 28.4018C107.715 28.8846 107.71 29.0928 107.654 28.7849C107.601 28.4977 107.531 27.9194 107.531 26.9727H97.5313ZM101.656 35.0938V45.0938C107.255 45.0938 111.306 41.7294 113.383 37.7986C115.182 34.3926 115.652 30.4806 115.652 26.9727H105.652H95.6524C95.6524 27.9039 95.5826 28.4806 95.5284 28.7724C95.4705 29.0842 95.4612 28.9062 95.6984 28.4572C95.947 27.9865 96.5427 27.0851 97.7148 26.3005C98.9549 25.4703 100.364 25.0937 101.656 25.0937V35.0938ZM105.652 26.9727H115.652C115.652 23.4853 115.175 19.5914 113.391 16.199C111.36 12.3393 107.281 8.79061 101.475 8.89618L101.656 18.8945L101.838 28.8929C100.452 28.9181 98.977 28.5217 97.7069 27.6697C96.5181 26.8723 95.9276 25.9614 95.6906 25.511C95.4613 25.075 95.4721 24.9078 95.5299 25.218C95.5839 25.507 95.6524 26.0715 95.6524 26.9727H105.652ZM169.332 10.0859L179.332 10.0859C179.332 4.56309 174.855 0.0859375 169.332 0.0859375V10.0859ZM169.332 18.207H159.332C159.332 23.7299 163.809 28.207 169.332 28.207V18.207ZM174.273 18.207H184.273C184.273 12.6842 179.796 8.20703 174.273 8.20703V18.207ZM174.273 23.75V33.75C179.796 33.75 184.273 29.2728 184.273 23.75H174.273ZM169.332 23.75V13.75C163.809 13.75 159.332 18.2272 159.332 23.75H169.332ZM169.332 31.8281V41.8281C174.855 41.8281 179.332 37.351 179.332 31.8281H169.332ZM162.414 31.8281H152.414C152.414 37.351 156.891 41.8281 162.414 41.8281V31.8281ZM162.414 10.0859V0.0859375C156.891 0.0859375 152.414 4.56309 152.414 10.0859H162.414ZM169.891 33.332H179.891C179.891 27.8092 175.414 23.332 169.891 23.332V33.332ZM169.891 38.6602V48.6602C175.414 48.6602 179.891 44.183 179.891 38.6602H169.891ZM165.551 38.6602V28.6602C160.028 28.6602 155.551 33.1373 155.551 38.6602H165.551ZM165.551 43.6445H155.551C155.551 49.1674 160.028 53.6445 165.551 53.6445V43.6445ZM170.363 43.6445H180.363C180.363 38.1217 175.886 33.6445 170.363 33.6445V43.6445ZM170.363 49.1875V59.1875C175.886 59.1875 180.363 54.7103 180.363 49.1875H170.363ZM142.477 49.1875L132.477 49.1875C132.477 54.7103 136.954 59.1875 142.477 59.1875V49.1875ZM142.477 43.6445V33.6445C136.954 33.6445 132.477 38.1217 132.477 43.6445L142.477 43.6445ZM147.203 43.6445V53.6445C152.726 53.6445 157.203 49.1674 157.203 43.6445H147.203ZM147.203 38.6602H157.203C157.203 33.1373 152.726 28.6602 147.203 28.6602V38.6602ZM142.777 38.6602L132.777 38.6602C132.777 44.183 137.255 48.6602 142.777 48.6602V38.6602ZM142.777 33.332V23.332C137.255 23.332 132.777 27.8092 132.777 33.332L142.777 33.332ZM148.664 25.5117L148.84 15.5133C148.724 15.5112 148.608 15.5112 148.492 15.5132L148.664 25.5117ZM153.09 21.6445L163.089 21.8112C163.09 21.7036 163.09 21.5959 163.089 21.4883L153.09 21.6445ZM153.949 43.6445H143.949C143.949 49.1674 148.426 53.6445 153.949 53.6445V43.6445ZM158.805 43.6445V53.6445C164.328 53.6445 168.805 49.1674 168.805 43.6445H158.805ZM158.805 38.6602H168.805C168.805 33.1373 164.328 28.6602 158.805 28.6602V38.6602ZM153.949 38.6602V28.6602C148.426 28.6602 143.949 33.1373 143.949 38.6602H153.949ZM169.332 10.0859H159.332V18.207H169.332H179.332V10.0859L169.332 10.0859ZM169.332 18.207V28.207H174.273V18.207V8.20703L169.332 8.20703V18.207ZM174.273 18.207H164.273V23.75H174.273H184.273V18.207H174.273ZM174.273 23.75V13.75H169.332V23.75V33.75H174.273V23.75ZM169.332 23.75H159.332V31.8281H169.332H179.332V23.75H169.332ZM169.332 31.8281V21.8281H162.414V31.8281V41.8281H169.332V31.8281ZM162.414 31.8281H172.414V10.0859H162.414H152.414V31.8281H162.414ZM162.414 10.0859V20.0859H169.332V10.0859V0.0859375L162.414 0.0859375V10.0859ZM169.891 33.332H159.891V38.6602H169.891H179.891V33.332H169.891ZM169.891 38.6602V28.6602H165.551V38.6602V48.6602H169.891V38.6602ZM165.551 38.6602H155.551V43.6445H165.551H175.551V38.6602H165.551ZM165.551 43.6445V53.6445H170.363V43.6445V33.6445H165.551V43.6445ZM170.363 43.6445H160.363V49.1875H170.363H180.363V43.6445H170.363ZM170.363 49.1875V39.1875H142.477V49.1875V59.1875H170.363V49.1875ZM142.477 49.1875H152.477V43.6445H142.477L132.477 43.6445V49.1875L142.477 49.1875ZM142.477 43.6445V53.6445H147.203V43.6445V33.6445H142.477V43.6445ZM147.203 43.6445H157.203V38.6602H147.203L137.203 38.6602V43.6445L147.203 43.6445ZM147.203 38.6602V28.6602H142.777V38.6602V48.6602H147.203V38.6602ZM142.777 38.6602H152.777V33.332H142.777L132.777 33.332V38.6602L142.777 38.6602ZM142.777 33.332V43.332H169.891V33.332V23.332H142.777V33.332ZM148.664 11.8906V21.8906C149.651 21.8906 150.045 22.2067 150.042 22.2042C150.035 22.1979 149.956 22.1244 149.883 21.9687C149.848 21.895 149.823 21.821 149.809 21.7543C149.801 21.7221 149.797 21.6955 149.795 21.6755C149.794 21.6657 149.794 21.6581 149.793 21.6527C149.793 21.65 149.793 21.648 149.793 21.6466C149.793 21.6452 149.793 21.6445 149.793 21.6445H159.793H169.793C169.793 9.05064 158.956 1.89062 148.664 1.89062V11.8906ZM159.793 21.6445H149.793C149.793 21.5295 149.825 21.3485 149.911 21.1675C149.992 20.9988 150.072 20.9304 150.065 20.9359C150.04 20.9573 149.626 21.2695 148.664 21.2695V31.2695V41.2695C158.893 41.2695 169.793 34.1202 169.793 21.6445H159.793ZM148.664 31.2695V21.2695C147.666 21.2695 147.239 20.9477 147.215 20.9273C147.209 20.9222 147.291 20.992 147.373 21.1633C147.461 21.3467 147.492 21.5294 147.492 21.6445H137.492H127.492C127.492 34.1431 138.419 41.2695 148.664 41.2695V31.2695ZM137.492 21.6445H147.492C147.492 21.6445 147.492 21.6452 147.492 21.6466C147.492 21.648 147.492 21.6501 147.492 21.6528C147.492 21.6582 147.491 21.6659 147.49 21.6758C147.488 21.696 147.484 21.7229 147.477 21.7555C147.461 21.823 147.437 21.898 147.401 21.9729C147.327 22.1312 147.246 22.2063 147.239 22.2128C147.235 22.2162 147.64 21.8906 148.664 21.8906V11.8906V1.89062C138.356 1.89062 127.492 9.02764 127.492 21.6445H137.492ZM148.664 17.6055V7.60547C145.825 7.60547 142.194 8.33148 139.094 10.9285C135.732 13.7454 134.238 17.7252 134.238 21.6445H144.238H154.238C154.238 22.8139 153.711 24.7741 151.939 26.259C150.429 27.524 149.011 27.6055 148.664 27.6055V17.6055ZM144.238 21.6445H134.238C134.238 25.6658 135.869 29.5901 139.187 32.3029C142.262 34.8167 145.875 35.5613 148.837 35.5102L148.664 25.5117L148.492 15.5132C148.961 15.5051 150.361 15.6051 151.846 16.8191C153.574 18.2321 154.238 20.2014 154.238 21.6445H144.238ZM148.664 25.5117L148.489 35.5102C151.476 35.5626 155.062 34.7939 158.109 32.3029C161.372 29.6348 163.022 25.7867 163.089 21.8112L153.09 21.6445L143.091 21.4779C143.115 20.0805 143.776 18.1874 145.45 16.8191C146.907 15.6279 148.301 15.5038 148.84 15.5133L148.664 25.5117ZM153.09 21.6445L163.089 21.4883C163.028 17.6062 161.509 13.6999 158.202 10.9285C155.129 8.35411 151.528 7.60547 148.664 7.60547V17.6055V27.6055C148.249 27.6055 146.84 27.5014 145.357 26.259C143.639 24.8196 143.109 22.9329 143.091 21.8008L153.09 21.6445ZM153.949 43.6445V53.6445H158.805V43.6445V33.6445H153.949V43.6445ZM158.805 43.6445H168.805V38.6602H158.805H148.805V43.6445H158.805ZM158.805 38.6602V28.6602H153.949V38.6602V48.6602H158.805V38.6602ZM153.949 38.6602H143.949V43.6445H153.949H163.949V38.6602H153.949ZM191.289 17.9492L201.289 18.0054C201.289 17.9867 201.289 17.9679 201.289 17.9492H191.289ZM200.398 35.8672L208.315 41.9763C210.216 39.513 210.862 36.3052 210.063 33.2981C209.263 30.291 207.11 27.8274 204.237 26.6331L200.398 35.8672ZM196.188 41.3242L191.883 50.3503C196.135 52.3783 201.226 51.1632 204.105 47.4334L196.188 41.3242ZM187.766 31.6562L197.16 28.2275C195.713 24.2639 191.934 21.6349 187.715 21.6564C183.495 21.6779 179.744 24.3453 178.337 28.3235L187.766 31.6562ZM178.957 42.0547L171.008 48.1224C173.876 51.8793 178.983 53.1154 183.251 51.0857L178.957 42.0547ZM174.66 36.4258L170.683 27.2509C167.861 28.4743 165.759 30.9282 164.983 33.9046C164.208 36.881 164.845 40.0487 166.711 42.4935L174.66 36.4258ZM184.242 12.8359V2.83594C178.719 2.83594 174.242 7.31309 174.242 12.8359H184.242ZM191.289 12.8359H201.289C201.289 7.31309 196.812 2.83594 191.289 2.83594V12.8359ZM209.465 10H219.465C219.465 4.47715 214.988 0 209.465 0V10ZM209.465 49.875V59.875C214.988 59.875 219.465 55.3978 219.465 49.875H209.465ZM202.633 49.875H192.633C192.633 55.3978 197.11 59.875 202.633 59.875V49.875ZM202.633 27.3594L212.633 27.3594C212.633 21.8365 208.156 17.3594 202.633 17.3594V27.3594ZM195.887 27.3594H185.887C185.887 32.8822 190.364 37.3594 195.887 37.3594V27.3594ZM195.887 21.8594V11.8594C190.364 11.8594 185.887 16.3365 185.887 21.8594H195.887ZM202.633 21.8594V31.8594C208.156 31.8594 212.633 27.3822 212.633 21.8594L202.633 21.8594ZM202.633 10V0C197.11 0 192.633 4.47715 192.633 10H202.633ZM191.289 17.9492L181.289 17.893C181.241 26.5385 183.486 39.667 196.56 45.1012L200.398 35.8672L204.237 26.6331C203.339 26.26 202.793 25.7418 202.302 24.6278C201.693 23.2488 201.272 21.0697 201.289 18.0054L191.289 17.9492ZM200.398 35.8672L192.482 29.758L188.271 35.2151L196.188 41.3242L204.105 47.4334L208.315 41.9763L200.398 35.8672ZM196.188 41.3242L200.492 32.2982C199.082 31.6257 198.001 30.5336 197.16 28.2275L187.766 31.6562L178.372 35.085C180.667 41.3727 184.914 47.0266 191.883 50.3503L196.188 41.3242ZM187.766 31.6562L178.337 28.3235C177.364 31.0766 176.094 32.343 174.663 33.0236L178.957 42.0547L183.251 51.0857C190.586 47.5984 194.902 41.4742 197.194 34.989L187.766 31.6562ZM178.957 42.0547L186.906 35.9869L182.609 30.358L174.66 36.4258L166.711 42.4935L171.008 48.1224L178.957 42.0547ZM174.66 36.4258L178.638 45.6007C191.768 39.9083 194.242 26.6564 194.242 17.9492H184.242H174.242C174.242 20.9061 173.804 23.1843 173.114 24.7244C172.523 26.0425 171.802 26.7656 170.683 27.2509L174.66 36.4258ZM184.242 17.9492H194.242V12.8359H184.242H174.242V17.9492H184.242ZM184.242 12.8359V22.8359H191.289V12.8359V2.83594L184.242 2.83594V12.8359ZM191.289 12.8359H181.289V17.9492H191.289H201.289V12.8359H191.289ZM209.465 10H199.465V49.875H209.465H219.465V10H209.465ZM209.465 49.875V39.875H202.633V49.875V59.875H209.465V49.875ZM202.633 49.875H212.633V27.3594L202.633 27.3594H192.633V49.875H202.633ZM202.633 27.3594V17.3594H195.887V27.3594V37.3594H202.633V27.3594ZM195.887 27.3594L205.887 27.3594V21.8594L195.887 21.8594H185.887V27.3594H195.887ZM195.887 21.8594V31.8594H202.633V21.8594V11.8594H195.887V21.8594ZM202.633 21.8594L212.633 21.8594V10H202.633H192.633V21.8594H202.633ZM202.633 10V20L209.465 20V10V0H202.633V10ZM245.945 20.0977H255.945C255.945 14.5748 251.468 10.0977 245.945 10.0977V20.0977ZM245.945 25.4258V35.4258C251.468 35.4258 255.945 30.9486 255.945 25.4258H245.945ZM217.844 25.4258H207.844C207.844 30.9486 212.321 35.4258 217.844 35.4258V25.4258ZM217.844 11.418V1.41797C212.321 1.41797 207.844 5.89512 207.844 11.418H217.844ZM224.719 11.418H234.719C234.719 5.89512 230.242 1.41797 224.719 1.41797V11.418ZM224.719 20.0977H214.719C214.719 25.6205 219.196 30.0977 224.719 30.0977V20.0977ZM249.856 28.9492H259.856C259.856 23.4264 255.378 18.9492 249.856 18.9492V28.9492ZM249.856 34.2773V44.2773C255.378 44.2773 259.856 39.8002 259.856 34.2773H249.856ZM213.59 34.2773H203.59C203.59 39.8002 208.067 44.2773 213.59 44.2773V34.2773ZM213.59 28.9492V18.9492C208.067 18.9492 203.59 23.4264 203.59 28.9492H213.59ZM246.203 43.4727H256.203C256.203 37.9498 251.726 33.4727 246.203 33.4727V43.4727ZM246.203 48.9727V58.9727C251.726 58.9727 256.203 54.4955 256.203 48.9727H246.203ZM217.371 48.9727H207.371C207.371 54.4955 211.848 58.9727 217.371 58.9727V48.9727ZM217.371 37.0273V27.0273C211.848 27.0273 207.371 31.5045 207.371 37.0273H217.371ZM224.332 37.0273H234.332C234.332 31.5045 229.855 27.0273 224.332 27.0273V37.0273ZM224.332 43.4727H214.332C214.332 48.9955 218.809 53.4727 224.332 53.4727V43.4727ZM245.945 20.0977H235.945V25.4258H245.945H255.945V20.0977H245.945ZM245.945 25.4258V15.4258H217.844V25.4258V35.4258H245.945V25.4258ZM217.844 25.4258H227.844V11.418H217.844H207.844V25.4258H217.844ZM217.844 11.418V21.418H224.719V11.418V1.41797L217.844 1.41797V11.418ZM224.719 11.418H214.719V20.0977H224.719H234.719V11.418H224.719ZM224.719 20.0977V30.0977H245.945V20.0977V10.0977L224.719 10.0977V20.0977ZM249.856 28.9492H239.856V34.2773H249.856H259.856V28.9492H249.856ZM249.856 34.2773V24.2773H213.59V34.2773V44.2773H249.856V34.2773ZM213.59 34.2773H223.59V28.9492H213.59H203.59V34.2773H213.59ZM213.59 28.9492V38.9492H249.856V28.9492V18.9492H213.59V28.9492ZM246.203 43.4727H236.203V48.9727H246.203H256.203V43.4727H246.203ZM246.203 48.9727V38.9727H217.371V48.9727V58.9727H246.203V48.9727ZM217.371 48.9727H227.371V37.0273H217.371H207.371V48.9727H217.371ZM217.371 37.0273V47.0273H224.332V37.0273V27.0273H217.371V37.0273ZM224.332 37.0273H214.332V43.4727H224.332H234.332V37.0273H224.332ZM224.332 43.4727V53.4727H246.203V43.4727V33.4727H224.332V43.4727Z" fill="white" mask="url(#path-1-outside-1_3990_1494)"/>
</g>
<defs>
<filter id="filter0_d_3990_1494" x="0" y="0" width="263.856" height="67.875" filterUnits="userSpaceOnUse" color-interpolation-filters="sRGB">
<feFlood flood-opacity="0" result="BackgroundImageFix"/>
<feColorMatrix in="SourceAlpha" type="matrix" values="0 0 0 0 0 0 0 0 0 0 0 0 0 0 0 0 0 0 127 0" result="hardAlpha"/>
<feOffset dy="4"/>
<feGaussianBlur stdDeviation="2"/>
<feComposite in2="hardAlpha" operator="out"/>
<feColorMatrix type="matrix" values="0 0 0 0 0 0 0 0 0 0 0 0 0 0 0 0 0 0 0.07 0"/>
<feBlend mode="normal" in2="BackgroundImageFix" result="effect1_dropShadow_3990_1494"/>
<feBlend mode="normal" in="SourceGraphic" in2="effect1_dropShadow_3990_1494" result="shape"/>
</filter>
</defs>
</svg>
