<svg width="302" height="68" viewBox="0 0 302 68" fill="none" xmlns="http://www.w3.org/2000/svg">
<g filter="url(#filter0_d_3990_1453)">
<mask id="path-1-outside-1_3990_1453" maskUnits="userSpaceOnUse" x="3.66829" y="-0.507813" width="294" height="61" fill="black">
<rect fill="white" x="3.66829" y="-0.507813" width="294" height="61"/>
<path d="M47.0863 10.0859V38.3164H40.1683V10.0859L47.0863 10.0859ZM48.0316 43.6875V49.1875H19.887V35.4805H26.848V43.6875H48.0316ZM25.1292 12.4492C31.3167 12.4492 36.2581 16.7461 36.2581 22.6328C36.2581 28.6484 31.3167 32.9023 25.1292 32.9023C18.9417 32.9023 13.9573 28.6484 14.0003 22.6328C13.9573 16.7461 18.9417 12.4492 25.1292 12.4492ZM25.1292 18.4219C22.5941 18.4219 20.7034 19.8398 20.7034 22.6328C20.7034 25.5547 22.5941 26.9297 25.1292 26.9297C27.5355 26.9297 29.4261 25.5547 29.4261 22.6328C29.4261 19.8398 27.5355 18.4219 25.1292 18.4219ZM67.0667 17.9492C67.0238 25.168 69.0003 32.3008 75.8753 35.5664L71.7503 41.0664C67.7113 39.1328 65.1331 35.7812 63.5863 31.6133C61.889 36.1035 59.096 39.7344 54.7347 41.7969L50.5667 36.2109C57.8714 32.9883 60.1058 25.4258 60.1058 17.9492V12.8359H67.0667V17.9492ZM83.3089 10V24.8242H88.68V30.625H83.3089V49.7461H76.3909V10H83.3089ZM123.184 10V49.875H116.223V10H123.184ZM101.356 12.6641C107.414 12.6211 111.969 18.207 111.969 26.9727C111.969 35.8672 107.414 41.4102 101.356 41.4102C95.1683 41.4102 90.5706 35.8672 90.5706 26.9727C90.5706 18.207 95.1683 12.6211 101.356 12.6641ZM101.356 18.8945C98.8206 18.8516 97.2308 21.4727 97.2308 26.9727C97.2308 32.5586 98.8206 35.0938 101.356 35.0938C103.719 35.0938 105.352 32.5586 105.352 26.9727C105.352 21.4727 103.719 18.8516 101.356 18.8945ZM160.18 29.9805V35.3086L131.692 35.3086V12.6211H159.965V18.1641H138.696V21.2578H158.977V26.5859H138.696V29.9805L160.18 29.9805ZM163.961 39.9492V45.4922L127.653 45.4922V39.9492L163.961 39.9492ZM197.391 10V24.6523H202.461V30.2812H197.391V49.6602H190.473V10H197.391ZM186.563 13.9531C186.52 26.2422 182.309 36.5547 168.731 43.2148L164.821 37.9727C173.672 33.5039 178.356 27.9395 179.559 19.5391H167.313V13.9531H186.563ZM235.118 12.4492C235.118 23.2773 228.586 29.8086 216.77 32.3867L214.02 26.9297C222.721 25.4043 226.825 21.7734 227.641 17.9492H216.211V12.4492H235.118ZM246.719 10.0859V31.2266H239.801V10.0859H246.719ZM247.063 32.7305V38.0156H242.766V43.6445H247.45V49.1875H219.133V43.6445H223.731V38.0156H219.477V32.7305H247.063ZM230.434 43.6445H235.977V38.0156H230.434V43.6445ZM287.582 29.9375V35.3516H251.317V29.9375H287.582ZM283.371 43.6875V49.1875H255.485V37.5H262.403V43.6875H283.371ZM269.45 11.1172C278.215 11.1172 284.102 14.2969 284.145 19.4102C284.102 24.6094 278.215 27.832 269.45 27.832C260.598 27.832 254.668 24.6094 254.711 19.4102C254.668 14.2969 260.598 11.1172 269.45 11.1172ZM269.45 16.5312C264.465 16.5742 261.844 17.4766 261.887 19.4102C261.844 21.4727 264.465 22.2891 269.45 22.2461C274.348 22.2891 277.012 21.4727 277.012 19.4102C277.012 17.4766 274.348 16.5742 269.45 16.5312Z"/>
</mask>
<path d="M47.0863 10.0859V38.3164H40.1683V10.0859L47.0863 10.0859ZM48.0316 43.6875V49.1875H19.887V35.4805H26.848V43.6875H48.0316ZM25.1292 12.4492C31.3167 12.4492 36.2581 16.7461 36.2581 22.6328C36.2581 28.6484 31.3167 32.9023 25.1292 32.9023C18.9417 32.9023 13.9573 28.6484 14.0003 22.6328C13.9573 16.7461 18.9417 12.4492 25.1292 12.4492ZM25.1292 18.4219C22.5941 18.4219 20.7034 19.8398 20.7034 22.6328C20.7034 25.5547 22.5941 26.9297 25.1292 26.9297C27.5355 26.9297 29.4261 25.5547 29.4261 22.6328C29.4261 19.8398 27.5355 18.4219 25.1292 18.4219ZM67.0667 17.9492C67.0238 25.168 69.0003 32.3008 75.8753 35.5664L71.7503 41.0664C67.7113 39.1328 65.1331 35.7812 63.5863 31.6133C61.889 36.1035 59.096 39.7344 54.7347 41.7969L50.5667 36.2109C57.8714 32.9883 60.1058 25.4258 60.1058 17.9492V12.8359H67.0667V17.9492ZM83.3089 10V24.8242H88.68V30.625H83.3089V49.7461H76.3909V10H83.3089ZM123.184 10V49.875H116.223V10H123.184ZM101.356 12.6641C107.414 12.6211 111.969 18.207 111.969 26.9727C111.969 35.8672 107.414 41.4102 101.356 41.4102C95.1683 41.4102 90.5706 35.8672 90.5706 26.9727C90.5706 18.207 95.1683 12.6211 101.356 12.6641ZM101.356 18.8945C98.8206 18.8516 97.2308 21.4727 97.2308 26.9727C97.2308 32.5586 98.8206 35.0938 101.356 35.0938C103.719 35.0938 105.352 32.5586 105.352 26.9727C105.352 21.4727 103.719 18.8516 101.356 18.8945ZM160.18 29.9805V35.3086L131.692 35.3086V12.6211H159.965V18.1641H138.696V21.2578H158.977V26.5859H138.696V29.9805L160.18 29.9805ZM163.961 39.9492V45.4922L127.653 45.4922V39.9492L163.961 39.9492ZM197.391 10V24.6523H202.461V30.2812H197.391V49.6602H190.473V10H197.391ZM186.563 13.9531C186.52 26.2422 182.309 36.5547 168.731 43.2148L164.821 37.9727C173.672 33.5039 178.356 27.9395 179.559 19.5391H167.313V13.9531H186.563ZM235.118 12.4492C235.118 23.2773 228.586 29.8086 216.77 32.3867L214.02 26.9297C222.721 25.4043 226.825 21.7734 227.641 17.9492H216.211V12.4492H235.118ZM246.719 10.0859V31.2266H239.801V10.0859H246.719ZM247.063 32.7305V38.0156H242.766V43.6445H247.45V49.1875H219.133V43.6445H223.731V38.0156H219.477V32.7305H247.063ZM230.434 43.6445H235.977V38.0156H230.434V43.6445ZM287.582 29.9375V35.3516H251.317V29.9375H287.582ZM283.371 43.6875V49.1875H255.485V37.5H262.403V43.6875H283.371ZM269.45 11.1172C278.215 11.1172 284.102 14.2969 284.145 19.4102C284.102 24.6094 278.215 27.832 269.45 27.832C260.598 27.832 254.668 24.6094 254.711 19.4102C254.668 14.2969 260.598 11.1172 269.45 11.1172ZM269.45 16.5312C264.465 16.5742 261.844 17.4766 261.887 19.4102C261.844 21.4727 264.465 22.2891 269.45 22.2461C274.348 22.2891 277.012 21.4727 277.012 19.4102C277.012 17.4766 274.348 16.5742 269.45 16.5312Z" fill="#11DCA9"/>
<path d="M47.0863 10.0859H57.0863C57.0863 4.56309 52.6091 0.0859375 47.0863 0.0859375V10.0859ZM47.0863 38.3164V48.3164C52.6091 48.3164 57.0863 43.8393 57.0863 38.3164H47.0863ZM40.1683 38.3164H30.1683C30.1683 43.8393 34.6454 48.3164 40.1683 48.3164V38.3164ZM40.1683 10.0859V0.0859375C34.6454 0.0859375 30.1683 4.56309 30.1683 10.0859H40.1683ZM48.0316 43.6875H58.0316C58.0316 38.1647 53.5544 33.6875 48.0316 33.6875V43.6875ZM48.0316 49.1875V59.1875C53.5544 59.1875 58.0316 54.7103 58.0316 49.1875H48.0316ZM19.887 49.1875H9.88704C9.88704 54.7103 14.3642 59.1875 19.887 59.1875V49.1875ZM19.887 35.4805V25.4805C14.3642 25.4805 9.88704 29.9576 9.88704 35.4805H19.887ZM26.848 35.4805H36.848C36.848 29.9576 32.3708 25.4805 26.848 25.4805V35.4805ZM26.848 43.6875H16.848C16.848 49.2103 21.3251 53.6875 26.848 53.6875V43.6875ZM14.0003 22.6328L24.0001 22.7042C24.0004 22.6561 24.0004 22.608 24.0001 22.5598L14.0003 22.6328ZM47.0863 10.0859L37.0863 10.0859V38.3164H47.0863H57.0863V10.0859H47.0863ZM47.0863 38.3164V28.3164H40.1683V38.3164V48.3164H47.0863V38.3164ZM40.1683 38.3164H50.1683V10.0859L40.1683 10.0859H30.1683V38.3164H40.1683ZM40.1683 10.0859V20.0859H47.0863V10.0859V0.0859375H40.1683V10.0859ZM48.0316 43.6875H38.0316V49.1875H48.0316H58.0316V43.6875H48.0316ZM48.0316 49.1875V39.1875H19.887V49.1875V59.1875H48.0316V49.1875ZM19.887 49.1875H29.887V35.4805H19.887H9.88704L9.88704 49.1875H19.887ZM19.887 35.4805V45.4805H26.848V35.4805V25.4805H19.887V35.4805ZM26.848 35.4805H16.848V43.6875H26.848H36.848V35.4805H26.848ZM26.848 43.6875V53.6875H48.0316V43.6875V33.6875H26.848V43.6875ZM25.1292 12.4492V22.4492C25.9151 22.4492 26.2667 22.7145 26.32 22.7625C26.3456 22.7856 26.3183 22.7678 26.2872 22.6996C26.2522 22.6226 26.2581 22.582 26.2581 22.6328H36.2581H46.2581C46.2581 10.2688 35.8342 2.44922 25.1292 2.44922V12.4492ZM36.2581 22.6328H26.2581C26.2581 22.7467 26.2394 22.7399 26.2696 22.6728C26.2965 22.6131 26.3242 22.5906 26.309 22.6043C26.2781 22.6322 25.9406 22.9023 25.1292 22.9023V32.9023V42.9023C35.8633 42.9023 46.2581 35.0994 46.2581 22.6328H36.2581ZM25.1292 32.9023V22.9023C24.3111 22.9023 23.9592 22.6277 23.9235 22.5954C23.9082 22.5816 23.9426 22.6101 23.9762 22.6851C24.0137 22.7686 23.9994 22.7961 24.0001 22.7042L14.0003 22.6328L4.00057 22.5614C3.91068 35.147 14.468 42.9023 25.1292 42.9023V32.9023ZM14.0003 22.6328L24.0001 22.5598C23.9998 22.5318 24.0011 22.5937 23.9587 22.6872C23.9208 22.7708 23.8867 22.7945 23.9125 22.7714C23.9707 22.7191 24.3365 22.4492 25.1292 22.4492V12.4492V2.44922C14.4984 2.44922 3.90945 10.2208 4.00058 22.7058L14.0003 22.6328ZM25.1292 18.4219V8.42188C22.0794 8.42188 18.3797 9.281 15.3126 12.0143C12.0756 14.899 10.7034 18.8404 10.7034 22.6328H20.7034H30.7034C30.7034 23.6323 30.2766 25.4682 28.6187 26.9457C27.1307 28.2717 25.6438 28.4219 25.1292 28.4219V18.4219ZM20.7034 22.6328H10.7034C10.7034 26.3614 11.992 30.361 15.2844 33.3174C18.4033 36.1181 22.1515 36.9297 25.1292 36.9297V26.9297V16.9297C25.5718 16.9297 27.1071 17.0538 28.6469 18.4365C30.3602 19.9749 30.7034 21.8261 30.7034 22.6328H20.7034ZM25.1292 26.9297V36.9297C28.1607 36.9297 31.8768 36.0539 34.9373 33.2485C38.144 30.3089 39.4261 26.3568 39.4261 22.6328H29.4261H19.4261C19.4261 21.8307 19.7628 20.027 21.4228 18.5054C22.9363 17.118 24.504 16.9297 25.1292 16.9297V26.9297ZM29.4261 22.6328H39.4261C39.4261 18.8465 38.0618 14.9508 34.9093 12.0829C31.9019 9.347 28.2333 8.42188 25.1292 8.42188V18.4219V28.4219C24.4314 28.4219 22.9113 28.2057 21.4507 26.8771C19.8451 25.4164 19.4261 23.6261 19.4261 22.6328H29.4261ZM67.0667 17.9492L77.0665 18.0087C77.0667 17.9889 77.0667 17.9691 77.0667 17.9492L67.0667 17.9492ZM75.8753 35.5664L83.8753 41.5664C85.6757 39.1659 86.303 36.0839 85.5841 33.1707C84.8653 30.2575 82.8762 27.8211 80.1659 26.5336L75.8753 35.5664ZM71.7503 41.0664L67.4324 50.0861C71.7332 52.145 76.8894 50.881 79.7503 47.0664L71.7503 41.0664ZM63.5863 31.6133L72.9614 28.1338C71.5105 24.2245 67.7862 21.6259 63.6163 21.6133C59.4465 21.6008 55.7065 24.177 54.2322 28.0775L63.5863 31.6133ZM54.7347 41.7969L46.7199 47.7771C49.5663 51.5919 54.707 52.8718 59.0098 50.837L54.7347 41.7969ZM50.5667 36.2109L46.5303 27.0618C43.7442 28.2909 41.6699 30.7227 40.8955 33.6678C40.1211 36.613 40.7308 39.7505 42.552 42.1912L50.5667 36.2109ZM60.1058 12.8359V2.83594C54.5829 2.83594 50.1058 7.31309 50.1058 12.8359H60.1058ZM67.0667 12.8359L77.0667 12.8359C77.0667 7.31309 72.5896 2.83594 67.0667 2.83594V12.8359ZM83.3089 10H93.3089C93.3089 4.47715 88.8318 0 83.3089 0V10ZM83.3089 24.8242L73.3089 24.8242C73.3089 30.3471 77.7861 34.8242 83.3089 34.8242V24.8242ZM88.68 24.8242H98.68C98.68 19.3014 94.2029 14.8242 88.68 14.8242V24.8242ZM88.68 30.625V40.625C94.2029 40.625 98.68 36.1478 98.68 30.625H88.68ZM83.3089 30.625V20.625C77.7861 20.625 73.3089 25.1022 73.3089 30.625H83.3089ZM83.3089 49.7461V59.7461C88.8318 59.7461 93.3089 55.2689 93.3089 49.7461H83.3089ZM76.3909 49.7461H66.3909C66.3909 55.2689 70.8681 59.7461 76.3909 59.7461V49.7461ZM76.3909 10V0C70.8681 0 66.3909 4.47715 66.3909 10H76.3909ZM67.0667 17.9492L57.0669 17.8897C57.0165 26.3549 59.3246 38.7756 71.5847 44.5992L75.8753 35.5664L80.1659 26.5336C79.172 26.0615 78.5512 25.4089 78.0442 24.2454C77.4447 22.8698 77.0499 20.7994 77.0665 18.0087L67.0667 17.9492ZM75.8753 35.5664L67.8753 29.5664L63.7503 35.0664L71.7503 41.0664L79.7503 47.0664L83.8753 41.5664L75.8753 35.5664ZM71.7503 41.0664L76.0683 32.0467C74.8843 31.4799 73.8253 30.4616 72.9614 28.1338L63.5863 31.6133L54.2111 35.0927C56.4409 41.1009 60.5382 46.7857 67.4324 50.0861L71.7503 41.0664ZM63.5863 31.6133L54.2322 28.0775C53.2103 30.7809 51.9283 32.0622 50.4596 32.7568L54.7347 41.7969L59.0098 50.837C66.2637 47.4066 70.5676 41.4261 72.9403 35.149L63.5863 31.6133ZM54.7347 41.7969L62.7495 35.8166L58.5815 30.2307L50.5667 36.2109L42.552 42.1912L46.7199 47.7771L54.7347 41.7969ZM50.5667 36.2109L54.6031 45.3601C67.4566 39.6895 70.1058 26.737 70.1058 17.9492H60.1058H50.1058C50.1058 20.8043 49.6628 23.0217 48.9765 24.527C48.3822 25.8305 47.6486 26.5684 46.5303 27.0618L50.5667 36.2109ZM60.1058 17.9492H70.1058V12.8359H60.1058H50.1058V17.9492H60.1058ZM60.1058 12.8359V22.8359H67.0667V12.8359V2.83594L60.1058 2.83594V12.8359ZM67.0667 12.8359H57.0667V17.9492H67.0667L77.0667 17.9492V12.8359L67.0667 12.8359ZM83.3089 10H73.3089V24.8242L83.3089 24.8242H93.3089V10H83.3089ZM83.3089 24.8242V34.8242H88.68V24.8242V14.8242H83.3089V24.8242ZM88.68 24.8242H78.68V30.625H88.68H98.68V24.8242H88.68ZM88.68 30.625V20.625H83.3089V30.625V40.625H88.68V30.625ZM83.3089 30.625H73.3089V49.7461H83.3089H93.3089V30.625H83.3089ZM83.3089 49.7461V39.7461H76.3909V49.7461V59.7461H83.3089V49.7461ZM76.3909 49.7461H86.3909V10H76.3909H66.3909V49.7461H76.3909ZM76.3909 10V20L83.3089 20V10V0H76.3909V10ZM123.184 10H133.184C133.184 4.47715 128.707 0 123.184 0V10ZM123.184 49.875V59.875C128.707 59.875 133.184 55.3978 133.184 49.875H123.184ZM116.223 49.875H106.223C106.223 55.3978 110.7 59.875 116.223 59.875V49.875ZM116.223 10V0C110.7 0 106.223 4.47715 106.223 10L116.223 10ZM101.356 12.6641L101.286 22.6638C101.333 22.6641 101.38 22.6641 101.427 22.6638L101.356 12.6641ZM101.356 18.8945L101.186 28.8931C101.303 28.8951 101.42 28.895 101.538 28.8929L101.356 18.8945ZM123.184 10H113.184V49.875H123.184H133.184V10H123.184ZM123.184 49.875V39.875H116.223V49.875V59.875H123.184V49.875ZM116.223 49.875H126.223V10H116.223L106.223 10V49.875H116.223ZM116.223 10V20H123.184V10V0L116.223 0V10ZM101.356 12.6641L101.427 22.6638C101.359 22.6643 101.189 22.6406 101.014 22.5508C100.852 22.4681 100.861 22.4198 100.982 22.5782C101.252 22.9327 101.969 24.2334 101.969 26.9727H111.969H121.969C121.969 20.9463 120.408 15.0712 116.887 10.4521C113.239 5.66819 107.706 2.61877 101.285 2.66431L101.356 12.6641ZM111.969 26.9727H101.969C101.969 29.8028 101.239 31.1249 100.969 31.4804C100.849 31.6391 100.838 31.594 100.992 31.5147C101.158 31.4293 101.311 31.4102 101.356 31.4102V41.4102V51.4102C107.729 51.4102 113.248 48.3834 116.899 43.5733C120.421 38.9337 121.969 33.0371 121.969 26.9727H111.969ZM101.356 41.4102V31.4102C101.334 31.4102 101.439 31.4135 101.577 31.483C101.705 31.5479 101.686 31.5815 101.567 31.4265C101.301 31.0816 100.571 29.7839 100.571 26.9727H90.5706H80.5706C80.5706 33.056 82.139 38.977 85.7192 43.6273C89.432 48.4498 94.9936 51.4102 101.356 51.4102V41.4102ZM90.5706 26.9727H100.571C100.571 24.2526 101.288 22.9762 101.554 22.632C101.673 22.4774 101.69 22.5139 101.555 22.5822C101.494 22.6127 101.428 22.6363 101.366 22.6507C101.304 22.6649 101.273 22.6637 101.286 22.6638L101.356 12.6641L101.425 2.6643C95.0161 2.6198 89.4408 5.60151 85.7319 10.3982C82.1524 15.0277 80.5706 20.9271 80.5706 26.9727H90.5706ZM101.356 18.8945L101.525 8.89597C95.8937 8.80052 91.6954 12.0746 89.522 16.1436C87.6811 19.59 87.2308 23.5385 87.2308 26.9727H97.2308H107.231C107.231 26.0559 107.299 25.4897 107.352 25.2055C107.408 24.8993 107.414 25.0966 107.163 25.5664C106.897 26.0649 106.271 26.9904 105.057 27.7722C103.778 28.5955 102.382 28.9134 101.186 28.8931L101.356 18.8945ZM97.2308 26.9727H87.2308C87.2308 30.4271 87.6745 34.3944 89.5299 37.8541C91.7445 41.9836 95.9195 45.0938 101.356 45.0938V35.0938V25.0937C102.466 25.0937 103.802 25.3965 105.049 26.1982C106.245 26.9673 106.877 27.8831 107.155 28.4018C107.414 28.8846 107.41 29.0928 107.353 28.7849C107.3 28.4977 107.231 27.9194 107.231 26.9727H97.2308ZM101.356 35.0938V45.0938C106.955 45.0938 111.006 41.7294 113.082 37.7986C114.881 34.3926 115.352 30.4806 115.352 26.9727H105.352H95.3519C95.3519 27.9039 95.2821 28.4806 95.2279 28.7724C95.17 29.0842 95.1607 28.9062 95.3979 28.4572C95.6465 27.9865 96.2422 27.0851 97.4143 26.3005C98.6544 25.4703 100.064 25.0937 101.356 25.0937V35.0938ZM105.352 26.9727H115.352C115.352 23.4853 114.875 19.5914 113.09 16.199C111.059 12.3393 106.981 8.79061 101.174 8.89618L101.356 18.8945L101.538 28.8929C100.152 28.9181 98.6764 28.5217 97.4063 27.6697C96.2176 26.8723 95.6271 25.9614 95.3901 25.511C95.1607 25.075 95.1716 24.9078 95.2294 25.218C95.2833 25.507 95.3519 26.0715 95.3519 26.9727H105.352ZM160.18 29.9805H170.18C170.18 24.4576 165.703 19.9805 160.18 19.9805V29.9805ZM160.18 35.3086V45.3086C165.703 45.3086 170.18 40.8314 170.18 35.3086H160.18ZM131.692 35.3086H121.692C121.692 40.8314 126.169 45.3086 131.692 45.3086V35.3086ZM131.692 12.6211V2.62109C126.169 2.62109 121.692 7.09825 121.692 12.6211H131.692ZM159.965 12.6211H169.965C169.965 7.09825 165.488 2.62109 159.965 2.62109V12.6211ZM159.965 18.1641V28.1641C165.488 28.1641 169.965 23.6869 169.965 18.1641H159.965ZM138.696 18.1641V8.16406C133.173 8.16406 128.696 12.6412 128.696 18.1641H138.696ZM138.696 21.2578H128.696C128.696 26.7807 133.173 31.2578 138.696 31.2578V21.2578ZM158.977 21.2578H168.977C168.977 15.735 164.5 11.2578 158.977 11.2578V21.2578ZM158.977 26.5859V36.5859C164.5 36.5859 168.977 32.1088 168.977 26.5859H158.977ZM138.696 26.5859V16.5859C133.173 16.5859 128.696 21.0631 128.696 26.5859H138.696ZM138.696 29.9805H128.696C128.696 35.5033 133.173 39.9805 138.696 39.9805V29.9805ZM163.961 39.9492H173.961C173.961 34.4264 169.484 29.9492 163.961 29.9492V39.9492ZM163.961 45.4922V55.4922C169.484 55.4922 173.961 51.015 173.961 45.4922H163.961ZM127.653 45.4922H117.653C117.653 51.015 122.13 55.4922 127.653 55.4922V45.4922ZM127.653 39.9492V29.9492C122.13 29.9492 117.653 34.4264 117.653 39.9492H127.653ZM160.18 29.9805H150.18V35.3086H160.18H170.18V29.9805H160.18ZM160.18 35.3086V25.3086H131.692V35.3086V45.3086L160.18 45.3086V35.3086ZM131.692 35.3086L141.692 35.3086V12.6211H131.692H121.692V35.3086H131.692ZM131.692 12.6211V22.6211H159.965V12.6211V2.62109L131.692 2.62109V12.6211ZM159.965 12.6211H149.965V18.1641H159.965H169.965V12.6211H159.965ZM159.965 18.1641V8.16406H138.696V18.1641V28.1641H159.965V18.1641ZM138.696 18.1641H128.696V21.2578H138.696H148.696V18.1641H138.696ZM138.696 21.2578V31.2578L158.977 31.2578V21.2578V11.2578H138.696V21.2578ZM158.977 21.2578H148.977V26.5859H158.977H168.977V21.2578H158.977ZM158.977 26.5859V16.5859H138.696V26.5859V36.5859L158.977 36.5859V26.5859ZM138.696 26.5859H128.696V29.9805H138.696L148.696 29.9805V26.5859H138.696ZM138.696 29.9805V39.9805L160.18 39.9805V29.9805V19.9805H138.696V29.9805ZM163.961 39.9492H153.961V45.4922H163.961H173.961V39.9492H163.961ZM163.961 45.4922V35.4922L127.653 35.4922V45.4922V55.4922L163.961 55.4922V45.4922ZM127.653 45.4922H137.653V39.9492H127.653H117.653V45.4922H127.653ZM127.653 39.9492V49.9492L163.961 49.9492V39.9492V29.9492L127.653 29.9492V39.9492ZM197.391 10H207.391C207.391 4.47715 202.914 0 197.391 0V10ZM197.391 24.6523H187.391C187.391 30.1752 191.868 34.6523 197.391 34.6523V24.6523ZM202.461 24.6523L212.461 24.6523C212.461 19.1295 207.984 14.6523 202.461 14.6523V24.6523ZM202.461 30.2812V40.2812C207.984 40.2812 212.461 35.8041 212.461 30.2812H202.461ZM197.391 30.2812V20.2812C191.868 20.2812 187.391 24.7584 187.391 30.2812H197.391ZM197.391 49.6602V59.6602C202.914 59.6602 207.391 55.183 207.391 49.6602H197.391ZM190.473 49.6602H180.473C180.473 55.183 184.95 59.6602 190.473 59.6602V49.6602ZM190.473 10V0C184.95 0 180.473 4.47715 180.473 10H190.473ZM186.563 13.9531L196.563 13.9881C196.572 11.3299 195.523 8.77736 193.646 6.89443C191.77 5.0115 189.221 3.95312 186.563 3.95312V13.9531ZM168.731 43.2148L160.715 49.1938C163.593 53.0526 168.813 54.313 173.135 52.193L168.731 43.2148ZM164.821 37.9727L160.314 29.0458C157.677 30.377 155.764 32.8059 155.087 35.6812C154.41 38.5565 155.039 41.5839 156.805 43.9516L164.821 37.9727ZM179.559 19.5391L189.458 20.9568C189.869 18.0866 189.014 15.1792 187.115 12.9884C185.215 10.7976 182.458 9.53906 179.559 9.53906V19.5391ZM167.313 19.5391H157.313C157.313 25.0619 161.79 29.5391 167.313 29.5391V19.5391ZM167.313 13.9531V3.95312C161.79 3.95312 157.313 8.43028 157.313 13.9531H167.313ZM197.391 10H187.391V24.6523H197.391L207.391 24.6523V10H197.391ZM197.391 24.6523V34.6523H202.461V24.6523V14.6523H197.391V24.6523ZM202.461 24.6523H192.461V30.2812H202.461H212.461V24.6523L202.461 24.6523ZM202.461 30.2812V20.2812H197.391V30.2812V40.2812H202.461V30.2812ZM197.391 30.2812H187.391V49.6602H197.391H207.391V30.2812H197.391ZM197.391 49.6602V39.6602H190.473V49.6602V59.6602H197.391V49.6602ZM190.473 49.6602H200.473V10H190.473H180.473V49.6602H190.473ZM190.473 10V20H197.391V10V0L190.473 0V10ZM186.563 13.9531L176.563 13.9182C176.545 18.9688 175.67 22.8059 173.986 25.8287C172.363 28.7423 169.565 31.6673 164.327 34.2367L168.731 43.2148L173.135 52.193C181.474 48.1022 187.571 42.5409 191.459 35.5609C195.286 28.6902 196.537 21.2265 196.563 13.9881L186.563 13.9531ZM168.731 43.2148L176.747 37.2359L172.836 31.9937L164.821 37.9727L156.805 43.9516L160.715 49.1938L168.731 43.2148ZM164.821 37.9727L169.327 46.8995C174.572 44.2517 179.246 40.951 182.831 36.5212C186.502 31.9849 188.626 26.7651 189.458 20.9568L179.559 19.5391L169.66 18.1213C169.289 20.7134 168.469 22.4761 167.285 23.9392C166.014 25.5089 163.921 27.2248 160.314 29.0458L164.821 37.9727ZM179.559 19.5391V9.53906L167.313 9.53906V19.5391V29.5391H179.559V19.5391ZM167.313 19.5391H177.313V13.9531H167.313H157.313V19.5391H167.313ZM167.313 13.9531V23.9531H186.563V13.9531V3.95312H167.313V13.9531ZM235.118 12.4492L245.118 12.4492C245.118 6.92637 240.64 2.44922 235.118 2.44922V12.4492ZM216.77 32.3867L207.84 36.887C209.893 40.9614 214.444 43.1295 218.902 42.1569L216.77 32.3867ZM214.02 26.9297L212.293 17.0799C209.176 17.6263 206.502 19.6155 205.083 22.4434C203.663 25.2713 203.666 28.6042 205.09 31.4299L214.02 26.9297ZM227.641 17.9492L237.421 20.037C238.051 17.0849 237.314 14.0062 235.415 11.6595C233.517 9.31274 230.66 7.94922 227.641 7.94922V17.9492ZM216.211 17.9492H206.211C206.211 23.4721 210.688 27.9492 216.211 27.9492V17.9492ZM216.211 12.4492V2.44922C210.688 2.44922 206.211 6.92637 206.211 12.4492H216.211ZM246.719 10.0859H256.719C256.719 4.56309 252.242 0.0859375 246.719 0.0859375V10.0859ZM246.719 31.2266V41.2266C252.242 41.2266 256.719 36.7494 256.719 31.2266H246.719ZM239.801 31.2266H229.801C229.801 36.7494 234.278 41.2266 239.801 41.2266V31.2266ZM239.801 10.0859V0.0859375C234.278 0.0859375 229.801 4.56309 229.801 10.0859L239.801 10.0859ZM247.063 32.7305H257.063C257.063 27.2076 252.586 22.7305 247.063 22.7305V32.7305ZM247.063 38.0156V48.0156C252.586 48.0156 257.063 43.5385 257.063 38.0156H247.063ZM242.766 38.0156V28.0156C237.243 28.0156 232.766 32.4928 232.766 38.0156H242.766ZM242.766 43.6445H232.766C232.766 49.1674 237.243 53.6445 242.766 53.6445V43.6445ZM247.45 43.6445H257.45C257.45 38.1217 252.972 33.6445 247.45 33.6445V43.6445ZM247.45 49.1875V59.1875C252.972 59.1875 257.45 54.7103 257.45 49.1875H247.45ZM219.133 49.1875H209.133C209.133 54.7103 213.61 59.1875 219.133 59.1875V49.1875ZM219.133 43.6445V33.6445C213.61 33.6445 209.133 38.1217 209.133 43.6445H219.133ZM223.731 43.6445V53.6445C229.254 53.6445 233.731 49.1674 233.731 43.6445H223.731ZM223.731 38.0156H233.731C233.731 32.4928 229.254 28.0156 223.731 28.0156V38.0156ZM219.477 38.0156H209.477C209.477 43.5385 213.954 48.0156 219.477 48.0156V38.0156ZM219.477 32.7305V22.7305C213.954 22.7305 209.477 27.2076 209.477 32.7305H219.477ZM230.434 43.6445H220.434C220.434 49.1674 224.911 53.6445 230.434 53.6445V43.6445ZM235.977 43.6445V53.6445C241.5 53.6445 245.977 49.1674 245.977 43.6445H235.977ZM235.977 38.0156H245.977C245.977 32.4928 241.5 28.0156 235.977 28.0156V38.0156ZM230.434 38.0156V28.0156C224.911 28.0156 220.434 32.4928 220.434 38.0156H230.434ZM235.118 12.4492H225.118C225.118 15.7041 224.208 17.472 223.088 18.6629C221.797 20.0365 219.301 21.5993 214.638 22.6166L216.77 32.3867L218.902 42.1569C226.056 40.596 232.733 37.6041 237.661 32.3606C242.762 26.9343 245.118 20.0225 245.118 12.4492L235.118 12.4492ZM216.77 32.3867L225.7 27.8865L222.95 22.4294L214.02 26.9297L205.09 31.4299L207.84 36.887L216.77 32.3867ZM214.02 26.9297L215.747 36.7795C225.859 35.0067 235.311 29.9199 237.421 20.037L227.641 17.9492L217.861 15.8614C218.068 14.8922 218.56 14.748 217.99 15.1535C217.333 15.6205 215.662 16.4892 212.293 17.0799L214.02 26.9297ZM227.641 17.9492V7.94922H216.211V17.9492V27.9492H227.641V17.9492ZM216.211 17.9492H226.211V12.4492H216.211H206.211V17.9492H216.211ZM216.211 12.4492V22.4492H235.118V12.4492V2.44922L216.211 2.44922V12.4492ZM246.719 10.0859H236.719V31.2266H246.719H256.719V10.0859H246.719ZM246.719 31.2266V21.2266H239.801V31.2266V41.2266H246.719V31.2266ZM239.801 31.2266H249.801V10.0859H239.801L229.801 10.0859V31.2266H239.801ZM239.801 10.0859V20.0859H246.719V10.0859V0.0859375L239.801 0.0859375V10.0859ZM247.063 32.7305H237.063V38.0156H247.063H257.063V32.7305H247.063ZM247.063 38.0156V28.0156H242.766V38.0156V48.0156H247.063V38.0156ZM242.766 38.0156H232.766V43.6445H242.766H252.766V38.0156H242.766ZM242.766 43.6445V53.6445H247.45V43.6445V33.6445H242.766V43.6445ZM247.45 43.6445H237.45V49.1875H247.45H257.45V43.6445H247.45ZM247.45 49.1875V39.1875H219.133V49.1875V59.1875H247.45V49.1875ZM219.133 49.1875H229.133V43.6445H219.133H209.133V49.1875H219.133ZM219.133 43.6445V53.6445H223.731V43.6445V33.6445H219.133V43.6445ZM223.731 43.6445H233.731V38.0156H223.731H213.731V43.6445H223.731ZM223.731 38.0156V28.0156H219.477V38.0156V48.0156H223.731V38.0156ZM219.477 38.0156H229.477V32.7305H219.477H209.477V38.0156H219.477ZM219.477 32.7305V42.7305H247.063V32.7305V22.7305H219.477V32.7305ZM230.434 43.6445V53.6445H235.977V43.6445V33.6445H230.434V43.6445ZM235.977 43.6445H245.977V38.0156H235.977H225.977V43.6445H235.977ZM235.977 38.0156V28.0156H230.434V38.0156V48.0156H235.977V38.0156ZM230.434 38.0156H220.434V43.6445H230.434H240.434V38.0156H230.434ZM287.582 29.9375H297.582C297.582 24.4147 293.105 19.9375 287.582 19.9375V29.9375ZM287.582 35.3516V45.3516C293.105 45.3516 297.582 40.8744 297.582 35.3516H287.582ZM251.317 35.3516H241.317C241.317 40.8744 245.794 45.3516 251.317 45.3516V35.3516ZM251.317 29.9375V19.9375C245.794 19.9375 241.317 24.4147 241.317 29.9375H251.317ZM283.371 43.6875H293.371C293.371 38.1647 288.894 33.6875 283.371 33.6875V43.6875ZM283.371 49.1875V59.1875C288.894 59.1875 293.371 54.7103 293.371 49.1875H283.371ZM255.485 49.1875H245.485C245.485 54.7103 249.962 59.1875 255.485 59.1875V49.1875ZM255.485 37.5V27.5C249.962 27.5 245.485 31.9772 245.485 37.5H255.485ZM262.403 37.5H272.403C272.403 31.9772 267.926 27.5 262.403 27.5V37.5ZM262.403 43.6875H252.403C252.403 49.2103 256.88 53.6875 262.403 53.6875V43.6875ZM284.145 19.4102L294.145 19.4928C294.145 19.4372 294.145 19.3817 294.144 19.3261L284.145 19.4102ZM254.711 19.4102L264.711 19.4928C264.711 19.4372 264.711 19.3817 264.711 19.3261L254.711 19.4102ZM269.45 16.5312L269.537 6.53163C269.479 6.53113 269.421 6.53112 269.363 6.53162L269.45 16.5312ZM261.887 19.4102L271.885 19.6184C271.888 19.475 271.888 19.3315 271.885 19.188L261.887 19.4102ZM269.45 22.2461L269.537 12.2465C269.479 12.246 269.421 12.246 269.363 12.2465L269.45 22.2461ZM287.582 29.9375H277.582V35.3516H287.582H297.582V29.9375H287.582ZM287.582 35.3516V25.3516H251.317V35.3516V45.3516H287.582V35.3516ZM251.317 35.3516H261.317V29.9375H251.317H241.317V35.3516H251.317ZM251.317 29.9375V39.9375H287.582V29.9375V19.9375H251.317V29.9375ZM283.371 43.6875H273.371V49.1875H283.371H293.371V43.6875H283.371ZM283.371 49.1875V39.1875H255.485V49.1875V59.1875H283.371V49.1875ZM255.485 49.1875H265.485V37.5H255.485H245.485V49.1875H255.485ZM255.485 37.5V47.5H262.403V37.5V27.5H255.485V37.5ZM262.403 37.5H252.403V43.6875H262.403H272.403V37.5H262.403ZM262.403 43.6875V53.6875H283.371V43.6875V33.6875H262.403V43.6875ZM269.45 11.1172V21.1172C272.811 21.1172 274.616 21.7555 275.199 22.0809C275.433 22.2112 275.161 22.1183 274.806 21.5982C274.4 21.0039 274.151 20.2325 274.145 19.4942L284.145 19.4102L294.144 19.3261C294.085 12.2408 289.742 7.28992 284.937 4.61151C280.375 2.06871 274.853 1.11719 269.45 1.11719V11.1172ZM284.145 19.4102L274.145 19.3275C274.151 18.6476 274.378 17.9154 274.765 17.3389C275.106 16.8323 275.369 16.7399 275.144 16.8672C274.576 17.1886 272.794 17.832 269.45 17.832V27.832V37.832C274.87 37.832 280.415 36.8641 284.992 34.2744C289.832 31.5366 294.086 26.5412 294.145 19.4928L284.145 19.4102ZM269.45 27.832V17.832C266.043 17.832 264.228 17.1821 263.654 16.8584C263.427 16.7309 263.714 16.8348 264.074 17.3762C264.486 17.9944 264.717 18.7752 264.711 19.4928L254.711 19.4102L244.712 19.3275C244.652 26.487 248.974 31.5434 253.836 34.2832C258.429 36.8706 264.005 37.832 269.45 37.832V27.832ZM254.711 19.4102L264.711 19.3261C264.717 20.1031 264.464 20.9243 264.034 21.5609C263.658 22.1159 263.363 22.2202 263.598 22.0895C264.189 21.7618 266.026 21.1172 269.45 21.1172V11.1172V1.11719C264.021 1.11719 258.468 2.06243 253.892 4.6029C249.065 7.28237 244.651 12.2948 244.712 19.4942L254.711 19.4102ZM269.45 16.5312L269.363 6.53162C266.573 6.55568 263.25 6.79251 260.302 7.8871C258.769 8.45626 256.658 9.5024 254.876 11.5061C252.887 13.7437 251.822 16.6133 251.89 19.6323L261.887 19.4102L271.885 19.188C271.93 21.2402 271.177 23.2719 269.823 24.7951C268.677 26.0845 267.524 26.5398 267.264 26.6363C266.952 26.7523 266.94 26.7088 267.426 26.6467C267.875 26.5893 268.562 26.5393 269.536 26.5309L269.45 16.5312ZM261.887 19.4102L251.889 19.2019C251.829 22.073 252.775 24.9534 254.797 27.284C256.622 29.3863 258.814 30.4592 260.407 31.0306C263.424 32.1125 266.807 32.2692 269.536 32.2457L269.45 22.2461L269.363 12.2465C268.373 12.255 267.684 12.218 267.239 12.1696C266.752 12.1168 266.799 12.0757 267.159 12.2048C267.479 12.3196 268.713 12.8044 269.902 14.1749C271.289 15.7736 271.923 17.7785 271.885 19.6184L261.887 19.4102ZM269.45 22.2461L269.362 32.2457C272.071 32.2695 275.426 32.1084 278.431 31.0351C280.013 30.47 282.167 29.4207 283.983 27.385C285.991 25.1327 287.012 22.3066 287.012 19.4102H277.012H267.012C267.012 17.5449 267.7 15.5943 269.056 14.0739C270.218 12.77 271.4 12.3089 271.704 12.2003C272.047 12.0777 272.085 12.1185 271.61 12.1705C271.173 12.2183 270.5 12.2549 269.537 12.2465L269.45 22.2461ZM277.012 19.4102H287.012C287.012 16.3715 285.872 13.5618 283.902 11.406C282.132 9.46789 280.058 8.44528 278.536 7.88233C275.601 6.79719 272.307 6.55593 269.537 6.53163L269.45 16.5312L269.362 26.5309C270.308 26.5392 270.98 26.5886 271.421 26.6454C271.896 26.7067 271.895 26.7503 271.6 26.6411C271.355 26.5508 270.254 26.119 269.136 24.8953C267.819 23.4538 267.012 21.482 267.012 19.4102H277.012Z" fill="white" mask="url(#path-1-outside-1_3990_1453)"/>
</g>
<defs>
<filter id="filter0_d_3990_1453" x="0" y="0" width="301.582" height="67.875" filterUnits="userSpaceOnUse" color-interpolation-filters="sRGB">
<feFlood flood-opacity="0" result="BackgroundImageFix"/>
<feColorMatrix in="SourceAlpha" type="matrix" values="0 0 0 0 0 0 0 0 0 0 0 0 0 0 0 0 0 0 127 0" result="hardAlpha"/>
<feOffset dy="4"/>
<feGaussianBlur stdDeviation="2"/>
<feComposite in2="hardAlpha" operator="out"/>
<feColorMatrix type="matrix" values="0 0 0 0 0 0 0 0 0 0 0 0 0 0 0 0 0 0 0.07 0"/>
<feBlend mode="normal" in2="BackgroundImageFix" result="effect1_dropShadow_3990_1453"/>
<feBlend mode="normal" in="SourceGraphic" in2="effect1_dropShadow_3990_1453" result="shape"/>
</filter>
</defs>
</svg>
