<svg width="264" height="68" viewBox="0 0 264 68" fill="none" xmlns="http://www.w3.org/2000/svg">
<g filter="url(#filter0_d_3990_1386)">
<mask id="path-1-outside-1_3990_1386" maskUnits="userSpaceOnUse" x="3.66833" y="-0.507813" width="256" height="61" fill="black">
<rect fill="white" x="3.66833" y="-0.507813" width="256" height="61"/>
<path d="M24.8715 11.0312C31.016 10.9883 35.6996 14.8984 35.6996 20.2695C35.6996 25.5977 31.016 29.4648 24.8715 29.4648C18.684 29.4648 13.9574 25.5977 14.0004 20.2695C13.9574 14.8984 18.684 10.9883 24.8715 11.0312ZM24.8715 16.5742C22.4222 16.6172 20.6176 17.7773 20.6605 20.2695C20.6176 22.7188 22.4222 23.9648 24.8715 23.9648C27.3207 23.9648 29.0394 22.7188 29.0394 20.2695C29.0394 17.7773 27.3207 16.6172 24.8715 16.5742ZM47.0863 10V29.6367H40.1683V10L47.0863 10ZM47.0863 31.0977V42.6562H26.7621V44.0312H47.9457V49.4023H20.016V37.7148H40.2113V36.3398H19.9301V31.0977H47.0863ZM85.5863 10V49.875H78.6254V30.3242H72.4808V24.8672L78.6254 24.8672V10H85.5863ZM67.1957 22.2031C67.1957 27.3594 69.516 33.7617 76.391 36.7266L72.7816 41.9258C68.3988 40.1855 65.5199 36.8125 63.8011 32.7734C62.1254 37.0918 59.2465 40.7227 54.7777 42.5273L51.2113 37.2852C58.0004 34.3203 60.2777 27.5742 60.3207 22.2031V21.6875H52.6722V16.2305H60.3636V11.0312H67.2386V16.2305H74.7152V21.6875H67.1957V22.2031ZM123.227 10V49.875H116.352V10H123.227ZM110.766 13.1367V29.207H98.7777V35.1367C104.45 35.0723 109.112 34.75 114.161 33.8906L114.719 39.4336C108.703 40.5508 102.903 40.7656 95.3832 40.7656H91.6449V23.8359H103.719V18.6367H91.6449V13.1367H110.766ZM159.364 10V24.6523H164.434V30.2812H159.364V49.6602H152.446V10H159.364ZM148.536 13.9531C148.493 26.2422 144.282 36.5547 130.703 43.2148L126.793 37.9727C135.645 33.5039 140.328 27.9395 141.532 19.5391H129.286V13.9531H148.536ZM208.907 10V24.1797H212.043V29.8516H208.907V49.7461H202.118V10H208.907ZM180.805 13.5234V22.1172H181.75V13.5234H187.293V40.8516H175.219V13.5234H180.805ZM180.805 35.3086H181.75V27.4883H180.805V35.3086ZM193.996 13.5234V22.1172H195.114V13.5234H200.7V40.8516H188.539V13.5234H193.996ZM193.996 35.3086H195.114V27.4883H193.996V35.3086ZM249.555 31.1406V36.6406H213.289V31.1406H249.555ZM246.246 43.6875V49.1875H217.715V38.2305H224.547V43.6875H246.246ZM245.344 10.6445V22.418H224.504V24.2227H245.989V29.3359H217.672V17.5625H238.469V15.9297H217.629V10.6445L245.344 10.6445Z"/>
</mask>
<path d="M24.8715 11.0312C31.016 10.9883 35.6996 14.8984 35.6996 20.2695C35.6996 25.5977 31.016 29.4648 24.8715 29.4648C18.684 29.4648 13.9574 25.5977 14.0004 20.2695C13.9574 14.8984 18.684 10.9883 24.8715 11.0312ZM24.8715 16.5742C22.4222 16.6172 20.6176 17.7773 20.6605 20.2695C20.6176 22.7188 22.4222 23.9648 24.8715 23.9648C27.3207 23.9648 29.0394 22.7188 29.0394 20.2695C29.0394 17.7773 27.3207 16.6172 24.8715 16.5742ZM47.0863 10V29.6367H40.1683V10L47.0863 10ZM47.0863 31.0977V42.6562H26.7621V44.0312H47.9457V49.4023H20.016V37.7148H40.2113V36.3398H19.9301V31.0977H47.0863ZM85.5863 10V49.875H78.6254V30.3242H72.4808V24.8672L78.6254 24.8672V10H85.5863ZM67.1957 22.2031C67.1957 27.3594 69.516 33.7617 76.391 36.7266L72.7816 41.9258C68.3988 40.1855 65.5199 36.8125 63.8011 32.7734C62.1254 37.0918 59.2465 40.7227 54.7777 42.5273L51.2113 37.2852C58.0004 34.3203 60.2777 27.5742 60.3207 22.2031V21.6875H52.6722V16.2305H60.3636V11.0312H67.2386V16.2305H74.7152V21.6875H67.1957V22.2031ZM123.227 10V49.875H116.352V10H123.227ZM110.766 13.1367V29.207H98.7777V35.1367C104.45 35.0723 109.112 34.75 114.161 33.8906L114.719 39.4336C108.703 40.5508 102.903 40.7656 95.3832 40.7656H91.6449V23.8359H103.719V18.6367H91.6449V13.1367H110.766ZM159.364 10V24.6523H164.434V30.2812H159.364V49.6602H152.446V10H159.364ZM148.536 13.9531C148.493 26.2422 144.282 36.5547 130.703 43.2148L126.793 37.9727C135.645 33.5039 140.328 27.9395 141.532 19.5391H129.286V13.9531H148.536ZM208.907 10V24.1797H212.043V29.8516H208.907V49.7461H202.118V10H208.907ZM180.805 13.5234V22.1172H181.75V13.5234H187.293V40.8516H175.219V13.5234H180.805ZM180.805 35.3086H181.75V27.4883H180.805V35.3086ZM193.996 13.5234V22.1172H195.114V13.5234H200.7V40.8516H188.539V13.5234H193.996ZM193.996 35.3086H195.114V27.4883H193.996V35.3086ZM249.555 31.1406V36.6406H213.289V31.1406H249.555ZM246.246 43.6875V49.1875H217.715V38.2305H224.547V43.6875H246.246ZM245.344 10.6445V22.418H224.504V24.2227H245.989V29.3359H217.672V17.5625H238.469V15.9297H217.629V10.6445L245.344 10.6445Z" fill="#11DCA9"/>
<path d="M24.8715 11.0312L24.802 21.031C24.8485 21.0313 24.8949 21.0313 24.9414 21.031L24.8715 11.0312ZM14.0004 20.2695L24 20.3502C24.0005 20.2966 24.0005 20.2431 24 20.1895L14.0004 20.2695ZM24.8715 16.5742L25.0469 6.57576C24.9299 6.57371 24.813 6.57371 24.696 6.57576L24.8715 16.5742ZM20.6605 20.2695L30.659 20.4449C30.661 20.329 30.661 20.2131 30.659 20.0971L20.6605 20.2695ZM47.0863 10H57.0863C57.0863 4.47715 52.6091 0 47.0863 0V10ZM47.0863 29.6367V39.6367C52.6091 39.6367 57.0863 35.1596 57.0863 29.6367H47.0863ZM40.1683 29.6367H30.1683C30.1683 35.1596 34.6455 39.6367 40.1683 39.6367V29.6367ZM40.1683 10V0C34.6455 0 30.1683 4.47715 30.1683 10H40.1683ZM47.0863 31.0977H57.0863C57.0863 25.5748 52.6091 21.0977 47.0863 21.0977V31.0977ZM47.0863 42.6562V52.6562C52.6091 52.6562 57.0863 48.1791 57.0863 42.6562H47.0863ZM26.7621 42.6562V32.6562C21.2392 32.6562 16.7621 37.1334 16.7621 42.6562H26.7621ZM26.7621 44.0312H16.7621C16.7621 49.5541 21.2392 54.0312 26.7621 54.0312V44.0312ZM47.9457 44.0312H57.9457C57.9457 38.5084 53.4685 34.0312 47.9457 34.0312V44.0312ZM47.9457 49.4023V59.4023C53.4685 59.4023 57.9457 54.9252 57.9457 49.4023H47.9457ZM20.016 49.4023H10.016C10.016 54.9252 14.4931 59.4023 20.016 59.4023V49.4023ZM20.016 37.7148V27.7148C14.4931 27.7148 10.016 32.192 10.016 37.7148H20.016ZM40.2113 37.7148V47.7148C45.7341 47.7148 50.2113 43.2377 50.2113 37.7148H40.2113ZM40.2113 36.3398H50.2113C50.2113 30.817 45.7341 26.3398 40.2113 26.3398V36.3398ZM19.9301 36.3398H9.93005C9.93005 41.8627 14.4072 46.3398 19.9301 46.3398V36.3398ZM19.9301 31.0977V21.0977C14.4072 21.0977 9.93005 25.5748 9.93005 31.0977H19.9301ZM24.8715 11.0312L24.9414 21.031C25.9042 21.0243 26.2143 21.3252 26.1237 21.2484C26.0746 21.2068 25.9532 21.0839 25.8469 20.8612C25.7356 20.628 25.6996 20.4069 25.6996 20.2695H35.6996H45.6996C45.6996 7.91744 34.9488 0.960535 24.8015 1.03149L24.8715 11.0312ZM35.6996 20.2695H25.6996C25.6996 20.108 25.7415 19.8657 25.861 19.6174C25.975 19.3806 26.1028 19.2545 26.1484 19.2161C26.227 19.1499 25.8833 19.4648 24.8715 19.4648V29.4648V39.4648C34.8596 39.4648 45.6996 32.662 45.6996 20.2695H35.6996ZM24.8715 29.4648V19.4648C23.8164 19.4648 23.4463 19.1369 23.52 19.1986C23.5654 19.2366 23.7027 19.3701 23.8257 19.6263C23.9549 19.8954 24.0015 20.1632 24 20.3502L14.0004 20.2695L4.00069 20.1889C3.89951 32.7355 14.9537 39.4648 24.8715 39.4648V29.4648ZM14.0004 20.2695L24 20.1895C24.0013 20.352 23.9607 20.5985 23.8398 20.8524C23.7246 21.0944 23.5937 21.2247 23.5447 21.266C23.4589 21.3383 23.7956 21.024 24.802 21.031L24.8715 11.0312L24.9409 1.03149C14.8635 0.961509 3.90063 7.84291 4.00068 20.3495L14.0004 20.2695ZM24.8715 16.5742L24.696 6.57576C22.1175 6.62099 18.6083 7.25397 15.5506 9.72192C12.1244 12.4874 10.5938 16.4849 10.662 20.4419L20.6605 20.2695L30.659 20.0971C30.6695 20.7039 30.5702 21.6214 30.116 22.6585C29.6511 23.7198 28.9396 24.6171 28.1122 25.2849C26.5585 26.539 25.1762 26.5704 25.0469 26.5727L24.8715 16.5742ZM20.6605 20.2695L10.6621 20.0941C10.5926 24.0535 12.1363 28.013 15.484 30.7629C18.5357 33.2697 22.0925 33.9648 24.8715 33.9648V23.9648V13.9648C25.2012 13.9648 26.631 14.037 28.1788 15.3084C30.0226 16.8229 30.6855 18.9348 30.659 20.4449L20.6605 20.2695ZM24.8715 23.9648V33.9648C27.6656 33.9648 31.2463 33.2609 34.3032 30.6949C37.6105 27.9187 39.0394 24.0222 39.0394 20.2695H29.0394H19.0394C19.0394 18.966 19.6089 16.9173 21.4446 15.3764C23.0298 14.0457 24.5265 13.9648 24.8715 13.9648V23.9648ZM29.0394 20.2695H39.0394C39.0394 16.5168 37.6214 12.5806 34.2369 9.78899C31.1735 7.26229 27.64 6.62125 25.0469 6.57576L24.8715 16.5742L24.696 26.5727C24.5521 26.5702 23.1026 26.5307 21.5109 25.2178C20.676 24.5292 19.9957 23.6346 19.5579 22.6247C19.1331 21.6451 19.0394 20.799 19.0394 20.2695H29.0394ZM47.0863 10L37.0863 10V29.6367H47.0863H57.0863V10H47.0863ZM47.0863 29.6367V19.6367H40.1683V29.6367V39.6367H47.0863V29.6367ZM40.1683 29.6367H50.1683V10L40.1683 10H30.1683V29.6367H40.1683ZM40.1683 10V20H47.0863V10V0H40.1683V10ZM47.0863 31.0977H37.0863V42.6562H47.0863H57.0863V31.0977H47.0863ZM47.0863 42.6562V32.6562H26.7621V42.6562V52.6562H47.0863V42.6562ZM26.7621 42.6562H16.7621V44.0312H26.7621H36.7621V42.6562H26.7621ZM26.7621 44.0312V54.0312H47.9457V44.0312V34.0312H26.7621V44.0312ZM47.9457 44.0312H37.9457V49.4023H47.9457H57.9457V44.0312H47.9457ZM47.9457 49.4023V39.4023H20.016V49.4023V59.4023H47.9457V49.4023ZM20.016 49.4023H30.016V37.7148H20.016H10.016V49.4023H20.016ZM20.016 37.7148V47.7148H40.2113V37.7148V27.7148H20.016V37.7148ZM40.2113 37.7148H50.2113V36.3398H40.2113H30.2113V37.7148H40.2113ZM40.2113 36.3398V26.3398H19.9301V36.3398V46.3398H40.2113V36.3398ZM19.9301 36.3398H29.9301V31.0977H19.9301H9.93005V36.3398H19.9301ZM19.9301 31.0977V41.0977H47.0863V31.0977V21.0977H19.9301V31.0977ZM85.5863 10H95.5863C95.5863 4.47715 91.1092 0 85.5863 0V10ZM85.5863 49.875V59.875C91.1092 59.875 95.5863 55.3978 95.5863 49.875H85.5863ZM78.6254 49.875H68.6254C68.6254 55.3978 73.1025 59.875 78.6254 59.875V49.875ZM78.6254 30.3242H88.6254C88.6254 24.8014 84.1482 20.3242 78.6254 20.3242V30.3242ZM72.4808 30.3242H62.4808C62.4808 35.8471 66.958 40.3242 72.4808 40.3242V30.3242ZM72.4808 24.8672V14.8672C66.958 14.8672 62.4808 19.3443 62.4808 24.8672H72.4808ZM78.6254 24.8672V34.8672C84.1482 34.8672 88.6254 30.39 88.6254 24.8672H78.6254ZM78.6254 10V0C73.1025 0 68.6254 4.47715 68.6254 10H78.6254ZM76.391 36.7266L84.6056 42.4292C86.3163 39.9649 86.8304 36.8628 86.0059 33.9783C85.1815 31.0939 83.1056 28.732 80.351 27.544L76.391 36.7266ZM72.7816 41.9258L69.0913 51.2199C73.412 52.9355 78.3451 51.4473 80.9962 47.6285L72.7816 41.9258ZM63.8011 32.7734L73.0027 28.8579C71.4098 25.1146 67.708 22.7093 63.6404 22.7747C59.5728 22.8401 55.9502 25.3631 54.4785 29.1557L63.8011 32.7734ZM54.7777 42.5273L46.5097 48.1523C49.1568 52.0433 54.1587 53.562 58.5223 51.7998L54.7777 42.5273ZM51.2113 37.2852L47.2092 28.1209C44.4825 29.3117 42.4277 31.6548 41.603 34.5137C40.7784 37.3725 41.2697 40.4501 42.9433 42.9101L51.2113 37.2852ZM60.3207 22.2031L70.3204 22.2831C70.3206 22.2565 70.3207 22.2298 70.3207 22.2031H60.3207ZM60.3207 21.6875H70.3207C70.3207 16.1647 65.8435 11.6875 60.3207 11.6875V21.6875ZM52.6722 21.6875H42.6722C42.6722 27.2103 47.1494 31.6875 52.6722 31.6875V21.6875ZM52.6722 16.2305V6.23047C47.1494 6.23047 42.6722 10.7076 42.6722 16.2305H52.6722ZM60.3636 16.2305V26.2305C65.8865 26.2305 70.3636 21.7533 70.3636 16.2305H60.3636ZM60.3636 11.0312V1.03125C54.8408 1.03125 50.3636 5.5084 50.3636 11.0312H60.3636ZM67.2386 11.0312H77.2386C77.2386 5.5084 72.7615 1.03125 67.2386 1.03125V11.0312ZM67.2386 16.2305H57.2386C57.2386 21.7533 61.7158 26.2305 67.2386 26.2305V16.2305ZM74.7152 16.2305L84.7152 16.2305C84.7152 10.7076 80.2381 6.23047 74.7152 6.23047V16.2305ZM74.7152 21.6875V31.6875C80.2381 31.6875 84.7152 27.2103 84.7152 21.6875L74.7152 21.6875ZM67.1957 21.6875V11.6875C61.6728 11.6875 57.1957 16.1647 57.1957 21.6875H67.1957ZM85.5863 10H75.5863V49.875H85.5863H95.5863V10H85.5863ZM85.5863 49.875V39.875H78.6254V49.875V59.875H85.5863V49.875ZM78.6254 49.875H88.6254V30.3242H78.6254H68.6254V49.875H78.6254ZM78.6254 30.3242V20.3242L72.4808 20.3242V30.3242V40.3242H78.6254V30.3242ZM72.4808 30.3242H82.4808V24.8672L72.4808 24.8672H62.4808V30.3242H72.4808ZM72.4808 24.8672V34.8672H78.6254V24.8672V14.8672L72.4808 14.8672V24.8672ZM78.6254 24.8672H88.6254V10H78.6254H68.6254V24.8672L78.6254 24.8672ZM78.6254 10V20H85.5863V10V0L78.6254 0V10ZM67.1957 22.2031H57.1957C57.1957 30.0209 60.8066 40.896 72.431 45.9091L76.391 36.7266L80.351 27.544C79.0818 26.9967 78.4135 26.2599 77.9762 25.4654C77.4705 24.5464 77.1957 23.3655 77.1957 22.2031L67.1957 22.2031ZM76.391 36.7266L68.1764 31.0239L64.567 36.2231L72.7816 41.9258L80.9962 47.6285L84.6056 42.4292L76.391 36.7266ZM72.7816 41.9258L76.4719 32.6316C75.0755 32.0771 73.9099 30.9898 73.0027 28.8579L63.8011 32.7734L54.5996 36.689C57.1299 42.6352 61.7221 48.294 69.0913 51.2199L72.7816 41.9258ZM63.8011 32.7734L54.4785 29.1557C53.5136 31.6421 52.2866 32.7487 51.0331 33.2549L54.7777 42.5273L58.5223 51.7998C66.2063 48.6966 70.7371 42.5415 73.1238 36.3912L63.8011 32.7734ZM54.7777 42.5273L63.0457 36.9024L59.4793 31.6602L51.2113 37.2852L42.9433 42.9101L46.5097 48.1523L54.7777 42.5273ZM51.2113 37.2852L55.2134 46.4494C66.994 41.3047 70.2599 29.8419 70.3204 22.2831L60.3207 22.2031L50.321 22.1231C50.3098 23.5278 49.9924 24.9425 49.4296 26.0214C48.9339 26.9717 48.2713 27.6571 47.2092 28.1209L51.2113 37.2852ZM60.3207 22.2031H70.3207V21.6875H60.3207H50.3207V22.2031H60.3207ZM60.3207 21.6875V11.6875H52.6722V21.6875V31.6875H60.3207V21.6875ZM52.6722 21.6875H62.6722V16.2305H52.6722H42.6722V21.6875H52.6722ZM52.6722 16.2305V26.2305H60.3636V16.2305V6.23047H52.6722V16.2305ZM60.3636 16.2305H70.3636V11.0312H60.3636H50.3636V16.2305H60.3636ZM60.3636 11.0312V21.0312H67.2386V11.0312V1.03125L60.3636 1.03125V11.0312ZM67.2386 11.0312H57.2386V16.2305H67.2386L77.2386 16.2305V11.0312H67.2386ZM67.2386 16.2305V26.2305H74.7152V16.2305V6.23047H67.2386V16.2305ZM74.7152 16.2305H64.7152V21.6875H74.7152L84.7152 21.6875V16.2305L74.7152 16.2305ZM74.7152 21.6875V11.6875H67.1957V21.6875V31.6875H74.7152V21.6875ZM67.1957 21.6875H57.1957V22.2031H67.1957L77.1957 22.2031V21.6875L67.1957 21.6875ZM123.227 10H133.227C133.227 4.47715 128.75 0 123.227 0V10ZM123.227 49.875V59.875C128.75 59.875 133.227 55.3978 133.227 49.875H123.227ZM116.352 49.875H106.352C106.352 55.3978 110.829 59.875 116.352 59.875V49.875ZM116.352 10V0C110.829 0 106.352 4.47715 106.352 10L116.352 10ZM110.766 13.1367H120.766C120.766 7.61387 116.289 3.13672 110.766 3.13672V13.1367ZM110.766 29.207V39.207C116.289 39.207 120.766 34.7299 120.766 29.207H110.766ZM98.7777 29.207V19.207C93.2549 19.207 88.7777 23.6842 88.7777 29.207H98.7777ZM98.7777 35.1367H88.7777C88.7777 37.8086 89.8469 40.3693 91.7469 42.2478C93.6469 44.1264 96.2196 45.1664 98.8913 45.1361L98.7777 35.1367ZM114.161 33.8906L124.11 32.888C123.832 30.1315 122.423 27.6137 120.219 25.9351C118.015 24.2565 115.214 23.5675 112.483 24.0324L114.161 33.8906ZM114.719 39.4336L116.545 49.2655C121.658 48.3159 125.19 43.6054 124.669 38.4309L114.719 39.4336ZM91.6449 40.7656H81.6449C81.6449 46.2885 86.122 50.7656 91.6449 50.7656V40.7656ZM91.6449 23.8359V13.8359C86.122 13.8359 81.6449 18.3131 81.6449 23.8359H91.6449ZM103.719 23.8359V33.8359C109.242 33.8359 113.719 29.3588 113.719 23.8359H103.719ZM103.719 18.6367H113.719C113.719 13.1139 109.242 8.63672 103.719 8.63672V18.6367ZM91.6449 18.6367H81.6449C81.6449 24.1596 86.122 28.6367 91.6449 28.6367V18.6367ZM91.6449 13.1367V3.13672C86.122 3.13672 81.6449 7.61387 81.6449 13.1367H91.6449ZM123.227 10H113.227V49.875H123.227H133.227V10H123.227ZM123.227 49.875V39.875H116.352V49.875V59.875H123.227V49.875ZM116.352 49.875H126.352V10H116.352L106.352 10V49.875H116.352ZM116.352 10V20H123.227V10V0L116.352 0V10ZM110.766 13.1367H100.766V29.207H110.766H120.766V13.1367H110.766ZM110.766 29.207V19.207H98.7777V29.207V39.207H110.766V29.207ZM98.7777 29.207H88.7777V35.1367H98.7777H108.778V29.207H98.7777ZM98.7777 35.1367L98.8913 45.1361C104.916 45.0676 110.128 44.7209 115.839 43.7488L114.161 33.8906L112.483 24.0324C108.096 24.7791 103.983 25.0769 98.6641 25.1374L98.7777 35.1367ZM114.161 33.8906L104.211 34.8933L104.77 40.4363L114.719 39.4336L124.669 38.4309L124.11 32.888L114.161 33.8906ZM114.719 39.4336L112.893 29.6017C107.813 30.5451 102.763 30.7656 95.3832 30.7656V40.7656V50.7656C103.042 50.7656 109.594 50.5565 116.545 49.2655L114.719 39.4336ZM95.3832 40.7656V30.7656H91.6449V40.7656V50.7656H95.3832V40.7656ZM91.6449 40.7656H101.645V23.8359H91.6449H81.6449V40.7656H91.6449ZM91.6449 23.8359V33.8359H103.719V23.8359V13.8359H91.6449V23.8359ZM103.719 23.8359H113.719V18.6367H103.719H93.7191V23.8359H103.719ZM103.719 18.6367V8.63672H91.6449V18.6367V28.6367H103.719V18.6367ZM91.6449 18.6367H101.645V13.1367H91.6449H81.6449V18.6367H91.6449ZM91.6449 13.1367V23.1367H110.766V13.1367V3.13672L91.6449 3.13672V13.1367ZM159.364 10H169.364C169.364 4.47715 164.886 0 159.364 0V10ZM159.364 24.6523H149.364C149.364 30.1752 153.841 34.6523 159.364 34.6523V24.6523ZM164.434 24.6523H174.434C174.434 19.1295 169.957 14.6523 164.434 14.6523V24.6523ZM164.434 30.2812V40.2812C169.957 40.2812 174.434 35.8041 174.434 30.2812H164.434ZM159.364 30.2812V20.2812C153.841 20.2812 149.364 24.7584 149.364 30.2812H159.364ZM159.364 49.6602V59.6602C164.886 59.6602 169.364 55.183 169.364 49.6602H159.364ZM152.446 49.6602H142.446C142.446 55.183 146.923 59.6602 152.446 59.6602V49.6602ZM152.446 10V0C146.923 0 142.446 4.47715 142.446 10H152.446ZM148.536 13.9531L158.535 13.9881C158.545 11.3299 157.495 8.77736 155.619 6.89443C153.743 5.0115 151.194 3.95312 148.536 3.95312V13.9531ZM130.703 43.2148L122.688 49.1938C125.566 53.0526 130.785 54.313 135.107 52.193L130.703 43.2148ZM126.793 37.9727L122.287 29.0458C119.65 30.377 117.736 32.8059 117.059 35.6812C116.383 38.5565 117.011 41.5839 118.778 43.9516L126.793 37.9727ZM141.532 19.5391L151.431 20.9568C151.842 18.0866 150.987 15.1792 149.087 12.9884C147.188 10.7976 144.431 9.53906 141.532 9.53906V19.5391ZM129.286 19.5391H119.286C119.286 25.0619 123.763 29.5391 129.286 29.5391V19.5391ZM129.286 13.9531V3.95312C123.763 3.95312 119.286 8.43028 119.286 13.9531H129.286ZM159.364 10H149.364V24.6523H159.364H169.364V10H159.364ZM159.364 24.6523V34.6523H164.434V24.6523V14.6523H159.364V24.6523ZM164.434 24.6523H154.434V30.2812H164.434H174.434V24.6523H164.434ZM164.434 30.2812V20.2812H159.364V30.2812V40.2812H164.434V30.2812ZM159.364 30.2812H149.364V49.6602H159.364H169.364V30.2812H159.364ZM159.364 49.6602V39.6602H152.446V49.6602V59.6602H159.364V49.6602ZM152.446 49.6602H162.446V10H152.446H142.446V49.6602H152.446ZM152.446 10V20H159.364V10V0H152.446V10ZM148.536 13.9531L138.536 13.9182C138.518 18.9688 137.643 22.8059 135.959 25.8287C134.336 28.7423 131.538 31.6673 126.3 34.2367L130.703 43.2148L135.107 52.193C143.447 48.1022 149.544 42.5409 153.431 35.5609C157.258 28.6902 158.51 21.2265 158.535 13.9881L148.536 13.9531ZM130.703 43.2148L138.719 37.2359L134.809 31.9937L126.793 37.9727L118.778 43.9516L122.688 49.1938L130.703 43.2148ZM126.793 37.9727L131.3 46.8995C136.545 44.2517 141.219 40.951 144.804 36.5212C148.475 31.9849 150.599 26.7651 151.431 20.9568L141.532 19.5391L131.633 18.1213C131.261 20.7134 130.442 22.4761 129.257 23.9392C127.987 25.5089 125.893 27.2248 122.287 29.0458L126.793 37.9727ZM141.532 19.5391V9.53906H129.286V19.5391V29.5391L141.532 29.5391V19.5391ZM129.286 19.5391H139.286V13.9531H129.286H119.286V19.5391H129.286ZM129.286 13.9531V23.9531H148.536V13.9531V3.95312H129.286V13.9531ZM208.907 10H218.907C218.907 4.47715 214.429 0 208.907 0V10ZM208.907 24.1797L198.907 24.1797C198.907 29.7025 203.384 34.1797 208.907 34.1797V24.1797ZM212.043 24.1797H222.043C222.043 18.6568 217.566 14.1797 212.043 14.1797V24.1797ZM212.043 29.8516V39.8516C217.566 39.8516 222.043 35.3744 222.043 29.8516H212.043ZM208.907 29.8516V19.8516C203.384 19.8516 198.907 24.3287 198.907 29.8516H208.907ZM208.907 49.7461V59.7461C214.429 59.7461 218.907 55.2689 218.907 49.7461H208.907ZM202.118 49.7461H192.118C192.118 55.2689 196.595 59.7461 202.118 59.7461V49.7461ZM202.118 10V0C196.595 0 192.118 4.47715 192.118 10H202.118ZM180.805 13.5234H190.805C190.805 8.00059 186.328 3.52344 180.805 3.52344V13.5234ZM180.805 22.1172H170.805C170.805 27.64 175.282 32.1172 180.805 32.1172V22.1172ZM181.75 22.1172V32.1172C187.273 32.1172 191.75 27.64 191.75 22.1172H181.75ZM181.75 13.5234V3.52344C176.228 3.52344 171.75 8.00059 171.75 13.5234H181.75ZM187.293 13.5234H197.293C197.293 8.00059 192.816 3.52344 187.293 3.52344V13.5234ZM187.293 40.8516V50.8516C192.816 50.8516 197.293 46.3744 197.293 40.8516H187.293ZM175.219 40.8516H165.219C165.219 46.3744 169.696 50.8516 175.219 50.8516V40.8516ZM175.219 13.5234V3.52344C169.696 3.52344 165.219 8.00059 165.219 13.5234H175.219ZM180.805 35.3086H170.805C170.805 40.8314 175.282 45.3086 180.805 45.3086V35.3086ZM181.75 35.3086V45.3086C187.273 45.3086 191.75 40.8314 191.75 35.3086H181.75ZM181.75 27.4883H191.75C191.75 21.9654 187.273 17.4883 181.75 17.4883V27.4883ZM180.805 27.4883V17.4883C175.282 17.4883 170.805 21.9654 170.805 27.4883H180.805ZM193.996 13.5234H203.996C203.996 8.00059 199.519 3.52344 193.996 3.52344V13.5234ZM193.996 22.1172H183.996C183.996 27.64 188.474 32.1172 193.996 32.1172V22.1172ZM195.114 22.1172V32.1172C200.636 32.1172 205.114 27.64 205.114 22.1172L195.114 22.1172ZM195.114 13.5234V3.52344C189.591 3.52344 185.114 8.00059 185.114 13.5234H195.114ZM200.7 13.5234L210.7 13.5234C210.7 8.00059 206.222 3.52344 200.7 3.52344V13.5234ZM200.7 40.8516V50.8516C206.222 50.8516 210.7 46.3744 210.7 40.8516H200.7ZM188.539 40.8516H178.539C178.539 46.3744 183.017 50.8516 188.539 50.8516V40.8516ZM188.539 13.5234V3.52344C183.017 3.52344 178.539 8.00059 178.539 13.5234H188.539ZM193.996 35.3086H183.996C183.996 40.8314 188.474 45.3086 193.996 45.3086V35.3086ZM195.114 35.3086V45.3086C200.636 45.3086 205.114 40.8314 205.114 35.3086H195.114ZM195.114 27.4883L205.114 27.4883C205.114 21.9654 200.636 17.4883 195.114 17.4883V27.4883ZM193.996 27.4883V17.4883C188.474 17.4883 183.996 21.9654 183.996 27.4883H193.996ZM208.907 10H198.907V24.1797L208.907 24.1797H218.907V10H208.907ZM208.907 24.1797V34.1797H212.043V24.1797V14.1797H208.907V24.1797ZM212.043 24.1797L202.043 24.1797V29.8516H212.043H222.043V24.1797H212.043ZM212.043 29.8516V19.8516H208.907V29.8516V39.8516H212.043V29.8516ZM208.907 29.8516H198.907V49.7461H208.907H218.907V29.8516H208.907ZM208.907 49.7461V39.7461H202.118V49.7461V59.7461H208.907V49.7461ZM202.118 49.7461H212.118V10H202.118H192.118V49.7461H202.118ZM202.118 10V20L208.907 20V10V0H202.118V10ZM180.805 13.5234H170.805V22.1172H180.805H190.805V13.5234H180.805ZM180.805 22.1172V32.1172H181.75V22.1172V12.1172H180.805V22.1172ZM181.75 22.1172H191.75V13.5234H181.75H171.75V22.1172H181.75ZM181.75 13.5234V23.5234H187.293V13.5234V3.52344H181.75V13.5234ZM187.293 13.5234H177.293V40.8516H187.293H197.293V13.5234H187.293ZM187.293 40.8516V30.8516H175.219V40.8516V50.8516H187.293V40.8516ZM175.219 40.8516H185.219V13.5234H175.219H165.219V40.8516H175.219ZM175.219 13.5234V23.5234H180.805V13.5234V3.52344H175.219V13.5234ZM180.805 35.3086V45.3086H181.75V35.3086V25.3086H180.805V35.3086ZM181.75 35.3086H191.75V27.4883H181.75H171.75V35.3086H181.75ZM181.75 27.4883V17.4883H180.805V27.4883V37.4883H181.75V27.4883ZM180.805 27.4883H170.805V35.3086H180.805H190.805V27.4883H180.805ZM193.996 13.5234H183.996V22.1172H193.996H203.996V13.5234H193.996ZM193.996 22.1172V32.1172H195.114V22.1172V12.1172H193.996V22.1172ZM195.114 22.1172L205.114 22.1172V13.5234L195.114 13.5234H185.114V22.1172H195.114ZM195.114 13.5234V23.5234H200.7V13.5234V3.52344H195.114V13.5234ZM200.7 13.5234H190.7V40.8516H200.7H210.7V13.5234L200.7 13.5234ZM200.7 40.8516V30.8516H188.539V40.8516V50.8516H200.7V40.8516ZM188.539 40.8516H198.539V13.5234H188.539H178.539V40.8516H188.539ZM188.539 13.5234V23.5234H193.996V13.5234V3.52344L188.539 3.52344V13.5234ZM193.996 35.3086V45.3086H195.114V35.3086V25.3086H193.996V35.3086ZM195.114 35.3086H205.114V27.4883L195.114 27.4883H185.114V35.3086H195.114ZM195.114 27.4883V17.4883H193.996V27.4883V37.4883H195.114V27.4883ZM193.996 27.4883H183.996V35.3086H193.996H203.996V27.4883H193.996ZM249.555 31.1406H259.555C259.555 25.6178 255.078 21.1406 249.555 21.1406V31.1406ZM249.555 36.6406V46.6406C255.078 46.6406 259.555 42.1635 259.555 36.6406H249.555ZM213.289 36.6406H203.289C203.289 42.1635 207.767 46.6406 213.289 46.6406V36.6406ZM213.289 31.1406V21.1406C207.767 21.1406 203.289 25.6178 203.289 31.1406H213.289ZM246.246 43.6875H256.246C256.246 38.1647 251.769 33.6875 246.246 33.6875V43.6875ZM246.246 49.1875V59.1875C251.769 59.1875 256.246 54.7103 256.246 49.1875H246.246ZM217.715 49.1875H207.715C207.715 54.7103 212.192 59.1875 217.715 59.1875V49.1875ZM217.715 38.2305V28.2305C212.192 28.2305 207.715 32.7076 207.715 38.2305H217.715ZM224.547 38.2305H234.547C234.547 32.7076 230.07 28.2305 224.547 28.2305V38.2305ZM224.547 43.6875H214.547C214.547 49.2103 219.024 53.6875 224.547 53.6875V43.6875ZM245.344 10.6445H255.344C255.344 5.12168 250.867 0.644531 245.344 0.644531V10.6445ZM245.344 22.418V32.418C250.867 32.418 255.344 27.9408 255.344 22.418H245.344ZM224.504 22.418V12.418C218.981 12.418 214.504 16.8951 214.504 22.418H224.504ZM224.504 24.2227H214.504C214.504 29.7455 218.981 34.2227 224.504 34.2227V24.2227ZM245.989 24.2227H255.989C255.989 18.6998 251.511 14.2227 245.989 14.2227V24.2227ZM245.989 29.3359V39.3359C251.511 39.3359 255.989 34.8588 255.989 29.3359H245.989ZM217.672 29.3359H207.672C207.672 34.8588 212.149 39.3359 217.672 39.3359V29.3359ZM217.672 17.5625V7.5625C212.149 7.5625 207.672 12.0397 207.672 17.5625H217.672ZM238.469 17.5625V27.5625C243.992 27.5625 248.469 23.0853 248.469 17.5625H238.469ZM238.469 15.9297H248.469C248.469 10.4068 243.992 5.92969 238.469 5.92969V15.9297ZM217.629 15.9297H207.629C207.629 21.4525 212.106 25.9297 217.629 25.9297V15.9297ZM217.629 10.6445V0.644531C212.106 0.644531 207.629 5.12168 207.629 10.6445H217.629ZM249.555 31.1406H239.555V36.6406H249.555H259.555V31.1406H249.555ZM249.555 36.6406V26.6406H213.289V36.6406V46.6406H249.555V36.6406ZM213.289 36.6406H223.289V31.1406H213.289H203.289V36.6406H213.289ZM213.289 31.1406V41.1406H249.555V31.1406V21.1406H213.289V31.1406ZM246.246 43.6875H236.246V49.1875H246.246H256.246V43.6875H246.246ZM246.246 49.1875V39.1875H217.715V49.1875V59.1875H246.246V49.1875ZM217.715 49.1875H227.715V38.2305H217.715H207.715V49.1875H217.715ZM217.715 38.2305V48.2305H224.547V38.2305V28.2305H217.715V38.2305ZM224.547 38.2305H214.547V43.6875H224.547H234.547V38.2305H224.547ZM224.547 43.6875V53.6875H246.246V43.6875V33.6875H224.547V43.6875ZM245.344 10.6445L235.344 10.6445V22.418H245.344H255.344V10.6445H245.344ZM245.344 22.418V12.418L224.504 12.418V22.418V32.418H245.344V22.418ZM224.504 22.418H214.504V24.2227H224.504H234.504V22.418H224.504ZM224.504 24.2227V34.2227H245.989V24.2227V14.2227H224.504V24.2227ZM245.989 24.2227H235.989V29.3359H245.989H255.989V24.2227H245.989ZM245.989 29.3359V19.3359H217.672V29.3359V39.3359H245.989V29.3359ZM217.672 29.3359H227.672V17.5625H217.672H207.672V29.3359H217.672ZM217.672 17.5625V27.5625H238.469V17.5625V7.5625L217.672 7.5625V17.5625ZM238.469 17.5625H248.469V15.9297H238.469H228.469V17.5625H238.469ZM238.469 15.9297V5.92969L217.629 5.92969V15.9297V25.9297H238.469V15.9297ZM217.629 15.9297H227.629V10.6445H217.629H207.629V15.9297H217.629ZM217.629 10.6445V20.6445H245.344V10.6445V0.644531L217.629 0.644531V10.6445Z" fill="white" mask="url(#path-1-outside-1_3990_1386)"/>
</g>
<defs>
<filter id="filter0_d_3990_1386" x="0" y="0" width="263.555" height="67.875" filterUnits="userSpaceOnUse" color-interpolation-filters="sRGB">
<feFlood flood-opacity="0" result="BackgroundImageFix"/>
<feColorMatrix in="SourceAlpha" type="matrix" values="0 0 0 0 0 0 0 0 0 0 0 0 0 0 0 0 0 0 127 0" result="hardAlpha"/>
<feOffset dy="4"/>
<feGaussianBlur stdDeviation="2"/>
<feComposite in2="hardAlpha" operator="out"/>
<feColorMatrix type="matrix" values="0 0 0 0 0 0 0 0 0 0 0 0 0 0 0 0 0 0 0.07 0"/>
<feBlend mode="normal" in2="BackgroundImageFix" result="effect1_dropShadow_3990_1386"/>
<feBlend mode="normal" in="SourceGraphic" in2="effect1_dropShadow_3990_1386" result="shape"/>
</filter>
</defs>
</svg>
