<svg width="209" height="64" viewBox="0 0 209 64" fill="none" xmlns="http://www.w3.org/2000/svg">
<g filter="url(#filter0_d_4157_1390)">
<mask id="path-1-outside-1_4157_1390" maskUnits="userSpaceOnUse" x="0.361681" y="-1.84292" width="208.179" height="62.9691" fill="black">
<rect fill="white" x="0.361681" y="-1.84292" width="208.179" height="62.9691"/>
<path d="M15.8896 21.7545C20.8941 21.2744 24.9942 24.1219 25.3832 28.4992C25.7691 32.8415 22.2322 36.3323 17.2246 36.7773C12.1819 37.2254 8.04985 34.4161 7.699 30.0707C7.27499 25.6965 10.8438 22.1676 15.8896 21.7545ZM16.291 26.2718C14.2981 26.4842 12.9113 27.5604 13.1268 29.5883C13.2692 31.5875 14.8302 32.4723 16.8262 32.295C18.8223 32.1176 20.1328 30.9776 19.9554 28.9815C19.7749 26.9505 18.2901 26.1295 16.291 26.2718ZM33.9193 19.3052L35.3414 35.3085L29.7035 35.8095L28.2814 19.8062L33.9193 19.3052ZM35.4472 36.4991L36.2843 45.919L19.7207 47.391L19.8203 48.5116L37.0843 46.9774L37.4733 51.3547L14.7114 53.3774L13.865 43.8524L30.3236 42.3898L30.224 41.2693L13.6954 42.7381L13.3157 38.4658L35.4472 36.4991ZM65.2957 16.5169L68.1835 49.0139L62.5105 49.518L61.0946 33.5847L56.087 34.0297L55.6918 29.5824L60.6994 29.1374L59.6227 17.0211L65.2957 16.5169ZM51.1916 27.794C51.5651 31.9962 53.9197 37.0459 59.7374 38.9642L57.1724 43.4628C53.4745 42.362 50.884 39.8216 49.1907 36.6543C48.1377 40.295 46.0545 43.4626 42.5433 45.257L39.2571 41.243C44.5753 38.3351 45.9427 32.6723 45.5887 28.2919L45.5514 27.8717L39.3181 28.4256L38.9229 23.9783L45.1912 23.4212L44.8146 19.184L50.4176 18.6861L50.7941 22.9233L56.8873 22.3819L57.2825 26.8292L51.1543 27.3738L51.1916 27.794ZM95.9717 13.7909L98.8595 46.2879L93.2566 46.7858L90.3687 14.2888L95.9717 13.7909ZM86.0435 17.2497L87.2074 30.3465L77.4373 31.2147L77.8667 36.0473C82.4845 35.584 86.2606 34.9837 90.313 33.9177L91.1697 38.3946C86.348 39.7407 81.6361 40.3359 75.5079 40.8805L72.4614 41.1512L71.2353 27.354L81.0754 26.4796L80.6989 22.2424L70.8587 23.1168L70.4604 18.6345L86.0435 17.2497ZM125.422 11.1738L126.483 23.115L130.615 22.7478L131.023 27.3352L126.891 27.7024L128.294 43.4957L122.656 43.9967L119.784 11.6748L125.422 11.1738ZM116.884 15.1797C117.739 25.198 115.054 33.9074 104.47 40.3186L100.904 36.3295C107.794 32.0466 111.208 27.1725 111.58 20.2393L101.6 21.1262L101.196 16.5738L116.884 15.1797ZM165.798 7.58581L166.825 19.1418L169.381 18.9147L169.792 23.5371L167.236 23.7642L168.677 39.9777L163.144 40.4694L160.265 8.07749L165.798 7.58581ZM143.151 12.4925L143.774 19.4961L144.544 19.4277L143.922 12.424L148.439 12.0226L150.418 34.2942L140.578 35.1686L138.599 12.897L143.151 12.4925ZM144.729 30.2467L145.499 30.1783L144.933 23.805L144.163 23.8734L144.729 30.2467ZM153.902 11.5371L154.524 18.5408L155.435 18.4599L154.812 11.4562L159.365 11.0517L161.344 33.3233L151.434 34.204L149.455 11.9323L153.902 11.5371ZM155.48 29.2914L156.39 29.2105L155.824 22.8372L154.913 22.9181L155.48 29.2914ZM200.456 21.8709L200.855 26.3533L171.299 28.9797L170.901 24.4974L200.456 21.8709ZM198.669 32.3359L199.067 36.8182L175.815 38.8845L175.021 29.9549L180.589 29.4601L180.984 33.9074L198.669 32.3359ZM195.54 5.47221L196.393 15.0672L179.409 16.5765L179.54 18.0472L197.049 16.4913L197.419 20.6585L174.342 22.7092L173.489 13.1142L190.438 11.608L190.32 10.2774L173.336 11.7866L172.953 7.47937L195.54 5.47221Z"/>
</mask>
<path d="M15.8896 21.7545C20.8941 21.2744 24.9942 24.1219 25.3832 28.4992C25.7691 32.8415 22.2322 36.3323 17.2246 36.7773C12.1819 37.2254 8.04985 34.4161 7.699 30.0707C7.27499 25.6965 10.8438 22.1676 15.8896 21.7545ZM16.291 26.2718C14.2981 26.4842 12.9113 27.5604 13.1268 29.5883C13.2692 31.5875 14.8302 32.4723 16.8262 32.295C18.8223 32.1176 20.1328 30.9776 19.9554 28.9815C19.7749 26.9505 18.2901 26.1295 16.291 26.2718ZM33.9193 19.3052L35.3414 35.3085L29.7035 35.8095L28.2814 19.8062L33.9193 19.3052ZM35.4472 36.4991L36.2843 45.919L19.7207 47.391L19.8203 48.5116L37.0843 46.9774L37.4733 51.3547L14.7114 53.3774L13.865 43.8524L30.3236 42.3898L30.224 41.2693L13.6954 42.7381L13.3157 38.4658L35.4472 36.4991ZM65.2957 16.5169L68.1835 49.0139L62.5105 49.518L61.0946 33.5847L56.087 34.0297L55.6918 29.5824L60.6994 29.1374L59.6227 17.0211L65.2957 16.5169ZM51.1916 27.794C51.5651 31.9962 53.9197 37.0459 59.7374 38.9642L57.1724 43.4628C53.4745 42.362 50.884 39.8216 49.1907 36.6543C48.1377 40.295 46.0545 43.4626 42.5433 45.257L39.2571 41.243C44.5753 38.3351 45.9427 32.6723 45.5887 28.2919L45.5514 27.8717L39.3181 28.4256L38.9229 23.9783L45.1912 23.4212L44.8146 19.184L50.4176 18.6861L50.7941 22.9233L56.8873 22.3819L57.2825 26.8292L51.1543 27.3738L51.1916 27.794ZM95.9717 13.7909L98.8595 46.2879L93.2566 46.7858L90.3687 14.2888L95.9717 13.7909ZM86.0435 17.2497L87.2074 30.3465L77.4373 31.2147L77.8667 36.0473C82.4845 35.584 86.2606 34.9837 90.313 33.9177L91.1697 38.3946C86.348 39.7407 81.6361 40.3359 75.5079 40.8805L72.4614 41.1512L71.2353 27.354L81.0754 26.4796L80.6989 22.2424L70.8587 23.1168L70.4604 18.6345L86.0435 17.2497ZM125.422 11.1738L126.483 23.115L130.615 22.7478L131.023 27.3352L126.891 27.7024L128.294 43.4957L122.656 43.9967L119.784 11.6748L125.422 11.1738ZM116.884 15.1797C117.739 25.198 115.054 33.9074 104.47 40.3186L100.904 36.3295C107.794 32.0466 111.208 27.1725 111.58 20.2393L101.6 21.1262L101.196 16.5738L116.884 15.1797ZM165.798 7.58581L166.825 19.1418L169.381 18.9147L169.792 23.5371L167.236 23.7642L168.677 39.9777L163.144 40.4694L160.265 8.07749L165.798 7.58581ZM143.151 12.4925L143.774 19.4961L144.544 19.4277L143.922 12.424L148.439 12.0226L150.418 34.2942L140.578 35.1686L138.599 12.897L143.151 12.4925ZM144.729 30.2467L145.499 30.1783L144.933 23.805L144.163 23.8734L144.729 30.2467ZM153.902 11.5371L154.524 18.5408L155.435 18.4599L154.812 11.4562L159.365 11.0517L161.344 33.3233L151.434 34.204L149.455 11.9323L153.902 11.5371ZM155.48 29.2914L156.39 29.2105L155.824 22.8372L154.913 22.9181L155.48 29.2914ZM200.456 21.8709L200.855 26.3533L171.299 28.9797L170.901 24.4974L200.456 21.8709ZM198.669 32.3359L199.067 36.8182L175.815 38.8845L175.021 29.9549L180.589 29.4601L180.984 33.9074L198.669 32.3359ZM195.54 5.47221L196.393 15.0672L179.409 16.5765L179.54 18.0472L197.049 16.4913L197.419 20.6585L174.342 22.7092L173.489 13.1142L190.438 11.608L190.32 10.2774L173.336 11.7866L172.953 7.47937L195.54 5.47221Z" fill="#11DCA9"/>
<path d="M15.8896 21.7545L16.336 27.2079C16.3614 27.2058 16.3867 27.2036 16.412 27.2012L15.8896 21.7545ZM7.699 30.0707L13.1529 29.6303C13.1506 29.6011 13.148 29.5719 13.1452 29.5428L7.699 30.0707ZM16.291 26.2718L15.9023 20.8139C15.8385 20.8185 15.7748 20.8241 15.7111 20.8309L16.291 26.2718ZM13.1268 29.5883L18.5847 29.1997C18.5802 29.1364 18.5746 29.0732 18.5679 29.0101L13.1268 29.5883ZM33.9193 19.3052L39.3695 18.8208C39.102 15.8108 36.4451 13.5875 33.435 13.855L33.9193 19.3052ZM35.3414 35.3085L35.8258 40.7587C38.8358 40.4912 41.0592 37.8343 40.7917 34.8242L35.3414 35.3085ZM29.7035 35.8095L24.2533 36.2939C24.5208 39.3039 27.1778 41.5272 30.1878 41.2598L29.7035 35.8095ZM28.2814 19.8062L27.797 14.356C24.787 14.6235 22.5637 17.2804 22.8312 20.2905L28.2814 19.8062ZM35.4472 36.4991L40.8975 36.0148C40.63 33.0047 37.973 30.7814 34.9629 31.0489L35.4472 36.4991ZM36.2843 45.919L36.7687 51.3693C39.7788 51.1018 42.0021 48.4448 41.7346 45.4347L36.2843 45.919ZM19.7207 47.391L19.2364 41.9407C16.2263 42.2082 14.003 44.8652 14.2705 47.8753L19.7207 47.391ZM19.8203 48.5116L14.3701 48.9959C14.6376 52.006 17.2946 54.2293 20.3046 53.9618L19.8203 48.5116ZM37.0843 46.9774L42.5345 46.4931C42.267 43.483 39.61 41.2597 36.6 41.5272L37.0843 46.9774ZM37.4733 51.3547L37.9576 56.8049C40.9677 56.5374 43.191 53.8804 42.9235 50.8703L37.4733 51.3547ZM14.7114 53.3774L9.26119 53.8617C9.52868 56.8718 12.1857 59.0951 15.1957 58.8276L14.7114 53.3774ZM13.865 43.8524L13.3806 38.4022C10.3706 38.6697 8.14727 41.3267 8.41476 44.3368L13.865 43.8524ZM30.3236 42.3898L30.8079 47.8401C33.818 47.5726 36.0413 44.9156 35.7738 41.9055L30.3236 42.3898ZM30.224 41.2693L35.6742 40.7849C35.4067 37.7749 32.7497 35.5516 29.7396 35.819L30.224 41.2693ZM13.6954 42.7381L8.24514 43.2224C8.51263 46.2325 11.1696 48.4558 14.1797 48.1883L13.6954 42.7381ZM13.3157 38.4658L12.8314 33.0156C9.82131 33.2831 7.598 35.9401 7.86549 38.9502L13.3157 38.4658ZM15.8896 21.7545L16.412 27.2012C17.7653 27.0714 18.7028 27.4164 19.2125 27.7761C19.6741 28.1018 19.8889 28.4869 19.933 28.9835L25.3832 28.4992L30.8334 28.0149C30.1063 19.8328 22.5518 15.6186 15.3671 16.3078L15.8896 21.7545ZM25.3832 28.4992L19.933 28.9835C19.9739 29.4434 19.8449 29.8406 19.4453 30.2428C19.0007 30.6902 18.121 31.2044 16.7402 31.3271L17.2246 36.7773L17.7089 42.2275C24.8114 41.5964 31.5615 36.2073 30.8334 28.0149L25.3832 28.4992ZM17.2246 36.7773L16.7402 31.3271C15.33 31.4524 14.3527 31.096 13.8304 30.7321C13.3649 30.4078 13.1874 30.0565 13.1529 29.6303L7.699 30.0707L2.24505 30.5111C2.91379 38.7935 10.6332 42.8563 17.7089 42.2275L17.2246 36.7773ZM7.699 30.0707L13.1452 29.5428C13.1003 29.0801 13.2281 28.6832 13.6262 28.2822C14.0698 27.8353 14.9515 27.3213 16.336 27.2079L15.8896 21.7545L15.4431 16.301C8.27594 16.8878 1.45211 22.3382 2.25283 30.5986L7.699 30.0707ZM16.291 26.2718L15.7111 20.8309C13.9779 21.0156 11.8161 21.6373 10.0807 23.3124C8.15883 25.1674 7.42124 27.6773 7.68577 30.1666L13.1268 29.5883L18.5679 29.0101C18.5851 29.1724 18.5908 29.529 18.4368 29.9873C18.2782 30.4593 18.0052 30.873 17.6808 31.1861C17.0832 31.763 16.6111 31.7404 16.8709 31.7127L16.291 26.2718ZM13.1268 29.5883L7.66895 29.977C7.84644 32.4694 9.02062 34.7915 11.1962 36.2768C13.1986 37.6439 15.4654 37.9091 17.3106 37.7452L16.8262 32.295L16.3419 26.8447C16.191 26.8581 16.6793 26.7696 17.3666 27.2389C17.7294 27.4866 18.0558 27.8352 18.2852 28.2546C18.5095 28.6649 18.5715 29.0144 18.5847 29.1997L13.1268 29.5883ZM16.8262 32.295L17.3106 37.7452C19.164 37.5805 21.3553 36.9143 23.0809 35.1833C24.9329 33.3256 25.6167 30.8731 25.4056 28.4972L19.9554 28.9815L14.5052 29.4659C14.4926 29.3244 14.4911 29.0092 14.6271 28.5982C14.7673 28.1741 15.0125 27.7765 15.3308 27.4572C15.9465 26.8395 16.4845 26.8321 16.3419 26.8447L16.8262 32.295ZM19.9554 28.9815L25.4056 28.4972C25.194 26.1155 24.0926 23.8027 21.8995 22.2989C19.8944 20.924 17.649 20.6896 15.9023 20.8139L16.291 26.2718L16.6796 31.7297C16.9322 31.7117 16.4287 31.8166 15.7109 31.3244C15.329 31.0625 15.0027 30.7035 14.78 30.2937C14.5659 29.8997 14.5159 29.5863 14.5052 29.4659L19.9554 28.9815ZM33.9193 19.3052L28.4691 19.7895L29.8912 35.7928L35.3414 35.3085L40.7917 34.8242L39.3695 18.8208L33.9193 19.3052ZM35.3414 35.3085L34.8571 29.8583L29.2192 30.3593L29.7035 35.8095L30.1878 41.2598L35.8258 40.7587L35.3414 35.3085ZM29.7035 35.8095L35.1537 35.3252L33.7316 19.3219L28.2814 19.8062L22.8312 20.2905L24.2533 36.2939L29.7035 35.8095ZM28.2814 19.8062L28.7657 25.2564L34.4036 24.7554L33.9193 19.3052L33.435 13.855L27.797 14.356L28.2814 19.8062ZM35.4472 36.4991L29.997 36.9835L30.8341 46.4034L36.2843 45.919L41.7346 45.4347L40.8975 36.0148L35.4472 36.4991ZM36.2843 45.919L35.8 40.4688L19.2364 41.9407L19.7207 47.391L20.205 52.8412L36.7687 51.3693L36.2843 45.919ZM19.7207 47.391L14.2705 47.8753L14.3701 48.9959L19.8203 48.5116L25.2705 48.0272L25.1709 46.9066L19.7207 47.391ZM19.8203 48.5116L20.3046 53.9618L37.5686 52.4276L37.0843 46.9774L36.6 41.5272L19.336 43.0613L19.8203 48.5116ZM37.0843 46.9774L31.6341 47.4617L32.0231 51.839L37.4733 51.3547L42.9235 50.8703L42.5345 46.4931L37.0843 46.9774ZM37.4733 51.3547L36.9889 45.9045L14.2271 47.9272L14.7114 53.3774L15.1957 58.8276L37.9576 56.8049L37.4733 51.3547ZM14.7114 53.3774L20.1616 52.8931L19.3152 43.3681L13.865 43.8524L8.41476 44.3368L9.26119 53.8617L14.7114 53.3774ZM13.865 43.8524L14.3493 49.3027L30.8079 47.8401L30.3236 42.3898L29.8392 36.9396L13.3806 38.4022L13.865 43.8524ZM30.3236 42.3898L35.7738 41.9055L35.6742 40.7849L30.224 41.2693L24.7738 41.7536L24.8733 42.8742L30.3236 42.3898ZM30.224 41.2693L29.7396 35.819L13.211 37.2879L13.6954 42.7381L14.1797 48.1883L30.7083 46.7195L30.224 41.2693ZM13.6954 42.7381L19.1456 42.2537L18.7659 37.9815L13.3157 38.4658L7.86549 38.9502L8.24514 43.2224L13.6954 42.7381ZM13.3157 38.4658L13.8 43.9161L35.9316 41.9494L35.4472 36.4991L34.9629 31.0489L12.8314 33.0156L13.3157 38.4658ZM65.2957 16.5169L70.7459 16.0326C70.4784 13.0225 67.8214 10.7992 64.8113 11.0667L65.2957 16.5169ZM68.1835 49.0139L68.6678 54.4641C71.6779 54.1966 73.9012 51.5396 73.6337 48.5295L68.1835 49.0139ZM62.5105 49.518L57.0603 50.0023C57.3278 53.0124 59.9848 55.2357 62.9949 54.9682L62.5105 49.518ZM61.0946 33.5847L66.5449 33.1004C66.2774 30.0903 63.6204 27.867 60.6103 28.1345L61.0946 33.5847ZM56.087 34.0297L50.6368 34.514C50.9043 37.5241 53.5613 39.7474 56.5714 39.4799L56.087 34.0297ZM55.6918 29.5824L55.2075 24.1321C52.1974 24.3996 49.9741 27.0566 50.2416 30.0667L55.6918 29.5824ZM60.6994 29.1374L61.1838 34.5876C64.1938 34.3201 66.4171 31.6631 66.1496 28.653L60.6994 29.1374ZM59.6227 17.0211L59.1384 11.5708C56.1283 11.8383 53.905 14.4953 54.1725 17.5054L59.6227 17.0211ZM59.7374 38.9642L64.4907 41.6745C65.3037 40.2485 65.4337 38.5328 64.8446 37.0007C64.2556 35.4686 63.0098 34.2818 61.4509 33.7678L59.7374 38.9642ZM57.1724 43.4628L55.6112 48.7071C58.0492 49.4328 60.6657 48.3828 61.9257 46.1731L57.1724 43.4628ZM49.1907 36.6543L54.0161 34.0746C52.9667 32.1116 50.8326 30.9799 48.6188 31.2126C46.4051 31.4452 44.5529 32.9958 43.9344 35.1341L49.1907 36.6543ZM42.5433 45.257L38.3095 48.7231C39.9407 50.7156 42.7403 51.3011 45.0333 50.1293L42.5433 45.257ZM39.2571 41.243L36.632 36.4422C35.2036 37.2232 34.1971 38.5998 33.8862 40.1979C33.5752 41.7959 33.992 43.4495 35.0233 44.7092L39.2571 41.243ZM45.5887 28.2919L51.0426 27.8512C51.0415 27.8366 51.0402 27.8221 51.0389 27.8076L45.5887 28.2919ZM45.5514 27.8717L51.0016 27.3873C50.7341 24.3773 48.0771 22.154 45.067 22.4215L45.5514 27.8717ZM39.3181 28.4256L33.8679 28.9099C34.1354 31.92 36.7924 34.1433 39.8025 33.8758L39.3181 28.4256ZM38.9229 23.9783L38.4386 18.5281C35.4285 18.7955 33.2052 21.4525 33.4727 24.4626L38.9229 23.9783ZM45.1912 23.4212L45.6755 28.8715C48.6856 28.604 50.9089 25.947 50.6414 22.9369L45.1912 23.4212ZM44.8146 19.184L44.3303 13.7338C41.3202 14.0013 39.0969 16.6583 39.3644 19.6684L44.8146 19.184ZM50.4176 18.6861L55.8678 18.2018C55.6003 15.1917 52.9433 12.9684 49.9332 13.2359L50.4176 18.6861ZM50.7941 22.9233L45.3439 23.4077C45.6114 26.4178 48.2684 28.6411 51.2784 28.3736L50.7941 22.9233ZM56.8873 22.3819L62.3375 21.8975C62.07 18.8875 59.413 16.6642 56.4029 16.9317L56.8873 22.3819ZM57.2825 26.8292L57.7668 32.2794C60.7769 32.0119 63.0002 29.3549 62.7327 26.3449L57.2825 26.8292ZM51.1543 27.3738L50.67 21.9236C47.6599 22.191 45.4366 24.848 45.7041 27.8581L51.1543 27.3738ZM65.2957 16.5169L59.8454 17.0013L62.7333 49.4982L68.1835 49.0139L73.6337 48.5295L70.7459 16.0326L65.2957 16.5169ZM68.1835 49.0139L67.6992 43.5636L62.0262 44.0678L62.5105 49.518L62.9949 54.9682L68.6678 54.4641L68.1835 49.0139ZM62.5105 49.518L67.9608 49.0337L66.5449 33.1004L61.0946 33.5847L55.6444 34.069L57.0603 50.0023L62.5105 49.518ZM61.0946 33.5847L60.6103 28.1345L55.6027 28.5795L56.087 34.0297L56.5714 39.4799L61.579 39.0349L61.0946 33.5847ZM56.087 34.0297L61.5372 33.5454L61.142 29.098L55.6918 29.5824L50.2416 30.0667L50.6368 34.514L56.087 34.0297ZM55.6918 29.5824L56.1761 35.0326L61.1838 34.5876L60.6994 29.1374L60.2151 23.6871L55.2075 24.1321L55.6918 29.5824ZM60.6994 29.1374L66.1496 28.653L65.0729 16.5367L59.6227 17.0211L54.1725 17.5054L55.2492 29.6217L60.6994 29.1374ZM59.6227 17.0211L60.107 22.4713L65.78 21.9671L65.2957 16.5169L64.8113 11.0667L59.1384 11.5708L59.6227 17.0211ZM51.1916 27.794L45.7414 28.2783C46.2437 33.9311 49.5184 41.3561 58.0238 44.1607L59.7374 38.9642L61.4509 33.7678C58.321 32.7357 56.8864 30.0613 56.6419 27.3097L51.1916 27.794ZM59.7374 38.9642L54.984 36.254L52.419 40.7526L57.1724 43.4628L61.9257 46.1731L64.4907 41.6745L59.7374 38.9642ZM57.1724 43.4628L58.7335 38.2186C56.7207 37.6194 55.1747 36.2417 54.0161 34.0746L49.1907 36.6543L44.3653 39.234C46.5932 43.4014 50.2282 47.1046 55.6112 48.7071L57.1724 43.4628ZM49.1907 36.6543L43.9344 35.1341C43.1802 37.7419 41.875 39.4537 40.0533 40.3847L42.5433 45.257L45.0333 50.1293C50.234 47.4715 53.0953 42.8481 54.447 38.1746L49.1907 36.6543ZM42.5433 45.257L46.7771 41.7908L43.4909 37.7769L39.2571 41.243L35.0233 44.7092L38.3095 48.7231L42.5433 45.257ZM39.2571 41.243L41.8822 46.0439C49.8153 41.7061 51.493 33.4248 51.0426 27.8512L45.5887 28.2919L40.1348 28.7326C40.3923 31.9198 39.3353 34.964 36.632 36.4422L39.2571 41.243ZM45.5887 28.2919L51.0389 27.8076L51.0016 27.3873L45.5514 27.8717L40.1011 28.356L40.1385 28.7762L45.5887 28.2919ZM45.5514 27.8717L45.067 22.4215L38.8338 22.9754L39.3181 28.4256L39.8025 33.8758L46.0357 33.3219L45.5514 27.8717ZM39.3181 28.4256L44.7683 27.9413L44.3731 23.4939L38.9229 23.9783L33.4727 24.4626L33.8679 28.9099L39.3181 28.4256ZM38.9229 23.9783L39.4072 29.4285L45.6755 28.8715L45.1912 23.4212L44.7068 17.971L38.4386 18.5281L38.9229 23.9783ZM45.1912 23.4212L50.6414 22.9369L50.2649 18.6997L44.8146 19.184L39.3644 19.6684L39.741 23.9056L45.1912 23.4212ZM44.8146 19.184L45.299 24.6343L50.9019 24.1364L50.4176 18.6861L49.9332 13.2359L44.3303 13.7338L44.8146 19.184ZM50.4176 18.6861L44.9673 19.1705L45.3439 23.4077L50.7941 22.9233L56.2443 22.439L55.8678 18.2018L50.4176 18.6861ZM50.7941 22.9233L51.2784 28.3736L57.3716 27.8321L56.8873 22.3819L56.4029 16.9317L50.3098 17.4731L50.7941 22.9233ZM56.8873 22.3819L51.4371 22.8662L51.8323 27.3135L57.2825 26.8292L62.7327 26.3449L62.3375 21.8975L56.8873 22.3819ZM57.2825 26.8292L56.7981 21.379L50.67 21.9236L51.1543 27.3738L51.6386 32.824L57.7668 32.2794L57.2825 26.8292ZM51.1543 27.3738L45.7041 27.8581L45.7414 28.2783L51.1916 27.794L56.6419 27.3097L56.6045 26.8894L51.1543 27.3738ZM95.9717 13.7909L101.422 13.3066C101.154 10.2965 98.4974 8.0732 95.4873 8.34069L95.9717 13.7909ZM98.8595 46.2879L99.3438 51.7381C102.354 51.4706 104.577 48.8136 104.31 45.8035L98.8595 46.2879ZM93.2566 46.7858L87.8063 47.2701C88.0738 50.2802 90.7308 52.5035 93.7409 52.236L93.2566 46.7858ZM90.3687 14.2888L89.8844 8.83859C86.8743 9.10608 84.651 11.7631 84.9185 14.7731L90.3687 14.2888ZM86.0435 17.2497L91.4937 16.7654C91.2263 13.7553 88.5693 11.532 85.5592 11.7995L86.0435 17.2497ZM87.2074 30.3465L87.6917 35.7967C90.7018 35.5292 92.9251 32.8723 92.6576 29.8622L87.2074 30.3465ZM77.4373 31.2147L76.953 25.7645C73.9429 26.032 71.7196 28.689 71.9871 31.6991L77.4373 31.2147ZM77.8667 36.0473L72.4165 36.5316C72.5459 37.9878 73.2527 39.3317 74.3792 40.2635C75.5057 41.1953 76.9583 41.6376 78.413 41.4916L77.8667 36.0473ZM90.313 33.9177L95.6872 32.8893C95.4023 31.4004 94.5125 30.0964 93.2299 29.2883C91.9474 28.4802 90.387 28.2403 88.921 28.626L90.313 33.9177ZM91.1697 38.3946L92.641 43.6647C95.3819 42.8995 97.0787 40.1612 96.5439 37.3662L91.1697 38.3946ZM72.4614 41.1512L67.0111 41.6355C67.2786 44.6456 69.9356 46.8689 72.9457 46.6014L72.4614 41.1512ZM71.2353 27.354L70.7509 21.9038C67.7409 22.1713 65.5176 24.8283 65.785 27.8384L71.2353 27.354ZM81.0754 26.4796L81.5597 31.9298C84.5698 31.6623 86.7931 29.0053 86.5256 25.9953L81.0754 26.4796ZM80.6989 22.2424L86.1491 21.758C85.8816 18.748 83.2246 16.5247 80.2145 16.7922L80.6989 22.2424ZM70.8587 23.1168L65.4085 23.6011C65.676 26.6112 68.333 28.8345 71.3431 28.567L70.8587 23.1168ZM70.4604 18.6345L69.9761 13.1843C66.966 13.4518 64.7427 16.1087 65.0102 19.1188L70.4604 18.6345ZM95.9717 13.7909L90.5214 14.2752L93.4093 46.7722L98.8595 46.2879L104.31 45.8035L101.422 13.3066L95.9717 13.7909ZM98.8595 46.2879L98.3752 40.8376L92.7722 41.3355L93.2566 46.7858L93.7409 52.236L99.3438 51.7381L98.8595 46.2879ZM93.2566 46.7858L98.7068 46.3014L95.819 13.8045L90.3687 14.2888L84.9185 14.7731L87.8063 47.2701L93.2566 46.7858ZM90.3687 14.2888L90.8531 19.739L96.456 19.2411L95.9717 13.7909L95.4873 8.34069L89.8844 8.83859L90.3687 14.2888ZM86.0435 17.2497L80.5933 17.734L81.7572 30.8308L87.2074 30.3465L92.6576 29.8622L91.4937 16.7654L86.0435 17.2497ZM87.2074 30.3465L86.723 24.8963L76.953 25.7645L77.4373 31.2147L77.9216 36.665L87.6917 35.7967L87.2074 30.3465ZM77.4373 31.2147L71.9871 31.6991L72.4165 36.5316L77.8667 36.0473L83.3169 35.5629L82.8875 30.7304L77.4373 31.2147ZM77.8667 36.0473L78.413 41.4916C83.223 41.009 87.2973 40.3688 91.705 39.2093L90.313 33.9177L88.921 28.626C85.2239 29.5985 81.7459 30.1589 77.3205 30.6029L77.8667 36.0473ZM90.313 33.9177L84.9388 34.946L85.7955 39.4229L91.1697 38.3946L96.5439 37.3662L95.6872 32.8893L90.313 33.9177ZM91.1697 38.3946L89.6983 33.1244C85.3783 34.3305 81.0759 34.8924 75.0236 35.4303L75.5079 40.8805L75.9923 46.3307C82.1963 45.7794 87.3178 45.1509 92.641 43.6647L91.1697 38.3946ZM75.5079 40.8805L75.0236 35.4303L71.977 35.701L72.4614 41.1512L72.9457 46.6014L75.9923 46.3307L75.5079 40.8805ZM72.4614 41.1512L77.9116 40.6669L76.6855 26.8697L71.2353 27.354L65.785 27.8384L67.0111 41.6355L72.4614 41.1512ZM71.2353 27.354L71.7196 32.8042L81.5597 31.9298L81.0754 26.4796L80.5911 21.0294L70.7509 21.9038L71.2353 27.354ZM81.0754 26.4796L86.5256 25.9953L86.1491 21.758L80.6989 22.2424L75.2486 22.7267L75.6252 26.9639L81.0754 26.4796ZM80.6989 22.2424L80.2145 16.7922L70.3744 17.6666L70.8587 23.1168L71.3431 28.567L81.1832 27.6926L80.6989 22.2424ZM70.8587 23.1168L76.3089 22.6325L75.9106 18.1501L70.4604 18.6345L65.0102 19.1188L65.4085 23.6011L70.8587 23.1168ZM70.4604 18.6345L70.9447 24.0847L86.5279 22.6999L86.0435 17.2497L85.5592 11.7995L69.9761 13.1843L70.4604 18.6345ZM125.422 11.1738L130.872 10.6895C130.605 7.67941 127.948 5.45611 124.938 5.7236L125.422 11.1738ZM126.483 23.115L121.033 23.5994C121.3 26.6094 123.957 28.8327 126.967 28.5653L126.483 23.115ZM130.615 22.7478L136.066 22.2635C135.798 19.2534 133.141 17.0301 130.131 17.2976L130.615 22.7478ZM131.023 27.3352L131.507 32.7854C134.517 32.518 136.741 29.861 136.473 26.8509L131.023 27.3352ZM126.891 27.7024L126.406 22.2522C123.396 22.5197 121.173 25.1767 121.441 28.1868L126.891 27.7024ZM128.294 43.4957L128.779 48.9459C131.789 48.6784 134.012 46.0214 133.744 43.0113L128.294 43.4957ZM122.656 43.9967L117.206 44.481C117.474 47.4911 120.131 49.7144 123.141 49.4469L122.656 43.9967ZM119.784 11.6748L119.3 6.22461C116.29 6.4921 114.066 9.14909 114.334 12.1592L119.784 11.6748ZM116.884 15.1797L122.336 14.7144C122.212 13.2652 121.516 11.9248 120.402 10.9895C119.289 10.0541 117.848 9.60072 116.399 9.72947L116.884 15.1797ZM104.47 40.3186L100.391 43.9654C102.147 45.9292 105.052 46.3633 107.305 44.9985L104.47 40.3186ZM100.904 36.3295L98.0154 31.6824C96.6427 32.5357 95.7175 33.9522 95.4878 35.5521C95.2582 37.1519 95.7476 38.7715 96.8248 39.9764L100.904 36.3295ZM111.58 20.2393L117.044 20.5326C117.129 18.9483 116.522 17.4051 115.381 16.3031C114.24 15.2011 112.676 14.6486 111.096 14.7891L111.58 20.2393ZM101.6 21.1262L96.1499 21.6105C96.4173 24.6206 99.0743 26.8439 102.084 26.5764L101.6 21.1262ZM101.196 16.5738L100.711 11.1236C97.7011 11.3911 95.4778 14.0481 95.7453 17.0581L101.196 16.5738ZM125.422 11.1738L119.972 11.6581L121.033 23.5994L126.483 23.115L131.933 22.6307L130.872 10.6895L125.422 11.1738ZM126.483 23.115L126.967 28.5653L131.1 28.1981L130.615 22.7478L130.131 17.2976L125.999 17.6648L126.483 23.115ZM130.615 22.7478L125.165 23.2322L125.573 27.8196L131.023 27.3352L136.473 26.8509L136.066 22.2635L130.615 22.7478ZM131.023 27.3352L130.539 21.885L126.406 22.2522L126.891 27.7024L127.375 33.1527L131.507 32.7854L131.023 27.3352ZM126.891 27.7024L121.441 28.1868L122.844 43.98L128.294 43.4957L133.744 43.0113L132.341 27.2181L126.891 27.7024ZM128.294 43.4957L127.81 38.0454L122.172 38.5465L122.656 43.9967L123.141 49.4469L128.779 48.9459L128.294 43.4957ZM122.656 43.9967L128.107 43.5123L125.234 11.1905L119.784 11.6748L114.334 12.1592L117.206 44.481L122.656 43.9967ZM119.784 11.6748L120.268 17.1251L125.906 16.624L125.422 11.1738L124.938 5.7236L119.3 6.22461L119.784 11.6748ZM116.884 15.1797L111.432 15.645C111.808 20.0577 111.366 23.7423 109.969 26.8728C108.601 29.9409 106.119 32.9226 101.635 35.6386L104.47 40.3186L107.305 44.9985C113.405 41.3033 117.557 36.7248 119.964 31.3308C122.342 25.9993 122.814 20.32 122.336 14.7144L116.884 15.1797ZM104.47 40.3186L108.549 36.6717L104.983 32.6826L100.904 36.3295L96.8248 39.9764L100.391 43.9654L104.47 40.3186ZM100.904 36.3295L103.793 40.9766C107.664 38.5701 110.905 35.7865 113.228 32.3305C115.592 28.8123 116.81 24.8868 117.044 20.5326L111.58 20.2393L106.116 19.946C105.978 22.525 105.303 24.5032 104.145 26.226C102.945 28.0111 101.034 29.806 98.0154 31.6824L100.904 36.3295ZM111.58 20.2393L111.096 14.7891L101.116 15.676L101.6 21.1262L102.084 26.5764L112.065 25.6895L111.58 20.2393ZM101.6 21.1262L107.05 20.6419L106.646 16.0895L101.196 16.5738L95.7453 17.0581L96.1499 21.6105L101.6 21.1262ZM101.196 16.5738L101.68 22.024L117.368 20.6299L116.884 15.1797L116.399 9.72947L100.711 11.1236L101.196 16.5738ZM165.798 7.58581L171.248 7.10148C170.981 4.09141 168.324 1.8681 165.314 2.13559L165.798 7.58581ZM166.825 19.1418L161.375 19.6262C161.642 22.6362 164.299 24.8595 167.309 24.5921L166.825 19.1418ZM169.381 18.9147L174.832 18.4303C174.564 15.4203 171.907 13.197 168.897 13.4644L169.381 18.9147ZM169.792 23.5371L170.276 28.9873C173.286 28.7198 175.51 26.0628 175.242 23.0527L169.792 23.5371ZM167.236 23.7642L166.751 18.314C163.741 18.5815 161.518 21.2385 161.786 24.2486L167.236 23.7642ZM168.677 39.9777L169.161 45.4279C172.171 45.1604 174.394 42.5034 174.127 39.4934L168.677 39.9777ZM163.144 40.4694L157.693 40.9537C157.961 43.9638 160.618 46.1871 163.628 45.9196L163.144 40.4694ZM160.265 8.07749L159.781 2.62727C156.771 2.89476 154.547 5.55175 154.815 8.56182L160.265 8.07749ZM143.151 12.4925L148.602 12.0081C148.334 8.99808 145.677 6.77477 142.667 7.04226L143.151 12.4925ZM143.774 19.4961L138.323 19.9805C138.591 22.9905 141.248 25.2138 144.258 24.9464L143.774 19.4961ZM144.544 19.4277L145.028 24.8779C148.038 24.6104 150.262 21.9534 149.994 18.9433L144.544 19.4277ZM143.922 12.424L143.437 6.9738C140.427 7.24129 138.204 9.89828 138.471 12.9084L143.922 12.424ZM148.439 12.0226L153.889 11.5383C153.622 8.52818 150.965 6.30488 147.955 6.57237L148.439 12.0226ZM150.418 34.2942L150.903 39.7444C153.913 39.4769 156.136 36.8199 155.868 33.8099L150.418 34.2942ZM140.578 35.1686L135.128 35.653C135.395 38.663 138.052 40.8863 141.062 40.6189L140.578 35.1686ZM138.599 12.897L138.115 7.44681C135.105 7.7143 132.881 10.3713 133.149 13.3814L138.599 12.897ZM144.729 30.2467L139.279 30.7311C139.546 33.7411 142.203 35.9644 145.213 35.697L144.729 30.2467ZM145.499 30.1783L145.984 35.6285C148.994 35.361 151.217 32.704 150.95 29.6939L145.499 30.1783ZM144.933 23.805L150.383 23.3206C150.116 20.3105 147.459 18.0872 144.449 18.3547L144.933 23.805ZM144.163 23.8734L143.678 18.4232C140.668 18.6907 138.445 21.3477 138.712 24.3577L144.163 23.8734ZM153.902 11.5371L159.352 11.0528C159.085 8.04273 156.428 5.81942 153.418 6.08691L153.902 11.5371ZM154.524 18.5408L149.074 19.0251C149.342 22.0352 151.999 24.2585 155.009 23.991L154.524 18.5408ZM155.435 18.4599L155.919 23.9101C158.929 23.6426 161.152 20.9856 160.885 17.9755L155.435 18.4599ZM154.812 11.4562L154.328 6.006C151.318 6.27349 149.095 8.93048 149.362 11.9406L154.812 11.4562ZM159.365 11.0517L164.815 10.5673C164.547 7.55727 161.89 5.33397 158.88 5.60146L159.365 11.0517ZM161.344 33.3233L161.828 38.7735C164.838 38.506 167.062 35.849 166.794 32.839L161.344 33.3233ZM151.434 34.204L145.984 34.6883C146.251 37.6984 148.908 39.9217 151.918 39.6542L151.434 34.204ZM149.455 11.9323L148.97 6.48212C145.96 6.74961 143.737 9.4066 144.004 12.4167L149.455 11.9323ZM155.48 29.2914L150.029 29.7757C150.297 32.7858 152.954 35.0091 155.964 34.7416L155.48 29.2914ZM156.39 29.2105L156.874 34.6607C159.885 34.3932 162.108 31.7362 161.84 28.7261L156.39 29.2105ZM155.824 22.8372L161.274 22.3528C161.006 19.3428 158.349 17.1194 155.339 17.3869L155.824 22.8372ZM154.913 22.9181L154.429 17.4678C151.419 17.7353 149.196 20.3923 149.463 23.4024L154.913 22.9181ZM165.798 7.58581L160.348 8.07014L161.375 19.6262L166.825 19.1418L172.275 18.6575L171.248 7.10148L165.798 7.58581ZM166.825 19.1418L167.309 24.5921L169.866 24.3649L169.381 18.9147L168.897 13.4644L166.341 13.6916L166.825 19.1418ZM169.381 18.9147L163.931 19.399L164.342 24.0214L169.792 23.5371L175.242 23.0527L174.832 18.4303L169.381 18.9147ZM169.792 23.5371L169.308 18.0869L166.751 18.314L167.236 23.7642L167.72 29.2145L170.276 28.9873L169.792 23.5371ZM167.236 23.7642L161.786 24.2486L163.226 40.462L168.677 39.9777L174.127 39.4934L172.686 23.2799L167.236 23.7642ZM168.677 39.9777L168.192 34.5275L162.659 35.0192L163.144 40.4694L163.628 45.9196L169.161 45.4279L168.677 39.9777ZM163.144 40.4694L168.594 39.985L165.715 7.59316L160.265 8.07749L154.815 8.56182L157.693 40.9537L163.144 40.4694ZM160.265 8.07749L160.749 13.5277L166.282 13.036L165.798 7.58581L165.314 2.13559L159.781 2.62727L160.265 8.07749ZM143.151 12.4925L137.701 12.9768L138.323 19.9805L143.774 19.4961L149.224 19.0118L148.602 12.0081L143.151 12.4925ZM143.774 19.4961L144.258 24.9464L145.028 24.8779L144.544 19.4277L144.06 13.9775L143.289 14.0459L143.774 19.4961ZM144.544 19.4277L149.994 18.9433L149.372 11.9397L143.922 12.424L138.471 12.9084L139.094 19.912L144.544 19.4277ZM143.922 12.424L144.406 17.8742L148.923 17.4728L148.439 12.0226L147.955 6.57237L143.437 6.9738L143.922 12.424ZM148.439 12.0226L142.989 12.5069L144.968 34.7785L150.418 34.2942L155.868 33.8099L153.889 11.5383L148.439 12.0226ZM150.418 34.2942L149.934 28.844L140.094 29.7184L140.578 35.1686L141.062 40.6189L150.903 39.7444L150.418 34.2942ZM140.578 35.1686L146.028 34.6843L144.049 12.4127L138.599 12.897L133.149 13.3814L135.128 35.653L140.578 35.1686ZM138.599 12.897L139.083 18.3472L143.636 17.9427L143.151 12.4925L142.667 7.04226L138.115 7.44681L138.599 12.897ZM144.729 30.2467L145.213 35.697L145.984 35.6285L145.499 30.1783L145.015 24.7281L144.245 24.7965L144.729 30.2467ZM145.499 30.1783L150.95 29.6939L150.383 23.3206L144.933 23.805L139.483 24.2893L140.049 30.6626L145.499 30.1783ZM144.933 23.805L144.449 18.3547L143.678 18.4232L144.163 23.8734L144.647 29.3236L145.417 29.2552L144.933 23.805ZM144.163 23.8734L138.712 24.3577L139.279 30.7311L144.729 30.2467L150.179 29.7624L149.613 23.3891L144.163 23.8734ZM153.902 11.5371L148.452 12.0215L149.074 19.0251L154.524 18.5408L159.974 18.0565L159.352 11.0528L153.902 11.5371ZM154.524 18.5408L155.009 23.991L155.919 23.9101L155.435 18.4599L154.95 13.0097L154.04 13.0906L154.524 18.5408ZM155.435 18.4599L160.885 17.9755L160.263 10.9719L154.812 11.4562L149.362 11.9406L149.985 18.9442L155.435 18.4599ZM154.812 11.4562L155.297 16.9064L159.849 16.5019L159.365 11.0517L158.88 5.60146L154.328 6.006L154.812 11.4562ZM159.365 11.0517L153.915 11.536L155.894 33.8076L161.344 33.3233L166.794 32.839L164.815 10.5673L159.365 11.0517ZM161.344 33.3233L160.86 27.8731L150.949 28.7537L151.434 34.204L151.918 39.6542L161.828 38.7735L161.344 33.3233ZM151.434 34.204L156.884 33.7196L154.905 11.448L149.455 11.9323L144.004 12.4167L145.984 34.6883L151.434 34.204ZM149.455 11.9323L149.939 17.3826L154.386 16.9874L153.902 11.5371L153.418 6.08691L148.97 6.48212L149.455 11.9323ZM155.48 29.2914L155.964 34.7416L156.874 34.6607L156.39 29.2105L155.906 23.7603L154.995 23.8412L155.48 29.2914ZM156.39 29.2105L161.84 28.7261L161.274 22.3528L155.824 22.8372L150.374 23.3215L150.94 29.6948L156.39 29.2105ZM155.824 22.8372L155.339 17.3869L154.429 17.4678L154.913 22.9181L155.398 28.3683L156.308 28.2874L155.824 22.8372ZM154.913 22.9181L149.463 23.4024L150.029 29.7757L155.48 29.2914L160.93 28.8071L160.363 22.4337L154.913 22.9181ZM200.456 21.8709L205.907 21.3866C205.639 18.3765 202.982 16.1532 199.972 16.4207L200.456 21.8709ZM200.855 26.3533L201.339 31.8035C204.349 31.536 206.572 28.879 206.305 25.869L200.855 26.3533ZM171.299 28.9797L165.849 29.464C166.117 32.4741 168.774 34.6974 171.784 34.4299L171.299 28.9797ZM170.901 24.4974L170.417 19.0472C167.407 19.3146 165.183 21.9716 165.451 24.9817L170.901 24.4974ZM198.669 32.3359L204.119 31.8516C203.851 28.8415 201.194 26.6182 198.184 26.8857L198.669 32.3359ZM199.067 36.8182L199.551 42.2684C202.561 42.001 204.785 39.344 204.517 36.3339L199.067 36.8182ZM175.815 38.8845L170.365 39.3689C170.632 42.3789 173.289 44.6022 176.299 44.3347L175.815 38.8845ZM175.021 29.9549L174.537 24.5046C171.527 24.7721 169.304 27.4291 169.571 30.4392L175.021 29.9549ZM180.589 29.4601L186.039 28.9757C185.772 25.9657 183.115 23.7424 180.105 24.0099L180.589 29.4601ZM180.984 33.9074L175.534 34.3917C175.802 37.4018 178.459 39.6251 181.469 39.3576L180.984 33.9074ZM195.54 5.47221L200.99 4.98787C200.723 1.9778 198.066 -0.245505 195.056 0.0219851L195.54 5.47221ZM196.393 15.0672L196.877 20.5174C199.887 20.2499 202.111 17.5929 201.843 14.5829L196.393 15.0672ZM179.409 16.5765L178.925 11.1263C175.915 11.3937 173.691 14.0507 173.959 17.0608L179.409 16.5765ZM179.54 18.0472L174.089 18.5316C174.357 21.5416 177.014 23.7649 180.024 23.4975L179.54 18.0472ZM197.049 16.4913L202.499 16.007C202.232 12.9969 199.575 10.7736 196.565 11.0411L197.049 16.4913ZM197.419 20.6585L197.903 26.1087C200.914 25.8412 203.137 23.1842 202.869 20.1741L197.419 20.6585ZM174.342 22.7092L168.892 23.1935C169.159 26.2036 171.816 28.4269 174.826 28.1594L174.342 22.7092ZM173.489 13.1142L173.005 7.66398C169.995 7.93147 167.772 10.5885 168.039 13.5985L173.489 13.1142ZM190.438 11.608L190.923 17.0583C193.933 16.7908 196.156 14.1338 195.889 11.1237L190.438 11.608ZM190.32 10.2774L195.77 9.79302C195.503 6.78295 192.846 4.55964 189.836 4.82713L190.32 10.2774ZM173.336 11.7866L167.886 12.2709C168.153 15.281 170.81 17.5043 173.821 17.2368L173.336 11.7866ZM172.953 7.47937L172.469 2.02915C169.459 2.29664 167.236 4.95363 167.503 7.9637L172.953 7.47937ZM200.456 21.8709L195.006 22.3553L195.404 26.8376L200.855 26.3533L206.305 25.869L205.907 21.3866L200.456 21.8709ZM200.855 26.3533L200.37 20.9031L170.815 23.5295L171.299 28.9797L171.784 34.4299L201.339 31.8035L200.855 26.3533ZM171.299 28.9797L176.749 28.4954L176.351 24.013L170.901 24.4974L165.451 24.9817L165.849 29.464L171.299 28.9797ZM170.901 24.4974L171.385 29.9476L200.941 27.3212L200.456 21.8709L199.972 16.4207L170.417 19.0472L170.901 24.4974ZM198.669 32.3359L193.218 32.8202L193.617 37.3026L199.067 36.8182L204.517 36.3339L204.119 31.8516L198.669 32.3359ZM199.067 36.8182L198.583 31.368L175.331 33.4343L175.815 38.8845L176.299 44.3347L199.551 42.2684L199.067 36.8182ZM175.815 38.8845L181.265 38.4002L180.472 29.4705L175.021 29.9549L169.571 30.4392L170.365 39.3689L175.815 38.8845ZM175.021 29.9549L175.506 35.4051L181.074 34.9103L180.589 29.4601L180.105 24.0099L174.537 24.5046L175.021 29.9549ZM180.589 29.4601L175.139 29.9444L175.534 34.3917L180.984 33.9074L186.435 33.4231L186.039 28.9757L180.589 29.4601ZM180.984 33.9074L181.469 39.3576L199.153 37.7861L198.669 32.3359L198.184 26.8857L180.5 28.4572L180.984 33.9074ZM195.54 5.47221L190.09 5.95654L190.943 15.5515L196.393 15.0672L201.843 14.5829L200.99 4.98787L195.54 5.47221ZM196.393 15.0672L195.909 9.61699L178.925 11.1263L179.409 16.5765L179.893 22.0267L196.877 20.5174L196.393 15.0672ZM179.409 16.5765L173.959 17.0608L174.089 18.5316L179.54 18.0472L184.99 17.5629L184.859 16.0921L179.409 16.5765ZM179.54 18.0472L180.024 23.4975L197.533 21.9415L197.049 16.4913L196.565 11.0411L179.055 12.597L179.54 18.0472ZM197.049 16.4913L191.599 16.9756L191.969 21.1428L197.419 20.6585L202.869 20.1741L202.499 16.007L197.049 16.4913ZM197.419 20.6585L196.935 15.2082L173.858 17.259L174.342 22.7092L174.826 28.1594L197.903 26.1087L197.419 20.6585ZM174.342 22.7092L179.792 22.2249L178.94 12.6299L173.489 13.1142L168.039 13.5985L168.892 23.1935L174.342 22.7092ZM173.489 13.1142L173.974 18.5644L190.923 17.0583L190.438 11.608L189.954 6.15783L173.005 7.66398L173.489 13.1142ZM190.438 11.608L195.889 11.1237L195.77 9.79302L190.32 10.2774L184.87 10.7617L184.988 12.0924L190.438 11.608ZM190.32 10.2774L189.836 4.82713L172.852 6.3364L173.336 11.7866L173.821 17.2368L190.804 15.7276L190.32 10.2774ZM173.336 11.7866L178.786 11.3023L178.404 6.99504L172.953 7.47937L167.503 7.9637L167.886 12.2709L173.336 11.7866ZM172.953 7.47937L173.438 12.9296L196.025 10.9224L195.54 5.47221L195.056 0.0219851L172.469 2.02915L172.953 7.47937Z" fill="white" mask="url(#path-1-outside-1_4157_1390)"/>
</g>
<defs>
<filter id="filter0_d_4157_1390" x="-1.95503e-05" y="0" width="208.515" height="63.227" filterUnits="userSpaceOnUse" color-interpolation-filters="sRGB">
<feFlood flood-opacity="0" result="BackgroundImageFix"/>
<feColorMatrix in="SourceAlpha" type="matrix" values="0 0 0 0 0 0 0 0 0 0 0 0 0 0 0 0 0 0 127 0" result="hardAlpha"/>
<feOffset dy="2.18868"/>
<feGaussianBlur stdDeviation="1.09434"/>
<feComposite in2="hardAlpha" operator="out"/>
<feColorMatrix type="matrix" values="0 0 0 0 0 0 0 0 0 0 0 0 0 0 0 0 0 0 0.07 0"/>
<feBlend mode="normal" in2="BackgroundImageFix" result="effect1_dropShadow_4157_1390"/>
<feBlend mode="normal" in="SourceGraphic" in2="effect1_dropShadow_4157_1390" result="shape"/>
</filter>
</defs>
</svg>
