<svg width="340" height="68" viewBox="0 0 340 68" fill="none" xmlns="http://www.w3.org/2000/svg">
<g filter="url(#filter0_d_3990_1491)">
<mask id="path-1-outside-1_3990_1491" maskUnits="userSpaceOnUse" x="3.66833" y="-0.507813" width="332" height="61" fill="black">
<rect fill="white" x="3.66833" y="-0.507813" width="332" height="61"/>
<path d="M24.8715 11.0312C31.016 10.9883 35.6996 14.8984 35.6996 20.2695C35.6996 25.5977 31.016 29.4648 24.8715 29.4648C18.684 29.4648 13.9574 25.5977 14.0004 20.2695C13.9574 14.8984 18.684 10.9883 24.8715 11.0312ZM24.8715 16.5742C22.4222 16.6172 20.6176 17.7773 20.6605 20.2695C20.6176 22.7188 22.4222 23.9648 24.8715 23.9648C27.3207 23.9648 29.0394 22.7188 29.0394 20.2695C29.0394 17.7773 27.3207 16.6172 24.8715 16.5742ZM47.0863 10V29.6367H40.1683V10L47.0863 10ZM47.0863 31.0977V42.6562H26.7621V44.0312H47.9457V49.4023H20.016V37.7148H40.2113V36.3398H19.9301V31.0977H47.0863ZM85.4144 10V33.5898H78.5394V24.8242L73.5551 24.8242V19.2812L78.5394 19.2812V10H85.4144ZM71.5785 34.2344C80.2152 34.2344 85.5004 37.1133 85.5004 42.0547C85.5004 46.9531 80.2152 49.875 71.5785 49.875C63.0277 49.875 57.7426 46.9531 57.7426 42.0547C57.7426 37.1133 63.0277 34.2344 71.5785 34.2344ZM71.5785 39.4336C66.8519 39.4336 64.5746 40.1641 64.6176 42.0547C64.5746 43.9023 66.8519 44.6758 71.5785 44.6758C76.348 44.6758 78.6683 43.9023 78.6683 42.0547C78.6683 40.1641 76.348 39.4336 71.5785 39.4336ZM74.6293 12.1055V17.6055H67.4535C67.8617 21.5801 70.182 25.5762 76.0472 27.4883L72.7386 32.8594C68.4847 31.5488 65.6703 28.9707 63.9301 25.7695C62.2113 29.4219 59.225 32.3652 54.6488 33.8477L51.0824 28.3906C57.4203 26.3711 59.8051 21.8594 60.2347 17.6055H53.016V12.1055H74.6293ZM122.582 11.5469V16.918H112.828C113.666 19.3242 116.782 21.9883 124.602 22.7617L122.11 28.1758C114.225 27.4023 109.692 24.459 107.672 20.6992C105.631 24.4375 101.162 27.4023 93.3207 28.1758L90.8715 22.7617C98.6703 21.9883 101.743 19.3027 102.645 16.918H92.934V11.5469L122.582 11.5469ZM125.891 29.3789V34.8359H111.754V40.8516H104.922V34.8359H89.6254V29.3789H125.891ZM121.938 43.6875V49.1875H93.5785V37.5859H100.453V43.6875H121.938ZM149.438 12.75C149.438 16.875 152.618 22.2461 162.93 23.4922L160.266 28.9922C153.069 28.0469 148.342 25.0391 145.786 21.0859C143.207 25.0176 138.545 28.0469 131.434 28.9922L128.77 23.4922C138.996 22.2461 142.176 16.7891 142.176 12.75V11.0312H149.438V12.75ZM163.918 31.1406V36.7266H149.051V49.7461H142.219V36.7266L127.653 36.7266V31.1406L163.918 31.1406ZM197.391 10V24.6523H202.461V30.2812H197.391V49.6602H190.473V10H197.391ZM186.563 13.9531C186.52 26.2422 182.309 36.5547 168.731 43.2148L164.821 37.9727C173.672 33.5039 178.356 27.9395 179.559 19.5391H167.313V13.9531H186.563ZM224.032 12.6641C230.219 12.6211 234.774 18.207 234.774 26.9727C234.774 35.8672 230.219 41.4102 224.032 41.4102C217.801 41.4102 213.203 35.8672 213.246 26.9727C213.203 18.207 217.801 12.6211 224.032 12.6641ZM224.032 18.8945C221.539 18.8516 219.907 21.4727 219.95 26.9727C219.907 32.5586 221.539 35.0937 224.032 35.0937C226.567 35.0937 228.157 32.5586 228.2 26.9727C228.157 21.4727 226.567 18.8516 224.032 18.8945ZM245 10V24.4375H250.371V30.1523H245V49.7461H238.082V10H245ZM268.032 13.4375C267.989 17.3477 270.094 21.0859 277.098 22.5469L274.047 27.918C269.342 26.8652 266.27 24.6523 264.465 21.6875C262.639 24.9316 259.502 27.4238 254.668 28.5625L251.489 23.2344C258.621 21.6875 260.813 17.4766 260.813 13.4375V11.5898H268.032V13.4375ZM285.262 10.0859V49.7031H278.387V10.0859H285.262ZM251.532 30.3672C258.407 30.4102 268.118 30.3242 276.325 29.1211L276.797 34.0195C273.875 34.6211 270.868 35.0508 267.903 35.3086V48.5859H260.985V35.7812C257.87 35.8887 254.926 35.9102 252.348 35.9102L251.532 30.3672ZM325.61 28.8633V34.2344H311.301V40.3789H304.297V34.2344H289.344V28.8633H325.61ZM321.657 43.6875V49.1875H293.383V37.1133H300.344V43.6875H321.657ZM307.477 10.6445C316.157 10.6445 322.043 13.9102 322.043 19.0664C322.043 24.1797 316.157 27.4023 307.477 27.4023C298.711 27.4023 292.825 24.1797 292.825 19.0664C292.825 13.9102 298.711 10.6445 307.477 10.6445ZM307.477 16.0156C303.008 16.0156 300.258 16.918 300.301 19.0664C300.258 21.043 303.008 21.9023 307.477 21.9453C311.903 21.9023 314.61 21.043 314.61 19.0664C314.61 16.918 311.903 16.0156 307.477 16.0156Z"/>
</mask>
<path d="M24.8715 11.0312C31.016 10.9883 35.6996 14.8984 35.6996 20.2695C35.6996 25.5977 31.016 29.4648 24.8715 29.4648C18.684 29.4648 13.9574 25.5977 14.0004 20.2695C13.9574 14.8984 18.684 10.9883 24.8715 11.0312ZM24.8715 16.5742C22.4222 16.6172 20.6176 17.7773 20.6605 20.2695C20.6176 22.7188 22.4222 23.9648 24.8715 23.9648C27.3207 23.9648 29.0394 22.7188 29.0394 20.2695C29.0394 17.7773 27.3207 16.6172 24.8715 16.5742ZM47.0863 10V29.6367H40.1683V10L47.0863 10ZM47.0863 31.0977V42.6562H26.7621V44.0312H47.9457V49.4023H20.016V37.7148H40.2113V36.3398H19.9301V31.0977H47.0863ZM85.4144 10V33.5898H78.5394V24.8242L73.5551 24.8242V19.2812L78.5394 19.2812V10H85.4144ZM71.5785 34.2344C80.2152 34.2344 85.5004 37.1133 85.5004 42.0547C85.5004 46.9531 80.2152 49.875 71.5785 49.875C63.0277 49.875 57.7426 46.9531 57.7426 42.0547C57.7426 37.1133 63.0277 34.2344 71.5785 34.2344ZM71.5785 39.4336C66.8519 39.4336 64.5746 40.1641 64.6176 42.0547C64.5746 43.9023 66.8519 44.6758 71.5785 44.6758C76.348 44.6758 78.6683 43.9023 78.6683 42.0547C78.6683 40.1641 76.348 39.4336 71.5785 39.4336ZM74.6293 12.1055V17.6055H67.4535C67.8617 21.5801 70.182 25.5762 76.0472 27.4883L72.7386 32.8594C68.4847 31.5488 65.6703 28.9707 63.9301 25.7695C62.2113 29.4219 59.225 32.3652 54.6488 33.8477L51.0824 28.3906C57.4203 26.3711 59.8051 21.8594 60.2347 17.6055H53.016V12.1055H74.6293ZM122.582 11.5469V16.918H112.828C113.666 19.3242 116.782 21.9883 124.602 22.7617L122.11 28.1758C114.225 27.4023 109.692 24.459 107.672 20.6992C105.631 24.4375 101.162 27.4023 93.3207 28.1758L90.8715 22.7617C98.6703 21.9883 101.743 19.3027 102.645 16.918H92.934V11.5469L122.582 11.5469ZM125.891 29.3789V34.8359H111.754V40.8516H104.922V34.8359H89.6254V29.3789H125.891ZM121.938 43.6875V49.1875H93.5785V37.5859H100.453V43.6875H121.938ZM149.438 12.75C149.438 16.875 152.618 22.2461 162.93 23.4922L160.266 28.9922C153.069 28.0469 148.342 25.0391 145.786 21.0859C143.207 25.0176 138.545 28.0469 131.434 28.9922L128.77 23.4922C138.996 22.2461 142.176 16.7891 142.176 12.75V11.0312H149.438V12.75ZM163.918 31.1406V36.7266H149.051V49.7461H142.219V36.7266L127.653 36.7266V31.1406L163.918 31.1406ZM197.391 10V24.6523H202.461V30.2812H197.391V49.6602H190.473V10H197.391ZM186.563 13.9531C186.52 26.2422 182.309 36.5547 168.731 43.2148L164.821 37.9727C173.672 33.5039 178.356 27.9395 179.559 19.5391H167.313V13.9531H186.563ZM224.032 12.6641C230.219 12.6211 234.774 18.207 234.774 26.9727C234.774 35.8672 230.219 41.4102 224.032 41.4102C217.801 41.4102 213.203 35.8672 213.246 26.9727C213.203 18.207 217.801 12.6211 224.032 12.6641ZM224.032 18.8945C221.539 18.8516 219.907 21.4727 219.95 26.9727C219.907 32.5586 221.539 35.0937 224.032 35.0937C226.567 35.0937 228.157 32.5586 228.2 26.9727C228.157 21.4727 226.567 18.8516 224.032 18.8945ZM245 10V24.4375H250.371V30.1523H245V49.7461H238.082V10H245ZM268.032 13.4375C267.989 17.3477 270.094 21.0859 277.098 22.5469L274.047 27.918C269.342 26.8652 266.27 24.6523 264.465 21.6875C262.639 24.9316 259.502 27.4238 254.668 28.5625L251.489 23.2344C258.621 21.6875 260.813 17.4766 260.813 13.4375V11.5898H268.032V13.4375ZM285.262 10.0859V49.7031H278.387V10.0859H285.262ZM251.532 30.3672C258.407 30.4102 268.118 30.3242 276.325 29.1211L276.797 34.0195C273.875 34.6211 270.868 35.0508 267.903 35.3086V48.5859H260.985V35.7812C257.87 35.8887 254.926 35.9102 252.348 35.9102L251.532 30.3672ZM325.61 28.8633V34.2344H311.301V40.3789H304.297V34.2344H289.344V28.8633H325.61ZM321.657 43.6875V49.1875H293.383V37.1133H300.344V43.6875H321.657ZM307.477 10.6445C316.157 10.6445 322.043 13.9102 322.043 19.0664C322.043 24.1797 316.157 27.4023 307.477 27.4023C298.711 27.4023 292.825 24.1797 292.825 19.0664C292.825 13.9102 298.711 10.6445 307.477 10.6445ZM307.477 16.0156C303.008 16.0156 300.258 16.918 300.301 19.0664C300.258 21.043 303.008 21.9023 307.477 21.9453C311.903 21.9023 314.61 21.043 314.61 19.0664C314.61 16.918 311.903 16.0156 307.477 16.0156Z" fill="#11DCA9"/>
<path d="M24.8715 11.0312L24.802 21.031C24.8485 21.0313 24.8949 21.0313 24.9414 21.031L24.8715 11.0312ZM14.0004 20.2695L24 20.3502C24.0005 20.2966 24.0005 20.2431 24 20.1895L14.0004 20.2695ZM24.8715 16.5742L25.0469 6.57576C24.9299 6.57371 24.813 6.57371 24.696 6.57576L24.8715 16.5742ZM20.6605 20.2695L30.659 20.4449C30.661 20.329 30.661 20.2131 30.659 20.0971L20.6605 20.2695ZM47.0863 10H57.0863C57.0863 4.47715 52.6091 0 47.0863 0V10ZM47.0863 29.6367V39.6367C52.6091 39.6367 57.0863 35.1596 57.0863 29.6367H47.0863ZM40.1683 29.6367H30.1683C30.1683 35.1596 34.6455 39.6367 40.1683 39.6367V29.6367ZM40.1683 10V0C34.6455 0 30.1683 4.47715 30.1683 10H40.1683ZM47.0863 31.0977H57.0863C57.0863 25.5748 52.6091 21.0977 47.0863 21.0977V31.0977ZM47.0863 42.6562V52.6562C52.6091 52.6562 57.0863 48.1791 57.0863 42.6562H47.0863ZM26.7621 42.6562V32.6562C21.2392 32.6562 16.7621 37.1334 16.7621 42.6562H26.7621ZM26.7621 44.0312H16.7621C16.7621 49.5541 21.2392 54.0312 26.7621 54.0312V44.0312ZM47.9457 44.0312H57.9457C57.9457 38.5084 53.4685 34.0312 47.9457 34.0312V44.0312ZM47.9457 49.4023V59.4023C53.4685 59.4023 57.9457 54.9252 57.9457 49.4023H47.9457ZM20.016 49.4023H10.016C10.016 54.9252 14.4931 59.4023 20.016 59.4023V49.4023ZM20.016 37.7148V27.7148C14.4931 27.7148 10.016 32.192 10.016 37.7148H20.016ZM40.2113 37.7148V47.7148C45.7341 47.7148 50.2113 43.2377 50.2113 37.7148H40.2113ZM40.2113 36.3398H50.2113C50.2113 30.817 45.7341 26.3398 40.2113 26.3398V36.3398ZM19.9301 36.3398H9.93005C9.93005 41.8627 14.4072 46.3398 19.9301 46.3398V36.3398ZM19.9301 31.0977V21.0977C14.4072 21.0977 9.93005 25.5748 9.93005 31.0977H19.9301ZM24.8715 11.0312L24.9414 21.031C25.9042 21.0243 26.2143 21.3252 26.1237 21.2484C26.0746 21.2068 25.9532 21.0839 25.8469 20.8612C25.7356 20.628 25.6996 20.4069 25.6996 20.2695H35.6996H45.6996C45.6996 7.91744 34.9488 0.960535 24.8015 1.03149L24.8715 11.0312ZM35.6996 20.2695H25.6996C25.6996 20.108 25.7415 19.8657 25.861 19.6174C25.975 19.3806 26.1028 19.2545 26.1484 19.2161C26.227 19.1499 25.8833 19.4648 24.8715 19.4648V29.4648V39.4648C34.8596 39.4648 45.6996 32.662 45.6996 20.2695H35.6996ZM24.8715 29.4648V19.4648C23.8164 19.4648 23.4463 19.1369 23.52 19.1986C23.5654 19.2366 23.7027 19.3701 23.8257 19.6263C23.9549 19.8954 24.0015 20.1632 24 20.3502L14.0004 20.2695L4.00069 20.1889C3.89951 32.7355 14.9537 39.4648 24.8715 39.4648V29.4648ZM14.0004 20.2695L24 20.1895C24.0013 20.352 23.9607 20.5985 23.8398 20.8524C23.7246 21.0944 23.5937 21.2247 23.5447 21.266C23.4589 21.3383 23.7956 21.024 24.802 21.031L24.8715 11.0312L24.9409 1.03149C14.8635 0.961509 3.90063 7.84291 4.00069 20.3495L14.0004 20.2695ZM24.8715 16.5742L24.696 6.57576C22.1175 6.62099 18.6083 7.25397 15.5506 9.72192C12.1244 12.4874 10.5938 16.4849 10.662 20.4419L20.6605 20.2695L30.659 20.0971C30.6695 20.7039 30.5702 21.6214 30.116 22.6585C29.6511 23.7198 28.9396 24.6171 28.1122 25.2849C26.5585 26.539 25.1762 26.5704 25.0469 26.5727L24.8715 16.5742ZM20.6605 20.2695L10.6621 20.0941C10.5926 24.0535 12.1363 28.013 15.484 30.7629C18.5357 33.2697 22.0925 33.9648 24.8715 33.9648V23.9648V13.9648C25.2012 13.9648 26.631 14.037 28.1788 15.3084C30.0226 16.8229 30.6855 18.9348 30.659 20.4449L20.6605 20.2695ZM24.8715 23.9648V33.9648C27.6656 33.9648 31.2463 33.2609 34.3032 30.6949C37.6105 27.9187 39.0394 24.0222 39.0394 20.2695H29.0394H19.0394C19.0394 18.966 19.6089 16.9173 21.4446 15.3764C23.0298 14.0457 24.5265 13.9648 24.8715 13.9648V23.9648ZM29.0394 20.2695H39.0394C39.0394 16.5168 37.6214 12.5806 34.2369 9.78899C31.1735 7.26229 27.64 6.62125 25.0469 6.57576L24.8715 16.5742L24.696 26.5727C24.5521 26.5702 23.1026 26.5307 21.5109 25.2178C20.676 24.5292 19.9957 23.6346 19.5579 22.6247C19.1331 21.6451 19.0394 20.799 19.0394 20.2695H29.0394ZM47.0863 10L37.0863 10V29.6367H47.0863H57.0863V10H47.0863ZM47.0863 29.6367V19.6367H40.1683V29.6367V39.6367H47.0863V29.6367ZM40.1683 29.6367H50.1683V10L40.1683 10H30.1683V29.6367H40.1683ZM40.1683 10V20H47.0863V10V0H40.1683V10ZM47.0863 31.0977H37.0863V42.6562H47.0863H57.0863V31.0977H47.0863ZM47.0863 42.6562V32.6562H26.7621V42.6562V52.6562H47.0863V42.6562ZM26.7621 42.6562H16.7621V44.0312H26.7621H36.7621V42.6562H26.7621ZM26.7621 44.0312V54.0312H47.9457V44.0312V34.0312H26.7621V44.0312ZM47.9457 44.0312H37.9457V49.4023H47.9457H57.9457V44.0312H47.9457ZM47.9457 49.4023V39.4023H20.016V49.4023V59.4023H47.9457V49.4023ZM20.016 49.4023H30.016V37.7148H20.016H10.016V49.4023H20.016ZM20.016 37.7148V47.7148H40.2113V37.7148V27.7148H20.016V37.7148ZM40.2113 37.7148H50.2113V36.3398H40.2113H30.2113V37.7148H40.2113ZM40.2113 36.3398V26.3398H19.9301V36.3398V46.3398H40.2113V36.3398ZM19.9301 36.3398H29.9301V31.0977H19.9301H9.93005V36.3398H19.9301ZM19.9301 31.0977V41.0977H47.0863V31.0977V21.0977H19.9301V31.0977ZM85.4144 10H95.4144C95.4144 4.47715 90.9373 0 85.4144 0V10ZM85.4144 33.5898V43.5898C90.9373 43.5898 95.4144 39.1127 95.4144 33.5898H85.4144ZM78.5394 33.5898H68.5394C68.5394 39.1127 73.0166 43.5898 78.5394 43.5898V33.5898ZM78.5394 24.8242H88.5394C88.5394 19.3014 84.0623 14.8242 78.5394 14.8242V24.8242ZM73.5551 24.8242H63.5551C63.5551 30.3471 68.0322 34.8242 73.5551 34.8242V24.8242ZM73.5551 19.2812V9.28125C68.0322 9.28125 63.5551 13.7584 63.5551 19.2812H73.5551ZM78.5394 19.2812V29.2812C84.0623 29.2812 88.5394 24.8041 88.5394 19.2812H78.5394ZM78.5394 10V0C73.0166 0 68.5394 4.47715 68.5394 10H78.5394ZM64.6176 42.0547L74.6148 42.2872C74.6184 42.134 74.6185 41.9807 74.615 41.8275L64.6176 42.0547ZM74.6293 12.1055H84.6293C84.6293 6.58262 80.1521 2.10547 74.6293 2.10547V12.1055ZM74.6293 17.6055V27.6055C80.1521 27.6055 84.6293 23.1283 84.6293 17.6055L74.6293 17.6055ZM67.4535 17.6055V7.60547C64.6235 7.60547 61.9261 8.80453 60.03 10.9053C58.1339 13.0062 57.2167 15.812 57.5058 18.6271L67.4535 17.6055ZM76.0472 27.4883L84.5615 32.7331C86.1692 30.1232 86.4911 26.9202 85.4349 24.0426C84.3787 21.1651 82.0611 18.9308 79.1468 17.9808L76.0472 27.4883ZM72.7386 32.8594L69.7944 42.4161C74.1502 43.7581 78.8624 41.9848 81.2529 38.1041L72.7386 32.8594ZM63.9301 25.7695L72.7158 20.9934C70.9157 17.6822 67.4069 15.6643 63.6396 15.7738C59.8724 15.8832 56.4866 18.1014 54.8819 21.5116L63.9301 25.7695ZM54.6488 33.8477L46.2779 39.3184C48.7463 43.0953 53.4382 44.7514 57.7306 43.3609L54.6488 33.8477ZM51.0824 28.3906L48.0464 18.8626C45.0698 19.8111 42.7075 22.0961 41.6606 25.0394C40.6137 27.9828 41.0025 31.2463 42.7115 33.8613L51.0824 28.3906ZM60.2347 17.6055L70.1841 18.6105C70.4682 15.7977 69.5485 12.9962 67.6526 10.8991C65.7567 8.80207 63.0618 7.60547 60.2347 7.60547V17.6055ZM53.016 17.6055H43.016C43.016 23.1283 47.4931 27.6055 53.016 27.6055V17.6055ZM53.016 12.1055V2.10547C47.4931 2.10547 43.016 6.58262 43.016 12.1055L53.016 12.1055ZM85.4144 10H75.4144V33.5898H85.4144H95.4144V10H85.4144ZM85.4144 33.5898V23.5898H78.5394V33.5898V43.5898H85.4144V33.5898ZM78.5394 33.5898H88.5394V24.8242H78.5394L68.5394 24.8242V33.5898H78.5394ZM78.5394 24.8242V14.8242L73.5551 14.8242V24.8242V34.8242H78.5394V24.8242ZM73.5551 24.8242L83.5551 24.8242V19.2812L73.5551 19.2812H63.5551V24.8242H73.5551ZM73.5551 19.2812V29.2812H78.5394V19.2812V9.28125H73.5551V19.2812ZM78.5394 19.2812H88.5394V10H78.5394H68.5394V19.2812L78.5394 19.2812ZM78.5394 10V20H85.4144V10V0L78.5394 0V10ZM71.5785 34.2344V44.2344C73.2011 44.2344 74.4703 44.3712 75.4081 44.5616C76.3636 44.7555 76.811 44.9714 76.9118 45.0275C76.9957 45.0742 76.5944 44.8702 76.1684 44.2182C75.6999 43.5014 75.5004 42.6952 75.5004 42.0547H85.5004H95.5004C95.5004 35.2516 91.5469 30.2863 86.6446 27.5555C82.1751 25.0657 76.7817 24.2344 71.5785 24.2344V34.2344ZM85.5004 42.0547H75.5004C75.5004 41.3866 75.709 40.5745 76.1736 39.865C76.5952 39.2211 76.9879 39.0231 76.8969 39.074C76.7909 39.1333 76.3408 39.3506 75.3897 39.5455C74.4557 39.737 73.1922 39.875 71.5785 39.875V49.875V59.875C76.8047 59.875 82.1964 59.0256 86.6595 56.5295C91.528 53.8066 95.5004 48.8554 95.5004 42.0547H85.5004ZM71.5785 49.875V39.875C69.9921 39.875 68.7492 39.7379 67.8307 39.5484C66.8953 39.3553 66.4538 39.1406 66.3519 39.0834C66.2648 39.0344 66.6549 39.2329 67.0733 39.8732C67.5342 40.5786 67.7426 41.387 67.7426 42.0547H57.7426H47.7426C47.7426 48.8478 51.7063 53.7955 56.556 56.5201C61.008 59.0212 66.3814 59.875 71.5785 59.875V49.875ZM57.7426 42.0547H67.7426C67.7426 42.6948 67.5433 43.4973 67.0785 44.2101C66.6558 44.8584 66.257 45.063 66.337 45.0182C66.4336 44.9642 66.8725 44.7509 67.8121 44.5588C68.7345 44.3702 69.9832 44.2344 71.5785 44.2344V34.2344V24.2344C66.4045 24.2344 61.0294 25.07 56.5709 27.5648C51.6873 30.2974 47.7426 35.2592 47.7426 42.0547H57.7426ZM71.5785 39.4336V29.4336C69.053 29.4336 65.8028 29.5812 62.899 30.6347C61.3416 31.1997 59.1651 32.2766 57.3705 34.4095C55.3897 36.7637 54.559 39.5902 54.6201 42.2819L64.6176 42.0547L74.615 41.8275C74.6547 43.5739 74.0925 45.6 72.6743 47.2856C71.4424 48.7498 70.1225 49.2896 69.7199 49.4356C69.288 49.5923 69.1655 49.5641 69.6009 49.5155C69.9928 49.4717 70.6276 49.4336 71.5785 49.4336V39.4336ZM64.6176 42.0547L54.6203 41.8222C54.5565 44.5629 55.4238 47.3821 57.3897 49.7045C59.1671 51.8043 61.3145 52.8764 62.8605 53.4445C65.7623 54.5107 69.0063 54.6758 71.5785 54.6758V44.6758V34.6758C70.6441 34.6758 70.0201 34.6362 69.6385 34.5921C69.2151 34.5432 69.3341 34.5158 69.7584 34.6717C70.1497 34.8155 71.4403 35.3478 72.6551 36.7829C74.0583 38.4407 74.6571 40.4703 74.6148 42.2872L64.6176 42.0547ZM71.5785 44.6758V54.6758C74.179 54.6758 77.4128 54.5082 80.3053 53.4648C81.8407 52.9109 83.9604 51.8732 85.7429 49.8449C87.7158 47.5998 88.6683 44.8269 88.6683 42.0547H78.6683H68.6683C68.6683 40.2063 69.3308 38.2229 70.7196 36.6426C71.918 35.2789 73.1596 34.781 73.5187 34.6514C73.9127 34.5093 74.0034 34.5405 73.5644 34.5906C73.1653 34.6361 72.5254 34.6758 71.5785 34.6758V44.6758ZM78.6683 42.0547H88.6683C88.6683 39.3294 87.7526 36.547 85.7626 34.2689C83.9623 32.2078 81.8135 31.1656 80.2672 30.6148C77.3727 29.5839 74.133 29.4336 71.5785 29.4336V39.4336V49.4336C72.5417 49.4336 73.1924 49.4718 73.6015 49.5169C74.0524 49.5667 73.9582 49.5985 73.5568 49.4555C73.1868 49.3237 71.9161 48.8186 70.6999 47.4262C69.294 45.8167 68.6683 43.8347 68.6683 42.0547H78.6683ZM74.6293 12.1055H64.6293V17.6055H74.6293L84.6293 17.6055V12.1055H74.6293ZM74.6293 17.6055V7.60547H67.4535V17.6055V27.6055H74.6293V17.6055ZM67.4535 17.6055L57.5058 18.6271C58.2973 26.334 63.1337 33.7964 72.9477 36.9958L76.0472 27.4883L79.1468 17.9808C78.4749 17.7617 78.08 17.541 77.87 17.3996C77.666 17.2624 77.5874 17.1678 77.5646 17.1389C77.5423 17.1105 77.4424 16.9857 77.4012 16.5838L67.4535 17.6055ZM76.0472 27.4883L67.533 22.2435L64.2244 27.6146L72.7386 32.8594L81.2529 38.1041L84.5615 32.7331L76.0472 27.4883ZM72.7386 32.8594L75.6829 23.3026C74.7544 23.0166 74.1738 22.6575 73.7866 22.3354C73.3927 22.0078 73.0356 21.5818 72.7158 20.9934L63.9301 25.7695L55.1443 30.5457C58.0771 35.9405 62.935 40.3029 69.7944 42.4161L72.7386 32.8594ZM63.9301 25.7695L54.8819 21.5116C54.2786 22.7935 53.3792 23.7473 51.567 24.3344L54.6488 33.8477L57.7306 43.3609C65.0707 40.9831 70.144 36.0503 72.9782 30.0275L63.9301 25.7695ZM54.6488 33.8477L63.0197 28.3769L59.4533 22.9199L51.0824 28.3906L42.7115 33.8613L46.2779 39.3184L54.6488 33.8477ZM51.0824 28.3906L54.1184 37.9186C64.775 34.523 69.412 26.2539 70.1841 18.6105L60.2347 17.6055L50.2854 16.6005C50.2189 17.2589 50.0355 17.6219 49.8903 17.8144C49.8005 17.9335 49.4172 18.4258 48.0464 18.8626L51.0824 28.3906ZM60.2347 17.6055V7.60547H53.016V17.6055V27.6055H60.2347V17.6055ZM53.016 17.6055H63.016V12.1055H53.016L43.016 12.1055V17.6055H53.016ZM53.016 12.1055V22.1055H74.6293V12.1055V2.10547L53.016 2.10547V12.1055ZM122.582 11.5469H132.582C132.582 6.02403 128.105 1.54687 122.582 1.54687V11.5469ZM122.582 16.918V26.918C128.105 26.918 132.582 22.4408 132.582 16.918H122.582ZM112.828 16.918V6.91797C109.591 6.91797 106.553 8.48575 104.677 11.1251C102.802 13.7644 102.32 17.1486 103.385 20.2064L112.828 16.918ZM124.602 22.7617L133.686 26.9432C135.038 24.0055 134.886 20.5952 133.278 17.7894C131.67 14.9835 128.804 13.1286 125.586 12.8103L124.602 22.7617ZM122.11 28.1758L121.133 38.128C125.374 38.544 129.412 36.2275 131.194 32.3572L122.11 28.1758ZM107.672 20.6992L116.482 15.9672C114.745 12.7339 111.377 10.7118 107.706 10.6993C104.036 10.6867 100.654 12.6858 98.8952 15.9072L107.672 20.6992ZM93.3207 28.1758L84.2096 32.2975C85.9765 36.2032 90.0362 38.5483 94.3022 38.1275L93.3207 28.1758ZM90.8715 22.7617L89.8846 12.8105C86.6784 13.1285 83.8218 14.9718 82.211 17.7621C80.6002 20.5524 80.4324 23.9479 81.7604 26.8834L90.8715 22.7617ZM102.645 16.918L111.998 20.4569C113.16 17.3845 112.74 13.937 110.873 11.2342C109.005 8.53137 105.93 6.91797 102.645 6.91797V16.918ZM92.934 16.918H82.934C82.934 22.4408 87.4111 26.918 92.934 26.918V16.918ZM92.934 11.5469V1.54687C87.4111 1.54687 82.934 6.02403 82.934 11.5469H92.934ZM125.891 29.3789H135.891C135.891 23.8561 131.414 19.3789 125.891 19.3789V29.3789ZM125.891 34.8359V44.8359C131.414 44.8359 135.891 40.3588 135.891 34.8359H125.891ZM111.754 34.8359V24.8359C106.231 24.8359 101.754 29.3131 101.754 34.8359H111.754ZM111.754 40.8516V50.8516C117.277 50.8516 121.754 46.3744 121.754 40.8516H111.754ZM104.922 40.8516H94.9222C94.9222 46.3744 99.3994 50.8516 104.922 50.8516V40.8516ZM104.922 34.8359H114.922C114.922 29.3131 110.445 24.8359 104.922 24.8359V34.8359ZM89.6254 34.8359H79.6254C79.6254 40.3588 84.1025 44.8359 89.6254 44.8359V34.8359ZM89.6254 29.3789V19.3789C84.1025 19.3789 79.6254 23.8561 79.6254 29.3789H89.6254ZM121.938 43.6875H131.938C131.938 38.1647 127.461 33.6875 121.938 33.6875V43.6875ZM121.938 49.1875V59.1875C127.461 59.1875 131.938 54.7103 131.938 49.1875H121.938ZM93.5785 49.1875H83.5785C83.5785 54.7103 88.0556 59.1875 93.5785 59.1875V49.1875ZM93.5785 37.5859V27.5859C88.0556 27.5859 83.5785 32.0631 83.5785 37.5859H93.5785ZM100.453 37.5859H110.453C110.453 32.0631 105.976 27.5859 100.453 27.5859V37.5859ZM100.453 43.6875H90.4535C90.4535 49.2103 94.9306 53.6875 100.453 53.6875V43.6875ZM122.582 11.5469H112.582V16.918H122.582H132.582V11.5469H122.582ZM122.582 16.918V6.91797H112.828V16.918V26.918H122.582V16.918ZM112.828 16.918L103.385 20.2064C106.182 28.2398 114.512 31.8126 123.618 32.7132L124.602 22.7617L125.586 12.8103C122.578 12.5127 121.327 11.9232 121.058 11.7697C120.882 11.6691 121.754 12.1416 122.272 13.6295L112.828 16.918ZM124.602 22.7617L115.518 18.5803L113.026 23.9943L122.11 28.1758L131.194 32.3572L133.686 26.9432L124.602 22.7617ZM122.11 28.1758L123.086 18.2235C120.146 17.9352 118.422 17.2958 117.506 16.7925C116.653 16.3239 116.487 15.9771 116.482 15.9672L107.672 20.6992L98.8627 25.4312C103.022 33.1743 111.319 37.1653 121.133 38.128L122.11 28.1758ZM107.672 20.6992L98.8952 15.9072C98.8552 15.9805 98.6543 16.3423 97.8204 16.8049C96.9244 17.302 95.2358 17.9384 92.3391 18.2241L93.3207 28.1758L94.3022 38.1275C104.177 37.1535 112.3 33.0901 116.449 25.4913L107.672 20.6992ZM93.3207 28.1758L102.432 24.0541L99.9825 18.64L90.8715 22.7617L81.7604 26.8834L84.2096 32.2975L93.3207 28.1758ZM90.8715 22.7617L91.8584 32.7129C101.155 31.791 109.096 28.1255 111.998 20.4569L102.645 16.918L93.292 13.379C93.7808 12.0873 94.5285 11.678 94.3627 11.7733C94.0942 11.9275 92.8606 12.5154 89.8846 12.8105L90.8715 22.7617ZM102.645 16.918V6.91797H92.934V16.918V26.918H102.645V16.918ZM92.934 16.918H102.934V11.5469H92.934H82.934V16.918H92.934ZM92.934 11.5469V21.5469H122.582V11.5469V1.54687H92.934V11.5469ZM125.891 29.3789H115.891V34.8359H125.891H135.891V29.3789H125.891ZM125.891 34.8359V24.8359H111.754V34.8359V44.8359H125.891V34.8359ZM111.754 34.8359H101.754V40.8516H111.754H121.754V34.8359H111.754ZM111.754 40.8516V30.8516H104.922V40.8516V50.8516H111.754V40.8516ZM104.922 40.8516H114.922V34.8359H104.922H94.9222V40.8516H104.922ZM104.922 34.8359V24.8359H89.6254V34.8359V44.8359H104.922V34.8359ZM89.6254 34.8359H99.6254V29.3789H89.6254H79.6254V34.8359H89.6254ZM89.6254 29.3789V39.3789H125.891V29.3789V19.3789H89.6254V29.3789ZM121.938 43.6875H111.938V49.1875H121.938H131.938V43.6875H121.938ZM121.938 49.1875V39.1875H93.5785V49.1875V59.1875H121.938V49.1875ZM93.5785 49.1875H103.578V37.5859H93.5785H83.5785V49.1875H93.5785ZM93.5785 37.5859V47.5859H100.453V37.5859V27.5859H93.5785V37.5859ZM100.453 37.5859H90.4535V43.6875H100.453H110.453V37.5859H100.453ZM100.453 43.6875V53.6875H121.938V43.6875V33.6875H100.453V43.6875ZM162.93 23.4922L171.93 27.8515C173.338 24.9441 173.255 21.5356 171.707 18.7002C170.159 15.8649 167.337 13.9519 164.13 13.5644L162.93 23.4922ZM160.266 28.9922L158.964 38.907C163.236 39.4682 167.387 37.2295 169.266 33.3515L160.266 28.9922ZM145.786 21.0859L154.182 15.6553C152.346 12.8157 149.199 11.0967 145.817 11.086C142.435 11.0753 139.277 12.7744 137.423 15.6024L145.786 21.0859ZM131.434 28.9922L122.434 33.3515C124.315 37.2347 128.475 39.4735 132.752 38.905L131.434 28.9922ZM128.77 23.4922L127.56 13.5656C124.355 13.9561 121.536 15.87 119.99 18.7046C118.445 21.5392 118.363 24.9457 119.77 27.8515L128.77 23.4922ZM142.176 11.0312V1.03125C136.653 1.03125 132.176 5.5084 132.176 11.0312H142.176ZM149.438 11.0312H159.438C159.438 5.5084 154.961 1.03125 149.438 1.03125V11.0312ZM163.918 31.1406H173.918C173.918 25.6178 169.441 21.1406 163.918 21.1406V31.1406ZM163.918 36.7266V46.7266C169.441 46.7266 173.918 42.2494 173.918 36.7266H163.918ZM149.051 36.7266V26.7266C143.528 26.7266 139.051 31.2037 139.051 36.7266L149.051 36.7266ZM149.051 49.7461V59.7461C154.574 59.7461 159.051 55.2689 159.051 49.7461H149.051ZM142.219 49.7461L132.219 49.7461C132.219 55.2689 136.696 59.7461 142.219 59.7461V49.7461ZM142.219 36.7266H152.219C152.219 31.2037 147.742 26.7266 142.219 26.7266V36.7266ZM127.653 36.7266H117.653C117.653 42.2494 122.13 46.7266 127.653 46.7266V36.7266ZM127.653 31.1406V21.1406C122.13 21.1406 117.653 25.6178 117.653 31.1406H127.653ZM149.438 12.75H139.438C139.438 17.4255 141.264 22.4256 145.367 26.3912C149.419 30.3076 155.039 32.6114 161.73 33.42L162.93 23.4922L164.13 13.5644C160.509 13.1269 159.382 12.1221 159.266 12.0102C159.201 11.9474 159.438 12.1995 159.438 12.75H149.438ZM162.93 23.4922L153.93 19.1329L151.266 24.6329L160.266 28.9922L169.266 33.3515L171.93 27.8515L162.93 23.4922ZM160.266 28.9922L161.568 19.0773C156.561 18.4197 154.791 16.5964 154.182 15.6553L145.786 21.0859L137.389 26.5166C141.893 33.4817 149.576 37.674 158.964 38.907L160.266 28.9922ZM145.786 21.0859L137.423 15.6024C136.741 16.6428 134.944 18.4377 130.116 19.0794L131.434 28.9922L132.752 38.905C142.147 37.6561 149.674 33.3924 154.148 26.5695L145.786 21.0859ZM131.434 28.9922L140.434 24.6329L137.77 19.1329L128.77 23.4922L119.77 27.8515L122.434 33.3515L131.434 28.9922ZM128.77 23.4922L129.979 33.4188C136.684 32.6019 142.276 30.2477 146.295 26.3224C150.335 22.3771 152.176 17.4067 152.176 12.75H142.176H132.176C132.176 12.1324 132.428 11.91 132.321 12.0145C132.193 12.139 131.083 13.1364 127.56 13.5656L128.77 23.4922ZM142.176 12.75H152.176V11.0312H142.176H132.176V12.75H142.176ZM142.176 11.0312V21.0312H149.438V11.0312V1.03125H142.176V11.0312ZM149.438 11.0312H139.438V12.75H149.438H159.438V11.0312H149.438ZM163.918 31.1406H153.918V36.7266H163.918H173.918V31.1406H163.918ZM163.918 36.7266V26.7266H149.051V36.7266V46.7266H163.918V36.7266ZM149.051 36.7266L139.051 36.7266V49.7461L149.051 49.7461H159.051V36.7266H149.051ZM149.051 49.7461V39.7461H142.219V49.7461V59.7461H149.051V49.7461ZM142.219 49.7461H152.219V36.7266H142.219L132.219 36.7266V49.7461L142.219 49.7461ZM142.219 36.7266V26.7266H127.653V36.7266V46.7266L142.219 46.7266V36.7266ZM127.653 36.7266H137.653V31.1406H127.653H117.653V36.7266H127.653ZM127.653 31.1406V41.1406L163.918 41.1406V31.1406V21.1406H127.653V31.1406ZM197.391 10H207.391C207.391 4.47715 202.914 0 197.391 0V10ZM197.391 24.6523H187.391C187.391 30.1752 191.868 34.6523 197.391 34.6523V24.6523ZM202.461 24.6523L212.461 24.6523C212.461 19.1295 207.984 14.6523 202.461 14.6523V24.6523ZM202.461 30.2812V40.2812C207.984 40.2812 212.461 35.8041 212.461 30.2812H202.461ZM197.391 30.2812V20.2812C191.868 20.2812 187.391 24.7584 187.391 30.2812H197.391ZM197.391 49.6602V59.6602C202.914 59.6602 207.391 55.183 207.391 49.6602H197.391ZM190.473 49.6602H180.473C180.473 55.183 184.95 59.6602 190.473 59.6602V49.6602ZM190.473 10V0C184.95 0 180.473 4.47715 180.473 10H190.473ZM186.563 13.9531L196.563 13.9881C196.572 11.3299 195.523 8.77736 193.646 6.89443C191.77 5.0115 189.221 3.95312 186.563 3.95312V13.9531ZM168.731 43.2148L160.715 49.1938C163.593 53.0526 168.813 54.313 173.135 52.193L168.731 43.2148ZM164.821 37.9727L160.314 29.0458C157.677 30.377 155.764 32.8059 155.087 35.6812C154.41 38.5565 155.039 41.5839 156.805 43.9516L164.821 37.9727ZM179.559 19.5391L189.458 20.9568C189.869 18.0866 189.014 15.1792 187.115 12.9884C185.215 10.7976 182.458 9.53906 179.559 9.53906V19.5391ZM167.313 19.5391H157.313C157.313 25.0619 161.79 29.5391 167.313 29.5391V19.5391ZM167.313 13.9531V3.95312C161.79 3.95312 157.313 8.43028 157.313 13.9531H167.313ZM197.391 10H187.391V24.6523H197.391L207.391 24.6523V10H197.391ZM197.391 24.6523V34.6523H202.461V24.6523V14.6523H197.391V24.6523ZM202.461 24.6523H192.461V30.2812H202.461H212.461V24.6523L202.461 24.6523ZM202.461 30.2812V20.2812H197.391V30.2812V40.2812H202.461V30.2812ZM197.391 30.2812H187.391V49.6602H197.391H207.391V30.2812H197.391ZM197.391 49.6602V39.6602H190.473V49.6602V59.6602H197.391V49.6602ZM190.473 49.6602H200.473V10H190.473H180.473V49.6602H190.473ZM190.473 10V20H197.391V10V0L190.473 0V10ZM186.563 13.9531L176.563 13.9182C176.545 18.9688 175.67 22.8059 173.986 25.8287C172.363 28.7423 169.565 31.6673 164.327 34.2367L168.731 43.2148L173.135 52.193C181.474 48.1022 187.571 42.5409 191.459 35.5609C195.286 28.6902 196.537 21.2265 196.563 13.9881L186.563 13.9531ZM168.731 43.2148L176.747 37.2359L172.836 31.9937L164.821 37.9727L156.805 43.9516L160.715 49.1938L168.731 43.2148ZM164.821 37.9727L169.327 46.8995C174.572 44.2517 179.246 40.951 182.831 36.5212C186.503 31.9849 188.626 26.7651 189.458 20.9568L179.559 19.5391L169.66 18.1213C169.289 20.7134 168.469 22.4761 167.285 23.9392C166.014 25.5089 163.921 27.2248 160.314 29.0458L164.821 37.9727ZM179.559 19.5391V9.53906L167.313 9.53906V19.5391V29.5391H179.559V19.5391ZM167.313 19.5391H177.313V13.9531H167.313H157.313V19.5391H167.313ZM167.313 13.9531V23.9531H186.563V13.9531V3.95312H167.313V13.9531ZM224.032 12.6641L223.963 22.6638C224.009 22.6641 224.055 22.6641 224.101 22.6638L224.032 12.6641ZM213.246 26.9727L223.246 27.021C223.247 26.9885 223.247 26.9561 223.246 26.9236L213.246 26.9727ZM224.032 18.8945L223.859 28.893C223.973 28.895 224.087 28.895 224.201 28.8931L224.032 18.8945ZM219.95 26.9727L229.949 27.0496C229.95 26.9979 229.95 26.9462 229.949 26.8945L219.95 26.9727ZM228.2 26.9727L238.199 27.0496C238.2 26.9979 238.2 26.9462 238.199 26.8945L228.2 26.9727ZM245 10H255C255 4.47715 250.523 0 245 0V10ZM245 24.4375H235C235 29.9603 239.478 34.4375 245 34.4375V24.4375ZM250.371 24.4375H260.371C260.371 18.9147 255.894 14.4375 250.371 14.4375V24.4375ZM250.371 30.1523V40.1523C255.894 40.1523 260.371 35.6752 260.371 30.1523H250.371ZM245 30.1523V20.1523C239.478 20.1523 235 24.6295 235 30.1523H245ZM245 49.7461V59.7461C250.523 59.7461 255 55.2689 255 49.7461H245ZM238.082 49.7461H228.082C228.082 55.2689 232.56 59.7461 238.082 59.7461V49.7461ZM238.082 10V0C232.56 0 228.082 4.47715 228.082 10L238.082 10ZM224.032 12.6641L224.101 22.6638C224.114 22.6637 224.082 22.665 224.017 22.6499C223.951 22.6347 223.88 22.6095 223.815 22.5766C223.67 22.5031 223.68 22.4599 223.796 22.6106C224.057 22.9505 224.774 24.2317 224.774 26.9727H234.774H244.774C244.774 20.9479 243.213 15.0534 239.651 10.4197C235.952 5.60936 230.379 2.61974 223.962 2.6643L224.032 12.6641ZM234.774 26.9727H224.774C224.774 29.8046 224.044 31.1072 223.783 31.4479C223.667 31.599 223.655 31.5588 223.793 31.4887C223.94 31.4138 224.052 31.4102 224.032 31.4102V41.4102V51.4102C230.402 51.4102 235.961 48.4419 239.663 43.6058C243.227 38.9514 244.774 33.0353 244.774 26.9727H234.774ZM224.032 41.4102V31.4102C223.988 31.4102 224.08 31.4084 224.213 31.4756C224.339 31.5387 224.323 31.5734 224.21 31.4265C223.958 31.0989 223.233 29.8217 223.246 27.021L213.246 26.9727L203.247 26.9243C203.217 33.0181 204.769 38.9597 208.363 43.6273C212.091 48.4697 217.672 51.4102 224.032 51.4102V41.4102ZM213.246 26.9727L223.246 26.9236C223.233 24.2146 223.945 22.9589 224.197 22.632C224.311 22.4855 224.324 22.5231 224.191 22.5896C224.049 22.661 223.941 22.6637 223.963 22.6638L224.032 12.6641L224.101 2.6643C217.694 2.62012 212.1 5.58142 208.376 10.3982C204.783 15.045 203.217 20.9651 203.247 27.0217L213.246 26.9727ZM224.032 18.8945L224.204 8.89602C218.555 8.79863 214.373 12.1116 212.219 16.1436C210.371 19.6031 209.923 23.5663 209.95 27.0508L219.95 26.9727L229.949 26.8945C229.942 25.9979 230.007 25.4486 230.056 25.1804C230.109 24.8914 230.113 25.0946 229.861 25.5664C229.595 26.0636 228.974 26.9806 227.772 27.7591C226.504 28.5797 225.098 28.9144 223.859 28.893L224.032 18.8945ZM219.95 26.9727L209.95 26.8957C209.923 30.3994 210.365 34.3811 212.227 37.8541C214.423 41.9486 218.581 45.0937 224.032 45.0937V35.0937V25.0937C225.183 25.0937 226.527 25.4122 227.764 26.2113C228.949 26.977 229.575 27.8844 229.853 28.4018C230.113 28.8866 230.11 29.1007 230.058 28.8099C230.008 28.5386 229.942 27.9768 229.949 27.0496L219.95 26.9727ZM224.032 35.0937V45.0937C229.47 45.0937 233.632 41.9832 235.848 37.8816C237.706 34.4431 238.173 30.4931 238.199 27.0496L228.2 26.9727L218.2 26.8957C218.193 27.8483 218.119 28.4335 218.063 28.7288C218.003 29.0449 217.997 28.8465 218.252 28.3742C218.526 27.867 219.154 26.9593 220.344 26.1949C221.587 25.3971 222.92 25.0937 224.032 25.0937V35.0937ZM228.2 26.9727L238.199 26.8945C238.173 23.4723 237.699 19.5413 235.856 16.1161C233.681 12.0751 229.496 8.80048 223.862 8.89597L224.032 18.8945L224.201 28.8931C223.004 28.9134 221.61 28.5949 220.337 27.7755C219.128 26.9985 218.507 26.0811 218.244 25.5939C217.997 25.1346 218.004 24.9472 218.065 25.2618C218.121 25.5544 218.193 26.1278 218.2 27.0508L228.2 26.9727ZM245 10L235 10V24.4375H245H255V10H245ZM245 24.4375V34.4375H250.371V24.4375V14.4375H245V24.4375ZM250.371 24.4375H240.371V30.1523H250.371H260.371V24.4375H250.371ZM250.371 30.1523V20.1523H245V30.1523V40.1523H250.371V30.1523ZM245 30.1523H235V49.7461H245H255V30.1523H245ZM245 49.7461V39.7461H238.082V49.7461V59.7461H245V49.7461ZM238.082 49.7461H248.082V10H238.082L228.082 10V49.7461H238.082ZM238.082 10V20H245V10V0L238.082 0V10ZM268.032 13.4375L278.031 13.5474C278.031 13.5108 278.032 13.4741 278.032 13.4375H268.032ZM277.098 22.5469L285.793 27.4858C287.371 24.7074 287.527 21.3421 286.211 18.4301C284.896 15.5181 282.268 13.41 279.14 12.7576L277.098 22.5469ZM274.047 27.918L271.864 37.6767C276.155 38.6369 280.571 36.6807 282.742 32.8569L274.047 27.918ZM264.465 21.6875L273.007 16.488C271.161 13.455 267.845 11.6284 264.295 11.689C260.745 11.7495 257.493 13.688 255.751 16.7821L264.465 21.6875ZM254.668 28.5625L246.081 33.6871C248.315 37.4308 252.718 39.2957 256.961 38.2961L254.668 28.5625ZM251.489 23.2344L249.369 13.4615C246.223 14.1438 243.598 16.299 242.316 19.252C241.034 22.205 241.252 25.5945 242.902 28.3589L251.489 23.2344ZM260.813 11.5898V1.58984C255.29 1.58984 250.813 6.067 250.813 11.5898H260.813ZM268.032 11.5898H278.032C278.032 6.067 273.554 1.58984 268.032 1.58984V11.5898ZM285.262 10.0859H295.262C295.262 4.56309 290.785 0.0859375 285.262 0.0859375V10.0859ZM285.262 49.7031V59.7031C290.785 59.7031 295.262 55.226 295.262 49.7031H285.262ZM278.387 49.7031H268.387C268.387 55.226 272.864 59.7031 278.387 59.7031V49.7031ZM278.387 10.0859V0.0859375C272.864 0.0859375 268.387 4.56309 268.387 10.0859H278.387ZM251.532 30.3672L251.594 20.3674C248.677 20.3491 245.897 21.6058 243.983 23.808C242.07 26.0101 241.213 28.9381 241.638 31.8243L251.532 30.3672ZM276.325 29.1211L286.278 28.1606C286.015 25.4355 284.647 22.9373 282.491 21.249C280.336 19.5606 277.583 18.8297 274.874 19.2268L276.325 29.1211ZM276.797 34.0195L278.814 43.8141C283.819 42.7836 287.242 38.1455 286.751 33.0591L276.797 34.0195ZM267.903 35.3086L267.036 25.3462C261.869 25.7955 257.903 30.1215 257.903 35.3086H267.903ZM267.903 48.5859V58.5859C273.426 58.5859 277.903 54.1088 277.903 48.5859H267.903ZM260.985 48.5859H250.985C250.985 54.1088 255.462 58.5859 260.985 58.5859V48.5859ZM260.985 35.7812H270.985C270.985 33.0693 269.883 30.4737 267.933 28.5894C265.982 26.7051 263.35 25.6937 260.64 25.7872L260.985 35.7812ZM252.348 35.9102L242.455 37.3673C243.178 42.2744 247.388 45.9102 252.348 45.9102V35.9102ZM268.032 13.4375L258.032 13.3276C257.99 17.1723 259.04 21.6354 262.376 25.4724C265.626 29.2097 270.142 31.3111 275.056 32.3362L277.098 22.5469L279.14 12.7576C277.05 12.3217 277.011 11.8235 277.468 12.3489C277.686 12.5993 277.856 12.9098 277.953 13.2071C278.041 13.4776 278.03 13.616 278.031 13.5474L268.032 13.4375ZM277.098 22.5469L268.403 17.608L265.352 22.9791L274.047 27.918L282.742 32.8569L285.793 27.4858L277.098 22.5469ZM274.047 27.918L276.231 18.1593C274.882 17.8575 274.121 17.4696 273.719 17.2014C273.344 16.9514 273.148 16.7194 273.007 16.488L264.465 21.6875L255.923 26.887C259.384 32.5722 265.003 36.1416 271.864 37.6767L274.047 27.918ZM264.465 21.6875L255.751 16.7821C255.52 17.1918 255.236 17.5211 254.829 17.8156C254.409 18.1199 253.665 18.5252 252.376 18.8289L254.668 28.5625L256.961 38.2961C264.258 36.5774 269.857 32.4957 273.179 26.5929L264.465 21.6875ZM254.668 28.5625L263.255 23.4379L260.076 18.1098L251.489 23.2344L242.902 28.3589L246.081 33.6871L254.668 28.5625ZM251.489 23.2344L253.608 33.0072C258.814 31.8781 263.355 29.5078 266.55 25.6209C269.747 21.7328 270.813 17.2794 270.813 13.4375H260.813H250.813C250.813 13.5495 250.797 13.5237 250.838 13.3976C250.884 13.2525 250.974 13.0739 251.101 12.9201C251.227 12.7663 251.273 12.7799 251.076 12.8898C250.862 13.0097 250.345 13.25 249.369 13.4615L251.489 23.2344ZM260.813 13.4375H270.813V11.5898H260.813H250.813V13.4375H260.813ZM260.813 11.5898V21.5898H268.032V11.5898V1.58984H260.813V11.5898ZM268.032 11.5898H258.032V13.4375H268.032H278.032V11.5898H268.032ZM285.262 10.0859H275.262V49.7031H285.262H295.262V10.0859H285.262ZM285.262 49.7031V39.7031H278.387V49.7031V59.7031H285.262V49.7031ZM278.387 49.7031H288.387V10.0859H278.387H268.387V49.7031H278.387ZM278.387 10.0859V20.0859H285.262V10.0859V0.0859375H278.387V10.0859ZM251.532 30.3672L251.469 40.367C258.35 40.41 268.74 40.3398 277.775 39.0153L276.325 29.1211L274.874 19.2268C267.495 20.3086 258.463 20.4103 251.594 20.3674L251.532 30.3672ZM276.325 29.1211L266.371 30.0815L266.843 34.98L276.797 34.0195L286.751 33.0591L286.278 28.1606L276.325 29.1211ZM276.797 34.0195L274.781 24.225C272.258 24.7444 269.635 25.1202 267.036 25.3462L267.903 35.3086L268.769 45.271C272.1 44.9813 275.493 44.4978 278.814 43.8141L276.797 34.0195ZM267.903 35.3086H257.903V48.5859H267.903H277.903V35.3086H267.903ZM267.903 48.5859V38.5859H260.985V48.5859V58.5859H267.903V48.5859ZM260.985 48.5859H270.985V35.7812H260.985H250.985V48.5859H260.985ZM260.985 35.7812L260.64 25.7872C257.689 25.8889 254.875 25.9102 252.348 25.9102V35.9102V45.9102C254.977 45.9102 258.05 45.8884 261.329 45.7753L260.985 35.7812ZM252.348 35.9102L262.241 34.453L261.425 28.91L251.532 30.3672L241.638 31.8243L242.455 37.3673L252.348 35.9102ZM325.61 28.8633H335.61C335.61 23.3404 331.133 18.8633 325.61 18.8633V28.8633ZM325.61 34.2344V44.2344C331.133 44.2344 335.61 39.7572 335.61 34.2344H325.61ZM311.301 34.2344V24.2344C305.778 24.2344 301.301 28.7115 301.301 34.2344H311.301ZM311.301 40.3789V50.3789C316.824 50.3789 321.301 45.9018 321.301 40.3789H311.301ZM304.297 40.3789H294.297C294.297 45.9018 298.774 50.3789 304.297 50.3789V40.3789ZM304.297 34.2344H314.297C314.297 28.7115 309.82 24.2344 304.297 24.2344V34.2344ZM289.344 34.2344H279.344C279.344 39.7572 283.821 44.2344 289.344 44.2344V34.2344ZM289.344 28.8633V18.8633C283.821 18.8633 279.344 23.3404 279.344 28.8633H289.344ZM321.657 43.6875H331.657C331.657 38.1647 327.179 33.6875 321.657 33.6875V43.6875ZM321.657 49.1875V59.1875C327.179 59.1875 331.657 54.7103 331.657 49.1875H321.657ZM293.383 49.1875H283.383C283.383 54.7103 287.86 59.1875 293.383 59.1875V49.1875ZM293.383 37.1133V27.1133C287.86 27.1133 283.383 31.5904 283.383 37.1133H293.383ZM300.344 37.1133H310.344C310.344 31.5904 305.867 27.1133 300.344 27.1133V37.1133ZM300.344 43.6875H290.344C290.344 49.2103 294.821 53.6875 300.344 53.6875V43.6875ZM300.301 19.0664L310.299 19.2837C310.302 19.1447 310.302 19.0055 310.299 18.8664L300.301 19.0664ZM307.477 21.9453L307.381 31.9449C307.445 31.9455 307.51 31.9455 307.574 31.9448L307.477 21.9453ZM325.61 28.8633H315.61V34.2344H325.61H335.61V28.8633H325.61ZM325.61 34.2344V24.2344H311.301V34.2344V44.2344H325.61V34.2344ZM311.301 34.2344H301.301V40.3789H311.301H321.301V34.2344H311.301ZM311.301 40.3789V30.3789H304.297V40.3789V50.3789H311.301V40.3789ZM304.297 40.3789H314.297V34.2344H304.297H294.297V40.3789H304.297ZM304.297 34.2344V24.2344H289.344V34.2344V44.2344H304.297V34.2344ZM289.344 34.2344H299.344V28.8633H289.344H279.344V34.2344H289.344ZM289.344 28.8633V38.8633H325.61V28.8633V18.8633H289.344V28.8633ZM321.657 43.6875H311.657V49.1875H321.657H331.657V43.6875H321.657ZM321.657 49.1875V39.1875H293.383V49.1875V59.1875H321.657V49.1875ZM293.383 49.1875H303.383V37.1133H293.383H283.383V49.1875H293.383ZM293.383 37.1133V47.1133H300.344V37.1133V27.1133H293.383V37.1133ZM300.344 37.1133H290.344V43.6875H300.344H310.344V37.1133H300.344ZM300.344 43.6875V53.6875H321.657V43.6875V33.6875H300.344V43.6875ZM307.477 10.6445V20.6445C310.746 20.6445 312.499 21.2872 313.054 21.6043C313.275 21.7309 313.01 21.6354 312.667 21.1222C312.278 20.5377 312.043 19.7837 312.043 19.0664H322.043H332.043C332.043 11.9931 327.773 6.98009 322.976 4.23944C318.418 1.63466 312.888 0.644531 307.477 0.644531V10.6445ZM322.043 19.0664H312.043C312.043 18.319 312.289 17.5405 312.693 16.9414C313.046 16.4166 313.32 16.3186 313.095 16.4459C312.532 16.7639 310.764 17.4023 307.477 17.4023V27.4023V37.4023C312.869 37.4023 318.384 36.4294 322.935 33.8578C327.719 31.1543 332.043 26.1664 332.043 19.0664H322.043ZM307.477 27.4023V17.4023C304.132 17.4023 302.34 16.7591 301.768 16.4371C301.539 16.3083 301.815 16.4059 302.172 16.9339C302.578 17.5368 302.825 18.3185 302.825 19.0664H292.825H282.825C282.825 26.1735 287.157 31.1642 291.959 33.8666C296.522 36.4343 302.056 37.4023 307.477 37.4023V27.4023ZM292.825 19.0664H302.825C302.825 19.7841 302.59 20.5414 302.197 21.1297C301.852 21.6461 301.584 21.7414 301.809 21.6132C302.374 21.2922 304.151 20.6445 307.477 20.6445V10.6445V0.644531C302.037 0.644531 296.489 1.62965 291.918 4.23051C287.103 6.9701 282.825 11.9861 282.825 19.0664H292.825ZM307.477 16.0156V6.01562C304.861 6.01562 301.526 6.23892 298.497 7.44505C296.905 8.07916 294.813 9.21345 293.087 11.2894C291.199 13.5602 290.245 16.3714 290.303 19.2664L300.301 19.0664L310.299 18.8664C310.336 20.6872 309.71 22.5799 308.465 24.0773C307.381 25.3798 306.249 25.8857 305.897 26.0257C305.515 26.1777 305.416 26.1519 305.787 26.1023C306.123 26.0575 306.674 26.0156 307.477 26.0156V16.0156ZM300.301 19.0664L290.303 18.8491C290.236 21.9454 291.357 24.8155 293.326 27.0144C295.09 28.9853 297.169 30.0228 298.673 30.5892C301.581 31.6844 304.799 31.92 307.381 31.9449L307.477 21.9453L307.573 11.9458C306.746 11.9378 306.159 11.8925 305.78 11.8422C305.365 11.7872 305.403 11.7528 305.722 11.8727C305.985 11.9718 307.105 12.4212 308.226 13.6737C309.552 15.1542 310.345 17.1757 310.299 19.2837L300.301 19.0664ZM307.477 21.9453L307.574 31.9448C310.142 31.9199 313.349 31.683 316.254 30.5791C319.246 29.4425 324.61 26.0887 324.61 19.0664H314.61H304.61C304.61 17.0286 305.396 15.0872 306.681 13.6582C307.779 12.4371 308.872 11.989 309.152 11.8828C309.478 11.7589 309.528 11.7906 309.129 11.844C308.765 11.8929 308.193 11.9379 307.38 11.9458L307.477 21.9453ZM314.61 19.0664H324.61C324.61 16.2326 323.647 13.4938 321.793 11.2736C320.087 9.23035 318.027 8.09759 316.431 7.45618C313.404 6.24019 310.08 6.01562 307.477 6.01562V16.0156V26.0156C308.266 26.0156 308.801 26.0572 309.122 26.1005C309.477 26.1483 309.365 26.1711 308.975 26.0145C308.609 25.8673 307.502 25.3629 306.442 24.0931C305.234 22.6463 304.61 20.826 304.61 19.0664H314.61Z" fill="white" mask="url(#path-1-outside-1_3990_1491)"/>
</g>
<defs>
<filter id="filter0_d_3990_1491" x="0" y="0" width="339.61" height="67.875" filterUnits="userSpaceOnUse" color-interpolation-filters="sRGB">
<feFlood flood-opacity="0" result="BackgroundImageFix"/>
<feColorMatrix in="SourceAlpha" type="matrix" values="0 0 0 0 0 0 0 0 0 0 0 0 0 0 0 0 0 0 127 0" result="hardAlpha"/>
<feOffset dy="4"/>
<feGaussianBlur stdDeviation="2"/>
<feComposite in2="hardAlpha" operator="out"/>
<feColorMatrix type="matrix" values="0 0 0 0 0 0 0 0 0 0 0 0 0 0 0 0 0 0 0.07 0"/>
<feBlend mode="normal" in2="BackgroundImageFix" result="effect1_dropShadow_3990_1491"/>
<feBlend mode="normal" in="SourceGraphic" in2="effect1_dropShadow_3990_1491" result="shape"/>
</filter>
</defs>
</svg>
