<svg width="226" height="68" viewBox="0 0 226 68" fill="none" xmlns="http://www.w3.org/2000/svg">
<g filter="url(#filter0_d_3990_1484)">
<mask id="path-1-outside-1_3990_1484" maskUnits="userSpaceOnUse" x="3.66833" y="-0.507813" width="218" height="61" fill="black">
<rect fill="white" x="3.66833" y="-0.507813" width="218" height="61"/>
<path d="M24.8715 11.0312C31.016 10.9883 35.6996 14.8984 35.6996 20.2695C35.6996 25.5977 31.016 29.4648 24.8715 29.4648C18.684 29.4648 13.9574 25.5977 14.0004 20.2695C13.9574 14.8984 18.684 10.9883 24.8715 11.0312ZM24.8715 16.5742C22.4222 16.6172 20.6176 17.7773 20.6605 20.2695C20.6176 22.7188 22.4222 23.9648 24.8715 23.9648C27.3207 23.9648 29.0394 22.7188 29.0394 20.2695C29.0394 17.7773 27.3207 16.6172 24.8715 16.5742ZM47.0863 10V29.6367H40.1683V10L47.0863 10ZM47.0863 31.0977V42.6562H26.7621V44.0312H47.9457V49.4023H20.016V37.7148H40.2113V36.3398H19.9301V31.0977H47.0863ZM85.4144 10V33.5898H78.5394V24.8242L73.5551 24.8242V19.2812L78.5394 19.2812V10H85.4144ZM71.5785 34.2344C80.2152 34.2344 85.5004 37.1133 85.5004 42.0547C85.5004 46.9531 80.2152 49.875 71.5785 49.875C63.0277 49.875 57.7426 46.9531 57.7426 42.0547C57.7426 37.1133 63.0277 34.2344 71.5785 34.2344ZM71.5785 39.4336C66.8519 39.4336 64.5746 40.1641 64.6176 42.0547C64.5746 43.9023 66.8519 44.6758 71.5785 44.6758C76.348 44.6758 78.6683 43.9023 78.6683 42.0547C78.6683 40.1641 76.348 39.4336 71.5785 39.4336ZM74.6293 12.1055V17.6055H67.4535C67.8617 21.5801 70.182 25.5762 76.0472 27.4883L72.7386 32.8594C68.4847 31.5488 65.6703 28.9707 63.9301 25.7695C62.2113 29.4219 59.225 32.3652 54.6488 33.8477L51.0824 28.3906C57.4203 26.3711 59.8051 21.8594 60.2347 17.6055H53.016V12.1055H74.6293ZM123.184 10V49.875H116.223V10H123.184ZM101.356 12.6641C107.414 12.6211 111.969 18.207 111.969 26.9727C111.969 35.8672 107.414 41.4102 101.356 41.4102C95.1683 41.4102 90.5707 35.8672 90.5707 26.9727C90.5707 18.207 95.1683 12.6211 101.356 12.6641ZM101.356 18.8945C98.8207 18.8516 97.2308 21.4727 97.2308 26.9727C97.2308 32.5586 98.8207 35.0938 101.356 35.0938C103.719 35.0938 105.352 32.5586 105.352 26.9727C105.352 21.4727 103.719 18.8516 101.356 18.8945ZM169.032 10V17.9492H173.973V23.5781H169.032V29.5078H162.114V10H169.032ZM157.602 12.4062V29.207L138.094 29.207V12.4062H157.602ZM144.926 17.7344V23.8359H150.77V17.7344H144.926ZM147.118 32.6445V43.0859C149.03 42.957 150.598 42.6562 152.231 42.1406L153.176 47.4258C150.168 48.5859 147.332 48.7148 142.778 48.7148L140.371 48.7148V32.6445L147.118 32.6445ZM171.782 33.0742V37.8867H151.844V33.0742H158.547V30.582H165.207V33.0742H171.782ZM161.77 38.6602C166.453 38.6602 169.633 40.7656 169.676 44.2461C169.633 47.5977 166.453 49.7461 161.77 49.7461C157.043 49.7461 153.907 47.5977 153.907 44.2461C153.907 40.7656 157.043 38.6602 161.77 38.6602ZM161.77 43.2148C160.782 43.2148 160.008 43.4297 160.008 44.2461C160.008 45.0195 160.782 45.2344 161.77 45.2773C162.758 45.2344 163.532 45.0195 163.532 44.2461C163.532 43.4297 162.758 43.2148 161.77 43.2148ZM211.528 29.9375V35.3516H175.262V29.9375H211.528ZM207.317 43.6875V49.1875H179.43V37.5H186.348V43.6875H207.317ZM193.395 11.1172C202.161 11.1172 208.047 14.2969 208.09 19.4102C208.047 24.6094 202.161 27.832 193.395 27.832C184.543 27.832 178.614 24.6094 178.657 19.4102C178.614 14.2969 184.543 11.1172 193.395 11.1172ZM193.395 16.5312C188.411 16.5742 185.789 17.4766 185.832 19.4102C185.789 21.4727 188.411 22.2891 193.395 22.2461C198.293 22.2891 200.957 21.4727 200.957 19.4102C200.957 17.4766 198.293 16.5742 193.395 16.5312Z"/>
</mask>
<path d="M24.8715 11.0312C31.016 10.9883 35.6996 14.8984 35.6996 20.2695C35.6996 25.5977 31.016 29.4648 24.8715 29.4648C18.684 29.4648 13.9574 25.5977 14.0004 20.2695C13.9574 14.8984 18.684 10.9883 24.8715 11.0312ZM24.8715 16.5742C22.4222 16.6172 20.6176 17.7773 20.6605 20.2695C20.6176 22.7188 22.4222 23.9648 24.8715 23.9648C27.3207 23.9648 29.0394 22.7188 29.0394 20.2695C29.0394 17.7773 27.3207 16.6172 24.8715 16.5742ZM47.0863 10V29.6367H40.1683V10L47.0863 10ZM47.0863 31.0977V42.6562H26.7621V44.0312H47.9457V49.4023H20.016V37.7148H40.2113V36.3398H19.9301V31.0977H47.0863ZM85.4144 10V33.5898H78.5394V24.8242L73.5551 24.8242V19.2812L78.5394 19.2812V10H85.4144ZM71.5785 34.2344C80.2152 34.2344 85.5004 37.1133 85.5004 42.0547C85.5004 46.9531 80.2152 49.875 71.5785 49.875C63.0277 49.875 57.7426 46.9531 57.7426 42.0547C57.7426 37.1133 63.0277 34.2344 71.5785 34.2344ZM71.5785 39.4336C66.8519 39.4336 64.5746 40.1641 64.6176 42.0547C64.5746 43.9023 66.8519 44.6758 71.5785 44.6758C76.348 44.6758 78.6683 43.9023 78.6683 42.0547C78.6683 40.1641 76.348 39.4336 71.5785 39.4336ZM74.6293 12.1055V17.6055H67.4535C67.8617 21.5801 70.182 25.5762 76.0472 27.4883L72.7386 32.8594C68.4847 31.5488 65.6703 28.9707 63.9301 25.7695C62.2113 29.4219 59.225 32.3652 54.6488 33.8477L51.0824 28.3906C57.4203 26.3711 59.8051 21.8594 60.2347 17.6055H53.016V12.1055H74.6293ZM123.184 10V49.875H116.223V10H123.184ZM101.356 12.6641C107.414 12.6211 111.969 18.207 111.969 26.9727C111.969 35.8672 107.414 41.4102 101.356 41.4102C95.1683 41.4102 90.5707 35.8672 90.5707 26.9727C90.5707 18.207 95.1683 12.6211 101.356 12.6641ZM101.356 18.8945C98.8207 18.8516 97.2308 21.4727 97.2308 26.9727C97.2308 32.5586 98.8207 35.0938 101.356 35.0938C103.719 35.0938 105.352 32.5586 105.352 26.9727C105.352 21.4727 103.719 18.8516 101.356 18.8945ZM169.032 10V17.9492H173.973V23.5781H169.032V29.5078H162.114V10H169.032ZM157.602 12.4062V29.207L138.094 29.207V12.4062H157.602ZM144.926 17.7344V23.8359H150.77V17.7344H144.926ZM147.118 32.6445V43.0859C149.03 42.957 150.598 42.6562 152.231 42.1406L153.176 47.4258C150.168 48.5859 147.332 48.7148 142.778 48.7148L140.371 48.7148V32.6445L147.118 32.6445ZM171.782 33.0742V37.8867H151.844V33.0742H158.547V30.582H165.207V33.0742H171.782ZM161.77 38.6602C166.453 38.6602 169.633 40.7656 169.676 44.2461C169.633 47.5977 166.453 49.7461 161.77 49.7461C157.043 49.7461 153.907 47.5977 153.907 44.2461C153.907 40.7656 157.043 38.6602 161.77 38.6602ZM161.77 43.2148C160.782 43.2148 160.008 43.4297 160.008 44.2461C160.008 45.0195 160.782 45.2344 161.77 45.2773C162.758 45.2344 163.532 45.0195 163.532 44.2461C163.532 43.4297 162.758 43.2148 161.77 43.2148ZM211.528 29.9375V35.3516H175.262V29.9375H211.528ZM207.317 43.6875V49.1875H179.43V37.5H186.348V43.6875H207.317ZM193.395 11.1172C202.161 11.1172 208.047 14.2969 208.09 19.4102C208.047 24.6094 202.161 27.832 193.395 27.832C184.543 27.832 178.614 24.6094 178.657 19.4102C178.614 14.2969 184.543 11.1172 193.395 11.1172ZM193.395 16.5312C188.411 16.5742 185.789 17.4766 185.832 19.4102C185.789 21.4727 188.411 22.2891 193.395 22.2461C198.293 22.2891 200.957 21.4727 200.957 19.4102C200.957 17.4766 198.293 16.5742 193.395 16.5312Z" fill="#11DCA9"/>
<path d="M24.8715 11.0312L24.802 21.031C24.8485 21.0313 24.8949 21.0313 24.9414 21.031L24.8715 11.0312ZM14.0004 20.2695L24 20.3502C24.0005 20.2966 24.0005 20.2431 24 20.1895L14.0004 20.2695ZM24.8715 16.5742L25.0469 6.57576C24.9299 6.57371 24.813 6.57371 24.696 6.57576L24.8715 16.5742ZM20.6605 20.2695L30.659 20.4449C30.661 20.329 30.661 20.2131 30.659 20.0971L20.6605 20.2695ZM47.0863 10H57.0863C57.0863 4.47715 52.6091 0 47.0863 0V10ZM47.0863 29.6367V39.6367C52.6091 39.6367 57.0863 35.1596 57.0863 29.6367H47.0863ZM40.1683 29.6367H30.1683C30.1683 35.1596 34.6455 39.6367 40.1683 39.6367V29.6367ZM40.1683 10V0C34.6455 0 30.1683 4.47715 30.1683 10H40.1683ZM47.0863 31.0977H57.0863C57.0863 25.5748 52.6091 21.0977 47.0863 21.0977V31.0977ZM47.0863 42.6562V52.6562C52.6091 52.6562 57.0863 48.1791 57.0863 42.6562H47.0863ZM26.7621 42.6562V32.6562C21.2392 32.6562 16.7621 37.1334 16.7621 42.6562H26.7621ZM26.7621 44.0312H16.7621C16.7621 49.5541 21.2392 54.0312 26.7621 54.0312V44.0312ZM47.9457 44.0312H57.9457C57.9457 38.5084 53.4685 34.0312 47.9457 34.0312V44.0312ZM47.9457 49.4023V59.4023C53.4685 59.4023 57.9457 54.9252 57.9457 49.4023H47.9457ZM20.016 49.4023H10.016C10.016 54.9252 14.4931 59.4023 20.016 59.4023V49.4023ZM20.016 37.7148V27.7148C14.4931 27.7148 10.016 32.192 10.016 37.7148H20.016ZM40.2113 37.7148V47.7148C45.7341 47.7148 50.2113 43.2377 50.2113 37.7148H40.2113ZM40.2113 36.3398H50.2113C50.2113 30.817 45.7341 26.3398 40.2113 26.3398V36.3398ZM19.9301 36.3398H9.93005C9.93005 41.8627 14.4072 46.3398 19.9301 46.3398V36.3398ZM19.9301 31.0977V21.0977C14.4072 21.0977 9.93005 25.5748 9.93005 31.0977H19.9301ZM24.8715 11.0312L24.9414 21.031C25.9042 21.0243 26.2143 21.3252 26.1237 21.2484C26.0746 21.2068 25.9532 21.0839 25.8469 20.8612C25.7356 20.628 25.6996 20.4069 25.6996 20.2695H35.6996H45.6996C45.6996 7.91744 34.9488 0.960535 24.8015 1.03149L24.8715 11.0312ZM35.6996 20.2695H25.6996C25.6996 20.108 25.7415 19.8657 25.861 19.6174C25.975 19.3806 26.1028 19.2545 26.1484 19.2161C26.227 19.1499 25.8833 19.4648 24.8715 19.4648V29.4648V39.4648C34.8596 39.4648 45.6996 32.662 45.6996 20.2695H35.6996ZM24.8715 29.4648V19.4648C23.8164 19.4648 23.4463 19.1369 23.52 19.1986C23.5654 19.2366 23.7027 19.3701 23.8257 19.6263C23.9549 19.8954 24.0015 20.1632 24 20.3502L14.0004 20.2695L4.00069 20.1889C3.89951 32.7355 14.9537 39.4648 24.8715 39.4648V29.4648ZM14.0004 20.2695L24 20.1895C24.0013 20.352 23.9607 20.5985 23.8398 20.8524C23.7246 21.0944 23.5937 21.2247 23.5447 21.266C23.4589 21.3383 23.7956 21.024 24.802 21.031L24.8715 11.0312L24.9409 1.03149C14.8635 0.961509 3.90063 7.84291 4.00069 20.3495L14.0004 20.2695ZM24.8715 16.5742L24.696 6.57576C22.1175 6.62099 18.6083 7.25397 15.5506 9.72192C12.1244 12.4874 10.5938 16.4849 10.662 20.4419L20.6605 20.2695L30.659 20.0971C30.6695 20.7039 30.5702 21.6214 30.116 22.6585C29.6511 23.7198 28.9396 24.6171 28.1122 25.2849C26.5585 26.539 25.1762 26.5704 25.0469 26.5727L24.8715 16.5742ZM20.6605 20.2695L10.6621 20.0941C10.5926 24.0535 12.1363 28.013 15.484 30.7629C18.5357 33.2697 22.0925 33.9648 24.8715 33.9648V23.9648V13.9648C25.2012 13.9648 26.631 14.037 28.1788 15.3084C30.0226 16.8229 30.6855 18.9348 30.659 20.4449L20.6605 20.2695ZM24.8715 23.9648V33.9648C27.6656 33.9648 31.2463 33.2609 34.3032 30.6949C37.6105 27.9187 39.0394 24.0222 39.0394 20.2695H29.0394H19.0394C19.0394 18.966 19.6089 16.9173 21.4446 15.3764C23.0298 14.0457 24.5265 13.9648 24.8715 13.9648V23.9648ZM29.0394 20.2695H39.0394C39.0394 16.5168 37.6214 12.5806 34.2369 9.78899C31.1735 7.26229 27.64 6.62125 25.0469 6.57576L24.8715 16.5742L24.696 26.5727C24.5521 26.5702 23.1026 26.5307 21.5109 25.2178C20.676 24.5292 19.9957 23.6346 19.5579 22.6247C19.1331 21.6451 19.0394 20.799 19.0394 20.2695H29.0394ZM47.0863 10L37.0863 10V29.6367H47.0863H57.0863V10H47.0863ZM47.0863 29.6367V19.6367H40.1683V29.6367V39.6367H47.0863V29.6367ZM40.1683 29.6367H50.1683V10L40.1683 10H30.1683V29.6367H40.1683ZM40.1683 10V20H47.0863V10V0H40.1683V10ZM47.0863 31.0977H37.0863V42.6562H47.0863H57.0863V31.0977H47.0863ZM47.0863 42.6562V32.6562H26.7621V42.6562V52.6562H47.0863V42.6562ZM26.7621 42.6562H16.7621V44.0312H26.7621H36.7621V42.6562H26.7621ZM26.7621 44.0312V54.0312H47.9457V44.0312V34.0312H26.7621V44.0312ZM47.9457 44.0312H37.9457V49.4023H47.9457H57.9457V44.0312H47.9457ZM47.9457 49.4023V39.4023H20.016V49.4023V59.4023H47.9457V49.4023ZM20.016 49.4023H30.016V37.7148H20.016H10.016V49.4023H20.016ZM20.016 37.7148V47.7148H40.2113V37.7148V27.7148H20.016V37.7148ZM40.2113 37.7148H50.2113V36.3398H40.2113H30.2113V37.7148H40.2113ZM40.2113 36.3398V26.3398H19.9301V36.3398V46.3398H40.2113V36.3398ZM19.9301 36.3398H29.9301V31.0977H19.9301H9.93005V36.3398H19.9301ZM19.9301 31.0977V41.0977H47.0863V31.0977V21.0977H19.9301V31.0977ZM85.4144 10H95.4144C95.4144 4.47715 90.9373 0 85.4144 0V10ZM85.4144 33.5898V43.5898C90.9373 43.5898 95.4144 39.1127 95.4144 33.5898H85.4144ZM78.5394 33.5898H68.5394C68.5394 39.1127 73.0166 43.5898 78.5394 43.5898V33.5898ZM78.5394 24.8242H88.5394C88.5394 19.3014 84.0623 14.8242 78.5394 14.8242V24.8242ZM73.5551 24.8242H63.5551C63.5551 30.3471 68.0322 34.8242 73.5551 34.8242V24.8242ZM73.5551 19.2812V9.28125C68.0322 9.28125 63.5551 13.7584 63.5551 19.2812H73.5551ZM78.5394 19.2812V29.2812C84.0623 29.2812 88.5394 24.8041 88.5394 19.2812H78.5394ZM78.5394 10V0C73.0166 0 68.5394 4.47715 68.5394 10H78.5394ZM64.6176 42.0547L74.6148 42.2872C74.6184 42.134 74.6185 41.9807 74.615 41.8275L64.6176 42.0547ZM74.6293 12.1055H84.6293C84.6293 6.58262 80.1521 2.10547 74.6293 2.10547V12.1055ZM74.6293 17.6055V27.6055C80.1521 27.6055 84.6293 23.1283 84.6293 17.6055L74.6293 17.6055ZM67.4535 17.6055V7.60547C64.6235 7.60547 61.9261 8.80453 60.03 10.9053C58.1339 13.0062 57.2167 15.812 57.5058 18.6271L67.4535 17.6055ZM76.0472 27.4883L84.5615 32.7331C86.1692 30.1232 86.4911 26.9202 85.4349 24.0426C84.3787 21.1651 82.0611 18.9308 79.1468 17.9808L76.0472 27.4883ZM72.7386 32.8594L69.7944 42.4161C74.1502 43.7581 78.8624 41.9848 81.2529 38.1041L72.7386 32.8594ZM63.9301 25.7695L72.7158 20.9934C70.9157 17.6822 67.4069 15.6643 63.6396 15.7738C59.8724 15.8832 56.4866 18.1014 54.8819 21.5116L63.9301 25.7695ZM54.6488 33.8477L46.2779 39.3184C48.7463 43.0953 53.4382 44.7514 57.7306 43.3609L54.6488 33.8477ZM51.0824 28.3906L48.0464 18.8626C45.0698 19.8111 42.7075 22.0961 41.6606 25.0394C40.6137 27.9828 41.0025 31.2463 42.7115 33.8613L51.0824 28.3906ZM60.2347 17.6055L70.1841 18.6105C70.4682 15.7977 69.5485 12.9962 67.6526 10.8991C65.7567 8.80207 63.0618 7.60547 60.2347 7.60547V17.6055ZM53.016 17.6055H43.016C43.016 23.1283 47.4931 27.6055 53.016 27.6055V17.6055ZM53.016 12.1055V2.10547C47.4931 2.10547 43.016 6.58262 43.016 12.1055L53.016 12.1055ZM85.4144 10H75.4144V33.5898H85.4144H95.4144V10H85.4144ZM85.4144 33.5898V23.5898H78.5394V33.5898V43.5898H85.4144V33.5898ZM78.5394 33.5898H88.5394V24.8242H78.5394L68.5394 24.8242V33.5898H78.5394ZM78.5394 24.8242V14.8242L73.5551 14.8242V24.8242V34.8242H78.5394V24.8242ZM73.5551 24.8242L83.5551 24.8242V19.2812L73.5551 19.2812H63.5551V24.8242H73.5551ZM73.5551 19.2812V29.2812H78.5394V19.2812V9.28125H73.5551V19.2812ZM78.5394 19.2812H88.5394V10H78.5394H68.5394V19.2812L78.5394 19.2812ZM78.5394 10V20H85.4144V10V0L78.5394 0V10ZM71.5785 34.2344V44.2344C73.2011 44.2344 74.4703 44.3712 75.4081 44.5616C76.3636 44.7555 76.811 44.9714 76.9118 45.0275C76.9957 45.0742 76.5944 44.8702 76.1684 44.2182C75.6999 43.5014 75.5004 42.6952 75.5004 42.0547H85.5004H95.5004C95.5004 35.2516 91.5469 30.2863 86.6446 27.5555C82.1751 25.0657 76.7817 24.2344 71.5785 24.2344V34.2344ZM85.5004 42.0547H75.5004C75.5004 41.3866 75.709 40.5745 76.1736 39.865C76.5952 39.2211 76.9879 39.0231 76.8969 39.074C76.7909 39.1333 76.3408 39.3506 75.3897 39.5455C74.4557 39.737 73.1922 39.875 71.5785 39.875V49.875V59.875C76.8047 59.875 82.1964 59.0256 86.6595 56.5295C91.528 53.8066 95.5004 48.8554 95.5004 42.0547H85.5004ZM71.5785 49.875V39.875C69.9921 39.875 68.7492 39.7379 67.8307 39.5484C66.8953 39.3553 66.4538 39.1406 66.3519 39.0834C66.2648 39.0344 66.6549 39.2329 67.0733 39.8732C67.5342 40.5786 67.7426 41.387 67.7426 42.0547H57.7426H47.7426C47.7426 48.8478 51.7063 53.7955 56.556 56.5201C61.008 59.0212 66.3814 59.875 71.5785 59.875V49.875ZM57.7426 42.0547H67.7426C67.7426 42.6948 67.5433 43.4973 67.0785 44.2101C66.6558 44.8584 66.257 45.063 66.337 45.0182C66.4336 44.9642 66.8725 44.7509 67.8121 44.5588C68.7345 44.3702 69.9832 44.2344 71.5785 44.2344V34.2344V24.2344C66.4045 24.2344 61.0294 25.07 56.5709 27.5648C51.6873 30.2974 47.7426 35.2592 47.7426 42.0547H57.7426ZM71.5785 39.4336V29.4336C69.053 29.4336 65.8028 29.5812 62.899 30.6347C61.3416 31.1997 59.1651 32.2766 57.3705 34.4095C55.3897 36.7637 54.559 39.5902 54.6201 42.2819L64.6176 42.0547L74.615 41.8275C74.6547 43.5739 74.0925 45.6 72.6743 47.2856C71.4424 48.7498 70.1225 49.2896 69.7199 49.4356C69.288 49.5923 69.1655 49.5641 69.6009 49.5155C69.9928 49.4717 70.6276 49.4336 71.5785 49.4336V39.4336ZM64.6176 42.0547L54.6203 41.8222C54.5565 44.5629 55.4238 47.3821 57.3897 49.7045C59.1671 51.8043 61.3145 52.8764 62.8605 53.4445C65.7623 54.5107 69.0063 54.6758 71.5785 54.6758V44.6758V34.6758C70.6441 34.6758 70.0201 34.6362 69.6385 34.5921C69.2151 34.5432 69.3341 34.5158 69.7584 34.6717C70.1497 34.8155 71.4403 35.3478 72.6551 36.7829C74.0583 38.4407 74.6571 40.4703 74.6148 42.2872L64.6176 42.0547ZM71.5785 44.6758V54.6758C74.179 54.6758 77.4128 54.5082 80.3053 53.4648C81.8407 52.9109 83.9604 51.8732 85.7429 49.8449C87.7158 47.5998 88.6683 44.8269 88.6683 42.0547H78.6683H68.6683C68.6683 40.2063 69.3308 38.2229 70.7196 36.6426C71.918 35.2789 73.1596 34.781 73.5187 34.6514C73.9127 34.5093 74.0034 34.5405 73.5644 34.5906C73.1653 34.6361 72.5254 34.6758 71.5785 34.6758V44.6758ZM78.6683 42.0547H88.6683C88.6683 39.3294 87.7526 36.547 85.7626 34.2689C83.9623 32.2078 81.8135 31.1656 80.2672 30.6148C77.3727 29.5839 74.133 29.4336 71.5785 29.4336V39.4336V49.4336C72.5417 49.4336 73.1924 49.4718 73.6015 49.5169C74.0524 49.5667 73.9582 49.5985 73.5568 49.4555C73.1868 49.3237 71.9161 48.8186 70.6999 47.4262C69.294 45.8167 68.6683 43.8347 68.6683 42.0547H78.6683ZM74.6293 12.1055H64.6293V17.6055H74.6293L84.6293 17.6055V12.1055H74.6293ZM74.6293 17.6055V7.60547H67.4535V17.6055V27.6055H74.6293V17.6055ZM67.4535 17.6055L57.5058 18.6271C58.2973 26.334 63.1337 33.7964 72.9477 36.9958L76.0472 27.4883L79.1468 17.9808C78.4749 17.7617 78.08 17.541 77.87 17.3996C77.666 17.2624 77.5874 17.1678 77.5646 17.1389C77.5423 17.1105 77.4424 16.9857 77.4012 16.5838L67.4535 17.6055ZM76.0472 27.4883L67.533 22.2435L64.2244 27.6146L72.7386 32.8594L81.2529 38.1041L84.5615 32.7331L76.0472 27.4883ZM72.7386 32.8594L75.6829 23.3026C74.7544 23.0166 74.1738 22.6575 73.7866 22.3354C73.3927 22.0078 73.0356 21.5818 72.7158 20.9934L63.9301 25.7695L55.1443 30.5457C58.0771 35.9405 62.935 40.3029 69.7944 42.4161L72.7386 32.8594ZM63.9301 25.7695L54.8819 21.5116C54.2786 22.7935 53.3792 23.7473 51.567 24.3344L54.6488 33.8477L57.7306 43.3609C65.0707 40.9831 70.144 36.0503 72.9782 30.0275L63.9301 25.7695ZM54.6488 33.8477L63.0197 28.3769L59.4533 22.9199L51.0824 28.3906L42.7115 33.8613L46.2779 39.3184L54.6488 33.8477ZM51.0824 28.3906L54.1184 37.9186C64.775 34.523 69.412 26.2539 70.1841 18.6105L60.2347 17.6055L50.2854 16.6005C50.2189 17.2589 50.0355 17.6219 49.8903 17.8144C49.8005 17.9335 49.4172 18.4258 48.0464 18.8626L51.0824 28.3906ZM60.2347 17.6055V7.60547H53.016V17.6055V27.6055H60.2347V17.6055ZM53.016 17.6055H63.016V12.1055H53.016L43.016 12.1055V17.6055H53.016ZM53.016 12.1055V22.1055H74.6293V12.1055V2.10547L53.016 2.10547V12.1055ZM123.184 10H133.184C133.184 4.47715 128.707 0 123.184 0V10ZM123.184 49.875V59.875C128.707 59.875 133.184 55.3978 133.184 49.875H123.184ZM116.223 49.875H106.223C106.223 55.3978 110.7 59.875 116.223 59.875V49.875ZM116.223 10V0C110.7 0 106.223 4.47715 106.223 10L116.223 10ZM101.356 12.6641L101.286 22.6638C101.333 22.6641 101.38 22.6641 101.427 22.6638L101.356 12.6641ZM101.356 18.8945L101.186 28.8931C101.303 28.8951 101.421 28.895 101.538 28.8929L101.356 18.8945ZM123.184 10H113.184V49.875H123.184H133.184V10H123.184ZM123.184 49.875V39.875H116.223V49.875V59.875H123.184V49.875ZM116.223 49.875H126.223V10H116.223L106.223 10V49.875H116.223ZM116.223 10V20H123.184V10V0L116.223 0V10ZM101.356 12.6641L101.427 22.6638C101.359 22.6643 101.189 22.6406 101.014 22.5508C100.852 22.4681 100.861 22.4198 100.982 22.5782C101.252 22.9327 101.969 24.2334 101.969 26.9727H111.969H121.969C121.969 20.9463 120.408 15.0712 116.887 10.4521C113.239 5.66819 107.706 2.61877 101.285 2.66431L101.356 12.6641ZM111.969 26.9727H101.969C101.969 29.8028 101.239 31.1249 100.97 31.4804C100.849 31.6391 100.838 31.594 100.992 31.5147C101.158 31.4293 101.311 31.4102 101.356 31.4102V41.4102V51.4102C107.729 51.4102 113.248 48.3834 116.899 43.5733C120.422 38.9337 121.969 33.0371 121.969 26.9727H111.969ZM101.356 41.4102V31.4102C101.334 31.4102 101.439 31.4135 101.577 31.483C101.705 31.5479 101.686 31.5815 101.567 31.4265C101.301 31.0816 100.571 29.7839 100.571 26.9727H90.5707H80.5707C80.5707 33.056 82.1391 38.977 85.7192 43.6273C89.4321 48.4498 94.9936 51.4102 101.356 51.4102V41.4102ZM90.5707 26.9727H100.571C100.571 24.2526 101.288 22.9762 101.554 22.632C101.674 22.4774 101.69 22.5139 101.555 22.5822C101.494 22.6127 101.428 22.6363 101.366 22.6507C101.304 22.6649 101.273 22.6637 101.286 22.6638L101.356 12.6641L101.425 2.6643C95.0162 2.6198 89.4409 5.60151 85.732 10.3982C82.1524 15.0277 80.5707 20.9271 80.5707 26.9727H90.5707ZM101.356 18.8945L101.525 8.89597C95.8937 8.80052 91.6955 12.0746 89.5221 16.1436C87.6812 19.59 87.2308 23.5385 87.2308 26.9727H97.2308H107.231C107.231 26.0559 107.299 25.4897 107.352 25.2055C107.408 24.8993 107.414 25.0966 107.163 25.5664C106.897 26.0649 106.271 26.9904 105.057 27.7722C103.778 28.5955 102.382 28.9134 101.186 28.8931L101.356 18.8945ZM97.2308 26.9727H87.2308C87.2308 30.4271 87.6746 34.3944 89.53 37.8541C91.7446 41.9836 95.9195 45.0938 101.356 45.0938V35.0938V25.0937C102.466 25.0937 103.802 25.3965 105.049 26.1982C106.245 26.9673 106.877 27.8831 107.155 28.4018C107.414 28.8846 107.41 29.0928 107.353 28.7849C107.3 28.4977 107.231 27.9194 107.231 26.9727H97.2308ZM101.356 35.0938V45.0938C106.955 45.0938 111.006 41.7294 113.082 37.7986C114.881 34.3926 115.352 30.4806 115.352 26.9727H105.352H95.3519C95.3519 27.9039 95.2821 28.4806 95.228 28.7724C95.1701 29.0842 95.1608 28.9062 95.3979 28.4572C95.6465 27.9865 96.2423 27.0851 97.4143 26.3005C98.6544 25.4703 100.064 25.0937 101.356 25.0937V35.0938ZM105.352 26.9727H115.352C115.352 23.4853 114.875 19.5914 113.09 16.199C111.059 12.3393 106.981 8.79061 101.174 8.89618L101.356 18.8945L101.538 28.8929C100.152 28.9181 98.6765 28.5217 97.4064 27.6697C96.2176 26.8723 95.6271 25.9614 95.3902 25.511C95.1608 25.075 95.1716 24.9078 95.2295 25.218C95.2834 25.507 95.3519 26.0715 95.3519 26.9727H105.352ZM169.032 10L179.032 10C179.032 4.47715 174.554 0 169.032 0V10ZM169.032 17.9492H159.032C159.032 23.4721 163.509 27.9492 169.032 27.9492V17.9492ZM173.973 17.9492H183.973C183.973 12.4264 179.496 7.94922 173.973 7.94922V17.9492ZM173.973 23.5781V33.5781C179.496 33.5781 183.973 29.101 183.973 23.5781H173.973ZM169.032 23.5781V13.5781C163.509 13.5781 159.032 18.0553 159.032 23.5781H169.032ZM169.032 29.5078V39.5078C174.554 39.5078 179.032 35.0307 179.032 29.5078H169.032ZM162.114 29.5078H152.114C152.114 35.0307 156.591 39.5078 162.114 39.5078V29.5078ZM162.114 10V0C156.591 0 152.114 4.47715 152.114 10H162.114ZM157.602 12.4062H167.602C167.602 6.8834 163.125 2.40625 157.602 2.40625V12.4062ZM157.602 29.207V39.207C163.125 39.207 167.602 34.7299 167.602 29.207H157.602ZM138.094 29.207H128.094C128.094 34.7299 132.571 39.207 138.094 39.207V29.207ZM138.094 12.4062V2.40625C132.571 2.40625 128.094 6.8834 128.094 12.4062H138.094ZM144.926 17.7344V7.73437C139.403 7.73437 134.926 12.2115 134.926 17.7344H144.926ZM144.926 23.8359H134.926C134.926 29.3588 139.403 33.8359 144.926 33.8359V23.8359ZM150.77 23.8359V33.8359C156.293 33.8359 160.77 29.3588 160.77 23.8359H150.77ZM150.77 17.7344H160.77C160.77 12.2115 156.293 7.73437 150.77 7.73437V17.7344ZM147.118 32.6445H157.118C157.118 27.1217 152.64 22.6445 147.118 22.6445V32.6445ZM147.118 43.0859L137.118 43.0859C137.118 45.8549 138.266 48.5 140.288 50.3909C142.311 52.2819 145.027 53.2495 147.79 53.0633L147.118 43.0859ZM152.231 42.1406L162.075 40.3799C161.568 37.5487 159.867 35.0725 157.406 33.584C154.945 32.0955 151.962 31.7387 149.22 32.6048L152.231 42.1406ZM153.176 47.4258L156.775 56.7558C161.244 55.0319 163.863 50.3806 163.02 45.6651L153.176 47.4258ZM140.371 48.7148H130.371C130.371 54.2377 134.849 58.7148 140.371 58.7148V48.7148ZM140.371 32.6445V22.6445C134.849 22.6445 130.371 27.1217 130.371 32.6445H140.371ZM171.782 33.0742H181.782C181.782 27.5514 177.304 23.0742 171.782 23.0742V33.0742ZM171.782 37.8867V47.8867C177.304 47.8867 181.782 43.4096 181.782 37.8867H171.782ZM151.844 37.8867H141.844C141.844 43.4096 146.321 47.8867 151.844 47.8867V37.8867ZM151.844 33.0742V23.0742C146.321 23.0742 141.844 27.5514 141.844 33.0742H151.844ZM158.547 33.0742V43.0742C164.07 43.0742 168.547 38.5971 168.547 33.0742H158.547ZM158.547 30.582V20.582C153.024 20.582 148.547 25.0592 148.547 30.582H158.547ZM165.207 30.582H175.207C175.207 25.0592 170.73 20.582 165.207 20.582V30.582ZM165.207 33.0742H155.207C155.207 38.5971 159.685 43.0742 165.207 43.0742V33.0742ZM169.676 44.2461L179.675 44.3743C179.676 44.2904 179.676 44.2065 179.675 44.1226L169.676 44.2461ZM161.77 45.2773L161.336 55.2679C161.625 55.2805 161.915 55.2805 162.204 55.2679L161.77 45.2773ZM169.032 10H159.032V17.9492H169.032H179.032V10L169.032 10ZM169.032 17.9492V27.9492H173.973V17.9492V7.94922L169.032 7.94922V17.9492ZM173.973 17.9492H163.973V23.5781H173.973H183.973V17.9492H173.973ZM173.973 23.5781V13.5781H169.032V23.5781V33.5781H173.973V23.5781ZM169.032 23.5781H159.032V29.5078H169.032H179.032V23.5781H169.032ZM169.032 29.5078V19.5078H162.114V29.5078V39.5078H169.032V29.5078ZM162.114 29.5078H172.114V10H162.114H152.114V29.5078H162.114ZM162.114 10V20H169.032V10V0L162.114 0V10ZM157.602 12.4062H147.602V29.207H157.602H167.602V12.4062H157.602ZM157.602 29.207V19.207H138.094V29.207V39.207L157.602 39.207V29.207ZM138.094 29.207L148.094 29.207V12.4062H138.094H128.094V29.207H138.094ZM138.094 12.4062V22.4062H157.602V12.4062V2.40625L138.094 2.40625V12.4062ZM144.926 17.7344H134.926V23.8359H144.926H154.926V17.7344H144.926ZM144.926 23.8359V33.8359H150.77V23.8359V13.8359H144.926V23.8359ZM150.77 23.8359H160.77V17.7344H150.77H140.77V23.8359H150.77ZM150.77 17.7344V7.73437H144.926V17.7344V27.7344H150.77V17.7344ZM147.118 32.6445L137.118 32.6445V43.0859L147.118 43.0859H157.118V32.6445H147.118ZM147.118 43.0859L147.79 53.0633C150.467 52.8829 152.822 52.4407 155.242 51.6765L152.231 42.1406L149.22 32.6048C148.374 32.8718 147.593 33.0312 146.445 33.1086L147.118 43.0859ZM152.231 42.1406L142.387 43.9013L143.332 49.1865L153.176 47.4258L163.02 45.6651L162.075 40.3799L152.231 42.1406ZM153.176 47.4258L149.577 38.0958C148.492 38.5144 147.367 38.7148 142.778 38.7148V48.7148V58.7148C147.298 58.7148 151.844 58.6575 156.775 56.7558L153.176 47.4258ZM142.778 48.7148V38.7148L140.371 38.7148V48.7148V58.7148L142.778 58.7148V48.7148ZM140.371 48.7148L150.371 48.7148V32.6445L140.371 32.6445H130.371V48.7148H140.371ZM140.371 32.6445V42.6445L147.118 42.6445V32.6445V22.6445H140.371V32.6445ZM171.782 33.0742H161.782V37.8867H171.782H181.782V33.0742H171.782ZM171.782 37.8867V27.8867H151.844V37.8867V47.8867H171.782V37.8867ZM151.844 37.8867H161.844V33.0742H151.844H141.844V37.8867H151.844ZM151.844 33.0742V43.0742H158.547V33.0742V23.0742H151.844V33.0742ZM158.547 33.0742H168.547V30.582H158.547H148.547V33.0742H158.547ZM158.547 30.582V40.582H165.207V30.582V20.582H158.547V30.582ZM165.207 30.582H155.207V33.0742H165.207H175.207V30.582H165.207ZM165.207 33.0742V43.0742H171.782V33.0742V23.0742H165.207V33.0742ZM161.77 38.6602V48.6602C162.766 48.6602 162.541 48.9043 161.763 48.3641C161.325 48.0601 160.762 47.53 160.317 46.7199C159.863 45.8934 159.685 45.0537 159.677 44.3695L169.676 44.2461L179.675 44.1226C179.611 38.9404 177.031 34.615 173.164 31.9318C169.614 29.4688 165.458 28.6602 161.77 28.6602V38.6602ZM169.676 44.2461L159.677 44.1179C159.687 43.3393 159.894 42.4569 160.36 41.6275C160.812 40.8205 161.37 40.3076 161.784 40.0218C162.527 39.5096 162.722 39.7461 161.77 39.7461V49.7461V59.7461C165.501 59.7461 169.628 58.9084 173.142 56.484C176.928 53.8724 179.608 49.6049 179.675 44.3743L169.676 44.2461ZM161.77 49.7461V39.7461C160.774 39.7461 160.995 39.5003 161.775 40.0426C162.211 40.3458 162.786 40.8841 163.244 41.7211C163.713 42.5787 163.907 43.4757 163.907 44.2461H153.907H143.907C143.907 49.4747 146.531 53.8029 150.357 56.4633C153.887 58.9177 158.04 59.7461 161.77 59.7461V49.7461ZM153.907 44.2461H163.907C163.907 44.9212 163.743 45.7738 163.286 46.6269C162.836 47.4659 162.256 48.0215 161.796 48.3433C160.98 48.9136 160.73 48.6602 161.77 48.6602V38.6602V28.6602C158.083 28.6602 153.901 29.4595 150.335 31.9526C146.428 34.685 143.907 39.0701 143.907 44.2461H153.907ZM161.77 43.2148V33.2148C160.921 33.2148 158.561 33.2436 156.107 34.4498C154.704 35.1396 153.039 36.3276 151.767 38.2804C150.468 40.2723 150.008 42.4009 150.008 44.2461H160.008H170.008C170.008 45.6831 169.645 47.4787 168.522 49.2007C167.425 50.8836 166.016 51.8648 164.93 52.3988C163.901 52.9045 163.037 53.0767 162.615 53.1423C162.164 53.2125 161.854 53.2148 161.77 53.2148V43.2148ZM160.008 44.2461H150.008C150.008 46.195 150.527 48.3637 151.87 50.3435C153.163 52.2486 154.807 53.3711 156.107 54.0101C158.387 55.1306 160.591 55.2355 161.336 55.2679L161.77 45.2773L162.204 35.2868C162.231 35.2879 162.479 35.298 162.858 35.3667C163.208 35.4299 163.986 35.5975 164.93 36.0612C165.913 36.5444 167.301 37.4655 168.419 39.1114C169.586 40.8321 170.008 42.6839 170.008 44.2461H160.008ZM161.77 45.2773L162.204 55.2679C162.949 55.2355 165.153 55.1306 167.433 54.0101C168.733 53.3711 170.376 52.2486 171.669 50.3435C173.013 48.3637 173.532 46.195 173.532 44.2461H163.532H153.532C153.532 42.6839 153.953 40.8321 155.121 39.1114C156.238 37.4655 157.627 36.5444 158.61 36.0612C159.553 35.5975 160.332 35.4299 160.681 35.3667C161.061 35.298 161.309 35.2879 161.336 35.2868L161.77 45.2773ZM163.532 44.2461H173.532C173.532 42.4009 173.071 40.2723 171.773 38.2804C170.5 36.3276 168.836 35.1396 167.433 34.4498C164.979 33.2436 162.618 33.2148 161.77 33.2148V43.2148V53.2148C161.686 53.2148 161.376 53.2125 160.925 53.1423C160.503 53.0767 159.639 52.9045 158.61 52.3988C157.524 51.8648 156.114 50.8836 155.018 49.2007C153.895 47.4787 153.532 45.6831 153.532 44.2461H163.532ZM211.528 29.9375H221.528C221.528 24.4147 217.051 19.9375 211.528 19.9375V29.9375ZM211.528 35.3516V45.3516C217.051 45.3516 221.528 40.8744 221.528 35.3516H211.528ZM175.262 35.3516H165.262C165.262 40.8744 169.739 45.3516 175.262 45.3516V35.3516ZM175.262 29.9375V19.9375C169.739 19.9375 165.262 24.4147 165.262 29.9375H175.262ZM207.317 43.6875H217.317C217.317 38.1647 212.84 33.6875 207.317 33.6875V43.6875ZM207.317 49.1875V59.1875C212.84 59.1875 217.317 54.7103 217.317 49.1875H207.317ZM179.43 49.1875H169.43C169.43 54.7103 173.907 59.1875 179.43 59.1875V49.1875ZM179.43 37.5V27.5C173.907 27.5 169.43 31.9772 169.43 37.5H179.43ZM186.348 37.5H196.348C196.348 31.9772 191.871 27.5 186.348 27.5V37.5ZM186.348 43.6875H176.348C176.348 49.2103 180.825 53.6875 186.348 53.6875V43.6875ZM208.09 19.4102L218.09 19.4928C218.09 19.4372 218.09 19.3817 218.09 19.3261L208.09 19.4102ZM178.657 19.4102L188.656 19.4928C188.657 19.4372 188.657 19.3817 188.656 19.3261L178.657 19.4102ZM193.395 16.5312L193.483 6.53163C193.425 6.53113 193.367 6.53112 193.309 6.53162L193.395 16.5312ZM185.832 19.4102L195.83 19.6184C195.833 19.475 195.833 19.3315 195.83 19.188L185.832 19.4102ZM193.395 22.2461L193.483 12.2465C193.425 12.246 193.367 12.246 193.309 12.2465L193.395 22.2461ZM211.528 29.9375H201.528V35.3516H211.528H221.528V29.9375H211.528ZM211.528 35.3516V25.3516L175.262 25.3516V35.3516V45.3516H211.528V35.3516ZM175.262 35.3516H185.262V29.9375H175.262H165.262V35.3516H175.262ZM175.262 29.9375V39.9375H211.528V29.9375V19.9375L175.262 19.9375V29.9375ZM207.317 43.6875H197.317V49.1875H207.317H217.317V43.6875H207.317ZM207.317 49.1875V39.1875H179.43V49.1875V59.1875H207.317V49.1875ZM179.43 49.1875H189.43V37.5H179.43H169.43V49.1875H179.43ZM179.43 37.5V47.5H186.348V37.5V27.5H179.43V37.5ZM186.348 37.5H176.348V43.6875H186.348H196.348V37.5H186.348ZM186.348 43.6875V53.6875H207.317V43.6875V33.6875H186.348V43.6875ZM193.395 11.1172V21.1172C196.757 21.1172 198.561 21.7555 199.145 22.0809C199.379 22.2112 199.107 22.1183 198.752 21.5982C198.346 21.0039 198.097 20.2325 198.091 19.4942L208.09 19.4102L218.09 19.3261C218.03 12.2408 213.687 7.28992 208.882 4.61151C204.321 2.06871 198.799 1.11719 193.395 1.11719V11.1172ZM208.09 19.4102L198.091 19.3275C198.096 18.6476 198.323 17.9154 198.711 17.3389C199.051 16.8323 199.314 16.7399 199.089 16.8672C198.521 17.1886 196.74 17.832 193.395 17.832V27.832V37.832C198.816 37.832 204.36 36.8641 208.938 34.2744C213.777 31.5366 218.032 26.5412 218.09 19.4928L208.09 19.4102ZM193.395 27.832V17.832C189.988 17.832 188.173 17.1821 187.599 16.8584C187.373 16.7309 187.659 16.8348 188.02 17.3762C188.431 17.9944 188.662 18.7752 188.656 19.4928L178.657 19.4102L168.657 19.3275C168.598 26.487 172.919 31.5434 177.782 34.2832C182.374 36.8706 187.95 37.832 193.395 37.832V27.832ZM178.657 19.4102L188.656 19.3261C188.663 20.1031 188.41 20.9243 187.979 21.5609C187.604 22.1159 187.308 22.2202 187.544 22.0895C188.134 21.7618 189.972 21.1172 193.395 21.1172V11.1172V1.11719C187.967 1.11719 182.414 2.06243 177.837 4.6029C173.01 7.28237 168.596 12.2948 168.657 19.4942L178.657 19.4102ZM193.395 16.5312L193.309 6.53162C190.518 6.55568 187.195 6.79251 184.248 7.8871C182.715 8.45626 180.603 9.5024 178.822 11.5061C176.832 13.7437 175.768 16.6133 175.835 19.6323L185.832 19.4102L195.83 19.188C195.876 21.2402 195.123 23.2719 193.768 24.7951C192.622 26.0845 191.469 26.5398 191.209 26.6363C190.897 26.7523 190.886 26.7088 191.372 26.6467C191.821 26.5893 192.507 26.5393 193.481 26.5309L193.395 16.5312ZM185.832 19.4102L175.835 19.2019C175.775 22.073 176.72 24.9534 178.743 27.284C180.567 29.3863 182.759 30.4592 184.352 31.0306C187.369 32.1125 190.753 32.2692 193.481 32.2457L193.395 22.2461L193.309 12.2465C192.319 12.255 191.63 12.218 191.184 12.1696C190.698 12.1168 190.745 12.0757 191.104 12.2048C191.425 12.3196 192.658 12.8044 193.847 14.1749C195.235 15.7736 195.869 17.7785 195.83 19.6184L185.832 19.4102ZM193.395 22.2461L193.307 32.2457C196.017 32.2695 199.371 32.1084 202.376 31.0351C203.959 30.47 206.113 29.4207 207.928 27.385C209.937 25.1327 210.957 22.3066 210.957 19.4102L200.957 19.4102H190.957C190.957 17.5449 191.645 15.5943 193.001 14.0739C194.164 12.77 195.346 12.3089 195.65 12.2003C195.993 12.0777 196.03 12.1185 195.555 12.1705C195.118 12.2183 194.445 12.2549 193.483 12.2465L193.395 22.2461ZM200.957 19.4102L210.957 19.4102C210.957 16.3715 209.817 13.5618 207.848 11.406C206.077 9.46789 204.004 8.44528 202.481 7.88233C199.546 6.79719 196.253 6.55593 193.483 6.53163L193.395 16.5312L193.307 26.5309C194.254 26.5392 194.925 26.5886 195.366 26.6454C195.842 26.7067 195.84 26.7503 195.545 26.6411C195.301 26.5508 194.199 26.119 193.082 24.8953C191.765 23.4538 190.957 21.482 190.957 19.4102H200.957Z" fill="white" mask="url(#path-1-outside-1_3990_1484)"/>
</g>
<defs>
<filter id="filter0_d_3990_1484" x="0" y="0" width="225.528" height="67.875" filterUnits="userSpaceOnUse" color-interpolation-filters="sRGB">
<feFlood flood-opacity="0" result="BackgroundImageFix"/>
<feColorMatrix in="SourceAlpha" type="matrix" values="0 0 0 0 0 0 0 0 0 0 0 0 0 0 0 0 0 0 127 0" result="hardAlpha"/>
<feOffset dy="4"/>
<feGaussianBlur stdDeviation="2"/>
<feComposite in2="hardAlpha" operator="out"/>
<feColorMatrix type="matrix" values="0 0 0 0 0 0 0 0 0 0 0 0 0 0 0 0 0 0 0.07 0"/>
<feBlend mode="normal" in2="BackgroundImageFix" result="effect1_dropShadow_3990_1484"/>
<feBlend mode="normal" in="SourceGraphic" in2="effect1_dropShadow_3990_1484" result="shape"/>
</filter>
</defs>
</svg>
