<svg width="350" height="68" viewBox="0 0 350 68" fill="none" xmlns="http://www.w3.org/2000/svg">
<g filter="url(#filter0_d_3990_1456)">
<mask id="path-1-outside-1_3990_1456" maskUnits="userSpaceOnUse" x="3.66833" y="-0.378906" width="342" height="61" fill="black">
<rect fill="white" x="3.66833" y="-0.378906" width="342" height="61"/>
<path d="M24.8715 11.1602C31.016 11.1172 35.6996 15.0273 35.6996 20.3984C35.6996 25.7266 31.016 29.5938 24.8715 29.5938C18.684 29.5938 13.9574 25.7266 14.0004 20.3984C13.9574 15.0273 18.684 11.1172 24.8715 11.1602ZM24.8715 16.7031C22.4222 16.7461 20.6176 17.9062 20.6605 20.3984C20.6176 22.8477 22.4222 24.0938 24.8715 24.0938C27.3207 24.0938 29.0394 22.8477 29.0394 20.3984C29.0394 17.9062 27.3207 16.7461 24.8715 16.7031ZM47.0863 10.1289V29.7656H40.1683V10.1289L47.0863 10.1289ZM47.0863 31.2266V42.7852H26.7621V44.1602H47.9457V49.5312H20.016V37.8438H40.2113V36.4688H19.9301V31.2266H47.0863ZM85.4144 10.1289V33.7188H78.5394V24.9531L73.5551 24.9531V19.4102L78.5394 19.4102V10.1289H85.4144ZM71.5785 34.3633C80.2152 34.3633 85.5004 37.2422 85.5004 42.1836C85.5004 47.082 80.2152 50.0039 71.5785 50.0039C63.0277 50.0039 57.7426 47.082 57.7426 42.1836C57.7426 37.2422 63.0277 34.3633 71.5785 34.3633ZM71.5785 39.5625C66.8519 39.5625 64.5746 40.293 64.6176 42.1836C64.5746 44.0312 66.8519 44.8047 71.5785 44.8047C76.348 44.8047 78.6683 44.0312 78.6683 42.1836C78.6683 40.293 76.348 39.5625 71.5785 39.5625ZM74.6293 12.2344V17.7344H67.4535C67.8617 21.709 70.182 25.7051 76.0472 27.6172L72.7386 32.9883C68.4847 31.6777 65.6703 29.0996 63.9301 25.8984C62.2113 29.5508 59.225 32.4941 54.6488 33.9766L51.0824 28.5195C57.4203 26.5 59.8051 21.9883 60.2347 17.7344H53.016V12.2344H74.6293ZM121.637 12.9219V15.6289C121.637 18.5078 121.637 22.4609 120.821 27.2305L114.075 26.5859C114.633 23.3418 114.805 20.7422 114.891 18.5078H100.797V12.9219H121.637ZM111.969 22.332V29.3789C115.643 29.207 119.403 28.9062 122.883 28.3906L123.227 33.2891C114.977 34.8789 105.868 35.0078 99.0785 35.0078L98.4769 29.6367C100.496 29.6152 102.752 29.6152 105.137 29.5508V22.332H111.969ZM131.735 10.1289V21.7305H135.903V27.4453H131.735V39.7773H124.645V10.1289H131.735ZM132.938 43.8164V49.3164H104.149V37.1562H111.067V43.8164H132.938ZM170.836 10.1289V50.0039H163.961V10.1289H170.836ZM158.375 13.2656V29.3359H146.387V35.2656C152.059 35.2012 156.721 34.8789 161.77 34.0195L162.328 39.5625C156.313 40.6797 150.512 40.8945 142.993 40.8945L139.254 40.8945V23.9648H151.328V18.7656H139.254V13.2656H158.375ZM206.973 10.1289V24.7812H212.043V30.4102H206.973V49.7891H200.055V10.1289H206.973ZM196.145 14.082C196.102 26.3711 191.891 36.6836 178.313 43.3437L174.403 38.1016C183.254 33.6328 187.938 28.0684 189.141 19.668H176.895V14.082H196.145ZM245.602 13.0937V18.4648H238.211C238.362 21.3437 240.682 24.5879 247.106 25.8125L244.141 30.9687C239.651 30.0879 236.643 28.1113 234.86 25.5117C233.077 28.3906 230.004 30.6035 225.278 31.5273L222.356 26.3711C228.887 24.9746 231.164 21.623 231.336 18.4648H223.946V13.0937H231.336V10L238.254 10V13.0937H245.602ZM256.688 10.1289V30.668H249.813V24.4375H244.614V19.0664H249.813V10.1289H256.688ZM256.688 31.7852V43.2578H236.793V44.5039H257.633V49.7031H229.832V38.3164H249.813V36.9414H229.832V31.7852H256.688ZM294.887 10.1289V50.0039H287.926V29.1641H281.868V23.6211H287.926V10.1289H294.887ZM284.403 13.8242V19.2812H276.668C276.733 26.3926 279.01 33.5898 286.207 36.5977L282.168 42.0117C277.678 39.9707 274.842 36.2754 273.231 31.6992C271.555 36.6191 268.698 40.6367 264.164 42.8281L260.082 37.3711C267.237 34.1484 269.514 26.7363 269.621 19.2812H261.887V13.8242H284.403ZM330.723 10.2148V21.8164L335.664 21.8164V27.4023L330.723 27.4023V39.8203H323.805V10.2148H330.723ZM322.387 13.9531V19.2812H298.883V13.9531H307.176V10.1289H314.094V13.9531H322.387ZM310.614 20.1836C316.414 20.1836 320.539 23.4062 320.539 28.0469C320.539 32.6875 316.414 35.8242 310.614 35.7812C304.77 35.8242 300.602 32.6875 300.602 28.0469C300.602 23.4062 304.77 20.1836 310.614 20.1836ZM310.614 25.3828C308.637 25.4258 307.348 26.2422 307.348 28.0469C307.348 29.8516 308.637 30.625 310.614 30.625C312.633 30.625 314.008 29.8516 314.008 28.0469C314.008 26.2422 312.633 25.4258 310.614 25.3828ZM331.883 43.8164V49.3164H304.383V37.5859H311.301V43.8164H331.883Z"/>
</mask>
<path d="M24.8715 11.1602C31.016 11.1172 35.6996 15.0273 35.6996 20.3984C35.6996 25.7266 31.016 29.5938 24.8715 29.5938C18.684 29.5938 13.9574 25.7266 14.0004 20.3984C13.9574 15.0273 18.684 11.1172 24.8715 11.1602ZM24.8715 16.7031C22.4222 16.7461 20.6176 17.9062 20.6605 20.3984C20.6176 22.8477 22.4222 24.0938 24.8715 24.0938C27.3207 24.0938 29.0394 22.8477 29.0394 20.3984C29.0394 17.9062 27.3207 16.7461 24.8715 16.7031ZM47.0863 10.1289V29.7656H40.1683V10.1289L47.0863 10.1289ZM47.0863 31.2266V42.7852H26.7621V44.1602H47.9457V49.5312H20.016V37.8438H40.2113V36.4688H19.9301V31.2266H47.0863ZM85.4144 10.1289V33.7188H78.5394V24.9531L73.5551 24.9531V19.4102L78.5394 19.4102V10.1289H85.4144ZM71.5785 34.3633C80.2152 34.3633 85.5004 37.2422 85.5004 42.1836C85.5004 47.082 80.2152 50.0039 71.5785 50.0039C63.0277 50.0039 57.7426 47.082 57.7426 42.1836C57.7426 37.2422 63.0277 34.3633 71.5785 34.3633ZM71.5785 39.5625C66.8519 39.5625 64.5746 40.293 64.6176 42.1836C64.5746 44.0312 66.8519 44.8047 71.5785 44.8047C76.348 44.8047 78.6683 44.0312 78.6683 42.1836C78.6683 40.293 76.348 39.5625 71.5785 39.5625ZM74.6293 12.2344V17.7344H67.4535C67.8617 21.709 70.182 25.7051 76.0472 27.6172L72.7386 32.9883C68.4847 31.6777 65.6703 29.0996 63.9301 25.8984C62.2113 29.5508 59.225 32.4941 54.6488 33.9766L51.0824 28.5195C57.4203 26.5 59.8051 21.9883 60.2347 17.7344H53.016V12.2344H74.6293ZM121.637 12.9219V15.6289C121.637 18.5078 121.637 22.4609 120.821 27.2305L114.075 26.5859C114.633 23.3418 114.805 20.7422 114.891 18.5078H100.797V12.9219H121.637ZM111.969 22.332V29.3789C115.643 29.207 119.403 28.9062 122.883 28.3906L123.227 33.2891C114.977 34.8789 105.868 35.0078 99.0785 35.0078L98.4769 29.6367C100.496 29.6152 102.752 29.6152 105.137 29.5508V22.332H111.969ZM131.735 10.1289V21.7305H135.903V27.4453H131.735V39.7773H124.645V10.1289H131.735ZM132.938 43.8164V49.3164H104.149V37.1562H111.067V43.8164H132.938ZM170.836 10.1289V50.0039H163.961V10.1289H170.836ZM158.375 13.2656V29.3359H146.387V35.2656C152.059 35.2012 156.721 34.8789 161.77 34.0195L162.328 39.5625C156.313 40.6797 150.512 40.8945 142.993 40.8945L139.254 40.8945V23.9648H151.328V18.7656H139.254V13.2656H158.375ZM206.973 10.1289V24.7812H212.043V30.4102H206.973V49.7891H200.055V10.1289H206.973ZM196.145 14.082C196.102 26.3711 191.891 36.6836 178.313 43.3437L174.403 38.1016C183.254 33.6328 187.938 28.0684 189.141 19.668H176.895V14.082H196.145ZM245.602 13.0937V18.4648H238.211C238.362 21.3437 240.682 24.5879 247.106 25.8125L244.141 30.9687C239.651 30.0879 236.643 28.1113 234.86 25.5117C233.077 28.3906 230.004 30.6035 225.278 31.5273L222.356 26.3711C228.887 24.9746 231.164 21.623 231.336 18.4648H223.946V13.0937H231.336V10L238.254 10V13.0937H245.602ZM256.688 10.1289V30.668H249.813V24.4375H244.614V19.0664H249.813V10.1289H256.688ZM256.688 31.7852V43.2578H236.793V44.5039H257.633V49.7031H229.832V38.3164H249.813V36.9414H229.832V31.7852H256.688ZM294.887 10.1289V50.0039H287.926V29.1641H281.868V23.6211H287.926V10.1289H294.887ZM284.403 13.8242V19.2812H276.668C276.733 26.3926 279.01 33.5898 286.207 36.5977L282.168 42.0117C277.678 39.9707 274.842 36.2754 273.231 31.6992C271.555 36.6191 268.698 40.6367 264.164 42.8281L260.082 37.3711C267.237 34.1484 269.514 26.7363 269.621 19.2812H261.887V13.8242H284.403ZM330.723 10.2148V21.8164L335.664 21.8164V27.4023L330.723 27.4023V39.8203H323.805V10.2148H330.723ZM322.387 13.9531V19.2812H298.883V13.9531H307.176V10.1289H314.094V13.9531H322.387ZM310.614 20.1836C316.414 20.1836 320.539 23.4062 320.539 28.0469C320.539 32.6875 316.414 35.8242 310.614 35.7812C304.77 35.8242 300.602 32.6875 300.602 28.0469C300.602 23.4062 304.77 20.1836 310.614 20.1836ZM310.614 25.3828C308.637 25.4258 307.348 26.2422 307.348 28.0469C307.348 29.8516 308.637 30.625 310.614 30.625C312.633 30.625 314.008 29.8516 314.008 28.0469C314.008 26.2422 312.633 25.4258 310.614 25.3828ZM331.883 43.8164V49.3164H304.383V37.5859H311.301V43.8164H331.883Z" fill="#11DCA9"/>
<path d="M24.8715 11.1602L24.802 21.1599C24.8485 21.1602 24.8949 21.1602 24.9414 21.1599L24.8715 11.1602ZM14.0004 20.3984L24 20.4791C24.0005 20.4255 24.0005 20.372 24 20.3184L14.0004 20.3984ZM24.8715 16.7031L25.0469 6.70466C24.9299 6.70261 24.813 6.70261 24.696 6.70466L24.8715 16.7031ZM20.6605 20.3984L30.659 20.5738C30.661 20.4579 30.661 20.342 30.659 20.226L20.6605 20.3984ZM47.0863 10.1289H57.0863C57.0863 4.60606 52.6091 0.128906 47.0863 0.128906V10.1289ZM47.0863 29.7656V39.7656C52.6091 39.7656 57.0863 35.2885 57.0863 29.7656H47.0863ZM40.1683 29.7656H30.1683C30.1683 35.2885 34.6455 39.7656 40.1683 39.7656V29.7656ZM40.1683 10.1289V0.128906C34.6455 0.128906 30.1683 4.60606 30.1683 10.1289H40.1683ZM47.0863 31.2266H57.0863C57.0863 25.7037 52.6091 21.2266 47.0863 21.2266V31.2266ZM47.0863 42.7852V52.7852C52.6091 52.7852 57.0863 48.308 57.0863 42.7852H47.0863ZM26.7621 42.7852V32.7852C21.2392 32.7852 16.7621 37.2623 16.7621 42.7852H26.7621ZM26.7621 44.1602H16.7621C16.7621 49.683 21.2392 54.1602 26.7621 54.1602V44.1602ZM47.9457 44.1602H57.9457C57.9457 38.6373 53.4685 34.1602 47.9457 34.1602V44.1602ZM47.9457 49.5312V59.5312C53.4685 59.5312 57.9457 55.0541 57.9457 49.5312H47.9457ZM20.016 49.5312H10.016C10.016 55.0541 14.4931 59.5312 20.016 59.5312V49.5312ZM20.016 37.8438V27.8438C14.4931 27.8438 10.016 32.3209 10.016 37.8438H20.016ZM40.2113 37.8438V47.8438C45.7341 47.8438 50.2113 43.3666 50.2113 37.8438H40.2113ZM40.2113 36.4688H50.2113C50.2113 30.9459 45.7341 26.4688 40.2113 26.4688V36.4688ZM19.9301 36.4688H9.93005C9.93005 41.9916 14.4072 46.4688 19.9301 46.4688V36.4688ZM19.9301 31.2266V21.2266C14.4072 21.2266 9.93005 25.7037 9.93005 31.2266H19.9301ZM24.8715 11.1602L24.9414 21.1599C25.9042 21.1532 26.2143 21.4541 26.1237 21.3773C26.0746 21.3357 25.9532 21.2128 25.8469 20.9901C25.7356 20.7569 25.6996 20.5358 25.6996 20.3984H35.6996H45.6996C45.6996 8.04634 34.9488 1.08944 24.8015 1.1604L24.8715 11.1602ZM35.6996 20.3984H25.6996C25.6996 20.2369 25.7415 19.9946 25.861 19.7463C25.975 19.5095 26.1028 19.3834 26.1484 19.345C26.227 19.2788 25.8833 19.5938 24.8715 19.5938V29.5938V39.5938C34.8596 39.5938 45.6996 32.7909 45.6996 20.3984H35.6996ZM24.8715 29.5938V19.5938C23.8164 19.5938 23.4463 19.2658 23.52 19.3275C23.5654 19.3655 23.7027 19.499 23.8257 19.7552C23.9549 20.0243 24.0015 20.2922 24 20.4791L14.0004 20.3984L4.00069 20.3178C3.89951 32.8644 14.9537 39.5938 24.8715 39.5938V29.5938ZM14.0004 20.3984L24 20.3184C24.0013 20.481 23.9607 20.7274 23.8398 20.9813C23.7246 21.2233 23.5937 21.3536 23.5447 21.3949C23.4589 21.4672 23.7956 21.1529 24.802 21.1599L24.8715 11.1602L24.9409 1.1604C14.8635 1.09042 3.90063 7.97181 4.00068 20.4784L14.0004 20.3984ZM24.8715 16.7031L24.696 6.70466C22.1175 6.7499 18.6083 7.38288 15.5506 9.85082C12.1244 12.6163 10.5938 16.6138 10.662 20.5708L20.6605 20.3984L30.659 20.226C30.6695 20.8328 30.5702 21.7503 30.116 22.7874C29.6511 23.8488 28.9396 24.746 28.1122 25.4138C26.5585 26.6679 25.1762 26.6993 25.0469 26.7016L24.8715 16.7031ZM20.6605 20.3984L10.6621 20.223C10.5926 24.1824 12.1363 28.1419 15.484 30.8918C18.5357 33.3986 22.0925 34.0938 24.8715 34.0938V24.0938V14.0938C25.2012 14.0938 26.631 14.1659 28.1788 15.4373C30.0226 16.9518 30.6855 19.0637 30.659 20.5738L20.6605 20.3984ZM24.8715 24.0938V34.0938C27.6656 34.0938 31.2463 33.3898 34.3032 30.8238C37.6105 28.0476 39.0394 24.1511 39.0394 20.3984H29.0394H19.0394C19.0394 19.095 19.6089 17.0462 21.4446 15.5053C23.0298 14.1746 24.5265 14.0938 24.8715 14.0938V24.0938ZM29.0394 20.3984H39.0394C39.0394 16.6457 37.6214 12.7095 34.2369 9.9179C31.1735 7.39119 27.64 6.75016 25.0469 6.70466L24.8715 16.7031L24.696 26.7016C24.5521 26.6991 23.1026 26.6596 21.5109 25.3467C20.676 24.6581 19.9957 23.7635 19.5579 22.7536C19.1331 21.774 19.0394 20.9279 19.0394 20.3984H29.0394ZM47.0863 10.1289L37.0863 10.1289V29.7656H47.0863H57.0863V10.1289H47.0863ZM47.0863 29.7656V19.7656H40.1683V29.7656V39.7656H47.0863V29.7656ZM40.1683 29.7656H50.1683V10.1289L40.1683 10.1289H30.1683V29.7656H40.1683ZM40.1683 10.1289V20.1289H47.0863V10.1289V0.128906H40.1683V10.1289ZM47.0863 31.2266H37.0863V42.7852H47.0863H57.0863V31.2266H47.0863ZM47.0863 42.7852V32.7852H26.7621V42.7852V52.7852H47.0863V42.7852ZM26.7621 42.7852H16.7621V44.1602H26.7621H36.7621V42.7852H26.7621ZM26.7621 44.1602V54.1602H47.9457V44.1602V34.1602H26.7621V44.1602ZM47.9457 44.1602H37.9457V49.5312H47.9457H57.9457V44.1602H47.9457ZM47.9457 49.5312V39.5312H20.016V49.5312V59.5312H47.9457V49.5312ZM20.016 49.5312H30.016V37.8438H20.016H10.016V49.5312H20.016ZM20.016 37.8438V47.8438H40.2113V37.8438V27.8438H20.016V37.8438ZM40.2113 37.8438H50.2113V36.4688H40.2113H30.2113V37.8438H40.2113ZM40.2113 36.4688V26.4688H19.9301V36.4688V46.4688H40.2113V36.4688ZM19.9301 36.4688H29.9301V31.2266H19.9301H9.93005V36.4688H19.9301ZM19.9301 31.2266V41.2266H47.0863V31.2266V21.2266H19.9301V31.2266ZM85.4144 10.1289H95.4144C95.4144 4.60606 90.9373 0.128906 85.4144 0.128906V10.1289ZM85.4144 33.7188V43.7188C90.9373 43.7188 95.4144 39.2416 95.4144 33.7188H85.4144ZM78.5394 33.7188H68.5394C68.5394 39.2416 73.0166 43.7188 78.5394 43.7188V33.7188ZM78.5394 24.9531H88.5394C88.5394 19.4303 84.0623 14.9531 78.5394 14.9531V24.9531ZM73.5551 24.9531H63.5551C63.5551 30.476 68.0322 34.9531 73.5551 34.9531V24.9531ZM73.5551 19.4102V9.41016C68.0322 9.41016 63.5551 13.8873 63.5551 19.4102H73.5551ZM78.5394 19.4102V29.4102C84.0623 29.4102 88.5394 24.933 88.5394 19.4102H78.5394ZM78.5394 10.1289V0.128906C73.0166 0.128906 68.5394 4.60606 68.5394 10.1289H78.5394ZM64.6176 42.1836L74.6148 42.4161C74.6184 42.2629 74.6185 42.1096 74.615 41.9564L64.6176 42.1836ZM74.6293 12.2344H84.6293C84.6293 6.71153 80.1521 2.23437 74.6293 2.23437V12.2344ZM74.6293 17.7344V27.7344C80.1521 27.7344 84.6293 23.2572 84.6293 17.7344L74.6293 17.7344ZM67.4535 17.7344V7.73437C64.6235 7.73437 61.9261 8.93343 60.03 11.0342C58.1339 13.1351 57.2167 15.9409 57.5058 18.756L67.4535 17.7344ZM76.0472 27.6172L84.5615 32.862C86.1691 30.2521 86.491 27.0491 85.4349 24.1715C84.3787 21.294 82.0611 19.0598 79.1468 18.1097L76.0472 27.6172ZM72.7386 32.9883L69.7944 42.545C74.1502 43.887 78.8624 42.1137 81.2529 38.2331L72.7386 32.9883ZM63.9301 25.8984L72.7158 21.1223C70.9157 17.8111 67.4069 15.7932 63.6396 15.9027C59.8724 16.0121 56.4866 18.2303 54.8819 21.6405L63.9301 25.8984ZM54.6488 33.9766L46.2779 39.4473C48.7463 43.2242 53.4382 44.8803 57.7306 43.4899L54.6488 33.9766ZM51.0824 28.5195L48.0464 18.9915C45.0698 19.94 42.7075 22.225 41.6606 25.1683C40.6137 28.1117 41.0025 31.3752 42.7115 33.9902L51.0824 28.5195ZM60.2347 17.7344L70.1841 18.7394C70.4682 15.9266 69.5485 13.1251 67.6526 11.028C65.7567 8.93097 63.0618 7.73437 60.2347 7.73437V17.7344ZM53.016 17.7344H43.016C43.016 23.2572 47.4931 27.7344 53.016 27.7344V17.7344ZM53.016 12.2344V2.23437C47.4931 2.23437 43.016 6.71153 43.016 12.2344L53.016 12.2344ZM85.4144 10.1289H75.4144V33.7188H85.4144H95.4144V10.1289H85.4144ZM85.4144 33.7188V23.7187H78.5394V33.7188V43.7188H85.4144V33.7188ZM78.5394 33.7188H88.5394V24.9531H78.5394L68.5394 24.9531V33.7188H78.5394ZM78.5394 24.9531V14.9531L73.5551 14.9531V24.9531V34.9531H78.5394V24.9531ZM73.5551 24.9531L83.5551 24.9531V19.4102L73.5551 19.4102H63.5551V24.9531H73.5551ZM73.5551 19.4102V29.4102H78.5394V19.4102V9.41016H73.5551V19.4102ZM78.5394 19.4102H88.5394V10.1289H78.5394H68.5394V19.4102L78.5394 19.4102ZM78.5394 10.1289V20.1289H85.4144V10.1289V0.128906L78.5394 0.128906V10.1289ZM71.5785 34.3633V44.3633C73.2011 44.3633 74.4703 44.5001 75.4081 44.6905C76.3636 44.8844 76.811 45.1003 76.9118 45.1564C76.9957 45.2032 76.5944 44.9991 76.1684 44.3472C75.6999 43.6303 75.5004 42.8241 75.5004 42.1836H85.5004H95.5004C95.5004 35.3805 91.5469 30.4152 86.6446 27.6844C82.1751 25.1946 76.7817 24.3633 71.5785 24.3633V34.3633ZM85.5004 42.1836H75.5004C75.5004 41.5155 75.709 40.7034 76.1736 39.9939C76.5952 39.35 76.9879 39.152 76.8969 39.2029C76.7909 39.2622 76.3408 39.4795 75.3897 39.6744C74.4557 39.8659 73.1922 40.0039 71.5785 40.0039V50.0039V60.0039C76.8047 60.0039 82.1964 59.1545 86.6595 56.6584C91.528 53.9355 95.5004 48.9844 95.5004 42.1836H85.5004ZM71.5785 50.0039V40.0039C69.9921 40.0039 68.7492 39.8668 67.8307 39.6773C66.8953 39.4842 66.4538 39.2695 66.3519 39.2123C66.2648 39.1633 66.6549 39.3618 67.0733 40.0021C67.5342 40.7075 67.7426 41.5159 67.7426 42.1836H57.7426H47.7426C47.7426 48.9767 51.7063 53.9244 56.556 56.649C61.008 59.1501 66.3814 60.0039 71.5785 60.0039V50.0039ZM57.7426 42.1836H67.7426C67.7426 42.8237 67.5433 43.6262 67.0785 44.339C66.6558 44.9873 66.257 45.1919 66.337 45.1471C66.4336 45.0931 66.8725 44.8798 67.8121 44.6877C68.7345 44.4991 69.9832 44.3633 71.5785 44.3633V34.3633V24.3633C66.4045 24.3633 61.0294 25.1989 56.5709 27.6937C51.6873 30.4263 47.7426 35.3881 47.7426 42.1836H57.7426ZM71.5785 39.5625V29.5625C69.053 29.5625 65.8028 29.7101 62.899 30.7636C61.3416 31.3286 59.1651 32.4055 57.3705 34.5384C55.3897 36.8927 54.559 39.7191 54.6201 42.4108L64.6176 42.1836L74.615 41.9564C74.6547 43.7028 74.0925 45.7289 72.6743 47.4145C71.4424 48.8787 70.1225 49.4185 69.7199 49.5645C69.288 49.7212 69.1655 49.693 69.6009 49.6444C69.9928 49.6006 70.6276 49.5625 71.5785 49.5625V39.5625ZM64.6176 42.1836L54.6203 41.9511C54.5565 44.6918 55.4238 47.511 57.3897 49.8334C59.1671 51.9332 61.3145 53.0053 62.8605 53.5734C65.7623 54.6397 69.0063 54.8047 71.5785 54.8047V44.8047V34.8047C70.6441 34.8047 70.0201 34.7651 69.6385 34.721C69.2151 34.6721 69.3341 34.6447 69.7584 34.8006C70.1497 34.9444 71.4403 35.4767 72.6551 36.9118C74.0583 38.5696 74.6571 40.5992 74.6148 42.4161L64.6176 42.1836ZM71.5785 44.8047V54.8047C74.179 54.8047 77.4128 54.6371 80.3053 53.5937C81.8407 53.0398 83.9604 52.0021 85.7429 49.9738C87.7158 47.7287 88.6683 44.9558 88.6683 42.1836H78.6683H68.6683C68.6683 40.3352 69.3308 38.3518 70.7196 36.7715C71.918 35.4078 73.1596 34.9099 73.5187 34.7803C73.9127 34.6382 74.0034 34.6694 73.5644 34.7195C73.1653 34.765 72.5254 34.8047 71.5785 34.8047V44.8047ZM78.6683 42.1836H88.6683C88.6683 39.4583 87.7526 36.676 85.7626 34.3978C83.9623 32.3367 81.8135 31.2945 80.2672 30.7437C77.3727 29.7128 74.133 29.5625 71.5785 29.5625V39.5625V49.5625C72.5417 49.5625 73.1924 49.6007 73.6015 49.6458C74.0524 49.6956 73.9582 49.7274 73.5568 49.5844C73.1868 49.4526 71.9161 48.9475 70.6999 47.5551C69.294 45.9456 68.6683 43.9636 68.6683 42.1836H78.6683ZM74.6293 12.2344H64.6293V17.7344H74.6293L84.6293 17.7344V12.2344H74.6293ZM74.6293 17.7344V7.73437H67.4535V17.7344V27.7344H74.6293V17.7344ZM67.4535 17.7344L57.5058 18.756C58.2973 26.4629 63.1337 33.9253 72.9477 37.1247L76.0472 27.6172L79.1468 18.1097C78.4749 17.8906 78.08 17.6699 77.87 17.5285C77.666 17.3913 77.5874 17.2967 77.5646 17.2678C77.5423 17.2394 77.4424 17.1146 77.4012 16.7127L67.4535 17.7344ZM76.0472 27.6172L67.533 22.3724L64.2244 27.7435L72.7386 32.9883L81.2529 38.2331L84.5615 32.862L76.0472 27.6172ZM72.7386 32.9883L75.6829 23.4315C74.7544 23.1455 74.1738 22.7864 73.7866 22.4643C73.3927 22.1367 73.0356 21.7107 72.7158 21.1223L63.9301 25.8984L55.1443 30.6746C58.0771 36.0694 62.935 40.4318 69.7944 42.545L72.7386 32.9883ZM63.9301 25.8984L54.8819 21.6405C54.2786 22.9224 53.3792 23.8762 51.567 24.4633L54.6488 33.9766L57.7306 43.4899C65.0707 41.1121 70.144 36.1792 72.9782 30.1564L63.9301 25.8984ZM54.6488 33.9766L63.0197 28.5058L59.4533 23.0488L51.0824 28.5195L42.7115 33.9902L46.2779 39.4473L54.6488 33.9766ZM51.0824 28.5195L54.1184 38.0475C64.775 34.6519 69.412 26.3828 70.1841 18.7394L60.2347 17.7344L50.2854 16.7294C50.2189 17.3878 50.0355 17.7508 49.8903 17.9433C49.8005 18.0624 49.4172 18.5548 48.0464 18.9915L51.0824 28.5195ZM60.2347 17.7344V7.73437H53.016V17.7344V27.7344H60.2347V17.7344ZM53.016 17.7344H63.016V12.2344H53.016L43.016 12.2344V17.7344H53.016ZM53.016 12.2344V22.2344H74.6293V12.2344V2.23437L53.016 2.23437V12.2344ZM121.637 12.9219H131.637C131.637 7.39903 127.16 2.92187 121.637 2.92187V12.9219ZM120.821 27.2305L119.87 37.1851C125.081 37.683 129.794 34.0776 130.677 28.9176L120.821 27.2305ZM114.075 26.5859L104.22 24.8891C103.747 27.6315 104.439 30.4467 106.129 32.6578C107.819 34.8689 110.353 36.2759 113.124 36.5406L114.075 26.5859ZM114.891 18.5078L124.884 18.8921C124.988 16.1753 123.982 13.5331 122.097 11.574C120.211 9.61485 117.61 8.50781 114.891 8.50781V18.5078ZM100.797 18.5078H90.7972C90.7972 24.0307 95.2744 28.5078 100.797 28.5078V18.5078ZM100.797 12.9219V2.92187C95.2744 2.92187 90.7972 7.39903 90.7972 12.9219H100.797ZM111.969 22.332H121.969C121.969 16.8092 117.492 12.332 111.969 12.332V22.332ZM111.969 29.3789H101.969C101.969 32.1122 103.088 34.7263 105.065 36.6133C107.043 38.5003 109.706 39.4957 112.436 39.368L111.969 29.3789ZM122.883 28.3906L132.859 27.6906C132.664 24.9116 131.318 22.3399 129.146 20.595C126.975 18.8501 124.173 18.0903 121.418 18.4986L122.883 28.3906ZM123.227 33.2891L125.119 43.1084C130.086 42.1512 133.557 37.6353 133.202 32.589L123.227 33.2891ZM99.0785 35.0078L89.1406 36.1209C89.7074 41.1814 93.9863 45.0078 99.0785 45.0078V35.0078ZM98.4769 29.6367L98.3706 19.6373C95.5433 19.6674 92.8609 20.8929 90.9874 23.0105C89.1139 25.1281 88.2244 27.9399 88.5391 30.7498L98.4769 29.6367ZM105.137 29.5508L105.407 39.5471C110.823 39.4008 115.137 34.9684 115.137 29.5508H105.137ZM105.137 22.332V12.332C99.6142 12.332 95.1371 16.8092 95.1371 22.332H105.137ZM131.735 10.1289H141.735C141.735 4.60606 137.258 0.128906 131.735 0.128906V10.1289ZM131.735 21.7305H121.735C121.735 27.2533 126.212 31.7305 131.735 31.7305V21.7305ZM135.903 21.7305H145.903C145.903 16.2076 141.426 11.7305 135.903 11.7305V21.7305ZM135.903 27.4453V37.4453C141.426 37.4453 145.903 32.9682 145.903 27.4453H135.903ZM131.735 27.4453V17.4453C126.212 17.4453 121.735 21.9225 121.735 27.4453H131.735ZM131.735 39.7773V49.7773C137.258 49.7773 141.735 45.3002 141.735 39.7773L131.735 39.7773ZM124.645 39.7773H114.645C114.645 45.3002 119.122 49.7773 124.645 49.7773V39.7773ZM124.645 10.1289V0.128906C119.122 0.128906 114.645 4.60606 114.645 10.1289H124.645ZM132.938 43.8164L142.938 43.8164C142.938 38.2936 138.461 33.8164 132.938 33.8164V43.8164ZM132.938 49.3164V59.3164C138.461 59.3164 142.938 54.8393 142.938 49.3164L132.938 49.3164ZM104.149 49.3164H94.1488C94.1488 54.8393 98.626 59.3164 104.149 59.3164V49.3164ZM104.149 37.1562V27.1562C98.626 27.1562 94.1488 31.6334 94.1488 37.1562H104.149ZM111.067 37.1562H121.067C121.067 31.6334 116.59 27.1562 111.067 27.1562V37.1562ZM111.067 43.8164H101.067C101.067 49.3393 105.544 53.8164 111.067 53.8164V43.8164ZM121.637 12.9219H111.637V15.6289H121.637H131.637V12.9219H121.637ZM121.637 15.6289H111.637C111.637 18.4571 111.626 21.6763 110.964 25.5433L120.821 27.2305L130.677 28.9176C131.648 23.2456 131.637 18.5585 131.637 15.6289H121.637ZM120.821 27.2305L121.772 17.2758L115.026 16.6313L114.075 26.5859L113.124 36.5406L119.87 37.1851L120.821 27.2305ZM114.075 26.5859L123.93 28.2828C124.588 24.459 124.788 21.3889 124.884 18.8921L114.891 18.5078L104.898 18.1235C104.823 20.0955 104.678 22.2246 104.22 24.8891L114.075 26.5859ZM114.891 18.5078V8.50781L100.797 8.50781V18.5078V28.5078H114.891V18.5078ZM100.797 18.5078H110.797V12.9219H100.797H90.7972V18.5078H100.797ZM100.797 12.9219V22.9219H121.637V12.9219V2.92187H100.797V12.9219ZM111.969 22.332H101.969V29.3789H111.969H121.969V22.332H111.969ZM111.969 29.3789L112.436 39.368C116.309 39.1868 120.426 38.8638 124.349 38.2827L122.883 28.3906L121.418 18.4986C118.379 18.9487 114.977 19.2273 111.502 19.3898L111.969 29.3789ZM122.883 28.3906L112.908 29.0907L113.251 33.9891L123.227 33.2891L133.202 32.589L132.859 27.6906L122.883 28.3906ZM123.227 33.2891L121.335 23.4697C114.122 24.8597 105.874 25.0078 99.0785 25.0078V35.0078V45.0078C105.861 45.0078 115.832 44.8981 125.119 43.1084L123.227 33.2891ZM99.0785 35.0078L109.016 33.8948L108.415 28.5237L98.4769 29.6367L88.5391 30.7498L89.1406 36.1209L99.0785 35.0078ZM98.4769 29.6367L98.5833 39.6362C100.466 39.6161 102.914 39.6145 105.407 39.5471L105.137 29.5508L104.867 19.5544C102.591 19.616 100.527 19.6143 98.3706 19.6373L98.4769 29.6367ZM105.137 29.5508H115.137V22.332H105.137H95.1371V29.5508H105.137ZM105.137 22.332V32.332H111.969V22.332V12.332L105.137 12.332V22.332ZM131.735 10.1289H121.735V21.7305H131.735H141.735V10.1289H131.735ZM131.735 21.7305V31.7305H135.903V21.7305V11.7305H131.735V21.7305ZM135.903 21.7305H125.903V27.4453H135.903H145.903V21.7305H135.903ZM135.903 27.4453V17.4453H131.735V27.4453V37.4453H135.903V27.4453ZM131.735 27.4453H121.735V39.7773H131.735L141.735 39.7773V27.4453H131.735ZM131.735 39.7773V29.7773H124.645V39.7773V49.7773H131.735V39.7773ZM124.645 39.7773H134.645V10.1289H124.645H114.645V39.7773H124.645ZM124.645 10.1289V20.1289H131.735V10.1289V0.128906H124.645V10.1289ZM132.938 43.8164H122.938V49.3164H132.938L142.938 49.3164V43.8164L132.938 43.8164ZM132.938 49.3164V39.3164H104.149V49.3164V59.3164H132.938V49.3164ZM104.149 49.3164H114.149V37.1562H104.149H94.1488V49.3164H104.149ZM104.149 37.1562V47.1562H111.067V37.1562V27.1562H104.149V37.1562ZM111.067 37.1562H101.067V43.8164H111.067H121.067V37.1562H111.067ZM111.067 43.8164V53.8164H132.938V43.8164V33.8164H111.067V43.8164ZM170.836 10.1289L180.836 10.1289C180.836 4.60606 176.359 0.128906 170.836 0.128906V10.1289ZM170.836 50.0039V60.0039C176.359 60.0039 180.836 55.5268 180.836 50.0039H170.836ZM163.961 50.0039H153.961C153.961 55.5268 158.438 60.0039 163.961 60.0039V50.0039ZM163.961 10.1289V0.128906C158.438 0.128906 153.961 4.60606 153.961 10.1289H163.961ZM158.375 13.2656H168.375C168.375 7.74278 163.898 3.26562 158.375 3.26562V13.2656ZM158.375 29.3359V39.3359C163.898 39.3359 168.375 34.8588 168.375 29.3359H158.375ZM146.387 29.3359V19.3359C140.864 19.3359 136.387 23.8131 136.387 29.3359L146.387 29.3359ZM146.387 35.2656L136.387 35.2656C136.387 37.9375 137.456 40.4982 139.356 42.3768C141.256 44.2553 143.829 45.2953 146.501 45.265L146.387 35.2656ZM161.77 34.0195L171.719 33.0169C171.442 30.2604 170.033 27.7426 167.829 26.064C165.625 24.3854 162.823 23.6964 160.092 24.1613L161.77 34.0195ZM162.328 39.5625L164.154 49.3944C169.268 48.4448 172.8 43.7343 172.278 38.5598L162.328 39.5625ZM139.254 40.8945H129.254C129.254 46.4174 133.731 50.8945 139.254 50.8945V40.8945ZM139.254 23.9648V13.9648C133.731 13.9648 129.254 18.442 129.254 23.9648H139.254ZM151.328 23.9648V33.9648C156.851 33.9648 161.328 29.4877 161.328 23.9648H151.328ZM151.328 18.7656H161.328C161.328 13.2428 156.851 8.76562 151.328 8.76562V18.7656ZM139.254 18.7656H129.254C129.254 24.2885 133.731 28.7656 139.254 28.7656V18.7656ZM139.254 13.2656V3.26562C133.731 3.26562 129.254 7.74278 129.254 13.2656H139.254ZM170.836 10.1289H160.836V50.0039H170.836H180.836V10.1289L170.836 10.1289ZM170.836 50.0039V40.0039H163.961V50.0039V60.0039H170.836V50.0039ZM163.961 50.0039H173.961V10.1289L163.961 10.1289H153.961V50.0039H163.961ZM163.961 10.1289V20.1289H170.836V10.1289V0.128906L163.961 0.128906V10.1289ZM158.375 13.2656H148.375V29.3359H158.375H168.375V13.2656H158.375ZM158.375 29.3359V19.3359H146.387V29.3359V39.3359H158.375V29.3359ZM146.387 29.3359L136.387 29.3359V35.2656L146.387 35.2656H156.387V29.3359H146.387ZM146.387 35.2656L146.501 45.265C152.526 45.1965 157.737 44.8498 163.448 43.8777L161.77 34.0195L160.092 24.1613C155.705 24.908 151.592 25.2058 146.273 25.2663L146.387 35.2656ZM161.77 34.0195L151.82 35.0222L152.379 40.5652L162.328 39.5625L172.278 38.5598L171.719 33.0169L161.77 34.0195ZM162.328 39.5625L160.503 29.7306C155.423 30.674 150.373 30.8945 142.993 30.8945V40.8945V50.8945C150.651 50.8945 157.203 50.6854 164.154 49.3944L162.328 39.5625ZM142.993 40.8945V30.8945L139.254 30.8945V40.8945V50.8945L142.993 50.8945V40.8945ZM139.254 40.8945L149.254 40.8945V23.9648H139.254H129.254V40.8945H139.254ZM139.254 23.9648V33.9648L151.328 33.9648V23.9648V13.9648H139.254V23.9648ZM151.328 23.9648H161.328V18.7656H151.328H141.328V23.9648H151.328ZM151.328 18.7656V8.76562H139.254V18.7656V28.7656L151.328 28.7656V18.7656ZM139.254 18.7656H149.254V13.2656H139.254H129.254V18.7656H139.254ZM139.254 13.2656V23.2656H158.375V13.2656V3.26562L139.254 3.26562V13.2656ZM206.973 10.1289H216.973C216.973 4.60606 212.496 0.128906 206.973 0.128906V10.1289ZM206.973 24.7812L196.973 24.7812C196.973 30.3041 201.45 34.7812 206.973 34.7812V24.7812ZM212.043 24.7812H222.043C222.043 19.2584 217.566 14.7812 212.043 14.7812V24.7812ZM212.043 30.4102V40.4102C217.566 40.4102 222.043 35.933 222.043 30.4102H212.043ZM206.973 30.4102V20.4102C201.45 20.4102 196.973 24.8873 196.973 30.4102H206.973ZM206.973 49.7891V59.7891C212.496 59.7891 216.973 55.3119 216.973 49.7891H206.973ZM200.055 49.7891H190.055C190.055 55.3119 194.532 59.7891 200.055 59.7891V49.7891ZM200.055 10.1289V0.128906C194.532 0.128906 190.055 4.60606 190.055 10.1289H200.055ZM196.145 14.082L206.145 14.117C206.154 11.4588 205.105 8.90627 203.228 7.02334C201.352 5.1404 198.803 4.08203 196.145 4.08203V14.082ZM178.313 43.3437L170.297 49.3227C173.175 53.1815 178.395 54.4419 182.717 52.3219L178.313 43.3437ZM174.403 38.1016L169.896 29.1747C167.259 30.5059 165.346 32.9348 164.669 35.8101C163.992 38.6854 164.621 41.7128 166.387 44.0805L174.403 38.1016ZM189.141 19.668L199.04 21.0857C199.451 18.2155 198.596 15.3081 196.697 13.1173C194.797 10.9265 192.041 9.66797 189.141 9.66797V19.668ZM176.895 19.668H166.895C166.895 25.1908 171.372 29.668 176.895 29.668V19.668ZM176.895 14.082V4.08203C171.372 4.08203 166.895 8.55918 166.895 14.082H176.895ZM206.973 10.1289H196.973V24.7812L206.973 24.7812H216.973V10.1289H206.973ZM206.973 24.7812V34.7812H212.043V24.7812V14.7812H206.973V24.7812ZM212.043 24.7812L202.043 24.7812V30.4102H212.043H222.043V24.7812H212.043ZM212.043 30.4102V20.4102H206.973V30.4102V40.4102H212.043V30.4102ZM206.973 30.4102H196.973V49.7891H206.973H216.973V30.4102H206.973ZM206.973 49.7891V39.7891H200.055V49.7891V59.7891H206.973V49.7891ZM200.055 49.7891H210.055V10.1289H200.055H190.055V49.7891H200.055ZM200.055 10.1289V20.1289L206.973 20.1289V10.1289V0.128906H200.055V10.1289ZM196.145 14.082L186.145 14.0471C186.127 19.0977 185.252 22.9348 183.568 25.9576C181.945 28.8713 179.147 31.7962 173.909 34.3656L178.313 43.3437L182.717 52.3219C191.056 48.2312 197.153 42.6698 201.041 35.6898C204.868 28.8191 206.12 21.3554 206.145 14.117L196.145 14.082ZM178.313 43.3437L186.329 37.3648L182.418 32.1226L174.403 38.1016L166.387 44.0805L170.297 49.3227L178.313 43.3437ZM174.403 38.1016L178.909 47.0284C184.154 44.3806 188.828 41.0799 192.413 36.6501C196.085 32.1138 198.208 26.894 199.04 21.0857L189.141 19.668L179.242 18.2502C178.871 20.8423 178.051 22.605 176.867 24.0681C175.596 25.6378 173.503 27.3538 169.896 29.1747L174.403 38.1016ZM189.141 19.668V9.66797H176.895V19.668V29.668H189.141V19.668ZM176.895 19.668H186.895V14.082H176.895H166.895V19.668H176.895ZM176.895 14.082V24.082H196.145V14.082V4.08203L176.895 4.08203V14.082ZM245.602 13.0937H255.602C255.602 7.5709 251.125 3.09375 245.602 3.09375V13.0937ZM245.602 18.4648V28.4648C251.125 28.4648 255.602 23.9877 255.602 18.4648H245.602ZM238.211 18.4648V8.46484C235.469 8.46484 232.846 9.59135 230.958 11.5807C229.07 13.57 228.082 16.2475 228.225 18.9865L238.211 18.4648ZM247.106 25.8125L255.775 30.7972C257.387 27.9927 257.544 24.5813 256.194 21.6411C254.845 18.7009 252.156 16.5952 248.978 15.9894L247.106 25.8125ZM244.141 30.9687L242.216 40.7817C246.417 41.6058 250.676 39.6646 252.81 35.9535L244.141 30.9687ZM234.86 25.5117L243.106 19.8551C241.195 17.0684 238.005 15.4356 234.626 15.5144C231.248 15.5933 228.138 17.3731 226.358 20.246L234.86 25.5117ZM225.278 31.5273L216.577 36.4575C218.698 40.1998 222.974 42.1668 227.196 41.3416L225.278 31.5273ZM222.356 26.3711L220.265 16.5921C217.151 17.258 214.54 19.3675 213.234 22.2725C211.929 25.1774 212.085 28.5304 213.656 31.3012L222.356 26.3711ZM231.336 18.4648L241.322 19.0083C241.471 16.2658 240.486 13.5827 238.597 11.5886C236.708 9.59445 234.083 8.46484 231.336 8.46484V18.4648ZM223.946 18.4648H213.946C213.946 23.9877 218.423 28.4648 223.946 28.4648V18.4648ZM223.946 13.0937V3.09375C218.423 3.09375 213.946 7.5709 213.946 13.0937H223.946ZM231.336 13.0937V23.0937C236.859 23.0937 241.336 18.6166 241.336 13.0937H231.336ZM231.336 10V0C225.813 0 221.336 4.47715 221.336 10H231.336ZM238.254 10H248.254C248.254 4.47715 243.777 0 238.254 0V10ZM238.254 13.0937H228.254C228.254 18.6166 232.731 23.0937 238.254 23.0937V13.0937ZM256.688 10.1289H266.688C266.688 4.60606 262.211 0.128906 256.688 0.128906V10.1289ZM256.688 30.668V40.668C262.211 40.668 266.688 36.1908 266.688 30.668H256.688ZM249.813 30.668H239.813C239.813 36.1908 244.29 40.668 249.813 40.668V30.668ZM249.813 24.4375H259.813C259.813 18.9147 255.336 14.4375 249.813 14.4375V24.4375ZM244.614 24.4375H234.614C234.614 29.9603 239.091 34.4375 244.614 34.4375V24.4375ZM244.614 19.0664V9.06641C239.091 9.06641 234.614 13.5436 234.614 19.0664H244.614ZM249.813 19.0664V29.0664C255.336 29.0664 259.813 24.5893 259.813 19.0664H249.813ZM249.813 10.1289V0.128906C244.29 0.128906 239.813 4.60606 239.813 10.1289H249.813ZM256.688 31.7852H266.688C266.688 26.2623 262.211 21.7852 256.688 21.7852V31.7852ZM256.688 43.2578V53.2578C262.211 53.2578 266.688 48.7807 266.688 43.2578H256.688ZM236.793 43.2578V33.2578C231.27 33.2578 226.793 37.735 226.793 43.2578H236.793ZM236.793 44.5039H226.793C226.793 50.0268 231.27 54.5039 236.793 54.5039V44.5039ZM257.633 44.5039H267.633C267.633 38.9811 263.156 34.5039 257.633 34.5039V44.5039ZM257.633 49.7031V59.7031C263.156 59.7031 267.633 55.226 267.633 49.7031H257.633ZM229.832 49.7031H219.832C219.832 55.226 224.31 59.7031 229.832 59.7031V49.7031ZM229.832 38.3164V28.3164C224.31 28.3164 219.832 32.7936 219.832 38.3164H229.832ZM249.813 38.3164V48.3164C255.336 48.3164 259.813 43.8393 259.813 38.3164H249.813ZM249.813 36.9414H259.813C259.813 31.4186 255.336 26.9414 249.813 26.9414V36.9414ZM229.832 36.9414H219.832C219.832 42.4643 224.31 46.9414 229.832 46.9414V36.9414ZM229.832 31.7852V21.7852C224.31 21.7852 219.832 26.2623 219.832 31.7852H229.832ZM245.602 13.0937H235.602V18.4648H245.602H255.602V13.0937H245.602ZM245.602 18.4648V8.46484H238.211V18.4648V28.4648H245.602V18.4648ZM238.211 18.4648L228.225 18.9865C228.696 27.9967 235.991 33.8737 245.233 35.6356L247.106 25.8125L248.978 15.9894C247.088 15.6289 246.828 15.1637 247.172 15.4889C247.35 15.6567 247.609 15.9663 247.827 16.4339C248.042 16.8964 248.17 17.4131 248.198 17.9432L238.211 18.4648ZM247.106 25.8125L238.437 20.8278L235.472 25.984L244.141 30.9687L252.81 35.9535L255.775 30.7972L247.106 25.8125ZM244.141 30.9687L246.066 21.1558C244.79 20.9054 244.05 20.5635 243.661 20.3284C243.294 20.1065 243.161 19.9345 243.106 19.8551L234.86 25.5117L226.613 31.1683C230.17 36.354 235.712 39.5058 242.216 40.7817L244.141 30.9687ZM234.86 25.5117L226.358 20.246C226.239 20.4389 226.065 20.6457 225.721 20.8692C225.357 21.1058 224.643 21.4622 223.359 21.7131L225.278 31.5273L227.196 41.3416C234.241 39.9647 239.904 36.3586 243.361 30.7775L234.86 25.5117ZM225.278 31.5273L233.978 26.5972L231.056 21.441L222.356 26.3711L213.656 31.3012L216.577 36.4575L225.278 31.5273ZM222.356 26.3711L224.447 36.1501C229.025 35.1712 233.167 33.2841 236.302 30.1497C239.543 26.9083 241.109 22.9154 241.322 19.0083L231.336 18.4648L221.351 17.9214C221.368 17.6023 221.444 17.227 221.611 16.8437C221.781 16.4513 221.996 16.171 222.16 16.0075C222.48 15.6876 222.218 16.1745 220.265 16.5921L222.356 26.3711ZM231.336 18.4648V8.46484H223.946V18.4648V28.4648H231.336V18.4648ZM223.946 18.4648H233.946V13.0937H223.946H213.946V18.4648H223.946ZM223.946 13.0937V23.0937H231.336V13.0937V3.09375H223.946V13.0937ZM231.336 13.0937H241.336V10L231.336 10H221.336V13.0937H231.336ZM231.336 10V20H238.254V10V0H231.336V10ZM238.254 10L228.254 10V13.0937H238.254H248.254V10H238.254ZM238.254 13.0937V23.0937H245.602V13.0937V3.09375H238.254V13.0937ZM256.688 10.1289H246.688V30.668H256.688H266.688V10.1289H256.688ZM256.688 30.668V20.668H249.813V30.668V40.668H256.688V30.668ZM249.813 30.668H259.813V24.4375H249.813H239.813V30.668H249.813ZM249.813 24.4375V14.4375H244.614V24.4375V34.4375H249.813V24.4375ZM244.614 24.4375H254.614V19.0664H244.614H234.614V24.4375H244.614ZM244.614 19.0664V29.0664H249.813V19.0664V9.06641H244.614V19.0664ZM249.813 19.0664H259.813V10.1289H249.813H239.813V19.0664H249.813ZM249.813 10.1289V20.1289H256.688V10.1289V0.128906H249.813V10.1289ZM256.688 31.7852H246.688V43.2578H256.688H266.688V31.7852H256.688ZM256.688 43.2578V33.2578H236.793V43.2578V53.2578H256.688V43.2578ZM236.793 43.2578H226.793V44.5039H236.793H246.793V43.2578H236.793ZM236.793 44.5039V54.5039H257.633V44.5039V34.5039H236.793V44.5039ZM257.633 44.5039H247.633V49.7031H257.633H267.633V44.5039H257.633ZM257.633 49.7031V39.7031H229.832V49.7031V59.7031H257.633V49.7031ZM229.832 49.7031H239.832V38.3164H229.832H219.832V49.7031H229.832ZM229.832 38.3164V48.3164H249.813V38.3164V28.3164H229.832V38.3164ZM249.813 38.3164H259.813V36.9414H249.813H239.813V38.3164H249.813ZM249.813 36.9414V26.9414H229.832V36.9414V46.9414H249.813V36.9414ZM229.832 36.9414H239.832V31.7852H229.832H219.832V36.9414H229.832ZM229.832 31.7852V41.7852H256.688V31.7852V21.7852H229.832V31.7852ZM294.887 10.1289L304.887 10.1289C304.887 4.60606 300.41 0.128906 294.887 0.128906V10.1289ZM294.887 50.0039V60.0039C300.41 60.0039 304.887 55.5268 304.887 50.0039H294.887ZM287.926 50.0039H277.926C277.926 55.5268 282.403 60.0039 287.926 60.0039V50.0039ZM287.926 29.1641H297.926C297.926 23.6412 293.449 19.1641 287.926 19.1641V29.1641ZM281.868 29.1641H271.868C271.868 34.6869 276.345 39.1641 281.868 39.1641V29.1641ZM281.868 23.6211V13.6211C276.345 13.6211 271.868 18.0982 271.868 23.6211H281.868ZM287.926 23.6211V33.6211C293.449 33.6211 297.926 29.1439 297.926 23.6211H287.926ZM287.926 10.1289V0.128906C282.403 0.128906 277.926 4.60606 277.926 10.1289H287.926ZM284.403 13.8242H294.403C294.403 8.30137 289.926 3.82422 284.403 3.82422V13.8242ZM284.403 19.2812V29.2812C289.926 29.2812 294.403 24.8041 294.403 19.2812H284.403ZM276.668 19.2812V9.28125C274 9.28125 271.443 10.3473 269.565 12.2423C267.687 14.1373 266.645 16.7041 266.669 19.3719L276.668 19.2812ZM286.207 36.5977L294.223 42.5773C296.064 40.1089 296.666 36.9298 295.853 33.9593C295.041 30.9889 292.905 28.5584 290.063 27.371L286.207 36.5977ZM282.168 42.0117L278.03 51.1154C282.312 53.0616 287.371 51.7611 290.184 47.9913L282.168 42.0117ZM273.231 31.6992L282.663 28.378C281.248 24.3585 277.441 21.6775 273.179 21.6994C268.918 21.7212 265.139 24.4412 263.765 28.475L273.231 31.6992ZM264.164 42.8281L256.157 48.818C259.024 52.6515 264.207 53.9149 268.517 51.8313L264.164 42.8281ZM260.082 37.3711L255.975 28.2534C253.209 29.4994 251.158 31.9338 250.4 34.8713C249.641 37.8087 250.258 40.9317 252.075 43.361L260.082 37.3711ZM269.621 19.2812L279.62 19.4253C279.659 16.7485 278.623 14.1679 276.743 12.2613C274.864 10.3547 272.299 9.28125 269.621 9.28125V19.2812ZM261.887 19.2812H251.887C251.887 24.8041 256.364 29.2812 261.887 29.2812V19.2812ZM261.887 13.8242V3.82422C256.364 3.82422 251.887 8.30137 251.887 13.8242H261.887ZM294.887 10.1289H284.887V50.0039H294.887H304.887V10.1289L294.887 10.1289ZM294.887 50.0039V40.0039H287.926V50.0039V60.0039H294.887V50.0039ZM287.926 50.0039H297.926V29.1641H287.926H277.926V50.0039H287.926ZM287.926 29.1641V19.1641H281.868V29.1641V39.1641H287.926V29.1641ZM281.868 29.1641H291.868V23.6211H281.868H271.868V29.1641H281.868ZM281.868 23.6211V33.6211H287.926V23.6211V13.6211H281.868V23.6211ZM287.926 23.6211H297.926V10.1289H287.926H277.926V23.6211H287.926ZM287.926 10.1289V20.1289H294.887V10.1289V0.128906L287.926 0.128906V10.1289ZM284.403 13.8242H274.403V19.2812H284.403H294.403V13.8242H284.403ZM284.403 19.2812V9.28125H276.668V19.2812V29.2812H284.403V19.2812ZM276.668 19.2812L266.669 19.3719C266.747 27.9633 269.593 40.4926 282.351 45.8243L286.207 36.5977L290.063 27.371C288.97 26.914 288.309 26.2518 287.771 25.1361C287.135 23.8157 286.692 21.8196 286.668 19.1906L276.668 19.2812ZM286.207 36.5977L278.192 30.618L274.153 36.0321L282.168 42.0117L290.184 47.9913L294.223 42.5773L286.207 36.5977ZM282.168 42.0117L286.306 32.9081C284.826 32.2352 283.585 30.9949 282.663 28.378L273.231 31.6992L263.798 35.0205C266.1 41.5559 270.53 47.7062 278.03 51.1154L282.168 42.0117ZM273.231 31.6992L263.765 28.475C262.666 31.7021 261.24 33.1347 259.812 33.8249L264.164 42.8281L268.517 51.8313C276.155 48.1388 280.444 41.5362 282.697 34.9234L273.231 31.6992ZM264.164 42.8281L272.172 36.8382L268.09 31.3812L260.082 37.3711L252.075 43.361L256.157 48.818L264.164 42.8281ZM260.082 37.3711L264.189 46.4888C276.75 40.8309 279.494 28.1777 279.62 19.4253L269.621 19.2812L259.622 19.1372C259.581 22.0031 259.116 24.2086 258.421 25.7092C257.815 27.018 257.074 27.7585 255.975 28.2534L260.082 37.3711ZM269.621 19.2812V9.28125H261.887V19.2812V29.2812H269.621V19.2812ZM261.887 19.2812H271.887V13.8242H261.887H251.887V19.2812H261.887ZM261.887 13.8242V23.8242H284.403V13.8242V3.82422H261.887V13.8242ZM330.723 10.2148H340.723C340.723 4.692 336.246 0.214844 330.723 0.214844V10.2148ZM330.723 21.8164H320.723C320.723 27.3393 325.2 31.8164 330.723 31.8164V21.8164ZM335.664 21.8164H345.664C345.664 16.2936 341.187 11.8164 335.664 11.8164V21.8164ZM335.664 27.4023V37.4023C341.187 37.4023 345.664 32.9252 345.664 27.4023H335.664ZM330.723 27.4023V17.4023C325.2 17.4023 320.723 21.8795 320.723 27.4023H330.723ZM330.723 39.8203V49.8203C336.246 49.8203 340.723 45.3432 340.723 39.8203H330.723ZM323.805 39.8203H313.805C313.805 45.3432 318.282 49.8203 323.805 49.8203V39.8203ZM323.805 10.2148V0.214844C318.282 0.214844 313.805 4.692 313.805 10.2148H323.805ZM322.387 13.9531H332.387C332.387 8.43028 327.91 3.95312 322.387 3.95312V13.9531ZM322.387 19.2812V29.2812C327.91 29.2812 332.387 24.8041 332.387 19.2812H322.387ZM298.883 19.2812H288.883C288.883 24.8041 293.36 29.2812 298.883 29.2812V19.2812ZM298.883 13.9531V3.95312C293.36 3.95312 288.883 8.43028 288.883 13.9531H298.883ZM307.176 13.9531V23.9531C312.699 23.9531 317.176 19.476 317.176 13.9531H307.176ZM307.176 10.1289V0.128906C301.653 0.128906 297.176 4.60606 297.176 10.1289L307.176 10.1289ZM314.094 10.1289H324.094C324.094 4.60606 319.617 0.128906 314.094 0.128906V10.1289ZM314.094 13.9531H304.094C304.094 19.476 308.571 23.9531 314.094 23.9531V13.9531ZM310.614 35.7812L310.688 25.7815C310.639 25.7812 310.589 25.7812 310.54 25.7815L310.614 35.7812ZM310.614 25.3828L310.826 15.3851C310.683 15.382 310.54 15.3821 310.396 15.3852L310.614 25.3828ZM331.883 43.8164H341.883C341.883 38.2936 337.406 33.8164 331.883 33.8164V43.8164ZM331.883 49.3164V59.3164C337.406 59.3164 341.883 54.8393 341.883 49.3164H331.883ZM304.383 49.3164H294.383C294.383 54.8393 298.86 59.3164 304.383 59.3164V49.3164ZM304.383 37.5859V27.5859C298.86 27.5859 294.383 32.0631 294.383 37.5859H304.383ZM311.301 37.5859H321.301C321.301 32.0631 316.824 27.5859 311.301 27.5859V37.5859ZM311.301 43.8164H301.301C301.301 49.3393 305.778 53.8164 311.301 53.8164V43.8164ZM330.723 10.2148H320.723V21.8164H330.723L340.723 21.8164V10.2148H330.723ZM330.723 21.8164V31.8164H335.664V21.8164V11.8164H330.723V21.8164ZM335.664 21.8164L325.664 21.8164V27.4023L335.664 27.4023H345.664V21.8164H335.664ZM335.664 27.4023V17.4023L330.723 17.4023V27.4023V37.4023H335.664V27.4023ZM330.723 27.4023H320.723V39.8203H330.723H340.723V27.4023L330.723 27.4023ZM330.723 39.8203V29.8203H323.805V39.8203V49.8203H330.723V39.8203ZM323.805 39.8203H333.805V10.2148H323.805H313.805V39.8203H323.805ZM323.805 10.2148V20.2148H330.723V10.2148V0.214844L323.805 0.214844V10.2148ZM322.387 13.9531H312.387V19.2812H322.387H332.387V13.9531H322.387ZM322.387 19.2812V9.28125L298.883 9.28125V19.2812V29.2812H322.387V19.2812ZM298.883 19.2812H308.883V13.9531H298.883H288.883V19.2812H298.883ZM298.883 13.9531V23.9531H307.176V13.9531V3.95312H298.883V13.9531ZM307.176 13.9531H317.176V10.1289H307.176L297.176 10.1289V13.9531H307.176ZM307.176 10.1289V20.1289H314.094V10.1289V0.128906L307.176 0.128906V10.1289ZM314.094 10.1289H304.094V13.9531H314.094H324.094V10.1289H314.094ZM314.094 13.9531V23.9531H322.387V13.9531V3.95312L314.094 3.95312V13.9531ZM310.614 20.1836V30.1836C311.738 30.1836 311.904 30.4987 311.558 30.2257C311.369 30.0764 311.087 29.7876 310.86 29.3326C310.627 28.8657 310.539 28.4018 310.539 28.0469H320.539H330.539C330.539 22.4859 327.962 17.6926 323.946 14.5243C320.087 11.4799 315.29 10.1836 310.614 10.1836V20.1836ZM320.539 28.0469H310.539C310.539 27.691 310.627 27.2082 310.877 26.7141C311.12 26.2317 311.423 25.9231 311.633 25.7613C312.011 25.4683 311.855 25.7902 310.688 25.7815L310.614 35.7812L310.54 45.781C315.173 45.8153 319.98 44.5903 323.871 41.5795C327.942 38.4296 330.539 33.6262 330.539 28.0469H320.539ZM310.614 35.7812L310.54 25.7815C309.335 25.7904 309.142 25.4596 309.501 25.7343C309.701 25.8881 310.006 26.1922 310.254 26.6789C310.509 27.1787 310.602 27.6738 310.602 28.0469H300.602H290.602C290.602 33.6672 293.246 38.4736 297.332 41.6065C301.235 44.599 306.049 45.8151 310.687 45.781L310.614 35.7812ZM300.602 28.0469H310.602C310.602 28.4189 310.51 28.8951 310.271 29.3677C310.039 29.8271 309.756 30.1117 309.576 30.2531C309.249 30.5082 309.45 30.1836 310.614 30.1836V20.1836V10.1836C301.679 10.1836 290.602 15.7314 290.602 28.0469H300.602ZM310.614 25.3828L310.396 15.3852C308.31 15.4305 305.084 15.8802 302.168 18.1085C298.787 20.6923 297.348 24.4775 297.348 28.0469H307.348H317.348C317.348 28.7914 317.212 29.8621 316.671 31.0425C316.114 32.2572 315.275 33.2635 314.311 33.9999C312.534 35.3581 310.941 35.3781 310.831 35.3805L310.614 25.3828ZM307.348 28.0469H297.348C297.348 31.6209 298.799 35.4815 302.313 38.0671C305.305 40.2685 308.576 40.625 310.614 40.625V30.625V20.625C310.674 20.625 312.313 20.5947 314.166 21.9583C315.181 22.7046 316.064 23.7388 316.648 24.9945C317.213 26.2094 317.348 27.3057 317.348 28.0469H307.348ZM310.614 30.625V40.625C312.645 40.625 315.853 40.2782 318.818 38.1946C322.344 35.7165 324.008 31.8671 324.008 28.0469H314.008H304.008C304.008 27.2154 304.172 26.051 304.788 24.7981C305.418 23.5172 306.337 22.5207 307.319 21.8308C309.092 20.5851 310.602 20.625 310.614 20.625V30.625ZM314.008 28.0469H324.008C324.008 24.2371 322.362 20.4566 318.963 17.9763C316.068 15.8636 312.902 15.4292 310.826 15.3851L310.614 25.3828L310.401 35.3806C310.345 35.3794 308.876 35.3747 307.174 34.1321C306.239 33.4499 305.365 32.4781 304.763 31.2376C304.173 30.0196 304.008 28.8813 304.008 28.0469H314.008ZM331.883 43.8164H321.883V49.3164H331.883H341.883V43.8164H331.883ZM331.883 49.3164V39.3164H304.383V49.3164V59.3164H331.883V49.3164ZM304.383 49.3164H314.383V37.5859H304.383H294.383V49.3164H304.383ZM304.383 37.5859V47.5859H311.301V37.5859V27.5859H304.383V37.5859ZM311.301 37.5859H301.301V43.8164H311.301H321.301V37.5859H311.301ZM311.301 43.8164V53.8164H331.883V43.8164V33.8164H311.301V43.8164Z" fill="white" mask="url(#path-1-outside-1_3990_1456)"/>
</g>
<defs>
<filter id="filter0_d_3990_1456" x="0" y="0" width="349.664" height="68.0039" filterUnits="userSpaceOnUse" color-interpolation-filters="sRGB">
<feFlood flood-opacity="0" result="BackgroundImageFix"/>
<feColorMatrix in="SourceAlpha" type="matrix" values="0 0 0 0 0 0 0 0 0 0 0 0 0 0 0 0 0 0 127 0" result="hardAlpha"/>
<feOffset dy="4"/>
<feGaussianBlur stdDeviation="2"/>
<feComposite in2="hardAlpha" operator="out"/>
<feColorMatrix type="matrix" values="0 0 0 0 0 0 0 0 0 0 0 0 0 0 0 0 0 0 0.07 0"/>
<feBlend mode="normal" in2="BackgroundImageFix" result="effect1_dropShadow_3990_1456"/>
<feBlend mode="normal" in="SourceGraphic" in2="effect1_dropShadow_3990_1456" result="shape"/>
</filter>
</defs>
</svg>
