<svg width="254" height="68" viewBox="0 0 254 68" fill="none" xmlns="http://www.w3.org/2000/svg">
<g filter="url(#filter0_d_3990_1503)">
<mask id="path-1-outside-1_3990_1503" maskUnits="userSpaceOnUse" x="3.17194" y="-0.507813" width="247" height="61" fill="black">
<rect fill="white" x="3.17194" y="-0.507813" width="247" height="61"/>
<path d="M30.543 19.9688C30.5001 25.8555 32.8204 32.8164 39.8672 35.9961L36.086 41.3672C31.7676 39.4766 28.8887 35.8887 27.1915 31.5703C25.4512 36.3828 22.4864 40.3574 17.9532 42.3984L14.0001 36.9844C21.1758 33.6758 23.5391 26.4141 23.5391 19.9688V19.2812H15.6758V13.6953H37.9337V19.2812H30.543V19.9688ZM46.7852 10V24.6094H52.1563V30.3242H46.7852V49.7461H39.8672V10L46.7852 10ZM86.8321 10V49.7461H79.8282V10H86.8321ZM74.8008 14.082C74.8008 26.543 71.2774 36.4688 56.5391 43.3438L53.0157 37.9297C62.9415 33.2031 66.9161 27.7461 67.7969 19.4531H55.293V14.082H74.8008ZM127.395 27.7461V33.2031H112.656V35.3086C119.209 35.9746 123.055 38.4668 123.098 42.4844C123.055 47.2109 117.813 49.832 109.176 49.832C100.41 49.832 95.1251 47.2109 95.1251 42.4844C95.1251 38.4238 99.0782 35.9316 105.824 35.3086V33.2031H91.129V27.7461H127.395ZM109.176 40.3359C104.234 40.3789 102.129 40.9805 102.172 42.4844C102.129 43.9883 104.234 44.6758 109.176 44.6758C113.988 44.6758 116.18 43.9883 116.18 42.4844C116.18 40.9805 113.988 40.3789 109.176 40.3359ZM124.086 11.5898V17.0039H114.633C115.815 18.9375 118.973 20.8926 126.148 21.4297L123.785 26.8008C115.815 26.1777 111.238 23.4707 109.176 19.9687C107.135 23.4492 102.623 26.1777 94.6954 26.8008L92.418 21.4297C99.3575 20.8926 102.537 18.916 103.762 17.0039H94.4376V11.5898L124.086 11.5898ZM162.672 10.0859V32.3867H155.754V10.0859H162.672ZM162.672 33.9336V49.4023L135.559 49.4023V33.9336L162.672 33.9336ZM142.348 39.3477V43.9023H155.926V39.3477H142.348ZM145.098 15.2852C145.055 19.582 147.16 24.0078 153.906 25.8984L150.598 31.1836C146.172 29.9805 143.272 27.5957 141.531 24.4805C139.727 27.875 136.676 30.5605 132.035 31.8711L128.684 26.5C135.816 24.5234 137.879 19.668 137.922 15.2852V11.4609H145.098V15.2852ZM190.215 11.9336V17.3477H182.996C183.34 21.3652 185.639 25.4902 191.633 27.4453L188.324 32.7305C184.049 31.4629 181.213 28.9062 179.516 25.6836C177.754 29.25 174.789 32.1074 170.234 33.4609L166.711 28.0469C173.113 26.1348 175.455 21.5801 175.863 17.3477H168.602V11.9336L190.215 11.9336ZM201 35.1367V49.7461H194.125V40.5937H173.371V35.1367H201ZM201 10V33.6328H194.125V24.6094H189.184V19.0234H194.125V10H201ZM238.727 10.0859V38.3164H231.809V10.0859L238.727 10.0859ZM239.672 43.6875V49.1875H211.527V35.4805H218.488V43.6875H239.672ZM216.77 12.4492C222.957 12.4492 227.898 16.7461 227.898 22.6328C227.898 28.6484 222.957 32.9023 216.77 32.9023C210.582 32.9023 205.598 28.6484 205.641 22.6328C205.598 16.7461 210.582 12.4492 216.77 12.4492ZM216.77 18.4219C214.234 18.4219 212.344 19.8398 212.344 22.6328C212.344 25.5547 214.234 26.9297 216.77 26.9297C219.176 26.9297 221.066 25.5547 221.066 22.6328C221.066 19.8398 219.176 18.4219 216.77 18.4219Z"/>
</mask>
<path d="M30.543 19.9688C30.5001 25.8555 32.8204 32.8164 39.8672 35.9961L36.086 41.3672C31.7676 39.4766 28.8887 35.8887 27.1915 31.5703C25.4512 36.3828 22.4864 40.3574 17.9532 42.3984L14.0001 36.9844C21.1758 33.6758 23.5391 26.4141 23.5391 19.9688V19.2812H15.6758V13.6953H37.9337V19.2812H30.543V19.9688ZM46.7852 10V24.6094H52.1563V30.3242H46.7852V49.7461H39.8672V10L46.7852 10ZM86.8321 10V49.7461H79.8282V10H86.8321ZM74.8008 14.082C74.8008 26.543 71.2774 36.4688 56.5391 43.3438L53.0157 37.9297C62.9415 33.2031 66.9161 27.7461 67.7969 19.4531H55.293V14.082H74.8008ZM127.395 27.7461V33.2031H112.656V35.3086C119.209 35.9746 123.055 38.4668 123.098 42.4844C123.055 47.2109 117.813 49.832 109.176 49.832C100.41 49.832 95.1251 47.2109 95.1251 42.4844C95.1251 38.4238 99.0782 35.9316 105.824 35.3086V33.2031H91.129V27.7461H127.395ZM109.176 40.3359C104.234 40.3789 102.129 40.9805 102.172 42.4844C102.129 43.9883 104.234 44.6758 109.176 44.6758C113.988 44.6758 116.18 43.9883 116.18 42.4844C116.18 40.9805 113.988 40.3789 109.176 40.3359ZM124.086 11.5898V17.0039H114.633C115.815 18.9375 118.973 20.8926 126.148 21.4297L123.785 26.8008C115.815 26.1777 111.238 23.4707 109.176 19.9687C107.135 23.4492 102.623 26.1777 94.6954 26.8008L92.418 21.4297C99.3575 20.8926 102.537 18.916 103.762 17.0039H94.4376V11.5898L124.086 11.5898ZM162.672 10.0859V32.3867H155.754V10.0859H162.672ZM162.672 33.9336V49.4023L135.559 49.4023V33.9336L162.672 33.9336ZM142.348 39.3477V43.9023H155.926V39.3477H142.348ZM145.098 15.2852C145.055 19.582 147.16 24.0078 153.906 25.8984L150.598 31.1836C146.172 29.9805 143.272 27.5957 141.531 24.4805C139.727 27.875 136.676 30.5605 132.035 31.8711L128.684 26.5C135.816 24.5234 137.879 19.668 137.922 15.2852V11.4609H145.098V15.2852ZM190.215 11.9336V17.3477H182.996C183.34 21.3652 185.639 25.4902 191.633 27.4453L188.324 32.7305C184.049 31.4629 181.213 28.9062 179.516 25.6836C177.754 29.25 174.789 32.1074 170.234 33.4609L166.711 28.0469C173.113 26.1348 175.455 21.5801 175.863 17.3477H168.602V11.9336L190.215 11.9336ZM201 35.1367V49.7461H194.125V40.5937H173.371V35.1367H201ZM201 10V33.6328H194.125V24.6094H189.184V19.0234H194.125V10H201ZM238.727 10.0859V38.3164H231.809V10.0859L238.727 10.0859ZM239.672 43.6875V49.1875H211.527V35.4805H218.488V43.6875H239.672ZM216.77 12.4492C222.957 12.4492 227.898 16.7461 227.898 22.6328C227.898 28.6484 222.957 32.9023 216.77 32.9023C210.582 32.9023 205.598 28.6484 205.641 22.6328C205.598 16.7461 210.582 12.4492 216.77 12.4492ZM216.77 18.4219C214.234 18.4219 212.344 19.8398 212.344 22.6328C212.344 25.5547 214.234 26.9297 216.77 26.9297C219.176 26.9297 221.066 25.5547 221.066 22.6328C221.066 19.8398 219.176 18.4219 216.77 18.4219Z" fill="#11DCA9"/>
<path d="M30.543 19.9688L40.5428 20.0417C40.5429 20.0174 40.543 19.9931 40.543 19.9688H30.543ZM39.8672 35.9961L48.0442 41.7526C49.7609 39.3141 50.2997 36.2367 49.5135 33.36C48.7274 30.4833 46.6984 28.1076 43.9801 26.881L39.8672 35.9961ZM36.086 41.3672L32.0754 50.5277C36.4306 52.4344 41.5261 51.0113 44.2629 47.1237L36.086 41.3672ZM27.1915 31.5703L36.4984 27.9124C34.9762 24.0395 31.2148 21.514 27.0539 21.5713C22.893 21.6285 19.2025 24.2565 17.7874 28.1697L27.1915 31.5703ZM17.9532 42.3984L9.87693 48.2954C12.6652 52.1141 17.7471 53.458 22.0586 51.5168L17.9532 42.3984ZM14.0001 36.9844L9.81293 27.9032C7.09027 29.1586 5.07451 31.5693 4.32102 34.4712C3.56753 37.3731 4.15582 40.46 5.9238 42.8813L14.0001 36.9844ZM23.5391 19.2812H33.5391C33.5391 13.7584 29.062 9.28125 23.5391 9.28125V19.2812ZM15.6758 19.2812H5.67584C5.67584 24.8041 10.153 29.2812 15.6758 29.2812V19.2812ZM15.6758 13.6953V3.69531C10.153 3.69531 5.67584 8.17247 5.67584 13.6953H15.6758ZM37.9337 13.6953H47.9337C47.9337 8.17247 43.4565 3.69531 37.9337 3.69531V13.6953ZM37.9337 19.2812V29.2812C43.4565 29.2812 47.9337 24.8041 47.9337 19.2812H37.9337ZM30.543 19.2812V9.28125C25.0202 9.28125 20.543 13.7584 20.543 19.2812H30.543ZM46.7852 10H56.7852C56.7852 4.47715 52.3081 0 46.7852 0V10ZM46.7852 24.6094H36.7852C36.7852 30.1322 41.2624 34.6094 46.7852 34.6094V24.6094ZM52.1563 24.6094H62.1563C62.1563 19.0865 57.6792 14.6094 52.1563 14.6094V24.6094ZM52.1563 30.3242V40.3242C57.6792 40.3242 62.1563 35.8471 62.1563 30.3242H52.1563ZM46.7852 30.3242V20.3242C41.2624 20.3242 36.7852 24.8014 36.7852 30.3242H46.7852ZM46.7852 49.7461V59.7461C52.3081 59.7461 56.7852 55.2689 56.7852 49.7461H46.7852ZM39.8672 49.7461H29.8672C29.8672 55.2689 34.3444 59.7461 39.8672 59.7461V49.7461ZM39.8672 10V0C34.3444 0 29.8672 4.47715 29.8672 10H39.8672ZM30.543 19.9688L20.5433 19.8958C20.484 28.0125 23.7518 39.6953 35.7544 45.1111L39.8672 35.9961L43.9801 26.881C42.7357 26.3195 41.9947 25.52 41.4673 24.4788C40.8716 23.3029 40.5304 21.7302 40.5428 20.0417L30.543 19.9688ZM39.8672 35.9961L31.6903 30.2395L27.9091 35.6106L36.086 41.3672L44.2629 47.1237L48.0442 41.7526L39.8672 35.9961ZM36.086 41.3672L40.0966 32.2067C38.7627 31.6227 37.4773 30.403 36.4984 27.9124L27.1915 31.5703L17.8845 35.2283C20.3001 41.3744 24.7726 47.3304 32.0754 50.5277L36.086 41.3672ZM27.1915 31.5703L17.7874 28.1697C16.6626 31.2803 15.202 32.6703 13.8477 33.28L17.9532 42.3984L22.0586 51.5168C29.7708 48.0445 34.2398 41.4854 36.5955 34.9709L27.1915 31.5703ZM17.9532 42.3984L26.0294 36.5015L22.0763 31.0874L14.0001 36.9844L5.9238 42.8813L9.87693 48.2954L17.9532 42.3984ZM14.0001 36.9844L18.1872 46.0656C30.3907 40.4388 33.5391 28.3629 33.5391 19.9688H23.5391H13.5391C13.5391 22.0572 13.1441 23.8994 12.4815 25.2508C11.8881 26.4612 11.0828 27.3177 9.81293 27.9032L14.0001 36.9844ZM23.5391 19.9688H33.5391V19.2812H23.5391H13.5391V19.9688H23.5391ZM23.5391 19.2812V9.28125H15.6758V19.2812V29.2812H23.5391V19.2812ZM15.6758 19.2812H25.6758V13.6953H15.6758H5.67584V19.2812H15.6758ZM15.6758 13.6953V23.6953H37.9337V13.6953V3.69531L15.6758 3.69531V13.6953ZM37.9337 13.6953H27.9337V19.2812H37.9337H47.9337V13.6953H37.9337ZM37.9337 19.2812V9.28125H30.543V19.2812V29.2812H37.9337V19.2812ZM30.543 19.2812H20.543V19.9688H30.543H40.543V19.2812H30.543ZM46.7852 10L36.7852 10V24.6094H46.7852H56.7852V10H46.7852ZM46.7852 24.6094V34.6094H52.1563V24.6094V14.6094H46.7852V24.6094ZM52.1563 24.6094H42.1563V30.3242H52.1563H62.1563V24.6094H52.1563ZM52.1563 30.3242V20.3242H46.7852V30.3242V40.3242H52.1563V30.3242ZM46.7852 30.3242H36.7852V49.7461H46.7852H56.7852V30.3242H46.7852ZM46.7852 49.7461V39.7461H39.8672V49.7461V59.7461H46.7852V49.7461ZM39.8672 49.7461H49.8672V10L39.8672 10H29.8672V49.7461H39.8672ZM39.8672 10V20H46.7852V10V0H39.8672V10ZM86.8321 10H96.8321C96.8321 4.47715 92.3549 0 86.8321 0V10ZM86.8321 49.7461V59.7461C92.3549 59.7461 96.8321 55.2689 96.8321 49.7461H86.8321ZM79.8282 49.7461H69.8282C69.8282 55.2689 74.3053 59.7461 79.8282 59.7461V49.7461ZM79.8282 10V0C74.3053 0 69.8282 4.47715 69.8282 10H79.8282ZM74.8008 14.082L84.8008 14.082C84.8008 8.55918 80.3237 4.08203 74.8008 4.08203V14.082ZM56.5391 43.3438L48.1577 48.7983C50.8752 52.9739 56.2516 54.5123 60.7665 52.4063L56.5391 43.3438ZM53.0157 37.9297L48.7164 28.9011C46.1138 30.1404 44.1727 32.4424 43.3907 35.2169C42.6087 37.9913 43.062 40.9683 44.6343 43.3842L53.0157 37.9297ZM67.7969 19.4531L77.741 20.5094C78.0405 17.6892 77.1286 14.8745 75.2321 12.7659C73.3356 10.6573 70.6329 9.45312 67.7969 9.45312V19.4531ZM55.293 19.4531H45.293C45.293 24.976 49.7702 29.4531 55.293 29.4531V19.4531ZM55.293 14.082V4.08203C49.7702 4.08203 45.293 8.55918 45.293 14.082H55.293ZM86.8321 10H76.8321V49.7461H86.8321H96.8321V10H86.8321ZM86.8321 49.7461V39.7461H79.8282V49.7461V59.7461H86.8321V49.7461ZM79.8282 49.7461H89.8282V10H79.8282H69.8282V49.7461H79.8282ZM79.8282 10V20H86.8321V10V0L79.8282 0V10ZM74.8008 14.082H64.8008C64.8008 19.4566 64.0225 23.132 62.4566 25.9487C60.9742 28.6154 58.22 31.5252 52.3117 34.2812L56.5391 43.3438L60.7665 52.4063C69.5965 48.2873 75.9732 42.7967 79.9371 35.6665C83.8175 28.6864 84.8008 21.1684 84.8008 14.082L74.8008 14.082ZM56.5391 43.3438L64.9205 37.8892L61.3971 32.4751L53.0157 37.9297L44.6343 43.3842L48.1577 48.7983L56.5391 43.3438ZM53.0157 37.9297L57.315 46.9583C63.0947 44.2061 68.0419 40.8257 71.6692 36.197C75.4069 31.4275 77.1474 26.0982 77.741 20.5094L67.7969 19.4531L57.8529 18.3969C57.5657 21.101 56.8784 22.6468 55.9271 23.8606C54.8655 25.2154 52.8625 26.9267 48.7164 28.9011L53.0157 37.9297ZM67.7969 19.4531V9.45312H55.293V19.4531V29.4531H67.7969V19.4531ZM55.293 19.4531H65.293V14.082H55.293H45.293V19.4531H55.293ZM55.293 14.082V24.082H74.8008V14.082V4.08203L55.293 4.08203V14.082ZM127.395 27.7461H137.395C137.395 22.2232 132.917 17.7461 127.395 17.7461V27.7461ZM127.395 33.2031V43.2031C132.917 43.2031 137.395 38.726 137.395 33.2031H127.395ZM112.656 33.2031V23.2031C107.133 23.2031 102.656 27.6803 102.656 33.2031H112.656ZM112.656 35.3086H102.656C102.656 40.4399 106.54 44.7385 111.645 45.2573L112.656 35.3086ZM123.098 42.4844L133.097 42.5753C133.098 42.5093 133.098 42.4434 133.097 42.3774L123.098 42.4844ZM105.824 35.3086L106.744 45.2662C111.889 44.7911 115.824 40.4751 115.824 35.3086H105.824ZM105.824 33.2031H115.824C115.824 27.6803 111.347 23.2031 105.824 23.2031V33.2031ZM91.129 33.2031H81.129C81.129 38.726 85.6061 43.2031 91.129 43.2031V33.2031ZM91.129 27.7461V17.7461C85.6061 17.7461 81.129 22.2232 81.129 27.7461H91.129ZM109.176 40.3359L109.265 30.3363C109.206 30.3358 109.148 30.3358 109.089 30.3363L109.176 40.3359ZM102.172 42.4844L112.168 42.77C112.173 42.5796 112.173 42.3891 112.168 42.1988L102.172 42.4844ZM124.086 11.5898H134.086C134.086 6.067 129.609 1.58984 124.086 1.58984V11.5898ZM124.086 17.0039V27.0039C129.609 27.0039 134.086 22.5268 134.086 17.0039H124.086ZM114.633 17.0039V7.00391C111.016 7.00391 107.68 8.95737 105.911 12.1123C104.142 15.2673 104.214 19.1319 106.1 22.2184L114.633 17.0039ZM126.148 21.4297L135.302 25.4571C136.609 22.4857 136.393 19.0646 134.722 16.2816C133.05 13.4985 130.132 11.6999 126.895 11.4576L126.148 21.4297ZM123.785 26.8008L123.006 36.7704C127.243 37.1016 131.227 34.7183 132.938 30.8282L123.785 26.8008ZM109.176 19.9687L117.792 14.8939C115.993 11.8393 112.712 9.96541 109.166 9.96875C105.621 9.9721 102.343 11.8521 100.55 14.9102L109.176 19.9687ZM94.6954 26.8008L85.4888 30.7044C87.1678 34.6643 91.1909 37.107 95.4789 36.77L94.6954 26.8008ZM92.418 21.4297L91.6463 11.4595C88.4379 11.7078 85.5451 13.485 83.8733 16.2347C82.2016 18.9844 81.9552 22.3706 83.2114 25.3333L92.418 21.4297ZM103.762 17.0039L112.183 22.3971C114.154 19.3192 114.289 15.4111 112.535 12.2045C110.781 8.99799 107.417 7.00391 103.762 7.00391V17.0039ZM94.4376 17.0039H84.4376C84.4376 22.5268 88.9147 27.0039 94.4376 27.0039V17.0039ZM94.4376 11.5898V1.58984C88.9147 1.58984 84.4376 6.067 84.4376 11.5898H94.4376ZM127.395 27.7461H117.395V33.2031H127.395H137.395V27.7461H127.395ZM127.395 33.2031V23.2031H112.656V33.2031V43.2031H127.395V33.2031ZM112.656 33.2031H102.656V35.3086H112.656H122.656V33.2031H112.656ZM112.656 35.3086L111.645 45.2573C112.776 45.3723 113.591 45.5474 114.137 45.7132C114.693 45.8824 114.829 45.9994 114.714 45.9216C114.577 45.8289 114.128 45.4837 113.718 44.7769C113.285 44.0307 113.105 43.2377 113.098 42.5913L123.098 42.4844L133.097 42.3774C133.036 36.6201 130.014 32.1265 125.923 29.3577C122.228 26.8578 117.79 25.7789 113.667 25.3598L112.656 35.3086ZM123.098 42.4844L113.098 42.3935C113.105 41.6264 113.359 40.7087 113.906 39.9211C114.397 39.2149 114.847 39.0057 114.745 39.0591C114.629 39.1191 114.152 39.3315 113.148 39.5195C112.165 39.7035 110.849 39.832 109.176 39.832V49.832V59.832C114.266 59.832 119.562 59.0973 123.974 56.8022C128.826 54.2785 133.035 49.4805 133.097 42.5753L123.098 42.4844ZM109.176 49.832V39.832C107.463 39.832 106.112 39.7024 105.101 39.5154C104.067 39.3243 103.571 39.1071 103.446 39.0424C103.331 38.9833 103.796 39.1942 104.301 39.9211C104.866 40.7357 105.125 41.6881 105.125 42.4844H95.1251H85.1251C85.1251 49.4778 89.4065 54.3059 94.2809 56.8189C98.7107 59.1027 104.041 59.832 109.176 59.832V49.832ZM95.1251 42.4844H105.125C105.125 43.1644 104.939 44.0009 104.482 44.784C104.05 45.5216 103.58 45.8702 103.452 45.9542C103.347 46.0235 103.507 45.8965 104.106 45.7218C104.692 45.5509 105.557 45.3758 106.744 45.2662L105.824 35.3086L104.905 25.351C100.71 25.7383 96.1944 26.7817 92.4375 29.2607C88.2601 32.017 85.1251 36.5787 85.1251 42.4844H95.1251ZM105.824 35.3086H115.824V33.2031H105.824H95.8243V35.3086H105.824ZM105.824 33.2031V23.2031H91.129V33.2031V43.2031H105.824V33.2031ZM91.129 33.2031H101.129V27.7461H91.129H81.129V33.2031H91.129ZM91.129 27.7461V37.7461H127.395V27.7461V17.7461H91.129V27.7461ZM109.176 40.3359L109.089 30.3363C106.548 30.3584 103.534 30.4982 100.915 31.289C99.5728 31.6941 97.3943 32.5371 95.4822 34.4492C93.2304 36.701 92.0882 39.6977 92.176 42.77L102.172 42.4844L112.168 42.1988C112.197 43.2113 112.046 44.3967 111.564 45.6222C111.08 46.8517 110.373 47.8427 109.624 48.5913C108.249 49.9663 106.898 50.3742 106.695 50.4356C106.393 50.5268 106.401 50.485 106.95 50.4321C107.454 50.3836 108.2 50.3448 109.263 50.3356L109.176 40.3359ZM102.172 42.4844L92.176 42.1988C92.0887 45.2537 93.2156 48.2047 95.387 50.4358C97.2577 52.3579 99.4069 53.2417 100.791 53.6792C103.484 54.5301 106.552 54.6758 109.176 54.6758V44.6758V34.6758C108.15 34.6758 107.438 34.6391 106.972 34.5932C106.464 34.543 106.486 34.504 106.818 34.6089C107.064 34.6865 108.386 35.1164 109.72 36.4867C110.439 37.2262 111.117 38.1971 111.581 39.3944C112.045 40.5901 112.197 41.7556 112.168 42.77L102.172 42.4844ZM109.176 44.6758V54.6758C111.769 54.6758 114.796 54.5246 117.47 53.6873C118.84 53.2585 120.925 52.4089 122.773 50.5918C124.906 48.4949 126.18 45.6249 126.18 42.4844H116.18H106.18C106.18 41.4266 106.379 40.2574 106.876 39.0912C107.37 37.9309 108.056 37.0139 108.751 36.3307C110.038 35.0655 111.275 34.6697 111.495 34.6008C111.798 34.5057 111.803 34.5449 111.308 34.5942C110.853 34.6396 110.162 34.6758 109.176 34.6758V44.6758ZM116.18 42.4844H126.18C126.18 39.3209 124.885 36.4091 122.676 34.2953C120.789 32.4896 118.677 31.679 117.348 31.2816C114.744 30.503 111.771 30.3587 109.265 30.3363L109.176 40.3359L109.087 50.3355C110.111 50.3447 110.837 50.383 111.331 50.4312C111.866 50.4833 111.892 50.5253 111.617 50.443C111.438 50.3893 110.174 50.0138 108.848 48.7452C108.126 48.0543 107.411 47.119 106.896 45.9279C106.38 44.7322 106.18 43.5424 106.18 42.4844H116.18ZM124.086 11.5898H114.086V17.0039H124.086H134.086V11.5898H124.086ZM124.086 17.0039V7.00391H114.633V17.0039V27.0039H124.086V17.0039ZM114.633 17.0039L106.1 22.2184C109.892 28.4231 117.354 30.7994 125.402 31.4018L126.148 21.4297L126.895 11.4576C124.024 11.2427 122.624 10.7846 122.131 10.57C121.678 10.3732 122.429 10.5846 123.166 11.7894L114.633 17.0039ZM126.148 21.4297L116.995 17.4023L114.632 22.7734L123.785 26.8008L132.938 30.8282L135.302 25.4571L126.148 21.4297ZM123.785 26.8008L124.565 16.8312C118.264 16.3387 117.529 14.4465 117.792 14.8939L109.176 19.9687L100.559 25.0436C104.948 32.4949 113.365 36.0168 123.006 36.7704L123.785 26.8008ZM109.176 19.9687L100.55 14.9102C100.807 14.4719 100.097 16.3454 93.9119 16.8315L94.6954 26.8008L95.4789 36.77C105.149 36.0101 113.463 32.4266 117.802 25.0273L109.176 19.9687ZM94.6954 26.8008L103.902 22.8972L101.625 17.5261L92.418 21.4297L83.2114 25.3333L85.4888 30.7044L94.6954 26.8008ZM92.418 21.4297L93.1897 31.3999C101.19 30.7807 108.397 28.3077 112.183 22.3971L103.762 17.0039L95.3408 11.6107C96.0295 10.5353 96.6702 10.3744 96.1992 10.5821C95.7047 10.8001 94.3533 11.25 91.6463 11.4595L92.418 21.4297ZM103.762 17.0039V7.00391H94.4376V17.0039V27.0039H103.762V17.0039ZM94.4376 17.0039H104.438V11.5898H94.4376H84.4376V17.0039H94.4376ZM94.4376 11.5898V21.5898H124.086V11.5898V1.58984H94.4376V11.5898ZM162.672 10.0859H172.672C172.672 4.56309 168.195 0.0859375 162.672 0.0859375V10.0859ZM162.672 32.3867V42.3867C168.195 42.3867 172.672 37.9096 172.672 32.3867H162.672ZM155.754 32.3867H145.754C145.754 37.9096 150.231 42.3867 155.754 42.3867V32.3867ZM155.754 10.0859V0.0859375C150.231 0.0859375 145.754 4.56309 145.754 10.0859H155.754ZM162.672 33.9336H172.672C172.672 28.4107 168.195 23.9336 162.672 23.9336V33.9336ZM162.672 49.4023V59.4023C168.195 59.4023 172.672 54.9252 172.672 49.4023H162.672ZM135.559 49.4023H125.559C125.559 54.9252 130.036 59.4023 135.559 59.4023V49.4023ZM135.559 33.9336V23.9336C130.036 23.9336 125.559 28.4107 125.559 33.9336H135.559ZM142.348 39.3477V29.3477C136.825 29.3477 132.348 33.8248 132.348 39.3477L142.348 39.3477ZM142.348 43.9023L132.348 43.9023C132.348 49.4252 136.825 53.9023 142.348 53.9023V43.9023ZM155.926 43.9023V53.9023C161.449 53.9023 165.926 49.4252 165.926 43.9023H155.926ZM155.926 39.3477H165.926C165.926 33.8248 161.449 29.3477 155.926 29.3477V39.3477ZM145.098 15.2852L155.097 15.3852C155.098 15.3518 155.098 15.3185 155.098 15.2852H145.098ZM153.906 25.8984L162.382 31.2046C164.055 28.5333 164.37 25.2299 163.233 22.2906C162.096 19.3512 159.64 17.1199 156.605 16.2694L153.906 25.8984ZM150.598 31.1836L147.974 40.8334C152.227 41.9895 156.735 40.2252 159.074 36.4898L150.598 31.1836ZM141.531 24.4805L150.262 19.6036C148.476 16.4079 145.088 14.4429 141.427 14.481C137.767 14.5191 134.42 16.554 132.702 19.7862L141.531 24.4805ZM132.035 31.8711L123.551 37.165C125.907 40.9392 130.472 42.7038 134.753 41.4947L132.035 31.8711ZM128.684 26.5L126.013 16.8632C122.974 17.7055 120.509 19.9325 119.365 22.8718C118.221 25.811 118.53 29.1179 120.2 31.7939L128.684 26.5ZM137.922 15.2852L147.921 15.3832C147.922 15.3505 147.922 15.3178 147.922 15.2852H137.922ZM137.922 11.4609V1.46094C132.399 1.46094 127.922 5.93809 127.922 11.4609H137.922ZM145.098 11.4609H155.098C155.098 5.93809 150.621 1.46094 145.098 1.46094V11.4609ZM162.672 10.0859H152.672V32.3867H162.672H172.672V10.0859H162.672ZM162.672 32.3867V22.3867H155.754V32.3867V42.3867H162.672V32.3867ZM155.754 32.3867H165.754V10.0859H155.754H145.754V32.3867H155.754ZM155.754 10.0859V20.0859H162.672V10.0859V0.0859375H155.754V10.0859ZM162.672 33.9336H152.672V49.4023H162.672H172.672V33.9336H162.672ZM162.672 49.4023V39.4023L135.559 39.4023V49.4023V59.4023L162.672 59.4023V49.4023ZM135.559 49.4023L145.559 49.4023V33.9336L135.559 33.9336H125.559V49.4023H135.559ZM135.559 33.9336V43.9336L162.672 43.9336V33.9336V23.9336H135.559V33.9336ZM142.348 39.3477L132.348 39.3477V43.9023L142.348 43.9023H152.348V39.3477H142.348ZM142.348 43.9023V53.9023H155.926V43.9023V33.9023H142.348V43.9023ZM155.926 43.9023H165.926V39.3477H155.926H145.926V43.9023H155.926ZM155.926 39.3477V29.3477H142.348V39.3477V49.3477H155.926V39.3477ZM145.098 15.2852L135.098 15.1852C135.06 18.9892 135.98 23.3949 138.863 27.3676C141.786 31.3959 146.085 34.0917 151.208 35.5274L153.906 25.8984L156.605 16.2694C155.763 16.0336 155.326 15.7917 155.145 15.6738C154.979 15.5652 154.988 15.5353 155.049 15.6207C155.204 15.8336 155.092 15.8779 155.097 15.3852L145.098 15.2852ZM153.906 25.8984L145.43 20.5923L142.122 25.8774L150.598 31.1836L159.074 36.4898L162.382 31.2046L153.906 25.8984ZM150.598 31.1836L153.221 21.5338C152.103 21.2299 151.466 20.8589 151.105 20.5852C150.756 20.3199 150.491 20.0136 150.262 19.6036L141.531 24.4805L132.801 29.3573C135.949 34.9923 141.151 38.9785 147.974 40.8334L150.598 31.1836ZM141.531 24.4805L132.702 19.7862C132.394 20.365 132.028 20.8046 131.585 21.1603C131.142 21.516 130.447 21.9285 129.317 22.2475L132.035 31.8711L134.753 41.4947C141.989 39.4513 147.262 35.0035 150.361 29.1747L141.531 24.4805ZM132.035 31.8711L140.519 26.5772L137.167 21.2061L128.684 26.5L120.2 31.7939L123.551 37.165L132.035 31.8711ZM128.684 26.5L131.354 36.1368C136.812 34.6244 141.208 31.7187 144.141 27.5471C146.995 23.489 147.885 19.0606 147.921 15.3832L137.922 15.2852L127.922 15.1871C127.919 15.5268 127.877 15.7593 127.839 15.8946C127.82 15.9593 127.804 15.998 127.796 16.0169C127.787 16.0347 127.783 16.0412 127.782 16.0427C127.781 16.0435 127.773 16.0548 127.75 16.0779C127.726 16.1012 127.67 16.1514 127.566 16.2211C127.362 16.3576 126.897 16.6181 126.013 16.8632L128.684 26.5ZM137.922 15.2852H147.922V11.4609H137.922H127.922V15.2852H137.922ZM137.922 11.4609V21.4609H145.098V11.4609V1.46094H137.922V11.4609ZM145.098 11.4609H135.098V15.2852H145.098H155.098V11.4609H145.098ZM190.215 11.9336H200.215C200.215 6.41075 195.738 1.93359 190.215 1.93359V11.9336ZM190.215 17.3477V27.3477C195.738 27.3477 200.215 22.8705 200.215 17.3477H190.215ZM182.996 17.3477V7.34766C180.196 7.34766 177.524 8.52187 175.63 10.5847C173.736 12.6475 172.794 15.41 173.033 18.2002L182.996 17.3477ZM191.633 27.4453L200.109 32.7515C201.742 30.1428 202.083 26.9274 201.033 24.0343C199.983 21.1411 197.66 18.8926 194.734 17.9382L191.633 27.4453ZM188.324 32.7305L185.482 42.318C189.788 43.5947 194.417 41.8437 196.8 38.0367L188.324 32.7305ZM179.516 25.6836L188.364 21.0237C186.612 17.6983 183.144 15.6357 179.386 15.6844C175.628 15.7332 172.214 17.885 170.55 21.2547L179.516 25.6836ZM170.234 33.4609L161.853 38.9155C164.269 42.6273 168.838 44.3082 173.083 43.0466L170.234 33.4609ZM166.711 28.0469L163.849 18.4651C160.828 19.3673 158.41 21.6412 157.324 24.6008C156.237 27.5604 156.61 30.859 158.33 33.5014L166.711 28.0469ZM175.863 17.3477L185.817 18.3077C186.088 15.5015 185.161 12.7115 183.266 10.6246C181.371 8.53762 178.683 7.34766 175.863 7.34766V17.3477ZM168.602 17.3477H158.602C158.602 22.8705 163.079 27.3477 168.602 27.3477V17.3477ZM168.602 11.9336V1.93359C163.079 1.93359 158.602 6.41075 158.602 11.9336H168.602ZM201 35.1367H211C211 29.6139 206.523 25.1367 201 25.1367V35.1367ZM201 49.7461V59.7461C206.523 59.7461 211 55.2689 211 49.7461H201ZM194.125 49.7461H184.125C184.125 55.2689 188.602 59.7461 194.125 59.7461V49.7461ZM194.125 40.5937H204.125C204.125 35.0709 199.648 30.5937 194.125 30.5937V40.5937ZM173.371 40.5937H163.371C163.371 46.1166 167.848 50.5937 173.371 50.5937V40.5937ZM173.371 35.1367V25.1367C167.848 25.1367 163.371 29.6139 163.371 35.1367H173.371ZM201 10H211C211 4.47715 206.523 0 201 0V10ZM201 33.6328V43.6328C206.523 43.6328 211 39.1557 211 33.6328H201ZM194.125 33.6328H184.125C184.125 39.1557 188.602 43.6328 194.125 43.6328V33.6328ZM194.125 24.6094H204.125C204.125 19.0865 199.648 14.6094 194.125 14.6094V24.6094ZM189.184 24.6094H179.184C179.184 30.1322 183.661 34.6094 189.184 34.6094V24.6094ZM189.184 19.0234V9.02344C183.661 9.02344 179.184 13.5006 179.184 19.0234H189.184ZM194.125 19.0234V29.0234C199.648 29.0234 204.125 24.5463 204.125 19.0234H194.125ZM194.125 10V0C188.602 0 184.125 4.47715 184.125 10H194.125ZM190.215 11.9336H180.215V17.3477H190.215H200.215V11.9336H190.215ZM190.215 17.3477V7.34766H182.996V17.3477V27.3477H190.215V17.3477ZM182.996 17.3477L173.033 18.2002C173.341 21.8092 174.561 25.7441 177.268 29.2653C180.008 32.8285 183.857 35.4276 188.532 36.9524L191.633 27.4453L194.734 17.9382C194.045 17.7137 193.644 17.4865 193.432 17.3422C193.226 17.2021 193.147 17.1052 193.123 17.0746C193.097 17.0401 192.995 16.9037 192.96 16.4952L182.996 17.3477ZM191.633 27.4453L183.157 22.1391L179.848 27.4243L188.324 32.7305L196.8 38.0367L200.109 32.7515L191.633 27.4453ZM188.324 32.7305L191.167 23.143C190.234 22.8663 189.671 22.5185 189.316 22.2254C188.957 21.9295 188.641 21.55 188.364 21.0237L179.516 25.6836L170.668 30.3435C173.604 35.9188 178.588 40.274 185.482 42.318L188.324 32.7305ZM179.516 25.6836L170.55 21.2547C169.925 22.5204 169.072 23.3743 167.386 23.8752L170.234 33.4609L173.083 43.0466C180.507 40.8405 185.583 35.9796 188.481 30.1125L179.516 25.6836ZM170.234 33.4609L178.616 28.0064L175.092 22.5923L166.711 28.0469L158.33 33.5014L161.853 38.9155L170.234 33.4609ZM166.711 28.0469L169.573 37.6287C174.643 36.1143 178.695 33.3369 181.521 29.5854C184.281 25.9231 185.474 21.8708 185.817 18.3077L175.863 17.3477L165.91 16.3876C165.845 17.057 165.662 17.3982 165.548 17.5494C165.491 17.6258 165.389 17.7403 165.181 17.8813C164.967 18.026 164.559 18.253 163.849 18.4651L166.711 28.0469ZM175.863 17.3477V7.34766L168.602 7.34766V17.3477V27.3477H175.863V17.3477ZM168.602 17.3477H178.602V11.9336L168.602 11.9336H158.602V17.3477H168.602ZM168.602 11.9336V21.9336H190.215V11.9336V1.93359L168.602 1.93359V11.9336ZM201 35.1367H191V49.7461H201H211V35.1367H201ZM201 49.7461V39.7461H194.125V49.7461V59.7461H201V49.7461ZM194.125 49.7461H204.125V40.5937H194.125H184.125V49.7461H194.125ZM194.125 40.5937V30.5937H173.371V40.5937V50.5937H194.125V40.5937ZM173.371 40.5937H183.371V35.1367H173.371H163.371V40.5937H173.371ZM173.371 35.1367V45.1367H201V35.1367V25.1367H173.371V35.1367ZM201 10H191V33.6328H201H211V10H201ZM201 33.6328V23.6328H194.125V33.6328V43.6328H201V33.6328ZM194.125 33.6328H204.125V24.6094H194.125H184.125V33.6328H194.125ZM194.125 24.6094V14.6094H189.184V24.6094V34.6094H194.125V24.6094ZM189.184 24.6094H199.184V19.0234H189.184H179.184V24.6094H189.184ZM189.184 19.0234V29.0234H194.125V19.0234V9.02344H189.184V19.0234ZM194.125 19.0234H204.125V10H194.125H184.125V19.0234H194.125ZM194.125 10V20H201V10V0L194.125 0V10ZM238.727 10.0859H248.727C248.727 4.56309 244.249 0.0859375 238.727 0.0859375V10.0859ZM238.727 38.3164V48.3164C244.249 48.3164 248.727 43.8393 248.727 38.3164H238.727ZM231.809 38.3164H221.809C221.809 43.8393 226.286 48.3164 231.809 48.3164V38.3164ZM231.809 10.0859V0.0859375C226.286 0.0859375 221.809 4.56309 221.809 10.0859H231.809ZM239.672 43.6875H249.672C249.672 38.1647 245.195 33.6875 239.672 33.6875V43.6875ZM239.672 49.1875V59.1875C245.195 59.1875 249.672 54.7103 249.672 49.1875H239.672ZM211.527 49.1875H201.527C201.527 54.7103 206.005 59.1875 211.527 59.1875V49.1875ZM211.527 35.4805V25.4805C206.005 25.4805 201.527 29.9576 201.527 35.4805H211.527ZM218.488 35.4805H228.488C228.488 29.9576 224.011 25.4805 218.488 25.4805V35.4805ZM218.488 43.6875H208.488C208.488 49.2103 212.965 53.6875 218.488 53.6875V43.6875ZM205.641 22.6328L215.64 22.7042C215.641 22.6561 215.641 22.608 215.64 22.5598L205.641 22.6328ZM238.727 10.0859L228.727 10.0859V38.3164H238.727H248.727V10.0859H238.727ZM238.727 38.3164V28.3164H231.809V38.3164V48.3164H238.727V38.3164ZM231.809 38.3164H241.809V10.0859L231.809 10.0859H221.809V38.3164H231.809ZM231.809 10.0859V20.0859H238.727V10.0859V0.0859375H231.809V10.0859ZM239.672 43.6875H229.672V49.1875H239.672H249.672V43.6875H239.672ZM239.672 49.1875V39.1875H211.527V49.1875V59.1875H239.672V49.1875ZM211.527 49.1875H221.527V35.4805H211.527H201.527V49.1875H211.527ZM211.527 35.4805V45.4805H218.488V35.4805V25.4805H211.527V35.4805ZM218.488 35.4805H208.488V43.6875H218.488H228.488V35.4805H218.488ZM218.488 43.6875V53.6875H239.672V43.6875V33.6875H218.488V43.6875ZM216.77 12.4492V22.4492C217.556 22.4492 217.907 22.7145 217.96 22.7625C217.986 22.7856 217.959 22.7678 217.928 22.6996C217.893 22.6226 217.898 22.582 217.898 22.6328H227.898H237.898C237.898 10.2688 227.475 2.44922 216.77 2.44922V12.4492ZM227.898 22.6328H217.898C217.898 22.7467 217.88 22.7399 217.91 22.6728C217.937 22.6131 217.965 22.5906 217.949 22.6043C217.919 22.6322 217.581 22.9023 216.77 22.9023V32.9023V42.9023C227.504 42.9023 237.898 35.0994 237.898 22.6328H227.898ZM216.77 32.9023V22.9023C215.951 22.9023 215.6 22.6277 215.564 22.5954C215.549 22.5816 215.583 22.6101 215.617 22.6851C215.654 22.7686 215.64 22.7961 215.64 22.7042L205.641 22.6328L195.641 22.5614C195.551 35.147 206.108 42.9023 216.77 42.9023V32.9023ZM205.641 22.6328L215.64 22.5598C215.64 22.5318 215.641 22.5937 215.599 22.6872C215.561 22.7708 215.527 22.7945 215.553 22.7714C215.611 22.7191 215.977 22.4492 216.77 22.4492V12.4492V2.44922C206.139 2.44922 195.55 10.2208 195.641 22.7058L205.641 22.6328ZM216.77 18.4219V8.42187C213.72 8.42187 210.02 9.281 206.953 12.0143C203.716 14.899 202.344 18.8404 202.344 22.6328L212.344 22.6328H222.344C222.344 23.6323 221.917 25.4682 220.259 26.9457C218.771 28.2717 217.284 28.4219 216.77 28.4219V18.4219ZM212.344 22.6328L202.344 22.6328C202.344 26.3614 203.632 30.361 206.925 33.3174C210.044 36.1181 213.792 36.9297 216.77 36.9297V26.9297V16.9297C217.212 16.9297 218.747 17.0538 220.287 18.4365C222.001 19.9749 222.344 21.8261 222.344 22.6328H212.344ZM216.77 26.9297V36.9297C219.801 36.9297 223.517 36.0539 226.578 33.2485C229.784 30.3089 231.066 26.3568 231.066 22.6328H221.066H211.066C211.066 21.8307 211.403 20.027 213.063 18.5054C214.577 17.118 216.144 16.9297 216.77 16.9297V26.9297ZM221.066 22.6328H231.066C231.066 18.8465 229.702 14.9508 226.55 12.0829C223.542 9.347 219.874 8.42187 216.77 8.42187V18.4219V28.4219C216.072 28.4219 214.552 28.2057 213.091 26.8771C211.485 25.4164 211.066 23.6261 211.066 22.6328H221.066Z" fill="white" mask="url(#path-1-outside-1_3990_1503)"/>
</g>
<defs>
<filter id="filter0_d_3990_1503" x="0" y="0" width="253.672" height="67.832" filterUnits="userSpaceOnUse" color-interpolation-filters="sRGB">
<feFlood flood-opacity="0" result="BackgroundImageFix"/>
<feColorMatrix in="SourceAlpha" type="matrix" values="0 0 0 0 0 0 0 0 0 0 0 0 0 0 0 0 0 0 127 0" result="hardAlpha"/>
<feOffset dy="4"/>
<feGaussianBlur stdDeviation="2"/>
<feComposite in2="hardAlpha" operator="out"/>
<feColorMatrix type="matrix" values="0 0 0 0 0 0 0 0 0 0 0 0 0 0 0 0 0 0 0.07 0"/>
<feBlend mode="normal" in2="BackgroundImageFix" result="effect1_dropShadow_3990_1503"/>
<feBlend mode="normal" in="SourceGraphic" in2="effect1_dropShadow_3990_1503" result="shape"/>
</filter>
</defs>
</svg>
