<svg width="303" height="68" viewBox="0 0 303 68" fill="none" xmlns="http://www.w3.org/2000/svg">
<g filter="url(#filter0_d_3990_1433)">
<mask id="path-1-outside-1_3990_1433" maskUnits="userSpaceOnUse" x="3.61333" y="-0.507813" width="295" height="61" fill="black">
<rect fill="white" x="3.61333" y="-0.507813" width="295" height="61"/>
<path d="M48.3321 10V33.5898H41.4571V24.8242H36.4727V19.2812H41.4571V10L48.3321 10ZM34.4961 34.2344C43.1329 34.2344 48.418 37.1133 48.418 42.0547C48.418 46.9531 43.1329 49.875 34.4961 49.875C25.9454 49.875 20.6602 46.9531 20.6602 42.0547C20.6602 37.1133 25.9454 34.2344 34.4961 34.2344ZM34.4961 39.4336C29.7696 39.4336 27.4922 40.1641 27.5352 42.0547C27.4922 43.9023 29.7696 44.6758 34.4961 44.6758C39.2657 44.6758 41.586 43.9023 41.586 42.0547C41.586 40.1641 39.2657 39.4336 34.4961 39.4336ZM37.5469 12.1055V17.6055H30.3711C30.7793 21.5801 33.0997 25.5762 38.9649 27.4883L35.6563 32.8594C31.4024 31.5488 28.5879 28.9707 26.8477 25.7695C25.129 29.4219 22.1426 32.3652 17.5665 33.8477L14 28.3906C20.3379 26.3711 22.7227 21.8594 23.1524 17.6055H15.9336V12.1055H37.5469ZM88.8516 39.9062V45.4492H52.543V39.9062H67.2383V33.332H56.1094V12.3633H63.0274V17.9062L78.1954 17.9062V12.3633H85.0704V33.332H74.0704V39.9062H88.8516ZM63.0274 27.875L78.1954 27.875V23.3203L63.0274 23.3203V27.875ZM112.356 12.75C112.356 16.875 115.535 22.2461 125.848 23.4922L123.184 28.9922C115.986 28.0469 111.26 25.0391 108.703 21.0859C106.125 25.0176 101.463 28.0469 94.3516 28.9922L91.6875 23.4922C101.914 22.2461 105.094 16.7891 105.094 12.75V11.0312L112.356 11.0312V12.75ZM126.836 31.1406V36.7266H111.969V49.7461H105.137V36.7266H90.5704V31.1406H126.836ZM152.059 11.9336V17.3906H144.969C145.549 20.8496 147.998 24.3516 153.906 25.8125L150.469 31.1836C146.086 30.002 143.143 27.5742 141.402 24.4805C139.598 27.8535 136.547 30.5391 131.949 31.8711L128.469 26.5C134.592 24.8242 137.084 21.1074 137.707 17.3906H130.316V11.9336H152.059ZM162.113 10V31.6133H155.195V10H162.113ZM141.832 33.0742V36.125H155.238V33.0742H162.113V49.4023L135.043 49.4023V33.0742L141.832 33.0742ZM141.832 43.9023H155.238V41.3672H141.832V43.9023ZM200.184 10V49.875H193.223V10H200.184ZM178.356 12.6641C184.414 12.6211 188.969 18.207 188.969 26.9727C188.969 35.8672 184.414 41.4102 178.356 41.4102C172.168 41.4102 167.57 35.8672 167.57 26.9727C167.57 18.207 172.168 12.6211 178.356 12.6641ZM178.356 18.8945C175.82 18.8516 174.231 21.4727 174.231 26.9727C174.231 32.5586 175.82 35.0937 178.356 35.0937C180.719 35.0937 182.352 32.5586 182.352 26.9727C182.352 21.4727 180.719 18.8516 178.356 18.8945ZM247.879 10V24.1797H251.016V29.8516H247.879V49.7461H241.09V10H247.879ZM219.777 13.5234V22.1172H220.723V13.5234H226.266V40.8516H214.191V13.5234H219.777ZM219.777 35.3086H220.723V27.4883H219.777V35.3086ZM232.969 13.5234V22.1172H234.086V13.5234H239.672V40.8516H227.512V13.5234H232.969ZM232.969 35.3086H234.086V27.4883H232.969V35.3086ZM288.527 31.1406V36.6406H252.262V31.1406H288.527ZM285.219 43.6875V49.1875H256.688V38.2305H263.52V43.6875H285.219ZM284.316 10.6445V22.418H263.477V24.2227H284.961V29.3359H256.645V17.5625H277.441V15.9297H256.602V10.6445H284.316Z"/>
</mask>
<path d="M48.3321 10V33.5898H41.4571V24.8242H36.4727V19.2812H41.4571V10L48.3321 10ZM34.4961 34.2344C43.1329 34.2344 48.418 37.1133 48.418 42.0547C48.418 46.9531 43.1329 49.875 34.4961 49.875C25.9454 49.875 20.6602 46.9531 20.6602 42.0547C20.6602 37.1133 25.9454 34.2344 34.4961 34.2344ZM34.4961 39.4336C29.7696 39.4336 27.4922 40.1641 27.5352 42.0547C27.4922 43.9023 29.7696 44.6758 34.4961 44.6758C39.2657 44.6758 41.586 43.9023 41.586 42.0547C41.586 40.1641 39.2657 39.4336 34.4961 39.4336ZM37.5469 12.1055V17.6055H30.3711C30.7793 21.5801 33.0997 25.5762 38.9649 27.4883L35.6563 32.8594C31.4024 31.5488 28.5879 28.9707 26.8477 25.7695C25.129 29.4219 22.1426 32.3652 17.5665 33.8477L14 28.3906C20.3379 26.3711 22.7227 21.8594 23.1524 17.6055H15.9336V12.1055H37.5469ZM88.8516 39.9062V45.4492H52.543V39.9062H67.2383V33.332H56.1094V12.3633H63.0274V17.9062L78.1954 17.9062V12.3633H85.0704V33.332H74.0704V39.9062H88.8516ZM63.0274 27.875L78.1954 27.875V23.3203L63.0274 23.3203V27.875ZM112.356 12.75C112.356 16.875 115.535 22.2461 125.848 23.4922L123.184 28.9922C115.986 28.0469 111.26 25.0391 108.703 21.0859C106.125 25.0176 101.463 28.0469 94.3516 28.9922L91.6875 23.4922C101.914 22.2461 105.094 16.7891 105.094 12.75V11.0312L112.356 11.0312V12.75ZM126.836 31.1406V36.7266H111.969V49.7461H105.137V36.7266H90.5704V31.1406H126.836ZM152.059 11.9336V17.3906H144.969C145.549 20.8496 147.998 24.3516 153.906 25.8125L150.469 31.1836C146.086 30.002 143.143 27.5742 141.402 24.4805C139.598 27.8535 136.547 30.5391 131.949 31.8711L128.469 26.5C134.592 24.8242 137.084 21.1074 137.707 17.3906H130.316V11.9336H152.059ZM162.113 10V31.6133H155.195V10H162.113ZM141.832 33.0742V36.125H155.238V33.0742H162.113V49.4023L135.043 49.4023V33.0742L141.832 33.0742ZM141.832 43.9023H155.238V41.3672H141.832V43.9023ZM200.184 10V49.875H193.223V10H200.184ZM178.356 12.6641C184.414 12.6211 188.969 18.207 188.969 26.9727C188.969 35.8672 184.414 41.4102 178.356 41.4102C172.168 41.4102 167.57 35.8672 167.57 26.9727C167.57 18.207 172.168 12.6211 178.356 12.6641ZM178.356 18.8945C175.82 18.8516 174.231 21.4727 174.231 26.9727C174.231 32.5586 175.82 35.0937 178.356 35.0937C180.719 35.0937 182.352 32.5586 182.352 26.9727C182.352 21.4727 180.719 18.8516 178.356 18.8945ZM247.879 10V24.1797H251.016V29.8516H247.879V49.7461H241.09V10H247.879ZM219.777 13.5234V22.1172H220.723V13.5234H226.266V40.8516H214.191V13.5234H219.777ZM219.777 35.3086H220.723V27.4883H219.777V35.3086ZM232.969 13.5234V22.1172H234.086V13.5234H239.672V40.8516H227.512V13.5234H232.969ZM232.969 35.3086H234.086V27.4883H232.969V35.3086ZM288.527 31.1406V36.6406H252.262V31.1406H288.527ZM285.219 43.6875V49.1875H256.688V38.2305H263.52V43.6875H285.219ZM284.316 10.6445V22.418H263.477V24.2227H284.961V29.3359H256.645V17.5625H277.441V15.9297H256.602V10.6445H284.316Z" fill="#11DCA9"/>
<path d="M48.3321 10H58.3321C58.3321 4.47715 53.8549 0 48.3321 0V10ZM48.3321 33.5898V43.5898C53.8549 43.5898 58.3321 39.1127 58.3321 33.5898H48.3321ZM41.4571 33.5898H31.4571C31.4571 39.1127 35.9342 43.5898 41.4571 43.5898V33.5898ZM41.4571 24.8242H51.4571C51.4571 19.3014 46.9799 14.8242 41.4571 14.8242V24.8242ZM36.4727 24.8242H26.4727C26.4727 30.3471 30.9499 34.8242 36.4727 34.8242V24.8242ZM36.4727 19.2812V9.28125C30.9499 9.28125 26.4727 13.7584 26.4727 19.2812H36.4727ZM41.4571 19.2812V29.2812C46.9799 29.2812 51.4571 24.8041 51.4571 19.2812H41.4571ZM41.4571 10V0C35.9342 0 31.4571 4.47715 31.4571 10H41.4571ZM27.5352 42.0547L37.5325 42.2872C37.5361 42.134 37.5361 41.9807 37.5326 41.8275L27.5352 42.0547ZM37.5469 12.1055L47.5469 12.1055C47.5469 6.58262 43.0698 2.10547 37.5469 2.10547V12.1055ZM37.5469 17.6055V27.6055C43.0698 27.6055 47.5469 23.1283 47.5469 17.6055H37.5469ZM30.3711 17.6055V7.60547C27.5412 7.60547 24.8437 8.80453 22.9476 10.9053C21.0515 13.0062 20.1343 15.812 20.4235 18.6271L30.3711 17.6055ZM38.9649 27.4883L47.4791 32.7331C49.0868 30.1232 49.4087 26.9202 48.3525 24.0426C47.2963 21.1651 44.9787 18.9308 42.0644 17.9808L38.9649 27.4883ZM35.6563 32.8594L32.712 42.4161C37.0679 43.7581 41.78 41.9848 44.1705 38.1041L35.6563 32.8594ZM26.8477 25.7695L35.6334 20.9934C33.8334 17.6822 30.3245 15.6643 26.5573 15.7738C22.79 15.8832 19.4043 18.1014 17.7995 21.5116L26.8477 25.7695ZM17.5665 33.8477L9.19559 39.3184C11.664 43.0953 16.3558 44.7514 20.6482 43.3609L17.5665 33.8477ZM14 28.3906L10.964 18.8626C7.98747 19.8111 5.62519 22.0961 4.57828 25.0394C3.53137 27.9828 3.92014 31.2463 5.62919 33.8613L14 28.3906ZM23.1524 17.6055L33.1018 18.6105C33.3859 15.7977 32.4662 12.9962 30.5703 10.8991C28.6744 8.80207 25.9794 7.60547 23.1524 7.60547V17.6055ZM15.9336 17.6055H5.93364C5.93364 23.1283 10.4108 27.6055 15.9336 27.6055V17.6055ZM15.9336 12.1055V2.10547C10.4108 2.10547 5.93364 6.58262 5.93364 12.1055H15.9336ZM48.3321 10L38.3321 10V33.5898H48.3321H58.3321V10H48.3321ZM48.3321 33.5898V23.5898H41.4571V33.5898V43.5898H48.3321V33.5898ZM41.4571 33.5898H51.4571V24.8242H41.4571H31.4571V33.5898H41.4571ZM41.4571 24.8242V14.8242H36.4727V24.8242V34.8242H41.4571V24.8242ZM36.4727 24.8242H46.4727V19.2812H36.4727H26.4727V24.8242H36.4727ZM36.4727 19.2812V29.2812H41.4571V19.2812V9.28125H36.4727V19.2812ZM41.4571 19.2812H51.4571V10L41.4571 10H31.4571V19.2812H41.4571ZM41.4571 10V20H48.3321V10V0H41.4571V10ZM34.4961 34.2344V44.2344C36.1187 44.2344 37.3879 44.3712 38.3258 44.5616C39.2812 44.7555 39.7287 44.9714 39.8295 45.0275C39.9133 45.0742 39.512 44.8702 39.086 44.2182C38.6176 43.5014 38.418 42.6952 38.418 42.0547H48.418H58.418C58.418 35.2516 54.4646 30.2863 49.5622 27.5555C45.0927 25.0657 39.6994 24.2344 34.4961 24.2344V34.2344ZM48.418 42.0547H38.418C38.418 41.3866 38.6267 40.5745 39.0913 39.865C39.5129 39.2211 39.9056 39.0231 39.8146 39.074C39.7085 39.1333 39.2584 39.3506 38.3073 39.5455C37.3733 39.737 36.1099 39.875 34.4961 39.875V49.875V59.875C39.7223 59.875 45.114 59.0256 49.5771 56.5295C54.4456 53.8066 58.418 48.8554 58.418 42.0547H48.418ZM34.4961 49.875V39.875C32.9097 39.875 31.6668 39.7379 30.7484 39.5484C29.813 39.3553 29.3715 39.1406 29.2696 39.0834C29.1824 39.0344 29.5726 39.2329 29.991 39.8732C30.4519 40.5786 30.6602 41.387 30.6602 42.0547H20.6602H10.6602C10.6602 48.8478 14.6239 53.7955 19.4737 56.5201C23.9256 59.0212 29.299 59.875 34.4961 59.875V49.875ZM20.6602 42.0547H30.6602C30.6602 42.6948 30.4609 43.4973 29.9962 44.2101C29.5734 44.8584 29.1747 45.063 29.2547 45.0182C29.3513 44.9642 29.7901 44.7509 30.7298 44.5588C31.6521 44.3702 32.9008 44.2344 34.4961 44.2344V34.2344V24.2344C29.3221 24.2344 23.9471 25.07 19.4886 27.5648C14.605 30.2974 10.6602 35.2592 10.6602 42.0547H20.6602ZM34.4961 39.4336V29.4336C31.9707 29.4336 28.7205 29.5812 25.8167 30.6347C24.2592 31.1997 22.0827 32.2766 20.2881 34.4095C18.3074 36.7637 17.4766 39.5902 17.5378 42.2819L27.5352 42.0547L37.5326 41.8275C37.5723 43.5739 37.0101 45.6 35.5919 47.2856C34.36 48.7498 33.0402 49.2896 32.6375 49.4356C32.2056 49.5923 32.0831 49.5641 32.5186 49.5155C32.9104 49.4717 33.5452 49.4336 34.4961 49.4336V39.4336ZM27.5352 42.0547L17.5379 41.8222C17.4742 44.5629 18.3415 47.3821 20.3074 49.7045C22.0847 51.8043 24.2321 52.8764 25.7781 53.4445C28.6799 54.5107 31.924 54.6758 34.4961 54.6758V44.6758V34.6758C33.5617 34.6758 32.9378 34.6362 32.5561 34.5921C32.1328 34.5432 32.2517 34.5158 32.6761 34.6717C33.0673 34.8155 34.358 35.3478 35.5727 36.7829C36.976 38.4407 37.5747 40.4703 37.5325 42.2872L27.5352 42.0547ZM34.4961 44.6758V54.6758C37.0967 54.6758 40.3305 54.5082 43.2229 53.4648C44.7583 52.9109 46.8781 51.8732 48.6606 49.8449C50.6335 47.5998 51.586 44.8269 51.586 42.0547H41.586H31.586C31.586 40.2063 32.2485 38.2229 33.6373 36.6426C34.8356 35.2789 36.0772 34.781 36.4364 34.6514C36.8304 34.5093 36.9211 34.5405 36.4821 34.5906C36.0829 34.6361 35.443 34.6758 34.4961 34.6758V44.6758ZM41.586 42.0547H51.586C51.586 39.3294 50.6702 36.547 48.6803 34.2689C46.8799 32.2078 44.7311 31.1656 43.1848 30.6148C40.2903 29.5839 37.0506 29.4336 34.4961 29.4336V39.4336V49.4336C35.4593 49.4336 36.11 49.4718 36.5192 49.5169C36.97 49.5667 36.8759 49.5985 36.4744 49.4555C36.1044 49.3237 34.8338 48.8186 33.6175 47.4262C32.2117 45.8167 31.586 43.8347 31.586 42.0547H41.586ZM37.5469 12.1055H27.5469V17.6055H37.5469H47.5469V12.1055L37.5469 12.1055ZM37.5469 17.6055V7.60547H30.3711V17.6055V27.6055H37.5469V17.6055ZM30.3711 17.6055L20.4235 18.6271C21.215 26.334 26.0513 33.7964 35.8654 36.9958L38.9649 27.4883L42.0644 17.9808C41.3926 17.7617 40.9977 17.541 40.7876 17.3996C40.5837 17.2624 40.505 17.1678 40.4823 17.1389C40.4599 17.1105 40.3601 16.9857 40.3188 16.5838L30.3711 17.6055ZM38.9649 27.4883L30.4506 22.2435L27.142 27.6146L35.6563 32.8594L44.1705 38.1041L47.4791 32.7331L38.9649 27.4883ZM35.6563 32.8594L38.6005 23.3026C37.672 23.0166 37.0915 22.6575 36.7042 22.3354C36.3104 22.0078 35.9533 21.5818 35.6334 20.9934L26.8477 25.7695L18.062 30.5457C20.9947 35.9405 25.8526 40.3029 32.712 42.4161L35.6563 32.8594ZM26.8477 25.7695L17.7995 21.5116C17.1963 22.7935 16.2969 23.7473 14.4847 24.3344L17.5665 33.8477L20.6482 43.3609C27.9884 40.9831 33.0616 36.0503 35.8959 30.0275L26.8477 25.7695ZM17.5665 33.8477L25.9373 28.3769L22.3709 22.9199L14 28.3906L5.62919 33.8613L9.19559 39.3184L17.5665 33.8477ZM14 28.3906L17.0361 37.9186C27.6927 34.523 32.3297 26.2539 33.1018 18.6105L23.1524 17.6055L13.203 16.6005C13.1365 17.2589 12.9532 17.6219 12.808 17.8144C12.7182 17.9335 12.3348 18.4258 10.964 18.8626L14 28.3906ZM23.1524 17.6055V7.60547H15.9336V17.6055V27.6055H23.1524V17.6055ZM15.9336 17.6055H25.9336V12.1055H15.9336H5.93364L5.93364 17.6055H15.9336ZM15.9336 12.1055V22.1055H37.5469V12.1055V2.10547L15.9336 2.10547V12.1055ZM88.8516 39.9062H98.8516C98.8516 34.3834 94.3745 29.9062 88.8516 29.9062V39.9062ZM88.8516 45.4492V55.4492C94.3745 55.4492 98.8516 50.9721 98.8516 45.4492H88.8516ZM52.543 45.4492H42.543C42.543 50.9721 47.0202 55.4492 52.543 55.4492V45.4492ZM52.543 39.9062V29.9062C47.0202 29.9062 42.543 34.3834 42.543 39.9062H52.543ZM67.2383 39.9062V49.9062C72.7612 49.9062 77.2383 45.4291 77.2383 39.9062H67.2383ZM67.2383 33.332H77.2383C77.2383 27.8092 72.7612 23.332 67.2383 23.332V33.332ZM56.1094 33.332H46.1094C46.1094 38.8549 50.5866 43.332 56.1094 43.332V33.332ZM56.1094 12.3633V2.36328C50.5866 2.36328 46.1094 6.84043 46.1094 12.3633H56.1094ZM63.0274 12.3633H73.0274C73.0274 6.84043 68.5502 2.36328 63.0274 2.36328V12.3633ZM63.0274 17.9062H53.0274C53.0274 23.4291 57.5045 27.9062 63.0274 27.9062V17.9062ZM78.1954 17.9062V27.9062C83.7182 27.9062 88.1954 23.4291 88.1954 17.9062H78.1954ZM78.1954 12.3633V2.36328C72.6725 2.36328 68.1954 6.84043 68.1954 12.3633H78.1954ZM85.0704 12.3633H95.0704C95.0704 6.84043 90.5932 2.36328 85.0704 2.36328V12.3633ZM85.0704 33.332V43.332C90.5932 43.332 95.0704 38.8549 95.0704 33.332H85.0704ZM74.0704 33.332V23.332C68.5475 23.332 64.0704 27.8092 64.0704 33.332H74.0704ZM74.0704 39.9062H64.0704C64.0704 45.4291 68.5475 49.9062 74.0704 49.9062V39.9062ZM63.0274 27.875H53.0274C53.0274 33.3978 57.5045 37.875 63.0274 37.875V27.875ZM78.1954 27.875V37.875C83.7182 37.875 88.1954 33.3978 88.1954 27.875H78.1954ZM78.1954 23.3203H88.1954C88.1954 17.7975 83.7182 13.3203 78.1954 13.3203V23.3203ZM63.0274 23.3203V13.3203C57.5045 13.3203 53.0274 17.7975 53.0274 23.3203H63.0274ZM88.8516 39.9062H78.8516V45.4492H88.8516H98.8516V39.9062H88.8516ZM88.8516 45.4492V35.4492H52.543V45.4492V55.4492H88.8516V45.4492ZM52.543 45.4492H62.543V39.9062H52.543H42.543V45.4492H52.543ZM52.543 39.9062V49.9062H67.2383V39.9062V29.9062H52.543V39.9062ZM67.2383 39.9062H77.2383V33.332H67.2383H57.2383V39.9062H67.2383ZM67.2383 33.332V23.332H56.1094V33.332V43.332H67.2383V33.332ZM56.1094 33.332H66.1094V12.3633H56.1094H46.1094V33.332H56.1094ZM56.1094 12.3633V22.3633H63.0274V12.3633V2.36328L56.1094 2.36328V12.3633ZM63.0274 12.3633H53.0274V17.9062H63.0274H73.0274V12.3633H63.0274ZM63.0274 17.9062V27.9062L78.1954 27.9062V17.9062V7.90625H63.0274V17.9062ZM78.1954 17.9062H88.1954V12.3633H78.1954H68.1954V17.9062L78.1954 17.9062ZM78.1954 12.3633V22.3633H85.0704V12.3633V2.36328H78.1954V12.3633ZM85.0704 12.3633H75.0704V33.332H85.0704H95.0704V12.3633H85.0704ZM85.0704 33.332V23.332L74.0704 23.332V33.332V43.332H85.0704V33.332ZM74.0704 33.332H64.0704V39.9062H74.0704H84.0704V33.332H74.0704ZM74.0704 39.9062V49.9062H88.8516V39.9062V29.9062H74.0704V39.9062ZM63.0274 27.875V37.875H78.1954V27.875V17.875L63.0274 17.875V27.875ZM78.1954 27.875H88.1954V23.3203H78.1954L68.1954 23.3203V27.875L78.1954 27.875ZM78.1954 23.3203V13.3203L63.0274 13.3203V23.3203V33.3203H78.1954V23.3203ZM63.0274 23.3203H53.0274V27.875H63.0274H73.0274V23.3203H63.0274ZM125.848 23.4922L134.848 27.8515C136.256 24.9441 136.173 21.5356 134.625 18.7002C133.077 15.8649 130.254 13.9519 127.047 13.5644L125.848 23.4922ZM123.184 28.9922L121.881 38.907C126.154 39.4682 130.305 37.2295 132.183 33.3515L123.184 28.9922ZM108.703 21.0859L117.1 15.6553C115.264 12.8157 112.116 11.0967 108.735 11.086C105.353 11.0753 102.195 12.7744 100.341 15.6024L108.703 21.0859ZM94.3516 28.9922L85.3518 33.3515C87.2327 37.2347 91.3922 39.4735 95.6693 38.905L94.3516 28.9922ZM91.6875 23.4922L90.478 13.5656C87.273 13.9561 84.4538 15.87 82.9081 18.7046C81.3623 21.5392 81.2803 24.9457 82.6877 27.8515L91.6875 23.4922ZM105.094 11.0312V1.03125C99.5709 1.03125 95.0938 5.5084 95.0938 11.0312H105.094ZM112.356 11.0312H122.356C122.356 5.5084 117.878 1.03125 112.356 1.03125V11.0312ZM126.836 31.1406H136.836C136.836 25.6178 132.359 21.1406 126.836 21.1406V31.1406ZM126.836 36.7266V46.7266C132.359 46.7266 136.836 42.2494 136.836 36.7266H126.836ZM111.969 36.7266V26.7266C106.446 26.7266 101.969 31.2037 101.969 36.7266H111.969ZM111.969 49.7461V59.7461C117.492 59.7461 121.969 55.2689 121.969 49.7461H111.969ZM105.137 49.7461H95.1368C95.1368 55.2689 99.6139 59.7461 105.137 59.7461V49.7461ZM105.137 36.7266H115.137C115.137 31.2037 110.66 26.7266 105.137 26.7266V36.7266ZM90.5704 36.7266H80.5704C80.5704 42.2494 85.0475 46.7266 90.5704 46.7266V36.7266ZM90.5704 31.1406V21.1406C85.0475 21.1406 80.5704 25.6178 80.5704 31.1406H90.5704ZM112.356 12.75H102.356C102.356 17.4255 104.182 22.4256 108.285 26.3912C112.337 30.3076 117.956 32.6114 124.648 33.42L125.848 23.4922L127.047 13.5644C123.427 13.1269 122.3 12.1221 122.184 12.0102C122.119 11.9474 122.356 12.1995 122.356 12.75H112.356ZM125.848 23.4922L116.848 19.1329L114.184 24.6329L123.184 28.9922L132.183 33.3515L134.848 27.8515L125.848 23.4922ZM123.184 28.9922L124.486 19.0773C119.479 18.4197 117.709 16.5964 117.1 15.6553L108.703 21.0859L100.306 26.5166C104.811 33.4817 112.494 37.674 121.881 38.907L123.184 28.9922ZM108.703 21.0859L100.341 15.6024C99.6585 16.6428 97.8612 18.4377 93.0339 19.0794L94.3516 28.9922L95.6693 38.905C105.065 37.6561 112.592 33.3924 117.066 26.5695L108.703 21.0859ZM94.3516 28.9922L103.351 24.6329L100.687 19.1329L91.6875 23.4922L82.6877 27.8515L85.3518 33.3515L94.3516 28.9922ZM91.6875 23.4922L92.8971 33.4188C99.6013 32.6019 105.194 30.2477 109.213 26.3224C113.252 22.3771 115.094 17.4067 115.094 12.75H105.094H95.0938C95.0938 12.1324 95.3454 11.91 95.2385 12.0145C95.1109 12.139 94.0004 13.1364 90.478 13.5656L91.6875 23.4922ZM105.094 12.75H115.094V11.0312L105.094 11.0312H95.0938V12.75H105.094ZM105.094 11.0312V21.0312H112.356V11.0312V1.03125H105.094V11.0312ZM112.356 11.0312L102.356 11.0312V12.75H112.356H122.356V11.0312H112.356ZM126.836 31.1406H116.836V36.7266H126.836H136.836V31.1406H126.836ZM126.836 36.7266V26.7266H111.969V36.7266V46.7266H126.836V36.7266ZM111.969 36.7266H101.969V49.7461H111.969H121.969V36.7266H111.969ZM111.969 49.7461V39.7461H105.137V49.7461V59.7461H111.969V49.7461ZM105.137 49.7461H115.137V36.7266H105.137H95.1368V49.7461H105.137ZM105.137 36.7266V26.7266H90.5704V36.7266V46.7266H105.137V36.7266ZM90.5704 36.7266H100.57V31.1406H90.5704H80.5704V36.7266H90.5704ZM90.5704 31.1406V41.1406H126.836V31.1406V21.1406H90.5704V31.1406ZM152.059 11.9336H162.059C162.059 6.41075 157.581 1.93359 152.059 1.93359V11.9336ZM152.059 17.3906V27.3906C157.581 27.3906 162.059 22.9135 162.059 17.3906H152.059ZM144.969 17.3906V7.39062C142.028 7.39062 139.235 8.6855 137.335 10.9307C135.435 13.1759 134.62 16.1438 135.107 19.0445L144.969 17.3906ZM153.906 25.8125L162.329 31.203C164.067 28.488 164.389 25.1017 163.195 22.1076C162 19.1135 159.436 16.8787 156.307 16.1049L153.906 25.8125ZM150.469 31.1836L147.866 40.8388C152.078 41.9744 156.54 40.2485 158.892 36.5741L150.469 31.1836ZM141.402 24.4805L150.118 19.5779C148.328 16.3961 144.947 14.4425 141.297 14.481C137.647 14.5196 134.307 16.5441 132.585 19.7629L141.402 24.4805ZM131.949 31.8711L123.557 37.3092C125.956 41.0105 130.496 42.7034 134.732 41.4761L131.949 31.8711ZM128.469 26.5L125.829 16.8547C122.752 17.6968 120.262 19.9561 119.125 22.9366C117.989 25.9171 118.342 29.2611 120.077 31.9381L128.469 26.5ZM137.707 17.3906L147.569 19.0439C148.056 16.1432 147.24 13.1755 145.34 10.9305C143.44 8.6854 140.648 7.39062 137.707 7.39062V17.3906ZM130.316 17.3906H120.316C120.316 22.9135 124.794 27.3906 130.316 27.3906V17.3906ZM130.316 11.9336V1.93359C124.794 1.93359 120.316 6.41075 120.316 11.9336H130.316ZM162.113 10H172.113C172.113 4.47715 167.636 0 162.113 0V10ZM162.113 31.6133V41.6133C167.636 41.6133 172.113 37.1361 172.113 31.6133H162.113ZM155.195 31.6133H145.195C145.195 37.1361 149.673 41.6133 155.195 41.6133V31.6133ZM155.195 10V0C149.673 0 145.195 4.47715 145.195 10H155.195ZM141.832 33.0742H151.832C151.832 27.5514 147.355 23.0742 141.832 23.0742V33.0742ZM141.832 36.125L131.832 36.125C131.832 41.6478 136.309 46.125 141.832 46.125V36.125ZM155.238 36.125V46.125C160.761 46.125 165.238 41.6478 165.238 36.125H155.238ZM155.238 33.0742V23.0742C149.715 23.0742 145.238 27.5514 145.238 33.0742H155.238ZM162.113 33.0742H172.113C172.113 27.5514 167.636 23.0742 162.113 23.0742V33.0742ZM162.113 49.4023V59.4023C167.636 59.4023 172.113 54.9252 172.113 49.4023H162.113ZM135.043 49.4023H125.043C125.043 54.9252 129.52 59.4023 135.043 59.4023V49.4023ZM135.043 33.0742V23.0742C129.52 23.0742 125.043 27.5514 125.043 33.0742H135.043ZM141.832 43.9023L131.832 43.9023C131.832 49.4252 136.309 53.9023 141.832 53.9023V43.9023ZM155.238 43.9023V53.9023C160.761 53.9023 165.238 49.4252 165.238 43.9023H155.238ZM155.238 41.3672H165.238C165.238 35.8443 160.761 31.3672 155.238 31.3672V41.3672ZM141.832 41.3672V31.3672C136.309 31.3672 131.832 35.8443 131.832 41.3672L141.832 41.3672ZM152.059 11.9336H142.059V17.3906H152.059H162.059V11.9336H152.059ZM152.059 17.3906V7.39062H144.969V17.3906V27.3906H152.059V17.3906ZM144.969 17.3906L135.107 19.0445C136.385 26.6702 141.964 33.1606 151.506 35.5201L153.906 25.8125L156.307 16.1049C155.577 15.9244 155.142 15.7276 154.915 15.603C154.696 15.4823 154.643 15.4142 154.672 15.4445C154.701 15.4751 154.749 15.5382 154.788 15.6201C154.824 15.6949 154.832 15.7402 154.831 15.7367L144.969 17.3906ZM153.906 25.8125L145.484 20.422L142.046 25.7931L150.469 31.1836L158.892 36.5741L162.329 31.203L153.906 25.8125ZM150.469 31.1836L153.072 21.5284C152.015 21.2434 151.379 20.8789 150.997 20.5885C150.62 20.3021 150.342 19.9755 150.118 19.5779L141.402 24.4805L132.687 29.3831C135.819 34.9523 141.043 38.9994 147.866 40.8388L150.469 31.1836ZM141.402 24.4805L132.585 19.7629C132.068 20.7291 131.211 21.6738 129.167 22.2661L131.949 31.8711L134.732 41.4761C141.883 39.4043 147.127 34.978 150.22 29.198L141.402 24.4805ZM131.949 31.8711L140.341 26.433L136.861 21.0619L128.469 26.5L120.077 31.9381L123.557 37.3092L131.949 31.8711ZM128.469 26.5L131.109 36.1453C135.688 34.8921 139.591 32.6722 142.53 29.4595C145.466 26.2491 146.983 22.5434 147.569 19.0439L137.707 17.3906L127.845 15.7374C127.824 15.8625 127.798 15.9207 127.793 15.9325C127.791 15.9367 127.791 15.9405 127.771 15.9618C127.752 15.983 127.649 16.0915 127.381 16.2475C127.106 16.4078 126.618 16.6387 125.829 16.8547L128.469 26.5ZM137.707 17.3906V7.39062H130.316V17.3906V27.3906H137.707V17.3906ZM130.316 17.3906H140.316V11.9336H130.316H120.316V17.3906H130.316ZM130.316 11.9336V21.9336H152.059V11.9336V1.93359H130.316V11.9336ZM162.113 10H152.113V31.6133H162.113H172.113V10H162.113ZM162.113 31.6133V21.6133H155.195V31.6133V41.6133H162.113V31.6133ZM155.195 31.6133H165.195V10H155.195H145.195V31.6133H155.195ZM155.195 10V20H162.113V10V0H155.195V10ZM141.832 33.0742L131.832 33.0742V36.125L141.832 36.125H151.832V33.0742H141.832ZM141.832 36.125V46.125H155.238V36.125V26.125H141.832V36.125ZM155.238 36.125H165.238V33.0742H155.238H145.238V36.125H155.238ZM155.238 33.0742V43.0742H162.113V33.0742V23.0742H155.238V33.0742ZM162.113 33.0742H152.113V49.4023H162.113H172.113V33.0742H162.113ZM162.113 49.4023V39.4023L135.043 39.4023V49.4023V59.4023L162.113 59.4023V49.4023ZM135.043 49.4023L145.043 49.4023V33.0742L135.043 33.0742H125.043V49.4023H135.043ZM135.043 33.0742V43.0742L141.832 43.0742V33.0742V23.0742H135.043V33.0742ZM141.832 43.9023V53.9023H155.238V43.9023V33.9023H141.832V43.9023ZM155.238 43.9023H165.238V41.3672H155.238H145.238V43.9023H155.238ZM155.238 41.3672V31.3672H141.832V41.3672V51.3672H155.238V41.3672ZM141.832 41.3672L131.832 41.3672V43.9023L141.832 43.9023H151.832V41.3672H141.832ZM200.184 10H210.184C210.184 4.47715 205.706 0 200.184 0V10ZM200.184 49.875V59.875C205.706 59.875 210.184 55.3978 210.184 49.875H200.184ZM193.223 49.875H183.223C183.223 55.3978 187.7 59.875 193.223 59.875V49.875ZM193.223 10V0C187.7 0 183.223 4.47715 183.223 10H193.223ZM178.356 12.6641L178.286 22.6638C178.333 22.6641 178.38 22.6641 178.426 22.6638L178.356 12.6641ZM178.356 18.8945L178.186 28.8931C178.303 28.8951 178.42 28.895 178.537 28.8929L178.356 18.8945ZM200.184 10H190.184V49.875H200.184H210.184V10H200.184ZM200.184 49.875V39.875H193.223V49.875V59.875H200.184V49.875ZM193.223 49.875H203.223V10H193.223H183.223V49.875H193.223ZM193.223 10V20H200.184V10V0L193.223 0V10ZM178.356 12.6641L178.426 22.6638C178.359 22.6643 178.189 22.6406 178.014 22.5508C177.852 22.4681 177.861 22.4198 177.982 22.5782C178.252 22.9327 178.969 24.2334 178.969 26.9727H188.969H198.969C198.969 20.9463 197.408 15.0712 193.886 10.4521C190.239 5.66819 184.706 2.61877 178.285 2.66431L178.356 12.6641ZM188.969 26.9727H178.969C178.969 29.8028 178.239 31.1249 177.969 31.4804C177.849 31.6391 177.838 31.594 177.992 31.5147C178.157 31.4293 178.31 31.4102 178.356 31.4102V41.4102V51.4102C184.729 51.4102 190.248 48.3834 193.899 43.5733C197.421 38.9337 198.969 33.0371 198.969 26.9727H188.969ZM178.356 41.4102V31.4102C178.334 31.4102 178.439 31.4135 178.576 31.483C178.704 31.5479 178.686 31.5815 178.566 31.4265C178.301 31.0816 177.57 29.7839 177.57 26.9727H167.57H157.57C157.57 33.056 159.139 38.977 162.719 43.6273C166.432 48.4498 171.993 51.4102 178.356 51.4102V41.4102ZM167.57 26.9727H177.57C177.57 24.2526 178.287 22.9762 178.554 22.632C178.673 22.4774 178.69 22.5139 178.554 22.5822C178.494 22.6127 178.427 22.6363 178.365 22.6507C178.304 22.6649 178.273 22.6637 178.286 22.6638L178.356 12.6641L178.425 2.6643C172.016 2.6198 166.441 5.60151 162.732 10.3982C159.152 15.0277 157.57 20.9271 157.57 26.9727H167.57ZM178.356 18.8945L178.525 8.89597C172.893 8.80052 168.695 12.0746 166.522 16.1436C164.681 19.59 164.231 23.5385 164.231 26.9727H174.231H184.231C184.231 26.0559 184.299 25.4897 184.351 25.2055C184.408 24.8993 184.414 25.0966 184.163 25.5664C183.897 26.0649 183.27 26.9904 182.056 27.7722C180.778 28.5955 179.382 28.9134 178.186 28.8931L178.356 18.8945ZM174.231 26.9727H164.231C164.231 30.4271 164.674 34.3944 166.53 37.8541C168.744 41.9836 172.919 45.0937 178.356 45.0937V35.0937V25.0937C179.466 25.0937 180.801 25.3965 182.048 26.1982C183.245 26.9673 183.877 27.8831 184.155 28.4018C184.414 28.8846 184.41 29.0928 184.353 28.7849C184.3 28.4977 184.231 27.9194 184.231 26.9727H174.231ZM178.356 35.0937V45.0937C183.955 45.0937 188.006 41.7294 190.082 37.7986C191.881 34.3926 192.352 30.4806 192.352 26.9727H182.352H172.352C172.352 27.9039 172.282 28.4806 172.228 28.7724C172.17 29.0842 172.16 28.9062 172.398 28.4572C172.646 27.9865 173.242 27.0851 174.414 26.3005C175.654 25.4703 177.063 25.0937 178.356 25.0937V35.0937ZM182.352 26.9727H192.352C192.352 23.4853 191.874 19.5914 190.09 16.199C188.059 12.3393 183.98 8.79061 178.174 8.89618L178.356 18.8945L178.537 28.8929C177.151 28.9181 175.676 28.5217 174.406 27.6697C173.217 26.8723 172.627 25.9614 172.39 25.511C172.16 25.075 172.171 24.9078 172.229 25.218C172.283 25.507 172.352 26.0715 172.352 26.9727H182.352ZM247.879 10H257.879C257.879 4.47715 253.402 0 247.879 0V10ZM247.879 24.1797H237.879C237.879 29.7025 242.356 34.1797 247.879 34.1797V24.1797ZM251.016 24.1797H261.016C261.016 18.6568 256.539 14.1797 251.016 14.1797V24.1797ZM251.016 29.8516V39.8516C256.539 39.8516 261.016 35.3744 261.016 29.8516H251.016ZM247.879 29.8516V19.8516C242.356 19.8516 237.879 24.3287 237.879 29.8516H247.879ZM247.879 49.7461V59.7461C253.402 59.7461 257.879 55.2689 257.879 49.7461H247.879ZM241.09 49.7461H231.09C231.09 55.2689 235.567 59.7461 241.09 59.7461V49.7461ZM241.09 10V0C235.567 0 231.09 4.47715 231.09 10L241.09 10ZM219.777 13.5234H229.777C229.777 8.00059 225.3 3.52344 219.777 3.52344V13.5234ZM219.777 22.1172H209.777C209.777 27.64 214.255 32.1172 219.777 32.1172V22.1172ZM220.723 22.1172V32.1172C226.246 32.1172 230.723 27.64 230.723 22.1172H220.723ZM220.723 13.5234V3.52344C215.2 3.52344 210.723 8.00059 210.723 13.5234H220.723ZM226.266 13.5234H236.266C236.266 8.00059 231.789 3.52344 226.266 3.52344V13.5234ZM226.266 40.8516V50.8516C231.789 50.8516 236.266 46.3744 236.266 40.8516H226.266ZM214.191 40.8516H204.191C204.191 46.3744 208.669 50.8516 214.191 50.8516V40.8516ZM214.191 13.5234V3.52344C208.669 3.52344 204.191 8.00059 204.191 13.5234L214.191 13.5234ZM219.777 35.3086H209.777C209.777 40.8314 214.255 45.3086 219.777 45.3086V35.3086ZM220.723 35.3086V45.3086C226.246 45.3086 230.723 40.8314 230.723 35.3086H220.723ZM220.723 27.4883H230.723C230.723 21.9654 226.246 17.4883 220.723 17.4883V27.4883ZM219.777 27.4883V17.4883C214.255 17.4883 209.777 21.9654 209.777 27.4883H219.777ZM232.969 13.5234H242.969C242.969 8.00059 238.492 3.52344 232.969 3.52344V13.5234ZM232.969 22.1172H222.969C222.969 27.64 227.446 32.1172 232.969 32.1172V22.1172ZM234.086 22.1172V32.1172C239.609 32.1172 244.086 27.64 244.086 22.1172H234.086ZM234.086 13.5234V3.52344C228.563 3.52344 224.086 8.00059 224.086 13.5234H234.086ZM239.672 13.5234H249.672C249.672 8.00059 245.195 3.52344 239.672 3.52344V13.5234ZM239.672 40.8516V50.8516C245.195 50.8516 249.672 46.3744 249.672 40.8516H239.672ZM227.512 40.8516H217.512C217.512 46.3744 221.989 50.8516 227.512 50.8516V40.8516ZM227.512 13.5234V3.52344C221.989 3.52344 217.512 8.00059 217.512 13.5234H227.512ZM232.969 35.3086H222.969C222.969 40.8314 227.446 45.3086 232.969 45.3086V35.3086ZM234.086 35.3086V45.3086C239.609 45.3086 244.086 40.8314 244.086 35.3086H234.086ZM234.086 27.4883H244.086C244.086 21.9654 239.609 17.4883 234.086 17.4883V27.4883ZM232.969 27.4883V17.4883C227.446 17.4883 222.969 21.9654 222.969 27.4883H232.969ZM247.879 10H237.879V24.1797H247.879H257.879V10H247.879ZM247.879 24.1797V34.1797H251.016V24.1797V14.1797H247.879V24.1797ZM251.016 24.1797H241.016V29.8516H251.016H261.016V24.1797H251.016ZM251.016 29.8516V19.8516H247.879V29.8516V39.8516H251.016V29.8516ZM247.879 29.8516H237.879V49.7461H247.879H257.879V29.8516H247.879ZM247.879 49.7461V39.7461H241.09V49.7461V59.7461H247.879V49.7461ZM241.09 49.7461H251.09V10H241.09L231.09 10V49.7461H241.09ZM241.09 10V20H247.879V10V0L241.09 0V10ZM219.777 13.5234H209.777V22.1172H219.777H229.777V13.5234H219.777ZM219.777 22.1172V32.1172H220.723V22.1172V12.1172H219.777V22.1172ZM220.723 22.1172H230.723V13.5234H220.723H210.723V22.1172H220.723ZM220.723 13.5234V23.5234H226.266V13.5234V3.52344L220.723 3.52344V13.5234ZM226.266 13.5234H216.266V40.8516H226.266H236.266V13.5234H226.266ZM226.266 40.8516V30.8516H214.191V40.8516V50.8516H226.266V40.8516ZM214.191 40.8516H224.191V13.5234H214.191L204.191 13.5234V40.8516H214.191ZM214.191 13.5234V23.5234H219.777V13.5234V3.52344H214.191V13.5234ZM219.777 35.3086V45.3086H220.723V35.3086V25.3086H219.777V35.3086ZM220.723 35.3086H230.723V27.4883H220.723H210.723V35.3086H220.723ZM220.723 27.4883V17.4883H219.777V27.4883V37.4883H220.723V27.4883ZM219.777 27.4883H209.777V35.3086H219.777H229.777V27.4883H219.777ZM232.969 13.5234H222.969V22.1172H232.969H242.969V13.5234H232.969ZM232.969 22.1172V32.1172H234.086V22.1172V12.1172H232.969V22.1172ZM234.086 22.1172H244.086V13.5234H234.086H224.086V22.1172H234.086ZM234.086 13.5234V23.5234H239.672V13.5234V3.52344H234.086V13.5234ZM239.672 13.5234H229.672V40.8516H239.672H249.672V13.5234H239.672ZM239.672 40.8516V30.8516H227.512V40.8516V50.8516H239.672V40.8516ZM227.512 40.8516H237.512V13.5234H227.512H217.512V40.8516H227.512ZM227.512 13.5234V23.5234H232.969V13.5234V3.52344H227.512V13.5234ZM232.969 35.3086V45.3086H234.086V35.3086V25.3086H232.969V35.3086ZM234.086 35.3086H244.086V27.4883H234.086H224.086V35.3086H234.086ZM234.086 27.4883V17.4883H232.969V27.4883V37.4883H234.086V27.4883ZM232.969 27.4883H222.969V35.3086H232.969H242.969V27.4883H232.969ZM288.527 31.1406H298.527C298.527 25.6178 294.05 21.1406 288.527 21.1406V31.1406ZM288.527 36.6406V46.6406C294.05 46.6406 298.527 42.1635 298.527 36.6406H288.527ZM252.262 36.6406H242.262C242.262 42.1635 246.739 46.6406 252.262 46.6406V36.6406ZM252.262 31.1406V21.1406C246.739 21.1406 242.262 25.6178 242.262 31.1406H252.262ZM285.219 43.6875H295.219C295.219 38.1647 290.742 33.6875 285.219 33.6875V43.6875ZM285.219 49.1875V59.1875C290.742 59.1875 295.219 54.7103 295.219 49.1875H285.219ZM256.688 49.1875H246.688C246.688 54.7103 251.165 59.1875 256.688 59.1875V49.1875ZM256.688 38.2305V28.2305C251.165 28.2305 246.688 32.7076 246.688 38.2305H256.688ZM263.52 38.2305H273.52C273.52 32.7076 269.042 28.2305 263.52 28.2305V38.2305ZM263.52 43.6875H253.52C253.52 49.2103 257.997 53.6875 263.52 53.6875V43.6875ZM284.316 10.6445H294.316C294.316 5.12168 289.839 0.644531 284.316 0.644531V10.6445ZM284.316 22.418V32.418C289.839 32.418 294.316 27.9408 294.316 22.418H284.316ZM263.477 22.418V12.418C257.954 12.418 253.477 16.8951 253.477 22.418H263.477ZM263.477 24.2227H253.477C253.477 29.7455 257.954 34.2227 263.477 34.2227V24.2227ZM284.961 24.2227H294.961C294.961 18.6998 290.484 14.2227 284.961 14.2227V24.2227ZM284.961 29.3359V39.3359C290.484 39.3359 294.961 34.8588 294.961 29.3359H284.961ZM256.645 29.3359H246.645C246.645 34.8588 251.122 39.3359 256.645 39.3359V29.3359ZM256.645 17.5625V7.5625C251.122 7.5625 246.645 12.0397 246.645 17.5625H256.645ZM277.441 17.5625V27.5625C282.964 27.5625 287.441 23.0853 287.441 17.5625H277.441ZM277.441 15.9297H287.441C287.441 10.4068 282.964 5.92969 277.441 5.92969V15.9297ZM256.602 15.9297H246.602C246.602 21.4525 251.079 25.9297 256.602 25.9297V15.9297ZM256.602 10.6445V0.644531C251.079 0.644531 246.602 5.12168 246.602 10.6445H256.602ZM288.527 31.1406H278.527V36.6406H288.527H298.527V31.1406H288.527ZM288.527 36.6406V26.6406H252.262V36.6406V46.6406H288.527V36.6406ZM252.262 36.6406H262.262V31.1406H252.262H242.262V36.6406H252.262ZM252.262 31.1406V41.1406H288.527V31.1406V21.1406H252.262V31.1406ZM285.219 43.6875H275.219V49.1875H285.219H295.219V43.6875H285.219ZM285.219 49.1875V39.1875H256.688V49.1875V59.1875H285.219V49.1875ZM256.688 49.1875H266.688V38.2305H256.688H246.688V49.1875H256.688ZM256.688 38.2305V48.2305H263.52V38.2305V28.2305H256.688V38.2305ZM263.52 38.2305H253.52V43.6875H263.52H273.52V38.2305H263.52ZM263.52 43.6875V53.6875H285.219V43.6875V33.6875H263.52V43.6875ZM284.316 10.6445H274.316V22.418H284.316H294.316V10.6445H284.316ZM284.316 22.418V12.418H263.477V22.418V32.418H284.316V22.418ZM263.477 22.418H253.477V24.2227H263.477H273.477V22.418H263.477ZM263.477 24.2227V34.2227H284.961V24.2227V14.2227H263.477V24.2227ZM284.961 24.2227H274.961V29.3359H284.961H294.961V24.2227H284.961ZM284.961 29.3359V19.3359H256.645V29.3359V39.3359H284.961V29.3359ZM256.645 29.3359H266.645V17.5625H256.645H246.645V29.3359H256.645ZM256.645 17.5625V27.5625H277.441V17.5625V7.5625H256.645V17.5625ZM277.441 17.5625H287.441V15.9297H277.441H267.441V17.5625H277.441ZM277.441 15.9297V5.92969H256.602V15.9297V25.9297H277.441V15.9297ZM256.602 15.9297H266.602V10.6445H256.602H246.602V15.9297H256.602ZM256.602 10.6445V20.6445H284.316V10.6445V0.644531H256.602V10.6445Z" fill="white" mask="url(#path-1-outside-1_3990_1433)"/>
</g>
<defs>
<filter id="filter0_d_3990_1433" x="0" y="0" width="302.527" height="67.875" filterUnits="userSpaceOnUse" color-interpolation-filters="sRGB">
<feFlood flood-opacity="0" result="BackgroundImageFix"/>
<feColorMatrix in="SourceAlpha" type="matrix" values="0 0 0 0 0 0 0 0 0 0 0 0 0 0 0 0 0 0 127 0" result="hardAlpha"/>
<feOffset dy="4"/>
<feGaussianBlur stdDeviation="2"/>
<feComposite in2="hardAlpha" operator="out"/>
<feColorMatrix type="matrix" values="0 0 0 0 0 0 0 0 0 0 0 0 0 0 0 0 0 0 0.07 0"/>
<feBlend mode="normal" in2="BackgroundImageFix" result="effect1_dropShadow_3990_1433"/>
<feBlend mode="normal" in="SourceGraphic" in2="effect1_dropShadow_3990_1433" result="shape"/>
</filter>
</defs>
</svg>
