<svg width="262" height="68" viewBox="0 0 262 68" fill="none" xmlns="http://www.w3.org/2000/svg">
<g filter="url(#filter0_d_3990_1505)">
<mask id="path-1-outside-1_3990_1505" maskUnits="userSpaceOnUse" x="3.09766" y="-0.507813" width="255" height="61" fill="black">
<rect fill="white" x="3.09766" y="-0.507813" width="255" height="61"/>
<path d="M46.957 11.5469V16.918H37.2031C38.041 19.3242 41.1562 21.9883 48.9766 22.7617L46.4844 28.1758C38.5996 27.4023 34.0664 24.459 32.0469 20.6992C30.0059 24.4375 25.5371 27.4023 17.6953 28.1758L15.2461 22.7617C23.0449 21.9883 26.1172 19.3027 27.0195 16.918H17.3086V11.5469L46.957 11.5469ZM50.2656 29.3789V34.8359H36.1289V40.8516H29.2969V34.8359H14L14 29.3789H50.2656ZM46.3125 43.6875V49.1875H17.9531V37.5859H24.8281V43.6875H46.3125ZM85.5859 10V49.875H78.625V10H85.5859ZM60.707 13.0508V22.1602H67.1523V13.0508H73.9414V40.7656H53.7891V13.0508H60.707ZM60.707 35.2227H67.1523V27.4883H60.707V35.2227ZM106.383 17.9492C106.34 25.2969 108.617 32.6016 115.965 35.5664L111.969 41.1094C107.564 39.1758 104.707 35.7598 102.988 31.4414C101.248 36.2754 98.2402 40.1211 93.4492 42.1836L89.3242 36.4688C96.9297 33.418 99.3359 25.7695 99.3789 17.9492V12.8359H106.383V17.9492ZM123.613 10V49.875H116.652V10H123.613ZM159.879 10V20.5273H164.82V26.1562H159.879V38.1016H152.875V10H159.879ZM148.965 12.9219C148.965 24.0078 142.648 31.4844 130.445 34.707L127.609 29.293C136.01 27.123 140.393 23.1699 141.359 18.5078H129.414V12.9219H148.965ZM160.953 43.6875V49.1875L133.41 49.1875V35.2227H140.457V43.6875L160.953 43.6875ZM199.668 10V49.875H192.707V10H199.668ZM177.84 12.6641C183.898 12.6211 188.453 18.207 188.453 26.9727C188.453 35.8672 183.898 41.4102 177.84 41.4102C171.652 41.4102 167.055 35.8672 167.055 26.9727C167.055 18.207 171.652 12.6211 177.84 12.6641ZM177.84 18.8945C175.305 18.8516 173.715 21.4727 173.715 26.9727C173.715 32.5586 175.305 35.0937 177.84 35.0937C180.203 35.0937 181.836 32.5586 181.836 26.9727C181.836 21.4727 180.203 18.8516 177.84 18.8945ZM247.148 10.0859V38.918H240.23V10.0859H247.148ZM235.547 12.9219C235.504 24.0078 229.102 31.5273 216.855 34.9648L214.234 29.5078C222.549 27.209 226.953 23.2773 228.027 18.5078H216.598V12.9219H235.547ZM247.836 43.6875V49.1875H220.164V36.2969H227.039V43.6875H247.836Z"/>
</mask>
<path d="M46.957 11.5469V16.918H37.2031C38.041 19.3242 41.1562 21.9883 48.9766 22.7617L46.4844 28.1758C38.5996 27.4023 34.0664 24.459 32.0469 20.6992C30.0059 24.4375 25.5371 27.4023 17.6953 28.1758L15.2461 22.7617C23.0449 21.9883 26.1172 19.3027 27.0195 16.918H17.3086V11.5469L46.957 11.5469ZM50.2656 29.3789V34.8359H36.1289V40.8516H29.2969V34.8359H14L14 29.3789H50.2656ZM46.3125 43.6875V49.1875H17.9531V37.5859H24.8281V43.6875H46.3125ZM85.5859 10V49.875H78.625V10H85.5859ZM60.707 13.0508V22.1602H67.1523V13.0508H73.9414V40.7656H53.7891V13.0508H60.707ZM60.707 35.2227H67.1523V27.4883H60.707V35.2227ZM106.383 17.9492C106.34 25.2969 108.617 32.6016 115.965 35.5664L111.969 41.1094C107.564 39.1758 104.707 35.7598 102.988 31.4414C101.248 36.2754 98.2402 40.1211 93.4492 42.1836L89.3242 36.4688C96.9297 33.418 99.3359 25.7695 99.3789 17.9492V12.8359H106.383V17.9492ZM123.613 10V49.875H116.652V10H123.613ZM159.879 10V20.5273H164.82V26.1562H159.879V38.1016H152.875V10H159.879ZM148.965 12.9219C148.965 24.0078 142.648 31.4844 130.445 34.707L127.609 29.293C136.01 27.123 140.393 23.1699 141.359 18.5078H129.414V12.9219H148.965ZM160.953 43.6875V49.1875L133.41 49.1875V35.2227H140.457V43.6875L160.953 43.6875ZM199.668 10V49.875H192.707V10H199.668ZM177.84 12.6641C183.898 12.6211 188.453 18.207 188.453 26.9727C188.453 35.8672 183.898 41.4102 177.84 41.4102C171.652 41.4102 167.055 35.8672 167.055 26.9727C167.055 18.207 171.652 12.6211 177.84 12.6641ZM177.84 18.8945C175.305 18.8516 173.715 21.4727 173.715 26.9727C173.715 32.5586 175.305 35.0937 177.84 35.0937C180.203 35.0937 181.836 32.5586 181.836 26.9727C181.836 21.4727 180.203 18.8516 177.84 18.8945ZM247.148 10.0859V38.918H240.23V10.0859H247.148ZM235.547 12.9219C235.504 24.0078 229.102 31.5273 216.855 34.9648L214.234 29.5078C222.549 27.209 226.953 23.2773 228.027 18.5078H216.598V12.9219H235.547ZM247.836 43.6875V49.1875H220.164V36.2969H227.039V43.6875H247.836Z" fill="#11DCA9"/>
<path d="M46.957 11.5469H56.957C56.957 6.02403 52.4799 1.54687 46.957 1.54687V11.5469ZM46.957 16.918V26.918C52.4799 26.918 56.957 22.4408 56.957 16.918H46.957ZM37.2031 16.918V6.91797C33.9652 6.91797 30.9276 8.48575 29.0519 11.1251C27.1762 13.7644 26.6945 17.1486 27.7593 20.2064L37.2031 16.918ZM48.9766 22.7617L58.0604 26.9432C59.4126 24.0055 59.2608 20.5952 57.6527 17.7894C56.0447 14.9835 53.179 13.1286 49.9608 12.8103L48.9766 22.7617ZM46.4844 28.1758L45.5081 38.128C49.7484 38.544 53.7866 36.2275 55.5682 32.3572L46.4844 28.1758ZM32.0469 20.6992L40.8564 15.9672C39.1197 12.7339 35.7513 10.7118 32.081 10.6993C28.4108 10.6867 25.0286 12.6858 23.2698 15.9072L32.0469 20.6992ZM17.6953 28.1758L8.58423 32.2975C10.3511 36.2032 14.4108 38.5483 18.6769 38.1275L17.6953 28.1758ZM15.2461 22.7617L14.2592 12.8105C11.053 13.1285 8.19646 14.9718 6.58563 17.7621C4.9748 20.5524 4.80705 23.9479 6.13501 26.8834L15.2461 22.7617ZM27.0195 16.918L36.3724 20.4569C37.5349 17.3845 37.1143 13.937 35.2472 11.2342C33.3801 8.53137 30.3046 6.91797 27.0195 6.91797V16.918ZM17.3086 16.918H7.30859C7.30859 22.4408 11.7857 26.918 17.3086 26.918V16.918ZM17.3086 11.5469V1.54688C11.7857 1.54688 7.30859 6.02403 7.30859 11.5469H17.3086ZM50.2656 29.3789H60.2656C60.2656 23.8561 55.7885 19.3789 50.2656 19.3789V29.3789ZM50.2656 34.8359V44.8359C55.7885 44.8359 60.2656 40.3588 60.2656 34.8359H50.2656ZM36.1289 34.8359V24.8359C30.6061 24.8359 26.1289 29.3131 26.1289 34.8359H36.1289ZM36.1289 40.8516V50.8516C41.6518 50.8516 46.1289 46.3744 46.1289 40.8516H36.1289ZM29.2969 40.8516H19.2969C19.2969 46.3744 23.774 50.8516 29.2969 50.8516V40.8516ZM29.2969 34.8359H39.2969C39.2969 29.3131 34.8197 24.8359 29.2969 24.8359V34.8359ZM14 34.8359H4C4 40.3588 8.47715 44.8359 14 44.8359V34.8359ZM14 29.3789V19.3789C8.47715 19.3789 4 23.8561 4 29.3789H14ZM46.3125 43.6875H56.3125C56.3125 38.1647 51.8353 33.6875 46.3125 33.6875V43.6875ZM46.3125 49.1875V59.1875C51.8353 59.1875 56.3125 54.7103 56.3125 49.1875H46.3125ZM17.9531 49.1875H7.95313C7.95313 54.7103 12.4303 59.1875 17.9531 59.1875V49.1875ZM17.9531 37.5859V27.5859C12.4303 27.5859 7.95313 32.0631 7.95313 37.5859H17.9531ZM24.8281 37.5859H34.8281C34.8281 32.0631 30.351 27.5859 24.8281 27.5859V37.5859ZM24.8281 43.6875H14.8281C14.8281 49.2103 19.3053 53.6875 24.8281 53.6875V43.6875ZM46.957 11.5469L36.957 11.5469V16.918H46.957H56.957V11.5469H46.957ZM46.957 16.918V6.91797L37.2031 6.91797V16.918V26.918H46.957V16.918ZM37.2031 16.918L27.7593 20.2064C30.5566 28.2398 38.8863 31.8126 47.9924 32.7132L48.9766 22.7617L49.9608 12.8103C46.9523 12.5127 45.7015 11.9232 45.4328 11.7697C45.2567 11.6691 46.1289 12.1416 46.647 13.6295L37.2031 16.918ZM48.9766 22.7617L39.8928 18.5803L37.4006 23.9943L46.4844 28.1758L55.5682 32.3572L58.0604 26.9432L48.9766 22.7617ZM46.4844 28.1758L47.4606 18.2235C44.5211 17.9352 42.7967 17.2958 41.8804 16.7925C41.0272 16.3239 40.8618 15.9771 40.8564 15.9672L32.0469 20.6992L23.2373 25.4312C27.3965 33.1743 35.6935 37.1653 45.5081 38.128L46.4844 28.1758ZM32.0469 20.6992L23.2698 15.9072C23.2298 15.9805 23.0289 16.3423 22.195 16.8049C21.299 17.302 19.6104 17.9384 16.7138 18.2241L17.6953 28.1758L18.6769 38.1275C28.5519 37.1535 36.6751 33.0901 40.8239 25.4913L32.0469 20.6992ZM17.6953 28.1758L26.8064 24.0541L24.3572 18.64L15.2461 22.7617L6.13501 26.8834L8.58423 32.2975L17.6953 28.1758ZM15.2461 22.7617L16.233 32.7129C25.5292 31.791 33.4707 28.1255 36.3724 20.4569L27.0195 16.918L17.6667 13.379C18.1554 12.0873 18.9032 11.678 18.7373 11.7733C18.4689 11.9275 17.2353 12.5154 14.2592 12.8105L15.2461 22.7617ZM27.0195 16.918V6.91797H17.3086V16.918V26.918H27.0195V16.918ZM17.3086 16.918H27.3086V11.5469H17.3086H7.30859L7.30859 16.918H17.3086ZM17.3086 11.5469V21.5469H46.957V11.5469V1.54687L17.3086 1.54688V11.5469ZM50.2656 29.3789H40.2656V34.8359H50.2656H60.2656V29.3789H50.2656ZM50.2656 34.8359V24.8359H36.1289V34.8359V44.8359H50.2656V34.8359ZM36.1289 34.8359H26.1289V40.8516H36.1289H46.1289V34.8359H36.1289ZM36.1289 40.8516V30.8516H29.2969V40.8516V50.8516H36.1289V40.8516ZM29.2969 40.8516H39.2969V34.8359H29.2969H19.2969V40.8516H29.2969ZM29.2969 34.8359V24.8359H14L14 34.8359V44.8359H29.2969V34.8359ZM14 34.8359H24V29.3789H14H4V34.8359H14ZM14 29.3789L14 39.3789H50.2656V29.3789V19.3789H14V29.3789ZM46.3125 43.6875H36.3125V49.1875H46.3125H56.3125V43.6875H46.3125ZM46.3125 49.1875V39.1875H17.9531V49.1875V59.1875H46.3125V49.1875ZM17.9531 49.1875H27.9531V37.5859H17.9531H7.95313L7.95313 49.1875H17.9531ZM17.9531 37.5859V47.5859H24.8281V37.5859V27.5859H17.9531V37.5859ZM24.8281 37.5859H14.8281V43.6875H24.8281H34.8281V37.5859H24.8281ZM24.8281 43.6875V53.6875H46.3125V43.6875V33.6875H24.8281V43.6875ZM85.5859 10H95.5859C95.5859 4.47715 91.1088 0 85.5859 0V10ZM85.5859 49.875V59.875C91.1088 59.875 95.5859 55.3978 95.5859 49.875H85.5859ZM78.625 49.875H68.625C68.625 55.3978 73.1022 59.875 78.625 59.875V49.875ZM78.625 10V0C73.1022 0 68.625 4.47715 68.625 10H78.625ZM60.707 13.0508H70.707C70.707 7.52793 66.2299 3.05078 60.707 3.05078V13.0508ZM60.707 22.1602H50.707C50.707 27.683 55.1842 32.1602 60.707 32.1602V22.1602ZM67.1523 22.1602V32.1602C72.6752 32.1602 77.1523 27.683 77.1523 22.1602L67.1523 22.1602ZM67.1523 13.0508V3.05078C61.6295 3.05078 57.1523 7.52793 57.1523 13.0508H67.1523ZM73.9414 13.0508L83.9414 13.0508C83.9414 7.52793 79.4643 3.05078 73.9414 3.05078V13.0508ZM73.9414 40.7656V50.7656C79.4643 50.7656 83.9414 46.2885 83.9414 40.7656H73.9414ZM53.7891 40.7656H43.7891C43.7891 46.2885 48.2662 50.7656 53.7891 50.7656V40.7656ZM53.7891 13.0508V3.05078C48.2662 3.05078 43.7891 7.52793 43.7891 13.0508H53.7891ZM60.707 35.2227H50.707C50.707 40.7455 55.1842 45.2227 60.707 45.2227V35.2227ZM67.1523 35.2227V45.2227C72.6752 45.2227 77.1523 40.7455 77.1523 35.2227H67.1523ZM67.1523 27.4883L77.1523 27.4883C77.1523 21.9654 72.6752 17.4883 67.1523 17.4883V27.4883ZM60.707 27.4883V17.4883C55.1842 17.4883 50.707 21.9654 50.707 27.4883H60.707ZM85.5859 10H75.5859V49.875H85.5859H95.5859V10H85.5859ZM85.5859 49.875V39.875H78.625V49.875V59.875H85.5859V49.875ZM78.625 49.875H88.625V10H78.625H68.625V49.875H78.625ZM78.625 10V20H85.5859V10V0L78.625 0V10ZM60.707 13.0508H50.707V22.1602H60.707H70.707V13.0508H60.707ZM60.707 22.1602V32.1602H67.1523V22.1602V12.1602H60.707V22.1602ZM67.1523 22.1602L77.1523 22.1602V13.0508L67.1523 13.0508H57.1523V22.1602H67.1523ZM67.1523 13.0508V23.0508H73.9414V13.0508V3.05078H67.1523V13.0508ZM73.9414 13.0508H63.9414V40.7656H73.9414H83.9414V13.0508L73.9414 13.0508ZM73.9414 40.7656V30.7656H53.7891V40.7656V50.7656H73.9414V40.7656ZM53.7891 40.7656H63.7891V13.0508H53.7891H43.7891V40.7656H53.7891ZM53.7891 13.0508V23.0508H60.707V13.0508V3.05078H53.7891V13.0508ZM60.707 35.2227V45.2227H67.1523V35.2227V25.2227H60.707V35.2227ZM67.1523 35.2227H77.1523V27.4883L67.1523 27.4883H57.1523V35.2227H67.1523ZM67.1523 27.4883V17.4883H60.707V27.4883V37.4883H67.1523V27.4883ZM60.707 27.4883H50.707V35.2227H60.707H70.707V27.4883H60.707ZM106.383 17.9492L116.383 18.0077C116.383 17.9882 116.383 17.9687 116.383 17.9492H106.383ZM115.965 35.5664L124.077 41.4144C125.873 38.922 126.425 35.742 125.572 32.7902C124.719 29.8384 122.556 27.4426 119.707 26.2929L115.965 35.5664ZM111.969 41.1094L107.949 50.2658C112.267 52.1616 117.323 50.7828 120.081 46.9574L111.969 41.1094ZM102.988 31.4414L112.279 27.7434C110.743 23.8821 106.978 21.3737 102.822 21.4428C98.6667 21.5118 94.9871 24.1439 93.5794 28.0542L102.988 31.4414ZM93.4492 42.1836L85.3408 48.0363C88.0839 51.8366 93.0984 53.2219 97.4033 51.3686L93.4492 42.1836ZM89.3242 36.4688L85.6013 27.1876C82.7453 28.3332 80.5758 30.7299 79.7194 33.6855C78.8629 36.641 79.4149 39.8263 81.2158 42.3214L89.3242 36.4688ZM99.3789 17.9492L109.379 18.0042C109.379 17.9858 109.379 17.9675 109.379 17.9492H99.3789ZM99.3789 12.8359V2.83594C93.8561 2.83594 89.3789 7.31309 89.3789 12.8359H99.3789ZM106.383 12.8359H116.383C116.383 7.31309 111.906 2.83594 106.383 2.83594V12.8359ZM123.613 10H133.613C133.613 4.47715 129.136 0 123.613 0V10ZM123.613 49.875V59.875C129.136 59.875 133.613 55.3978 133.613 49.875H123.613ZM116.652 49.875H106.652C106.652 55.3978 111.129 59.875 116.652 59.875V49.875ZM116.652 10V0C111.129 0 106.652 4.47715 106.652 10L116.652 10ZM106.383 17.9492L96.383 17.8907C96.3313 26.7296 99.127 39.5556 112.223 44.8399L115.965 35.5664L119.707 26.2929C118.594 25.844 117.953 25.1991 117.432 24.1044C116.804 22.7848 116.367 20.7459 116.383 18.0077L106.383 17.9492ZM115.965 35.5664L107.853 29.7184L103.857 35.2614L111.969 41.1094L120.081 46.9574L124.077 41.4144L115.965 35.5664ZM111.969 41.1094L115.989 31.9529C114.402 31.2565 113.207 30.0729 112.279 27.7434L102.988 31.4414L93.6972 35.1394C96.2075 41.4467 100.727 47.0951 107.949 50.2658L111.969 41.1094ZM102.988 31.4414L93.5794 28.0542C92.5459 30.925 91.1793 32.2735 89.4951 32.9985L93.4492 42.1836L97.4033 51.3686C105.301 47.9687 109.95 41.6258 112.397 34.8286L102.988 31.4414ZM93.4492 42.1836L101.558 36.3309L97.4326 30.6161L89.3242 36.4688L81.2158 42.3214L85.3408 48.0363L93.4492 42.1836ZM89.3242 36.4688L93.0472 45.7499C106.439 40.3779 109.328 27.1624 109.379 18.0042L99.3789 17.9492L89.3791 17.8943C89.3624 20.9171 88.8752 23.1939 88.1589 24.6982C87.5503 25.9762 86.8044 26.705 85.6013 27.1876L89.3242 36.4688ZM99.3789 17.9492H109.379V12.8359H99.3789H89.3789V17.9492H99.3789ZM99.3789 12.8359V22.8359H106.383V12.8359V2.83594H99.3789V12.8359ZM106.383 12.8359H96.3828V17.9492H106.383H116.383V12.8359H106.383ZM123.613 10H113.613V49.875H123.613H133.613V10H123.613ZM123.613 49.875V39.875H116.652V49.875V59.875H123.613V49.875ZM116.652 49.875H126.652V10H116.652L106.652 10V49.875H116.652ZM116.652 10V20H123.613V10V0L116.652 0V10ZM159.879 10H169.879C169.879 4.47715 165.402 0 159.879 0V10ZM159.879 20.5273H149.879C149.879 26.0502 154.356 30.5273 159.879 30.5273V20.5273ZM164.82 20.5273H174.82C174.82 15.0045 170.343 10.5273 164.82 10.5273V20.5273ZM164.82 26.1562V36.1562C170.343 36.1562 174.82 31.6791 174.82 26.1562H164.82ZM159.879 26.1562V16.1562C154.356 16.1562 149.879 20.6334 149.879 26.1562H159.879ZM159.879 38.1016V48.1016C165.402 48.1016 169.879 43.6244 169.879 38.1016H159.879ZM152.875 38.1016H142.875C142.875 43.6244 147.352 48.1016 152.875 48.1016V38.1016ZM152.875 10V0C147.352 0 142.875 4.47715 142.875 10H152.875ZM148.965 12.9219H158.965C158.965 7.39903 154.488 2.92187 148.965 2.92187V12.9219ZM130.445 34.707L121.587 39.3471C123.752 43.4802 128.487 45.5669 132.999 44.3756L130.445 34.707ZM127.609 29.293L125.108 19.6108C122.153 20.3742 119.708 22.4459 118.469 25.2359C117.231 28.026 117.335 31.229 118.751 33.933L127.609 29.293ZM141.359 18.5078L151.151 20.5383C151.762 17.5927 151.014 14.5285 149.115 12.1953C147.216 9.86213 144.368 8.50781 141.359 8.50781V18.5078ZM129.414 18.5078H119.414C119.414 24.0307 123.891 28.5078 129.414 28.5078V18.5078ZM129.414 12.9219V2.92187C123.891 2.92187 119.414 7.39903 119.414 12.9219H129.414ZM160.953 43.6875H170.953C170.953 38.1647 166.476 33.6875 160.953 33.6875V43.6875ZM160.953 49.1875V59.1875C166.476 59.1875 170.953 54.7103 170.953 49.1875H160.953ZM133.41 49.1875H123.41C123.41 54.7103 127.887 59.1875 133.41 59.1875V49.1875ZM133.41 35.2227V25.2227C127.887 25.2227 123.41 29.6998 123.41 35.2227H133.41ZM140.457 35.2227L150.457 35.2227C150.457 29.6998 145.98 25.2227 140.457 25.2227V35.2227ZM140.457 43.6875H130.457C130.457 49.2103 134.934 53.6875 140.457 53.6875V43.6875ZM159.879 10H149.879V20.5273H159.879H169.879V10H159.879ZM159.879 20.5273V30.5273H164.82V20.5273V10.5273H159.879V20.5273ZM164.82 20.5273H154.82V26.1562H164.82H174.82V20.5273H164.82ZM164.82 26.1562V16.1562H159.879V26.1562V36.1562H164.82V26.1562ZM159.879 26.1562H149.879V38.1016H159.879H169.879V26.1562H159.879ZM159.879 38.1016V28.1016H152.875V38.1016V48.1016H159.879V38.1016ZM152.875 38.1016H162.875V10H152.875H142.875V38.1016H152.875ZM152.875 10V20H159.879V10V0H152.875V10ZM148.965 12.9219H138.965C138.965 16.4642 138.004 18.705 136.657 20.2922C135.221 21.9847 132.602 23.7946 127.892 25.0385L130.445 34.707L132.999 44.3756C140.492 42.3968 147.133 38.857 151.905 33.2341C156.767 27.506 158.965 20.4655 158.965 12.9219H148.965ZM130.445 34.707L139.304 30.067L136.468 24.6529L127.609 29.293L118.751 33.933L121.587 39.3471L130.445 34.707ZM127.609 29.293L130.11 38.9752C140.077 36.4008 149.048 30.6813 151.151 20.5383L141.359 18.5078L131.568 16.4773C131.615 16.2502 131.702 16.4757 130.965 17.0749C130.126 17.7568 128.367 18.7691 125.108 19.6108L127.609 29.293ZM141.359 18.5078V8.50781H129.414V18.5078V28.5078L141.359 28.5078V18.5078ZM129.414 18.5078H139.414V12.9219H129.414H119.414V18.5078H129.414ZM129.414 12.9219V22.9219H148.965V12.9219V2.92187H129.414V12.9219ZM160.953 43.6875H150.953V49.1875H160.953H170.953V43.6875H160.953ZM160.953 49.1875V39.1875L133.41 39.1875V49.1875V59.1875L160.953 59.1875V49.1875ZM133.41 49.1875L143.41 49.1875V35.2227L133.41 35.2227H123.41V49.1875H133.41ZM133.41 35.2227V45.2227H140.457V35.2227V25.2227H133.41V35.2227ZM140.457 35.2227H130.457V43.6875H140.457L150.457 43.6875V35.2227L140.457 35.2227ZM140.457 43.6875V53.6875L160.953 53.6875V43.6875V33.6875L140.457 33.6875V43.6875ZM199.668 10H209.668C209.668 4.47715 205.191 0 199.668 0V10ZM199.668 49.875V59.875C205.191 59.875 209.668 55.3978 209.668 49.875H199.668ZM192.707 49.875H182.707C182.707 55.3978 187.184 59.875 192.707 59.875V49.875ZM192.707 10V0C187.184 0 182.707 4.47715 182.707 10H192.707ZM177.84 12.6641L177.77 22.6638C177.817 22.6641 177.864 22.6641 177.911 22.6638L177.84 12.6641ZM177.84 18.8945L177.67 28.8931C177.787 28.8951 177.905 28.895 178.022 28.8929L177.84 18.8945ZM199.668 10H189.668V49.875H199.668H209.668V10H199.668ZM199.668 49.875V39.875H192.707V49.875V59.875H199.668V49.875ZM192.707 49.875H202.707V10H192.707H182.707V49.875H192.707ZM192.707 10V20H199.668V10V0L192.707 0V10ZM177.84 12.6641L177.911 22.6638C177.843 22.6643 177.673 22.6406 177.498 22.5508C177.336 22.4681 177.345 22.4198 177.466 22.5782C177.736 22.9327 178.453 24.2334 178.453 26.9727H188.453H198.453C198.453 20.9463 196.892 15.0712 193.371 10.4521C189.723 5.66819 184.19 2.61877 177.769 2.66431L177.84 12.6641ZM188.453 26.9727H178.453C178.453 29.8028 177.723 31.1249 177.454 31.4804C177.333 31.6391 177.322 31.594 177.476 31.5147C177.642 31.4293 177.795 31.4102 177.84 31.4102V41.4102V51.4102C184.213 51.4102 189.732 48.3834 193.383 43.5733C196.906 38.9337 198.453 33.0371 198.453 26.9727H188.453ZM177.84 41.4102V31.4102C177.818 31.4102 177.923 31.4135 178.061 31.483C178.189 31.5479 178.17 31.5815 178.051 31.4265C177.785 31.0816 177.055 29.7839 177.055 26.9727H167.055H157.055C157.055 33.056 158.623 38.977 162.203 43.6273C165.916 48.4498 171.478 51.4102 177.84 51.4102V41.4102ZM167.055 26.9727H177.055C177.055 24.2526 177.772 22.9762 178.038 22.632C178.158 22.4774 178.174 22.5139 178.039 22.5822C177.978 22.6127 177.912 22.6363 177.85 22.6507C177.788 22.6649 177.757 22.6637 177.77 22.6638L177.84 12.6641L177.909 2.6643C171.5 2.6198 165.925 5.60151 162.216 10.3982C158.636 15.0277 157.055 20.9271 157.055 26.9727H167.055ZM177.84 18.8945L178.009 8.89597C172.378 8.80052 168.179 12.0746 166.006 16.1436C164.165 19.59 163.715 23.5385 163.715 26.9727H173.715H183.715C183.715 26.0559 183.783 25.4897 183.836 25.2055C183.892 24.8993 183.898 25.0966 183.647 25.5664C183.381 26.0649 182.755 26.9904 181.541 27.7722C180.262 28.5955 178.866 28.9134 177.67 28.8931L177.84 18.8945ZM173.715 26.9727H163.715C163.715 30.4271 164.159 34.3944 166.014 37.8541C168.229 41.9836 172.404 45.0937 177.84 45.0937V35.0937V25.0937C178.95 25.0937 180.286 25.3965 181.533 26.1982C182.729 26.9673 183.361 27.8831 183.639 28.4018C183.898 28.8846 183.894 29.0928 183.837 28.7849C183.784 28.4977 183.715 27.9194 183.715 26.9727H173.715ZM177.84 35.0937V45.0937C183.439 45.0937 187.49 41.7294 189.566 37.7986C191.365 34.3926 191.836 30.4806 191.836 26.9727H181.836H171.836C171.836 27.9039 171.766 28.4806 171.712 28.7724C171.654 29.0842 171.645 28.9062 171.882 28.4572C172.131 27.9865 172.726 27.0851 173.898 26.3005C175.138 25.4703 176.548 25.0937 177.84 25.0937V35.0937ZM181.836 26.9727H191.836C191.836 23.4853 191.359 19.5914 189.574 16.199C187.543 12.3393 183.465 8.79061 177.658 8.89618L177.84 18.8945L178.022 28.8929C176.636 28.9181 175.161 28.5217 173.89 27.6697C172.702 26.8723 172.111 25.9614 171.874 25.511C171.645 25.075 171.656 24.9078 171.713 25.218C171.767 25.507 171.836 26.0715 171.836 26.9727H181.836ZM247.148 10.0859H257.148C257.148 4.56309 252.671 0.0859375 247.148 0.0859375V10.0859ZM247.148 38.918V48.918C252.671 48.918 257.148 44.4408 257.148 38.918H247.148ZM240.23 38.918H230.23C230.23 44.4408 234.708 48.918 240.23 48.918V38.918ZM240.23 10.0859V0.0859375C234.708 0.0859375 230.23 4.56309 230.23 10.0859L240.23 10.0859ZM235.547 12.9219L245.547 12.9606C245.557 10.3018 244.508 7.74828 242.632 5.86452C240.755 3.98077 238.206 2.92187 235.547 2.92187V12.9219ZM216.855 34.9648L207.841 39.2945C209.943 43.6704 214.884 45.9047 219.558 44.5927L216.855 34.9648ZM214.234 29.5078L211.57 19.8694C208.715 20.6588 206.356 22.6732 205.131 25.3697C203.905 28.0662 203.938 31.1674 205.22 33.8374L214.234 29.5078ZM228.027 18.5078L237.783 20.705C238.451 17.7411 237.734 14.6343 235.837 12.2617C233.939 9.88905 231.066 8.50781 228.027 8.50781V18.5078ZM216.598 18.5078H206.598C206.598 24.0307 211.075 28.5078 216.598 28.5078V18.5078ZM216.598 12.9219V2.92187C211.075 2.92187 206.598 7.39903 206.598 12.9219H216.598ZM247.836 43.6875H257.836C257.836 38.1647 253.359 33.6875 247.836 33.6875V43.6875ZM247.836 49.1875V59.1875C253.359 59.1875 257.836 54.7103 257.836 49.1875H247.836ZM220.164 49.1875H210.164C210.164 54.7103 214.641 59.1875 220.164 59.1875V49.1875ZM220.164 36.2969V26.2969C214.641 26.2969 210.164 30.774 210.164 36.2969H220.164ZM227.039 36.2969H237.039C237.039 30.774 232.562 26.2969 227.039 26.2969V36.2969ZM227.039 43.6875H217.039C217.039 49.2103 221.516 53.6875 227.039 53.6875V43.6875ZM247.148 10.0859H237.148V38.918H247.148H257.148V10.0859H247.148ZM247.148 38.918V28.918H240.23V38.918V48.918H247.148V38.918ZM240.23 38.918H250.23V10.0859H240.23L230.23 10.0859V38.918H240.23ZM240.23 10.0859V20.0859H247.148V10.0859V0.0859375L240.23 0.0859375V10.0859ZM235.547 12.9219L225.547 12.8831C225.533 16.3964 224.565 18.6769 223.154 20.3402C221.645 22.1178 218.932 23.9954 214.153 25.337L216.855 34.9648L219.558 44.5927C227.025 42.4968 233.637 38.8958 238.401 33.2829C243.263 27.5556 245.517 20.5332 245.547 12.9606L235.547 12.9219ZM216.855 34.9648L225.87 30.6352L223.249 25.1782L214.234 29.5078L205.22 33.8374L207.841 39.2945L216.855 34.9648ZM214.234 29.5078L216.899 39.1462C226.753 36.4217 235.524 30.7344 237.783 20.705L228.027 18.5078L218.272 16.3106C218.265 16.3383 218.253 16.3891 218.186 16.4932C218.112 16.607 217.925 16.8571 217.503 17.2037C216.614 17.9325 214.825 18.9693 211.57 19.8694L214.234 29.5078ZM228.027 18.5078V8.50781H216.598V18.5078V28.5078H228.027V18.5078ZM216.598 18.5078H226.598V12.9219H216.598H206.598V18.5078H216.598ZM216.598 12.9219V22.9219H235.547V12.9219V2.92187L216.598 2.92187V12.9219ZM247.836 43.6875H237.836V49.1875H247.836H257.836V43.6875H247.836ZM247.836 49.1875V39.1875H220.164V49.1875V59.1875H247.836V49.1875ZM220.164 49.1875H230.164V36.2969H220.164H210.164V49.1875H220.164ZM220.164 36.2969V46.2969H227.039V36.2969V26.2969H220.164V36.2969ZM227.039 36.2969H217.039V43.6875H227.039H237.039V36.2969H227.039ZM227.039 43.6875V53.6875H247.836V43.6875V33.6875H227.039V43.6875Z" fill="white" mask="url(#path-1-outside-1_3990_1505)"/>
</g>
<defs>
<filter id="filter0_d_3990_1505" x="0" y="0" width="261.836" height="67.875" filterUnits="userSpaceOnUse" color-interpolation-filters="sRGB">
<feFlood flood-opacity="0" result="BackgroundImageFix"/>
<feColorMatrix in="SourceAlpha" type="matrix" values="0 0 0 0 0 0 0 0 0 0 0 0 0 0 0 0 0 0 127 0" result="hardAlpha"/>
<feOffset dy="4"/>
<feGaussianBlur stdDeviation="2"/>
<feComposite in2="hardAlpha" operator="out"/>
<feColorMatrix type="matrix" values="0 0 0 0 0 0 0 0 0 0 0 0 0 0 0 0 0 0 0.07 0"/>
<feBlend mode="normal" in2="BackgroundImageFix" result="effect1_dropShadow_3990_1505"/>
<feBlend mode="normal" in="SourceGraphic" in2="effect1_dropShadow_3990_1505" result="shape"/>
</filter>
</defs>
</svg>
