<svg width="465" height="68" viewBox="0 0 465 68" fill="none" xmlns="http://www.w3.org/2000/svg">
<g filter="url(#filter0_d_3990_1476)">
<mask id="path-1-outside-1_3990_1476" maskUnits="userSpaceOnUse" x="3.65627" y="-0.378906" width="457" height="61" fill="black">
<rect fill="white" x="3.65627" y="-0.378906" width="457" height="61"/>
<path d="M37.2891 13.9102V19.2812H29.8985C30.1563 22.6758 32.4551 26.1777 38.793 27.7031L35.6992 33.1602C31.2949 32.0645 28.3516 29.8301 26.5469 26.9727C24.8281 30.2383 21.8418 32.7949 17.2656 34.0625L14 28.6914C20.3809 27.0801 22.7442 23.084 23.0235 19.2812H15.6328V13.9102H23.0235V10H29.9414V13.9102H37.2891ZM46.3555 10.1289V18.9805H51.2969V24.5234H46.3555V33.8477H39.4375V10.1289L46.3555 10.1289ZM33.1641 34.4492C41.543 34.4492 46.7422 37.2852 46.7422 42.2266C46.7422 47.082 41.543 49.918 33.1641 49.875C24.5703 49.918 19.2422 47.082 19.2852 42.2266C19.2422 37.2852 24.5703 34.4492 33.1641 34.4492ZM33.1641 39.6914C28.3516 39.6914 26.1602 40.3359 26.1602 42.2266C26.1602 44.0742 28.3516 44.7617 33.1641 44.7617C37.7617 44.7617 39.9102 44.0742 39.9102 42.2266C39.9102 40.3359 37.7617 39.6914 33.1641 39.6914ZM65.3477 12.6641C71.7071 12.6211 76.5625 16.875 76.5625 22.6758C76.5625 28.5195 71.7071 32.7305 65.3477 32.6875C59.1172 32.7305 54.1328 28.5195 54.1328 22.6758C54.1328 16.875 59.1172 12.6211 65.3477 12.6641ZM65.3477 18.5938C62.9414 18.5938 61.0078 19.9688 61.0078 22.6758C61.0078 25.4688 62.9414 26.7578 65.3477 26.7578C67.8828 26.7578 69.8594 25.4688 69.8594 22.6758C69.8594 19.9688 67.8828 18.5938 65.3477 18.5938ZM86.4453 10.1289V50.0039H79.6133V10.1289H86.4453ZM52.7149 36.7695C59.6328 36.7695 69.3008 36.6406 77.5938 35.5234L78.1094 40.4648C69.5156 42.1836 60.2774 42.2695 53.4883 42.2695L52.7149 36.7695ZM113.645 12.0625V17.4766H106.426C106.77 21.4941 109.068 25.6191 115.063 27.5742L111.754 32.8594C107.479 31.5918 104.643 29.0352 102.945 25.8125C101.184 29.3789 98.2188 32.2363 93.6641 33.5898L90.1406 28.1758C96.543 26.2637 98.8848 21.709 99.293 17.4766H92.0313V12.0625L113.645 12.0625ZM124.43 35.2656V49.875H117.555V40.7227H96.8008V35.2656H124.43ZM124.43 10.1289V33.7617H117.555V24.7383H112.613V19.1523H117.555V10.1289H124.43ZM162.156 10.2148V38.4453H155.238V10.2148H162.156ZM163.102 43.8164V49.3164L134.957 49.3164V35.6094L141.918 35.6094V43.8164H163.102ZM140.199 12.5781C146.387 12.5781 151.328 16.875 151.328 22.7617C151.328 28.7773 146.387 33.0312 140.199 33.0312C134.012 33.0312 129.027 28.7773 129.07 22.7617C129.027 16.875 134.012 12.5781 140.199 12.5781ZM140.199 18.5508C137.664 18.5508 135.773 19.9687 135.773 22.7617C135.773 25.6836 137.664 27.0586 140.199 27.0586C142.605 27.0586 144.496 25.6836 144.496 22.7617C144.496 19.9687 142.605 18.5508 140.199 18.5508ZM198.68 12.9219V15.6289C198.68 18.5078 198.68 22.4609 197.863 27.2305L191.117 26.5859C191.676 23.3418 191.848 20.7422 191.934 18.5078H177.84V12.9219H198.68ZM189.012 22.332V29.3789C192.686 29.207 196.445 28.9062 199.926 28.3906L200.27 33.2891C192.02 34.8789 182.91 35.0078 176.121 35.0078L175.52 29.6367C177.539 29.6152 179.795 29.6152 182.18 29.5508V22.332H189.012ZM208.777 10.1289V21.7305H212.945V27.4453H208.777V39.7773H201.688V10.1289H208.777ZM209.98 43.8164V49.3164H181.191V37.1562H188.109V43.8164H209.98ZM248.094 10.1289V32.9883H241.219V24.3945H236.063V18.8086H241.219V10.1289H248.094ZM248.094 34.3633V49.5312H220.938V34.3633H248.094ZM227.855 39.7773V44.0312H241.391V39.7773H227.855ZM237.309 11.8477V17.3047H230.133C230.498 21.2148 232.797 25.3184 238.727 27.2734L235.418 32.6875C231.143 31.334 228.285 28.7559 226.566 25.5117C224.826 29.0996 221.861 31.9355 217.328 33.2891L213.805 27.875C220.1 25.9414 222.463 21.6016 222.914 17.3047H215.695V11.8477H237.309ZM270.438 10.6445C279.762 10.6445 285.09 13.0078 285.133 17.3477C285.09 21.7305 279.762 24.0937 270.438 24.0937C261.07 24.0937 255.656 21.7305 255.699 17.3477C255.656 13.0078 261.07 10.6445 270.438 10.6445ZM270.438 15.6289C265.066 15.6289 262.918 16.1445 262.918 17.3477C262.918 18.8086 265.066 19.0664 270.438 19.1094C275.852 19.0664 278 18.8086 278 17.3477C278 16.1445 275.852 15.6289 270.438 15.6289ZM288.57 25.4258V30.8828H252.305V25.4258H288.57ZM284.273 32.3867V43.3437H263.09V44.6328H285.219V49.7031H256.344V38.6172H277.484V37.4141H256.387V32.3867H284.273ZM334.504 10.1289V49.875H328.016V10.1289H334.504ZM326.297 10.6445V48.1992H319.895V37.457L316.5 41.7969C313.213 39.9062 311.107 36.8555 309.84 33.1172C308.486 37.1992 306.316 40.6367 302.965 42.6992L298.883 37.6289C304.941 33.8477 306.445 26.8008 306.445 20.3555V19.2812H300.645V13.8242H318.262V19.2812H313.063V20.3555C313.02 26.5859 314.352 32.9238 319.895 36.4258V28.8633H315.598V23.3203H319.895V10.6445H326.297ZM354.27 18.0781C354.227 25.4258 356.504 32.7305 363.852 35.6953L359.855 41.2383C355.451 39.3047 352.594 35.8887 350.875 31.5703C349.135 36.4043 346.127 40.25 341.336 42.3125L337.211 36.5977C344.816 33.5469 347.223 25.8984 347.266 18.0781V12.9648H354.27V18.0781ZM371.5 10.1289V50.0039H364.539V10.1289L371.5 10.1289ZM407.68 10.1289V25.2109H413.051V30.8398H407.68V49.875H400.848V10.1289H407.68ZM398.914 15.8008V21.2578H375.754V15.8008H383.961V10.8594H390.836V15.8008H398.914ZM387.398 22.8047C393.285 22.8047 397.797 26.8437 397.797 32.4727C397.797 38.1445 393.285 42.1836 387.398 42.1836C381.383 42.1836 376.957 38.1445 376.957 32.4727C376.957 26.8437 381.383 22.8047 387.398 22.8047ZM387.398 28.3477C385.164 28.3477 383.531 29.8086 383.574 32.4727C383.531 35.2656 385.164 36.5977 387.398 36.5977C389.59 36.5977 391.18 35.2656 391.18 32.4727C391.18 29.8086 389.59 28.3477 387.398 28.3477ZM446.352 20.2266V25.5547H418.25V11.5469H425.125V20.2266H446.352ZM450.262 29.0781V34.4062H413.996V29.0781H450.262ZM446.609 43.6016V49.1016H417.777V37.1562H424.738V43.6016H446.609Z"/>
</mask>
<path d="M37.2891 13.9102V19.2812H29.8985C30.1563 22.6758 32.4551 26.1777 38.793 27.7031L35.6992 33.1602C31.2949 32.0645 28.3516 29.8301 26.5469 26.9727C24.8281 30.2383 21.8418 32.7949 17.2656 34.0625L14 28.6914C20.3809 27.0801 22.7442 23.084 23.0235 19.2812H15.6328V13.9102H23.0235V10H29.9414V13.9102H37.2891ZM46.3555 10.1289V18.9805H51.2969V24.5234H46.3555V33.8477H39.4375V10.1289L46.3555 10.1289ZM33.1641 34.4492C41.543 34.4492 46.7422 37.2852 46.7422 42.2266C46.7422 47.082 41.543 49.918 33.1641 49.875C24.5703 49.918 19.2422 47.082 19.2852 42.2266C19.2422 37.2852 24.5703 34.4492 33.1641 34.4492ZM33.1641 39.6914C28.3516 39.6914 26.1602 40.3359 26.1602 42.2266C26.1602 44.0742 28.3516 44.7617 33.1641 44.7617C37.7617 44.7617 39.9102 44.0742 39.9102 42.2266C39.9102 40.3359 37.7617 39.6914 33.1641 39.6914ZM65.3477 12.6641C71.7071 12.6211 76.5625 16.875 76.5625 22.6758C76.5625 28.5195 71.7071 32.7305 65.3477 32.6875C59.1172 32.7305 54.1328 28.5195 54.1328 22.6758C54.1328 16.875 59.1172 12.6211 65.3477 12.6641ZM65.3477 18.5938C62.9414 18.5938 61.0078 19.9688 61.0078 22.6758C61.0078 25.4688 62.9414 26.7578 65.3477 26.7578C67.8828 26.7578 69.8594 25.4688 69.8594 22.6758C69.8594 19.9688 67.8828 18.5938 65.3477 18.5938ZM86.4453 10.1289V50.0039H79.6133V10.1289H86.4453ZM52.7149 36.7695C59.6328 36.7695 69.3008 36.6406 77.5938 35.5234L78.1094 40.4648C69.5156 42.1836 60.2774 42.2695 53.4883 42.2695L52.7149 36.7695ZM113.645 12.0625V17.4766H106.426C106.77 21.4941 109.068 25.6191 115.063 27.5742L111.754 32.8594C107.479 31.5918 104.643 29.0352 102.945 25.8125C101.184 29.3789 98.2188 32.2363 93.6641 33.5898L90.1406 28.1758C96.543 26.2637 98.8848 21.709 99.293 17.4766H92.0313V12.0625L113.645 12.0625ZM124.43 35.2656V49.875H117.555V40.7227H96.8008V35.2656H124.43ZM124.43 10.1289V33.7617H117.555V24.7383H112.613V19.1523H117.555V10.1289H124.43ZM162.156 10.2148V38.4453H155.238V10.2148H162.156ZM163.102 43.8164V49.3164L134.957 49.3164V35.6094L141.918 35.6094V43.8164H163.102ZM140.199 12.5781C146.387 12.5781 151.328 16.875 151.328 22.7617C151.328 28.7773 146.387 33.0312 140.199 33.0312C134.012 33.0312 129.027 28.7773 129.07 22.7617C129.027 16.875 134.012 12.5781 140.199 12.5781ZM140.199 18.5508C137.664 18.5508 135.773 19.9687 135.773 22.7617C135.773 25.6836 137.664 27.0586 140.199 27.0586C142.605 27.0586 144.496 25.6836 144.496 22.7617C144.496 19.9687 142.605 18.5508 140.199 18.5508ZM198.68 12.9219V15.6289C198.68 18.5078 198.68 22.4609 197.863 27.2305L191.117 26.5859C191.676 23.3418 191.848 20.7422 191.934 18.5078H177.84V12.9219H198.68ZM189.012 22.332V29.3789C192.686 29.207 196.445 28.9062 199.926 28.3906L200.27 33.2891C192.02 34.8789 182.91 35.0078 176.121 35.0078L175.52 29.6367C177.539 29.6152 179.795 29.6152 182.18 29.5508V22.332H189.012ZM208.777 10.1289V21.7305H212.945V27.4453H208.777V39.7773H201.688V10.1289H208.777ZM209.98 43.8164V49.3164H181.191V37.1562H188.109V43.8164H209.98ZM248.094 10.1289V32.9883H241.219V24.3945H236.063V18.8086H241.219V10.1289H248.094ZM248.094 34.3633V49.5312H220.938V34.3633H248.094ZM227.855 39.7773V44.0312H241.391V39.7773H227.855ZM237.309 11.8477V17.3047H230.133C230.498 21.2148 232.797 25.3184 238.727 27.2734L235.418 32.6875C231.143 31.334 228.285 28.7559 226.566 25.5117C224.826 29.0996 221.861 31.9355 217.328 33.2891L213.805 27.875C220.1 25.9414 222.463 21.6016 222.914 17.3047H215.695V11.8477H237.309ZM270.438 10.6445C279.762 10.6445 285.09 13.0078 285.133 17.3477C285.09 21.7305 279.762 24.0937 270.438 24.0937C261.07 24.0937 255.656 21.7305 255.699 17.3477C255.656 13.0078 261.07 10.6445 270.438 10.6445ZM270.438 15.6289C265.066 15.6289 262.918 16.1445 262.918 17.3477C262.918 18.8086 265.066 19.0664 270.438 19.1094C275.852 19.0664 278 18.8086 278 17.3477C278 16.1445 275.852 15.6289 270.438 15.6289ZM288.57 25.4258V30.8828H252.305V25.4258H288.57ZM284.273 32.3867V43.3437H263.09V44.6328H285.219V49.7031H256.344V38.6172H277.484V37.4141H256.387V32.3867H284.273ZM334.504 10.1289V49.875H328.016V10.1289H334.504ZM326.297 10.6445V48.1992H319.895V37.457L316.5 41.7969C313.213 39.9062 311.107 36.8555 309.84 33.1172C308.486 37.1992 306.316 40.6367 302.965 42.6992L298.883 37.6289C304.941 33.8477 306.445 26.8008 306.445 20.3555V19.2812H300.645V13.8242H318.262V19.2812H313.063V20.3555C313.02 26.5859 314.352 32.9238 319.895 36.4258V28.8633H315.598V23.3203H319.895V10.6445H326.297ZM354.27 18.0781C354.227 25.4258 356.504 32.7305 363.852 35.6953L359.855 41.2383C355.451 39.3047 352.594 35.8887 350.875 31.5703C349.135 36.4043 346.127 40.25 341.336 42.3125L337.211 36.5977C344.816 33.5469 347.223 25.8984 347.266 18.0781V12.9648H354.27V18.0781ZM371.5 10.1289V50.0039H364.539V10.1289L371.5 10.1289ZM407.68 10.1289V25.2109H413.051V30.8398H407.68V49.875H400.848V10.1289H407.68ZM398.914 15.8008V21.2578H375.754V15.8008H383.961V10.8594H390.836V15.8008H398.914ZM387.398 22.8047C393.285 22.8047 397.797 26.8437 397.797 32.4727C397.797 38.1445 393.285 42.1836 387.398 42.1836C381.383 42.1836 376.957 38.1445 376.957 32.4727C376.957 26.8437 381.383 22.8047 387.398 22.8047ZM387.398 28.3477C385.164 28.3477 383.531 29.8086 383.574 32.4727C383.531 35.2656 385.164 36.5977 387.398 36.5977C389.59 36.5977 391.18 35.2656 391.18 32.4727C391.18 29.8086 389.59 28.3477 387.398 28.3477ZM446.352 20.2266V25.5547H418.25V11.5469H425.125V20.2266H446.352ZM450.262 29.0781V34.4062H413.996V29.0781H450.262ZM446.609 43.6016V49.1016H417.777V37.1562H424.738V43.6016H446.609Z" fill="#11DCA9"/>
<path d="M37.2891 13.9102H47.2891C47.2891 8.38731 42.8119 3.91016 37.2891 3.91016V13.9102ZM37.2891 19.2812V29.2812C42.8119 29.2812 47.2891 24.8041 47.2891 19.2812H37.2891ZM29.8985 19.2812V9.28125C27.1147 9.28125 24.4569 10.4416 22.5645 12.4832C20.6721 14.5248 19.7164 17.2628 19.9272 20.0386L29.8985 19.2812ZM38.793 27.7031L47.4922 32.635C49.0409 29.9033 49.2165 26.6028 47.9665 23.7222C46.7164 20.8417 44.1859 18.7155 41.133 17.9807L38.793 27.7031ZM35.6992 33.1602L33.285 42.8644C37.6407 43.948 42.1848 41.9966 44.3985 38.092L35.6992 33.1602ZM26.5469 26.9727L35.0018 21.6327C33.0946 18.613 29.7216 16.8397 26.1528 16.9804C22.584 17.1212 19.3612 19.1546 17.6977 22.3152L26.5469 26.9727ZM17.2656 34.0625L8.72102 39.2576C11.0449 43.0797 15.6243 44.8937 19.9351 43.6996L17.2656 34.0625ZM14 28.6914L11.5516 18.9958C8.47403 19.7729 5.94817 21.9651 4.74554 24.9027C3.54291 27.8402 3.80635 31.1743 5.4554 33.8865L14 28.6914ZM23.0235 19.2812L32.9966 20.0137C33.2002 17.2418 32.2409 14.5101 30.3489 12.4741C28.4569 10.438 25.8029 9.28125 23.0235 9.28125V19.2812ZM15.6328 19.2812H5.63283C5.63283 24.8041 10.11 29.2812 15.6328 29.2812V19.2812ZM15.6328 13.9102V3.91016C10.11 3.91016 5.63283 8.38731 5.63283 13.9102H15.6328ZM23.0235 13.9102V23.9102C28.5463 23.9102 33.0235 19.433 33.0235 13.9102H23.0235ZM23.0235 10V0C17.5006 0 13.0235 4.47715 13.0235 10H23.0235ZM29.9414 10H39.9414C39.9414 4.47715 35.4643 0 29.9414 0V10ZM29.9414 13.9102H19.9414C19.9414 19.433 24.4186 23.9102 29.9414 23.9102V13.9102ZM46.3555 10.1289H56.3555C56.3555 4.60606 51.8783 0.128906 46.3555 0.128906V10.1289ZM46.3555 18.9805H36.3555C36.3555 24.5033 40.8326 28.9805 46.3555 28.9805V18.9805ZM51.2969 18.9805H61.2969C61.2969 13.4576 56.8197 8.98047 51.2969 8.98047V18.9805ZM51.2969 24.5234V34.5234C56.8197 34.5234 61.2969 30.0463 61.2969 24.5234H51.2969ZM46.3555 24.5234V14.5234C40.8326 14.5234 36.3555 19.0006 36.3555 24.5234H46.3555ZM46.3555 33.8477V43.8477C51.8783 43.8477 56.3555 39.3705 56.3555 33.8477H46.3555ZM39.4375 33.8477H29.4375C29.4375 39.3705 33.9147 43.8477 39.4375 43.8477V33.8477ZM39.4375 10.1289V0.128906C33.9147 0.128906 29.4375 4.60606 29.4375 10.1289H39.4375ZM33.1641 49.875L33.2154 39.8751C33.1816 39.875 33.1478 39.875 33.1141 39.8751L33.1641 49.875ZM19.2852 42.2266L29.2848 42.3151C29.2853 42.2566 29.2853 42.1981 29.2848 42.1396L19.2852 42.2266ZM37.2891 13.9102H27.2891V19.2812H37.2891H47.2891V13.9102H37.2891ZM37.2891 19.2812V9.28125H29.8985V19.2812V29.2812H37.2891V19.2812ZM29.8985 19.2812L19.9272 20.0386C20.2128 23.7995 21.6745 27.7347 24.7748 31.0373C27.8157 34.2767 31.8781 36.3244 36.453 37.4255L38.793 27.7031L41.133 17.9807C39.37 17.5565 39.114 17.0905 39.3566 17.3489C39.4689 17.4686 39.6079 17.6642 39.716 17.9197C39.8198 18.1651 39.8587 18.3792 39.8697 18.5239L29.8985 19.2812ZM38.793 27.7031L30.0937 22.7713L27 28.2283L35.6992 33.1602L44.3985 38.092L47.4922 32.635L38.793 27.7031ZM35.6992 33.1602L38.1135 23.456C36.9606 23.1691 36.2683 22.8031 35.8623 22.5204C35.4672 22.2453 35.2049 21.9543 35.0018 21.6327L26.5469 26.9727L18.092 32.3126C21.4036 37.556 26.6285 41.2083 33.285 42.8644L35.6992 33.1602ZM26.5469 26.9727L17.6977 22.3152C17.464 22.7592 17.1781 23.106 16.7966 23.4061C16.4075 23.712 15.7403 24.1085 14.5962 24.4254L17.2656 34.0625L19.9351 43.6996C27.0008 41.7425 32.313 37.488 35.3961 31.6301L26.5469 26.9727ZM17.2656 34.0625L25.8103 28.8674L22.5446 23.4963L14 28.6914L5.4554 33.8865L8.72102 39.2576L17.2656 34.0625ZM14 28.6914L16.4484 38.387C21.299 37.1621 25.4305 34.8033 28.4216 31.2818C31.3981 27.7773 32.7234 23.7335 32.9966 20.0137L23.0235 19.2812L13.0503 18.5488C13.0464 18.6021 13.04 18.5902 13.0632 18.5301C13.0902 18.46 13.1341 18.3862 13.178 18.3345C13.2232 18.2812 13.1952 18.3374 12.9928 18.4564C12.7812 18.5809 12.3377 18.7973 11.5516 18.9958L14 28.6914ZM23.0235 19.2812V9.28125H15.6328V19.2812V29.2812H23.0235V19.2812ZM15.6328 19.2812H25.6328V13.9102H15.6328H5.63283V19.2812H15.6328ZM15.6328 13.9102V23.9102H23.0235V13.9102V3.91016H15.6328V13.9102ZM23.0235 13.9102H33.0235V10H23.0235H13.0235V13.9102H23.0235ZM23.0235 10V20H29.9414V10V0H23.0235V10ZM29.9414 10H19.9414V13.9102H29.9414H39.9414V10H29.9414ZM29.9414 13.9102V23.9102H37.2891V13.9102V3.91016H29.9414V13.9102ZM46.3555 10.1289L36.3555 10.1289V18.9805H46.3555H56.3555V10.1289H46.3555ZM46.3555 18.9805V28.9805H51.2969V18.9805V8.98047H46.3555V18.9805ZM51.2969 18.9805H41.2969V24.5234H51.2969H61.2969V18.9805H51.2969ZM51.2969 24.5234V14.5234H46.3555V24.5234V34.5234H51.2969V24.5234ZM46.3555 24.5234H36.3555V33.8477H46.3555H56.3555V24.5234H46.3555ZM46.3555 33.8477V23.8477H39.4375V33.8477V43.8477H46.3555V33.8477ZM39.4375 33.8477H49.4375V10.1289L39.4375 10.1289H29.4375V33.8477H39.4375ZM39.4375 10.1289V20.1289H46.3555V10.1289V0.128906H39.4375V10.1289ZM33.1641 34.4492V44.4492C34.7138 44.4492 35.9196 44.582 36.8032 44.764C37.7037 44.9494 38.1069 45.1522 38.1747 45.1905C38.2233 45.218 37.813 44.9959 37.39 44.3387C36.9285 43.6216 36.7422 42.8331 36.7422 42.2266H46.7422H56.7422C56.7422 35.5015 52.8927 30.5357 48.0158 27.7792C43.5852 25.275 38.2557 24.4492 33.1641 24.4492V34.4492ZM46.7422 42.2266H36.7422C36.7422 41.5634 36.9477 40.7418 37.4232 40.0129C37.8572 39.3475 38.2735 39.1267 38.2202 39.1565C38.1502 39.1955 37.7444 39.3967 36.8449 39.5779C35.9626 39.7558 34.7593 39.883 33.2154 39.8751L33.1641 49.875L33.1128 59.8749C38.2193 59.9011 43.5427 59.0911 47.9703 56.6189C52.8194 53.9114 56.7422 48.9782 56.7422 42.2266H46.7422ZM33.1641 49.875L33.1141 39.8751C31.5021 39.8832 30.2342 39.7537 29.2932 39.5687C28.3333 39.38 27.8802 39.1665 27.7771 39.1102C27.6871 39.0611 28.1119 39.2709 28.5649 39.955C29.0671 40.7135 29.2912 41.5888 29.2848 42.3151L19.2852 42.2266L9.28557 42.1381C9.22437 49.0534 13.3207 54.0047 18.1946 56.6651C22.6561 59.1005 28.0336 59.9008 33.2141 59.8749L33.1641 49.875ZM19.2852 42.2266L29.2848 42.1396C29.2906 42.8078 29.0867 43.6495 28.5986 44.3965C28.1566 45.073 27.7375 45.2843 27.8223 45.2375C27.9229 45.1819 28.3732 44.9666 29.334 44.7736C30.2761 44.5843 31.5465 44.4492 33.1641 44.4492V34.4492V24.4492C27.9983 24.4492 22.6143 25.265 18.1494 27.7322C13.2445 30.4425 9.22568 35.4272 9.28556 42.3135L19.2852 42.2266ZM33.1641 39.6914V29.6914C30.6905 29.6914 27.4581 29.8071 24.5894 30.7991C23.0317 31.3377 20.8272 32.3833 18.9962 34.5121C16.9811 36.855 16.1602 39.6422 16.1602 42.2266H26.1602H36.1602C36.1602 43.8656 35.6131 45.8633 34.1593 47.5536C32.8896 49.0298 31.5338 49.5597 31.1255 49.7009C30.6945 49.8499 30.5808 49.8183 31.054 49.7701C31.4806 49.7266 32.155 49.6914 33.1641 49.6914V39.6914ZM26.1602 42.2266H16.1602C16.1602 44.8573 17.0157 47.6345 19.0162 49.9461C20.8292 52.041 23.0035 53.0822 24.55 53.6242C27.4184 54.6295 30.6436 54.7617 33.1641 54.7617V44.7617V34.7617C32.1714 34.7617 31.5075 34.7249 31.0914 34.6809C30.6308 34.6322 30.741 34.6013 31.1649 34.7498C31.5619 34.889 32.8876 35.4119 34.1393 36.8582C35.5785 38.5212 36.1602 40.5196 36.1602 42.2266H26.1602ZM33.1641 44.7617V54.7617C35.5974 54.7617 38.7967 54.6292 41.6677 53.5889C43.2248 53.0248 45.3732 51.9541 47.1497 49.846C49.0928 47.54 49.9102 44.8025 49.9102 42.2266H39.9102H29.9102C29.9102 40.5745 30.459 38.6157 31.8556 36.9584C33.0855 35.4987 34.4095 34.9464 34.8548 34.7851C35.3167 34.6177 35.4725 34.6405 35.0638 34.6854C34.6988 34.7256 34.0923 34.7617 33.1641 34.7617V44.7617ZM39.9102 42.2266H49.9102C49.9102 39.6958 49.1259 36.9488 47.1693 34.6124C45.3753 32.4702 43.1969 31.3946 41.6275 30.8336C38.7553 29.8068 35.5484 29.6914 33.1641 29.6914V39.6914V49.6914C34.1094 49.6914 34.7269 49.726 35.1028 49.7658C35.5242 49.8106 35.3647 49.8343 34.895 49.6664C34.4375 49.5028 33.0835 48.9429 31.836 47.4533C30.4259 45.7695 29.9102 43.812 29.9102 42.2266H39.9102ZM65.3477 12.6641L65.2787 22.6638C65.3242 22.6641 65.3697 22.6641 65.4152 22.6638L65.3477 12.6641ZM65.3477 32.6875L65.4152 22.6877C65.3697 22.6874 65.3242 22.6874 65.2787 22.6877L65.3477 32.6875ZM86.4453 10.1289H96.4453C96.4453 4.60606 91.9682 0.128906 86.4453 0.128906V10.1289ZM86.4453 50.0039V60.0039C91.9682 60.0039 96.4453 55.5268 96.4453 50.0039H86.4453ZM79.6133 50.0039H69.6133C69.6133 55.5268 74.0905 60.0039 79.6133 60.0039V50.0039ZM79.6133 10.1289V0.128906C74.0905 0.128906 69.6133 4.60606 69.6133 10.1289H79.6133ZM52.7149 36.7695V26.7695C49.8198 26.7695 47.0668 28.0242 45.1675 30.2093C43.2682 32.3943 42.4091 35.2952 42.8123 38.1621L52.7149 36.7695ZM77.5938 35.5234L87.5398 34.4856C87.2591 31.7961 85.9013 29.3349 83.7758 27.6633C81.6504 25.9916 78.9385 25.2519 76.2587 25.613L77.5938 35.5234ZM78.1094 40.4648L80.0706 50.2706C85.1318 49.2584 88.5911 44.5606 88.0554 39.427L78.1094 40.4648ZM53.4883 42.2695L43.5857 43.6621C44.2799 48.5983 48.5035 52.2695 53.4883 52.2695V42.2695ZM65.3477 12.6641L65.4152 22.6638C65.8808 22.6607 66.2086 22.7364 66.4106 22.8088C66.614 22.8816 66.6958 22.9522 66.7012 22.957C66.703 22.9586 66.6541 22.913 66.6088 22.8137C66.5601 22.7071 66.5625 22.6418 66.5625 22.6758H76.5625L86.5625 22.6758C86.5625 10.2955 76.0994 2.59119 65.2801 2.66429L65.3477 12.6641ZM76.5625 22.6758H66.5625C66.5625 22.7307 66.5559 22.6719 66.6062 22.5617C66.6276 22.5147 66.6522 22.4747 66.6749 22.4442C66.6973 22.4142 66.7125 22.4007 66.7124 22.4007C66.7121 22.401 66.6934 22.4175 66.6492 22.4433C66.6049 22.4692 66.5339 22.5049 66.4314 22.5414C66.2274 22.614 65.8928 22.691 65.4152 22.6877L65.3477 32.6875L65.2801 42.6873C76.0695 42.7602 86.5625 35.1257 86.5625 22.6758L76.5625 22.6758ZM65.3477 32.6875L65.2787 22.6877C64.4173 22.6937 64.0405 22.4087 64.0016 22.3745C63.9852 22.3601 64.0313 22.3974 64.0787 22.4996C64.1307 22.6116 64.1328 22.691 64.1328 22.6758H54.1328H44.1328C44.1328 35.1955 54.8336 42.7603 65.4166 42.6873L65.3477 32.6875ZM54.1328 22.6758H64.1328C64.1328 22.6698 64.1331 22.693 64.1233 22.7375C64.1136 22.7815 64.0976 22.8295 64.0761 22.8758C64.0305 22.9738 63.9892 23.0041 64.0128 22.9833C64.0656 22.9367 64.4441 22.6581 65.2787 22.6638L65.3477 12.6641L65.4166 2.6643C54.8036 2.59111 44.1328 10.2255 44.1328 22.6758H54.1328ZM65.3477 18.5938V8.59375C62.3273 8.59375 58.7202 9.4583 55.7123 12.0747C52.5101 14.8602 51.0078 18.7548 51.0078 22.6758H61.0078H71.0078C71.0078 23.8897 70.4724 25.7433 68.8385 27.1646C67.399 28.4167 65.9618 28.5938 65.3477 28.5938V18.5938ZM61.0078 22.6758H51.0078C51.0078 26.5618 52.4604 30.5253 55.7718 33.3604C58.8473 35.9935 62.4773 36.7578 65.3477 36.7578V26.7578V16.7578C65.8118 16.7578 67.2719 16.8776 68.779 18.1679C70.5221 19.6602 71.0078 21.5827 71.0078 22.6758H61.0078ZM65.3477 26.7578V36.7578C68.17 36.7578 71.8095 36.0512 74.9309 33.4672C78.3335 30.6505 79.8594 26.6437 79.8594 22.6758L69.8594 22.6758H59.8594C59.8594 21.5008 60.397 19.535 62.1775 18.0611C63.6768 16.8199 65.0605 16.7578 65.3477 16.7578V26.7578ZM69.8594 22.6758L79.8594 22.6758C79.8594 18.6724 78.2824 14.7349 74.9909 11.9666C71.9327 9.39441 68.3149 8.59375 65.3477 8.59375V18.5938V28.5938C64.9156 28.5938 63.5537 28.4806 62.1175 27.2727C60.4481 25.8686 59.8594 23.9721 59.8594 22.6758H69.8594ZM86.4453 10.1289H76.4453V50.0039H86.4453H96.4453V10.1289H86.4453ZM86.4453 50.0039V40.0039H79.6133V50.0039V60.0039H86.4453V50.0039ZM79.6133 50.0039H89.6133V10.1289H79.6133H69.6133V50.0039H79.6133ZM79.6133 10.1289V20.1289H86.4453V10.1289V0.128906L79.6133 0.128906V10.1289ZM52.7149 36.7695V46.7695C59.6427 46.7695 69.9064 46.6494 78.9289 45.4339L77.5938 35.5234L76.2587 25.613C68.6952 26.6319 59.623 26.7695 52.7149 26.7695V36.7695ZM77.5938 35.5234L67.6478 36.5613L68.1634 41.5027L78.1094 40.4648L88.0554 39.427L87.5398 34.4856L77.5938 35.5234ZM78.1094 40.4648L76.1482 30.659C68.6417 32.1603 60.3183 32.2695 53.4883 32.2695V42.2695V52.2695C60.2364 52.2695 70.3896 52.2069 80.0706 50.2706L78.1094 40.4648ZM53.4883 42.2695L63.3909 40.877L62.6174 35.377L52.7149 36.7695L42.8123 38.1621L43.5857 43.6621L53.4883 42.2695ZM113.645 12.0625H123.645C123.645 6.53965 119.167 2.0625 113.645 2.0625V12.0625ZM113.645 17.4766V27.4766C119.167 27.4766 123.645 22.9994 123.645 17.4766H113.645ZM106.426 17.4766V7.47656C103.625 7.47656 100.953 8.65077 99.0595 10.7136C97.1656 12.7765 96.2235 15.5389 96.4622 18.3291L106.426 17.4766ZM115.063 27.5742L123.539 32.8804C125.172 30.2717 125.513 27.0563 124.463 24.1632C123.413 21.2701 121.089 19.0215 118.163 18.0671L115.063 27.5742ZM111.754 32.8594L108.911 42.4469C113.218 43.7236 117.847 41.9726 120.23 38.1656L111.754 32.8594ZM102.945 25.8125L111.793 21.1526C110.042 17.8272 106.574 15.7646 102.816 15.8133C99.0575 15.8621 95.6441 18.0139 93.9796 21.3836L102.945 25.8125ZM93.6641 33.5898L85.2827 39.0444C87.6983 42.7562 92.2675 44.4371 96.5127 43.1755L93.6641 33.5898ZM90.1406 28.1758L87.279 18.594C84.2581 19.4962 81.8396 21.7701 80.7532 24.7297C79.6667 27.6893 80.0396 30.9879 81.7593 33.6303L90.1406 28.1758ZM99.293 17.4766L109.247 18.4366C109.517 15.6304 108.591 12.8404 106.696 10.7535C104.8 8.66653 102.112 7.47656 99.293 7.47656V17.4766ZM92.0313 17.4766H82.0313C82.0313 22.9994 86.5084 27.4766 92.0313 27.4766V17.4766ZM92.0313 12.0625V2.0625C86.5084 2.0625 82.0313 6.53965 82.0313 12.0625H92.0313ZM124.43 35.2656H134.43C134.43 29.7428 129.953 25.2656 124.43 25.2656V35.2656ZM124.43 49.875V59.875C129.953 59.875 134.43 55.3978 134.43 49.875H124.43ZM117.555 49.875H107.555C107.555 55.3978 112.032 59.875 117.555 59.875V49.875ZM117.555 40.7227H127.555C127.555 35.1998 123.078 30.7227 117.555 30.7227V40.7227ZM96.8008 40.7227H86.8008C86.8008 46.2455 91.278 50.7227 96.8008 50.7227V40.7227ZM96.8008 35.2656V25.2656C91.278 25.2656 86.8008 29.7428 86.8008 35.2656H96.8008ZM124.43 10.1289H134.43C134.43 4.60606 129.953 0.128906 124.43 0.128906V10.1289ZM124.43 33.7617V43.7617C129.953 43.7617 134.43 39.2846 134.43 33.7617H124.43ZM117.555 33.7617H107.555C107.555 39.2846 112.032 43.7617 117.555 43.7617V33.7617ZM117.555 24.7383H127.555C127.555 19.2154 123.078 14.7383 117.555 14.7383V24.7383ZM112.613 24.7383H102.613C102.613 30.2611 107.09 34.7383 112.613 34.7383V24.7383ZM112.613 19.1523V9.15234C107.09 9.15234 102.613 13.6295 102.613 19.1523H112.613ZM117.555 19.1523V29.1523C123.078 29.1523 127.555 24.6752 127.555 19.1523H117.555ZM117.555 10.1289V0.128906C112.032 0.128906 107.555 4.60606 107.555 10.1289L117.555 10.1289ZM113.645 12.0625L103.645 12.0625V17.4766H113.645H123.645V12.0625H113.645ZM113.645 17.4766V7.47656L106.426 7.47656V17.4766V27.4766H113.645V17.4766ZM106.426 17.4766L96.4622 18.3291C96.771 21.9381 97.9903 25.873 100.698 29.3942C103.437 32.9574 107.287 35.5566 111.962 37.0813L115.063 27.5742L118.163 18.0671C117.475 17.8426 117.073 17.6155 116.861 17.4711C116.655 17.331 116.576 17.2341 116.553 17.2035C116.526 17.169 116.424 17.0326 116.389 16.6241L106.426 17.4766ZM115.063 27.5742L106.586 22.268L103.278 27.5532L111.754 32.8594L120.23 38.1656L123.539 32.8804L115.063 27.5742ZM111.754 32.8594L114.596 23.2719C113.663 22.9952 113.101 22.6474 112.745 22.3543C112.387 22.0584 112.07 21.6789 111.793 21.1526L102.945 25.8125L94.0974 30.4724C97.0337 36.0477 102.017 40.4029 108.911 42.4469L111.754 32.8594ZM102.945 25.8125L93.9796 21.3836C93.3543 22.6493 92.5012 23.5032 90.8155 24.0041L93.6641 33.5898L96.5127 43.1755C103.936 40.9694 109.013 36.1085 111.911 30.2414L102.945 25.8125ZM93.6641 33.5898L102.045 28.1353L98.522 22.7212L90.1406 28.1758L81.7593 33.6303L85.2827 39.0444L93.6641 33.5898ZM90.1406 28.1758L93.0023 37.7576C98.073 36.2432 102.124 33.4659 104.951 29.7143C107.711 26.052 108.903 21.9997 109.247 18.4366L99.293 17.4766L89.3392 16.5166C89.2746 17.1859 89.0921 17.5271 88.9781 17.6783C88.9206 17.7547 88.8189 17.8692 88.6104 18.0102C88.3966 18.1549 87.9889 18.382 87.279 18.594L90.1406 28.1758ZM99.293 17.4766V7.47656H92.0313V17.4766V27.4766H99.293V17.4766ZM92.0313 17.4766H102.031V12.0625H92.0313H82.0313V17.4766H92.0313ZM92.0313 12.0625V22.0625H113.645V12.0625V2.0625L92.0313 2.0625V12.0625ZM124.43 35.2656H114.43V49.875H124.43H134.43V35.2656H124.43ZM124.43 49.875V39.875H117.555V49.875V59.875H124.43V49.875ZM117.555 49.875H127.555V40.7227H117.555H107.555V49.875H117.555ZM117.555 40.7227V30.7227H96.8008V40.7227V50.7227H117.555V40.7227ZM96.8008 40.7227H106.801V35.2656H96.8008H86.8008V40.7227H96.8008ZM96.8008 35.2656V45.2656H124.43V35.2656V25.2656H96.8008V35.2656ZM124.43 10.1289H114.43V33.7617H124.43H134.43V10.1289H124.43ZM124.43 33.7617V23.7617H117.555V33.7617V43.7617H124.43V33.7617ZM117.555 33.7617H127.555V24.7383H117.555H107.555V33.7617H117.555ZM117.555 24.7383V14.7383H112.613V24.7383V34.7383H117.555V24.7383ZM112.613 24.7383H122.613V19.1523H112.613H102.613V24.7383H112.613ZM112.613 19.1523V29.1523H117.555V19.1523V9.15234H112.613V19.1523ZM117.555 19.1523H127.555V10.1289H117.555L107.555 10.1289V19.1523H117.555ZM117.555 10.1289V20.1289H124.43V10.1289V0.128906L117.555 0.128906V10.1289ZM162.156 10.2148H172.156C172.156 4.692 167.679 0.214844 162.156 0.214844V10.2148ZM162.156 38.4453V48.4453C167.679 48.4453 172.156 43.9682 172.156 38.4453H162.156ZM155.238 38.4453H145.238C145.238 43.9682 149.715 48.4453 155.238 48.4453V38.4453ZM155.238 10.2148V0.214844C149.715 0.214844 145.238 4.692 145.238 10.2148H155.238ZM163.102 43.8164H173.102C173.102 38.2936 168.624 33.8164 163.102 33.8164V43.8164ZM163.102 49.3164V59.3164C168.624 59.3164 173.102 54.8393 173.102 49.3164H163.102ZM134.957 49.3164H124.957C124.957 54.8393 129.434 59.3164 134.957 59.3164V49.3164ZM134.957 35.6094V25.6094C129.434 25.6094 124.957 30.0865 124.957 35.6094H134.957ZM141.918 35.6094H151.918C151.918 30.0865 147.441 25.6094 141.918 25.6094V35.6094ZM141.918 43.8164L131.918 43.8164C131.918 49.3393 136.395 53.8164 141.918 53.8164V43.8164ZM129.07 22.7617L139.07 22.8331C139.07 22.785 139.07 22.7369 139.07 22.6887L129.07 22.7617ZM162.156 10.2148H152.156V38.4453H162.156H172.156V10.2148H162.156ZM162.156 38.4453V28.4453H155.238V38.4453V48.4453H162.156V38.4453ZM155.238 38.4453H165.238V10.2148H155.238H145.238V38.4453H155.238ZM155.238 10.2148V20.2148H162.156V10.2148V0.214844H155.238V10.2148ZM163.102 43.8164H153.102V49.3164H163.102H173.102V43.8164H163.102ZM163.102 49.3164V39.3164L134.957 39.3164V49.3164V59.3164L163.102 59.3164V49.3164ZM134.957 49.3164L144.957 49.3164V35.6094L134.957 35.6094H124.957V49.3164H134.957ZM134.957 35.6094V45.6094L141.918 45.6094V35.6094V25.6094H134.957V35.6094ZM141.918 35.6094L131.918 35.6094V43.8164L141.918 43.8164H151.918V35.6094H141.918ZM141.918 43.8164V53.8164H163.102V43.8164V33.8164H141.918V43.8164ZM140.199 12.5781V22.5781C140.985 22.5781 141.337 22.8434 141.39 22.8914C141.416 22.9145 141.388 22.8967 141.357 22.8285C141.322 22.7515 141.328 22.7109 141.328 22.7617H151.328H161.328C161.328 10.3977 150.904 2.57812 140.199 2.57812V12.5781ZM151.328 22.7617H141.328C141.328 22.8756 141.309 22.8688 141.34 22.8018C141.366 22.742 141.394 22.7195 141.379 22.7332C141.348 22.7611 141.011 23.0312 140.199 23.0312V33.0312V43.0312C150.933 43.0312 161.328 35.2283 161.328 22.7617H151.328ZM140.199 33.0312V23.0312C139.381 23.0312 139.029 22.7566 138.993 22.7243C138.978 22.7105 139.013 22.739 139.046 22.814C139.084 22.8975 139.069 22.925 139.07 22.8331L129.07 22.7617L119.071 22.6903C118.981 35.2759 129.538 43.0312 140.199 43.0312V33.0312ZM129.07 22.7617L139.07 22.6887C139.07 22.6607 139.071 22.7226 139.029 22.8161C138.991 22.8997 138.957 22.9234 138.983 22.9003C139.041 22.848 139.407 22.5781 140.199 22.5781V12.5781V2.57812C129.568 2.57812 118.979 10.3497 119.071 22.8347L129.07 22.7617ZM140.199 18.5508V8.55078C137.149 8.55078 133.45 9.4099 130.383 12.1432C127.146 15.0279 125.773 18.9693 125.773 22.7617H135.773H145.773C145.773 23.7612 145.347 25.5971 143.689 27.0746C142.201 28.4006 140.714 28.5508 140.199 28.5508V18.5508ZM135.773 22.7617H125.773C125.773 26.4903 127.062 30.4899 130.354 33.4463C133.473 36.247 137.222 37.0586 140.199 37.0586V27.0586V17.0586C140.642 17.0586 142.177 17.1827 143.717 18.5654C145.43 20.1038 145.773 21.955 145.773 22.7617H135.773ZM140.199 27.0586V37.0586C143.231 37.0586 146.947 36.1828 150.007 33.3774C153.214 30.4378 154.496 26.4857 154.496 22.7617H144.496H134.496C134.496 21.9596 134.833 20.1559 136.493 18.6343C138.006 17.2469 139.574 17.0586 140.199 17.0586V27.0586ZM144.496 22.7617H154.496C154.496 18.9754 153.132 15.0797 149.979 12.2118C146.972 9.47591 143.303 8.55078 140.199 8.55078V18.5508V28.5508C139.501 28.5508 137.981 28.3346 136.521 27.006C134.915 25.5453 134.496 23.755 134.496 22.7617H144.496ZM198.68 12.9219L208.68 12.9219C208.68 7.39903 204.203 2.92187 198.68 2.92187V12.9219ZM197.863 27.2305L196.912 37.1851C202.123 37.683 206.837 34.0776 207.72 28.9176L197.863 27.2305ZM191.117 26.5859L181.262 24.8891C180.79 27.6315 181.482 30.4467 183.172 32.6578C184.861 34.8689 187.396 36.2759 190.166 36.5406L191.117 26.5859ZM191.934 18.5078L201.926 18.8921C202.031 16.1753 201.024 13.5331 199.139 11.574C197.254 9.61485 194.652 8.50781 191.934 8.50781V18.5078ZM177.84 18.5078H167.84C167.84 24.0307 172.317 28.5078 177.84 28.5078V18.5078ZM177.84 12.9219V2.92187C172.317 2.92187 167.84 7.39903 167.84 12.9219H177.84ZM189.012 22.332H199.012C199.012 16.8092 194.535 12.332 189.012 12.332V22.332ZM189.012 29.3789H179.012C179.012 32.1122 180.131 34.7263 182.108 36.6133C184.085 38.5003 186.749 39.4957 189.479 39.368L189.012 29.3789ZM199.926 28.3906L209.901 27.6906C209.706 24.9116 208.361 22.3399 206.189 20.595C204.017 18.8501 201.216 18.0903 198.46 18.4986L199.926 28.3906ZM200.27 33.2891L202.162 43.1084C207.129 42.1512 210.599 37.6353 210.245 32.589L200.27 33.2891ZM176.121 35.0078L166.183 36.1209C166.75 41.1814 171.029 45.0078 176.121 45.0078V35.0078ZM175.52 29.6367L175.413 19.6373C172.586 19.6674 169.904 20.8929 168.03 23.0105C166.156 25.1281 165.267 27.9399 165.582 30.7498L175.52 29.6367ZM182.18 29.5508L182.45 39.5471C187.866 39.4008 192.18 34.9684 192.18 29.5508H182.18ZM182.18 22.332V12.332C176.657 12.332 172.18 16.8092 172.18 22.332H182.18ZM208.777 10.1289H218.777C218.777 4.60606 214.3 0.128906 208.777 0.128906V10.1289ZM208.777 21.7305L198.777 21.7305C198.777 27.2533 203.255 31.7305 208.777 31.7305V21.7305ZM212.945 21.7305H222.945C222.945 16.2076 218.468 11.7305 212.945 11.7305V21.7305ZM212.945 27.4453V37.4453C218.468 37.4453 222.945 32.9682 222.945 27.4453H212.945ZM208.777 27.4453V17.4453C203.255 17.4453 198.777 21.9225 198.777 27.4453L208.777 27.4453ZM208.777 39.7773V49.7773C214.3 49.7773 218.777 45.3002 218.777 39.7773H208.777ZM201.688 39.7773H191.688C191.688 45.3002 196.165 49.7773 201.688 49.7773V39.7773ZM201.688 10.1289V0.128906C196.165 0.128906 191.688 4.60606 191.688 10.1289H201.688ZM209.98 43.8164H219.98C219.98 38.2936 215.503 33.8164 209.98 33.8164V43.8164ZM209.98 49.3164V59.3164C215.503 59.3164 219.98 54.8393 219.98 49.3164H209.98ZM181.191 49.3164H171.191C171.191 54.8393 175.669 59.3164 181.191 59.3164V49.3164ZM181.191 37.1562V27.1562C175.669 27.1562 171.191 31.6334 171.191 37.1562H181.191ZM188.109 37.1562H198.109C198.109 31.6334 193.632 27.1562 188.109 27.1562V37.1562ZM188.109 43.8164H178.109C178.109 49.3393 182.587 53.8164 188.109 53.8164V43.8164ZM198.68 12.9219H188.68V15.6289H198.68L208.68 15.6289V12.9219L198.68 12.9219ZM198.68 15.6289H188.68C188.68 18.4571 188.669 21.6763 188.007 25.5433L197.863 27.2305L207.72 28.9176C208.691 23.2456 208.68 18.5585 208.68 15.6289L198.68 15.6289ZM197.863 27.2305L198.814 17.2758L192.068 16.6313L191.117 26.5859L190.166 36.5406L196.912 37.1851L197.863 27.2305ZM191.117 26.5859L200.972 28.2828C201.631 24.459 201.83 21.3889 201.926 18.8921L191.934 18.5078L181.941 18.1235C181.865 20.0955 181.721 22.2246 181.262 24.8891L191.117 26.5859ZM191.934 18.5078V8.50781H177.84V18.5078V28.5078H191.934V18.5078ZM177.84 18.5078H187.84V12.9219H177.84H167.84V18.5078H177.84ZM177.84 12.9219V22.9219H198.68V12.9219V2.92187L177.84 2.92187V12.9219ZM189.012 22.332H179.012V29.3789H189.012H199.012V22.332H189.012ZM189.012 29.3789L189.479 39.368C193.352 39.1868 197.469 38.8638 201.391 38.2827L199.926 28.3906L198.46 18.4986C195.422 18.9487 192.019 19.2273 188.544 19.3898L189.012 29.3789ZM199.926 28.3906L189.95 29.0907L190.294 33.9891L200.27 33.2891L210.245 32.589L209.901 27.6906L199.926 28.3906ZM200.27 33.2891L198.377 23.4697C191.164 24.8597 182.917 25.0078 176.121 25.0078V35.0078V45.0078C182.903 45.0078 192.875 44.8981 202.162 43.1084L200.27 33.2891ZM176.121 35.0078L186.059 33.8948L185.457 28.5237L175.52 29.6367L165.582 30.7498L166.183 36.1209L176.121 35.0078ZM175.52 29.6367L175.626 39.6362C177.509 39.6161 179.957 39.6145 182.45 39.5471L182.18 29.5508L181.91 19.5544C179.633 19.616 177.569 19.6143 175.413 19.6373L175.52 29.6367ZM182.18 29.5508H192.18V22.332H182.18H172.18V29.5508H182.18ZM182.18 22.332V32.332H189.012V22.332V12.332H182.18V22.332ZM208.777 10.1289H198.777V21.7305L208.777 21.7305H218.777V10.1289H208.777ZM208.777 21.7305V31.7305H212.945V21.7305V11.7305H208.777V21.7305ZM212.945 21.7305L202.945 21.7305V27.4453L212.945 27.4453H222.945V21.7305H212.945ZM212.945 27.4453V17.4453H208.777V27.4453V37.4453H212.945V27.4453ZM208.777 27.4453L198.777 27.4453V39.7773H208.777H218.777V27.4453H208.777ZM208.777 39.7773V29.7773H201.688V39.7773V49.7773H208.777V39.7773ZM201.688 39.7773H211.688V10.1289H201.688H191.688V39.7773H201.688ZM201.688 10.1289V20.1289L208.777 20.1289V10.1289V0.128906H201.688V10.1289ZM209.98 43.8164H199.98V49.3164H209.98H219.98V43.8164H209.98ZM209.98 49.3164V39.3164H181.191V49.3164V59.3164H209.98V49.3164ZM181.191 49.3164H191.191V37.1562H181.191H171.191V49.3164H181.191ZM181.191 37.1562V47.1562H188.109V37.1562V27.1562H181.191V37.1562ZM188.109 37.1562H178.109V43.8164H188.109H198.109V37.1562H188.109ZM188.109 43.8164V53.8164H209.98V43.8164V33.8164H188.109V43.8164ZM248.094 10.1289H258.094C258.094 4.60606 253.617 0.128906 248.094 0.128906V10.1289ZM248.094 32.9883V42.9883C253.617 42.9883 258.094 38.5111 258.094 32.9883H248.094ZM241.219 32.9883H231.219C231.219 38.5111 235.696 42.9883 241.219 42.9883V32.9883ZM241.219 24.3945H251.219C251.219 18.8717 246.742 14.3945 241.219 14.3945V24.3945ZM236.063 24.3945H226.063C226.063 29.9174 230.54 34.3945 236.063 34.3945V24.3945ZM236.063 18.8086V8.80859C230.54 8.80859 226.063 13.2857 226.063 18.8086H236.063ZM241.219 18.8086V28.8086C246.742 28.8086 251.219 24.3314 251.219 18.8086H241.219ZM241.219 10.1289V0.128906C235.696 0.128906 231.219 4.60606 231.219 10.1289L241.219 10.1289ZM248.094 34.3633H258.094C258.094 28.8404 253.617 24.3633 248.094 24.3633V34.3633ZM248.094 49.5312V59.5312C253.617 59.5312 258.094 55.0541 258.094 49.5312H248.094ZM220.938 49.5312H210.938C210.938 55.0541 215.415 59.5312 220.938 59.5312V49.5312ZM220.938 34.3633V24.3633C215.415 24.3633 210.938 28.8404 210.938 34.3633H220.938ZM227.855 39.7773V29.7773C222.333 29.7773 217.855 34.2545 217.855 39.7773H227.855ZM227.855 44.0312H217.855C217.855 49.5541 222.333 54.0312 227.855 54.0312V44.0312ZM241.391 44.0312V54.0312C246.913 54.0312 251.391 49.5541 251.391 44.0312H241.391ZM241.391 39.7773H251.391C251.391 34.2545 246.913 29.7773 241.391 29.7773V39.7773ZM237.309 11.8477L247.309 11.8477C247.309 6.32481 242.831 1.84766 237.309 1.84766V11.8477ZM237.309 17.3047V27.3047C242.831 27.3047 247.309 22.8275 247.309 17.3047H237.309ZM230.133 17.3047V7.30469C227.319 7.30469 224.635 8.49025 222.74 10.5705C220.845 12.6507 219.914 15.433 220.176 18.2347L230.133 17.3047ZM238.727 27.2734L247.259 32.4879C248.851 29.8827 249.166 26.6929 248.114 23.8268C247.062 20.9607 244.758 18.7324 241.858 17.7763L238.727 27.2734ZM235.418 32.6875L232.4 42.2212C236.785 43.6095 241.552 41.8271 243.951 37.902L235.418 32.6875ZM226.566 25.5117L235.403 20.8302C233.639 17.5015 230.155 15.4462 226.388 15.5133C222.622 15.5804 219.213 17.7583 217.569 21.1477L226.566 25.5117ZM217.328 33.2891L208.947 38.7436C211.365 42.4594 215.941 44.1395 220.189 42.8711L217.328 33.2891ZM213.805 27.875L210.868 18.3158C207.868 19.2375 205.474 21.5146 204.404 24.4655C203.334 27.4165 203.711 30.6987 205.423 33.3296L213.805 27.875ZM222.914 17.3047L232.859 18.3489C233.155 15.5305 232.242 12.7189 230.345 10.613C228.449 8.50709 225.748 7.30469 222.914 7.30469V17.3047ZM215.695 17.3047H205.695C205.695 22.8275 210.172 27.3047 215.695 27.3047V17.3047ZM215.695 11.8477V1.84766C210.172 1.84766 205.695 6.32481 205.695 11.8477H215.695ZM248.094 10.1289H238.094V32.9883H248.094H258.094V10.1289H248.094ZM248.094 32.9883V22.9883H241.219V32.9883V42.9883H248.094V32.9883ZM241.219 32.9883H251.219V24.3945H241.219H231.219V32.9883H241.219ZM241.219 24.3945V14.3945H236.063V24.3945V34.3945H241.219V24.3945ZM236.063 24.3945H246.063V18.8086H236.063H226.063V24.3945H236.063ZM236.063 18.8086V28.8086H241.219V18.8086V8.80859L236.063 8.80859V18.8086ZM241.219 18.8086H251.219V10.1289H241.219L231.219 10.1289V18.8086H241.219ZM241.219 10.1289V20.1289H248.094V10.1289V0.128906L241.219 0.128906V10.1289ZM248.094 34.3633H238.094V49.5312H248.094H258.094V34.3633H248.094ZM248.094 49.5312V39.5312H220.938V49.5312V59.5312H248.094V49.5312ZM220.938 49.5312H230.938V34.3633H220.938H210.938V49.5312H220.938ZM220.938 34.3633V44.3633H248.094V34.3633V24.3633H220.938V34.3633ZM227.855 39.7773H217.855V44.0312H227.855H237.855V39.7773H227.855ZM227.855 44.0312V54.0312H241.391V44.0312V34.0312H227.855V44.0312ZM241.391 44.0312H251.391V39.7773H241.391H231.391V44.0312H241.391ZM241.391 39.7773V29.7773H227.855V39.7773V49.7773H241.391V39.7773ZM237.309 11.8477H227.309V17.3047H237.309H247.309V11.8477L237.309 11.8477ZM237.309 17.3047V7.30469H230.133V17.3047V27.3047H237.309V17.3047ZM230.133 17.3047L220.176 18.2347C220.89 25.8788 225.68 33.5014 235.595 36.7705L238.727 27.2734L241.858 17.7763C241.185 17.5545 240.788 17.3295 240.574 17.1836C240.366 17.0412 240.28 16.9394 240.251 16.9012C240.21 16.8482 240.121 16.7161 240.089 16.3747L230.133 17.3047ZM238.727 27.2734L230.194 22.0589L226.885 27.473L235.418 32.6875L243.951 37.902L247.259 32.4879L238.727 27.2734ZM235.418 32.6875L238.436 23.1538C236.654 22.5897 235.89 21.7496 235.403 20.8302L226.566 25.5117L217.73 30.1933C220.68 35.7621 225.631 40.0783 232.4 42.2212L235.418 32.6875ZM226.566 25.5117L217.569 21.1477C216.98 22.361 216.16 23.2016 214.467 23.7071L217.328 33.2891L220.189 42.8711C227.563 40.6695 232.672 35.8383 235.564 29.8758L226.566 25.5117ZM217.328 33.2891L225.71 27.8345L222.186 22.4204L213.805 27.875L205.423 33.3296L208.947 38.7436L217.328 33.2891ZM213.805 27.875L216.741 37.4342C221.645 35.9279 225.642 33.2582 228.476 29.5743C231.259 25.958 232.482 21.9394 232.859 18.3489L222.914 17.3047L212.969 16.2604C212.895 16.9668 212.711 17.2666 212.625 17.3779C212.576 17.4415 212.477 17.5552 212.256 17.703C212.028 17.8555 211.601 18.0907 210.868 18.3158L213.805 27.875ZM222.914 17.3047V7.30469H215.695V17.3047V27.3047H222.914V17.3047ZM215.695 17.3047H225.695V11.8477H215.695H205.695V17.3047H215.695ZM215.695 11.8477V21.8477H237.309V11.8477V1.84766L215.695 1.84766V11.8477ZM285.133 17.3477L295.132 17.4457C295.133 17.38 295.133 17.3143 295.132 17.2487L285.133 17.3477ZM255.699 17.3477L265.699 17.4457C265.699 17.38 265.699 17.3143 265.699 17.2487L255.699 17.3477ZM270.438 19.1094L270.358 29.1091C270.411 29.1095 270.464 29.1095 270.517 29.1091L270.438 19.1094ZM288.57 25.4258H298.57C298.57 19.9029 294.093 15.4258 288.57 15.4258V25.4258ZM288.57 30.8828V40.8828C294.093 40.8828 298.57 36.4057 298.57 30.8828H288.57ZM252.305 30.8828H242.305C242.305 36.4057 246.782 40.8828 252.305 40.8828V30.8828ZM252.305 25.4258V15.4258C246.782 15.4258 242.305 19.9029 242.305 25.4258H252.305ZM284.273 32.3867H294.273C294.273 26.8639 289.796 22.3867 284.273 22.3867V32.3867ZM284.273 43.3437V53.3437C289.796 53.3437 294.273 48.8666 294.273 43.3437H284.273ZM263.09 43.3437V33.3437C257.567 33.3437 253.09 37.8209 253.09 43.3437H263.09ZM263.09 44.6328H253.09C253.09 50.1557 257.567 54.6328 263.09 54.6328V44.6328ZM285.219 44.6328H295.219C295.219 39.11 290.742 34.6328 285.219 34.6328V44.6328ZM285.219 49.7031V59.7031C290.742 59.7031 295.219 55.226 295.219 49.7031H285.219ZM256.344 49.7031H246.344C246.344 55.226 250.821 59.7031 256.344 59.7031V49.7031ZM256.344 38.6172V28.6172C250.821 28.6172 246.344 33.0943 246.344 38.6172H256.344ZM277.484 38.6172V48.6172C283.007 48.6172 287.484 44.14 287.484 38.6172H277.484ZM277.484 37.4141H287.484C287.484 31.8912 283.007 27.4141 277.484 27.4141V37.4141ZM256.387 37.4141H246.387C246.387 42.9369 250.864 47.4141 256.387 47.4141V37.4141ZM256.387 32.3867V22.3867C250.864 22.3867 246.387 26.8639 246.387 32.3867H256.387ZM270.438 10.6445V20.6445C272.366 20.6445 273.905 20.7681 275.084 20.9564C276.289 21.1489 276.919 21.3779 277.141 21.4783C277.371 21.5827 276.863 21.4093 276.256 20.6339C275.548 19.7292 275.144 18.5577 275.133 17.4467L285.133 17.3477L295.132 17.2487C295.06 9.91504 290.109 5.39567 285.39 3.25897C281.003 1.27246 275.691 0.644531 270.438 0.644531V10.6445ZM285.133 17.3477L275.133 17.2496C275.144 16.173 275.532 15.0175 276.234 14.114C276.838 13.3373 277.348 13.1605 277.125 13.2619C276.908 13.3604 276.283 13.5892 275.08 13.7818C273.904 13.9701 272.366 14.0937 270.438 14.0937V24.0937V34.0937C275.688 34.0937 281.01 33.4668 285.407 31.4666C290.161 29.3038 295.061 24.7588 295.132 17.4457L285.133 17.3477ZM270.438 24.0937V14.0937C268.496 14.0937 266.941 13.9699 265.747 13.7801C264.525 13.5857 263.885 13.3542 263.659 13.252C263.421 13.1444 263.952 13.325 264.578 14.1337C265.312 15.0833 265.71 16.3057 265.699 17.4457L255.699 17.3477L245.7 17.2496C245.626 24.7371 250.682 29.3348 255.421 31.4766C259.826 33.468 265.172 34.0937 270.438 34.0937V24.0937ZM255.699 17.3477L265.699 17.2487C265.71 18.4241 265.297 19.6634 264.556 20.6141C263.927 21.4216 263.397 21.5987 263.642 21.4882C263.874 21.3841 264.519 21.1523 265.744 20.9581C266.94 20.7683 268.496 20.6445 270.438 20.6445V10.6445V0.644531C265.169 0.644531 259.833 1.27119 255.437 3.24907C250.735 5.36423 245.625 9.93647 245.7 17.4467L255.699 17.3477ZM270.438 15.6289V5.62891C267.689 5.62891 264.819 5.73763 262.412 6.29393C261.256 6.56105 259.213 7.14154 257.275 8.61893C254.9 10.4292 252.918 13.465 252.918 17.3477H262.918H272.918C272.918 18.7532 272.587 20.2487 271.836 21.6506C271.108 23.009 270.172 23.9359 269.4 24.5241C268.654 25.0933 267.995 25.3984 267.625 25.5477C267.244 25.7018 266.982 25.7649 266.915 25.7803C266.811 25.8043 267.011 25.7519 267.697 25.7037C268.344 25.6583 269.236 25.6289 270.438 25.6289V15.6289ZM262.918 17.3477H252.918C252.918 20.6529 254.356 23.8349 257.057 26.015C259.18 27.7281 261.463 28.3076 262.619 28.549C264.974 29.041 267.882 29.0893 270.358 29.1091L270.438 19.1094L270.518 9.1097C269.222 9.09933 268.268 9.07653 267.55 9.03676C266.782 8.99416 266.588 8.94644 266.708 8.97154C266.79 8.98851 267.108 9.05814 267.561 9.23762C268.009 9.41481 268.777 9.77299 269.618 10.4514C270.506 11.1682 271.417 12.1994 272.067 13.5788C272.713 14.9505 272.918 16.2765 272.918 17.3477H262.918ZM270.438 19.1094L270.517 29.1091C273.013 29.0892 275.928 29.0409 278.285 28.5508C279.44 28.3106 281.726 27.7336 283.851 26.0222C286.56 23.8414 288 20.6553 288 17.3477H278H268C268 16.2765 268.205 14.9487 268.853 13.5746C269.505 12.1926 270.418 11.1607 271.308 10.4442C272.15 9.76635 272.919 9.40936 273.365 9.23332C273.818 9.05494 274.134 8.98613 274.213 8.96973C274.328 8.94573 274.129 8.99383 273.353 9.03656C272.628 9.07649 271.665 9.09932 270.358 9.10969L270.438 19.1094ZM278 17.3477H288C288 13.4618 286.014 10.4229 283.633 8.61207C281.693 7.13608 279.647 6.55769 278.491 6.29175C276.083 5.73754 273.205 5.62891 270.438 5.62891V15.6289V25.6289C271.651 25.6289 272.553 25.6584 273.208 25.704C273.901 25.7524 274.106 25.8054 274.007 25.7825C273.942 25.7677 273.682 25.7053 273.301 25.5521C272.933 25.4038 272.274 25.0997 271.526 24.531C270.753 23.9431 269.815 23.0157 269.085 21.655C268.331 20.2507 268 18.7534 268 17.3477H278ZM288.57 25.4258H278.57V30.8828H288.57H298.57V25.4258H288.57ZM288.57 30.8828V20.8828H252.305V30.8828V40.8828H288.57V30.8828ZM252.305 30.8828H262.305V25.4258H252.305H242.305V30.8828H252.305ZM252.305 25.4258V35.4258H288.57V25.4258V15.4258H252.305V25.4258ZM284.273 32.3867H274.273V43.3437H284.273H294.273V32.3867H284.273ZM284.273 43.3437V33.3437H263.09V43.3437V53.3437H284.273V43.3437ZM263.09 43.3437H253.09V44.6328H263.09H273.09V43.3437H263.09ZM263.09 44.6328V54.6328H285.219V44.6328V34.6328H263.09V44.6328ZM285.219 44.6328H275.219V49.7031H285.219H295.219V44.6328H285.219ZM285.219 49.7031V39.7031H256.344V49.7031V59.7031H285.219V49.7031ZM256.344 49.7031H266.344V38.6172H256.344H246.344V49.7031H256.344ZM256.344 38.6172V48.6172H277.484V38.6172V28.6172H256.344V38.6172ZM277.484 38.6172H287.484V37.4141H277.484H267.484V38.6172H277.484ZM277.484 37.4141V27.4141H256.387V37.4141V47.4141H277.484V37.4141ZM256.387 37.4141H266.387V32.3867H256.387H246.387V37.4141H256.387ZM256.387 32.3867V42.3867H284.273V32.3867V22.3867H256.387V32.3867ZM334.504 10.1289H344.504C344.504 4.60606 340.027 0.128906 334.504 0.128906V10.1289ZM334.504 49.875V59.875C340.027 59.875 344.504 55.3978 344.504 49.875H334.504ZM328.016 49.875H318.016C318.016 55.3978 322.493 59.875 328.016 59.875V49.875ZM328.016 10.1289V0.128906C322.493 0.128906 318.016 4.60606 318.016 10.1289H328.016ZM326.297 10.6445H336.297C336.297 5.12168 331.82 0.644531 326.297 0.644531V10.6445ZM326.297 48.1992V58.1992C331.82 58.1992 336.297 53.7221 336.297 48.1992H326.297ZM319.895 48.1992H309.895C309.895 53.7221 314.372 58.1992 319.895 58.1992V48.1992ZM319.895 37.457H329.895C329.895 33.19 327.187 29.3931 323.153 28.0027C319.119 26.6124 314.647 27.9351 312.018 31.2961L319.895 37.457ZM316.5 41.7969L311.514 50.4653C315.828 52.9466 321.311 51.8779 324.377 47.9579L316.5 41.7969ZM309.84 33.1172L319.31 29.906C317.93 25.8359 314.104 23.1028 309.806 23.1172C305.508 23.1317 301.701 25.8906 300.348 29.9699L309.84 33.1172ZM302.965 42.6992L295.176 48.9703C298.334 52.8932 303.917 53.8553 308.206 51.2158L302.965 42.6992ZM298.883 37.6289L293.588 29.1455C291.162 30.6601 289.5 33.1413 289.023 35.9617C288.546 38.7822 289.3 41.6718 291.093 43.9L298.883 37.6289ZM306.445 19.2812H316.445C316.445 13.7584 311.968 9.28125 306.445 9.28125V19.2812ZM300.645 19.2812H290.645C290.645 24.8041 295.122 29.2812 300.645 29.2812V19.2812ZM300.645 13.8242V3.82422C295.122 3.82422 290.645 8.30137 290.645 13.8242H300.645ZM318.262 13.8242H328.262C328.262 8.30137 323.785 3.82422 318.262 3.82422V13.8242ZM318.262 19.2812V29.2812C323.785 29.2812 328.262 24.8041 328.262 19.2812H318.262ZM313.063 19.2812V9.28125C307.54 9.28125 303.063 13.7584 303.063 19.2812H313.063ZM313.063 20.3555L323.062 20.4244C323.062 20.4014 323.063 20.3785 323.063 20.3555H313.063ZM319.895 36.4258L314.553 44.8799C317.634 46.8262 321.53 46.9427 324.721 45.184C327.912 43.4252 329.895 40.0697 329.895 36.4258H319.895ZM319.895 28.8633H329.895C329.895 23.3404 325.417 18.8633 319.895 18.8633V28.8633ZM315.598 28.8633H305.598C305.598 34.3861 310.075 38.8633 315.598 38.8633V28.8633ZM315.598 23.3203V13.3203C310.075 13.3203 305.598 17.7975 305.598 23.3203H315.598ZM319.895 23.3203V33.3203C325.417 33.3203 329.895 28.8432 329.895 23.3203H319.895ZM319.895 10.6445V0.644531C314.372 0.644531 309.895 5.12168 309.895 10.6445H319.895ZM334.504 10.1289H324.504V49.875H334.504H344.504V10.1289H334.504ZM334.504 49.875V39.875H328.016V49.875V59.875H334.504V49.875ZM328.016 49.875H338.016V10.1289H328.016H318.016V49.875H328.016ZM328.016 10.1289V20.1289L334.504 20.1289V10.1289V0.128906H328.016V10.1289ZM326.297 10.6445H316.297V48.1992H326.297H336.297V10.6445H326.297ZM326.297 48.1992V38.1992H319.895V48.1992V58.1992H326.297V48.1992ZM319.895 48.1992H329.895V37.457H319.895H309.895V48.1992H319.895ZM319.895 37.457L312.018 31.2961L308.623 35.6359L316.5 41.7969L324.377 47.9579L327.771 43.618L319.895 37.457ZM316.5 41.7969L321.486 33.1284C320.843 32.7585 320.021 32.0007 319.31 29.906L309.84 33.1172L300.369 36.3284C302.194 41.7102 305.583 47.054 311.514 50.4653L316.5 41.7969ZM309.84 33.1172L300.348 29.9699C299.433 32.7309 298.381 33.7784 297.724 34.1826L302.965 42.6992L308.206 51.2158C314.252 47.495 317.54 41.6676 319.332 36.2645L309.84 33.1172ZM302.965 42.6992L310.754 36.4281L306.672 31.3578L298.883 37.6289L291.093 43.9L295.176 48.9703L302.965 42.6992ZM298.883 37.6289L304.177 46.1123C314.83 39.4638 316.445 27.6718 316.445 20.3555H306.445H296.445C296.445 22.8975 296.135 24.9715 295.566 26.4981C295.05 27.8835 294.403 28.6368 293.588 29.1455L298.883 37.6289ZM306.445 20.3555H316.445V19.2812H306.445H296.445V20.3555H306.445ZM306.445 19.2812V9.28125L300.645 9.28125V19.2812V29.2812H306.445V19.2812ZM300.645 19.2812H310.645V13.8242H300.645H290.645V19.2812H300.645ZM300.645 13.8242V23.8242H318.262V13.8242V3.82422L300.645 3.82422V13.8242ZM318.262 13.8242H308.262V19.2812H318.262H328.262V13.8242H318.262ZM318.262 19.2812V9.28125H313.063V19.2812V29.2812H318.262V19.2812ZM313.063 19.2812H303.063V20.3555H313.063H323.063V19.2812H313.063ZM313.063 20.3555L303.063 20.2865C303.014 27.3685 304.415 38.4748 314.553 44.8799L319.895 36.4258L325.236 27.9717C324.638 27.5939 324.175 27.0756 323.78 25.9906C323.322 24.7343 323.045 22.9071 323.062 20.4244L313.063 20.3555ZM319.895 36.4258H329.895V28.8633H319.895H309.895V36.4258H319.895ZM319.895 28.8633V18.8633H315.598V28.8633V38.8633H319.895V28.8633ZM315.598 28.8633H325.598V23.3203H315.598H305.598V28.8633H315.598ZM315.598 23.3203V33.3203H319.895V23.3203V13.3203H315.598V23.3203ZM319.895 23.3203H329.895V10.6445H319.895H309.895V23.3203H319.895ZM319.895 10.6445V20.6445H326.297V10.6445V0.644531H319.895V10.6445ZM354.27 18.0781L364.269 18.1366C364.269 18.1171 364.27 18.0976 364.27 18.0781H354.27ZM363.852 35.6953L371.963 41.5433C373.76 39.0509 374.311 35.8709 373.458 32.9191C372.605 29.9673 370.443 27.5715 367.594 26.4218L363.852 35.6953ZM359.855 41.2383L355.836 50.3947C360.154 52.2905 365.209 50.9117 367.967 47.0863L359.855 41.2383ZM350.875 31.5703L360.166 27.8724C358.629 24.011 354.864 21.5026 350.709 21.5717C346.553 21.6408 342.874 24.2728 341.466 28.1831L350.875 31.5703ZM341.336 42.3125L333.228 48.1652C335.971 51.9655 340.985 53.3508 345.29 51.4975L341.336 42.3125ZM337.211 36.5977L333.488 27.3165C330.632 28.4621 328.463 30.8588 327.606 33.8144C326.75 36.7699 327.302 39.9552 329.103 42.4503L337.211 36.5977ZM347.266 18.0781L357.265 18.1331C357.266 18.1148 357.266 18.0964 357.266 18.0781H347.266ZM347.266 12.9648V2.96484C341.743 2.96484 337.266 7.442 337.266 12.9648H347.266ZM354.27 12.9648H364.27C364.27 7.442 359.792 2.96484 354.27 2.96484V12.9648ZM371.5 10.1289H381.5C381.5 4.60606 377.023 0.128906 371.5 0.128906V10.1289ZM371.5 50.0039V60.0039C377.023 60.0039 381.5 55.5268 381.5 50.0039H371.5ZM364.539 50.0039H354.539C354.539 55.5268 359.016 60.0039 364.539 60.0039V50.0039ZM364.539 10.1289V0.128906C359.016 0.128906 354.539 4.60606 354.539 10.1289H364.539ZM354.27 18.0781L344.27 18.0196C344.218 26.8585 347.014 39.6845 360.11 44.9688L363.852 35.6953L367.594 26.4218C366.481 25.9729 365.84 25.328 365.319 24.2334C364.691 22.9137 364.253 20.8748 364.269 18.1366L354.27 18.0781ZM363.852 35.6953L355.74 29.8473L351.744 35.3903L359.855 41.2383L367.967 47.0863L371.963 41.5433L363.852 35.6953ZM359.855 41.2383L363.875 32.0818C362.289 31.3854 361.093 30.2018 360.166 27.8724L350.875 31.5703L341.584 35.2683C344.094 41.5756 348.613 47.224 355.836 50.3947L359.855 41.2383ZM350.875 31.5703L341.466 28.1831C340.433 31.0539 339.066 32.4024 337.382 33.1275L341.336 42.3125L345.29 51.4975C353.188 48.0976 357.837 41.7547 360.284 34.9575L350.875 31.5703ZM341.336 42.3125L349.444 36.4598L345.319 30.745L337.211 36.5977L329.103 42.4503L333.228 48.1652L341.336 42.3125ZM337.211 36.5977L340.934 45.8788C354.326 40.5069 357.215 27.2913 357.265 18.1331L347.266 18.0781L337.266 18.0232C337.249 21.046 336.762 23.3228 336.046 24.8271C335.437 26.1051 334.691 26.8339 333.488 27.3165L337.211 36.5977ZM347.266 18.0781H357.266V12.9648H347.266H337.266V18.0781H347.266ZM347.266 12.9648V22.9648H354.27V12.9648V2.96484L347.266 2.96484V12.9648ZM354.27 12.9648H344.27V18.0781H354.27H364.27V12.9648H354.27ZM371.5 10.1289L361.5 10.1289V50.0039H371.5H381.5V10.1289H371.5ZM371.5 50.0039V40.0039H364.539V50.0039V60.0039H371.5V50.0039ZM364.539 50.0039H374.539V10.1289L364.539 10.1289H354.539V50.0039H364.539ZM364.539 10.1289V20.1289H371.5V10.1289V0.128906H364.539V10.1289ZM407.68 10.1289H417.68C417.68 4.60606 413.203 0.128906 407.68 0.128906V10.1289ZM407.68 25.2109H397.68C397.68 30.7338 402.157 35.2109 407.68 35.2109V25.2109ZM413.051 25.2109H423.051C423.051 19.6881 418.574 15.2109 413.051 15.2109V25.2109ZM413.051 30.8398V40.8398C418.574 40.8398 423.051 36.3627 423.051 30.8398H413.051ZM407.68 30.8398V20.8398C402.157 20.8398 397.68 25.317 397.68 30.8398H407.68ZM407.68 49.875V59.875C413.203 59.875 417.68 55.3978 417.68 49.875H407.68ZM400.848 49.875L390.848 49.875C390.848 55.3978 395.325 59.875 400.848 59.875V49.875ZM400.848 10.1289V0.128906C395.325 0.128906 390.848 4.60606 390.848 10.1289H400.848ZM398.914 15.8008H408.914C408.914 10.2779 404.437 5.80078 398.914 5.80078V15.8008ZM398.914 21.2578V31.2578C404.437 31.2578 408.914 26.7807 408.914 21.2578H398.914ZM375.754 21.2578H365.754C365.754 26.7807 370.231 31.2578 375.754 31.2578V21.2578ZM375.754 15.8008V5.80078C370.231 5.80078 365.754 10.2779 365.754 15.8008H375.754ZM383.961 15.8008V25.8008C389.484 25.8008 393.961 21.3236 393.961 15.8008H383.961ZM383.961 10.8594V0.859375C378.438 0.859375 373.961 5.33653 373.961 10.8594H383.961ZM390.836 10.8594H400.836C400.836 5.33653 396.359 0.859375 390.836 0.859375V10.8594ZM390.836 15.8008H380.836C380.836 21.3236 385.313 25.8008 390.836 25.8008V15.8008ZM383.574 32.4727L393.573 32.6265C393.575 32.5215 393.575 32.4164 393.573 32.3114L383.574 32.4727ZM407.68 10.1289H397.68V25.2109H407.68H417.68V10.1289H407.68ZM407.68 25.2109V35.2109H413.051V25.2109V15.2109H407.68V25.2109ZM413.051 25.2109H403.051V30.8398H413.051H423.051V25.2109H413.051ZM413.051 30.8398V20.8398H407.68V30.8398V40.8398H413.051V30.8398ZM407.68 30.8398H397.68V49.875H407.68H417.68V30.8398H407.68ZM407.68 49.875V39.875H400.848V49.875V59.875H407.68V49.875ZM400.848 49.875H410.848V10.1289H400.848H390.848V49.875L400.848 49.875ZM400.848 10.1289V20.1289H407.68V10.1289V0.128906L400.848 0.128906V10.1289ZM398.914 15.8008H388.914V21.2578H398.914H408.914V15.8008H398.914ZM398.914 21.2578V11.2578H375.754V21.2578V31.2578L398.914 31.2578V21.2578ZM375.754 21.2578H385.754V15.8008H375.754H365.754V21.2578H375.754ZM375.754 15.8008V25.8008H383.961V15.8008V5.80078H375.754V15.8008ZM383.961 15.8008H393.961V10.8594H383.961H373.961V15.8008H383.961ZM383.961 10.8594V20.8594H390.836V10.8594V0.859375H383.961V10.8594ZM390.836 10.8594H380.836V15.8008H390.836H400.836V10.8594H390.836ZM390.836 15.8008V25.8008H398.914V15.8008V5.80078H390.836V15.8008ZM387.398 22.8047V32.8047C387.725 32.8047 387.923 32.86 388.011 32.893C388.101 32.9263 388.094 32.9417 388.037 32.8897C387.977 32.8344 387.902 32.7395 387.847 32.6151C387.79 32.4859 387.797 32.4189 387.797 32.4727L397.797 32.4727H407.797C407.797 20.5455 397.999 12.8047 387.398 12.8047V22.8047ZM397.797 32.4727L387.797 32.4727C387.797 32.5477 387.786 32.4946 387.839 32.3724C387.891 32.2546 387.964 32.1606 388.026 32.1038C388.084 32.0503 388.093 32.064 388.007 32.0962C387.921 32.1283 387.725 32.1836 387.398 32.1836V42.1836V52.1836C398.03 52.1836 407.797 44.4146 407.797 32.4727H397.797ZM387.398 42.1836V32.1836C387.015 32.1836 386.793 32.12 386.704 32.0871C386.616 32.0546 386.638 32.0455 386.712 32.1136C386.789 32.1849 386.868 32.2914 386.92 32.412C386.973 32.5346 386.957 32.575 386.957 32.4727H376.957H366.957C366.957 44.3886 376.61 52.1836 387.398 52.1836V42.1836ZM376.957 32.4727H386.957C386.957 32.3914 386.969 32.4456 386.913 32.5754C386.858 32.7026 386.776 32.8102 386.7 32.8799C386.628 32.9464 386.609 32.9357 386.7 32.9021C386.791 32.8683 387.015 32.8047 387.398 32.8047V22.8047V12.8047C376.64 12.8047 366.957 20.5715 366.957 32.4727H376.957ZM387.398 28.3477V18.3477C384.085 18.3477 380.363 19.4707 377.479 22.4231C374.575 25.3958 373.52 29.1943 373.576 32.6339L383.574 32.4727L393.573 32.3114C393.585 33.087 393.325 34.823 391.785 36.3992C390.265 37.9551 388.478 38.3477 387.398 38.3477V28.3477ZM383.574 32.4727L373.575 32.3188C373.523 35.7025 374.512 39.604 377.561 42.6536C380.563 45.6554 384.332 46.5977 387.398 46.5977V36.5977V26.5977C388.231 26.5977 390.066 26.8739 391.703 28.5115C393.389 30.1967 393.582 32.0358 393.573 32.6265L383.574 32.4727ZM387.398 36.5977V46.5977C390.512 46.5977 394.268 45.6143 397.238 42.5972C400.211 39.5769 401.18 35.7552 401.18 32.4727L391.18 32.4727H381.18C381.18 31.9831 381.354 30.2239 382.984 28.5678C384.611 26.915 386.476 26.5977 387.398 26.5977V36.5977ZM391.18 32.4727L401.18 32.4727C401.18 29.142 400.15 25.4244 397.319 22.48C394.471 19.5175 390.762 18.3477 387.398 18.3477V28.3477V38.3477C386.226 38.3477 384.408 37.9082 382.903 36.3422C381.414 34.7944 381.18 33.1393 381.18 32.4727H391.18ZM446.352 20.2266H456.352C456.352 14.7037 451.874 10.2266 446.352 10.2266V20.2266ZM446.352 25.5547V35.5547C451.874 35.5547 456.352 31.0775 456.352 25.5547H446.352ZM418.25 25.5547H408.25C408.25 31.0775 412.727 35.5547 418.25 35.5547V25.5547ZM418.25 11.5469V1.54687C412.727 1.54687 408.25 6.02403 408.25 11.5469H418.25ZM425.125 11.5469L435.125 11.5469C435.125 6.02403 430.648 1.54687 425.125 1.54687V11.5469ZM425.125 20.2266H415.125C415.125 25.7494 419.602 30.2266 425.125 30.2266V20.2266ZM450.262 29.0781H460.262C460.262 23.5553 455.785 19.0781 450.262 19.0781V29.0781ZM450.262 34.4062V44.4062C455.785 44.4062 460.262 39.9291 460.262 34.4062H450.262ZM413.996 34.4062H403.996C403.996 39.9291 408.473 44.4062 413.996 44.4062V34.4062ZM413.996 29.0781V19.0781C408.473 19.0781 403.996 23.5553 403.996 29.0781H413.996ZM446.609 43.6016H456.609C456.609 38.0787 452.132 33.6016 446.609 33.6016V43.6016ZM446.609 49.1016V59.1016C452.132 59.1016 456.609 54.6244 456.609 49.1016H446.609ZM417.777 49.1016H407.777C407.777 54.6244 412.255 59.1016 417.777 59.1016V49.1016ZM417.777 37.1562V27.1562C412.255 27.1562 407.777 31.6334 407.777 37.1562H417.777ZM424.738 37.1562H434.738C434.738 31.6334 430.261 27.1562 424.738 27.1562V37.1562ZM424.738 43.6016H414.738C414.738 49.1244 419.215 53.6016 424.738 53.6016V43.6016ZM446.352 20.2266H436.352V25.5547H446.352H456.352V20.2266H446.352ZM446.352 25.5547V15.5547H418.25V25.5547V35.5547H446.352V25.5547ZM418.25 25.5547H428.25V11.5469H418.25H408.25V25.5547H418.25ZM418.25 11.5469V21.5469H425.125V11.5469V1.54687H418.25V11.5469ZM425.125 11.5469H415.125V20.2266H425.125H435.125V11.5469L425.125 11.5469ZM425.125 20.2266V30.2266H446.352V20.2266V10.2266L425.125 10.2266V20.2266ZM450.262 29.0781H440.262V34.4062H450.262H460.262V29.0781H450.262ZM450.262 34.4062V24.4062H413.996V34.4062V44.4062H450.262V34.4062ZM413.996 34.4062H423.996V29.0781H413.996H403.996V34.4062H413.996ZM413.996 29.0781V39.0781H450.262V29.0781V19.0781H413.996V29.0781ZM446.609 43.6016H436.609V49.1016H446.609H456.609V43.6016H446.609ZM446.609 49.1016V39.1016H417.777V49.1016V59.1016H446.609V49.1016ZM417.777 49.1016H427.777V37.1562H417.777H407.777V49.1016H417.777ZM417.777 37.1562V47.1562H424.738V37.1562V27.1562H417.777V37.1562ZM424.738 37.1562H414.738V43.6016H424.738H434.738V37.1562H424.738ZM424.738 43.6016V53.6016H446.609V43.6016V33.6016H424.738V43.6016Z" fill="white" mask="url(#path-1-outside-1_3990_1476)"/>
</g>
<defs>
<filter id="filter0_d_3990_1476" x="0" y="0" width="464.262" height="68.0039" filterUnits="userSpaceOnUse" color-interpolation-filters="sRGB">
<feFlood flood-opacity="0" result="BackgroundImageFix"/>
<feColorMatrix in="SourceAlpha" type="matrix" values="0 0 0 0 0 0 0 0 0 0 0 0 0 0 0 0 0 0 127 0" result="hardAlpha"/>
<feOffset dy="4"/>
<feGaussianBlur stdDeviation="2"/>
<feComposite in2="hardAlpha" operator="out"/>
<feColorMatrix type="matrix" values="0 0 0 0 0 0 0 0 0 0 0 0 0 0 0 0 0 0 0.07 0"/>
<feBlend mode="normal" in2="BackgroundImageFix" result="effect1_dropShadow_3990_1476"/>
<feBlend mode="normal" in="SourceGraphic" in2="effect1_dropShadow_3990_1476" result="shape"/>
</filter>
</defs>
</svg>
