<svg width="178" height="57" viewBox="0 0 178 57" fill="none" xmlns="http://www.w3.org/2000/svg">
<g filter="url(#filter0_d_4157_1392)">
<mask id="path-1-outside-1_4157_1392" maskUnits="userSpaceOnUse" x="0.336476" y="-3.87832" width="177.088" height="58.4989" fill="black">
<rect fill="white" x="0.336476" y="-3.87832" width="177.088" height="58.4989"/>
<path d="M17.8194 23.008C18.0212 25.8135 19.6609 28.5151 23.6865 29.392L22.5051 15.4145L27.7948 14.9674L28.4137 22.2889L29.92 22.1616L29.2627 14.3846L34.5874 13.9346L36.2604 33.7273L30.9356 34.1773L30.299 26.6456L28.7927 26.7729L29.4234 34.2346L24.1336 34.6817L23.7161 29.7423L21.7678 33.8233C19.0518 33.2061 17.1174 31.8172 15.8306 29.9502C14.8917 32.1994 13.1992 34.0889 10.4941 35.2701L7.66045 31.3817C11.5997 29.5669 12.7172 26.5088 12.4946 23.4581L12.4917 23.4231L8.07772 23.7961L7.71055 19.4523L12.1245 19.0792L11.8728 16.1015L17.1976 15.6514L17.4493 18.6291L21.8632 18.256L22.2304 22.5999L17.8164 22.973L17.8194 23.008ZM36.3552 34.8483L37.3205 46.2685L31.7155 46.7423L31.1292 39.806L13.9988 41.254L13.6198 36.77L36.3552 34.8483ZM64.8895 11.3733L66.4233 29.5195L60.7833 29.9962L59.2495 11.85L64.8895 11.3733ZM66.5329 30.8156L67.5989 43.4269L45.4941 45.2953L44.4281 32.6841L66.5329 30.8156ZM50.3362 36.6302L50.65 40.3435L61.7199 39.4078L61.4061 35.6945L50.3362 36.6302ZM47.101 14.2175C52.2156 13.7852 56.4495 16.7085 56.8433 21.3677C57.2253 25.8868 53.551 29.5844 48.4394 30.0517C43.2869 30.452 39.0441 27.4235 38.6971 22.9015C38.2683 18.2453 41.9514 14.6528 47.101 14.2175ZM47.4978 18.9117C45.3609 19.0924 43.9784 20.2677 44.162 22.4396C44.3367 24.5065 45.9028 25.5031 48.0367 25.2874C50.0715 25.1507 51.4481 23.9054 51.2734 21.8385C51.0898 19.6666 49.5296 18.74 47.4978 18.9117ZM94.4851 8.80111L95.0417 15.387L99.0703 15.0465L99.4582 19.6356L95.4296 19.9761L96.0011 26.7372L90.3611 27.2139L88.845 9.27784L94.4851 8.80111ZM85.4228 11.3665C86.169 20.1944 81.4029 26.4187 71.8103 29.8051L69.2243 25.5076C75.8536 23.3772 79.1282 19.9604 79.5954 16.3045L70.207 17.0981L69.8339 12.6841L85.4228 11.3665ZM96.09 27.7881L97.1944 40.8548L75.5801 42.6817L74.4756 29.6151L96.09 27.7881ZM80.4246 33.6283L80.7829 37.8671L91.2923 36.9787L90.934 32.7399L80.4246 33.6283ZM121.416 26.8822C121.62 29.2994 122.67 31.698 125.129 33.2367C127.306 31.2356 128.024 28.6699 127.862 26.3374L127.803 25.6368L133.303 25.1719L133.362 25.8725C133.649 29.2706 135.267 32.1327 139.79 33.0558L137.434 37.3124C134.357 36.6022 132.297 34.977 130.979 32.7422C130.093 35.1986 128.421 37.3333 125.69 38.6226C122.642 37.8394 120.623 36.0696 119.357 33.8303C118.391 36.17 116.666 38.0975 113.893 39.3022L110.82 35.5046C115.042 33.7011 116.183 30.4999 115.916 27.3471L115.857 26.6465L121.357 26.1816L121.416 26.8822ZM134.707 5.47189L136.241 23.6181L130.601 24.0948L129.067 5.94862L134.707 5.47189ZM116.93 8.4563C122.045 8.02399 126.282 10.9823 126.676 15.6415C127.058 20.1605 123.38 23.8231 118.266 24.2554C113.116 24.6907 108.876 21.6973 108.529 17.1753C108.101 12.5191 111.781 8.89158 116.93 8.4563ZM117.327 13.1505C115.19 13.3311 113.811 14.5415 113.994 16.7134C114.169 18.7803 115.738 19.8119 117.872 19.5963C119.907 19.4596 121.28 18.1792 121.106 16.1123C120.922 13.9404 119.359 12.9788 117.327 13.1505ZM165.454 11.0936L165.821 15.4375L142.91 17.374L141.945 5.95381L147.55 5.48004L148.148 12.5564L165.454 11.0936ZM169.252 18.0406L169.619 22.3845L140.052 24.8836L139.685 20.5397L169.252 18.0406ZM167.275 30.1329L167.654 34.6169L144.148 36.6038L143.325 26.8651L149 26.3854L149.444 31.6401L167.275 30.1329Z"/>
</mask>
<path d="M17.8194 23.008C18.0212 25.8135 19.6609 28.5151 23.6865 29.392L22.5051 15.4145L27.7948 14.9674L28.4137 22.2889L29.92 22.1616L29.2627 14.3846L34.5874 13.9346L36.2604 33.7273L30.9356 34.1773L30.299 26.6456L28.7927 26.7729L29.4234 34.2346L24.1336 34.6817L23.7161 29.7423L21.7678 33.8233C19.0518 33.2061 17.1174 31.8172 15.8306 29.9502C14.8917 32.1994 13.1992 34.0889 10.4941 35.2701L7.66045 31.3817C11.5997 29.5669 12.7172 26.5088 12.4946 23.4581L12.4917 23.4231L8.07772 23.7961L7.71055 19.4523L12.1245 19.0792L11.8728 16.1015L17.1976 15.6514L17.4493 18.6291L21.8632 18.256L22.2304 22.5999L17.8164 22.973L17.8194 23.008ZM36.3552 34.8483L37.3205 46.2685L31.7155 46.7423L31.1292 39.806L13.9988 41.254L13.6198 36.77L36.3552 34.8483ZM64.8895 11.3733L66.4233 29.5195L60.7833 29.9962L59.2495 11.85L64.8895 11.3733ZM66.5329 30.8156L67.5989 43.4269L45.4941 45.2953L44.4281 32.6841L66.5329 30.8156ZM50.3362 36.6302L50.65 40.3435L61.7199 39.4078L61.4061 35.6945L50.3362 36.6302ZM47.101 14.2175C52.2156 13.7852 56.4495 16.7085 56.8433 21.3677C57.2253 25.8868 53.551 29.5844 48.4394 30.0517C43.2869 30.452 39.0441 27.4235 38.6971 22.9015C38.2683 18.2453 41.9514 14.6528 47.101 14.2175ZM47.4978 18.9117C45.3609 19.0924 43.9784 20.2677 44.162 22.4396C44.3367 24.5065 45.9028 25.5031 48.0367 25.2874C50.0715 25.1507 51.4481 23.9054 51.2734 21.8385C51.0898 19.6666 49.5296 18.74 47.4978 18.9117ZM94.4851 8.80111L95.0417 15.387L99.0703 15.0465L99.4582 19.6356L95.4296 19.9761L96.0011 26.7372L90.3611 27.2139L88.845 9.27784L94.4851 8.80111ZM85.4228 11.3665C86.169 20.1944 81.4029 26.4187 71.8103 29.8051L69.2243 25.5076C75.8536 23.3772 79.1282 19.9604 79.5954 16.3045L70.207 17.0981L69.8339 12.6841L85.4228 11.3665ZM96.09 27.7881L97.1944 40.8548L75.5801 42.6817L74.4756 29.6151L96.09 27.7881ZM80.4246 33.6283L80.7829 37.8671L91.2923 36.9787L90.934 32.7399L80.4246 33.6283ZM121.416 26.8822C121.62 29.2994 122.67 31.698 125.129 33.2367C127.306 31.2356 128.024 28.6699 127.862 26.3374L127.803 25.6368L133.303 25.1719L133.362 25.8725C133.649 29.2706 135.267 32.1327 139.79 33.0558L137.434 37.3124C134.357 36.6022 132.297 34.977 130.979 32.7422C130.093 35.1986 128.421 37.3333 125.69 38.6226C122.642 37.8394 120.623 36.0696 119.357 33.8303C118.391 36.17 116.666 38.0975 113.893 39.3022L110.82 35.5046C115.042 33.7011 116.183 30.4999 115.916 27.3471L115.857 26.6465L121.357 26.1816L121.416 26.8822ZM134.707 5.47189L136.241 23.6181L130.601 24.0948L129.067 5.94862L134.707 5.47189ZM116.93 8.4563C122.045 8.02399 126.282 10.9823 126.676 15.6415C127.058 20.1605 123.38 23.8231 118.266 24.2554C113.116 24.6907 108.876 21.6973 108.529 17.1753C108.101 12.5191 111.781 8.89158 116.93 8.4563ZM117.327 13.1505C115.19 13.3311 113.811 14.5415 113.994 16.7134C114.169 18.7803 115.738 19.8119 117.872 19.5963C119.907 19.4596 121.28 18.1792 121.106 16.1123C120.922 13.9404 119.359 12.9788 117.327 13.1505ZM165.454 11.0936L165.821 15.4375L142.91 17.374L141.945 5.95381L147.55 5.48004L148.148 12.5564L165.454 11.0936ZM169.252 18.0406L169.619 22.3845L140.052 24.8836L139.685 20.5397L169.252 18.0406ZM167.275 30.1329L167.654 34.6169L144.148 36.6038L143.325 26.8651L149 26.3854L149.444 31.6401L167.275 30.1329Z" fill="#11DCA9"/>
<path d="M17.8194 23.008L23.277 22.6153C23.2753 22.5926 23.2736 22.5699 23.2716 22.5472L17.8194 23.008ZM23.6865 29.392L22.5219 34.7383C24.2188 35.108 25.9905 34.6501 27.2958 33.5045C28.6011 32.3589 29.2851 30.6617 29.1388 28.9311L23.6865 29.392ZM22.5051 15.4145L22.0442 9.96224C19.033 10.2168 16.7983 12.8642 17.0528 15.8754L22.5051 15.4145ZM27.7948 14.9674L33.2471 14.5065C32.9925 11.4953 30.3451 9.2606 27.3339 9.51512L27.7948 14.9674ZM28.4137 22.2889L22.9614 22.7498C23.2159 25.761 25.8633 27.9957 28.8745 27.7412L28.4137 22.2889ZM29.92 22.1616L30.3809 27.6139C33.3921 27.3593 35.6268 24.7119 35.3723 21.7007L29.92 22.1616ZM29.2627 14.3846L28.8018 8.93239C25.7906 9.18691 23.5559 11.8343 23.8104 14.8455L29.2627 14.3846ZM34.5874 13.9346L40.0397 13.4737C39.7851 10.4625 37.1378 8.22779 34.1266 8.48231L34.5874 13.9346ZM36.2604 33.7273L36.7213 39.1795C39.7325 38.925 41.9672 36.2776 41.7127 33.2664L36.2604 33.7273ZM30.9356 34.1773L25.4834 34.6382C25.7379 37.6494 28.3853 39.8841 31.3965 39.6296L30.9356 34.1773ZM30.299 26.6456L35.7513 26.1848C35.4968 23.1736 32.8494 20.9388 29.8382 21.1934L30.299 26.6456ZM28.7927 26.7729L28.3318 21.3207C25.3206 21.5752 23.0859 24.2226 23.3404 27.2338L28.7927 26.7729ZM29.4234 34.2346L29.8842 39.6869C32.8954 39.4323 35.1302 36.785 34.8756 33.7738L29.4234 34.2346ZM24.1336 34.6817L18.6814 35.1426C18.9359 38.1538 21.5833 40.3885 24.5945 40.134L24.1336 34.6817ZM23.7161 29.7423L29.1684 29.2815C28.9603 26.82 27.1288 24.8031 24.6987 24.3596C22.2686 23.916 19.8426 25.1556 18.7783 27.3849L23.7161 29.7423ZM21.7678 33.8233L20.5553 39.1589C23.0495 39.7257 25.6036 38.4889 26.7056 36.1807L21.7678 33.8233ZM15.8306 29.9502L20.3359 26.845C19.1997 25.1965 17.2538 24.3002 15.2625 24.5081C13.2712 24.7159 11.5525 25.9948 10.7812 27.8424L15.8306 29.9502ZM10.4941 35.2701L6.07205 38.4927C7.58322 40.5663 10.3324 41.3114 12.6838 40.2846L10.4941 35.2701ZM7.66045 31.3817L5.37095 26.412C3.8815 27.0982 2.77835 28.4162 2.36522 30.0033C1.9521 31.5903 2.27256 33.2789 3.23838 34.6042L7.66045 31.3817ZM12.4946 23.4581L17.9518 23.0599C17.9503 23.039 17.9487 23.0181 17.9469 22.9972L12.4946 23.4581ZM12.4917 23.4231L17.9439 22.9622C17.6894 19.951 15.042 17.7163 12.0308 17.9708L12.4917 23.4231ZM8.07772 23.7961L2.62547 24.257C2.87999 27.2682 5.52738 29.5029 8.53858 29.2484L8.07772 23.7961ZM7.71055 19.4523L7.2497 14C4.2385 14.2545 2.00377 16.9019 2.2583 19.9131L7.71055 19.4523ZM12.1245 19.0792L12.5854 24.5314C15.5966 24.2769 17.8313 21.6295 17.5768 18.6183L12.1245 19.0792ZM11.8728 16.1015L11.412 10.6493C8.40076 10.9038 6.16603 13.5512 6.42055 16.5624L11.8728 16.1015ZM17.1976 15.6514L22.6498 15.1906C22.3953 12.1794 19.7479 9.94465 16.7367 10.1992L17.1976 15.6514ZM17.4493 18.6291L11.997 19.0899C12.2515 22.1011 14.8989 24.3359 17.9101 24.0813L17.4493 18.6291ZM21.8632 18.256L27.3155 17.7951C27.0609 14.7839 24.4136 12.5492 21.4024 12.8037L21.8632 18.256ZM22.2304 22.5999L22.6912 28.0521C25.7024 27.7976 27.9372 25.1502 27.6826 22.139L22.2304 22.5999ZM17.8164 22.973L17.3556 17.5207C14.3444 17.7752 12.1097 20.4226 12.3642 23.4338L17.8164 22.973ZM36.3552 34.8483L41.8074 34.3874C41.5529 31.3762 38.9055 29.1415 35.8943 29.396L36.3552 34.8483ZM37.3205 46.2685L37.7813 51.7207C40.7925 51.4662 43.0272 48.8188 42.7727 45.8076L37.3205 46.2685ZM31.7155 46.7423L26.2632 47.2031C26.5177 50.2143 29.1651 52.449 32.1763 52.1945L31.7155 46.7423ZM31.1292 39.806L36.5814 39.3452C36.3269 36.334 33.6795 34.0993 30.6683 34.3538L31.1292 39.806ZM13.9988 41.254L8.54659 41.7149C8.80111 44.7261 11.4485 46.9608 14.4597 46.7063L13.9988 41.254ZM13.6198 36.77L13.159 31.3177C10.1478 31.5723 7.91305 34.2197 8.16757 37.2308L13.6198 36.77ZM17.8194 23.008L12.3618 23.4007C12.5292 25.7275 13.3142 28.2459 15.1009 30.4084C16.9184 32.6082 19.4719 34.0739 22.5219 34.7383L23.6865 29.392L24.8512 24.0457C23.8755 23.8331 23.5964 23.5096 23.5372 23.438C23.4472 23.3291 23.3114 23.094 23.277 22.6153L17.8194 23.008ZM23.6865 29.392L29.1388 28.9311L27.9573 14.9536L22.5051 15.4145L17.0528 15.8754L18.2343 29.8529L23.6865 29.392ZM22.5051 15.4145L22.9659 20.8668L28.2557 20.4196L27.7948 14.9674L27.3339 9.51512L22.0442 9.96224L22.5051 15.4145ZM27.7948 14.9674L22.3425 15.4282L22.9614 22.7498L28.4137 22.2889L33.8659 21.8281L33.2471 14.5065L27.7948 14.9674ZM28.4137 22.2889L28.8745 27.7412L30.3809 27.6139L29.92 22.1616L29.4592 16.7093L27.9528 16.8367L28.4137 22.2889ZM29.92 22.1616L35.3723 21.7007L34.7149 13.9238L29.2627 14.3846L23.8104 14.8455L24.4678 22.6225L29.92 22.1616ZM29.2627 14.3846L29.7235 19.8369L35.0483 19.3868L34.5874 13.9346L34.1266 8.48231L28.8018 8.93239L29.2627 14.3846ZM34.5874 13.9346L29.1352 14.3954L30.8082 34.1881L36.2604 33.7273L41.7127 33.2664L40.0397 13.4737L34.5874 13.9346ZM36.2604 33.7273L35.7996 28.275L30.4748 28.7251L30.9356 34.1773L31.3965 39.6296L36.7213 39.1795L36.2604 33.7273ZM30.9356 34.1773L36.3879 33.7165L35.7513 26.1848L30.299 26.6456L24.8468 27.1065L25.4834 34.6382L30.9356 34.1773ZM30.299 26.6456L29.8382 21.1934L28.3318 21.3207L28.7927 26.7729L29.2535 32.2252L30.7599 32.0979L30.299 26.6456ZM28.7927 26.7729L23.3404 27.2338L23.9711 34.6955L29.4234 34.2346L34.8756 33.7738L34.2449 26.3121L28.7927 26.7729ZM29.4234 34.2346L28.9625 28.7824L23.6728 29.2295L24.1336 34.6817L24.5945 40.134L29.8842 39.6869L29.4234 34.2346ZM24.1336 34.6817L29.5859 34.2209L29.1684 29.2815L23.7161 29.7423L18.2639 30.2032L18.6814 35.1426L24.1336 34.6817ZM23.7161 29.7423L18.7783 27.3849L16.83 31.4658L21.7678 33.8233L26.7056 36.1807L28.6539 32.0998L23.7161 29.7423ZM21.7678 33.8233L22.9803 28.4876C21.5556 28.1638 20.8167 27.5426 20.3359 26.845L15.8306 29.9502L11.3254 33.0554C13.4182 36.0918 16.5481 38.2483 20.5553 39.1589L21.7678 33.8233ZM15.8306 29.9502L10.7812 27.8424C10.3717 28.8234 9.68488 29.6528 8.30439 30.2557L10.4941 35.2701L12.6838 40.2846C16.7134 38.5249 19.4118 35.5753 20.88 32.058L15.8306 29.9502ZM10.4941 35.2701L14.9162 32.0476L12.0825 28.1591L7.66045 31.3817L3.23838 34.6042L6.07205 38.4927L10.4941 35.2701ZM7.66045 31.3817L9.94995 36.3514C12.8474 35.0165 15.0698 33.035 16.4489 30.4905C17.802 27.9939 18.1203 25.369 17.9518 23.0599L12.4946 23.4581L7.03744 23.8562C7.09155 24.5978 6.96243 25.0274 6.82761 25.2762C6.71871 25.4771 6.41275 25.9321 5.37095 26.412L7.66045 31.3817ZM12.4946 23.4581L17.9469 22.9972L17.9439 22.9622L12.4917 23.4231L7.03941 23.8839L7.04238 23.9189L12.4946 23.4581ZM12.4917 23.4231L12.0308 17.9708L7.61687 18.3439L8.07772 23.7961L8.53858 29.2484L12.9525 28.8753L12.4917 23.4231ZM8.07772 23.7961L13.53 23.3353L13.1628 18.9914L7.71055 19.4523L2.2583 19.9131L2.62547 24.257L8.07772 23.7961ZM7.71055 19.4523L8.17141 24.9045L12.5854 24.5314L12.1245 19.0792L11.6636 13.6269L7.2497 14L7.71055 19.4523ZM12.1245 19.0792L17.5768 18.6183L17.3251 15.6407L11.8728 16.1015L6.42055 16.5624L6.67224 19.54L12.1245 19.0792ZM11.8728 16.1015L12.3337 21.5538L17.6584 21.1037L17.1976 15.6514L16.7367 10.1992L11.412 10.6493L11.8728 16.1015ZM17.1976 15.6514L11.7453 16.1123L11.997 19.0899L17.4493 18.6291L22.9015 18.1682L22.6498 15.1906L17.1976 15.6514ZM17.4493 18.6291L17.9101 24.0813L22.3241 23.7083L21.8632 18.256L21.4024 12.8037L16.9884 13.1768L17.4493 18.6291ZM21.8632 18.256L16.411 18.7169L16.7781 23.0607L22.2304 22.5999L27.6826 22.139L27.3155 17.7951L21.8632 18.256ZM22.2304 22.5999L21.7695 17.1476L17.3556 17.5207L17.8164 22.973L18.2773 28.4252L22.6912 28.0521L22.2304 22.5999ZM17.8164 22.973L12.3642 23.4338L12.3671 23.4689L17.8194 23.008L23.2716 22.5472L23.2687 22.5121L17.8164 22.973ZM36.3552 34.8483L30.9029 35.3091L31.8682 46.7293L37.3205 46.2685L42.7727 45.8076L41.8074 34.3874L36.3552 34.8483ZM37.3205 46.2685L36.8596 40.8162L31.2546 41.29L31.7155 46.7423L32.1763 52.1945L37.7813 51.7207L37.3205 46.2685ZM31.7155 46.7423L37.1677 46.2814L36.5814 39.3452L31.1292 39.806L25.6769 40.2669L26.2632 47.2031L31.7155 46.7423ZM31.1292 39.806L30.6683 34.3538L13.538 35.8017L13.9988 41.254L14.4597 46.7063L31.59 45.2583L31.1292 39.806ZM13.9988 41.254L19.4511 40.7931L19.0721 36.3091L13.6198 36.77L8.16757 37.2308L8.54659 41.7149L13.9988 41.254ZM13.6198 36.77L14.0807 42.2222L36.816 40.3005L36.3552 34.8483L35.8943 29.396L13.159 31.3177L13.6198 36.77ZM64.8895 11.3733L70.3418 10.9124C70.0872 7.90121 67.4399 5.66648 64.4287 5.92101L64.8895 11.3733ZM66.4233 29.5195L66.8842 34.9717C69.8954 34.7172 72.1301 32.0698 71.8756 29.0586L66.4233 29.5195ZM60.7833 29.9962L55.331 30.4571C55.5856 33.4683 58.233 35.703 61.2442 35.4485L60.7833 29.9962ZM59.2495 11.85L58.7886 6.39773C55.7774 6.65226 53.5427 9.29965 53.7972 12.3108L59.2495 11.85ZM66.5329 30.8156L71.9852 30.3548C71.7306 27.3436 69.0832 25.1089 66.072 25.3634L66.5329 30.8156ZM67.5989 43.4269L68.0597 48.8792C71.0709 48.6247 73.3057 45.9773 73.0511 42.9661L67.5989 43.4269ZM45.4941 45.2953L40.0419 45.7562C40.2964 48.7674 42.9438 51.0021 45.955 50.7476L45.4941 45.2953ZM44.4281 32.6841L43.9673 27.2318C40.9561 27.4863 38.7213 30.1337 38.9759 33.1449L44.4281 32.6841ZM50.3362 36.6302L49.8753 31.1779C46.8641 31.4324 44.6294 34.0798 44.8839 37.091L50.3362 36.6302ZM50.65 40.3435L45.1978 40.8043C45.4523 43.8155 48.0997 46.0503 51.1109 45.7957L50.65 40.3435ZM61.7199 39.4078L62.1808 44.8601C65.192 44.6055 67.4267 41.9581 67.1722 38.9469L61.7199 39.4078ZM61.4061 35.6945L66.8583 35.2336C66.6038 32.2224 63.9564 29.9877 60.9452 30.2422L61.4061 35.6945ZM48.4394 30.0517L48.8632 35.507C48.888 35.505 48.9128 35.5029 48.9376 35.5007L48.4394 30.0517ZM38.6971 22.9015L44.1528 22.483C44.1506 22.4552 44.1483 22.4274 44.1457 22.3997L38.6971 22.9015ZM48.0367 25.2874L47.6699 19.8281C47.6087 19.8322 47.5476 19.8373 47.4866 19.8435L48.0367 25.2874ZM64.8895 11.3733L59.4373 11.8341L60.9711 29.9803L66.4233 29.5195L71.8756 29.0586L70.3418 10.9124L64.8895 11.3733ZM66.4233 29.5195L65.9625 24.0672L60.3224 24.544L60.7833 29.9962L61.2442 35.4485L66.8842 34.9717L66.4233 29.5195ZM60.7833 29.9962L66.2356 29.5354L64.7017 11.3891L59.2495 11.85L53.7972 12.3108L55.331 30.4571L60.7833 29.9962ZM59.2495 11.85L59.7103 17.3022L65.3504 16.8255L64.8895 11.3733L64.4287 5.92101L58.7886 6.39773L59.2495 11.85ZM66.5329 30.8156L61.0806 31.2765L62.1466 43.8878L67.5989 43.4269L73.0511 42.9661L71.9852 30.3548L66.5329 30.8156ZM67.5989 43.4269L67.138 37.9747L45.0333 39.8431L45.4941 45.2953L45.955 50.7476L68.0597 48.8792L67.5989 43.4269ZM45.4941 45.2953L50.9464 44.8345L49.8804 32.2232L44.4281 32.6841L38.9759 33.1449L40.0419 45.7562L45.4941 45.2953ZM44.4281 32.6841L44.889 38.1363L66.9938 36.2679L66.5329 30.8156L66.072 25.3634L43.9673 27.2318L44.4281 32.6841ZM50.3362 36.6302L44.8839 37.091L45.1978 40.8043L50.65 40.3435L56.1023 39.8826L55.7884 36.1693L50.3362 36.6302ZM50.65 40.3435L51.1109 45.7957L62.1808 44.8601L61.7199 39.4078L61.2591 33.9555L50.1892 34.8912L50.65 40.3435ZM61.7199 39.4078L67.1722 38.9469L66.8583 35.2336L61.4061 35.6945L55.9538 36.1553L56.2677 39.8687L61.7199 39.4078ZM61.4061 35.6945L60.9452 30.2422L49.8753 31.1779L50.3362 36.6302L50.797 42.0824L61.8669 41.1467L61.4061 35.6945ZM47.101 14.2175L47.5619 19.6698C48.9807 19.5499 49.982 19.9177 50.5431 20.3222C51.0472 20.6855 51.334 21.1536 51.3911 21.8286L56.8433 21.3677L62.2956 20.9069C61.5833 12.4804 53.9496 8.14746 46.6402 8.76529L47.101 14.2175ZM56.8433 21.3677L51.3911 21.8286C51.439 22.395 51.2655 22.9154 50.7847 23.4083C50.2693 23.9366 49.3266 24.4761 47.9412 24.6027L48.4394 30.0517L48.9376 35.5007C56.244 34.8327 62.9936 29.1645 62.2956 20.9069L56.8433 21.3677ZM48.4394 30.0517L48.0157 24.5964C46.6012 24.7063 45.5752 24.3273 44.986 23.8984C44.4404 23.5013 44.1951 23.034 44.1528 22.483L38.6971 22.9015L33.2414 23.3201C33.8797 31.6393 41.5422 36.0757 48.8632 35.507L48.4394 30.0517ZM38.6971 22.9015L44.1457 22.3997C44.085 21.7397 44.2802 21.2483 44.7062 20.8156C45.1851 20.3291 46.1154 19.7921 47.5619 19.6698L47.101 14.2175L46.6402 8.76529C39.3242 9.38368 32.4678 14.9276 33.2485 23.4034L38.6971 22.9015ZM47.4978 18.9117L47.037 13.4595C45.1535 13.6187 42.8852 14.271 41.0969 16.0537C39.1739 17.9705 38.5062 20.4926 38.7097 22.9005L44.162 22.4396L49.6143 21.9788C49.6204 22.0515 49.6298 22.3205 49.5047 22.7021C49.3739 23.1008 49.139 23.4888 48.8226 23.8042C48.2138 24.4111 47.7052 24.3854 47.9587 24.364L47.4978 18.9117ZM44.162 22.4396L38.7097 22.9005C38.9146 25.3236 40.0383 27.6557 42.2071 29.1882C44.2514 30.6327 46.6037 30.9318 48.5869 30.7314L48.0367 25.2874L47.4866 19.8435C47.3358 19.8587 47.8381 19.7674 48.5222 20.2508C48.8706 20.4969 49.1619 20.8267 49.3601 21.1954C49.5528 21.5536 49.6029 21.845 49.6143 21.9788L44.162 22.4396ZM48.0367 25.2874L48.4035 30.7468C50.4029 30.6125 52.6467 29.8921 54.3862 28.122C56.2175 26.2586 56.93 23.7956 56.7256 21.3777L51.2734 21.8385L45.8211 22.2994C45.8098 22.1651 45.8111 21.877 45.9357 21.5025C46.0634 21.1187 46.2858 20.7519 46.581 20.4516C46.868 20.1595 47.1562 19.9978 47.3585 19.9152C47.4583 19.8745 47.5372 19.8529 47.5887 19.8415C47.6403 19.8301 47.6684 19.8282 47.6699 19.8281L48.0367 25.2874ZM51.2734 21.8385L56.7256 21.3777C56.5225 18.9742 55.4483 16.6247 53.2822 15.0604C51.2505 13.5931 48.9265 13.2998 47.037 13.4595L47.4978 18.9117L47.9587 24.364C48.1009 24.352 47.5729 24.4361 46.8752 23.9321C46.5174 23.6738 46.2313 23.3364 46.0434 22.9772C45.8628 22.6319 45.8273 22.3729 45.8211 22.2994L51.2734 21.8385ZM94.4851 8.80111L99.9373 8.34026C99.6828 5.32906 97.0354 3.09433 94.0242 3.34886L94.4851 8.80111ZM95.0417 15.387L89.5895 15.8479C89.844 18.8591 92.4914 21.0938 95.5026 20.8393L95.0417 15.387ZM99.0703 15.0465L104.523 14.5856C104.268 11.5744 101.621 9.3397 98.6095 9.59423L99.0703 15.0465ZM99.4582 19.6356L99.9191 25.0878C102.93 24.8333 105.165 22.1859 104.91 19.1747L99.4582 19.6356ZM95.4296 19.9761L94.9688 14.5238C91.9576 14.7784 89.7229 17.4258 89.9774 20.437L95.4296 19.9761ZM96.0011 26.7372L96.462 32.1894C99.4732 31.9349 101.708 29.2875 101.453 26.2763L96.0011 26.7372ZM90.3611 27.2139L84.9088 27.6747C85.1634 30.6859 87.8107 32.9207 90.8219 32.6661L90.3611 27.2139ZM88.845 9.27784L88.3842 3.82559C85.373 4.08011 83.1382 6.7275 83.3928 9.7387L88.845 9.27784ZM85.4228 11.3665L90.8751 10.9056C90.6206 7.89441 87.9732 5.65969 84.962 5.91421L85.4228 11.3665ZM71.8103 29.8051L67.122 32.6263C68.4615 34.8524 71.1818 35.8296 73.6317 34.9647L71.8103 29.8051ZM69.2243 25.5076L67.5502 20.2983C65.9591 20.8096 64.6889 22.0201 64.1016 23.5848C63.5143 25.1495 63.6743 26.8968 64.536 28.3288L69.2243 25.5076ZM79.5954 16.3045L85.0229 16.9981C85.2325 15.3587 84.6897 13.7125 83.5463 12.5191C82.4029 11.3257 80.7814 10.7131 79.1345 10.8523L79.5954 16.3045ZM70.207 17.0981L64.7547 17.5589C65.0093 20.5701 67.6567 22.8049 70.6678 22.5503L70.207 17.0981ZM69.8339 12.6841L69.373 7.23188C66.3618 7.4864 64.1271 10.1338 64.3816 13.145L69.8339 12.6841ZM96.09 27.7881L101.542 27.3272C101.288 24.316 98.6403 22.0813 95.6291 22.3358L96.09 27.7881ZM97.1944 40.8548L97.6553 46.307C100.666 46.0525 102.901 43.4051 102.647 40.3939L97.1944 40.8548ZM75.5801 42.6817L70.1278 43.1426C70.3824 46.1538 73.0298 48.3885 76.041 48.134L75.5801 42.6817ZM74.4756 29.6151L74.0148 24.1628C71.0036 24.4173 68.7688 27.0647 69.0234 30.0759L74.4756 29.6151ZM80.4246 33.6283L79.9638 28.176C76.9526 28.4305 74.7178 31.0779 74.9724 34.0891L80.4246 33.6283ZM80.7829 37.8671L75.3307 38.3279C75.5852 41.3391 78.2326 43.5738 81.2438 43.3193L80.7829 37.8671ZM91.2923 36.9787L91.7532 42.431C94.7644 42.1765 96.9991 39.5291 96.7446 36.5179L91.2923 36.9787ZM90.934 32.7399L96.3863 32.2791C96.1318 29.2679 93.4844 27.0332 90.4732 27.2877L90.934 32.7399ZM94.4851 8.80111L89.0328 9.26197L89.5895 15.8479L95.0417 15.387L100.494 14.9261L99.9373 8.34026L94.4851 8.80111ZM95.0417 15.387L95.5026 20.8393L99.5312 20.4987L99.0703 15.0465L98.6095 9.59423L94.5809 9.93475L95.0417 15.387ZM99.0703 15.0465L93.6181 15.5073L94.006 20.0964L99.4582 19.6356L104.91 19.1747L104.523 14.5856L99.0703 15.0465ZM99.4582 19.6356L98.9974 14.1833L94.9688 14.5238L95.4296 19.9761L95.8905 25.4284L99.9191 25.0878L99.4582 19.6356ZM95.4296 19.9761L89.9774 20.437L90.5489 27.198L96.0011 26.7372L101.453 26.2763L100.882 19.5153L95.4296 19.9761ZM96.0011 26.7372L95.5403 21.2849L89.9002 21.7616L90.3611 27.2139L90.8219 32.6661L96.462 32.1894L96.0011 26.7372ZM90.3611 27.2139L95.8133 26.753L94.2973 8.81698L88.845 9.27784L83.3928 9.7387L84.9088 27.6747L90.3611 27.2139ZM88.845 9.27784L89.3059 14.7301L94.9459 14.2534L94.4851 8.80111L94.0242 3.34886L88.3842 3.82559L88.845 9.27784ZM85.4228 11.3665L79.9706 11.8273C80.2459 15.0848 79.5057 17.4788 78.1062 19.3568C76.6423 21.3212 74.0977 23.1949 69.9888 24.6454L71.8103 29.8051L73.6317 34.9647C79.1155 33.0288 83.7502 30.0972 86.8811 25.8958C90.0762 21.6081 91.3459 16.476 90.8751 10.9056L85.4228 11.3665ZM71.8103 29.8051L76.4986 26.9839L73.9126 22.6864L69.2243 25.5076L64.536 28.3288L67.122 32.6263L71.8103 29.8051ZM69.2243 25.5076L70.8984 30.7169C78.3633 28.318 84.1583 23.7643 85.0229 16.9981L79.5954 16.3045L74.1678 15.6109C74.0981 16.1565 73.3438 18.4365 67.5502 20.2983L69.2243 25.5076ZM79.5954 16.3045L79.1345 10.8523L69.7461 11.6458L70.207 17.0981L70.6678 22.5503L80.0562 21.7568L79.5954 16.3045ZM70.207 17.0981L75.6592 16.6372L75.2862 12.2233L69.8339 12.6841L64.3816 13.145L64.7547 17.5589L70.207 17.0981ZM69.8339 12.6841L70.2948 18.1364L85.8837 16.8187L85.4228 11.3665L84.962 5.91421L69.373 7.23188L69.8339 12.6841ZM96.09 27.7881L90.6377 28.2489L91.7422 41.3156L97.1944 40.8548L102.647 40.3939L101.542 27.3272L96.09 27.7881ZM97.1944 40.8548L96.7336 35.4025L75.1192 37.2295L75.5801 42.6817L76.041 48.134L97.6553 46.307L97.1944 40.8548ZM75.5801 42.6817L81.0324 42.2209L79.9279 29.1542L74.4756 29.6151L69.0234 30.0759L70.1278 43.1426L75.5801 42.6817ZM74.4756 29.6151L74.9365 35.0673L96.5508 33.2403L96.09 27.7881L95.6291 22.3358L74.0148 24.1628L74.4756 29.6151ZM80.4246 33.6283L74.9724 34.0891L75.3307 38.3279L80.7829 37.8671L86.2352 37.4062L85.8769 33.1674L80.4246 33.6283ZM80.7829 37.8671L81.2438 43.3193L91.7532 42.431L91.2923 36.9787L90.8315 31.5265L80.3221 32.4148L80.7829 37.8671ZM91.2923 36.9787L96.7446 36.5179L96.3863 32.2791L90.934 32.7399L85.4818 33.2008L85.8401 37.4396L91.2923 36.9787ZM90.934 32.7399L90.4732 27.2877L79.9638 28.176L80.4246 33.6283L80.8855 39.0805L91.3949 38.1922L90.934 32.7399ZM125.129 33.2367L122.226 37.875C124.314 39.1817 127.018 38.9321 128.831 37.2652L125.129 33.2367ZM127.862 26.3374L133.32 25.9586C133.319 25.9312 133.316 25.9039 133.314 25.8765L127.862 26.3374ZM127.803 25.6368L127.342 20.1845C124.331 20.439 122.096 23.0864 122.35 26.0976L127.803 25.6368ZM133.303 25.1719L138.755 24.711C138.5 21.6998 135.853 19.4651 132.842 19.7196L133.303 25.1719ZM139.79 33.0558L144.577 35.7063C145.421 34.1823 145.489 32.3474 144.76 30.7653C144.03 29.1832 142.591 28.0429 140.884 27.6946L139.79 33.0558ZM137.434 37.3124L136.203 42.6439C138.582 43.1932 141.038 42.0992 142.22 39.9629L137.434 37.3124ZM130.979 32.7422L135.692 29.9627C134.615 28.1365 132.58 27.0967 130.469 27.2943C128.358 27.4918 126.551 28.8911 125.832 30.8855L130.979 32.7422ZM125.69 38.6226L124.328 43.9221C125.564 44.2397 126.872 44.1154 128.026 43.5707L125.69 38.6226ZM119.357 33.8303L124.121 31.1384C123.091 29.3159 121.112 28.2407 119.022 28.3689C116.933 28.4972 115.099 29.8064 114.3 31.7412L119.357 33.8303ZM113.893 39.3022L109.639 42.7441C111.186 44.6555 113.817 45.3005 116.072 44.321L113.893 39.3022ZM110.82 35.5046L108.67 30.4726C107.093 31.1464 105.923 32.521 105.509 34.1858C105.096 35.8506 105.487 37.613 106.566 38.9465L110.82 35.5046ZM115.857 26.6465L115.396 21.1942C112.385 21.4488 110.15 24.0962 110.405 27.1073L115.857 26.6465ZM121.357 26.1816L126.809 25.7208C126.555 22.7096 123.907 20.4748 120.896 20.7294L121.357 26.1816ZM134.707 5.47189L140.159 5.01104C139.905 1.99984 137.257 -0.234889 134.246 0.0196354L134.707 5.47189ZM136.241 23.6181L136.702 29.0704C139.713 28.8159 141.948 26.1685 141.693 23.1573L136.241 23.6181ZM130.601 24.0948L125.148 24.5557C125.403 27.5669 128.05 29.8016 131.062 29.5471L130.601 24.0948ZM129.067 5.94862L128.606 0.496364C125.595 0.750888 123.36 3.39828 123.615 6.40948L129.067 5.94862ZM108.529 17.1753L113.985 16.7567C113.983 16.729 113.981 16.7012 113.978 16.6735L108.529 17.1753ZM117.872 19.5963L117.505 14.1369C117.444 14.141 117.383 14.1461 117.322 14.1523L117.872 19.5963ZM121.416 26.8822L115.964 27.3431C116.277 31.0523 117.981 35.2184 122.226 37.875L125.129 33.2367L128.031 28.5983C127.624 28.3433 127.392 28.066 127.233 27.774C127.059 27.4536 126.918 27.0082 126.868 26.4214L121.416 26.8822ZM125.129 33.2367L128.831 37.2652C132.403 33.982 133.581 29.7057 133.32 25.9586L127.862 26.3374L122.403 26.7162C122.467 27.6342 122.208 28.4893 121.426 29.2081L125.129 33.2367ZM127.862 26.3374L133.314 25.8765L133.255 25.1759L127.803 25.6368L122.35 26.0976L122.41 26.7983L127.862 26.3374ZM127.803 25.6368L128.264 31.089L133.763 30.6241L133.303 25.1719L132.842 19.7196L127.342 20.1845L127.803 25.6368ZM133.303 25.1719L127.85 25.6327L127.91 26.3334L133.362 25.8725L138.814 25.4117L138.755 24.711L133.303 25.1719ZM133.362 25.8725L127.91 26.3334C128.112 28.7279 128.825 31.4507 130.717 33.8131C132.665 36.2446 135.424 37.7493 138.696 38.417L139.79 33.0558L140.884 27.6946C139.633 27.4392 139.322 27.0513 139.258 26.9715C139.139 26.8225 138.899 26.4152 138.814 25.4117L133.362 25.8725ZM139.79 33.0558L135.004 30.4053L132.647 34.6619L137.434 37.3124L142.22 39.9629L144.577 35.7063L139.79 33.0558ZM137.434 37.3124L138.664 31.9809C137.023 31.602 136.234 30.8823 135.692 29.9627L130.979 32.7422L126.266 35.5216C128.359 39.0717 131.691 41.6024 136.203 42.6439L137.434 37.3124ZM130.979 32.7422L125.832 30.8855C125.374 32.1544 124.617 33.0781 123.354 33.6745L125.69 38.6226L128.026 43.5707C132.224 41.5885 134.811 38.2427 136.126 34.5989L130.979 32.7422ZM125.69 38.6226L127.052 33.3231C125.536 32.9336 124.702 32.1658 124.121 31.1384L119.357 33.8303L114.594 36.5222C116.544 39.9734 119.748 42.7452 124.328 43.9221L125.69 38.6226ZM119.357 33.8303L114.3 31.7412C113.86 32.8073 113.145 33.6616 111.713 34.2835L113.893 39.3022L116.072 44.321C120.188 42.5335 122.922 39.5328 124.415 35.9194L119.357 33.8303ZM113.893 39.3022L118.146 35.8603L115.073 32.0627L110.82 35.5046L106.566 38.9465L109.639 42.7441L113.893 39.3022ZM110.82 35.5046L112.969 40.5365C116.04 39.2248 118.397 37.2064 119.847 34.5656C121.267 31.9801 121.569 29.2537 121.368 26.8863L115.916 27.3471L110.464 27.808C110.53 28.5934 110.395 29.044 110.255 29.2982C110.146 29.497 109.822 29.9809 108.67 30.4726L110.82 35.5046ZM115.916 27.3471L121.368 26.8863L121.309 26.1856L115.857 26.6465L110.405 27.1073L110.464 27.808L115.916 27.3471ZM115.857 26.6465L116.318 32.0987L121.818 31.6339L121.357 26.1816L120.896 20.7294L115.396 21.1942L115.857 26.6465ZM121.357 26.1816L115.905 26.6425L115.964 27.3431L121.416 26.8822L126.868 26.4214L126.809 25.7208L121.357 26.1816ZM134.707 5.47189L129.255 5.93275L130.789 24.079L136.241 23.6181L141.693 23.1573L140.159 5.01104L134.707 5.47189ZM136.241 23.6181L135.78 18.1659L130.14 18.6426L130.601 24.0948L131.062 29.5471L136.702 29.0704L136.241 23.6181ZM130.601 24.0948L136.053 23.634L134.519 5.48776L129.067 5.94862L123.615 6.40948L125.148 24.5557L130.601 24.0948ZM129.067 5.94862L129.528 11.4009L135.168 10.9241L134.707 5.47189L134.246 0.0196354L128.606 0.496364L129.067 5.94862ZM116.93 8.4563L117.391 13.9086C118.795 13.7899 119.794 14.1576 120.36 14.5686C120.874 14.9413 121.166 15.4233 121.223 16.1024L126.676 15.6415L132.128 15.1806C131.418 6.78345 123.813 2.38333 116.469 3.00405L116.93 8.4563ZM126.676 15.6415L121.223 16.1024C121.271 16.6657 121.099 17.1682 120.633 17.6421C120.129 18.1539 119.195 18.6857 117.805 18.8032L118.266 24.2554L118.727 29.7077C126.036 29.0899 132.828 23.467 132.128 15.1806L126.676 15.6415ZM118.266 24.2554L117.805 18.8032C116.388 18.923 115.371 18.55 114.796 18.1355C114.268 17.7547 114.027 17.3047 113.985 16.7567L108.529 17.1753L103.074 17.5939C103.714 25.9421 111.412 30.326 118.727 29.7077L118.266 24.2554ZM108.529 17.1753L113.978 16.6735C113.917 16.0094 114.115 15.5035 114.549 15.0598C115.032 14.5661 115.96 14.0296 117.391 13.9086L116.93 8.4563L116.469 3.00405C109.119 3.62533 102.303 9.23068 103.081 17.6772L108.529 17.1753ZM117.327 13.1505L116.866 7.69825C114.943 7.86083 112.673 8.54194 110.897 10.341C109.002 12.2601 108.339 14.7717 108.542 17.1743L113.994 16.7134L119.446 16.2525C119.453 16.3257 119.461 16.5861 119.341 16.9553C119.216 17.3401 118.991 17.7184 118.684 18.0294C118.086 18.6352 117.575 18.6208 117.788 18.6028L117.327 13.1505ZM113.994 16.7134L108.542 17.1743C108.746 19.5909 109.863 21.9145 112.005 23.454C114.04 24.9162 116.399 25.2446 118.422 25.0402L117.872 19.5963L117.322 14.1523C117.21 14.1635 117.719 14.084 118.392 14.5676C118.73 14.811 119.011 15.1332 119.201 15.4892C119.386 15.8359 119.435 16.1187 119.446 16.2525L113.994 16.7134ZM117.872 19.5963L118.239 25.0557C120.279 24.9186 122.525 24.1662 124.251 22.3818C126.054 20.5165 126.762 18.063 126.558 15.6515L121.106 16.1123L115.653 16.5732C115.642 16.4388 115.644 16.1592 115.763 15.7973C115.885 15.4272 116.098 15.0701 116.384 14.7744C116.958 14.181 117.5 14.1372 117.505 14.1369L117.872 19.5963ZM121.106 16.1123L126.558 15.6515C126.355 13.2532 125.287 10.9132 123.149 9.34257C121.128 7.85814 118.797 7.53503 116.866 7.69825L117.327 13.1505L117.788 18.6028C117.889 18.5942 117.356 18.666 116.67 18.1625C116.323 17.9072 116.048 17.578 115.868 17.2315C115.694 16.8976 115.66 16.647 115.653 16.5732L121.106 16.1123ZM165.454 11.0936L170.906 10.6328C170.651 7.62156 168.004 5.38683 164.993 5.64136L165.454 11.0936ZM165.821 15.4375L166.282 20.8898C169.293 20.6352 171.528 17.9878 171.273 14.9766L165.821 15.4375ZM142.91 17.374L137.458 17.8349C137.713 20.8461 140.36 23.0808 143.371 22.8263L142.91 17.374ZM141.945 5.95381L141.484 0.501553C138.473 0.756077 136.238 3.40347 136.493 6.41466L141.945 5.95381ZM147.55 5.48004L153.002 5.01918C152.748 2.00799 150.101 -0.226739 147.089 0.027785L147.55 5.48004ZM148.148 12.5564L142.696 13.0172C142.951 16.0284 145.598 18.2631 148.609 18.0086L148.148 12.5564ZM169.252 18.0406L174.704 17.5798C174.449 14.5686 171.802 12.3338 168.791 12.5884L169.252 18.0406ZM169.619 22.3845L170.08 27.8368C173.091 27.5822 175.326 24.9348 175.071 21.9236L169.619 22.3845ZM140.052 24.8836L134.6 25.3445C134.855 28.3557 137.502 30.5904 140.513 30.3359L140.052 24.8836ZM139.685 20.5397L139.224 15.0875C136.213 15.342 133.978 17.9894 134.233 21.0006L139.685 20.5397ZM167.275 30.1329L172.727 29.672C172.472 26.6608 169.825 24.4261 166.814 24.6806L167.275 30.1329ZM167.654 34.6169L168.115 40.0692C171.126 39.8146 173.361 37.1672 173.106 34.156L167.654 34.6169ZM144.148 36.6038L138.696 37.0646C138.95 40.0758 141.597 42.3105 144.609 42.056L144.148 36.6038ZM143.325 26.8651L142.864 21.4128C139.853 21.6673 137.618 24.3147 137.872 27.3259L143.325 26.8651ZM149 26.3854L154.452 25.9245C154.197 22.9133 151.55 20.6786 148.539 20.9331L149 26.3854ZM149.444 31.6401L143.992 32.1009C144.246 35.1121 146.893 37.3468 149.905 37.0923L149.444 31.6401ZM165.454 11.0936L160.002 11.5545L160.369 15.8984L165.821 15.4375L171.273 14.9766L170.906 10.6328L165.454 11.0936ZM165.821 15.4375L165.36 9.98524L142.45 11.9218L142.91 17.374L143.371 22.8263L166.282 20.8898L165.821 15.4375ZM142.91 17.374L148.363 16.9132L147.397 5.49295L141.945 5.95381L136.493 6.41466L137.458 17.8349L142.91 17.374ZM141.945 5.95381L142.406 11.4061L148.011 10.9323L147.55 5.48004L147.089 0.027785L141.484 0.501553L141.945 5.95381ZM147.55 5.48004L142.098 5.9409L142.696 13.0172L148.148 12.5564L153.601 12.0955L153.002 5.01918L147.55 5.48004ZM148.148 12.5564L148.609 18.0086L165.915 16.5459L165.454 11.0936L164.993 5.64136L147.687 7.10411L148.148 12.5564ZM169.252 18.0406L163.799 18.5015L164.167 22.8454L169.619 22.3845L175.071 21.9236L174.704 17.5798L169.252 18.0406ZM169.619 22.3845L169.158 16.9322L139.591 19.4314L140.052 24.8836L140.513 30.3359L170.08 27.8368L169.619 22.3845ZM140.052 24.8836L145.505 24.4228L145.137 20.0789L139.685 20.5397L134.233 21.0006L134.6 25.3445L140.052 24.8836ZM139.685 20.5397L140.146 25.992L169.712 23.4929L169.252 18.0406L168.791 12.5884L139.224 15.0875L139.685 20.5397ZM167.275 30.1329L161.823 30.5937L162.202 35.0778L167.654 34.6169L173.106 34.156L172.727 29.672L167.275 30.1329ZM167.654 34.6169L167.193 29.1646L143.687 31.1515L144.148 36.6038L144.609 42.056L168.115 40.0692L167.654 34.6169ZM144.148 36.6038L149.6 36.1429L148.777 26.4042L143.325 26.8651L137.872 27.3259L138.696 37.0646L144.148 36.6038ZM143.325 26.8651L143.785 32.3173L149.461 31.8376L149 26.3854L148.539 20.9331L142.864 21.4128L143.325 26.8651ZM149 26.3854L143.547 26.8462L143.992 32.1009L149.444 31.6401L154.896 31.1792L154.452 25.9245L149 26.3854ZM149.444 31.6401L149.905 37.0923L167.736 35.5851L167.275 30.1329L166.814 24.6806L148.983 26.1878L149.444 31.6401Z" fill="white" mask="url(#path-1-outside-1_4157_1392)"/>
</g>
<defs>
<filter id="filter0_d_4157_1392" x="4.14848e-05" y="0" width="177.279" height="56.5917" filterUnits="userSpaceOnUse" color-interpolation-filters="sRGB">
<feFlood flood-opacity="0" result="BackgroundImageFix"/>
<feColorMatrix in="SourceAlpha" type="matrix" values="0 0 0 0 0 0 0 0 0 0 0 0 0 0 0 0 0 0 127 0" result="hardAlpha"/>
<feOffset dy="2.18868"/>
<feGaussianBlur stdDeviation="1.09434"/>
<feComposite in2="hardAlpha" operator="out"/>
<feColorMatrix type="matrix" values="0 0 0 0 0 0 0 0 0 0 0 0 0 0 0 0 0 0 0.07 0"/>
<feBlend mode="normal" in2="BackgroundImageFix" result="effect1_dropShadow_4157_1392"/>
<feBlend mode="normal" in="SourceGraphic" in2="effect1_dropShadow_4157_1392" result="shape"/>
</filter>
</defs>
</svg>
