<svg width="503" height="68" viewBox="0 0 503 68" fill="none" xmlns="http://www.w3.org/2000/svg">
<g filter="url(#filter0_d_3990_1393)">
<mask id="path-1-outside-1_3990_1393" maskUnits="userSpaceOnUse" x="3.65631" y="-0.507813" width="496" height="61" fill="black">
<rect fill="white" x="3.65631" y="-0.507813" width="496" height="61"/>
<path d="M35.0547 13.6094C35.0118 26.3281 32.2188 36.4258 17.7383 44.1172L14.0001 38.918C19.6505 35.8672 23.1954 32.709 25.3868 28.9062L15.1172 29.8516L14.3008 24.0938L27.4922 23.4062C27.8145 22.0527 28.0294 20.6133 28.1797 19.0664H16.4922V13.6094H35.0547ZM48.3751 10V49.7461H41.5001V30.4531H35.0118V24.8672H41.5001V10L48.3751 10ZM88.8516 31.6562V37.1133H81.3321V49.7461H74.4571V37.1133H67.3243V49.7461H60.4063V37.1133H52.586V31.6562H88.8516ZM84.7696 11.7617V28.1328L56.5821 28.1328V11.7617H84.7696ZM63.3282 17.1758V22.5898L77.8946 22.5898V17.1758L63.3282 17.1758ZM124.43 10V49.7461H117.555V10H124.43ZM99.293 13.7383V34.3633C104.234 34.2559 109.627 33.7617 114.934 32.7734L115.793 38.4023C108.875 39.8633 102.129 40.25 96.1563 40.25H92.461V13.7383H99.293ZM146.43 14.3398C146.408 18.0566 146.15 21.4941 145.484 24.6523H148.406V10.8164H154.809V48.1562H148.406V30.1094H143.68C141.531 34.707 137.965 38.6816 132.078 42.0977L128.254 37.457C132.615 34.8145 135.43 32.043 137.234 28.7773L129.371 29.5938L128.641 23.793L139.168 23.3633C139.404 22.2246 139.576 21.043 139.684 19.7969H130.617V14.3398H146.43ZM163.316 10V49.7461H156.871V10H163.316ZM200.227 10V49.875H193.266V10H200.227ZM178.398 12.6641C184.457 12.6211 189.012 18.207 189.012 26.9727C189.012 35.8672 184.457 41.4102 178.398 41.4102C172.211 41.4102 167.613 35.8672 167.613 26.9727C167.613 18.207 172.211 12.6211 178.398 12.6641ZM178.398 18.8945C175.863 18.8516 174.273 21.4727 174.273 26.9727C174.273 32.5586 175.863 35.0937 178.398 35.0937C180.762 35.0937 182.395 32.5586 182.395 26.9727C182.395 21.4727 180.762 18.8516 178.398 18.8945ZM220.379 16.5742C220.379 21.8594 222.313 27.2734 228.93 29.6367L225.106 34.9648C221.109 33.4395 218.488 30.6465 216.941 27.1445C215.223 30.8613 212.387 33.7832 208.047 35.3516L204.309 29.9805C211.27 27.6172 213.375 22.1172 213.375 16.5742V12.3203H220.379V16.5742ZM238.512 10.0859V39.3906H231.637V27.6602H225.75V22.1602H231.637V20.2695H225.75V14.7695H231.637V10.0859L238.512 10.0859ZM239.328 43.6875V49.1875H211.57V36.7695H218.574V43.6875H239.328ZM284.574 19.2383V24.6953H256.645V10.5586H263.52V19.2383H284.574ZM288.656 27.3164V32.8594H252.305V27.3164H288.656ZM270.352 34.707C279.031 34.75 284.231 37.457 284.273 42.1836C284.231 46.9531 279.031 49.6602 270.352 49.6172C261.586 49.6602 256.301 46.9531 256.301 42.1836C256.301 37.457 261.586 34.75 270.352 34.707ZM270.352 40.0352C265.41 40.0352 263.305 40.5078 263.348 42.1836C263.305 43.7734 265.41 44.4609 270.352 44.4609C275.164 44.4609 277.356 43.7734 277.356 42.1836C277.356 40.5078 275.164 40.0352 270.352 40.0352ZM309.539 12.2773V25.4687H298.582V28.4766C303.566 28.4551 306.832 28.2402 310.441 27.5312L311.043 33.0312C306.574 33.8047 302.32 33.9336 294.887 33.9336H291.793V20.4414H302.621V17.6055H291.75V12.2773L309.539 12.2773ZM324.148 10.0859V34.5781H317.273V29.293H311.602V23.8789H317.273V20.7422H311.602V15.3281H317.273V10.0859H324.148ZM324.148 36.082V49.7461H317.273V41.5391H296.391V36.082H324.148ZM361.918 10V49.875H354.957V10H361.918ZM340.09 12.6641C346.148 12.6211 350.703 18.207 350.703 26.9727C350.703 35.8672 346.148 41.4102 340.09 41.4102C333.902 41.4102 329.305 35.8672 329.305 26.9727C329.305 18.207 333.902 12.6211 340.09 12.6641ZM340.09 18.8945C337.555 18.8516 335.965 21.4727 335.965 26.9727C335.965 32.5586 337.555 35.0937 340.09 35.0937C342.453 35.0937 344.086 32.5586 344.086 26.9727C344.086 21.4727 342.453 18.8516 340.09 18.8945ZM410.172 10.0859V49.7031H403.211V10.0859H410.172ZM375.926 30.5391C383.531 30.5391 393.113 30.668 401.707 29.5508L402.051 34.5352C398.828 35.1152 395.606 35.459 392.469 35.6953V48.543H385.508V35.9961C382.436 36.082 379.449 36.082 376.656 36.082L375.926 30.5391ZM400.977 22.2461V27.7031H389.934V12.5352H400.805V17.9922H396.68V22.2461H400.977ZM388.215 12.5352V17.9922H384.477V22.2461C385.787 22.1602 387.055 21.9883 388.516 21.6875L388.859 27.0586C385.852 27.6602 383.488 27.7031 379.793 27.7031H377.645V12.5352H388.215ZM425.125 12.6641C430.432 12.6211 434.471 16.8965 435.438 23.8359H441.066V10H447.898V49.875H441.066V29.3359H435.523C434.793 36.834 430.625 41.4102 425.125 41.4102C418.981 41.4102 414.555 35.8672 414.555 26.9727C414.555 18.207 418.981 12.6211 425.125 12.6641ZM425.125 18.8945C422.762 18.8516 421.129 21.4727 421.172 26.9727C421.129 32.5586 422.762 35.0937 425.125 35.0937C427.531 35.0937 429.078 32.5586 429.078 26.9727C429.078 21.4727 427.531 18.8516 425.125 18.8945ZM460.316 12.5352V26.7148C464.699 26.6289 469.469 26.2852 474.367 25.2539L475.141 30.8398C468.781 32.1289 462.508 32.4297 456.965 32.4297H453.398V12.5352H460.316ZM483.82 10.0859V20.8281H488.762V26.543H483.82V38.4883H476.902V10.0859H483.82ZM485.023 43.6875V49.1875H457.438V35.9531H464.398V43.6875H485.023Z"/>
</mask>
<path d="M35.0547 13.6094C35.0118 26.3281 32.2188 36.4258 17.7383 44.1172L14.0001 38.918C19.6505 35.8672 23.1954 32.709 25.3868 28.9062L15.1172 29.8516L14.3008 24.0938L27.4922 23.4062C27.8145 22.0527 28.0294 20.6133 28.1797 19.0664H16.4922V13.6094H35.0547ZM48.3751 10V49.7461H41.5001V30.4531H35.0118V24.8672H41.5001V10L48.3751 10ZM88.8516 31.6562V37.1133H81.3321V49.7461H74.4571V37.1133H67.3243V49.7461H60.4063V37.1133H52.586V31.6562H88.8516ZM84.7696 11.7617V28.1328L56.5821 28.1328V11.7617H84.7696ZM63.3282 17.1758V22.5898L77.8946 22.5898V17.1758L63.3282 17.1758ZM124.43 10V49.7461H117.555V10H124.43ZM99.293 13.7383V34.3633C104.234 34.2559 109.627 33.7617 114.934 32.7734L115.793 38.4023C108.875 39.8633 102.129 40.25 96.1563 40.25H92.461V13.7383H99.293ZM146.43 14.3398C146.408 18.0566 146.15 21.4941 145.484 24.6523H148.406V10.8164H154.809V48.1562H148.406V30.1094H143.68C141.531 34.707 137.965 38.6816 132.078 42.0977L128.254 37.457C132.615 34.8145 135.43 32.043 137.234 28.7773L129.371 29.5938L128.641 23.793L139.168 23.3633C139.404 22.2246 139.576 21.043 139.684 19.7969H130.617V14.3398H146.43ZM163.316 10V49.7461H156.871V10H163.316ZM200.227 10V49.875H193.266V10H200.227ZM178.398 12.6641C184.457 12.6211 189.012 18.207 189.012 26.9727C189.012 35.8672 184.457 41.4102 178.398 41.4102C172.211 41.4102 167.613 35.8672 167.613 26.9727C167.613 18.207 172.211 12.6211 178.398 12.6641ZM178.398 18.8945C175.863 18.8516 174.273 21.4727 174.273 26.9727C174.273 32.5586 175.863 35.0937 178.398 35.0937C180.762 35.0937 182.395 32.5586 182.395 26.9727C182.395 21.4727 180.762 18.8516 178.398 18.8945ZM220.379 16.5742C220.379 21.8594 222.313 27.2734 228.93 29.6367L225.106 34.9648C221.109 33.4395 218.488 30.6465 216.941 27.1445C215.223 30.8613 212.387 33.7832 208.047 35.3516L204.309 29.9805C211.27 27.6172 213.375 22.1172 213.375 16.5742V12.3203H220.379V16.5742ZM238.512 10.0859V39.3906H231.637V27.6602H225.75V22.1602H231.637V20.2695H225.75V14.7695H231.637V10.0859L238.512 10.0859ZM239.328 43.6875V49.1875H211.57V36.7695H218.574V43.6875H239.328ZM284.574 19.2383V24.6953H256.645V10.5586H263.52V19.2383H284.574ZM288.656 27.3164V32.8594H252.305V27.3164H288.656ZM270.352 34.707C279.031 34.75 284.231 37.457 284.273 42.1836C284.231 46.9531 279.031 49.6602 270.352 49.6172C261.586 49.6602 256.301 46.9531 256.301 42.1836C256.301 37.457 261.586 34.75 270.352 34.707ZM270.352 40.0352C265.41 40.0352 263.305 40.5078 263.348 42.1836C263.305 43.7734 265.41 44.4609 270.352 44.4609C275.164 44.4609 277.356 43.7734 277.356 42.1836C277.356 40.5078 275.164 40.0352 270.352 40.0352ZM309.539 12.2773V25.4687H298.582V28.4766C303.566 28.4551 306.832 28.2402 310.441 27.5312L311.043 33.0312C306.574 33.8047 302.32 33.9336 294.887 33.9336H291.793V20.4414H302.621V17.6055H291.75V12.2773L309.539 12.2773ZM324.148 10.0859V34.5781H317.273V29.293H311.602V23.8789H317.273V20.7422H311.602V15.3281H317.273V10.0859H324.148ZM324.148 36.082V49.7461H317.273V41.5391H296.391V36.082H324.148ZM361.918 10V49.875H354.957V10H361.918ZM340.09 12.6641C346.148 12.6211 350.703 18.207 350.703 26.9727C350.703 35.8672 346.148 41.4102 340.09 41.4102C333.902 41.4102 329.305 35.8672 329.305 26.9727C329.305 18.207 333.902 12.6211 340.09 12.6641ZM340.09 18.8945C337.555 18.8516 335.965 21.4727 335.965 26.9727C335.965 32.5586 337.555 35.0937 340.09 35.0937C342.453 35.0937 344.086 32.5586 344.086 26.9727C344.086 21.4727 342.453 18.8516 340.09 18.8945ZM410.172 10.0859V49.7031H403.211V10.0859H410.172ZM375.926 30.5391C383.531 30.5391 393.113 30.668 401.707 29.5508L402.051 34.5352C398.828 35.1152 395.606 35.459 392.469 35.6953V48.543H385.508V35.9961C382.436 36.082 379.449 36.082 376.656 36.082L375.926 30.5391ZM400.977 22.2461V27.7031H389.934V12.5352H400.805V17.9922H396.68V22.2461H400.977ZM388.215 12.5352V17.9922H384.477V22.2461C385.787 22.1602 387.055 21.9883 388.516 21.6875L388.859 27.0586C385.852 27.6602 383.488 27.7031 379.793 27.7031H377.645V12.5352H388.215ZM425.125 12.6641C430.432 12.6211 434.471 16.8965 435.438 23.8359H441.066V10H447.898V49.875H441.066V29.3359H435.523C434.793 36.834 430.625 41.4102 425.125 41.4102C418.981 41.4102 414.555 35.8672 414.555 26.9727C414.555 18.207 418.981 12.6211 425.125 12.6641ZM425.125 18.8945C422.762 18.8516 421.129 21.4727 421.172 26.9727C421.129 32.5586 422.762 35.0937 425.125 35.0937C427.531 35.0937 429.078 32.5586 429.078 26.9727C429.078 21.4727 427.531 18.8516 425.125 18.8945ZM460.316 12.5352V26.7148C464.699 26.6289 469.469 26.2852 474.367 25.2539L475.141 30.8398C468.781 32.1289 462.508 32.4297 456.965 32.4297H453.398V12.5352H460.316ZM483.82 10.0859V20.8281H488.762V26.543H483.82V38.4883H476.902V10.0859H483.82ZM485.023 43.6875V49.1875H457.438V35.9531H464.398V43.6875H485.023Z" fill="#11DCA9"/>
<path d="M35.0547 13.6094L45.0547 13.6432C45.0637 10.9852 44.0141 8.43294 42.1378 6.55026C40.2614 4.66759 37.7128 3.60937 35.0547 3.60937V13.6094ZM17.7383 44.1172L9.61918 49.9549C12.5394 54.0164 18.0115 55.2952 22.4293 52.9487L17.7383 44.1172ZM14.0001 38.918L9.24909 30.1186C6.71912 31.4846 4.89952 33.8735 4.25475 36.6754C3.60998 39.4774 4.20245 42.4213 5.8809 44.7557L14.0001 38.918ZM25.3868 28.9062L34.0511 33.8992C35.9163 30.6625 35.8219 26.6561 33.8063 23.5108C31.7908 20.3655 28.1901 18.6059 24.4702 18.9483L25.3868 28.9062ZM15.1172 29.8516L5.21628 31.2554C5.96485 36.5348 10.7241 40.2982 16.0339 39.8095L15.1172 29.8516ZM14.3008 24.0938L13.7804 14.1073C10.9778 14.2534 8.36566 15.5703 6.58162 17.7366C4.79759 19.9029 4.0059 22.7191 4.39988 25.4976L14.3008 24.0938ZM27.4922 23.4062L28.0127 33.3927C32.4437 33.1618 36.1926 30.0388 37.2203 25.7225L27.4922 23.4062ZM28.1797 19.0664L38.1328 20.0341C38.4057 17.2268 37.4805 14.4348 35.585 12.3462C33.6896 10.2575 31.0002 9.06641 28.1797 9.06641V19.0664ZM16.4922 19.0664H6.49225C6.49225 24.5893 10.9694 29.0664 16.4922 29.0664V19.0664ZM16.4922 13.6094V3.60938C10.9694 3.60938 6.49225 8.08653 6.49225 13.6094H16.4922ZM48.3751 10H58.3751C58.3751 4.47715 53.8979 0 48.3751 0V10ZM48.3751 49.7461V59.7461C53.8979 59.7461 58.3751 55.2689 58.3751 49.7461H48.3751ZM41.5001 49.7461H31.5001C31.5001 55.2689 35.9772 59.7461 41.5001 59.7461V49.7461ZM41.5001 30.4531H51.5001C51.5001 24.9303 47.0229 20.4531 41.5001 20.4531V30.4531ZM35.0118 30.4531H25.0118C25.0118 35.976 29.4889 40.4531 35.0118 40.4531V30.4531ZM35.0118 24.8672V14.8672C29.4889 14.8672 25.0118 19.3443 25.0118 24.8672H35.0118ZM41.5001 24.8672V34.8672C47.0229 34.8672 51.5001 30.39 51.5001 24.8672H41.5001ZM41.5001 10V0C35.9772 0 31.5001 4.47715 31.5001 10H41.5001ZM35.0547 13.6094L25.0548 13.5756C25.0353 19.3379 24.3665 23.2471 22.8493 26.3106C21.4426 29.1511 18.8291 32.2147 13.0474 35.2857L17.7383 44.1172L22.4293 52.9487C31.1281 48.3283 37.1513 42.4974 40.7719 35.1865C44.2821 28.0986 45.0312 20.5996 45.0547 13.6432L35.0547 13.6094ZM17.7383 44.1172L25.8575 38.2794L22.1192 33.0802L14.0001 38.918L5.8809 44.7557L9.61918 49.9549L17.7383 44.1172ZM14.0001 38.918L18.751 47.7173C25.3883 44.1337 30.6252 39.8441 34.0511 33.8992L25.3868 28.9062L16.7225 23.9133C15.7655 25.5739 13.9126 27.6007 9.24909 30.1186L14.0001 38.918ZM25.3868 28.9062L24.4702 18.9483L14.2006 19.8937L15.1172 29.8516L16.0339 39.8095L26.3034 38.8642L25.3868 28.9062ZM15.1172 29.8516L25.0182 28.4477L24.2018 22.6899L14.3008 24.0938L4.39988 25.4976L5.21628 31.2554L15.1172 29.8516ZM14.3008 24.0938L14.8213 34.0802L28.0127 33.3927L27.4922 23.4062L26.9718 13.4198L13.7804 14.1073L14.3008 24.0938ZM27.4922 23.4062L37.2203 25.7225C37.6781 23.7996 37.9528 21.8855 38.1328 20.0341L28.1797 19.0664L18.2267 18.0987C18.1059 19.3411 17.9509 20.3059 17.7642 21.09L27.4922 23.4062ZM28.1797 19.0664V9.06641H16.4922V19.0664V29.0664H28.1797V19.0664ZM16.4922 19.0664H26.4922V13.6094H16.4922H6.49225V19.0664H16.4922ZM16.4922 13.6094V23.6094H35.0547V13.6094V3.60937L16.4922 3.60938V13.6094ZM48.3751 10L38.3751 10V49.7461H48.3751H58.3751V10H48.3751ZM48.3751 49.7461V39.7461H41.5001V49.7461V59.7461H48.3751V49.7461ZM41.5001 49.7461H51.5001V30.4531H41.5001H31.5001V49.7461H41.5001ZM41.5001 30.4531V20.4531H35.0118V30.4531V40.4531H41.5001V30.4531ZM35.0118 30.4531H45.0118V24.8672H35.0118H25.0118V30.4531H35.0118ZM35.0118 24.8672V34.8672H41.5001V24.8672V14.8672H35.0118V24.8672ZM41.5001 24.8672H51.5001V10L41.5001 10H31.5001V24.8672H41.5001ZM41.5001 10V20H48.3751V10V0H41.5001V10ZM88.8516 31.6562H98.8516C98.8516 26.1334 94.3745 21.6562 88.8516 21.6562V31.6562ZM88.8516 37.1133V47.1133C94.3745 47.1133 98.8516 42.6361 98.8516 37.1133H88.8516ZM81.3321 37.1133V27.1133C75.8092 27.1133 71.3321 31.5904 71.3321 37.1133H81.3321ZM81.3321 49.7461V59.7461C86.8549 59.7461 91.3321 55.2689 91.3321 49.7461H81.3321ZM74.4571 49.7461H64.4571C64.4571 55.2689 68.9342 59.7461 74.4571 59.7461V49.7461ZM74.4571 37.1133H84.4571C84.4571 31.5904 79.9799 27.1133 74.4571 27.1133V37.1133ZM67.3243 37.1133V27.1133C61.8014 27.1133 57.3243 31.5904 57.3243 37.1133H67.3243ZM67.3243 49.7461V59.7461C72.8471 59.7461 77.3243 55.2689 77.3243 49.7461H67.3243ZM60.4063 49.7461H50.4063C50.4063 55.2689 54.8835 59.7461 60.4063 59.7461V49.7461ZM60.4063 37.1133H70.4063C70.4063 31.5904 65.9292 27.1133 60.4063 27.1133V37.1133ZM52.586 37.1133H42.586C42.586 42.6361 47.0632 47.1133 52.586 47.1133V37.1133ZM52.586 31.6562V21.6562C47.0632 21.6562 42.586 26.1334 42.586 31.6562H52.586ZM84.7696 11.7617H94.7696C94.7696 6.23887 90.2924 1.76172 84.7696 1.76172V11.7617ZM84.7696 28.1328V38.1328C90.2924 38.1328 94.7696 33.6557 94.7696 28.1328H84.7696ZM56.5821 28.1328H46.5821C46.5821 33.6557 51.0592 38.1328 56.5821 38.1328V28.1328ZM56.5821 11.7617V1.76172C51.0592 1.76172 46.5821 6.23887 46.5821 11.7617H56.5821ZM63.3282 17.1758V7.17578C57.8053 7.17578 53.3282 11.6529 53.3282 17.1758H63.3282ZM63.3282 22.5898H53.3282C53.3282 28.1127 57.8053 32.5898 63.3282 32.5898V22.5898ZM77.8946 22.5898V32.5898C83.4174 32.5898 87.8946 28.1127 87.8946 22.5898H77.8946ZM77.8946 17.1758H87.8946C87.8946 11.6529 83.4174 7.17578 77.8946 7.17578V17.1758ZM88.8516 31.6562H78.8516V37.1133H88.8516H98.8516V31.6562H88.8516ZM88.8516 37.1133V27.1133H81.3321V37.1133V47.1133H88.8516V37.1133ZM81.3321 37.1133H71.3321V49.7461H81.3321H91.3321V37.1133H81.3321ZM81.3321 49.7461V39.7461H74.4571V49.7461V59.7461H81.3321V49.7461ZM74.4571 49.7461H84.4571V37.1133H74.4571H64.4571V49.7461H74.4571ZM74.4571 37.1133V27.1133H67.3243V37.1133V47.1133H74.4571V37.1133ZM67.3243 37.1133H57.3243V49.7461H67.3243H77.3243V37.1133H67.3243ZM67.3243 49.7461V39.7461H60.4063V49.7461V59.7461H67.3243V49.7461ZM60.4063 49.7461H70.4063V37.1133H60.4063H50.4063V49.7461H60.4063ZM60.4063 37.1133V27.1133H52.586V37.1133V47.1133H60.4063V37.1133ZM52.586 37.1133H62.586V31.6562H52.586H42.586V37.1133H52.586ZM52.586 31.6562V41.6562H88.8516V31.6562V21.6562L52.586 21.6562V31.6562ZM84.7696 11.7617H74.7696V28.1328L84.7696 28.1328H94.7696V11.7617H84.7696ZM84.7696 28.1328V18.1328L56.5821 18.1328V28.1328V38.1328H84.7696V28.1328ZM56.5821 28.1328H66.5821V11.7617H56.5821H46.5821V28.1328H56.5821ZM56.5821 11.7617V21.7617L84.7696 21.7617V11.7617V1.76172L56.5821 1.76172V11.7617ZM63.3282 17.1758H53.3282V22.5898H63.3282H73.3282V17.1758H63.3282ZM63.3282 22.5898V32.5898H77.8946V22.5898V12.5898L63.3282 12.5898V22.5898ZM77.8946 22.5898H87.8946V17.1758H77.8946L67.8946 17.1758V22.5898L77.8946 22.5898ZM77.8946 17.1758V7.17578H63.3282V17.1758V27.1758L77.8946 27.1758V17.1758ZM124.43 10H134.43C134.43 4.47715 129.953 0 124.43 0V10ZM124.43 49.7461V59.7461C129.953 59.7461 134.43 55.2689 134.43 49.7461H124.43ZM117.555 49.7461H107.555C107.555 55.2689 112.032 59.7461 117.555 59.7461V49.7461ZM117.555 10V0C112.032 0 107.555 4.47715 107.555 10L117.555 10ZM99.293 13.7383H109.293C109.293 8.21543 104.816 3.73828 99.293 3.73828V13.7383ZM99.293 34.3633H89.293C89.293 37.0531 90.3767 39.6296 92.2992 41.5108C94.2218 43.392 96.8212 44.4194 99.5104 44.3609L99.293 34.3633ZM114.934 32.7734L124.819 31.2642C124.41 28.5865 122.933 26.1892 120.724 24.6206C118.516 23.0521 115.766 22.4465 113.103 22.9425L114.934 32.7734ZM115.793 38.4023L117.859 48.1866C123.048 47.0908 126.479 42.1354 125.678 36.8931L115.793 38.4023ZM92.461 40.25H82.461C82.461 45.7728 86.9381 50.25 92.461 50.25V40.25ZM92.461 13.7383V3.73828C86.9381 3.73828 82.461 8.21543 82.461 13.7383H92.461ZM124.43 10H114.43V49.7461H124.43H134.43V10H124.43ZM124.43 49.7461V39.7461H117.555V49.7461V59.7461H124.43V49.7461ZM117.555 49.7461H127.555V10H117.555L107.555 10V49.7461H117.555ZM117.555 10V20H124.43V10V0L117.555 0V10ZM99.293 13.7383H89.293V34.3633H99.293H109.293V13.7383H99.293ZM99.293 34.3633L99.5104 44.3609C104.936 44.243 110.872 43.7018 116.765 42.6044L114.934 32.7734L113.103 22.9425C108.382 23.8216 103.533 24.2687 99.0757 24.3656L99.293 34.3633ZM114.934 32.7734L105.048 34.2827L105.908 39.9116L115.793 38.4023L125.678 36.8931L124.819 31.2642L114.934 32.7734ZM115.793 38.4023L113.727 28.6181C107.721 29.8865 101.722 30.25 96.1563 30.25V40.25V50.25C102.536 50.25 110.029 49.8401 117.859 48.1866L115.793 38.4023ZM96.1563 40.25V30.25H92.461V40.25V50.25H96.1563V40.25ZM92.461 40.25H102.461V13.7383H92.461H82.461V40.25H92.461ZM92.461 13.7383V23.7383H99.293V13.7383V3.73828L92.461 3.73828V13.7383ZM146.43 14.3398L156.43 14.3976C156.445 11.7355 155.398 9.17712 153.521 7.28924C151.644 5.40136 149.092 4.33984 146.43 4.33984V14.3398ZM145.484 24.6523L135.7 22.5889C135.078 25.5382 135.819 28.6108 137.718 30.9518C139.617 33.2927 142.47 34.6523 145.484 34.6523V24.6523ZM148.406 24.6523V34.6523C153.929 34.6523 158.406 30.1752 158.406 24.6523H148.406ZM148.406 10.8164V0.816406C142.883 0.816406 138.406 5.29356 138.406 10.8164H148.406ZM154.809 10.8164H164.809C164.809 5.29356 160.331 0.816406 154.809 0.816406V10.8164ZM154.809 48.1562V58.1562C160.331 58.1562 164.809 53.6791 164.809 48.1562H154.809ZM148.406 48.1562L138.406 48.1562C138.406 53.6791 142.883 58.1562 148.406 58.1562V48.1562ZM148.406 30.1094H158.406C158.406 24.5865 153.929 20.1094 148.406 20.1094V30.1094ZM143.68 30.1094V20.1094C139.796 20.1094 136.264 22.3577 134.62 25.8759L143.68 30.1094ZM132.078 42.0977L124.361 48.4572C127.474 52.2347 132.864 53.2036 137.097 50.7469L132.078 42.0977ZM128.254 37.457L123.072 28.9045C120.589 30.4091 118.882 32.9186 118.395 35.781C117.909 38.6434 118.69 41.5759 120.537 43.8166L128.254 37.457ZM137.234 28.7773L145.987 33.6142C147.788 30.3544 147.629 26.3636 145.573 23.2579C143.518 20.1522 139.906 18.4462 136.202 18.8308L137.234 28.7773ZM129.371 29.5938L119.45 30.8431C120.129 36.2384 124.995 40.1019 130.404 39.5403L129.371 29.5938ZM128.641 23.793L128.233 13.8013C125.436 13.9154 122.816 15.1963 121.008 17.3327C119.199 19.4691 118.369 22.2655 118.719 25.0424L128.641 23.793ZM139.168 23.3633L139.576 33.355C144.159 33.1679 148.027 29.8867 148.959 25.3954L139.168 23.3633ZM139.684 19.7969L149.647 20.6558C149.887 17.8646 148.946 15.1006 147.052 13.0363C145.158 10.972 142.485 9.79687 139.684 9.79687V19.7969ZM130.617 19.7969H120.617C120.617 25.3197 125.094 29.7969 130.617 29.7969V19.7969ZM130.617 14.3398V4.33984C125.094 4.33984 120.617 8.817 120.617 14.3398H130.617ZM163.316 10H173.316C173.316 4.47715 168.839 0 163.316 0V10ZM163.316 49.7461V59.7461C168.839 59.7461 173.316 55.2689 173.316 49.7461H163.316ZM156.871 49.7461H146.871C146.871 55.2689 151.348 59.7461 156.871 59.7461V49.7461ZM156.871 10V0C151.348 0 146.871 4.47715 146.871 10H156.871ZM146.43 14.3398L136.43 14.282C136.411 17.6117 136.178 20.3217 135.7 22.5889L145.484 24.6523L155.269 26.7158C156.123 22.6666 156.406 18.5016 156.43 14.3976L146.43 14.3398ZM145.484 24.6523V34.6523H148.406V24.6523V14.6523H145.484V24.6523ZM148.406 24.6523H158.406V10.8164H148.406H138.406V24.6523H148.406ZM148.406 10.8164V20.8164H154.809V10.8164V0.816406H148.406V10.8164ZM154.809 10.8164H144.809V48.1562H154.809H164.809V10.8164H154.809ZM154.809 48.1562V38.1562H148.406V48.1562V58.1562H154.809V48.1562ZM148.406 48.1562H158.406V30.1094H148.406L138.406 30.1094V48.1562L148.406 48.1562ZM148.406 30.1094V20.1094H143.68V30.1094V40.1094H148.406V30.1094ZM143.68 30.1094L134.62 25.8759C133.444 28.3927 131.414 30.9215 127.059 33.4484L132.078 42.0977L137.097 50.7469C144.516 46.4418 149.619 41.0213 152.739 34.3429L143.68 30.1094ZM132.078 42.0977L139.795 35.7381L135.971 31.0975L128.254 37.457L120.537 43.8166L124.361 48.4572L132.078 42.0977ZM128.254 37.457L133.436 46.0096C138.855 42.7261 143.12 38.8011 145.987 33.6142L137.234 28.7773L128.482 23.9405C127.739 25.2848 126.375 26.9028 123.072 28.9045L128.254 37.457ZM137.234 28.7773L136.202 18.8308L128.338 19.6472L129.371 29.5938L130.404 39.5403L138.267 38.7239L137.234 28.7773ZM129.371 29.5938L139.293 28.3444L138.562 22.5436L128.641 23.793L118.719 25.0424L119.45 30.8431L129.371 29.5938ZM128.641 23.793L129.049 33.7846L139.576 33.355L139.168 23.3633L138.76 13.3716L128.233 13.8013L128.641 23.793ZM139.168 23.3633L148.959 25.3954C149.28 23.8498 149.507 22.2755 149.647 20.6558L139.684 19.7969L129.721 18.938C129.645 19.8104 129.529 20.5994 129.377 21.3311L139.168 23.3633ZM139.684 19.7969V9.79687H130.617V19.7969V29.7969H139.684V19.7969ZM130.617 19.7969H140.617V14.3398H130.617H120.617V19.7969H130.617ZM130.617 14.3398V24.3398H146.43V14.3398V4.33984H130.617V14.3398ZM163.316 10H153.316V49.7461H163.316H173.316V10H163.316ZM163.316 49.7461V39.7461H156.871V49.7461V59.7461H163.316V49.7461ZM156.871 49.7461H166.871V10H156.871H146.871V49.7461H156.871ZM156.871 10V20H163.316V10V0H156.871V10ZM200.227 10H210.227C210.227 4.47715 205.749 0 200.227 0V10ZM200.227 49.875V59.875C205.749 59.875 210.227 55.3978 210.227 49.875H200.227ZM193.266 49.875H183.266C183.266 55.3978 187.743 59.875 193.266 59.875V49.875ZM193.266 10V0C187.743 0 183.266 4.47715 183.266 10H193.266ZM178.398 12.6641L178.329 22.6638C178.376 22.6641 178.423 22.6641 178.469 22.6638L178.398 12.6641ZM178.398 18.8945L178.229 28.8931C178.346 28.8951 178.463 28.895 178.58 28.8929L178.398 18.8945ZM200.227 10H190.227V49.875H200.227H210.227V10H200.227ZM200.227 49.875V39.875H193.266V49.875V59.875H200.227V49.875ZM193.266 49.875H203.266V10H193.266H183.266V49.875H193.266ZM193.266 10V20H200.227V10V0L193.266 0V10ZM178.398 12.6641L178.469 22.6638C178.402 22.6643 178.232 22.6406 178.057 22.5508C177.895 22.4681 177.904 22.4198 178.025 22.5782C178.295 22.9327 179.012 24.2334 179.012 26.9727H189.012H199.012C199.012 20.9463 197.451 15.0712 193.929 10.4521C190.282 5.66819 184.749 2.61877 178.328 2.66431L178.398 12.6641ZM189.012 26.9727H179.012C179.012 29.8028 178.282 31.1249 178.012 31.4804C177.892 31.6391 177.88 31.594 178.035 31.5147C178.2 31.4293 178.353 31.4102 178.398 31.4102V41.4102V51.4102C184.772 51.4102 190.291 48.3834 193.942 43.5733C197.464 38.9337 199.012 33.0371 199.012 26.9727H189.012ZM178.398 41.4102V31.4102C178.377 31.4102 178.482 31.4135 178.619 31.483C178.747 31.5479 178.729 31.5815 178.609 31.4265C178.344 31.0816 177.613 29.7839 177.613 26.9727H167.613H157.613C157.613 33.056 159.182 38.977 162.762 43.6273C166.475 48.4498 172.036 51.4102 178.398 51.4102V41.4102ZM167.613 26.9727H177.613C177.613 24.2526 178.33 22.9762 178.597 22.632C178.716 22.4774 178.733 22.5139 178.597 22.5822C178.537 22.6127 178.47 22.6363 178.408 22.6507C178.346 22.6649 178.316 22.6637 178.329 22.6638L178.398 12.6641L178.468 2.6643C172.059 2.6198 166.484 5.60151 162.775 10.3982C159.195 15.0277 157.613 20.9271 157.613 26.9727H167.613ZM178.398 18.8945L178.568 8.89597C172.936 8.80052 168.738 12.0746 166.565 16.1436C164.724 19.59 164.273 23.5385 164.273 26.9727H174.273H184.273C184.273 26.0559 184.342 25.4897 184.394 25.2055C184.451 24.8993 184.457 25.0966 184.206 25.5664C183.94 26.0649 183.313 26.9904 182.099 27.7722C180.821 28.5955 179.425 28.9134 178.229 28.8931L178.398 18.8945ZM174.273 26.9727H164.273C164.273 30.4271 164.717 34.3944 166.573 37.8541C168.787 41.9836 172.962 45.0937 178.398 45.0937V35.0937V25.0937C179.509 25.0937 180.844 25.3965 182.091 26.1982C183.288 26.9673 183.92 27.8831 184.198 28.4018C184.457 28.8846 184.453 29.0928 184.396 28.7849C184.343 28.4977 184.273 27.9194 184.273 26.9727H174.273ZM178.398 35.0937V45.0937C183.998 45.0937 188.049 41.7294 190.125 37.7986C191.924 34.3926 192.395 30.4806 192.395 26.9727H182.395H172.395C172.395 27.9039 172.325 28.4806 172.271 28.7724C172.213 29.0842 172.203 28.9062 172.441 28.4572C172.689 27.9865 173.285 27.0851 174.457 26.3005C175.697 25.4703 177.106 25.0937 178.398 25.0937V35.0937ZM182.395 26.9727H192.395C192.395 23.4853 191.917 19.5914 190.133 16.199C188.102 12.3393 184.023 8.79061 178.217 8.89618L178.398 18.8945L178.58 28.8929C177.194 28.9181 175.719 28.5217 174.449 27.6697C173.26 26.8723 172.67 25.9614 172.433 25.511C172.203 25.075 172.214 24.9078 172.272 25.218C172.326 25.507 172.395 26.0715 172.395 26.9727H182.395ZM228.93 29.6367L237.054 35.4677C238.885 32.9167 239.411 29.6539 238.475 26.6565C237.54 23.6592 235.25 21.2754 232.293 20.2193L228.93 29.6367ZM225.106 34.9648L221.539 44.3073C225.781 45.9266 230.582 44.4846 233.23 40.7958L225.106 34.9648ZM216.941 27.1445L226.089 23.104C224.501 19.51 220.956 17.1787 217.027 17.1449C213.099 17.1111 209.514 19.3811 207.865 22.9473L216.941 27.1445ZM208.047 35.3516L199.839 41.0641C202.426 44.7807 207.187 46.2952 211.446 44.7563L208.047 35.3516ZM204.309 29.9805L201.094 20.5113C198.118 21.5215 195.791 23.8714 194.809 26.8563C193.828 29.8413 194.306 33.114 196.101 35.693L204.309 29.9805ZM213.375 12.3203V2.32031C207.852 2.32031 203.375 6.79747 203.375 12.3203H213.375ZM220.379 12.3203H230.379C230.379 6.79747 225.902 2.32031 220.379 2.32031V12.3203ZM238.512 10.0859H248.512C248.512 4.56309 244.035 0.0859375 238.512 0.0859375V10.0859ZM238.512 39.3906V49.3906C244.035 49.3906 248.512 44.9135 248.512 39.3906H238.512ZM231.637 39.3906H221.637C221.637 44.9135 226.114 49.3906 231.637 49.3906V39.3906ZM231.637 27.6602H241.637C241.637 22.1373 237.16 17.6602 231.637 17.6602V27.6602ZM225.75 27.6602H215.75C215.75 33.183 220.227 37.6602 225.75 37.6602V27.6602ZM225.75 22.1602V12.1602C220.227 12.1602 215.75 16.6373 215.75 22.1602H225.75ZM231.637 22.1602V32.1602C237.16 32.1602 241.637 27.683 241.637 22.1602H231.637ZM231.637 20.2695H241.637C241.637 14.7467 237.16 10.2695 231.637 10.2695V20.2695ZM225.75 20.2695H215.75C215.75 25.7924 220.227 30.2695 225.75 30.2695V20.2695ZM225.75 14.7695V4.76953C220.227 4.76953 215.75 9.24668 215.75 14.7695H225.75ZM231.637 14.7695V24.7695C237.16 24.7695 241.637 20.2924 241.637 14.7695H231.637ZM231.637 10.0859V0.0859375C226.114 0.0859375 221.637 4.56309 221.637 10.0859H231.637ZM239.328 43.6875H249.328C249.328 38.1647 244.851 33.6875 239.328 33.6875V43.6875ZM239.328 49.1875V59.1875C244.851 59.1875 249.328 54.7103 249.328 49.1875H239.328ZM211.57 49.1875H201.57C201.57 54.7103 206.048 59.1875 211.57 59.1875V49.1875ZM211.57 36.7695V26.7695C206.048 26.7695 201.57 31.2467 201.57 36.7695H211.57ZM218.574 36.7695H228.574C228.574 31.2467 224.097 26.7695 218.574 26.7695V36.7695ZM218.574 43.6875H208.574C208.574 49.2103 213.051 53.6875 218.574 53.6875V43.6875ZM220.379 16.5742H210.379C210.379 20.3456 211.057 24.8738 213.476 29.1364C216.013 33.6078 220.084 37.0963 225.566 39.0541L228.93 29.6367L232.293 20.2193C231.648 19.9889 231.329 19.7632 231.187 19.646C231.05 19.5319 230.956 19.4178 230.87 19.2659C230.668 18.9094 230.379 18.088 230.379 16.5742H220.379ZM228.93 29.6367L220.806 23.8058L216.981 29.1339L225.106 34.9648L233.23 40.7958L237.054 35.4677L228.93 29.6367ZM225.106 34.9648L228.672 25.6224C227.402 25.1376 226.662 24.4024 226.089 23.104L216.941 27.1445L207.794 31.1851C210.314 36.8906 214.817 41.7414 221.539 44.3073L225.106 34.9648ZM216.941 27.1445L207.865 22.9473C207.163 24.4653 206.251 25.3675 204.648 25.9468L208.047 35.3516L211.446 44.7563C218.522 42.1989 223.282 37.2573 226.018 31.3418L216.941 27.1445ZM208.047 35.3516L216.255 29.639L212.516 24.2679L204.309 29.9805L196.101 35.693L199.839 41.0641L208.047 35.3516ZM204.309 29.9805L207.523 39.4496C213.121 37.5494 217.372 34.1092 220.061 29.557C222.635 25.2024 223.375 20.5273 223.375 16.5742H213.375L203.375 16.5742C203.375 18.1641 203.063 19.0105 202.843 19.3824C202.746 19.5469 202.629 19.6895 202.441 19.8386C202.247 19.993 201.849 20.255 201.094 20.5113L204.309 29.9805ZM213.375 16.5742H223.375V12.3203H213.375H203.375V16.5742L213.375 16.5742ZM213.375 12.3203V22.3203H220.379V12.3203V2.32031H213.375V12.3203ZM220.379 12.3203H210.379V16.5742H220.379H230.379V12.3203H220.379ZM238.512 10.0859L228.512 10.0859V39.3906H238.512H248.512V10.0859H238.512ZM238.512 39.3906V29.3906H231.637V39.3906V49.3906H238.512V39.3906ZM231.637 39.3906H241.637V27.6602H231.637H221.637V39.3906H231.637ZM231.637 27.6602V17.6602H225.75V27.6602V37.6602H231.637V27.6602ZM225.75 27.6602H235.75V22.1602H225.75H215.75V27.6602H225.75ZM225.75 22.1602V32.1602H231.637V22.1602V12.1602H225.75V22.1602ZM231.637 22.1602H241.637V20.2695H231.637H221.637V22.1602H231.637ZM231.637 20.2695V10.2695H225.75V20.2695V30.2695H231.637V20.2695ZM225.75 20.2695H235.75V14.7695H225.75H215.75V20.2695H225.75ZM225.75 14.7695V24.7695H231.637V14.7695V4.76953H225.75V14.7695ZM231.637 14.7695H241.637V10.0859L231.637 10.0859H221.637V14.7695H231.637ZM231.637 10.0859V20.0859H238.512V10.0859V0.0859375H231.637V10.0859ZM239.328 43.6875H229.328V49.1875H239.328H249.328V43.6875H239.328ZM239.328 49.1875V39.1875H211.57V49.1875V59.1875H239.328V49.1875ZM211.57 49.1875H221.57V36.7695H211.57H201.57V49.1875H211.57ZM211.57 36.7695V46.7695H218.574V36.7695V26.7695H211.57V36.7695ZM218.574 36.7695H208.574V43.6875H218.574H228.574V36.7695H218.574ZM218.574 43.6875V53.6875H239.328V43.6875V33.6875H218.574V43.6875ZM284.574 19.2383H294.574C294.574 13.7154 290.097 9.23828 284.574 9.23828V19.2383ZM284.574 24.6953V34.6953C290.097 34.6953 294.574 30.2182 294.574 24.6953H284.574ZM256.645 24.6953H246.645C246.645 30.2182 251.122 34.6953 256.645 34.6953V24.6953ZM256.645 10.5586V0.558594C251.122 0.558594 246.645 5.03575 246.645 10.5586H256.645ZM263.52 10.5586H273.52C273.52 5.03575 269.042 0.558594 263.52 0.558594V10.5586ZM263.52 19.2383H253.52C253.52 24.7611 257.997 29.2383 263.52 29.2383V19.2383ZM288.656 27.3164H298.656C298.656 21.7936 294.179 17.3164 288.656 17.3164V27.3164ZM288.656 32.8594V42.8594C294.179 42.8594 298.656 38.3822 298.656 32.8594H288.656ZM252.305 32.8594H242.305C242.305 38.3822 246.782 42.8594 252.305 42.8594V32.8594ZM252.305 27.3164V17.3164C246.782 17.3164 242.305 21.7936 242.305 27.3164H252.305ZM270.352 34.707L270.401 24.7072C270.368 24.707 270.335 24.707 270.303 24.7072L270.352 34.707ZM284.273 42.1836L294.273 42.2737C294.274 42.2134 294.274 42.153 294.273 42.0927L284.273 42.1836ZM270.352 49.6172L270.401 39.6173C270.368 39.6171 270.335 39.6171 270.303 39.6173L270.352 49.6172ZM263.348 42.1836L273.344 42.4538C273.349 42.2783 273.349 42.1027 273.344 41.9273L263.348 42.1836ZM284.574 19.2383H274.574V24.6953H284.574H294.574V19.2383H284.574ZM284.574 24.6953V14.6953H256.645V24.6953V34.6953H284.574V24.6953ZM256.645 24.6953H266.645V10.5586H256.645H246.645V24.6953H256.645ZM256.645 10.5586V20.5586H263.52V10.5586V0.558594H256.645V10.5586ZM263.52 10.5586H253.52V19.2383H263.52H273.52V10.5586H263.52ZM263.52 19.2383V29.2383H284.574V19.2383V9.23828H263.52V19.2383ZM288.656 27.3164H278.656V32.8594H288.656H298.656V27.3164H288.656ZM288.656 32.8594V22.8594H252.305V32.8594V42.8594H288.656V32.8594ZM252.305 32.8594H262.305V27.3164H252.305H242.305V32.8594H252.305ZM252.305 27.3164V37.3164H288.656V27.3164V17.3164H252.305V27.3164ZM270.352 34.707L270.302 44.7069C271.977 44.7152 273.289 44.8526 274.266 45.0433C275.262 45.2379 275.736 45.454 275.851 45.5152C275.952 45.5693 275.519 45.3635 275.048 44.6755C274.525 43.9111 274.281 43.0217 274.274 42.2745L284.273 42.1836L294.273 42.0927C294.211 35.2545 290.088 30.4384 285.252 27.8627C280.844 25.5151 275.536 24.7326 270.401 24.7072L270.352 34.707ZM284.273 42.1836L274.274 42.0935C274.28 41.3773 274.514 40.5007 275.035 39.7348C275.507 39.0414 275.949 38.8268 275.866 38.8706C275.768 38.9226 275.311 39.1326 274.329 39.3178C273.367 39.4994 272.066 39.6256 270.401 39.6173L270.352 49.6172L270.302 59.6171C275.455 59.6426 280.795 58.8953 285.237 56.5396C290.128 53.9453 294.212 49.0951 294.273 42.2737L284.273 42.1836ZM270.352 49.6172L270.303 39.6173C268.611 39.6256 267.282 39.4987 266.291 39.314C265.28 39.1255 264.799 38.9098 264.684 38.8491C264.581 38.795 265.03 39.0053 265.515 39.7143C266.056 40.5039 266.301 41.4209 266.301 42.1836H256.301H246.301C246.301 49.1241 250.499 53.9938 255.395 56.5611C259.851 58.8983 265.217 59.6425 270.401 59.6171L270.352 49.6172ZM256.301 42.1836H266.301C266.301 42.9778 266.044 43.908 265.502 44.696C265.018 45.3995 264.577 45.6012 264.699 45.5369C264.831 45.4672 265.329 45.2453 266.354 45.0473C267.358 44.8534 268.7 44.7152 270.401 44.7069L270.352 34.707L270.303 24.7072C265.137 24.7325 259.802 25.5116 255.379 27.8411C250.54 30.3895 246.301 35.2257 246.301 42.1836H256.301ZM270.352 40.0352V30.0352C267.947 30.0352 264.872 30.1063 262.215 30.8709C260.816 31.2735 258.502 32.1442 256.512 34.2185C254.199 36.6304 253.28 39.6523 253.351 42.4399L263.348 42.1836L273.344 41.9273C273.366 42.7806 273.256 43.8613 272.83 45.032C272.396 46.2251 271.727 47.2484 270.946 48.0634C269.493 49.5777 268.006 50.016 267.746 50.091C267.4 50.1905 267.378 50.1497 267.955 50.1041C268.479 50.0626 269.247 50.0352 270.352 50.0352V40.0352ZM263.348 42.1836L253.351 41.9134C253.273 44.8174 254.278 47.738 256.415 50.0297C258.279 52.0286 260.455 52.9618 261.886 53.4275C264.628 54.32 267.747 54.4609 270.352 54.4609V44.4609V34.4609C269.324 34.4609 268.619 34.4241 268.163 34.3785C267.663 34.3284 267.712 34.2913 268.075 34.4094C268.367 34.5045 269.716 34.9678 271.043 36.3906C272.643 38.1063 273.401 40.3447 273.344 42.4538L263.348 42.1836ZM270.352 44.4609V54.4609C272.926 54.4609 276.003 54.3143 278.727 53.436C280.14 52.9802 282.255 52.0827 284.1 50.1888C286.21 48.0234 287.356 45.1743 287.356 42.1836H277.356H267.356C267.356 39.9878 268.227 37.8208 269.776 36.2315C271.06 34.9136 272.326 34.4861 272.59 34.401C272.924 34.293 272.955 34.3303 272.469 34.3795C272.024 34.4246 271.34 34.4609 270.352 34.4609V44.4609ZM277.356 42.1836H287.356C287.356 39.2958 286.29 36.3458 284.001 34.0614C282.031 32.097 279.785 31.2589 278.4 30.864C275.756 30.1104 272.722 30.0352 270.352 30.0352V40.0352V50.0352C271.419 50.0352 272.166 50.0624 272.68 50.1034C273.242 50.1483 273.237 50.189 272.917 50.0979C272.681 50.0306 271.283 49.625 269.875 48.2205C269.116 47.4627 268.434 46.4904 267.967 45.3241C267.506 44.1716 267.356 43.0807 267.356 42.1836H277.356ZM309.539 12.2773H319.539C319.539 6.7545 315.062 2.27734 309.539 2.27734V12.2773ZM309.539 25.4687V35.4687C315.062 35.4687 319.539 30.9916 319.539 25.4687H309.539ZM298.582 25.4687V15.4687C293.059 15.4687 288.582 19.9459 288.582 25.4687H298.582ZM298.582 28.4766H288.582C288.582 31.1362 289.642 33.6863 291.526 35.5629C293.411 37.4394 295.966 38.4879 298.625 38.4765L298.582 28.4766ZM310.441 27.5312L320.382 26.444C320.078 23.6608 318.621 21.1327 316.365 19.4743C314.109 17.8159 311.261 17.1791 308.514 17.7188L310.441 27.5312ZM311.043 33.0312L312.748 42.8848C317.952 41.9842 321.558 37.1932 320.984 31.944L311.043 33.0312ZM291.793 33.9336H281.793C281.793 39.4564 286.27 43.9336 291.793 43.9336V33.9336ZM291.793 20.4414V10.4414C286.27 10.4414 281.793 14.9186 281.793 20.4414H291.793ZM302.621 20.4414V30.4414C308.144 30.4414 312.621 25.9643 312.621 20.4414H302.621ZM302.621 17.6055H312.621C312.621 12.0826 308.144 7.60547 302.621 7.60547V17.6055ZM291.75 17.6055H281.75C281.75 23.1283 286.227 27.6055 291.75 27.6055V17.6055ZM291.75 12.2773V2.27734C286.227 2.27734 281.75 6.7545 281.75 12.2773H291.75ZM324.148 10.0859H334.148C334.148 4.56309 329.671 0.0859375 324.148 0.0859375V10.0859ZM324.148 34.5781V44.5781C329.671 44.5781 334.148 40.101 334.148 34.5781H324.148ZM317.273 34.5781H307.273C307.273 40.101 311.751 44.5781 317.273 44.5781V34.5781ZM317.273 29.293H327.273C327.273 23.7701 322.796 19.293 317.273 19.293V29.293ZM311.602 29.293H301.602C301.602 34.8158 306.079 39.293 311.602 39.293V29.293ZM311.602 23.8789V13.8789C306.079 13.8789 301.602 18.3561 301.602 23.8789H311.602ZM317.273 23.8789V33.8789C322.796 33.8789 327.273 29.4018 327.273 23.8789H317.273ZM317.273 20.7422H327.273C327.273 15.2193 322.796 10.7422 317.273 10.7422V20.7422ZM311.602 20.7422H301.602C301.602 26.265 306.079 30.7422 311.602 30.7422V20.7422ZM311.602 15.3281V5.32812C306.079 5.32812 301.602 9.80528 301.602 15.3281H311.602ZM317.273 15.3281V25.3281C322.796 25.3281 327.273 20.851 327.273 15.3281H317.273ZM317.273 10.0859V0.0859375C311.751 0.0859375 307.273 4.56309 307.273 10.0859H317.273ZM324.148 36.082H334.148C334.148 30.5592 329.671 26.082 324.148 26.082V36.082ZM324.148 49.7461V59.7461C329.671 59.7461 334.148 55.2689 334.148 49.7461H324.148ZM317.273 49.7461H307.273C307.273 55.2689 311.751 59.7461 317.273 59.7461V49.7461ZM317.273 41.5391H327.273C327.273 36.0162 322.796 31.5391 317.273 31.5391V41.5391ZM296.391 41.5391H286.391C286.391 47.0619 290.868 51.5391 296.391 51.5391V41.5391ZM296.391 36.082V26.082C290.868 26.082 286.391 30.5592 286.391 36.082H296.391ZM309.539 12.2773L299.539 12.2773V25.4687H309.539H319.539V12.2773H309.539ZM309.539 25.4687V15.4687H298.582V25.4687V35.4687H309.539V25.4687ZM298.582 25.4687H288.582V28.4766H298.582H308.582V25.4687H298.582ZM298.582 28.4766L298.625 38.4765C303.904 38.4537 307.877 38.226 312.369 37.3437L310.441 27.5312L308.514 17.7188C305.787 18.2544 303.229 18.4564 298.539 18.4767L298.582 28.4766ZM310.441 27.5312L300.501 28.6185L301.102 34.1185L311.043 33.0312L320.984 31.944L320.382 26.444L310.441 27.5312ZM311.043 33.0312L309.338 23.1777C305.801 23.7898 302.316 23.9336 294.887 23.9336V33.9336V43.9336C302.324 43.9336 307.347 43.8195 312.748 42.8848L311.043 33.0312ZM294.887 33.9336V23.9336H291.793V33.9336V43.9336H294.887V33.9336ZM291.793 33.9336H301.793V20.4414H291.793H281.793V33.9336H291.793ZM291.793 20.4414V30.4414H302.621V20.4414V10.4414L291.793 10.4414V20.4414ZM302.621 20.4414H312.621V17.6055H302.621H292.621V20.4414H302.621ZM302.621 17.6055V7.60547L291.75 7.60547V17.6055V27.6055H302.621V17.6055ZM291.75 17.6055H301.75V12.2773L291.75 12.2773H281.75V17.6055H291.75ZM291.75 12.2773V22.2773H309.539V12.2773V2.27734H291.75V12.2773ZM324.148 10.0859H314.148V34.5781H324.148H334.148V10.0859H324.148ZM324.148 34.5781V24.5781H317.273V34.5781V44.5781H324.148V34.5781ZM317.273 34.5781H327.273V29.293H317.273H307.273V34.5781H317.273ZM317.273 29.293V19.293H311.602V29.293V39.293H317.273V29.293ZM311.602 29.293H321.602V23.8789H311.602H301.602V29.293H311.602ZM311.602 23.8789V33.8789H317.273V23.8789V13.8789H311.602V23.8789ZM317.273 23.8789H327.273V20.7422H317.273H307.273V23.8789H317.273ZM317.273 20.7422V10.7422H311.602V20.7422V30.7422H317.273V20.7422ZM311.602 20.7422H321.602V15.3281H311.602H301.602V20.7422H311.602ZM311.602 15.3281V25.3281H317.273V15.3281V5.32812H311.602V15.3281ZM317.273 15.3281H327.273V10.0859H317.273H307.273V15.3281H317.273ZM317.273 10.0859V20.0859H324.148V10.0859V0.0859375H317.273V10.0859ZM324.148 36.082H314.148V49.7461H324.148H334.148V36.082H324.148ZM324.148 49.7461V39.7461H317.273V49.7461V59.7461H324.148V49.7461ZM317.273 49.7461H327.273V41.5391H317.273H307.273V49.7461H317.273ZM317.273 41.5391V31.5391H296.391V41.5391V51.5391H317.273V41.5391ZM296.391 41.5391H306.391V36.082H296.391H286.391V41.5391H296.391ZM296.391 36.082V46.082H324.148V36.082V26.082H296.391V36.082ZM361.918 10L371.918 10C371.918 4.47715 367.441 0 361.918 0V10ZM361.918 49.875V59.875C367.441 59.875 371.918 55.3978 371.918 49.875H361.918ZM354.957 49.875H344.957C344.957 55.3978 349.434 59.875 354.957 59.875V49.875ZM354.957 10V0C349.434 0 344.957 4.47715 344.957 10H354.957ZM340.09 12.6641L340.02 22.6638C340.067 22.6641 340.114 22.6641 340.161 22.6638L340.09 12.6641ZM340.09 18.8945L339.92 28.8931C340.038 28.8951 340.155 28.895 340.272 28.8929L340.09 18.8945ZM361.918 10H351.918V49.875H361.918H371.918V10L361.918 10ZM361.918 49.875V39.875H354.957V49.875V59.875H361.918V49.875ZM354.957 49.875H364.957V10H354.957H344.957V49.875H354.957ZM354.957 10V20H361.918V10V0L354.957 0V10ZM340.09 12.6641L340.161 22.6638C340.093 22.6643 339.924 22.6406 339.748 22.5508C339.586 22.4681 339.595 22.4198 339.716 22.5782C339.987 22.9327 340.703 24.2334 340.703 26.9727H350.703H360.703C360.703 20.9463 359.143 15.0712 355.621 10.4521C351.974 5.66819 346.441 2.61877 340.019 2.66431L340.09 12.6641ZM350.703 26.9727H340.703C340.703 29.8028 339.973 31.1249 339.704 31.4804C339.583 31.6391 339.572 31.594 339.726 31.5147C339.892 31.4293 340.045 31.4102 340.09 31.4102V41.4102V51.4102C346.463 51.4102 351.982 48.3834 355.633 43.5733C359.156 38.9337 360.703 33.0371 360.703 26.9727H350.703ZM340.09 41.4102V31.4102C340.068 31.4102 340.173 31.4135 340.311 31.483C340.439 31.5479 340.42 31.5815 340.301 31.4265C340.035 31.0816 339.305 29.7839 339.305 26.9727L329.305 26.9727H319.305C319.305 33.056 320.873 38.977 324.453 43.6273C328.166 48.4498 333.728 51.4102 340.09 51.4102V41.4102ZM329.305 26.9727L339.305 26.9727C339.305 24.2526 340.022 22.9762 340.288 22.632C340.408 22.4774 340.424 22.5139 340.289 22.5822C340.228 22.6127 340.162 22.6363 340.1 22.6507C340.038 22.6649 340.007 22.6637 340.02 22.6638L340.09 12.6641L340.159 2.6643C333.75 2.6198 328.175 5.60151 324.466 10.3982C320.886 15.0277 319.305 20.9271 319.305 26.9727H329.305ZM340.09 18.8945L340.259 8.89597C334.628 8.80052 330.43 12.0746 328.256 16.1436C326.415 19.59 325.965 23.5385 325.965 26.9727L335.965 26.9727H345.965C345.965 26.0559 346.033 25.4897 346.086 25.2055C346.142 24.8993 346.148 25.0966 345.897 25.5664C345.631 26.0649 345.005 26.9904 343.791 27.7722C342.513 28.5955 341.116 28.9134 339.92 28.8931L340.09 18.8945ZM335.965 26.9727L325.965 26.9727C325.965 30.4271 326.409 34.3944 328.264 37.8541C330.479 41.9836 334.654 45.0937 340.09 45.0937V35.0937V25.0937C341.2 25.0937 342.536 25.3965 343.783 26.1982C344.979 26.9673 345.611 27.8831 345.889 28.4018C346.148 28.8846 346.144 29.0928 346.087 28.7849C346.034 28.4977 345.965 27.9194 345.965 26.9727H335.965ZM340.09 35.0937V45.0937C345.689 45.0937 349.74 41.7294 351.816 37.7986C353.616 34.3926 354.086 30.4806 354.086 26.9727H344.086H334.086C334.086 27.9039 334.016 28.4806 333.962 28.7724C333.904 29.0842 333.895 28.9062 334.132 28.4572C334.381 27.9865 334.976 27.0851 336.148 26.3005C337.388 25.4703 338.798 25.0937 340.09 25.0937V35.0937ZM344.086 26.9727H354.086C354.086 23.4853 353.609 19.5914 351.824 16.199C349.794 12.3393 345.715 8.79061 339.908 8.89618L340.09 18.8945L340.272 28.8929C338.886 28.9181 337.411 28.5217 336.14 27.6697C334.952 26.8723 334.361 25.9614 334.124 25.511C333.895 25.075 333.906 24.9078 333.964 25.218C334.017 25.507 334.086 26.0715 334.086 26.9727H344.086ZM410.172 10.0859H420.172C420.172 4.56309 415.695 0.0859375 410.172 0.0859375V10.0859ZM410.172 49.7031V59.7031C415.695 59.7031 420.172 55.226 420.172 49.7031H410.172ZM403.211 49.7031L393.211 49.7031C393.211 55.226 397.688 59.7031 403.211 59.7031V49.7031ZM403.211 10.0859V0.0859375C397.688 0.0859375 393.211 4.56309 393.211 10.0859H403.211ZM375.926 30.5391V20.5391C373.046 20.5391 370.306 21.7807 368.407 23.9461C366.508 26.1115 365.635 28.9903 366.012 31.8456L375.926 30.5391ZM401.707 29.5508L411.683 28.8628C411.494 26.1123 410.177 23.5622 408.044 21.815C405.911 20.0679 403.152 19.2788 400.418 19.6342L401.707 29.5508ZM402.051 34.5352L403.822 44.377C408.843 43.4733 412.378 38.936 412.027 33.8471L402.051 34.5352ZM392.469 35.6953L391.718 25.7236C386.501 26.1166 382.469 30.4639 382.469 35.6953H392.469ZM392.469 48.543V58.543C397.992 58.543 402.469 54.0658 402.469 48.543L392.469 48.543ZM385.508 48.543H375.508C375.508 54.0658 379.985 58.543 385.508 58.543V48.543ZM385.508 35.9961H395.508C395.508 33.2954 394.416 30.7096 392.479 28.8269C390.543 26.9441 387.928 25.9245 385.228 26L385.508 35.9961ZM376.656 36.082L366.742 37.3886C367.398 42.3634 371.638 46.082 376.656 46.082V36.082ZM400.977 22.2461H410.977C410.977 16.7232 406.499 12.2461 400.977 12.2461V22.2461ZM400.977 27.7031V37.7031C406.499 37.7031 410.977 33.226 410.977 27.7031H400.977ZM389.934 27.7031H379.934C379.934 33.226 384.411 37.7031 389.934 37.7031V27.7031ZM389.934 12.5352V2.53516C384.411 2.53516 379.934 7.01231 379.934 12.5352H389.934ZM400.805 12.5352H410.805C410.805 7.01231 406.328 2.53516 400.805 2.53516V12.5352ZM400.805 17.9922V27.9922C406.328 27.9922 410.805 23.515 410.805 17.9922H400.805ZM396.68 17.9922V7.99219C391.157 7.99219 386.68 12.4693 386.68 17.9922H396.68ZM396.68 22.2461H386.68C386.68 27.7689 391.157 32.2461 396.68 32.2461V22.2461ZM388.215 12.5352H398.215C398.215 7.01231 393.738 2.53516 388.215 2.53516V12.5352ZM388.215 17.9922V27.9922C393.738 27.9922 398.215 23.515 398.215 17.9922H388.215ZM384.477 17.9922V7.99219C378.954 7.99219 374.477 12.4693 374.477 17.9922H384.477ZM384.477 22.2461H374.477C374.477 25.0119 375.622 27.6542 377.641 29.5448C379.659 31.4355 382.371 32.4056 385.131 32.2247L384.477 22.2461ZM388.516 21.6875L398.495 21.0488C398.31 18.1606 396.883 15.4942 394.583 13.7383C392.282 11.9824 389.334 11.3093 386.499 11.8929L388.516 21.6875ZM388.859 27.0586L390.821 36.8644C395.732 35.8822 399.159 31.4182 398.839 26.4199L388.859 27.0586ZM377.645 27.7031H367.645C367.645 33.226 372.122 37.7031 377.645 37.7031V27.7031ZM377.645 12.5352V2.53516C372.122 2.53516 367.645 7.01231 367.645 12.5352H377.645ZM410.172 10.0859H400.172V49.7031H410.172H420.172V10.0859H410.172ZM410.172 49.7031V39.7031H403.211V49.7031V59.7031H410.172V49.7031ZM403.211 49.7031H413.211V10.0859H403.211H393.211V49.7031L403.211 49.7031ZM403.211 10.0859V20.0859H410.172V10.0859V0.0859375L403.211 0.0859375V10.0859ZM375.926 30.5391V40.5391C383.256 40.5391 393.607 40.6879 402.996 39.4673L401.707 29.5508L400.418 19.6342C392.619 20.648 383.807 20.5391 375.926 20.5391V30.5391ZM401.707 29.5508L391.731 30.2388L392.075 35.2232L402.051 34.5352L412.027 33.8471L411.683 28.8628L401.707 29.5508ZM402.051 34.5352L400.279 24.6933C397.51 25.1918 394.654 25.5023 391.718 25.7236L392.469 35.6953L393.22 45.667C396.557 45.4156 400.146 45.0387 403.822 44.377L402.051 34.5352ZM392.469 35.6953H382.469V48.543H392.469L402.469 48.543V35.6953L392.469 35.6953ZM392.469 48.543V38.543H385.508V48.543V58.543H392.469V48.543ZM385.508 48.543H395.508V35.9961H385.508H375.508V48.543H385.508ZM385.508 35.9961L385.228 26C382.317 26.0814 379.467 26.082 376.656 26.082V36.082V46.082C379.431 46.082 382.554 46.0826 385.787 45.9922L385.508 35.9961ZM376.656 36.082L386.571 34.7755L385.84 29.2325L375.926 30.5391L366.012 31.8456L366.742 37.3886L376.656 36.082ZM400.977 22.2461H390.977V27.7031H400.977H410.977V22.2461H400.977ZM400.977 27.7031V17.7031H389.934V27.7031V37.7031L400.977 37.7031V27.7031ZM389.934 27.7031H399.934V12.5352H389.934H379.934V27.7031H389.934ZM389.934 12.5352V22.5352H400.805V12.5352V2.53516H389.934V12.5352ZM400.805 12.5352H390.805V17.9922H400.805H410.805V12.5352H400.805ZM400.805 17.9922V7.99219H396.68V17.9922V27.9922H400.805V17.9922ZM396.68 17.9922H386.68V22.2461H396.68H406.68V17.9922H396.68ZM396.68 22.2461V32.2461L400.977 32.2461V22.2461V12.2461H396.68V22.2461ZM388.215 12.5352H378.215V17.9922H388.215H398.215V12.5352H388.215ZM388.215 17.9922V7.99219H384.477V17.9922V27.9922H388.215V17.9922ZM384.477 17.9922H374.477V22.2461H384.477H394.477V17.9922H384.477ZM384.477 22.2461L385.131 32.2247C386.932 32.1065 388.656 31.8684 390.532 31.4821L388.516 21.6875L386.499 11.8929C385.454 12.1081 384.642 12.2138 383.822 12.2675L384.477 22.2461ZM388.516 21.6875L378.536 22.3262L378.88 27.6973L388.859 27.0586L398.839 26.4199L398.495 21.0488L388.516 21.6875ZM388.859 27.0586L386.898 17.2528C384.945 17.6435 383.448 17.7031 379.793 17.7031V27.7031V37.7031C383.529 37.7031 386.759 37.6768 390.821 36.8644L388.859 27.0586ZM379.793 27.7031V17.7031H377.645V27.7031V37.7031H379.793V27.7031ZM377.645 27.7031H387.645V12.5352H377.645H367.645V27.7031H377.645ZM377.645 12.5352V22.5352H388.215V12.5352V2.53516L377.645 2.53516V12.5352ZM425.125 12.6641L425.055 22.6638C425.105 22.6642 425.156 22.6641 425.206 22.6637L425.125 12.6641ZM435.438 23.8359L425.533 25.2158C426.222 30.1578 430.448 33.8359 435.438 33.8359V23.8359ZM441.066 23.8359V33.8359C446.589 33.8359 451.066 29.3588 451.066 23.8359H441.066ZM441.066 10V0C435.544 0 431.066 4.47715 431.066 10H441.066ZM447.898 10H457.898C457.898 4.47715 453.421 0 447.898 0V10ZM447.898 49.875V59.875C453.421 59.875 457.898 55.3978 457.898 49.875H447.898ZM441.066 49.875H431.066C431.066 55.3978 435.544 59.875 441.066 59.875V49.875ZM441.066 29.3359H451.066C451.066 23.8131 446.589 19.3359 441.066 19.3359V29.3359ZM435.523 29.3359V19.3359C430.376 19.3359 426.07 23.2433 425.571 28.3663L435.523 29.3359ZM425.125 18.8945L424.943 28.8929C425.063 28.8951 425.184 28.8951 425.304 28.8929L425.125 18.8945ZM421.172 26.9727L431.172 27.0496C431.172 26.9979 431.172 26.9462 431.172 26.8945L421.172 26.9727ZM425.125 12.6641L425.206 22.6637C425.154 22.6642 424.993 22.6489 424.801 22.5641C424.616 22.4823 424.548 22.4013 424.583 22.4381C424.677 22.5391 425.264 23.2826 425.533 25.2158L435.438 23.8359L445.342 22.4561C443.968 12.5942 437.196 2.56599 425.044 2.66439L425.125 12.6641ZM435.438 23.8359V33.8359H441.066V23.8359V13.8359H435.438V23.8359ZM441.066 23.8359H451.066V10H441.066H431.066V23.8359H441.066ZM441.066 10V20H447.898V10V0H441.066V10ZM447.898 10H437.898V49.875H447.898H457.898V10H447.898ZM447.898 49.875V39.875H441.066V49.875V59.875H447.898V49.875ZM441.066 49.875H451.066V29.3359H441.066H431.066V49.875H441.066ZM441.066 29.3359V19.3359H435.523V29.3359V39.3359H441.066V29.3359ZM435.523 29.3359L425.571 28.3663C425.357 30.5593 424.722 31.4454 424.586 31.6005C424.532 31.6632 424.58 31.59 424.754 31.5089C424.935 31.4247 425.086 31.4102 425.125 31.4102V41.4102V51.4102C437.711 51.4102 444.46 40.7357 445.476 30.3056L435.523 29.3359ZM425.125 41.4102V31.4102C425.113 31.4102 425.15 31.4092 425.224 31.4269C425.299 31.4447 425.381 31.4744 425.459 31.5147C425.633 31.6038 425.64 31.666 425.534 31.5241C425.283 31.1902 424.555 29.8661 424.555 26.9727H414.555H404.555C404.555 32.9737 406.039 38.8684 409.538 43.5296C413.192 48.398 418.729 51.4102 425.125 51.4102V41.4102ZM414.555 26.9727H424.555C424.555 24.1696 425.271 22.867 425.521 22.5344C425.628 22.3929 425.618 22.4583 425.437 22.5508C425.355 22.593 425.266 22.625 425.183 22.6445C425.1 22.6639 425.053 22.6638 425.055 22.6638L425.125 12.6641L425.195 2.66431C418.752 2.61925 413.201 5.65315 409.55 10.4958C406.052 15.1369 404.555 21.0101 404.555 26.9727H414.555ZM425.125 18.8945L425.307 8.89618C419.501 8.79063 415.411 12.3395 413.382 16.2269C411.599 19.6402 411.145 23.5516 411.172 27.0508L421.172 26.9727L431.172 26.8945C431.156 24.8937 431.496 24.7445 431.111 25.4831C430.87 25.9446 430.275 26.8637 429.08 27.6662C427.806 28.5223 426.328 28.9181 424.943 28.8929L425.125 18.8945ZM421.172 26.9727L411.172 26.8957C411.145 30.4145 411.593 34.3438 413.389 37.7707C415.464 41.7292 419.527 45.0937 425.125 45.0937V35.0937V25.0937C426.416 25.0937 427.828 25.4698 429.073 26.304C430.251 27.0937 430.85 28.0033 431.103 28.4852C431.344 28.9445 431.336 29.1323 431.281 28.8286C431.23 28.545 431.165 27.9752 431.172 27.0496L421.172 26.9727ZM425.125 35.0937V45.0937C430.741 45.0937 434.818 41.7289 436.89 37.7144C438.648 34.3088 439.078 30.4093 439.078 26.9727H429.078H419.078C419.078 27.9311 419.01 28.5297 418.954 28.8411C418.895 29.175 418.882 28.9983 419.118 28.5415C419.367 28.0586 419.973 27.1219 421.179 26.3112C422.455 25.4534 423.876 25.0937 425.125 25.0937V35.0937ZM429.078 26.9727H439.078C439.078 23.557 438.642 19.6757 436.898 16.2831C434.87 12.3383 430.768 8.79217 424.947 8.89612L425.125 18.8945L425.304 28.8929C423.964 28.9169 422.478 28.5393 421.171 27.659C419.948 26.8354 419.348 25.8892 419.11 25.4268C418.882 24.9829 418.896 24.817 418.956 25.149C419.011 25.4574 419.078 26.044 419.078 26.9727H429.078ZM460.316 12.5352L470.316 12.5352C470.316 7.01231 465.839 2.53516 460.316 2.53516V12.5352ZM460.316 26.7148H450.316C450.316 29.401 451.397 31.9742 453.315 33.8549C455.233 35.7356 457.827 36.7656 460.513 36.7129L460.316 26.7148ZM474.367 25.2539L484.273 23.8824C483.892 21.1351 482.388 18.6692 480.119 17.0738C477.851 15.4785 475.021 14.897 472.307 15.4684L474.367 25.2539ZM475.141 30.8398L477.127 40.6405C482.303 39.5914 485.77 34.6991 485.046 29.4683L475.141 30.8398ZM453.398 32.4297H443.398C443.398 37.9525 447.876 42.4297 453.398 42.4297V32.4297ZM453.398 12.5352V2.53516C447.876 2.53516 443.398 7.01231 443.398 12.5352H453.398ZM483.82 10.0859L493.82 10.0859C493.82 4.56309 489.343 0.0859375 483.82 0.0859375V10.0859ZM483.82 20.8281H473.82C473.82 26.351 478.298 30.8281 483.82 30.8281V20.8281ZM488.762 20.8281H498.762C498.762 15.3053 494.285 10.8281 488.762 10.8281V20.8281ZM488.762 26.543V36.543C494.285 36.543 498.762 32.0658 498.762 26.543H488.762ZM483.82 26.543V16.543C478.298 16.543 473.82 21.0201 473.82 26.543H483.82ZM483.82 38.4883V48.4883C489.343 48.4883 493.82 44.0111 493.82 38.4883H483.82ZM476.902 38.4883H466.902C466.902 44.0111 471.38 48.4883 476.902 48.4883V38.4883ZM476.902 10.0859V0.0859375C471.38 0.0859375 466.902 4.56309 466.902 10.0859H476.902ZM485.023 43.6875H495.023C495.023 38.1647 490.546 33.6875 485.023 33.6875V43.6875ZM485.023 49.1875V59.1875C490.546 59.1875 495.023 54.7103 495.023 49.1875H485.023ZM457.438 49.1875H447.438C447.438 54.7103 451.915 59.1875 457.438 59.1875V49.1875ZM457.438 35.9531V25.9531C451.915 25.9531 447.438 30.4303 447.438 35.9531H457.438ZM464.398 35.9531H474.398C474.398 30.4303 469.921 25.9531 464.398 25.9531V35.9531ZM464.398 43.6875H454.398C454.398 49.2103 458.876 53.6875 464.398 53.6875V43.6875ZM460.316 12.5352H450.316V26.7148H460.316L470.316 26.7148V12.5352L460.316 12.5352ZM460.316 26.7148L460.513 36.7129C465.259 36.6199 470.703 36.2446 476.427 35.0394L474.367 25.2539L472.307 15.4684C468.235 16.3257 464.14 16.638 460.12 16.7168L460.316 26.7148ZM474.367 25.2539L464.462 26.6254L465.235 32.2114L475.141 30.8398L485.046 29.4683L484.273 23.8824L474.367 25.2539ZM475.141 30.8398L473.154 21.0392C467.714 22.1418 462.181 22.4297 456.965 22.4297V32.4297V42.4297C462.835 42.4297 469.848 42.116 477.127 40.6405L475.141 30.8398ZM456.965 32.4297V22.4297H453.398V32.4297V42.4297H456.965V32.4297ZM453.398 32.4297H463.398V12.5352L453.398 12.5352H443.398V32.4297H453.398ZM453.398 12.5352V22.5352H460.316V12.5352V2.53516H453.398V12.5352ZM483.82 10.0859H473.82V20.8281H483.82H493.82V10.0859L483.82 10.0859ZM483.82 20.8281V30.8281H488.762V20.8281V10.8281H483.82V20.8281ZM488.762 20.8281H478.762V26.543H488.762H498.762V20.8281H488.762ZM488.762 26.543V16.543H483.82V26.543V36.543H488.762V26.543ZM483.82 26.543H473.82V38.4883H483.82H493.82V26.543H483.82ZM483.82 38.4883V28.4883H476.902V38.4883V48.4883H483.82V38.4883ZM476.902 38.4883H486.902V10.0859H476.902H466.902V38.4883H476.902ZM476.902 10.0859V20.0859H483.82V10.0859V0.0859375H476.902V10.0859ZM485.023 43.6875H475.023V49.1875H485.023H495.023V43.6875H485.023ZM485.023 49.1875V39.1875H457.438V49.1875V59.1875H485.023V49.1875ZM457.438 49.1875H467.438V35.9531H457.438H447.438V49.1875H457.438ZM457.438 35.9531V45.9531H464.398V35.9531V25.9531L457.438 25.9531V35.9531ZM464.398 35.9531H454.398V43.6875H464.398H474.398V35.9531H464.398ZM464.398 43.6875V53.6875H485.023V43.6875V33.6875H464.398V43.6875Z" fill="white" mask="url(#path-1-outside-1_3990_1393)"/>
</g>
<defs>
<filter id="filter0_d_3990_1393" x="0" y="0" width="502.762" height="67.875" filterUnits="userSpaceOnUse" color-interpolation-filters="sRGB">
<feFlood flood-opacity="0" result="BackgroundImageFix"/>
<feColorMatrix in="SourceAlpha" type="matrix" values="0 0 0 0 0 0 0 0 0 0 0 0 0 0 0 0 0 0 127 0" result="hardAlpha"/>
<feOffset dy="4"/>
<feGaussianBlur stdDeviation="2"/>
<feComposite in2="hardAlpha" operator="out"/>
<feColorMatrix type="matrix" values="0 0 0 0 0 0 0 0 0 0 0 0 0 0 0 0 0 0 0.07 0"/>
<feBlend mode="normal" in2="BackgroundImageFix" result="effect1_dropShadow_3990_1393"/>
<feBlend mode="normal" in="SourceGraphic" in2="effect1_dropShadow_3990_1393" result="shape"/>
</filter>
</defs>
</svg>
