<svg width="301" height="68" viewBox="0 0 301 68" fill="none" xmlns="http://www.w3.org/2000/svg">
<g filter="url(#filter0_d_3990_1485)">
<mask id="path-1-outside-1_3990_1485" maskUnits="userSpaceOnUse" x="3.5274" y="-0.507813" width="294" height="61" fill="black">
<rect fill="white" x="3.5274" y="-0.507813" width="294" height="61"/>
<path d="M36.3868 13.0938V18.5078H33.6797V28.1758C34.9903 28.0684 36.2579 27.9395 37.504 27.7891L37.9766 32.7734C30.0704 34.2344 21.2188 34.3633 14.6876 34.3203L14.0001 28.9062L17.7813 28.8633V18.5078H14.9883V13.0938H36.3868ZM46.2266 10.0859V20.6992H51.168V26.3281H46.2266V39.3477H39.3087V10.0859L46.2266 10.0859ZM47.3868 43.6875V49.1875H19.8868V36.5547H26.8047V43.6875H47.3868ZM24.3985 28.6914L27.1055 28.6055V18.5078H24.3985V28.6914ZM84.254 10.0859V20.2695H89.2383V25.8984H84.254V38.7461H77.336V10.0859H84.254ZM71.836 13.0508V18.5078H60.6641V26.9727C67.3243 26.9512 70.9122 26.7148 74.8008 25.8555L75.4883 31.3555C70.8907 32.3008 66.379 32.5156 57.2696 32.5156H53.7891V13.0508H71.836ZM85.4141 43.6875V49.1875H57.9141V35.5664H64.8321V43.6875H85.4141ZM124.043 10V49.875H117.082V10H124.043ZM102.215 12.6641C108.273 12.6211 112.828 18.207 112.828 26.9727C112.828 35.8672 108.273 41.4102 102.215 41.4102C96.0274 41.4102 91.4297 35.8672 91.4297 26.9727C91.4297 18.207 96.0274 12.6211 102.215 12.6641ZM102.215 18.8945C99.6797 18.8516 98.0899 21.4727 98.0899 26.9727C98.0899 32.5586 99.6797 35.0938 102.215 35.0938C104.578 35.0938 106.211 32.5586 106.211 26.9727C106.211 21.4727 104.578 18.8516 102.215 18.8945ZM174.359 31.7852V37.2852H166.539V49.7461H159.535V37.2852H152.703V49.7461H145.656V37.2852L138.094 37.2852V31.7852L174.359 31.7852ZM156.098 11.2031C164.734 11.1602 170.922 14.7695 170.922 20.3555C170.922 25.7695 164.734 29.207 156.098 29.207C147.461 29.207 141.359 25.7695 141.402 20.3555C141.359 14.7695 147.461 11.1602 156.098 11.2031ZM156.098 16.6602C151.328 16.6602 148.492 17.8203 148.492 20.3555C148.492 22.6758 151.328 23.793 156.098 23.8359C160.953 23.793 163.746 22.6758 163.746 20.3555C163.746 17.8203 160.953 16.6602 156.098 16.6602ZM212.43 39.9062V45.4492H176.121V39.9062H190.816V33.332H179.688V12.3633H186.606V17.9062H201.773V12.3633H208.648V33.332H197.648V39.9062H212.43ZM186.606 27.875H201.773V23.3203H186.606V27.875ZM237.18 11.9336V17.3477H229.961C230.305 21.3652 232.604 25.4902 238.598 27.4453L235.289 32.7305C231.014 31.4629 228.178 28.9062 226.481 25.6836C224.719 29.25 221.754 32.1074 217.199 33.4609L213.676 28.0469C220.078 26.1348 222.42 21.5801 222.828 17.3477H215.566V11.9336H237.18ZM247.965 35.1367V49.7461H241.09V40.5937H220.336V35.1367H247.965ZM247.965 10V33.6328H241.09V24.6094H236.148V19.0234H241.09V10H247.965ZM285.691 10.0859V38.3164H278.773V10.0859H285.691ZM286.637 43.6875V49.1875H258.492V35.4805H265.453V43.6875H286.637ZM263.734 12.4492C269.922 12.4492 274.863 16.7461 274.863 22.6328C274.863 28.6484 269.922 32.9023 263.734 32.9023C257.547 32.9023 252.563 28.6484 252.606 22.6328C252.563 16.7461 257.547 12.4492 263.734 12.4492ZM263.734 18.4219C261.199 18.4219 259.309 19.8398 259.309 22.6328C259.309 25.5547 261.199 26.9297 263.734 26.9297C266.141 26.9297 268.031 25.5547 268.031 22.6328C268.031 19.8398 266.141 18.4219 263.734 18.4219Z"/>
</mask>
<path d="M36.3868 13.0938V18.5078H33.6797V28.1758C34.9903 28.0684 36.2579 27.9395 37.504 27.7891L37.9766 32.7734C30.0704 34.2344 21.2188 34.3633 14.6876 34.3203L14.0001 28.9062L17.7813 28.8633V18.5078H14.9883V13.0938H36.3868ZM46.2266 10.0859V20.6992H51.168V26.3281H46.2266V39.3477H39.3087V10.0859L46.2266 10.0859ZM47.3868 43.6875V49.1875H19.8868V36.5547H26.8047V43.6875H47.3868ZM24.3985 28.6914L27.1055 28.6055V18.5078H24.3985V28.6914ZM84.254 10.0859V20.2695H89.2383V25.8984H84.254V38.7461H77.336V10.0859H84.254ZM71.836 13.0508V18.5078H60.6641V26.9727C67.3243 26.9512 70.9122 26.7148 74.8008 25.8555L75.4883 31.3555C70.8907 32.3008 66.379 32.5156 57.2696 32.5156H53.7891V13.0508H71.836ZM85.4141 43.6875V49.1875H57.9141V35.5664H64.8321V43.6875H85.4141ZM124.043 10V49.875H117.082V10H124.043ZM102.215 12.6641C108.273 12.6211 112.828 18.207 112.828 26.9727C112.828 35.8672 108.273 41.4102 102.215 41.4102C96.0274 41.4102 91.4297 35.8672 91.4297 26.9727C91.4297 18.207 96.0274 12.6211 102.215 12.6641ZM102.215 18.8945C99.6797 18.8516 98.0899 21.4727 98.0899 26.9727C98.0899 32.5586 99.6797 35.0938 102.215 35.0938C104.578 35.0938 106.211 32.5586 106.211 26.9727C106.211 21.4727 104.578 18.8516 102.215 18.8945ZM174.359 31.7852V37.2852H166.539V49.7461H159.535V37.2852H152.703V49.7461H145.656V37.2852L138.094 37.2852V31.7852L174.359 31.7852ZM156.098 11.2031C164.734 11.1602 170.922 14.7695 170.922 20.3555C170.922 25.7695 164.734 29.207 156.098 29.207C147.461 29.207 141.359 25.7695 141.402 20.3555C141.359 14.7695 147.461 11.1602 156.098 11.2031ZM156.098 16.6602C151.328 16.6602 148.492 17.8203 148.492 20.3555C148.492 22.6758 151.328 23.793 156.098 23.8359C160.953 23.793 163.746 22.6758 163.746 20.3555C163.746 17.8203 160.953 16.6602 156.098 16.6602ZM212.43 39.9062V45.4492H176.121V39.9062H190.816V33.332H179.688V12.3633H186.606V17.9062H201.773V12.3633H208.648V33.332H197.648V39.9062H212.43ZM186.606 27.875H201.773V23.3203H186.606V27.875ZM237.18 11.9336V17.3477H229.961C230.305 21.3652 232.604 25.4902 238.598 27.4453L235.289 32.7305C231.014 31.4629 228.178 28.9062 226.481 25.6836C224.719 29.25 221.754 32.1074 217.199 33.4609L213.676 28.0469C220.078 26.1348 222.42 21.5801 222.828 17.3477H215.566V11.9336H237.18ZM247.965 35.1367V49.7461H241.09V40.5937H220.336V35.1367H247.965ZM247.965 10V33.6328H241.09V24.6094H236.148V19.0234H241.09V10H247.965ZM285.691 10.0859V38.3164H278.773V10.0859H285.691ZM286.637 43.6875V49.1875H258.492V35.4805H265.453V43.6875H286.637ZM263.734 12.4492C269.922 12.4492 274.863 16.7461 274.863 22.6328C274.863 28.6484 269.922 32.9023 263.734 32.9023C257.547 32.9023 252.563 28.6484 252.606 22.6328C252.563 16.7461 257.547 12.4492 263.734 12.4492ZM263.734 18.4219C261.199 18.4219 259.309 19.8398 259.309 22.6328C259.309 25.5547 261.199 26.9297 263.734 26.9297C266.141 26.9297 268.031 25.5547 268.031 22.6328C268.031 19.8398 266.141 18.4219 263.734 18.4219Z" fill="#11DCA9"/>
<path d="M36.3868 13.0938H46.3868C46.3868 7.5709 41.9096 3.09375 36.3868 3.09375V13.0938ZM36.3868 18.5078V28.5078C41.9096 28.5078 46.3868 24.0307 46.3868 18.5078H36.3868ZM33.6797 18.5078V8.50781C28.1569 8.50781 23.6797 12.985 23.6797 18.5078H33.6797ZM33.6797 28.1758H23.6797C23.6797 30.9699 24.8488 33.6367 26.9037 35.53C28.9586 37.4234 31.7119 38.3706 34.4967 38.1424L33.6797 28.1758ZM37.504 27.7891L47.4593 26.845C47.2047 24.1606 45.8769 21.6927 43.7769 20.0012C41.6769 18.3097 38.9828 17.538 36.3058 17.8611L37.504 27.7891ZM37.9766 32.7734L39.7937 42.607C44.889 41.6654 48.4211 36.9878 47.932 31.8294L37.9766 32.7734ZM14.6876 34.3203L4.76722 35.58C5.39844 40.5509 9.61113 44.2871 14.6218 44.3201L14.6876 34.3203ZM14.0001 28.9062L13.8864 18.9069C11.0347 18.9393 8.3325 20.1878 6.45938 22.3383C4.58626 24.4888 3.72046 27.3368 4.07972 30.166L14.0001 28.9062ZM17.7813 28.8633L17.8949 38.8626C23.3731 38.8004 27.7813 34.3418 27.7813 28.8633H17.7813ZM17.7813 18.5078H27.7813C27.7813 12.985 23.3042 8.50781 17.7813 8.50781V18.5078ZM14.9883 18.5078H4.98834C4.98834 24.0307 9.46549 28.5078 14.9883 28.5078V18.5078ZM14.9883 13.0938V3.09375C9.46549 3.09375 4.98834 7.5709 4.98834 13.0938H14.9883ZM46.2266 10.0859H56.2266C56.2266 4.56309 51.7495 0.0859375 46.2266 0.0859375V10.0859ZM46.2266 20.6992H36.2266C36.2266 26.2221 40.7038 30.6992 46.2266 30.6992V20.6992ZM51.168 20.6992H61.168C61.168 15.1764 56.6909 10.6992 51.168 10.6992V20.6992ZM51.168 26.3281V36.3281C56.6909 36.3281 61.168 31.851 61.168 26.3281H51.168ZM46.2266 26.3281V16.3281C40.7038 16.3281 36.2266 20.8053 36.2266 26.3281H46.2266ZM46.2266 39.3477V49.3477C51.7495 49.3477 56.2266 44.8705 56.2266 39.3477H46.2266ZM39.3087 39.3477H29.3087C29.3087 44.8705 33.7858 49.3477 39.3087 49.3477V39.3477ZM39.3087 10.0859V0.0859375C33.7858 0.0859375 29.3087 4.56309 29.3087 10.0859H39.3087ZM47.3868 43.6875H57.3868C57.3868 38.1647 52.9096 33.6875 47.3868 33.6875V43.6875ZM47.3868 49.1875V59.1875C52.9096 59.1875 57.3868 54.7103 57.3868 49.1875H47.3868ZM19.8868 49.1875H9.88678C9.88678 54.7103 14.3639 59.1875 19.8868 59.1875V49.1875ZM19.8868 36.5547V26.5547C14.3639 26.5547 9.88678 31.0318 9.88678 36.5547H19.8868ZM26.8047 36.5547H36.8047C36.8047 31.0318 32.3276 26.5547 26.8047 26.5547V36.5547ZM26.8047 43.6875H16.8047C16.8047 49.2103 21.2819 53.6875 26.8047 53.6875V43.6875ZM24.3985 28.6914H14.3985C14.3985 31.3986 15.4961 33.9901 17.4405 35.8738C19.3849 37.7574 22.01 38.7723 24.7158 38.6864L24.3985 28.6914ZM27.1055 28.6055L27.4228 38.6004C32.8194 38.4291 37.1055 34.0048 37.1055 28.6055H27.1055ZM27.1055 18.5078H37.1055C37.1055 12.985 32.6284 8.50781 27.1055 8.50781V18.5078ZM24.3985 18.5078V8.50781C18.8757 8.50781 14.3985 12.985 14.3985 18.5078H24.3985ZM36.3868 13.0938H26.3868V18.5078H36.3868H46.3868V13.0938H36.3868ZM36.3868 18.5078V8.50781H33.6797V18.5078V28.5078H36.3868V18.5078ZM33.6797 18.5078H23.6797V28.1758H33.6797H43.6797V18.5078H33.6797ZM33.6797 28.1758L34.4967 38.1424C35.9342 38.0245 37.3289 37.8828 38.7022 37.717L37.504 27.7891L36.3058 17.8611C35.1868 17.9962 34.0464 18.1122 32.8628 18.2092L33.6797 28.1758ZM37.504 27.7891L27.5486 28.7331L28.0213 33.7175L37.9766 32.7734L47.932 31.8294L47.4593 26.845L37.504 27.7891ZM37.9766 32.7734L36.1596 22.9399C29.2582 24.2152 21.2262 24.3631 14.7533 24.3205L14.6876 34.3203L14.6218 44.3201C21.2114 44.3634 30.8825 44.2536 39.7937 42.607L37.9766 32.7734ZM14.6876 34.3203L24.6079 33.0606L23.9204 27.6465L14.0001 28.9062L4.07972 30.166L4.76722 35.58L14.6876 34.3203ZM14.0001 28.9062L14.1137 38.9056L17.8949 38.8626L17.7813 28.8633L17.6677 18.8639L13.8864 18.9069L14.0001 28.9062ZM17.7813 28.8633H27.7813V18.5078H17.7813H7.78131V28.8633H17.7813ZM17.7813 18.5078V8.50781H14.9883V18.5078V28.5078H17.7813V18.5078ZM14.9883 18.5078H24.9883V13.0938H14.9883H4.98834V18.5078H14.9883ZM14.9883 13.0938V23.0938H36.3868V13.0938V3.09375L14.9883 3.09375V13.0938ZM46.2266 10.0859L36.2266 10.0859V20.6992H46.2266H56.2266V10.0859H46.2266ZM46.2266 20.6992V30.6992H51.168V20.6992V10.6992H46.2266V20.6992ZM51.168 20.6992H41.168V26.3281H51.168H61.168V20.6992H51.168ZM51.168 26.3281V16.3281H46.2266V26.3281V36.3281H51.168V26.3281ZM46.2266 26.3281H36.2266V39.3477H46.2266H56.2266V26.3281H46.2266ZM46.2266 39.3477V29.3477H39.3087V39.3477V49.3477H46.2266V39.3477ZM39.3087 39.3477H49.3087V10.0859L39.3087 10.0859H29.3087V39.3477H39.3087ZM39.3087 10.0859V20.0859H46.2266V10.0859V0.0859375H39.3087V10.0859ZM47.3868 43.6875H37.3868V49.1875H47.3868H57.3868V43.6875H47.3868ZM47.3868 49.1875V39.1875H19.8868V49.1875V59.1875H47.3868V49.1875ZM19.8868 49.1875H29.8868V36.5547H19.8868H9.88678V49.1875H19.8868ZM19.8868 36.5547V46.5547H26.8047V36.5547V26.5547H19.8868V36.5547ZM26.8047 36.5547H16.8047V43.6875H26.8047H36.8047V36.5547H26.8047ZM26.8047 43.6875V53.6875H47.3868V43.6875V33.6875H26.8047V43.6875ZM24.3985 28.6914L24.7158 38.6864L27.4228 38.6004L27.1055 28.6055L26.7882 18.6105L24.0812 18.6964L24.3985 28.6914ZM27.1055 28.6055H37.1055V18.5078H27.1055H17.1055V28.6055H27.1055ZM27.1055 18.5078V8.50781H24.3985V18.5078V28.5078H27.1055V18.5078ZM24.3985 18.5078H14.3985V28.6914H24.3985H34.3985V18.5078H24.3985ZM84.254 10.0859H94.254C94.254 4.56309 89.7768 0.0859375 84.254 0.0859375V10.0859ZM84.254 20.2695L74.254 20.2695C74.254 25.7924 78.7311 30.2695 84.254 30.2695V20.2695ZM89.2383 20.2695H99.2383C99.2383 14.7467 94.7612 10.2695 89.2383 10.2695V20.2695ZM89.2383 25.8984V35.8984C94.7612 35.8984 99.2383 31.4213 99.2383 25.8984H89.2383ZM84.254 25.8984V15.8984C78.7311 15.8984 74.254 20.3756 74.254 25.8984L84.254 25.8984ZM84.254 38.7461V48.7461C89.7768 48.7461 94.254 44.2689 94.254 38.7461H84.254ZM77.336 38.7461H67.336C67.336 44.2689 71.8132 48.7461 77.336 48.7461V38.7461ZM77.336 10.0859V0.0859375C71.8132 0.0859375 67.336 4.56309 67.336 10.0859H77.336ZM71.836 13.0508L81.836 13.0508C81.836 7.52793 77.3588 3.05078 71.836 3.05078V13.0508ZM71.836 18.5078V28.5078C77.3588 28.5078 81.836 24.0307 81.836 18.5078L71.836 18.5078ZM60.6641 18.5078V8.50781C55.1413 8.50781 50.6641 12.985 50.6641 18.5078H60.6641ZM60.6641 26.9727H50.6641C50.6641 29.6304 51.7221 32.1788 53.6045 34.0551C55.4868 35.9314 58.0386 36.9812 60.6964 36.9726L60.6641 26.9727ZM74.8008 25.8555L84.7236 24.6151C84.3746 21.8229 82.8653 19.307 80.5661 17.6847C78.2669 16.0624 75.3906 15.4839 72.643 16.0911L74.8008 25.8555ZM75.4883 31.3555L77.5023 41.1506C82.6144 40.0995 86.0585 35.2938 85.4111 30.1151L75.4883 31.3555ZM53.7891 32.5156H43.7891C43.7891 38.0385 48.2663 42.5156 53.7891 42.5156V32.5156ZM53.7891 13.0508V3.05078C48.2663 3.05078 43.7891 7.52793 43.7891 13.0508H53.7891ZM85.4141 43.6875H95.4141C95.4141 38.1647 90.937 33.6875 85.4141 33.6875V43.6875ZM85.4141 49.1875V59.1875C90.937 59.1875 95.4141 54.7103 95.4141 49.1875H85.4141ZM57.9141 49.1875H47.9141C47.9141 54.7103 52.3913 59.1875 57.9141 59.1875V49.1875ZM57.9141 35.5664V25.5664C52.3913 25.5664 47.9141 30.0436 47.9141 35.5664H57.9141ZM64.8321 35.5664H74.8321C74.8321 30.0436 70.3549 25.5664 64.8321 25.5664V35.5664ZM64.8321 43.6875H54.8321C54.8321 49.2103 59.3092 53.6875 64.8321 53.6875V43.6875ZM84.254 10.0859H74.254V20.2695L84.254 20.2695H94.254V10.0859H84.254ZM84.254 20.2695V30.2695H89.2383V20.2695V10.2695H84.254V20.2695ZM89.2383 20.2695H79.2383V25.8984H89.2383H99.2383V20.2695H89.2383ZM89.2383 25.8984V15.8984H84.254V25.8984V35.8984H89.2383V25.8984ZM84.254 25.8984L74.254 25.8984V38.7461H84.254H94.254V25.8984H84.254ZM84.254 38.7461V28.7461H77.336V38.7461V48.7461H84.254V38.7461ZM77.336 38.7461H87.336V10.0859H77.336H67.336V38.7461H77.336ZM77.336 10.0859V20.0859L84.254 20.0859V10.0859V0.0859375H77.336V10.0859ZM71.836 13.0508H61.836V18.5078H71.836L81.836 18.5078V13.0508L71.836 13.0508ZM71.836 18.5078V8.50781H60.6641V18.5078V28.5078H71.836V18.5078ZM60.6641 18.5078H50.6641V26.9727H60.6641H70.6641V18.5078H60.6641ZM60.6641 26.9727L60.6964 36.9726C67.541 36.9505 71.9959 36.7166 76.9587 35.6199L74.8008 25.8555L72.643 16.0911C69.8284 16.7131 67.1076 16.9518 60.6319 16.9727L60.6641 26.9727ZM74.8008 25.8555L64.8781 27.0958L65.5656 32.5958L75.4883 31.3555L85.4111 30.1151L84.7236 24.6151L74.8008 25.8555ZM75.4883 31.3555L73.4744 21.5604C69.9688 22.2811 66.362 22.5156 57.2696 22.5156V32.5156V42.5156C66.396 42.5156 71.8125 42.3204 77.5023 41.1506L75.4883 31.3555ZM57.2696 32.5156V22.5156H53.7891V32.5156V42.5156H57.2696V32.5156ZM53.7891 32.5156H63.7891V13.0508H53.7891H43.7891V32.5156H53.7891ZM53.7891 13.0508V23.0508H71.836V13.0508V3.05078L53.7891 3.05078V13.0508ZM85.4141 43.6875H75.4141V49.1875H85.4141H95.4141V43.6875H85.4141ZM85.4141 49.1875V39.1875H57.9141V49.1875V59.1875H85.4141V49.1875ZM57.9141 49.1875H67.9141V35.5664H57.9141H47.9141V49.1875H57.9141ZM57.9141 35.5664V45.5664H64.8321V35.5664V25.5664H57.9141V35.5664ZM64.8321 35.5664H54.8321V43.6875H64.8321H74.8321V35.5664H64.8321ZM64.8321 43.6875V53.6875H85.4141V43.6875V33.6875H64.8321V43.6875ZM124.043 10H134.043C134.043 4.47715 129.566 0 124.043 0V10ZM124.043 49.875V59.875C129.566 59.875 134.043 55.3978 134.043 49.875H124.043ZM117.082 49.875H107.082C107.082 55.3978 111.559 59.875 117.082 59.875V49.875ZM117.082 10V0C111.559 0 107.082 4.47715 107.082 10L117.082 10ZM102.215 12.6641L102.145 22.6638C102.192 22.6641 102.239 22.6641 102.286 22.6638L102.215 12.6641ZM102.215 18.8945L102.045 28.8931C102.163 28.8951 102.28 28.895 102.397 28.8929L102.215 18.8945ZM124.043 10H114.043V49.875H124.043H134.043V10H124.043ZM124.043 49.875V39.875H117.082V49.875V59.875H124.043V49.875ZM117.082 49.875H127.082V10H117.082L107.082 10V49.875H117.082ZM117.082 10V20H124.043V10V0L117.082 0V10ZM102.215 12.6641L102.286 22.6638C102.218 22.6643 102.049 22.6406 101.873 22.5508C101.711 22.4681 101.72 22.4198 101.841 22.5782C102.112 22.9327 102.828 24.2334 102.828 26.9727H112.828H122.828C122.828 20.9463 121.268 15.0712 117.746 10.4521C114.099 5.66819 108.566 2.61877 102.144 2.66431L102.215 12.6641ZM112.828 26.9727H102.828C102.828 29.8028 102.098 31.1249 101.829 31.4804C101.708 31.6391 101.697 31.594 101.851 31.5147C102.017 31.4293 102.17 31.4102 102.215 31.4102V41.4102V51.4102C108.588 51.4102 114.107 48.3834 117.758 43.5733C121.281 38.9337 122.828 33.0371 122.828 26.9727H112.828ZM102.215 41.4102V31.4102C102.193 31.4102 102.298 31.4135 102.436 31.483C102.564 31.5479 102.545 31.5815 102.426 31.4265C102.16 31.0816 101.43 29.7839 101.43 26.9727H91.4297H81.4297C81.4297 33.056 82.9981 38.977 86.5783 43.6273C90.2911 48.4498 95.8527 51.4102 102.215 51.4102V41.4102ZM91.4297 26.9727H101.43C101.43 24.2526 102.147 22.9762 102.413 22.632C102.533 22.4774 102.549 22.5139 102.414 22.5822C102.353 22.6127 102.287 22.6363 102.225 22.6507C102.163 22.6649 102.132 22.6637 102.145 22.6638L102.215 12.6641L102.284 2.6643C95.8752 2.6198 90.3 5.60151 86.591 10.3982C83.0115 15.0277 81.4297 20.9271 81.4297 26.9727H91.4297ZM102.215 18.8945L102.384 8.89597C96.7528 8.80052 92.5545 12.0746 90.3811 16.1436C88.5403 19.59 88.0899 23.5385 88.0899 26.9727H98.0899H108.09C108.09 26.0559 108.158 25.4897 108.211 25.2055C108.267 24.8993 108.273 25.0966 108.022 25.5664C107.756 26.0649 107.13 26.9904 105.916 27.7722C104.638 28.5955 103.241 28.9134 102.045 28.8931L102.215 18.8945ZM98.0899 26.9727H88.0899C88.0899 30.4271 88.5337 34.3944 90.389 37.8541C92.6037 41.9836 96.7786 45.0938 102.215 45.0938V35.0938V25.0937C103.325 25.0937 104.661 25.3965 105.908 26.1982C107.104 26.9673 107.736 27.8831 108.014 28.4018C108.273 28.8846 108.269 29.0928 108.212 28.7849C108.159 28.4977 108.09 27.9194 108.09 26.9727H98.0899ZM102.215 35.0938V45.0938C107.814 45.0938 111.865 41.7294 113.941 37.7986C115.741 34.3926 116.211 30.4806 116.211 26.9727H106.211H96.211C96.211 27.9039 96.1412 28.4806 96.087 28.7724C96.0291 29.0842 96.0198 28.9062 96.257 28.4572C96.5056 27.9865 97.1013 27.0851 98.2734 26.3005C99.5135 25.4703 100.923 25.0937 102.215 25.0937V35.0938ZM106.211 26.9727H116.211C116.211 23.4853 115.734 19.5914 113.949 16.199C111.919 12.3393 107.84 8.79061 102.033 8.89618L102.215 18.8945L102.397 28.8929C101.011 28.9181 99.5356 28.5217 98.2655 27.6697C97.0767 26.8723 96.4862 25.9614 96.2492 25.511C96.0199 25.075 96.0307 24.9078 96.0885 25.218C96.1425 25.507 96.211 26.0715 96.211 26.9727H106.211ZM174.359 31.7852H184.359C184.359 26.2623 179.882 21.7852 174.359 21.7852V31.7852ZM174.359 37.2852V47.2852C179.882 47.2852 184.359 42.808 184.359 37.2852H174.359ZM166.539 37.2852V27.2852C161.016 27.2852 156.539 31.7623 156.539 37.2852H166.539ZM166.539 49.7461V59.7461C172.062 59.7461 176.539 55.2689 176.539 49.7461H166.539ZM159.535 49.7461H149.535C149.535 55.2689 154.012 59.7461 159.535 59.7461V49.7461ZM159.535 37.2852H169.535C169.535 31.7623 165.058 27.2852 159.535 27.2852V37.2852ZM152.703 37.2852V27.2852C147.18 27.2852 142.703 31.7623 142.703 37.2852H152.703ZM152.703 49.7461V59.7461C158.226 59.7461 162.703 55.2689 162.703 49.7461H152.703ZM145.656 49.7461L135.656 49.7461C135.656 55.2689 140.133 59.7461 145.656 59.7461V49.7461ZM145.656 37.2852H155.656C155.656 31.7623 151.179 27.2852 145.656 27.2852V37.2852ZM138.094 37.2852H128.094C128.094 42.808 132.571 47.2852 138.094 47.2852V37.2852ZM138.094 31.7852V21.7852C132.571 21.7852 128.094 26.2623 128.094 31.7852H138.094ZM156.098 11.2031L156.048 21.203C156.081 21.2032 156.114 21.2032 156.147 21.203L156.098 11.2031ZM141.402 20.3555L151.402 20.4348C151.402 20.3827 151.403 20.3306 151.402 20.2785L141.402 20.3555ZM156.098 23.8359L156.008 33.8355C156.067 33.8361 156.127 33.8361 156.186 33.8355L156.098 23.8359ZM174.359 31.7852H164.359V37.2852H174.359H184.359V31.7852H174.359ZM174.359 37.2852V27.2852H166.539V37.2852V47.2852H174.359V37.2852ZM166.539 37.2852H156.539V49.7461H166.539H176.539V37.2852H166.539ZM166.539 49.7461V39.7461H159.535V49.7461V59.7461H166.539V49.7461ZM159.535 49.7461H169.535V37.2852H159.535H149.535V49.7461H159.535ZM159.535 37.2852V27.2852H152.703V37.2852V47.2852H159.535V37.2852ZM152.703 37.2852H142.703V49.7461H152.703H162.703V37.2852H152.703ZM152.703 49.7461V39.7461H145.656V49.7461V59.7461H152.703V49.7461ZM145.656 49.7461H155.656V37.2852H145.656L135.656 37.2852V49.7461L145.656 49.7461ZM145.656 37.2852V27.2852H138.094V37.2852V47.2852L145.656 47.2852V37.2852ZM138.094 37.2852L148.094 37.2852V31.7852L138.094 31.7852H128.094V37.2852H138.094ZM138.094 31.7852V41.7852L174.359 41.7852V31.7852V21.7852H138.094V31.7852ZM156.098 11.2031L156.147 21.203C159.223 21.1877 160.958 21.8512 161.557 22.2155C161.809 22.3683 161.636 22.3288 161.384 21.9329C161.095 21.479 160.922 20.8939 160.922 20.3555H170.922H180.922C180.922 13.2776 176.807 8.07746 171.94 5.12141C167.287 2.29531 161.609 1.17558 156.048 1.20325L156.098 11.2031ZM170.922 20.3555H160.922C160.922 19.7032 161.137 19.0256 161.474 18.515C161.765 18.0731 161.968 18.023 161.7 18.1795C161.064 18.5516 159.261 19.207 156.098 19.207V29.207V39.207C161.571 39.207 167.181 38.1437 171.797 35.4435C176.617 32.6248 180.922 27.5226 180.922 20.3555H170.922ZM156.098 29.207V19.207C152.93 19.207 151.171 18.5503 150.582 18.2023C150.341 18.0595 150.563 18.1285 150.862 18.5914C151.206 19.1218 151.407 19.8027 151.402 20.4348L141.402 20.3555L131.403 20.2761C131.346 27.4166 135.569 32.5612 140.408 35.4208C145.018 38.145 150.628 39.207 156.098 39.207V29.207ZM141.402 20.3555L151.402 20.2785C151.406 20.7976 151.244 21.3849 150.95 21.8569C150.69 22.2722 150.499 22.3303 150.725 22.1917C151.278 21.8525 152.969 21.1877 156.048 21.203L156.098 11.2031L156.147 1.20325C150.59 1.1756 144.912 2.29394 140.265 5.14523C135.381 8.14194 131.348 13.3822 131.403 20.4324L141.402 20.3555ZM156.098 16.6602V6.66016C153.195 6.66016 149.562 6.96784 146.29 8.48959C144.543 9.30184 142.527 10.6337 140.939 12.804C139.27 15.0853 138.492 17.7293 138.492 20.3555H148.492H158.492C158.492 21.7141 158.069 23.2624 157.081 24.6131C156.174 25.8529 155.165 26.4193 154.723 26.6247C154.293 26.8246 154.138 26.8092 154.462 26.7579C154.757 26.7111 155.287 26.6602 156.098 26.6602V16.6602ZM148.492 20.3555H138.492C138.492 26.8076 142.938 30.5435 146.477 32.1017C149.628 33.4894 153.134 33.8096 156.008 33.8355L156.098 23.8359L156.188 13.8363C155.355 13.8288 154.789 13.7747 154.448 13.7213C154.078 13.6631 154.169 13.6359 154.536 13.7977C154.892 13.9544 155.904 14.4652 156.862 15.6804C157.937 17.0432 158.492 18.7281 158.492 20.3555H148.492ZM156.098 23.8359L156.186 33.8355C159.082 33.8099 162.61 33.4945 165.773 32.1017C167.446 31.3651 169.472 30.128 171.11 28.0336C172.862 25.7943 173.746 23.1064 173.746 20.3555H163.746H153.746C153.746 18.7647 154.281 17.0866 155.358 15.7107C156.321 14.4797 157.345 13.9596 157.713 13.7977C158.089 13.6322 158.183 13.6601 157.803 13.7193C157.453 13.7737 156.87 13.8287 156.009 13.8363L156.098 23.8359ZM163.746 20.3555H173.746C173.746 17.7631 172.99 15.1263 171.327 12.8345C169.741 10.6494 167.719 9.30765 165.959 8.48959C162.675 6.96237 159.02 6.66016 156.098 6.66016V16.6602V26.6602C156.938 26.6602 157.484 26.712 157.789 26.7599C158.124 26.8125 157.965 26.8286 157.526 26.6247C157.072 26.4135 156.052 25.8372 155.141 24.5826C154.153 23.2214 153.746 21.6803 153.746 20.3555H163.746ZM212.43 39.9062H222.43C222.43 34.3834 217.953 29.9062 212.43 29.9062V39.9062ZM212.43 45.4492V55.4492C217.953 55.4492 222.43 50.9721 222.43 45.4492H212.43ZM176.121 45.4492H166.121C166.121 50.9721 170.598 55.4492 176.121 55.4492V45.4492ZM176.121 39.9062V29.9062C170.598 29.9062 166.121 34.3834 166.121 39.9062H176.121ZM190.816 39.9062V49.9062C196.339 49.9062 200.816 45.4291 200.816 39.9062H190.816ZM190.816 33.332H200.816C200.816 27.8092 196.339 23.332 190.816 23.332V33.332ZM179.688 33.332H169.688C169.688 38.8549 174.165 43.332 179.688 43.332V33.332ZM179.688 12.3633V2.36328C174.165 2.36328 169.688 6.84043 169.688 12.3633L179.688 12.3633ZM186.606 12.3633H196.606C196.606 6.84043 192.128 2.36328 186.606 2.36328V12.3633ZM186.606 17.9062H176.606C176.606 23.4291 181.083 27.9062 186.606 27.9062V17.9062ZM201.773 17.9062V27.9062C207.296 27.9062 211.773 23.4291 211.773 17.9062L201.773 17.9062ZM201.773 12.3633V2.36328C196.251 2.36328 191.773 6.84043 191.773 12.3633H201.773ZM208.648 12.3633H218.648C218.648 6.84043 214.171 2.36328 208.648 2.36328V12.3633ZM208.648 33.332V43.332C214.171 43.332 218.648 38.8549 218.648 33.332H208.648ZM197.648 33.332V23.332C192.126 23.332 187.648 27.8092 187.648 33.332H197.648ZM197.648 39.9062H187.648C187.648 45.4291 192.126 49.9062 197.648 49.9062V39.9062ZM186.606 27.875H176.606C176.606 33.3978 181.083 37.875 186.606 37.875V27.875ZM201.773 27.875V37.875C207.296 37.875 211.773 33.3978 211.773 27.875L201.773 27.875ZM201.773 23.3203L211.773 23.3203C211.773 17.7975 207.296 13.3203 201.773 13.3203V23.3203ZM186.606 23.3203V13.3203C181.083 13.3203 176.606 17.7975 176.606 23.3203H186.606ZM212.43 39.9062H202.43V45.4492H212.43H222.43V39.9062H212.43ZM212.43 45.4492V35.4492H176.121V45.4492V55.4492H212.43V45.4492ZM176.121 45.4492H186.121V39.9062H176.121H166.121V45.4492H176.121ZM176.121 39.9062V49.9062H190.816V39.9062V29.9062H176.121V39.9062ZM190.816 39.9062H200.816V33.332H190.816H180.816V39.9062H190.816ZM190.816 33.332V23.332H179.688V33.332V43.332H190.816V33.332ZM179.688 33.332H189.688V12.3633H179.688L169.688 12.3633V33.332H179.688ZM179.688 12.3633V22.3633H186.606V12.3633V2.36328H179.688V12.3633ZM186.606 12.3633H176.606V17.9062H186.606H196.606V12.3633H186.606ZM186.606 17.9062V27.9062H201.773V17.9062V7.90625H186.606V17.9062ZM201.773 17.9062L211.773 17.9062V12.3633H201.773H191.773V17.9062H201.773ZM201.773 12.3633V22.3633L208.648 22.3633V12.3633V2.36328H201.773V12.3633ZM208.648 12.3633H198.648V33.332H208.648H218.648V12.3633H208.648ZM208.648 33.332V23.332L197.648 23.332V33.332V43.332H208.648V33.332ZM197.648 33.332H187.648V39.9062H197.648H207.648V33.332H197.648ZM197.648 39.9062V49.9062H212.43V39.9062V29.9062H197.648V39.9062ZM186.606 27.875V37.875H201.773V27.875V17.875H186.606V27.875ZM201.773 27.875L211.773 27.875V23.3203L201.773 23.3203H191.773V27.875H201.773ZM201.773 23.3203V13.3203H186.606V23.3203V33.3203H201.773V23.3203ZM186.606 23.3203H176.606V27.875H186.606H196.606V23.3203H186.606ZM237.18 11.9336L247.18 11.9336C247.18 6.41075 242.703 1.93359 237.18 1.93359V11.9336ZM237.18 17.3477V27.3477C242.703 27.3477 247.18 22.8705 247.18 17.3477H237.18ZM229.961 17.3477V7.34766C227.161 7.34766 224.489 8.52187 222.595 10.5847C220.701 12.6475 219.759 15.41 219.997 18.2002L229.961 17.3477ZM238.598 27.4453L247.074 32.7515C248.707 30.1428 249.048 26.9274 247.998 24.0343C246.948 21.1411 244.625 18.8926 241.699 17.9382L238.598 27.4453ZM235.289 32.7305L232.447 42.318C236.753 43.5947 241.382 41.8437 243.765 38.0367L235.289 32.7305ZM226.481 25.6836L235.328 21.0237C233.577 17.6983 230.109 15.6357 226.351 15.6844C222.593 15.7332 219.179 17.885 217.515 21.2547L226.481 25.6836ZM217.199 33.4609L208.818 38.9155C211.233 42.6273 215.803 44.3082 220.048 43.0466L217.199 33.4609ZM213.676 28.0469L210.814 18.4651C207.793 19.3673 205.375 21.6412 204.288 24.6008C203.202 27.5604 203.575 30.859 205.294 33.5014L213.676 28.0469ZM222.828 17.3477L232.782 18.3077C233.053 15.5015 232.126 12.7115 230.231 10.6246C228.336 8.53762 225.647 7.34766 222.828 7.34766V17.3477ZM215.566 17.3477H205.566C205.566 22.8705 210.044 27.3477 215.566 27.3477V17.3477ZM215.566 11.9336V1.93359C210.044 1.93359 205.566 6.41075 205.566 11.9336H215.566ZM247.965 35.1367H257.965C257.965 29.6139 253.488 25.1367 247.965 25.1367V35.1367ZM247.965 49.7461V59.7461C253.488 59.7461 257.965 55.2689 257.965 49.7461H247.965ZM241.09 49.7461H231.09C231.09 55.2689 235.567 59.7461 241.09 59.7461V49.7461ZM241.09 40.5937H251.09C251.09 35.0709 246.613 30.5937 241.09 30.5937V40.5937ZM220.336 40.5937H210.336C210.336 46.1166 214.813 50.5937 220.336 50.5937V40.5937ZM220.336 35.1367V25.1367C214.813 25.1367 210.336 29.6139 210.336 35.1367H220.336ZM247.965 10H257.965C257.965 4.47715 253.488 0 247.965 0V10ZM247.965 33.6328V43.6328C253.488 43.6328 257.965 39.1557 257.965 33.6328H247.965ZM241.09 33.6328H231.09C231.09 39.1557 235.567 43.6328 241.09 43.6328V33.6328ZM241.09 24.6094H251.09C251.09 19.0865 246.613 14.6094 241.09 14.6094V24.6094ZM236.148 24.6094H226.148C226.148 30.1322 230.626 34.6094 236.148 34.6094V24.6094ZM236.148 19.0234V9.02344C230.626 9.02344 226.148 13.5006 226.148 19.0234H236.148ZM241.09 19.0234V29.0234C246.613 29.0234 251.09 24.5463 251.09 19.0234H241.09ZM241.09 10V0C235.567 0 231.09 4.47715 231.09 10L241.09 10ZM237.18 11.9336H227.18V17.3477H237.18H247.18V11.9336L237.18 11.9336ZM237.18 17.3477V7.34766H229.961V17.3477V27.3477H237.18V17.3477ZM229.961 17.3477L219.997 18.2002C220.306 21.8092 221.526 25.7441 224.233 29.2653C226.973 32.8285 230.822 35.4276 235.497 36.9524L238.598 27.4453L241.699 17.9382C241.01 17.7137 240.608 17.4865 240.396 17.3422C240.191 17.2021 240.112 17.1052 240.088 17.0746C240.062 17.0401 239.96 16.9037 239.925 16.4952L229.961 17.3477ZM238.598 27.4453L230.122 22.1391L226.813 27.4243L235.289 32.7305L243.765 38.0367L247.074 32.7515L238.598 27.4453ZM235.289 32.7305L238.132 23.143C237.199 22.8663 236.636 22.5185 236.281 22.2254C235.922 21.9295 235.606 21.55 235.328 21.0237L226.481 25.6836L217.633 30.3435C220.569 35.9188 225.553 40.274 232.447 42.318L235.289 32.7305ZM226.481 25.6836L217.515 21.2547C216.89 22.5204 216.036 23.3743 214.351 23.8752L217.199 33.4609L220.048 43.0466C227.472 40.8405 232.548 35.9796 235.446 30.1125L226.481 25.6836ZM217.199 33.4609L225.581 28.0064L222.057 22.5923L213.676 28.0469L205.294 33.5014L208.818 38.9155L217.199 33.4609ZM213.676 28.0469L216.538 37.6287C221.608 36.1143 225.659 33.3369 228.486 29.5854C231.246 25.9231 232.438 21.8708 232.782 18.3077L222.828 17.3477L212.874 16.3876C212.81 17.057 212.627 17.3982 212.513 17.5494C212.456 17.6258 212.354 17.7403 212.146 17.8813C211.932 18.026 211.524 18.253 210.814 18.4651L213.676 28.0469ZM222.828 17.3477V7.34766H215.566V17.3477V27.3477H222.828V17.3477ZM215.566 17.3477H225.566V11.9336H215.566H205.566V17.3477H215.566ZM215.566 11.9336V21.9336H237.18V11.9336V1.93359L215.566 1.93359V11.9336ZM247.965 35.1367H237.965V49.7461H247.965H257.965V35.1367H247.965ZM247.965 49.7461V39.7461H241.09V49.7461V59.7461H247.965V49.7461ZM241.09 49.7461H251.09V40.5937H241.09H231.09V49.7461H241.09ZM241.09 40.5937V30.5937H220.336V40.5937V50.5937H241.09V40.5937ZM220.336 40.5937H230.336V35.1367H220.336H210.336V40.5937H220.336ZM220.336 35.1367V45.1367H247.965V35.1367V25.1367H220.336V35.1367ZM247.965 10H237.965V33.6328H247.965H257.965V10H247.965ZM247.965 33.6328V23.6328H241.09V33.6328V43.6328H247.965V33.6328ZM241.09 33.6328H251.09V24.6094H241.09H231.09V33.6328H241.09ZM241.09 24.6094V14.6094H236.148V24.6094V34.6094H241.09V24.6094ZM236.148 24.6094H246.148V19.0234H236.148H226.148V24.6094H236.148ZM236.148 19.0234V29.0234H241.09V19.0234V9.02344L236.148 9.02344V19.0234ZM241.09 19.0234H251.09V10H241.09L231.09 10V19.0234H241.09ZM241.09 10V20H247.965V10V0L241.09 0V10ZM285.691 10.0859H295.691C295.691 4.56309 291.214 0.0859375 285.691 0.0859375V10.0859ZM285.691 38.3164V48.3164C291.214 48.3164 295.691 43.8393 295.691 38.3164H285.691ZM278.773 38.3164H268.773C268.773 43.8393 273.251 48.3164 278.773 48.3164V38.3164ZM278.773 10.0859V0.0859375C273.251 0.0859375 268.773 4.56309 268.773 10.0859H278.773ZM286.637 43.6875H296.637C296.637 38.1647 292.16 33.6875 286.637 33.6875V43.6875ZM286.637 49.1875V59.1875C292.16 59.1875 296.637 54.7103 296.637 49.1875H286.637ZM258.492 49.1875H248.492C248.492 54.7103 252.969 59.1875 258.492 59.1875V49.1875ZM258.492 35.4805V25.4805C252.969 25.4805 248.492 29.9576 248.492 35.4805H258.492ZM265.453 35.4805H275.453C275.453 29.9576 270.976 25.4805 265.453 25.4805V35.4805ZM265.453 43.6875H255.453C255.453 49.2103 259.93 53.6875 265.453 53.6875V43.6875ZM252.606 22.6328L262.605 22.7042C262.606 22.6561 262.606 22.608 262.605 22.5598L252.606 22.6328ZM285.691 10.0859H275.691V38.3164H285.691H295.691V10.0859H285.691ZM285.691 38.3164V28.3164H278.773V38.3164V48.3164H285.691V38.3164ZM278.773 38.3164H288.773V10.0859H278.773H268.773V38.3164H278.773ZM278.773 10.0859V20.0859H285.691V10.0859V0.0859375H278.773V10.0859ZM286.637 43.6875H276.637V49.1875H286.637H296.637V43.6875H286.637ZM286.637 49.1875V39.1875H258.492V49.1875V59.1875H286.637V49.1875ZM258.492 49.1875H268.492V35.4805H258.492H248.492V49.1875H258.492ZM258.492 35.4805V45.4805H265.453V35.4805V25.4805H258.492V35.4805ZM265.453 35.4805H255.453V43.6875H265.453H275.453V35.4805H265.453ZM265.453 43.6875V53.6875H286.637V43.6875V33.6875H265.453V43.6875ZM263.734 12.4492V22.4492C264.52 22.4492 264.872 22.7145 264.925 22.7625C264.951 22.7856 264.923 22.7678 264.892 22.6996C264.857 22.6226 264.863 22.582 264.863 22.6328H274.863H284.863C284.863 10.2688 274.439 2.44922 263.734 2.44922V12.4492ZM274.863 22.6328H264.863C264.863 22.7467 264.845 22.7399 264.875 22.6728C264.902 22.6131 264.929 22.5906 264.914 22.6043C264.883 22.6322 264.546 22.9023 263.734 22.9023V32.9023V42.9023C274.469 42.9023 284.863 35.0994 284.863 22.6328H274.863ZM263.734 32.9023V22.9023C262.916 22.9023 262.564 22.6277 262.529 22.5954C262.513 22.5816 262.548 22.6101 262.581 22.6851C262.619 22.7686 262.605 22.7961 262.605 22.7042L252.606 22.6328L242.606 22.5614C242.516 35.147 253.073 42.9023 263.734 42.9023V32.9023ZM252.606 22.6328L262.605 22.5598C262.605 22.5318 262.606 22.5937 262.564 22.6872C262.526 22.7708 262.492 22.7945 262.518 22.7714C262.576 22.7191 262.942 22.4492 263.734 22.4492V12.4492V2.44922C253.104 2.44922 242.515 10.2208 242.606 22.7058L252.606 22.6328ZM263.734 18.4219V8.42187C260.685 8.42187 256.985 9.281 253.918 12.0143C250.681 14.899 249.309 18.8404 249.309 22.6328H259.309H269.309C269.309 23.6323 268.882 25.4682 267.224 26.9457C265.736 28.2717 264.249 28.4219 263.734 28.4219V18.4219ZM259.309 22.6328H249.309C249.309 26.3614 250.597 30.361 253.89 33.3174C257.008 36.1181 260.757 36.9297 263.734 36.9297V26.9297V16.9297C264.177 16.9297 265.712 17.0538 267.252 18.4365C268.965 19.9749 269.309 21.8261 269.309 22.6328H259.309ZM263.734 26.9297V36.9297C266.766 36.9297 270.482 36.0539 273.542 33.2485C276.749 30.3089 278.031 26.3568 278.031 22.6328H268.031H258.031C258.031 21.8307 258.368 20.027 260.028 18.5054C261.542 17.118 263.109 16.9297 263.734 16.9297V26.9297ZM268.031 22.6328H278.031C278.031 18.8465 276.667 14.9508 273.514 12.0829C270.507 9.347 266.839 8.42187 263.734 8.42187V18.4219V28.4219C263.037 28.4219 261.516 28.2057 260.056 26.8771C258.45 25.4164 258.031 23.6261 258.031 22.6328H268.031Z" fill="white" mask="url(#path-1-outside-1_3990_1485)"/>
</g>
<defs>
<filter id="filter0_d_3990_1485" x="0" y="0" width="300.637" height="67.875" filterUnits="userSpaceOnUse" color-interpolation-filters="sRGB">
<feFlood flood-opacity="0" result="BackgroundImageFix"/>
<feColorMatrix in="SourceAlpha" type="matrix" values="0 0 0 0 0 0 0 0 0 0 0 0 0 0 0 0 0 0 127 0" result="hardAlpha"/>
<feOffset dy="4"/>
<feGaussianBlur stdDeviation="2"/>
<feComposite in2="hardAlpha" operator="out"/>
<feColorMatrix type="matrix" values="0 0 0 0 0 0 0 0 0 0 0 0 0 0 0 0 0 0 0.07 0"/>
<feBlend mode="normal" in2="BackgroundImageFix" result="effect1_dropShadow_3990_1485"/>
<feBlend mode="normal" in="SourceGraphic" in2="effect1_dropShadow_3990_1485" result="shape"/>
</filter>
</defs>
</svg>
