<svg width="341" height="68" viewBox="0 0 341 68" fill="none" xmlns="http://www.w3.org/2000/svg">
<g filter="url(#filter0_d_3990_1455)">
<mask id="path-1-outside-1_3990_1455" maskUnits="userSpaceOnUse" x="3.96875" y="-0.464844" width="333" height="61" fill="black">
<rect fill="white" x="3.96875" y="-0.464844" width="333" height="61"/>
<path d="M47.6875 10.1289V40.3359H40.8125V33.5469H36.4297V28.1328H40.8125V25.0391H36.4297V19.5391H40.8125V10.1289L47.6875 10.1289ZM35.7852 13.8672V19.1953H14V13.8672H21.8203V10H28.6953V13.8672H35.7852ZM25.1719 20.0977C30.7148 20.0977 34.7969 23.4492 34.7969 28.0469C34.7969 32.6875 30.7148 35.9531 25.1719 35.9531C19.7578 35.9531 15.6328 32.6875 15.6758 28.0469C15.6328 23.4492 19.7578 20.0977 25.1719 20.0977ZM25.1719 25.3828C23.3672 25.4258 22.0781 26.2422 22.0781 28.0469C22.0781 29.9805 23.3672 30.7539 25.1719 30.7539C26.9336 30.7539 28.3516 29.9805 28.3516 28.0469C28.3516 26.2422 26.9336 25.4258 25.1719 25.3828ZM48.5039 43.7305V49.2305H20.7461V37.8438H27.75V43.7305H48.5039ZM85.3711 10.043V29.8516H78.4961V10.043H85.3711ZM85.4141 31.4414V42.957H65.0898V44.2891H86.2734V49.6172H58.3438V37.9727H78.5391V36.6836H58.2578V31.4414H85.4141ZM67.8398 13.8242C67.7969 18.1641 69.8164 22.5469 76.6914 24.3945L73.3828 29.6797C68.957 28.498 66.0352 26.0918 64.2734 22.9766C62.4688 26.3926 59.418 29.0781 54.7773 30.3242L51.4258 24.9531C58.4727 23.0195 60.6211 18.207 60.6641 13.8242V10.7734H67.8398V13.8242ZM121.723 10.043V18.1211H126.664V23.75H121.723V32.043H114.805V10.043H121.723ZM110.422 12.2344C110.422 23.0625 103.977 30.1523 91.9453 33.2891L89.2383 27.7891C97.5312 25.877 101.871 22.0527 102.816 17.6484H91.3008V12.2344L110.422 12.2344ZM121.723 33.332V49.3594H95.2109V33.332H121.723ZM102.043 38.832V44.0312H114.934V38.832H102.043ZM159.75 10.043V18.8516H164.691V24.5234H159.75V32.9883H152.832V10.043H159.75ZM148.406 12.1055C148.406 23.0625 141.961 30.2383 129.93 33.1602L127.094 27.9609C135.602 25.9414 139.963 21.9883 140.887 17.5195H129.328V12.1055H148.406ZM159.75 34.4922V49.7891H152.832V39.9062L132.551 39.9062V34.4922L159.75 34.4922ZM199.539 10.043V49.918H192.578V10.043H199.539ZM177.711 12.707C183.77 12.6641 188.324 18.25 188.324 27.0156C188.324 35.9102 183.77 41.4531 177.711 41.4531C171.523 41.4531 166.926 35.9102 166.926 27.0156C166.926 18.25 171.523 12.6641 177.711 12.707ZM177.711 18.9375C175.176 18.8945 173.586 21.5156 173.586 27.0156C173.586 32.6016 175.176 35.1367 177.711 35.1367C180.074 35.1367 181.707 32.6016 181.707 27.0156C181.707 21.5156 180.074 18.8945 177.711 18.9375ZM247.793 10.1289V49.7461H240.832V10.1289H247.793ZM213.547 30.582C221.152 30.582 230.734 30.7109 239.328 29.5937L239.672 34.5781C236.449 35.1582 233.227 35.502 230.09 35.7383V48.5859H223.129V36.0391C220.057 36.125 217.07 36.125 214.277 36.125L213.547 30.582ZM238.598 22.2891V27.7461H227.555V12.5781H238.426V18.0352H234.301V22.2891H238.598ZM225.836 12.5781V18.0352H222.098V22.2891C223.408 22.2031 224.676 22.0312 226.137 21.7305L226.48 27.1016C223.473 27.7031 221.109 27.7461 217.414 27.7461H215.266V12.5781H225.836ZM262.746 12.707C268.053 12.6641 272.092 16.9395 273.059 23.8789H278.688V10.043H285.52V49.918H278.688V29.3789H273.145C272.414 36.877 268.246 41.4531 262.746 41.4531C256.602 41.4531 252.176 35.9102 252.176 27.0156C252.176 18.25 256.602 12.6641 262.746 12.707ZM262.746 18.9375C260.383 18.8945 258.75 21.5156 258.793 27.0156C258.75 32.6016 260.383 35.1367 262.746 35.1367C265.152 35.1367 266.699 32.6016 266.699 27.0156C266.699 21.5156 265.152 18.8945 262.746 18.9375ZM297.938 12.5781V26.7578C302.32 26.6719 307.09 26.3281 311.988 25.2969L312.762 30.8828C306.402 32.1719 300.129 32.4727 294.586 32.4727H291.02V12.5781H297.938ZM321.441 10.1289V20.8711H326.383V26.5859H321.441V38.5312H314.523V10.1289H321.441ZM322.645 43.7305V49.2305H295.059V35.9961H302.02V43.7305H322.645Z"/>
</mask>
<path d="M47.6875 10.1289V40.3359H40.8125V33.5469H36.4297V28.1328H40.8125V25.0391H36.4297V19.5391H40.8125V10.1289L47.6875 10.1289ZM35.7852 13.8672V19.1953H14V13.8672H21.8203V10H28.6953V13.8672H35.7852ZM25.1719 20.0977C30.7148 20.0977 34.7969 23.4492 34.7969 28.0469C34.7969 32.6875 30.7148 35.9531 25.1719 35.9531C19.7578 35.9531 15.6328 32.6875 15.6758 28.0469C15.6328 23.4492 19.7578 20.0977 25.1719 20.0977ZM25.1719 25.3828C23.3672 25.4258 22.0781 26.2422 22.0781 28.0469C22.0781 29.9805 23.3672 30.7539 25.1719 30.7539C26.9336 30.7539 28.3516 29.9805 28.3516 28.0469C28.3516 26.2422 26.9336 25.4258 25.1719 25.3828ZM48.5039 43.7305V49.2305H20.7461V37.8438H27.75V43.7305H48.5039ZM85.3711 10.043V29.8516H78.4961V10.043H85.3711ZM85.4141 31.4414V42.957H65.0898V44.2891H86.2734V49.6172H58.3438V37.9727H78.5391V36.6836H58.2578V31.4414H85.4141ZM67.8398 13.8242C67.7969 18.1641 69.8164 22.5469 76.6914 24.3945L73.3828 29.6797C68.957 28.498 66.0352 26.0918 64.2734 22.9766C62.4688 26.3926 59.418 29.0781 54.7773 30.3242L51.4258 24.9531C58.4727 23.0195 60.6211 18.207 60.6641 13.8242V10.7734H67.8398V13.8242ZM121.723 10.043V18.1211H126.664V23.75H121.723V32.043H114.805V10.043H121.723ZM110.422 12.2344C110.422 23.0625 103.977 30.1523 91.9453 33.2891L89.2383 27.7891C97.5312 25.877 101.871 22.0527 102.816 17.6484H91.3008V12.2344L110.422 12.2344ZM121.723 33.332V49.3594H95.2109V33.332H121.723ZM102.043 38.832V44.0312H114.934V38.832H102.043ZM159.75 10.043V18.8516H164.691V24.5234H159.75V32.9883H152.832V10.043H159.75ZM148.406 12.1055C148.406 23.0625 141.961 30.2383 129.93 33.1602L127.094 27.9609C135.602 25.9414 139.963 21.9883 140.887 17.5195H129.328V12.1055H148.406ZM159.75 34.4922V49.7891H152.832V39.9062L132.551 39.9062V34.4922L159.75 34.4922ZM199.539 10.043V49.918H192.578V10.043H199.539ZM177.711 12.707C183.77 12.6641 188.324 18.25 188.324 27.0156C188.324 35.9102 183.77 41.4531 177.711 41.4531C171.523 41.4531 166.926 35.9102 166.926 27.0156C166.926 18.25 171.523 12.6641 177.711 12.707ZM177.711 18.9375C175.176 18.8945 173.586 21.5156 173.586 27.0156C173.586 32.6016 175.176 35.1367 177.711 35.1367C180.074 35.1367 181.707 32.6016 181.707 27.0156C181.707 21.5156 180.074 18.8945 177.711 18.9375ZM247.793 10.1289V49.7461H240.832V10.1289H247.793ZM213.547 30.582C221.152 30.582 230.734 30.7109 239.328 29.5937L239.672 34.5781C236.449 35.1582 233.227 35.502 230.09 35.7383V48.5859H223.129V36.0391C220.057 36.125 217.07 36.125 214.277 36.125L213.547 30.582ZM238.598 22.2891V27.7461H227.555V12.5781H238.426V18.0352H234.301V22.2891H238.598ZM225.836 12.5781V18.0352H222.098V22.2891C223.408 22.2031 224.676 22.0312 226.137 21.7305L226.48 27.1016C223.473 27.7031 221.109 27.7461 217.414 27.7461H215.266V12.5781H225.836ZM262.746 12.707C268.053 12.6641 272.092 16.9395 273.059 23.8789H278.688V10.043H285.52V49.918H278.688V29.3789H273.145C272.414 36.877 268.246 41.4531 262.746 41.4531C256.602 41.4531 252.176 35.9102 252.176 27.0156C252.176 18.25 256.602 12.6641 262.746 12.707ZM262.746 18.9375C260.383 18.8945 258.75 21.5156 258.793 27.0156C258.75 32.6016 260.383 35.1367 262.746 35.1367C265.152 35.1367 266.699 32.6016 266.699 27.0156C266.699 21.5156 265.152 18.8945 262.746 18.9375ZM297.938 12.5781V26.7578C302.32 26.6719 307.09 26.3281 311.988 25.2969L312.762 30.8828C306.402 32.1719 300.129 32.4727 294.586 32.4727H291.02V12.5781H297.938ZM321.441 10.1289V20.8711H326.383V26.5859H321.441V38.5312H314.523V10.1289H321.441ZM322.645 43.7305V49.2305H295.059V35.9961H302.02V43.7305H322.645Z" fill="#11DCA9"/>
<path d="M47.6875 10.1289H57.6875C57.6875 4.60606 53.2103 0.128906 47.6875 0.128906V10.1289ZM47.6875 40.3359V50.3359C53.2103 50.3359 57.6875 45.8588 57.6875 40.3359H47.6875ZM40.8125 40.3359H30.8125C30.8125 45.8588 35.2897 50.3359 40.8125 50.3359V40.3359ZM40.8125 33.5469H50.8125C50.8125 28.024 46.3353 23.5469 40.8125 23.5469V33.5469ZM36.4297 33.5469H26.4297C26.4297 39.0697 30.9068 43.5469 36.4297 43.5469V33.5469ZM36.4297 28.1328V18.1328C30.9068 18.1328 26.4297 22.61 26.4297 28.1328H36.4297ZM40.8125 28.1328V38.1328C46.3353 38.1328 50.8125 33.6557 50.8125 28.1328H40.8125ZM40.8125 25.0391H50.8125C50.8125 19.5162 46.3353 15.0391 40.8125 15.0391V25.0391ZM36.4297 25.0391H26.4297C26.4297 30.5619 30.9068 35.0391 36.4297 35.0391V25.0391ZM36.4297 19.5391V9.53906C30.9068 9.53906 26.4297 14.0162 26.4297 19.5391H36.4297ZM40.8125 19.5391V29.5391C46.3353 29.5391 50.8125 25.0619 50.8125 19.5391H40.8125ZM40.8125 10.1289V0.128906C35.2897 0.128906 30.8125 4.60606 30.8125 10.1289H40.8125ZM35.7852 13.8672H45.7852C45.7852 8.34434 41.308 3.86719 35.7852 3.86719V13.8672ZM35.7852 19.1953V29.1953C41.308 29.1953 45.7852 24.7182 45.7852 19.1953H35.7852ZM14 19.1953H4C4 24.7182 8.47715 29.1953 14 29.1953V19.1953ZM14 13.8672V3.86719C8.47715 3.86719 4 8.34434 4 13.8672H14ZM21.8203 13.8672V23.8672C27.3432 23.8672 31.8203 19.39 31.8203 13.8672H21.8203ZM21.8203 10V0C16.2975 0 11.8203 4.47715 11.8203 10H21.8203ZM28.6953 10H38.6953C38.6953 4.47715 34.2182 0 28.6953 0V10ZM28.6953 13.8672H18.6953C18.6953 19.39 23.1725 23.8672 28.6953 23.8672V13.8672ZM15.6758 28.0469L25.6754 28.1395C25.6759 28.0775 25.6759 28.0154 25.6753 27.9534L15.6758 28.0469ZM25.1719 25.3828L25.4157 15.3858C25.2551 15.3819 25.0944 15.3818 24.9338 15.3856L25.1719 25.3828ZM48.5039 43.7305H58.5039C58.5039 38.2076 54.0268 33.7305 48.5039 33.7305V43.7305ZM48.5039 49.2305V59.2305C54.0268 59.2305 58.5039 54.7533 58.5039 49.2305H48.5039ZM20.7461 49.2305H10.7461C10.7461 54.7533 15.2232 59.2305 20.7461 59.2305V49.2305ZM20.7461 37.8438V27.8438C15.2232 27.8438 10.7461 32.3209 10.7461 37.8438H20.7461ZM27.75 37.8438H37.75C37.75 32.3209 33.2728 27.8438 27.75 27.8438V37.8438ZM27.75 43.7305H17.75C17.75 49.2533 22.2272 53.7305 27.75 53.7305V43.7305ZM47.6875 10.1289L37.6875 10.1289V40.3359H47.6875H57.6875V10.1289H47.6875ZM47.6875 40.3359V30.3359H40.8125V40.3359V50.3359H47.6875V40.3359ZM40.8125 40.3359H50.8125V33.5469H40.8125H30.8125V40.3359H40.8125ZM40.8125 33.5469V23.5469H36.4297V33.5469V43.5469H40.8125V33.5469ZM36.4297 33.5469H46.4297V28.1328H36.4297H26.4297V33.5469H36.4297ZM36.4297 28.1328V38.1328H40.8125V28.1328V18.1328H36.4297V28.1328ZM40.8125 28.1328H50.8125V25.0391H40.8125H30.8125V28.1328H40.8125ZM40.8125 25.0391V15.0391H36.4297V25.0391V35.0391H40.8125V25.0391ZM36.4297 25.0391H46.4297V19.5391H36.4297H26.4297V25.0391H36.4297ZM36.4297 19.5391V29.5391H40.8125V19.5391V9.53906H36.4297V19.5391ZM40.8125 19.5391H50.8125V10.1289L40.8125 10.1289H30.8125V19.5391H40.8125ZM40.8125 10.1289V20.1289H47.6875V10.1289V0.128906H40.8125V10.1289ZM35.7852 13.8672H25.7852V19.1953H35.7852H45.7852V13.8672H35.7852ZM35.7852 19.1953V9.19531H14V19.1953V29.1953H35.7852V19.1953ZM14 19.1953H24V13.8672H14H4V19.1953H14ZM14 13.8672V23.8672H21.8203V13.8672V3.86719H14V13.8672ZM21.8203 13.8672H31.8203V10H21.8203H11.8203V13.8672H21.8203ZM21.8203 10V20H28.6953V10V0H21.8203V10ZM28.6953 10H18.6953V13.8672H28.6953H38.6953V10H28.6953ZM28.6953 13.8672V23.8672H35.7852V13.8672V3.86719L28.6953 3.86719V13.8672ZM25.1719 20.0977V30.0977C25.9738 30.0977 26.0332 30.3373 25.7017 30.064C25.5285 29.9211 25.2847 29.6588 25.0871 29.2542C24.8838 28.838 24.7969 28.4072 24.7969 28.0469H34.7969H44.7969C44.7969 16.2071 34.345 10.0977 25.1719 10.0977V20.0977ZM34.7969 28.0469H24.7969C24.7969 27.7101 24.8783 27.2776 25.0908 26.8435C25.2977 26.4206 25.5568 26.1423 25.7452 25.9888C26.1006 25.6991 26.0372 25.9531 25.1719 25.9531V35.9531V45.9531C34.229 45.9531 44.7969 40.0247 44.7969 28.0469H34.7969ZM25.1719 35.9531V25.9531C24.4156 25.9531 24.3726 25.7241 24.7191 26.0083C24.905 26.1608 25.1667 26.4413 25.3766 26.874C25.5933 27.3204 25.6787 27.7741 25.6754 28.1395L15.6758 28.0469L5.67621 27.9543C5.56464 40.0036 16.2481 45.9531 25.1719 45.9531V35.9531ZM15.6758 28.0469L25.6753 27.9534C25.679 28.3429 25.5877 28.7953 25.3802 29.2237C25.1796 29.6381 24.9332 29.9027 24.7626 30.0443C24.4407 30.3113 24.4795 30.0977 25.1719 30.0977V20.0977V10.0977C16.132 10.0977 5.56489 16.2284 5.67622 28.1403L15.6758 28.0469ZM25.1719 25.3828L24.9338 15.3856C22.7732 15.4371 19.583 15.957 16.7294 18.2231C13.4915 20.7944 12.0781 24.5006 12.0781 28.0469H22.0781H32.0781C32.0781 29.7885 31.3093 32.1842 29.1671 33.8853C27.4092 35.2813 25.7658 35.3715 25.4099 35.38L25.1719 25.3828ZM22.0781 28.0469H12.0781C12.0781 31.4249 13.3333 35.2597 16.7294 37.9566C19.7235 40.3343 23.0635 40.7539 25.1719 40.7539V30.7539V20.7539C25.4756 20.7539 27.2686 20.7868 29.1671 22.2944C31.4675 24.1212 32.0781 26.6025 32.0781 28.0469H22.0781ZM25.1719 30.7539V40.7539C27.306 40.7539 30.5298 40.3153 33.4581 38.0986C36.8239 35.5506 38.3516 31.7573 38.3516 28.0469H28.3516H18.3516C18.3516 27.2985 18.493 26.2323 19.0379 25.0625C19.5957 23.8652 20.4307 22.8761 21.3867 22.1524C23.1655 20.8058 24.7995 20.7539 25.1719 20.7539V30.7539ZM28.3516 28.0469H38.3516C38.3516 24.1632 36.6475 20.4955 33.4581 18.0811C30.6695 15.9701 27.5888 15.4388 25.4157 15.3858L25.1719 25.3828L24.928 35.3798C24.5167 35.3698 23.0258 35.2681 21.3867 34.0273C20.5061 33.3607 19.6804 32.4263 19.1041 31.2376C18.532 30.0575 18.3516 28.9291 18.3516 28.0469H28.3516ZM48.5039 43.7305H38.5039V49.2305H48.5039H58.5039V43.7305H48.5039ZM48.5039 49.2305V39.2305H20.7461V49.2305V59.2305H48.5039V49.2305ZM20.7461 49.2305H30.7461V37.8438H20.7461H10.7461V49.2305H20.7461ZM20.7461 37.8438V47.8438H27.75V37.8438V27.8438H20.7461V37.8438ZM27.75 37.8438H17.75V43.7305H27.75H37.75V37.8438H27.75ZM27.75 43.7305V53.7305H48.5039V43.7305V33.7305H27.75V43.7305ZM85.3711 10.043H95.3711C95.3711 4.52012 90.8939 0.0429687 85.3711 0.0429687V10.043ZM85.3711 29.8516V39.8516C90.8939 39.8516 95.3711 35.3744 95.3711 29.8516H85.3711ZM78.4961 29.8516H68.4961C68.4961 35.3744 72.9732 39.8516 78.4961 39.8516V29.8516ZM78.4961 10.043V0.0429687C72.9732 0.0429687 68.4961 4.52012 68.4961 10.043H78.4961ZM85.4141 31.4414H95.4141C95.4141 25.9186 90.9369 21.4414 85.4141 21.4414V31.4414ZM85.4141 42.957V52.957C90.9369 52.957 95.4141 48.4799 95.4141 42.957H85.4141ZM65.0898 42.957V32.957C59.567 32.957 55.0898 37.4342 55.0898 42.957H65.0898ZM65.0898 44.2891H55.0898C55.0898 49.8119 59.567 54.2891 65.0898 54.2891V44.2891ZM86.2734 44.2891H96.2734C96.2734 38.7662 91.7963 34.2891 86.2734 34.2891V44.2891ZM86.2734 49.6172V59.6172C91.7963 59.6172 96.2734 55.14 96.2734 49.6172H86.2734ZM58.3438 49.6172H48.3438C48.3438 55.14 52.8209 59.6172 58.3438 59.6172V49.6172ZM58.3438 37.9727V27.9727C52.8209 27.9727 48.3438 32.4498 48.3438 37.9727H58.3438ZM78.5391 37.9727V47.9727C84.0619 47.9727 88.5391 43.4955 88.5391 37.9727H78.5391ZM78.5391 36.6836H88.5391C88.5391 31.1607 84.0619 26.6836 78.5391 26.6836V36.6836ZM58.2578 36.6836H48.2578C48.2578 42.2064 52.735 46.6836 58.2578 46.6836V36.6836ZM58.2578 31.4414V21.4414C52.735 21.4414 48.2578 25.9186 48.2578 31.4414H58.2578ZM67.8398 13.8242L77.8394 13.9232C77.8397 13.8902 77.8398 13.8572 77.8398 13.8242L67.8398 13.8242ZM76.6914 24.3945L85.1675 29.7007C86.8498 27.0134 87.1581 23.6876 85.9985 20.7368C84.8388 17.7861 82.3486 15.5601 79.2868 14.7372L76.6914 24.3945ZM73.3828 29.6797L70.8033 39.3413C75.045 40.4738 79.5293 38.7072 81.8589 34.9859L73.3828 29.6797ZM64.2734 22.9766L72.9779 18.054C71.1783 14.8718 67.7857 12.9252 64.1302 12.9776C60.4748 13.0299 57.1392 15.0729 55.4315 18.3054L64.2734 22.9766ZM54.7773 30.3242L46.2935 35.6181C48.6234 39.3518 53.1203 41.1234 57.3707 39.9821L54.7773 30.3242ZM51.4258 24.9531L48.7797 15.3096C45.7336 16.1454 43.2615 18.3712 42.1118 21.3131C40.962 24.2551 41.2698 27.5673 42.942 30.247L51.4258 24.9531ZM60.6641 13.8242L70.6636 13.9223C70.6639 13.8896 70.6641 13.8569 70.6641 13.8242H60.6641ZM60.6641 10.7734V0.773437C55.1412 0.773437 50.6641 5.25059 50.6641 10.7734H60.6641ZM67.8398 10.7734H77.8398C77.8398 5.25059 73.3627 0.773437 67.8398 0.773437V10.7734ZM85.3711 10.043H75.3711V29.8516H85.3711H95.3711V10.043H85.3711ZM85.3711 29.8516V19.8516H78.4961V29.8516V39.8516H85.3711V29.8516ZM78.4961 29.8516H88.4961V10.043H78.4961H68.4961V29.8516H78.4961ZM78.4961 10.043V20.043H85.3711V10.043V0.0429687L78.4961 0.0429687V10.043ZM85.4141 31.4414H75.4141V42.957H85.4141H95.4141V31.4414H85.4141ZM85.4141 42.957V32.957H65.0898V42.957V52.957H85.4141V42.957ZM65.0898 42.957H55.0898V44.2891H65.0898H75.0898V42.957H65.0898ZM65.0898 44.2891V54.2891H86.2734V44.2891V34.2891H65.0898V44.2891ZM86.2734 44.2891H76.2734V49.6172H86.2734H96.2734V44.2891H86.2734ZM86.2734 49.6172V39.6172H58.3438V49.6172V59.6172H86.2734V49.6172ZM58.3438 49.6172H68.3438V37.9727H58.3438H48.3438V49.6172H58.3438ZM58.3438 37.9727V47.9727H78.5391V37.9727V27.9727L58.3438 27.9727V37.9727ZM78.5391 37.9727H88.5391V36.6836H78.5391H68.5391V37.9727H78.5391ZM78.5391 36.6836V26.6836L58.2578 26.6836V36.6836V46.6836H78.5391V36.6836ZM58.2578 36.6836H68.2578V31.4414H58.2578H48.2578V36.6836H58.2578ZM58.2578 31.4414V41.4414H85.4141V31.4414V21.4414L58.2578 21.4414V31.4414ZM67.8398 13.8242L57.8403 13.7252C57.8034 17.4576 58.6568 21.8993 61.583 25.9243C64.5534 30.01 68.9306 32.6637 74.096 34.0519L76.6914 24.3945L79.2868 14.7372C78.403 14.4997 77.9576 14.2566 77.7875 14.1478C77.6352 14.0505 77.6718 14.0427 77.7598 14.1636C77.9681 14.4503 77.8333 14.5307 77.8394 13.9232L67.8398 13.8242ZM76.6914 24.3945L68.2153 19.0883L64.9067 24.3735L73.3828 29.6797L81.8589 34.9859L85.1675 29.7007L76.6914 24.3945ZM73.3828 29.6797L75.9624 20.0181C74.871 19.7267 74.2357 19.361 73.8655 19.0806C73.5025 18.8058 73.2203 18.4825 72.9779 18.054L64.2734 22.9766L55.5689 27.8991C58.7264 33.4825 63.9301 37.5062 70.8033 39.3413L73.3828 29.6797ZM64.2734 22.9766L55.4315 18.3054C55.1213 18.8924 54.7615 19.3199 54.3435 19.6541C53.9283 19.9862 53.2702 20.3747 52.184 20.6663L54.7773 30.3242L57.3707 39.9821C64.7107 38.0112 70.0184 33.5098 73.1154 27.6478L64.2734 22.9766ZM54.7773 30.3242L63.2611 25.0303L59.9096 19.6592L51.4258 24.9531L42.942 30.247L46.2935 35.6181L54.7773 30.3242ZM51.4258 24.9531L54.0719 34.5967C59.4821 33.1122 63.8636 30.2426 66.8087 26.1195C69.6811 22.0981 70.6268 17.6725 70.6636 13.9223L60.6641 13.8242L50.6645 13.7262C50.6615 14.032 50.622 14.2413 50.5873 14.3612C50.5707 14.4185 50.5561 14.4528 50.5482 14.4695C50.5407 14.4852 50.5362 14.4918 50.5341 14.4947C50.5324 14.4971 50.5229 14.5105 50.4967 14.5357C50.4704 14.561 50.4128 14.6123 50.3075 14.6821C50.1017 14.8187 49.6423 15.0729 48.7797 15.3096L51.4258 24.9531ZM60.6641 13.8242H70.6641V10.7734H60.6641H50.6641V13.8242H60.6641ZM60.6641 10.7734V20.7734H67.8398V10.7734V0.773437L60.6641 0.773437V10.7734ZM67.8398 10.7734H57.8398V13.8242H67.8398L77.8398 13.8242V10.7734H67.8398ZM121.723 10.043H131.723C131.723 4.52012 127.246 0.0429687 121.723 0.0429687V10.043ZM121.723 18.1211H111.723C111.723 23.6439 116.2 28.1211 121.723 28.1211V18.1211ZM126.664 18.1211H136.664C136.664 12.5982 132.187 8.12109 126.664 8.12109V18.1211ZM126.664 23.75V33.75C132.187 33.75 136.664 29.2728 136.664 23.75H126.664ZM121.723 23.75V13.75C116.2 13.75 111.723 18.2272 111.723 23.75H121.723ZM121.723 32.043V42.043C127.246 42.043 131.723 37.5658 131.723 32.043H121.723ZM114.805 32.043H104.805C104.805 37.5658 109.282 42.043 114.805 42.043V32.043ZM114.805 10.043V0.0429687C109.282 0.0429687 104.805 4.52012 104.805 10.043L114.805 10.043ZM110.422 12.2344H120.422C120.422 6.71153 115.945 2.23437 110.422 2.23437V12.2344ZM91.9453 33.2891L82.9732 37.705C85.07 41.9652 89.8735 44.1635 94.4681 42.9656L91.9453 33.2891ZM89.2383 27.7891L86.9915 18.0447C84.0152 18.731 81.5157 20.7398 80.2053 23.4989C78.8949 26.2579 78.9173 29.4646 80.2661 32.205L89.2383 27.7891ZM102.816 17.6484L112.594 19.747C113.228 16.7937 112.493 13.7122 110.594 11.363C108.696 9.0137 105.837 7.64844 102.816 7.64844V17.6484ZM91.3008 17.6484H81.3008C81.3008 23.1713 85.7779 27.6484 91.3008 27.6484V17.6484ZM91.3008 12.2344V2.23437C85.7779 2.23437 81.3008 6.71153 81.3008 12.2344H91.3008ZM121.723 33.332H131.723C131.723 27.8092 127.246 23.332 121.723 23.332V33.332ZM121.723 49.3594V59.3594C127.246 59.3594 131.723 54.8822 131.723 49.3594H121.723ZM95.2109 49.3594H85.2109C85.2109 54.8822 89.6881 59.3594 95.2109 59.3594V49.3594ZM95.2109 33.332V23.332C89.6881 23.332 85.2109 27.8092 85.2109 33.332H95.2109ZM102.043 38.832V28.832C96.5201 28.832 92.043 33.3092 92.043 38.832H102.043ZM102.043 44.0312H92.043C92.043 49.5541 96.5201 54.0312 102.043 54.0312V44.0312ZM114.934 44.0312V54.0312C120.456 54.0312 124.934 49.5541 124.934 44.0312H114.934ZM114.934 38.832H124.934C124.934 33.3092 120.456 28.832 114.934 28.832V38.832ZM121.723 10.043H111.723V18.1211H121.723H131.723V10.043H121.723ZM121.723 18.1211V28.1211H126.664V18.1211V8.12109H121.723V18.1211ZM126.664 18.1211H116.664V23.75H126.664H136.664V18.1211H126.664ZM126.664 23.75V13.75H121.723V23.75V33.75H126.664V23.75ZM121.723 23.75H111.723V32.043H121.723H131.723V23.75H121.723ZM121.723 32.043V22.043H114.805V32.043V42.043H121.723V32.043ZM114.805 32.043H124.805V10.043H114.805L104.805 10.043V32.043H114.805ZM114.805 10.043V20.043H121.723V10.043V0.0429687L114.805 0.0429687V10.043ZM110.422 12.2344L100.422 12.2344C100.422 15.5274 99.5034 17.5544 98.2086 19.0166C96.7834 20.626 94.1488 22.3803 89.4225 23.6125L91.9453 33.2891L94.4681 42.9656C101.773 41.0611 108.377 37.7021 113.182 32.2754C118.118 26.7015 120.422 19.7695 120.422 12.2344H110.422ZM91.9453 33.2891L100.917 28.8731L98.2104 23.3731L89.2383 27.7891L80.2661 32.205L82.9732 37.705L91.9453 33.2891ZM89.2383 27.7891L91.485 37.5334C101.341 35.2609 110.446 29.7543 112.594 19.747L102.816 17.6484L93.0391 15.5499C93.1345 15.1055 93.3269 15.227 92.6355 15.7659C91.8564 16.3731 90.1608 17.314 86.9915 18.0447L89.2383 27.7891ZM102.816 17.6484V7.64844H91.3008V17.6484V27.6484H102.816V17.6484ZM91.3008 17.6484H101.301V12.2344H91.3008H81.3008V17.6484H91.3008ZM91.3008 12.2344V22.2344H110.422V12.2344V2.23437L91.3008 2.23437V12.2344ZM121.723 33.332H111.723V49.3594H121.723H131.723V33.332H121.723ZM121.723 49.3594V39.3594H95.2109V49.3594V59.3594H121.723V49.3594ZM95.2109 49.3594H105.211V33.332H95.2109H85.2109V49.3594H95.2109ZM95.2109 33.332V43.332H121.723V33.332V23.332H95.2109V33.332ZM102.043 38.832H92.043V44.0312H102.043H112.043V38.832H102.043ZM102.043 44.0312V54.0312H114.934V44.0312V34.0312H102.043V44.0312ZM114.934 44.0312H124.934V38.832H114.934H104.934V44.0312H114.934ZM114.934 38.832V28.832H102.043V38.832V48.832H114.934V38.832ZM159.75 10.043H169.75C169.75 4.52012 165.273 0.0429687 159.75 0.0429687V10.043ZM159.75 18.8516H149.75C149.75 24.3744 154.227 28.8516 159.75 28.8516V18.8516ZM164.691 18.8516H174.691C174.691 13.3287 170.214 8.85156 164.691 8.85156V18.8516ZM164.691 24.5234V34.5234C170.214 34.5234 174.691 30.0463 174.691 24.5234H164.691ZM159.75 24.5234V14.5234C154.227 14.5234 149.75 19.0006 149.75 24.5234H159.75ZM159.75 32.9883V42.9883C165.273 42.9883 169.75 38.5111 169.75 32.9883H159.75ZM152.832 32.9883H142.832C142.832 38.5111 147.309 42.9883 152.832 42.9883V32.9883ZM152.832 10.043V0.0429687C147.309 0.0429687 142.832 4.52012 142.832 10.043H152.832ZM148.406 12.1055H158.406C158.406 6.58262 153.929 2.10547 148.406 2.10547V12.1055ZM129.93 33.1602L121.151 37.9487C123.319 41.9244 127.889 43.9464 132.29 42.8777L129.93 33.1602ZM127.094 27.9609L124.784 18.2313C121.752 18.9511 119.228 21.0438 117.96 23.8907C116.691 26.7376 116.822 30.0132 118.315 32.7495L127.094 27.9609ZM140.887 17.5195L150.68 19.544C151.288 16.5991 150.54 13.5364 148.641 11.2047C146.742 8.87288 143.894 7.51953 140.887 7.51953V17.5195ZM129.328 17.5195H119.328C119.328 23.0424 123.805 27.5195 129.328 27.5195V17.5195ZM129.328 12.1055V2.10547C123.805 2.10547 119.328 6.58262 119.328 12.1055H129.328ZM159.75 34.4922H169.75C169.75 28.9693 165.273 24.4922 159.75 24.4922V34.4922ZM159.75 49.7891V59.7891C165.273 59.7891 169.75 55.3119 169.75 49.7891H159.75ZM152.832 49.7891H142.832C142.832 55.3119 147.309 59.7891 152.832 59.7891V49.7891ZM152.832 39.9062H162.832C162.832 34.3834 158.355 29.9062 152.832 29.9062V39.9062ZM132.551 39.9062H122.551C122.551 45.4291 127.028 49.9062 132.551 49.9062V39.9062ZM132.551 34.4922V24.4922C127.028 24.4922 122.551 28.9693 122.551 34.4922H132.551ZM159.75 10.043H149.75V18.8516H159.75H169.75V10.043H159.75ZM159.75 18.8516V28.8516H164.691V18.8516V8.85156H159.75V18.8516ZM164.691 18.8516H154.691V24.5234H164.691H174.691V18.8516H164.691ZM164.691 24.5234V14.5234H159.75V24.5234V34.5234H164.691V24.5234ZM159.75 24.5234H149.75V32.9883H159.75H169.75V24.5234H159.75ZM159.75 32.9883V22.9883H152.832V32.9883V42.9883H159.75V32.9883ZM152.832 32.9883H162.832V10.043H152.832H142.832V32.9883H152.832ZM152.832 10.043V20.043H159.75V10.043V0.0429687H152.832V10.043ZM148.406 12.1055H138.406C138.406 15.5048 137.463 17.5781 136.183 19.0279C134.791 20.6047 132.216 22.3142 127.57 23.4426L129.93 33.1602L132.29 42.8777C139.674 41.0843 146.338 37.7449 151.176 32.2641C156.127 26.6563 158.406 19.6632 158.406 12.1055H148.406ZM129.93 33.1602L138.709 28.3716L135.873 23.1724L127.094 27.9609L118.315 32.7495L121.151 37.9487L129.93 33.1602ZM127.094 27.9609L129.403 37.6906C139.5 35.2939 148.598 29.6131 150.68 19.544L140.887 17.5195L131.094 15.495C131.177 15.0906 131.346 15.2483 130.621 15.8229C129.809 16.4671 128.057 17.4544 124.784 18.2313L127.094 27.9609ZM140.887 17.5195V7.51953H129.328V17.5195V27.5195H140.887V17.5195ZM129.328 17.5195H139.328V12.1055H129.328H119.328V17.5195H129.328ZM129.328 12.1055V22.1055H148.406V12.1055V2.10547H129.328V12.1055ZM159.75 34.4922H149.75V49.7891H159.75H169.75V34.4922H159.75ZM159.75 49.7891V39.7891H152.832V49.7891V59.7891H159.75V49.7891ZM152.832 49.7891H162.832V39.9062H152.832H142.832V49.7891H152.832ZM152.832 39.9062V29.9062L132.551 29.9062V39.9062V49.9062L152.832 49.9062V39.9062ZM132.551 39.9062L142.551 39.9062V34.4922L132.551 34.4922H122.551V39.9062H132.551ZM132.551 34.4922V44.4922L159.75 44.4922V34.4922V24.4922H132.551V34.4922ZM199.539 10.043H209.539C209.539 4.52012 205.062 0.0429687 199.539 0.0429687V10.043ZM199.539 49.918V59.918C205.062 59.918 209.539 55.4408 209.539 49.918H199.539ZM192.578 49.918H182.578C182.578 55.4408 187.055 59.918 192.578 59.918V49.918ZM192.578 10.043V0.0429687C187.055 0.0429687 182.578 4.52012 182.578 10.043H192.578ZM177.711 12.707L177.641 22.7068C177.688 22.7071 177.735 22.7071 177.782 22.7068L177.711 12.707ZM177.711 18.9375L177.541 28.9361C177.659 28.938 177.776 28.938 177.893 28.9358L177.711 18.9375ZM199.539 10.043H189.539V49.918H199.539H209.539V10.043H199.539ZM199.539 49.918V39.918H192.578V49.918V59.918H199.539V49.918ZM192.578 49.918H202.578V10.043H192.578H182.578V49.918H192.578ZM192.578 10.043V20.043H199.539V10.043V0.0429687L192.578 0.0429687V10.043ZM177.711 12.707L177.782 22.7068C177.714 22.7073 177.545 22.6835 177.369 22.5938C177.208 22.511 177.216 22.4628 177.337 22.6211C177.608 22.9757 178.324 24.2764 178.324 27.0156H188.324H198.324C198.324 20.9893 196.764 15.1141 193.242 10.4951C189.595 5.71116 184.062 2.66174 177.64 2.70728L177.711 12.707ZM188.324 27.0156H178.324C178.324 29.8458 177.594 31.1679 177.325 31.5233C177.204 31.6821 177.193 31.637 177.347 31.5576C177.513 31.4722 177.666 31.4531 177.711 31.4531V41.4531V51.4531C184.084 51.4531 189.603 48.4264 193.254 43.6163C196.777 38.9767 198.324 33.08 198.324 27.0156H188.324ZM177.711 41.4531V31.4531C177.689 31.4531 177.794 31.4565 177.932 31.526C178.06 31.5909 178.041 31.6244 177.922 31.4694C177.656 31.1245 176.926 29.8268 176.926 27.0156H166.926H156.926C156.926 33.0989 158.494 39.02 162.074 43.6702C165.787 48.4928 171.349 51.4531 177.711 51.4531V41.4531ZM166.926 27.0156H176.926C176.926 24.2956 177.643 23.0192 177.909 22.675C178.029 22.5203 178.045 22.5569 177.91 22.6251C177.849 22.6556 177.783 22.6793 177.721 22.6937C177.659 22.7079 177.628 22.7067 177.641 22.7068L177.711 12.707L177.78 2.70727C171.371 2.66276 165.796 5.64447 162.087 10.4412C158.508 15.0706 156.926 20.97 156.926 27.0156H166.926ZM177.711 18.9375L177.88 8.93894C172.249 8.84349 168.051 12.1176 165.877 16.1866C164.036 19.633 163.586 23.5815 163.586 27.0156H173.586H183.586C183.586 26.0989 183.654 25.5327 183.707 25.2484C183.763 24.9423 183.769 25.1395 183.518 25.6093C183.252 26.1079 182.626 27.0333 181.412 27.8152C180.134 28.6385 178.737 28.9563 177.541 28.9361L177.711 18.9375ZM173.586 27.0156H163.586C163.586 30.4701 164.03 34.4374 165.885 37.8971C168.1 42.0266 172.275 45.1367 177.711 45.1367V35.1367V25.1367C178.821 25.1367 180.157 25.4395 181.404 26.2412C182.601 27.0103 183.232 27.9261 183.51 28.4447C183.769 28.9275 183.765 29.1358 183.708 28.8278C183.655 28.5407 183.586 27.9624 183.586 27.0156H173.586ZM177.711 35.1367V45.1367C183.31 45.1367 187.361 41.7724 189.437 37.8416C191.237 34.4356 191.707 30.5236 191.707 27.0156H181.707H171.707C171.707 27.9469 171.637 28.5236 171.583 28.8154C171.525 29.1272 171.516 28.9492 171.753 28.5002C172.002 28.0295 172.597 27.1281 173.769 26.3434C175.01 25.5133 176.419 25.1367 177.711 25.1367V35.1367ZM181.707 27.0156H191.707C191.707 23.5283 191.23 19.6343 189.445 16.2419C187.415 12.3823 183.336 8.83358 177.529 8.93915L177.711 18.9375L177.893 28.9358C176.507 28.961 175.032 28.5647 173.762 27.7127C172.573 26.9153 171.982 26.0044 171.745 25.5539C171.516 25.118 171.527 24.9508 171.585 25.2609C171.638 25.55 171.707 26.1145 171.707 27.0156H181.707ZM247.793 10.1289H257.793C257.793 4.60606 253.316 0.128906 247.793 0.128906V10.1289ZM247.793 49.7461V59.7461C253.316 59.7461 257.793 55.2689 257.793 49.7461H247.793ZM240.832 49.7461H230.832C230.832 55.2689 235.309 59.7461 240.832 59.7461V49.7461ZM240.832 10.1289V0.128906C235.309 0.128906 230.832 4.60606 230.832 10.1289L240.832 10.1289ZM213.547 30.582V20.582C210.667 20.582 207.927 21.8237 206.028 23.9891C204.129 26.1544 203.256 29.0333 203.633 31.8886L213.547 30.582ZM239.328 29.5937L249.304 28.9057C249.115 26.1553 247.798 23.6051 245.665 21.858C243.532 20.1109 240.773 19.3218 238.039 19.6772L239.328 29.5937ZM239.672 34.5781L241.443 44.42C246.464 43.5163 249.999 38.9789 249.648 33.8901L239.672 34.5781ZM230.09 35.7383L229.339 25.7665C224.122 26.1596 220.09 30.5069 220.09 35.7383H230.09ZM230.09 48.5859V58.5859C235.613 58.5859 240.09 54.1088 240.09 48.5859H230.09ZM223.129 48.5859H213.129C213.129 54.1088 217.606 58.5859 223.129 58.5859V48.5859ZM223.129 36.0391H233.129C233.129 33.3384 232.037 30.7526 230.1 28.8698C228.164 26.9871 225.549 25.9675 222.849 26.043L223.129 36.0391ZM214.277 36.125L204.363 37.4315C205.019 42.4063 209.26 46.125 214.277 46.125V36.125ZM238.598 22.2891H248.598C248.598 16.7662 244.12 12.2891 238.598 12.2891V22.2891ZM238.598 27.7461V37.7461C244.12 37.7461 248.598 33.2689 248.598 27.7461H238.598ZM227.555 27.7461H217.555C217.555 33.2689 222.032 37.7461 227.555 37.7461V27.7461ZM227.555 12.5781V2.57812C222.032 2.57812 217.555 7.05528 217.555 12.5781H227.555ZM238.426 12.5781H248.426C248.426 7.05528 243.949 2.57812 238.426 2.57812V12.5781ZM238.426 18.0352V28.0352C243.949 28.0352 248.426 23.558 248.426 18.0352H238.426ZM234.301 18.0352V8.03516C228.778 8.03516 224.301 12.5123 224.301 18.0352H234.301ZM234.301 22.2891H224.301C224.301 27.8119 228.778 32.2891 234.301 32.2891V22.2891ZM225.836 12.5781H235.836C235.836 7.05528 231.359 2.57812 225.836 2.57812V12.5781ZM225.836 18.0352V28.0352C231.359 28.0352 235.836 23.558 235.836 18.0352H225.836ZM222.098 18.0352V8.03516C216.575 8.03516 212.098 12.5123 212.098 18.0352H222.098ZM222.098 22.2891H212.098C212.098 25.0549 213.243 27.6972 215.262 29.5878C217.281 31.4785 219.992 32.4486 222.752 32.2676L222.098 22.2891ZM226.137 21.7305L236.116 21.0918C235.931 18.2036 234.504 15.5371 232.204 13.7813C229.903 12.0254 226.955 11.3523 224.12 11.9359L226.137 21.7305ZM226.48 27.1016L228.442 36.9074C233.353 35.9251 236.78 31.4611 236.46 26.4629L226.48 27.1016ZM215.266 27.7461H205.266C205.266 33.2689 209.743 37.7461 215.266 37.7461V27.7461ZM215.266 12.5781V2.57812C209.743 2.57812 205.266 7.05528 205.266 12.5781H215.266ZM247.793 10.1289H237.793V49.7461H247.793H257.793V10.1289H247.793ZM247.793 49.7461V39.7461H240.832V49.7461V59.7461H247.793V49.7461ZM240.832 49.7461H250.832V10.1289H240.832L230.832 10.1289V49.7461H240.832ZM240.832 10.1289V20.1289H247.793V10.1289V0.128906L240.832 0.128906V10.1289ZM213.547 30.582V40.582C220.877 40.582 231.228 40.7309 240.617 39.5103L239.328 29.5937L238.039 19.6772C230.241 20.691 221.428 20.582 213.547 20.582V30.582ZM239.328 29.5937L229.352 30.2818L229.696 35.2661L239.672 34.5781L249.648 33.8901L249.304 28.9057L239.328 29.5937ZM239.672 34.5781L237.9 24.7363C235.131 25.2348 232.275 25.5453 229.339 25.7665L230.09 35.7383L230.841 45.71C234.178 45.4586 237.767 45.0817 241.443 44.42L239.672 34.5781ZM230.09 35.7383H220.09V48.5859H230.09H240.09V35.7383H230.09ZM230.09 48.5859V38.5859H223.129V48.5859V58.5859H230.09V48.5859ZM223.129 48.5859H233.129V36.0391H223.129H213.129V48.5859H223.129ZM223.129 36.0391L222.849 26.043C219.938 26.1244 217.088 26.125 214.277 26.125V36.125V46.125C217.052 46.125 220.175 46.1256 223.409 46.0352L223.129 36.0391ZM214.277 36.125L224.192 34.8185L223.461 29.2755L213.547 30.582L203.633 31.8886L204.363 37.4315L214.277 36.125ZM238.598 22.2891H228.598V27.7461H238.598H248.598V22.2891H238.598ZM238.598 27.7461V17.7461H227.555V27.7461V37.7461H238.598V27.7461ZM227.555 27.7461H237.555V12.5781H227.555H217.555V27.7461H227.555ZM227.555 12.5781V22.5781H238.426V12.5781V2.57812H227.555V12.5781ZM238.426 12.5781H228.426V18.0352H238.426H248.426V12.5781H238.426ZM238.426 18.0352V8.03516L234.301 8.03516V18.0352V28.0352H238.426V18.0352ZM234.301 18.0352H224.301V22.2891H234.301H244.301V18.0352H234.301ZM234.301 22.2891V32.2891H238.598V22.2891V12.2891L234.301 12.2891V22.2891ZM225.836 12.5781H215.836V18.0352H225.836H235.836V12.5781H225.836ZM225.836 18.0352V8.03516H222.098V18.0352V28.0352H225.836V18.0352ZM222.098 18.0352H212.098V22.2891H222.098H232.098V18.0352H222.098ZM222.098 22.2891L222.752 32.2676C224.553 32.1495 226.277 31.9114 228.153 31.525L226.137 21.7305L224.12 11.9359C223.075 12.1511 222.263 12.2567 221.443 12.3105L222.098 22.2891ZM226.137 21.7305L216.157 22.3692L216.501 27.7403L226.48 27.1016L236.46 26.4629L236.116 21.0918L226.137 21.7305ZM226.48 27.1016L224.519 17.2958C222.566 17.6865 221.069 17.7461 217.414 17.7461V27.7461V37.7461C221.15 37.7461 224.38 37.7197 228.442 36.9074L226.48 27.1016ZM217.414 27.7461V17.7461H215.266V27.7461V37.7461H217.414V27.7461ZM215.266 27.7461H225.266V12.5781H215.266H205.266V27.7461H215.266ZM215.266 12.5781V22.5781H225.836V12.5781V2.57812L215.266 2.57812V12.5781ZM262.746 12.707L262.676 22.7068C262.726 22.7071 262.777 22.7071 262.827 22.7067L262.746 12.707ZM273.059 23.8789L263.154 25.2588C263.843 30.2007 268.069 33.8789 273.059 33.8789V23.8789ZM278.688 23.8789V33.8789C284.21 33.8789 288.688 29.4018 288.688 23.8789H278.688ZM278.688 10.043V0.0429687C273.165 0.0429687 268.688 4.52012 268.688 10.043H278.688ZM285.52 10.043H295.52C295.52 4.52012 291.042 0.0429687 285.52 0.0429687V10.043ZM285.52 49.918V59.918C291.042 59.918 295.52 55.4408 295.52 49.918H285.52ZM278.688 49.918H268.688C268.688 55.4408 273.165 59.918 278.688 59.918V49.918ZM278.688 29.3789H288.688C288.688 23.8561 284.21 19.3789 278.688 19.3789V29.3789ZM273.145 29.3789V19.3789C267.997 19.3789 263.691 23.2862 263.192 28.4093L273.145 29.3789ZM262.746 18.9375L262.564 28.9358C262.684 28.938 262.805 28.938 262.925 28.9359L262.746 18.9375ZM258.793 27.0156L268.793 27.0925C268.793 27.0409 268.793 26.9892 268.793 26.9375L258.793 27.0156ZM262.746 12.707L262.827 22.7067C262.775 22.7071 262.614 22.6919 262.422 22.6071C262.237 22.5253 262.17 22.4443 262.204 22.481C262.298 22.5821 262.885 23.3256 263.154 25.2588L273.059 23.8789L282.963 22.499C281.589 12.6372 274.817 2.60896 262.665 2.70736L262.746 12.707ZM273.059 23.8789V33.8789H278.688V23.8789V13.8789H273.059V23.8789ZM278.688 23.8789H288.688V10.043H278.688H268.688V23.8789H278.688ZM278.688 10.043V20.043H285.52V10.043V0.0429687H278.688V10.043ZM285.52 10.043H275.52V49.918H285.52H295.52V10.043H285.52ZM285.52 49.918V39.918H278.688V49.918V59.918H285.52V49.918ZM278.688 49.918H288.688V29.3789H278.688H268.688V49.918H278.688ZM278.688 29.3789V19.3789H273.145V29.3789V39.3789H278.688V29.3789ZM273.145 29.3789L263.192 28.4093C262.978 30.6022 262.343 31.4883 262.208 31.6434C262.153 31.7062 262.201 31.633 262.375 31.5519C262.556 31.4676 262.707 31.4531 262.746 31.4531V41.4531V51.4531C275.332 51.4531 282.081 40.7787 283.097 30.3485L273.145 29.3789ZM262.746 41.4531V31.4531C262.734 31.4531 262.771 31.4522 262.845 31.4699C262.92 31.4877 263.002 31.5174 263.08 31.5576C263.254 31.6468 263.261 31.709 263.155 31.5671C262.904 31.2331 262.176 29.9091 262.176 27.0156H252.176H242.176C242.176 33.0167 243.66 38.9114 247.159 43.5726C250.813 48.441 256.35 51.4531 262.746 51.4531V41.4531ZM252.176 27.0156H262.176C262.176 24.2126 262.892 22.91 263.142 22.5774C263.249 22.4359 263.239 22.5013 263.058 22.5938C262.976 22.636 262.887 22.668 262.804 22.6875C262.721 22.7068 262.674 22.7068 262.676 22.7068L262.746 12.707L262.816 2.70728C256.373 2.66222 250.822 5.69612 247.171 10.5388C243.673 15.1799 242.176 21.053 242.176 27.0156H252.176ZM262.746 18.9375L262.928 8.93915C257.122 8.8336 253.032 12.3825 251.003 16.2699C249.221 19.6832 248.766 23.5946 248.793 27.0937L258.793 27.0156L268.793 26.9375C268.777 24.9367 269.117 24.7875 268.732 25.526C268.491 25.9875 267.896 26.9066 266.702 27.7091C265.427 28.5653 263.949 28.961 262.564 28.9358L262.746 18.9375ZM258.793 27.0156L248.793 26.9387C248.766 30.4575 249.214 34.3868 251.01 37.8136C253.085 41.7722 257.148 45.1367 262.746 45.1367V35.1367V25.1367C264.037 25.1367 265.449 25.5127 266.694 26.347C267.872 27.1367 268.472 28.0463 268.724 28.5282C268.965 28.9875 268.957 29.1752 268.902 28.8716C268.851 28.5879 268.786 28.0181 268.793 27.0925L258.793 27.0156ZM262.746 35.1367V45.1367C268.362 45.1367 272.439 41.7719 274.511 37.7573C276.269 34.3517 276.699 30.4523 276.699 27.0156H266.699H256.699C256.699 27.974 256.631 28.5727 256.575 28.8841C256.516 29.218 256.503 29.0413 256.739 28.5845C256.988 28.1016 257.594 27.1649 258.8 26.3542C260.076 25.4964 261.497 25.1367 262.746 25.1367V35.1367ZM266.699 27.0156H276.699C276.699 23.6 276.263 19.7186 274.519 16.3261C272.491 12.3813 268.389 8.83514 262.568 8.93909L262.746 18.9375L262.925 28.9359C261.585 28.9598 260.099 28.5822 258.792 27.702C257.569 26.8784 256.969 25.9321 256.731 25.4698C256.503 25.0259 256.517 24.86 256.577 25.1919C256.632 25.5004 256.699 26.087 256.699 27.0156H266.699ZM297.938 12.5781H307.938C307.938 7.05528 303.46 2.57812 297.938 2.57812V12.5781ZM297.938 26.7578H287.938C287.938 29.444 289.018 32.0172 290.936 33.8979C292.854 35.7785 295.448 36.8086 298.134 36.7559L297.938 26.7578ZM311.988 25.2969L321.894 23.9253C321.513 21.178 320.009 18.7121 317.74 17.1168C315.472 15.5215 312.642 14.94 309.928 15.5114L311.988 25.2969ZM312.762 30.8828L314.748 40.6835C319.924 39.6344 323.391 34.7421 322.667 29.5113L312.762 30.8828ZM291.02 32.4727H281.02C281.02 37.9955 285.497 42.4727 291.02 42.4727V32.4727ZM291.02 12.5781V2.57812C285.497 2.57812 281.02 7.05528 281.02 12.5781H291.02ZM321.441 10.1289H331.441C331.441 4.60606 326.964 0.128906 321.441 0.128906V10.1289ZM321.441 20.8711H311.441C311.441 26.3939 315.919 30.8711 321.441 30.8711V20.8711ZM326.383 20.8711L336.383 20.8711C336.383 15.3482 331.906 10.8711 326.383 10.8711V20.8711ZM326.383 26.5859V36.5859C331.906 36.5859 336.383 32.1088 336.383 26.5859L326.383 26.5859ZM321.441 26.5859V16.5859C315.919 16.5859 311.441 21.0631 311.441 26.5859H321.441ZM321.441 38.5312V48.5312C326.964 48.5312 331.441 44.0541 331.441 38.5312H321.441ZM314.523 38.5312H304.523C304.523 44.0541 309.001 48.5312 314.523 48.5312V38.5312ZM314.523 10.1289V0.128906C309.001 0.128906 304.523 4.60606 304.523 10.1289H314.523ZM322.645 43.7305H332.645C332.645 38.2076 328.167 33.7305 322.645 33.7305V43.7305ZM322.645 49.2305V59.2305C328.167 59.2305 332.645 54.7533 332.645 49.2305H322.645ZM295.059 49.2305H285.059C285.059 54.7533 289.536 59.2305 295.059 59.2305V49.2305ZM295.059 35.9961V25.9961C289.536 25.9961 285.059 30.4732 285.059 35.9961H295.059ZM302.02 35.9961H312.02C312.02 30.4732 307.542 25.9961 302.02 25.9961V35.9961ZM302.02 43.7305H292.02C292.02 49.2533 296.497 53.7305 302.02 53.7305V43.7305ZM297.938 12.5781H287.938V26.7578H297.938H307.938V12.5781H297.938ZM297.938 26.7578L298.134 36.7559C302.88 36.6628 308.324 36.2876 314.048 35.0824L311.988 25.2969L309.928 15.5114C305.856 16.3687 301.761 16.6809 297.741 16.7597L297.938 26.7578ZM311.988 25.2969L302.083 26.6684L302.856 32.2543L312.762 30.8828L322.667 29.5113L321.894 23.9253L311.988 25.2969ZM312.762 30.8828L310.775 21.0821C305.335 22.1848 299.802 22.4727 294.586 22.4727V32.4727V42.4727C300.456 42.4727 307.469 42.1589 314.748 40.6835L312.762 30.8828ZM294.586 32.4727V22.4727H291.02V32.4727V42.4727H294.586V32.4727ZM291.02 32.4727H301.02V12.5781H291.02H281.02V32.4727H291.02ZM291.02 12.5781V22.5781H297.938V12.5781V2.57812H291.02V12.5781ZM321.441 10.1289H311.441V20.8711H321.441H331.441V10.1289H321.441ZM321.441 20.8711V30.8711H326.383V20.8711V10.8711H321.441V20.8711ZM326.383 20.8711H316.383V26.5859H326.383L336.383 26.5859V20.8711L326.383 20.8711ZM326.383 26.5859V16.5859H321.441V26.5859V36.5859H326.383V26.5859ZM321.441 26.5859H311.441V38.5312H321.441H331.441V26.5859H321.441ZM321.441 38.5312V28.5312H314.523V38.5312V48.5312H321.441V38.5312ZM314.523 38.5312H324.523V10.1289H314.523H304.523V38.5312H314.523ZM314.523 10.1289V20.1289H321.441V10.1289V0.128906H314.523V10.1289ZM322.645 43.7305H312.645V49.2305H322.645H332.645V43.7305H322.645ZM322.645 49.2305V39.2305H295.059V49.2305V59.2305H322.645V49.2305ZM295.059 49.2305H305.059V35.9961H295.059H285.059V49.2305H295.059ZM295.059 35.9961V45.9961H302.02V35.9961V25.9961H295.059V35.9961ZM302.02 35.9961H292.02V43.7305H302.02H312.02V35.9961H302.02ZM302.02 43.7305V53.7305H322.645V43.7305V33.7305H302.02V43.7305Z" fill="white" mask="url(#path-1-outside-1_3990_1455)"/>
</g>
<defs>
<filter id="filter0_d_3990_1455" x="0" y="0" width="340.383" height="67.918" filterUnits="userSpaceOnUse" color-interpolation-filters="sRGB">
<feFlood flood-opacity="0" result="BackgroundImageFix"/>
<feColorMatrix in="SourceAlpha" type="matrix" values="0 0 0 0 0 0 0 0 0 0 0 0 0 0 0 0 0 0 127 0" result="hardAlpha"/>
<feOffset dy="4"/>
<feGaussianBlur stdDeviation="2"/>
<feComposite in2="hardAlpha" operator="out"/>
<feColorMatrix type="matrix" values="0 0 0 0 0 0 0 0 0 0 0 0 0 0 0 0 0 0 0.07 0"/>
<feBlend mode="normal" in2="BackgroundImageFix" result="effect1_dropShadow_3990_1455"/>
<feBlend mode="normal" in="SourceGraphic" in2="effect1_dropShadow_3990_1455" result="shape"/>
</filter>
</defs>
</svg>
