<svg width="264" height="69" viewBox="0 0 264 69" fill="none" xmlns="http://www.w3.org/2000/svg">
<g filter="url(#filter0_d_3990_1418)">
<mask id="path-1-outside-1_3990_1418" maskUnits="userSpaceOnUse" x="3.96875" y="-0.25" width="256" height="61" fill="black">
<rect fill="white" x="3.96875" y="-0.25" width="256" height="61"/>
<path d="M35.7852 13.3516V18.7227H14V13.3516H21.8203V10H28.6953V13.3516H35.7852ZM25.1719 19.3242C30.7148 19.3242 34.7969 22.332 34.7969 26.5859C34.7969 30.8828 30.7148 33.8477 25.1719 33.8477C19.6289 33.8477 15.6328 30.8828 15.6758 26.5859C15.6328 22.332 19.6289 19.3242 25.1719 19.3242ZM25.1719 24.3945C23.2812 24.3945 22.0781 25.082 22.0781 26.5859C22.0781 28.1758 23.2812 28.9492 25.1719 28.9492C27.0625 28.9492 28.4375 28.1758 28.4375 26.5859C28.4375 25.082 27.0625 24.3945 25.1719 24.3945ZM47.6875 10.2578V34.0625H40.8125V31.6133H36.4297V26.1562H40.8125V23.707H36.5156V18.25H40.8125V10.2578L47.6875 10.2578ZM27.2344 35.4375V37.5859H40.8555V35.4375H47.6875V49.6602H20.3164V35.4375H27.2344ZM27.2344 44.375H40.8555V42.6133H27.2344V44.375ZM67.1523 16.4453C67.1094 20.8711 69.0859 25.2969 75.7461 27.1875L72.0938 32.5156C68.0762 31.2695 65.3691 28.9062 63.7148 25.8984C61.9961 29.4648 59.1172 32.2578 54.7344 33.6328L51.0391 28.2617C58.0859 26.0273 60.1484 20.7852 60.1914 15.7148V12.4492H67.1523V16.4453ZM83.6953 10.2578V18.8945H88.6367V24.5664H83.6953V33.4609H76.7773V10.2578H83.6953ZM70.5039 34.1484C78.7539 34.1055 84.082 37.1133 84.082 42.0977C84.082 47.168 78.7539 50.0898 70.5039 50.0898C61.9961 50.0898 56.582 47.168 56.625 42.0977C56.582 37.1133 61.9961 34.1055 70.5039 34.1484ZM70.5039 39.4766C65.8203 39.4766 63.5 40.293 63.5 42.0977C63.5 43.9883 65.8203 44.7188 70.5039 44.7188C75.1016 44.7188 77.25 43.9883 77.25 42.0977C77.25 40.293 75.1016 39.4766 70.5039 39.4766ZM108.059 10.7734C117.383 10.7734 122.711 13.1367 122.754 17.4766C122.711 21.8594 117.383 24.2227 108.059 24.2227C98.6914 24.2227 93.2773 21.8594 93.3203 17.4766C93.2773 13.1367 98.6914 10.7734 108.059 10.7734ZM108.059 15.7578C102.688 15.7578 100.539 16.2734 100.539 17.4766C100.539 18.9375 102.688 19.1953 108.059 19.2383C113.473 19.1953 115.621 18.9375 115.621 17.4766C115.621 16.2734 113.473 15.7578 108.059 15.7578ZM126.191 25.5547V31.0117H89.9258V25.5547H126.191ZM121.895 32.5156V43.4727H100.711V44.7617H122.84V49.832H93.9648V38.7461H115.105V37.543H94.0078V32.5156H121.895ZM160.137 11.8906V17.2187H153.047C153.713 20.4414 156.141 23.5996 161.77 25.125L158.59 30.4102C154.207 29.293 151.242 26.9082 149.48 23.8789C147.697 27.3164 144.646 30.002 139.898 31.2266L136.547 25.8555C142.498 24.2441 144.99 20.7422 145.656 17.2187H138.352V11.8906H160.137ZM169.332 10.2578V17.6055H174.273V23.1055H169.332V30.582H162.414V10.2578H169.332ZM169.332 31.9141V43.043H149.18V44.4609H170.277V49.6172H142.348V38.2734H162.457V37.0273H142.348V31.9141H169.332ZM207.273 10.2578V25.3398H212.645V30.9687H207.273V50.0039H200.441V10.2578H207.273ZM198.508 15.9297V21.3867H175.348V15.9297H183.555V10.9883H190.43V15.9297H198.508ZM186.992 22.9336C192.879 22.9336 197.391 26.9727 197.391 32.6016C197.391 38.2734 192.879 42.3125 186.992 42.3125C180.977 42.3125 176.551 38.2734 176.551 32.6016C176.551 26.9727 180.977 22.9336 186.992 22.9336ZM186.992 28.4766C184.758 28.4766 183.125 29.9375 183.168 32.6016C183.125 35.3945 184.758 36.7266 186.992 36.7266C189.184 36.7266 190.773 35.3945 190.773 32.6016C190.773 29.9375 189.184 28.4766 186.992 28.4766ZM245.945 20.3555V25.6836H217.844V11.6758H224.719V20.3555H245.945ZM249.855 29.207V34.5352H213.59V29.207H249.855ZM246.203 43.7305V49.2305H217.371V37.2852H224.332V43.7305H246.203Z"/>
</mask>
<path d="M35.7852 13.3516V18.7227H14V13.3516H21.8203V10H28.6953V13.3516H35.7852ZM25.1719 19.3242C30.7148 19.3242 34.7969 22.332 34.7969 26.5859C34.7969 30.8828 30.7148 33.8477 25.1719 33.8477C19.6289 33.8477 15.6328 30.8828 15.6758 26.5859C15.6328 22.332 19.6289 19.3242 25.1719 19.3242ZM25.1719 24.3945C23.2812 24.3945 22.0781 25.082 22.0781 26.5859C22.0781 28.1758 23.2812 28.9492 25.1719 28.9492C27.0625 28.9492 28.4375 28.1758 28.4375 26.5859C28.4375 25.082 27.0625 24.3945 25.1719 24.3945ZM47.6875 10.2578V34.0625H40.8125V31.6133H36.4297V26.1562H40.8125V23.707H36.5156V18.25H40.8125V10.2578L47.6875 10.2578ZM27.2344 35.4375V37.5859H40.8555V35.4375H47.6875V49.6602H20.3164V35.4375H27.2344ZM27.2344 44.375H40.8555V42.6133H27.2344V44.375ZM67.1523 16.4453C67.1094 20.8711 69.0859 25.2969 75.7461 27.1875L72.0938 32.5156C68.0762 31.2695 65.3691 28.9062 63.7148 25.8984C61.9961 29.4648 59.1172 32.2578 54.7344 33.6328L51.0391 28.2617C58.0859 26.0273 60.1484 20.7852 60.1914 15.7148V12.4492H67.1523V16.4453ZM83.6953 10.2578V18.8945H88.6367V24.5664H83.6953V33.4609H76.7773V10.2578H83.6953ZM70.5039 34.1484C78.7539 34.1055 84.082 37.1133 84.082 42.0977C84.082 47.168 78.7539 50.0898 70.5039 50.0898C61.9961 50.0898 56.582 47.168 56.625 42.0977C56.582 37.1133 61.9961 34.1055 70.5039 34.1484ZM70.5039 39.4766C65.8203 39.4766 63.5 40.293 63.5 42.0977C63.5 43.9883 65.8203 44.7188 70.5039 44.7188C75.1016 44.7188 77.25 43.9883 77.25 42.0977C77.25 40.293 75.1016 39.4766 70.5039 39.4766ZM108.059 10.7734C117.383 10.7734 122.711 13.1367 122.754 17.4766C122.711 21.8594 117.383 24.2227 108.059 24.2227C98.6914 24.2227 93.2773 21.8594 93.3203 17.4766C93.2773 13.1367 98.6914 10.7734 108.059 10.7734ZM108.059 15.7578C102.688 15.7578 100.539 16.2734 100.539 17.4766C100.539 18.9375 102.688 19.1953 108.059 19.2383C113.473 19.1953 115.621 18.9375 115.621 17.4766C115.621 16.2734 113.473 15.7578 108.059 15.7578ZM126.191 25.5547V31.0117H89.9258V25.5547H126.191ZM121.895 32.5156V43.4727H100.711V44.7617H122.84V49.832H93.9648V38.7461H115.105V37.543H94.0078V32.5156H121.895ZM160.137 11.8906V17.2187H153.047C153.713 20.4414 156.141 23.5996 161.77 25.125L158.59 30.4102C154.207 29.293 151.242 26.9082 149.48 23.8789C147.697 27.3164 144.646 30.002 139.898 31.2266L136.547 25.8555C142.498 24.2441 144.99 20.7422 145.656 17.2187H138.352V11.8906H160.137ZM169.332 10.2578V17.6055H174.273V23.1055H169.332V30.582H162.414V10.2578H169.332ZM169.332 31.9141V43.043H149.18V44.4609H170.277V49.6172H142.348V38.2734H162.457V37.0273H142.348V31.9141H169.332ZM207.273 10.2578V25.3398H212.645V30.9687H207.273V50.0039H200.441V10.2578H207.273ZM198.508 15.9297V21.3867H175.348V15.9297H183.555V10.9883H190.43V15.9297H198.508ZM186.992 22.9336C192.879 22.9336 197.391 26.9727 197.391 32.6016C197.391 38.2734 192.879 42.3125 186.992 42.3125C180.977 42.3125 176.551 38.2734 176.551 32.6016C176.551 26.9727 180.977 22.9336 186.992 22.9336ZM186.992 28.4766C184.758 28.4766 183.125 29.9375 183.168 32.6016C183.125 35.3945 184.758 36.7266 186.992 36.7266C189.184 36.7266 190.773 35.3945 190.773 32.6016C190.773 29.9375 189.184 28.4766 186.992 28.4766ZM245.945 20.3555V25.6836H217.844V11.6758H224.719V20.3555H245.945ZM249.855 29.207V34.5352H213.59V29.207H249.855ZM246.203 43.7305V49.2305H217.371V37.2852H224.332V43.7305H246.203Z" fill="#11DCA9"/>
<path d="M35.7852 13.3516H45.7852C45.7852 7.82872 41.308 3.35156 35.7852 3.35156V13.3516ZM35.7852 18.7227V28.7227C41.308 28.7227 45.7852 24.2455 45.7852 18.7227H35.7852ZM14 18.7227H4C4 24.2455 8.47715 28.7227 14 28.7227V18.7227ZM14 13.3516V3.35156C8.47715 3.35156 4 7.82872 4 13.3516H14ZM21.8203 13.3516V23.3516C27.3432 23.3516 31.8203 18.8744 31.8203 13.3516H21.8203ZM21.8203 10V0C16.2975 0 11.8203 4.47715 11.8203 10H21.8203ZM28.6953 10H38.6953C38.6953 4.47715 34.2182 0 28.6953 0V10ZM28.6953 13.3516H18.6953C18.6953 18.8744 23.1725 23.3516 28.6953 23.3516V13.3516ZM15.6758 26.5859L25.6753 26.6859C25.676 26.6189 25.6759 26.5519 25.6753 26.4849L15.6758 26.5859ZM47.6875 10.2578H57.6875C57.6875 4.73496 53.2103 0.257812 47.6875 0.257812V10.2578ZM47.6875 34.0625V44.0625C53.2103 44.0625 57.6875 39.5853 57.6875 34.0625H47.6875ZM40.8125 34.0625H30.8125C30.8125 39.5853 35.2897 44.0625 40.8125 44.0625V34.0625ZM40.8125 31.6133H50.8125C50.8125 26.0904 46.3353 21.6133 40.8125 21.6133V31.6133ZM36.4297 31.6133H26.4297C26.4297 37.1361 30.9068 41.6133 36.4297 41.6133V31.6133ZM36.4297 26.1562V16.1562C30.9068 16.1562 26.4297 20.6334 26.4297 26.1562H36.4297ZM40.8125 26.1562V36.1562C46.3353 36.1562 50.8125 31.6791 50.8125 26.1562H40.8125ZM40.8125 23.707H50.8125C50.8125 18.1842 46.3353 13.707 40.8125 13.707V23.707ZM36.5156 23.707H26.5156C26.5156 29.2299 30.9928 33.707 36.5156 33.707V23.707ZM36.5156 18.25V8.25C30.9928 8.25 26.5156 12.7272 26.5156 18.25H36.5156ZM40.8125 18.25V28.25C46.3353 28.25 50.8125 23.7728 50.8125 18.25H40.8125ZM40.8125 10.2578V0.257812C35.2897 0.257812 30.8125 4.73496 30.8125 10.2578H40.8125ZM27.2344 35.4375H37.2344C37.2344 29.9147 32.7572 25.4375 27.2344 25.4375V35.4375ZM27.2344 37.5859H17.2344C17.2344 43.1088 21.7115 47.5859 27.2344 47.5859V37.5859ZM40.8555 37.5859V47.5859C46.3783 47.5859 50.8555 43.1088 50.8555 37.5859H40.8555ZM40.8555 35.4375V25.4375C35.3326 25.4375 30.8555 29.9147 30.8555 35.4375H40.8555ZM47.6875 35.4375H57.6875C57.6875 29.9147 53.2103 25.4375 47.6875 25.4375V35.4375ZM47.6875 49.6602V59.6602C53.2103 59.6602 57.6875 55.183 57.6875 49.6602H47.6875ZM20.3164 49.6602H10.3164C10.3164 55.183 14.7936 59.6602 20.3164 59.6602V49.6602ZM20.3164 35.4375V25.4375C14.7936 25.4375 10.3164 29.9147 10.3164 35.4375H20.3164ZM27.2344 44.375H17.2344C17.2344 49.8978 21.7115 54.375 27.2344 54.375V44.375ZM40.8555 44.375V54.375C46.3783 54.375 50.8555 49.8978 50.8555 44.375H40.8555ZM40.8555 42.6133H50.8555C50.8555 37.0904 46.3783 32.6133 40.8555 32.6133V42.6133ZM27.2344 42.6133V32.6133C21.7115 32.6133 17.2344 37.0904 17.2344 42.6133H27.2344ZM35.7852 13.3516H25.7852V18.7227H35.7852H45.7852V13.3516H35.7852ZM35.7852 18.7227V8.72266H14V18.7227V28.7227H35.7852V18.7227ZM14 18.7227H24V13.3516H14H4V18.7227H14ZM14 13.3516V23.3516H21.8203V13.3516V3.35156H14V13.3516ZM21.8203 13.3516H31.8203V10H21.8203H11.8203V13.3516H21.8203ZM21.8203 10V20H28.6953V10V0H21.8203V10ZM28.6953 10H18.6953V13.3516H28.6953H38.6953V10H28.6953ZM28.6953 13.3516V23.3516H35.7852V13.3516V3.35156L28.6953 3.35156V13.3516ZM25.1719 19.3242V29.3242C26.225 29.3242 26.4081 29.6184 26.067 29.3629C25.8737 29.2181 25.5375 28.9038 25.2484 28.3615C24.9473 27.7968 24.7969 27.1671 24.7969 26.5859H34.7969H44.7969C44.7969 14.324 33.3708 9.32422 25.1719 9.32422V19.3242ZM34.7969 26.5859H24.7969C24.7969 26.0316 24.9397 25.4087 25.2439 24.8369C25.5365 24.2868 25.8804 23.9643 26.0831 23.8131C26.4384 23.548 26.2571 23.8477 25.1719 23.8477V33.8477V43.8477C29.6296 43.8477 34.2608 42.6649 38.0429 39.8432C41.9925 36.8964 44.7969 32.24 44.7969 26.5859H34.7969ZM25.1719 33.8477V23.8477C24.0856 23.8477 23.9604 23.5485 24.3696 23.8587C24.5992 24.0327 24.9555 24.3797 25.2487 24.9479C25.5518 25.5355 25.6806 26.1558 25.6753 26.6859L15.6758 26.5859L5.67628 26.4859C5.62019 32.0951 8.32539 36.7936 12.2886 39.7976C16.0708 42.6644 20.7152 43.8477 25.1719 43.8477V33.8477ZM15.6758 26.5859L25.6753 26.4849C25.6809 27.042 25.5447 27.6696 25.2444 28.2504C24.9545 28.811 24.6057 29.1497 24.3857 29.3171C23.9908 29.6177 24.118 29.3242 25.1719 29.3242V19.3242V9.32422C20.6827 9.32422 16.0405 10.5346 12.2725 13.4026C8.34271 16.3938 5.61963 21.0777 5.67629 26.6869L15.6758 26.5859ZM25.1719 24.3945V14.3945C23.2791 14.3945 20.2227 14.6938 17.3499 16.6186C13.868 18.9514 12.0781 22.7134 12.0781 26.5859H22.0781H32.0781C32.0781 27.5645 31.8746 28.8525 31.183 30.1933C30.4818 31.5527 29.4872 32.5606 28.4822 33.234C26.6836 34.439 25.174 34.3945 25.1719 34.3945V24.3945ZM22.0781 26.5859H12.0781C12.0781 30.2378 13.6438 33.9761 17.0199 36.4406C19.9191 38.557 23.0861 38.9492 25.1719 38.9492V28.9492V18.9492C25.367 18.9492 26.9872 18.9547 28.8121 20.2869C29.8004 21.0083 30.6972 22.0221 31.3083 23.2933C31.9072 24.539 32.0781 25.7095 32.0781 26.5859H22.0781ZM25.1719 28.9492V38.9492C27.2709 38.9492 30.2979 38.5519 33.1137 36.6487C36.4054 34.4237 38.4375 30.7494 38.4375 26.5859H28.4375H18.4375C18.4375 25.5031 18.6833 24.2024 19.3762 22.9076C20.0658 21.6191 21.0081 20.691 21.9137 20.0788C23.5693 18.9598 24.9635 18.9492 25.1719 18.9492V28.9492ZM28.4375 26.5859H38.4375C38.4375 22.1711 36.1286 18.5027 32.7853 16.4287C30.0049 14.7038 27.0875 14.3945 25.1719 14.3945V24.3945V34.3945C25.1469 34.3945 23.8623 34.4291 22.242 33.4239C21.3348 32.8611 20.3022 31.949 19.5211 30.5886C18.728 29.2074 18.4375 27.7862 18.4375 26.5859H28.4375ZM47.6875 10.2578L37.6875 10.2578V34.0625H47.6875H57.6875V10.2578H47.6875ZM47.6875 34.0625V24.0625H40.8125V34.0625V44.0625H47.6875V34.0625ZM40.8125 34.0625H50.8125V31.6133H40.8125H30.8125V34.0625H40.8125ZM40.8125 31.6133V21.6133H36.4297V31.6133V41.6133H40.8125V31.6133ZM36.4297 31.6133H46.4297V26.1562H36.4297H26.4297V31.6133H36.4297ZM36.4297 26.1562V36.1562H40.8125V26.1562V16.1562H36.4297V26.1562ZM40.8125 26.1562H50.8125V23.707H40.8125H30.8125V26.1562H40.8125ZM40.8125 23.707V13.707H36.5156V23.707V33.707H40.8125V23.707ZM36.5156 23.707H46.5156V18.25H36.5156H26.5156V23.707H36.5156ZM36.5156 18.25V28.25H40.8125V18.25V8.25H36.5156V18.25ZM40.8125 18.25H50.8125V10.2578L40.8125 10.2578H30.8125V18.25H40.8125ZM40.8125 10.2578V20.2578H47.6875V10.2578V0.257812H40.8125V10.2578ZM27.2344 35.4375H17.2344V37.5859H27.2344H37.2344V35.4375H27.2344ZM27.2344 37.5859V47.5859H40.8555V37.5859V27.5859H27.2344V37.5859ZM40.8555 37.5859H50.8555V35.4375H40.8555H30.8555V37.5859H40.8555ZM40.8555 35.4375V45.4375H47.6875V35.4375V25.4375H40.8555V35.4375ZM47.6875 35.4375H37.6875V49.6602H47.6875H57.6875V35.4375H47.6875ZM47.6875 49.6602V39.6602H20.3164V49.6602V59.6602H47.6875V49.6602ZM20.3164 49.6602H30.3164V35.4375H20.3164H10.3164L10.3164 49.6602H20.3164ZM20.3164 35.4375V45.4375H27.2344V35.4375V25.4375H20.3164V35.4375ZM27.2344 44.375V54.375H40.8555V44.375V34.375H27.2344V44.375ZM40.8555 44.375H50.8555V42.6133H40.8555H30.8555V44.375H40.8555ZM40.8555 42.6133V32.6133H27.2344V42.6133V52.6133H40.8555V42.6133ZM27.2344 42.6133H17.2344V44.375H27.2344H37.2344V42.6133H27.2344ZM67.1523 16.4453L77.1519 16.5424C77.1522 16.51 77.1523 16.4777 77.1523 16.4453L67.1523 16.4453ZM75.7461 27.1875L83.9943 32.8415C85.8143 30.1864 86.2449 26.8176 85.1513 23.7901C84.0577 20.7626 81.5735 18.4466 78.4769 17.5676L75.7461 27.1875ZM72.0938 32.5156L69.1314 42.0668C73.3185 43.3654 77.8633 41.7855 80.3419 38.1696L72.0938 32.5156ZM63.7148 25.8984L72.477 21.0793C70.673 17.7992 67.1881 15.8014 63.4461 15.9021C59.704 16.0027 56.3316 18.1848 54.7064 21.557L63.7148 25.8984ZM54.7344 33.6328L46.4959 39.3009C48.9839 42.9173 53.5395 44.4883 57.7278 43.1743L54.7344 33.6328ZM51.0391 28.2617L48.0166 18.7294C44.9965 19.687 42.6088 22.0192 41.5805 25.016C40.5521 28.0128 41.0047 31.3196 42.8006 33.9298L51.0391 28.2617ZM60.1914 15.7148L70.191 15.7996C70.1913 15.7713 70.1914 15.7431 70.1914 15.7148H60.1914ZM60.1914 12.4492V2.44922C54.6686 2.44922 50.1914 6.92637 50.1914 12.4492H60.1914ZM67.1523 12.4492H77.1523C77.1523 6.92637 72.6752 2.44922 67.1523 2.44922V12.4492ZM83.6953 10.2578H93.6953C93.6953 4.73496 89.2182 0.257812 83.6953 0.257812V10.2578ZM83.6953 18.8945L73.6953 18.8945C73.6953 24.4174 78.1725 28.8945 83.6953 28.8945V18.8945ZM88.6367 18.8945H98.6367C98.6367 13.3717 94.1596 8.89453 88.6367 8.89453V18.8945ZM88.6367 24.5664V34.5664C94.1596 34.5664 98.6367 30.0893 98.6367 24.5664H88.6367ZM83.6953 24.5664V14.5664C78.1725 14.5664 73.6953 19.0436 73.6953 24.5664L83.6953 24.5664ZM83.6953 33.4609V43.4609C89.2182 43.4609 93.6953 38.9838 93.6953 33.4609H83.6953ZM76.7773 33.4609H66.7773C66.7773 38.9838 71.2545 43.4609 76.7773 43.4609V33.4609ZM76.7773 10.2578V0.257812C71.2545 0.257812 66.7773 4.73496 66.7773 10.2578H76.7773ZM70.5039 34.1484L70.4534 44.1483C70.4876 44.1485 70.5218 44.1485 70.556 44.1483L70.5039 34.1484ZM56.625 42.0977L66.6246 42.1824C66.6251 42.1254 66.6251 42.0684 66.6246 42.0115L56.625 42.0977ZM67.1523 16.4453L57.1528 16.3482C57.1169 20.0459 57.9229 24.4547 60.7312 28.4845C63.6036 32.6062 67.8886 35.3521 73.0153 36.8074L75.7461 27.1875L78.4769 17.5676C77.6721 17.3391 77.2823 17.1122 77.1472 17.0217C77.0285 16.9424 77.066 16.9436 77.1399 17.0496C77.3056 17.2875 77.1448 17.2705 77.1519 16.5424L67.1523 16.4453ZM75.7461 27.1875L67.4979 21.5335L63.8456 26.8616L72.0938 32.5156L80.3419 38.1696L83.9943 32.8415L75.7461 27.1875ZM72.0938 32.5156L75.0561 22.9645C74.1685 22.6892 73.6383 22.3611 73.3126 22.0973C72.9883 21.8346 72.7158 21.5135 72.477 21.0793L63.7148 25.8984L54.9527 30.7176C57.8789 36.038 62.6891 40.0686 69.1314 42.0668L72.0938 32.5156ZM63.7148 25.8984L54.7064 21.557C54.1038 22.8074 53.3072 23.6 51.741 24.0913L54.7344 33.6328L57.7278 43.1743C64.9272 40.9156 69.8884 36.1223 72.7233 30.2399L63.7148 25.8984ZM54.7344 33.6328L62.9729 27.9647L59.2776 22.5936L51.0391 28.2617L42.8006 33.9298L46.4959 39.3009L54.7344 33.6328ZM51.0391 28.2617L54.0615 37.794C59.6113 36.0343 63.9192 32.7972 66.701 28.3848C69.3737 24.1453 70.1589 19.588 70.191 15.7996L60.1914 15.7148L50.1918 15.6301C50.1809 16.912 49.9134 17.511 49.7824 17.7187C49.7254 17.8092 49.6399 17.9193 49.4527 18.0591C49.2556 18.2063 48.8297 18.4716 48.0166 18.7294L51.0391 28.2617ZM60.1914 15.7148H70.1914V12.4492H60.1914H50.1914V15.7148H60.1914ZM60.1914 12.4492V22.4492H67.1523V12.4492V2.44922L60.1914 2.44922V12.4492ZM67.1523 12.4492H57.1523V16.4453H67.1523L77.1523 16.4453V12.4492H67.1523ZM83.6953 10.2578H73.6953V18.8945L83.6953 18.8945H93.6953V10.2578H83.6953ZM83.6953 18.8945V28.8945H88.6367V18.8945V8.89453H83.6953V18.8945ZM88.6367 18.8945H78.6367V24.5664H88.6367H98.6367V18.8945H88.6367ZM88.6367 24.5664V14.5664H83.6953V24.5664V34.5664H88.6367V24.5664ZM83.6953 24.5664L73.6953 24.5664V33.4609H83.6953H93.6953V24.5664H83.6953ZM83.6953 33.4609V23.4609L76.7773 23.4609V33.4609V43.4609H83.6953V33.4609ZM76.7773 33.4609H86.7773V10.2578H76.7773H66.7773V33.4609H76.7773ZM76.7773 10.2578V20.2578L83.6953 20.2578V10.2578V0.257812H76.7773V10.2578ZM70.5039 34.1484L70.556 44.1483C72.0223 44.1407 73.1737 44.271 74.0209 44.4517C74.8832 44.6355 75.2867 44.8401 75.3725 44.8898C75.444 44.9312 75.0824 44.7383 74.6971 44.136C74.2744 43.4753 74.082 42.721 74.082 42.0977H84.082H94.082C94.082 35.3539 90.2081 30.3717 85.401 27.5858C80.9566 25.0101 75.6017 24.1217 70.4518 24.1486L70.5039 34.1484ZM84.082 42.0977H74.082C74.082 41.5276 74.2575 40.7866 74.6854 40.1145C75.0767 39.5 75.4506 39.298 75.3872 39.3346C75.3061 39.3814 74.9017 39.5864 74.0247 39.7731C73.1635 39.9563 71.9943 40.0898 70.5039 40.0898V50.0898V60.0898C75.5951 60.0898 80.9407 59.2219 85.3862 56.6557C90.244 53.8514 94.082 48.8481 94.082 42.0977H84.082ZM70.5039 50.0898V40.0898C68.9307 40.0898 67.6908 39.9532 66.7702 39.7623C65.8321 39.5678 65.3871 39.3509 65.2817 39.2913C65.1926 39.2409 65.5801 39.4391 65.9908 40.0779C66.4435 40.7821 66.6298 41.5688 66.6246 42.1824L56.625 42.0977L46.6254 42.0129C46.5671 48.8886 50.5258 53.9223 55.4341 56.6989C59.9192 59.2361 65.3279 60.0898 70.5039 60.0898V50.0898ZM56.625 42.0977L66.6246 42.0115C66.6304 42.6796 66.4264 43.48 65.9791 44.1726C65.5744 44.7991 65.1993 44.9884 65.2963 44.9333C65.4062 44.8709 65.8503 44.6543 66.7739 44.4624C67.6808 44.274 68.9035 44.1405 70.4534 44.1483L70.5039 34.1484L70.5544 24.1486C65.3214 24.1221 59.9039 24.9955 55.4195 27.5423C50.563 30.3004 46.5661 35.3133 46.6254 42.1839L56.625 42.0977ZM70.5039 39.4766V29.4766C67.8877 29.4766 64.6733 29.6634 61.7865 30.7277C60.2634 31.2892 58.183 32.327 56.4289 34.3201C54.4889 36.5244 53.5 39.2794 53.5 42.0977H63.5H73.5C73.5 44.0136 72.8011 45.9897 71.4426 47.5334C70.2698 48.8659 69.0622 49.3612 68.7047 49.493C68.3103 49.6384 68.2114 49.6106 68.6206 49.5616C68.9924 49.5172 69.6002 49.4766 70.5039 49.4766V39.4766ZM63.5 42.0977H53.5C53.5 44.8211 54.4141 47.5944 56.3893 49.8662C58.1793 51.9249 60.3177 52.9723 61.863 53.5277C64.7551 54.5673 67.9807 54.7188 70.5039 54.7188V44.7188V34.7188C69.567 34.7188 68.9373 34.6809 68.5455 34.6371C68.1126 34.5886 68.2185 34.5594 68.6282 34.7067C69.008 34.8432 70.2735 35.3534 71.4821 36.7434C72.876 38.3465 73.5 40.3196 73.5 42.0977H63.5ZM70.5039 44.7188V54.7188C72.9681 54.7188 76.2108 54.5738 79.1272 53.4749C80.7157 52.8763 82.8448 51.7629 84.5855 49.633C86.471 47.3259 87.25 44.6236 87.25 42.0977H77.25H67.25C67.25 40.517 67.7605 38.615 69.0994 36.9767C70.2936 35.5154 71.5983 34.9391 72.075 34.7595C72.5577 34.5776 72.736 34.5965 72.3493 34.6412C72.0051 34.681 71.4167 34.7188 70.5039 34.7188V44.7188ZM77.25 42.0977H87.25C87.25 39.4828 86.4051 36.7979 84.5477 34.5527C82.8407 32.4892 80.7694 31.3869 79.206 30.7827C76.2949 29.6577 73.0644 29.4766 70.5039 29.4766V39.4766V49.4766C71.3828 49.4766 71.9486 49.517 72.2718 49.5569C72.6335 49.6016 72.4627 49.6183 71.9962 49.438C71.5446 49.2635 70.2977 48.7037 69.1372 47.3008C67.8264 45.7162 67.25 43.8102 67.25 42.0977H77.25ZM122.754 17.4766L132.753 17.5746C132.754 17.5089 132.754 17.4432 132.753 17.3776L122.754 17.4766ZM93.3203 17.4766L103.32 17.5746C103.32 17.5089 103.32 17.4432 103.32 17.3776L93.3203 17.4766ZM108.059 19.2383L107.979 29.238C108.032 29.2384 108.085 29.2384 108.138 29.238L108.059 19.2383ZM126.191 25.5547H136.191C136.191 20.0318 131.714 15.5547 126.191 15.5547V25.5547ZM126.191 31.0117V41.0117C131.714 41.0117 136.191 36.5346 136.191 31.0117H126.191ZM89.9258 31.0117H79.9258C79.9258 36.5346 84.4029 41.0117 89.9258 41.0117V31.0117ZM89.9258 25.5547V15.5547C84.4029 15.5547 79.9258 20.0318 79.9258 25.5547H89.9258ZM121.895 32.5156H131.895C131.895 26.9928 127.417 22.5156 121.895 22.5156V32.5156ZM121.895 43.4727V53.4727C127.417 53.4727 131.895 48.9955 131.895 43.4727H121.895ZM100.711 43.4727V33.4727C95.1881 33.4727 90.7109 37.9498 90.7109 43.4727H100.711ZM100.711 44.7617H90.7109C90.7109 50.2846 95.1881 54.7617 100.711 54.7617V44.7617ZM122.84 44.7617H132.84C132.84 39.2389 128.363 34.7617 122.84 34.7617V44.7617ZM122.84 49.832V59.832C128.363 59.832 132.84 55.3549 132.84 49.832H122.84ZM93.9648 49.832H83.9648C83.9648 55.3549 88.442 59.832 93.9648 59.832V49.832ZM93.9648 38.7461V28.7461C88.442 28.7461 83.9648 33.2232 83.9648 38.7461H93.9648ZM115.105 38.7461V48.7461C120.628 48.7461 125.105 44.2689 125.105 38.7461H115.105ZM115.105 37.543H125.105C125.105 32.0201 120.628 27.543 115.105 27.543V37.543ZM94.0078 37.543H84.0078C84.0078 43.0658 88.485 47.543 94.0078 47.543V37.543ZM94.0078 32.5156V22.5156C88.485 22.5156 84.0078 26.9928 84.0078 32.5156H94.0078ZM108.059 10.7734V20.7734C109.987 20.7734 111.526 20.897 112.705 21.0853C113.91 21.2778 114.54 21.5068 114.762 21.6072C114.992 21.7116 114.484 21.5382 113.877 20.7628C113.169 19.8581 112.765 18.6866 112.754 17.5756L122.754 17.4766L132.753 17.3776C132.681 10.0439 127.73 5.52457 123.011 3.38788C118.624 1.40137 113.312 0.773437 108.059 0.773437V10.7734ZM122.754 17.4766L112.754 17.3785C112.765 16.3019 113.153 15.1464 113.855 14.2429C114.459 13.4662 114.969 13.2894 114.746 13.3908C114.529 13.4893 113.904 13.7181 112.701 13.9107C111.525 14.099 109.987 14.2227 108.059 14.2227V24.2227V34.2227C113.309 34.2227 118.631 33.5957 123.028 31.5955C127.782 29.4327 132.682 24.8877 132.753 17.5746L122.754 17.4766ZM108.059 24.2227V14.2227C106.117 14.2227 104.562 14.0988 103.368 13.909C102.146 13.7146 101.506 13.4831 101.28 13.3809C101.042 13.2733 101.573 13.4539 102.199 14.2626C102.933 15.2122 103.331 16.4346 103.32 17.5746L93.3203 17.4766L83.3208 17.3785C83.2474 24.866 88.3035 29.4637 93.0417 31.6055C97.4473 33.5969 102.793 34.2227 108.059 34.2227V24.2227ZM93.3203 17.4766L103.32 17.3776C103.331 18.553 102.918 19.7923 102.177 20.743C101.548 21.5505 101.018 21.7276 101.263 21.6171C101.495 21.513 102.14 21.2813 103.365 21.087C104.561 20.8972 106.117 20.7734 108.059 20.7734V10.7734V0.773437C102.79 0.773437 97.4541 1.4001 93.0578 3.37798C88.3564 5.49313 83.2464 10.0654 83.3208 17.5756L93.3203 17.4766ZM108.059 15.7578V5.75781C105.31 5.75781 102.44 5.86653 100.033 6.42283C98.8771 6.68996 96.8339 7.27045 94.896 8.74784C92.5214 10.5581 90.5391 13.594 90.5391 17.4766H100.539H110.539C110.539 18.8821 110.208 20.3776 109.457 21.7795C108.729 23.1379 107.793 24.0648 107.021 24.653C106.275 25.2222 105.616 25.5273 105.246 25.6766C104.865 25.8307 104.603 25.8938 104.536 25.9092C104.432 25.9332 104.632 25.8808 105.318 25.8326C105.965 25.7872 106.857 25.7578 108.059 25.7578V15.7578ZM100.539 17.4766H90.5391C90.5391 20.7818 91.9769 23.9638 94.6783 26.1439C96.8009 27.857 99.0844 28.4365 100.24 28.6779C102.595 29.1699 105.503 29.2182 107.979 29.238L108.059 19.2383L108.139 9.2386C106.843 9.22823 105.889 9.20544 105.171 9.16566C104.403 9.12307 104.209 9.07535 104.329 9.10044C104.411 9.11742 104.729 9.18705 105.182 9.36652C105.63 9.54372 106.398 9.90189 107.239 10.5803C108.127 11.2972 109.038 12.3283 109.688 13.7077C110.334 15.0794 110.539 16.4054 110.539 17.4766H100.539ZM108.059 19.2383L108.138 29.238C110.634 29.2182 113.549 29.1698 115.906 28.6797C117.061 28.4395 119.347 27.8625 121.472 26.1511C124.181 23.9703 125.621 20.7842 125.621 17.4766H115.621H105.621C105.621 16.4054 105.826 15.0776 106.474 13.7035C107.126 12.3215 108.039 11.2896 108.929 10.5731C109.771 9.89526 110.54 9.53827 110.986 9.36222C111.439 9.18384 111.755 9.11504 111.834 9.09864C111.949 9.07464 111.75 9.12274 110.974 9.16547C110.249 9.2054 109.286 9.22822 107.979 9.2386L108.059 19.2383ZM115.621 17.4766H125.621C125.621 13.5907 123.635 10.5518 121.254 8.74098C119.314 7.26499 117.268 6.68659 116.112 6.42065C113.704 5.86644 110.826 5.75781 108.059 5.75781V15.7578V25.7578C109.272 25.7578 110.174 25.7873 110.829 25.833C111.522 25.8813 111.727 25.9343 111.628 25.9114C111.564 25.8966 111.303 25.8342 110.922 25.681C110.554 25.5327 109.895 25.2286 109.147 24.6599C108.374 24.072 107.436 23.1446 106.706 21.7839C105.953 20.3796 105.621 18.8823 105.621 17.4766H115.621ZM126.191 25.5547H116.191V31.0117H126.191H136.191V25.5547H126.191ZM126.191 31.0117V21.0117H89.9258V31.0117V41.0117H126.191V31.0117ZM89.9258 31.0117H99.9258V25.5547H89.9258H79.9258V31.0117H89.9258ZM89.9258 25.5547V35.5547H126.191V25.5547V15.5547H89.9258V25.5547ZM121.895 32.5156H111.895V43.4727H121.895H131.895V32.5156H121.895ZM121.895 43.4727V33.4727H100.711V43.4727V53.4727H121.895V43.4727ZM100.711 43.4727H90.7109V44.7617H100.711H110.711V43.4727H100.711ZM100.711 44.7617V54.7617H122.84V44.7617V34.7617H100.711V44.7617ZM122.84 44.7617H112.84V49.832H122.84H132.84V44.7617H122.84ZM122.84 49.832V39.832H93.9648V49.832V59.832H122.84V49.832ZM93.9648 49.832H103.965V38.7461H93.9648H83.9648V49.832H93.9648ZM93.9648 38.7461V48.7461H115.105V38.7461V28.7461H93.9648V38.7461ZM115.105 38.7461H125.105V37.543H115.105H105.105V38.7461H115.105ZM115.105 37.543V27.543H94.0078V37.543V47.543H115.105V37.543ZM94.0078 37.543H104.008V32.5156H94.0078H84.0078V37.543H94.0078ZM94.0078 32.5156V42.5156H121.895V32.5156V22.5156H94.0078V32.5156ZM160.137 11.8906H170.137C170.137 6.36778 165.66 1.89062 160.137 1.89062V11.8906ZM160.137 17.2187V27.2187C165.66 27.2187 170.137 22.7416 170.137 17.2187H160.137ZM153.047 17.2187V7.21875C150.04 7.21875 147.192 8.57201 145.293 10.9036C143.394 13.2353 142.645 16.2977 143.254 19.2426L153.047 17.2187ZM161.77 25.125L170.338 30.2802C171.955 27.5934 172.217 24.304 171.048 21.3947C169.878 18.4854 167.412 16.2933 164.385 15.4731L161.77 25.125ZM158.59 30.4102L156.12 40.1003C160.397 41.1906 164.883 39.3476 167.159 35.5654L158.59 30.4102ZM149.48 23.8789L158.125 18.8516C156.291 15.6985 152.886 13.7939 149.239 13.8818C145.593 13.9697 142.283 16.0362 140.604 19.2741L149.48 23.8789ZM139.898 31.2266L131.415 36.5205C133.725 40.2231 138.17 41.9996 142.396 40.9097L139.898 31.2266ZM136.547 25.8555L133.933 16.203C130.879 17.0301 128.396 19.2542 127.239 22.1997C126.082 25.1453 126.388 28.4646 128.063 31.1494L136.547 25.8555ZM145.656 17.2187L155.482 19.0761C156.035 16.1505 155.256 13.1306 153.356 10.8381C151.456 8.54551 148.634 7.21875 145.656 7.21875V17.2187ZM138.352 17.2187H128.352C128.352 22.7416 132.829 27.2187 138.352 27.2187V17.2187ZM138.352 11.8906V1.89062C132.829 1.89062 128.352 6.36778 128.352 11.8906H138.352ZM169.332 10.2578L179.332 10.2578C179.332 4.73496 174.855 0.257812 169.332 0.257812V10.2578ZM169.332 17.6055H159.332C159.332 23.1283 163.809 27.6055 169.332 27.6055V17.6055ZM174.273 17.6055H184.273C184.273 12.0826 179.796 7.60547 174.273 7.60547V17.6055ZM174.273 23.1055V33.1055C179.796 33.1055 184.273 28.6283 184.273 23.1055H174.273ZM169.332 23.1055V13.1055C163.809 13.1055 159.332 17.5826 159.332 23.1055H169.332ZM169.332 30.582V40.582C174.855 40.582 179.332 36.1049 179.332 30.582H169.332ZM162.414 30.582H152.414C152.414 36.1049 156.891 40.582 162.414 40.582V30.582ZM162.414 10.2578V0.257812C156.891 0.257812 152.414 4.73496 152.414 10.2578H162.414ZM169.332 31.9141H179.332C179.332 26.3912 174.855 21.9141 169.332 21.9141V31.9141ZM169.332 43.043V53.043C174.855 53.043 179.332 48.5658 179.332 43.043H169.332ZM149.18 43.043V33.043C143.657 33.043 139.18 37.5201 139.18 43.043L149.18 43.043ZM149.18 44.4609L139.18 44.4609C139.18 49.9838 143.657 54.4609 149.18 54.4609V44.4609ZM170.277 44.4609H180.277C180.277 38.9381 175.8 34.4609 170.277 34.4609V44.4609ZM170.277 49.6172V59.6172C175.8 59.6172 180.277 55.14 180.277 49.6172H170.277ZM142.348 49.6172L132.348 49.6172C132.348 55.14 136.825 59.6172 142.348 59.6172V49.6172ZM142.348 38.2734V28.2734C136.825 28.2734 132.348 32.7506 132.348 38.2734L142.348 38.2734ZM162.457 38.2734V48.2734C167.98 48.2734 172.457 43.7963 172.457 38.2734H162.457ZM162.457 37.0273H172.457C172.457 31.5045 167.98 27.0273 162.457 27.0273V37.0273ZM142.348 37.0273L132.348 37.0273C132.348 42.5502 136.825 47.0273 142.348 47.0273V37.0273ZM142.348 31.9141V21.9141C136.825 21.9141 132.348 26.3912 132.348 31.9141L142.348 31.9141ZM160.137 11.8906H150.137V17.2187H160.137H170.137V11.8906H160.137ZM160.137 17.2187V7.21875H153.047V17.2187V27.2187H160.137V17.2187ZM153.047 17.2187L143.254 19.2426C144.789 26.6685 150.418 32.4095 159.154 34.7769L161.77 25.125L164.385 15.4731C162.906 15.0723 162.529 14.6482 162.591 14.71C162.612 14.731 162.675 14.8027 162.737 14.921C162.797 15.0344 162.827 15.1337 162.84 15.1949L153.047 17.2187ZM161.77 25.125L153.201 19.9698L150.021 25.255L158.59 30.4102L167.159 35.5654L170.338 30.2802L161.77 25.125ZM158.59 30.4102L161.06 20.72C160.011 20.4528 159.375 20.0997 158.993 19.8171C158.614 19.5377 158.341 19.2226 158.125 18.8516L149.48 23.8789L140.836 28.9062C144.024 34.388 149.289 38.3592 156.12 40.1003L158.59 30.4102ZM149.48 23.8789L140.604 19.2741C140.308 19.8444 139.971 20.2426 139.582 20.5518C139.193 20.8608 138.538 21.2502 137.401 21.5434L139.898 31.2266L142.396 40.9097C149.879 38.9796 155.258 34.4581 158.357 28.4837L149.48 23.8789ZM139.898 31.2266L148.382 25.9327L145.031 20.5616L136.547 25.8555L128.063 31.1494L131.415 36.5205L139.898 31.2266ZM136.547 25.8555L139.16 35.5079C148.562 32.9624 154.058 26.6122 155.482 19.0761L145.656 17.2187L135.83 15.3614C135.819 15.4192 135.812 15.4221 135.827 15.3914C135.845 15.3542 135.864 15.3346 135.854 15.3448C135.844 15.3559 135.744 15.4596 135.473 15.6126C135.195 15.7693 134.71 15.9928 133.933 16.203L136.547 25.8555ZM145.656 17.2187V7.21875H138.352V17.2187V27.2187H145.656V17.2187ZM138.352 17.2187H148.352V11.8906H138.352H128.352V17.2187H138.352ZM138.352 11.8906V21.8906H160.137V11.8906V1.89062L138.352 1.89062V11.8906ZM169.332 10.2578H159.332V17.6055H169.332H179.332V10.2578L169.332 10.2578ZM169.332 17.6055V27.6055H174.273V17.6055V7.60547L169.332 7.60547V17.6055ZM174.273 17.6055H164.273V23.1055H174.273H184.273V17.6055H174.273ZM174.273 23.1055V13.1055H169.332V23.1055V33.1055H174.273V23.1055ZM169.332 23.1055H159.332V30.582H169.332H179.332V23.1055H169.332ZM169.332 30.582V20.582H162.414V30.582V40.582H169.332V30.582ZM162.414 30.582H172.414V10.2578H162.414H152.414V30.582H162.414ZM162.414 10.2578V20.2578H169.332V10.2578V0.257812L162.414 0.257812V10.2578ZM169.332 31.9141H159.332V43.043H169.332H179.332V31.9141H169.332ZM169.332 43.043V33.043H149.18V43.043V53.043H169.332V43.043ZM149.18 43.043L139.18 43.043V44.4609L149.18 44.4609H159.18V43.043H149.18ZM149.18 44.4609V54.4609H170.277V44.4609V34.4609H149.18V44.4609ZM170.277 44.4609H160.277V49.6172H170.277H180.277V44.4609H170.277ZM170.277 49.6172V39.6172H142.348V49.6172V59.6172H170.277V49.6172ZM142.348 49.6172H152.348V38.2734H142.348L132.348 38.2734V49.6172L142.348 49.6172ZM142.348 38.2734V48.2734H162.457V38.2734V28.2734H142.348V38.2734ZM162.457 38.2734H172.457V37.0273H162.457H152.457V38.2734H162.457ZM162.457 37.0273V27.0273H142.348V37.0273V47.0273H162.457V37.0273ZM142.348 37.0273H152.348V31.9141H142.348L132.348 31.9141V37.0273L142.348 37.0273ZM142.348 31.9141V41.9141H169.332V31.9141V21.9141H142.348V31.9141ZM207.273 10.2578H217.273C217.273 4.73496 212.796 0.257812 207.273 0.257812V10.2578ZM207.273 25.3398L197.273 25.3398C197.273 30.8627 201.751 35.3398 207.273 35.3398V25.3398ZM212.645 25.3398H222.645C222.645 19.817 218.167 15.3398 212.645 15.3398V25.3398ZM212.645 30.9687V40.9687C218.167 40.9687 222.645 36.4916 222.645 30.9687H212.645ZM207.273 30.9687V20.9687C201.751 20.9687 197.273 25.4459 197.273 30.9687H207.273ZM207.273 50.0039V60.0039C212.796 60.0039 217.273 55.5268 217.273 50.0039H207.273ZM200.441 50.0039H190.441C190.441 55.5268 194.919 60.0039 200.441 60.0039V50.0039ZM200.441 10.2578V0.257812C194.919 0.257812 190.441 4.73496 190.441 10.2578H200.441ZM198.508 15.9297L208.508 15.9297C208.508 10.4068 204.031 5.92969 198.508 5.92969V15.9297ZM198.508 21.3867V31.3867C204.031 31.3867 208.508 26.9096 208.508 21.3867L198.508 21.3867ZM175.348 21.3867H165.348C165.348 26.9096 169.825 31.3867 175.348 31.3867V21.3867ZM175.348 15.9297V5.92969C169.825 5.92969 165.348 10.4068 165.348 15.9297H175.348ZM183.555 15.9297V25.9297C189.078 25.9297 193.555 21.4525 193.555 15.9297H183.555ZM183.555 10.9883V0.988281C178.032 0.988281 173.555 5.46543 173.555 10.9883H183.555ZM190.43 10.9883H200.43C200.43 5.46543 195.953 0.988281 190.43 0.988281V10.9883ZM190.43 15.9297H180.43C180.43 21.4525 184.907 25.9297 190.43 25.9297V15.9297ZM183.168 32.6016L193.167 32.7554C193.168 32.6504 193.168 32.5453 193.167 32.4403L183.168 32.6016ZM207.273 10.2578H197.273V25.3398L207.273 25.3398H217.273V10.2578H207.273ZM207.273 25.3398V35.3398H212.645V25.3398V15.3398H207.273V25.3398ZM212.645 25.3398L202.645 25.3398V30.9687H212.645H222.645V25.3398H212.645ZM212.645 30.9687V20.9687H207.273V30.9687V40.9687H212.645V30.9687ZM207.273 30.9687H197.273V50.0039H207.273H217.273V30.9687H207.273ZM207.273 50.0039V40.0039H200.441V50.0039V60.0039H207.273V50.0039ZM200.441 50.0039H210.441V10.2578H200.441H190.441V50.0039H200.441ZM200.441 10.2578V20.2578L207.273 20.2578V10.2578V0.257812H200.441V10.2578ZM198.508 15.9297H188.508V21.3867H198.508L208.508 21.3867V15.9297L198.508 15.9297ZM198.508 21.3867V11.3867H175.348V21.3867V31.3867H198.508V21.3867ZM175.348 21.3867H185.348V15.9297H175.348H165.348V21.3867H175.348ZM175.348 15.9297V25.9297H183.555V15.9297V5.92969H175.348V15.9297ZM183.555 15.9297H193.555V10.9883H183.555H173.555V15.9297H183.555ZM183.555 10.9883V20.9883H190.43V10.9883V0.988281L183.555 0.988281V10.9883ZM190.43 10.9883H180.43V15.9297H190.43H200.43V10.9883H190.43ZM190.43 15.9297V25.9297H198.508V15.9297V5.92969H190.43V15.9297ZM186.992 22.9336V32.9336C187.319 32.9336 187.517 32.9889 187.605 33.0219C187.694 33.0552 187.688 33.0706 187.631 33.0186C187.571 32.9633 187.495 32.8684 187.441 32.744C187.384 32.6148 187.391 32.5478 187.391 32.6016H197.391H207.391C207.391 20.6744 197.593 12.9336 186.992 12.9336V22.9336ZM197.391 32.6016H187.391C187.391 32.6766 187.38 32.6235 187.433 32.5013C187.485 32.3835 187.558 32.2895 187.62 32.2327C187.678 32.1792 187.687 32.193 187.601 32.2252C187.515 32.2572 187.319 32.3125 186.992 32.3125V42.3125V52.3125C197.624 52.3125 207.391 44.5435 207.391 32.6016H197.391ZM186.992 42.3125V32.3125C186.609 32.3125 186.387 32.2489 186.298 32.216C186.21 32.1835 186.232 32.1744 186.305 32.2425C186.383 32.3138 186.462 32.4203 186.514 32.5409C186.567 32.6635 186.551 32.7039 186.551 32.6016H176.551H166.551C166.551 44.5175 176.204 52.3125 186.992 52.3125V42.3125ZM176.551 32.6016H186.551C186.551 32.5204 186.563 32.5745 186.507 32.7043C186.451 32.8315 186.37 32.9391 186.294 33.0088C186.222 33.0753 186.203 33.0646 186.294 33.031C186.385 32.9972 186.609 32.9336 186.992 32.9336V22.9336V12.9336C176.234 12.9336 166.551 20.7004 166.551 32.6016H176.551ZM186.992 28.4766V18.4766C183.678 18.4766 179.957 19.5996 177.073 22.552C174.169 25.5247 173.114 29.3232 173.169 32.7628L183.168 32.6016L193.167 32.4403C193.179 33.2159 192.919 34.9519 191.379 36.5281C189.859 38.084 188.072 38.4766 186.992 38.4766V28.4766ZM183.168 32.6016L173.169 32.4477C173.117 35.8314 174.105 39.7329 177.155 42.7825C180.157 45.7843 183.925 46.7266 186.992 46.7266V36.7266V26.7266C187.825 26.7266 189.66 27.0028 191.297 28.6404C192.982 30.3256 193.176 32.1647 193.167 32.7554L183.168 32.6016ZM186.992 36.7266V46.7266C190.106 46.7266 193.862 45.7432 196.832 42.7262C199.804 39.7058 200.773 35.8841 200.773 32.6016H190.773H180.773C180.773 32.112 180.948 30.3528 182.578 28.6967C184.204 27.0439 186.07 26.7266 186.992 26.7266V36.7266ZM190.773 32.6016H200.773C200.773 29.2709 199.744 25.5533 196.913 22.609C194.064 19.6464 190.356 18.4766 186.992 18.4766V28.4766V38.4766C185.82 38.4766 184.002 38.0372 182.496 36.4711C181.008 34.9233 180.773 33.2682 180.773 32.6016H190.773ZM245.945 20.3555H255.945C255.945 14.8326 251.468 10.3555 245.945 10.3555V20.3555ZM245.945 25.6836V35.6836C251.468 35.6836 255.945 31.2064 255.945 25.6836H245.945ZM217.844 25.6836H207.844C207.844 31.2064 212.321 35.6836 217.844 35.6836V25.6836ZM217.844 11.6758V1.67578C212.321 1.67578 207.844 6.15293 207.844 11.6758H217.844ZM224.719 11.6758H234.719C234.719 6.15293 230.242 1.67578 224.719 1.67578V11.6758ZM224.719 20.3555H214.719C214.719 25.8783 219.196 30.3555 224.719 30.3555V20.3555ZM249.855 29.207H259.855C259.855 23.6842 255.378 19.207 249.855 19.207V29.207ZM249.855 34.5352V44.5352C255.378 44.5352 259.855 40.058 259.855 34.5352H249.855ZM213.59 34.5352H203.59C203.59 40.058 208.067 44.5352 213.59 44.5352V34.5352ZM213.59 29.207V19.207C208.067 19.207 203.59 23.6842 203.59 29.207H213.59ZM246.203 43.7305H256.203C256.203 38.2076 251.726 33.7305 246.203 33.7305V43.7305ZM246.203 49.2305V59.2305C251.726 59.2305 256.203 54.7533 256.203 49.2305H246.203ZM217.371 49.2305H207.371C207.371 54.7533 211.848 59.2305 217.371 59.2305V49.2305ZM217.371 37.2852V27.2852C211.848 27.2852 207.371 31.7623 207.371 37.2852H217.371ZM224.332 37.2852H234.332C234.332 31.7623 229.855 27.2852 224.332 27.2852V37.2852ZM224.332 43.7305H214.332C214.332 49.2533 218.809 53.7305 224.332 53.7305V43.7305ZM245.945 20.3555H235.945V25.6836H245.945H255.945V20.3555H245.945ZM245.945 25.6836V15.6836H217.844V25.6836V35.6836H245.945V25.6836ZM217.844 25.6836H227.844V11.6758H217.844H207.844V25.6836H217.844ZM217.844 11.6758V21.6758H224.719V11.6758V1.67578L217.844 1.67578V11.6758ZM224.719 11.6758H214.719V20.3555H224.719H234.719V11.6758H224.719ZM224.719 20.3555V30.3555H245.945V20.3555V10.3555L224.719 10.3555V20.3555ZM249.855 29.207H239.855V34.5352H249.855H259.855V29.207H249.855ZM249.855 34.5352V24.5352H213.59V34.5352V44.5352H249.855V34.5352ZM213.59 34.5352H223.59V29.207H213.59H203.59V34.5352H213.59ZM213.59 29.207V39.207H249.855V29.207V19.207H213.59V29.207ZM246.203 43.7305H236.203V49.2305H246.203H256.203V43.7305H246.203ZM246.203 49.2305V39.2305H217.371V49.2305V59.2305H246.203V49.2305ZM217.371 49.2305H227.371V37.2852H217.371H207.371V49.2305H217.371ZM217.371 37.2852V47.2852H224.332V37.2852V27.2852H217.371V37.2852ZM224.332 37.2852H214.332V43.7305H224.332H234.332V37.2852H224.332ZM224.332 43.7305V53.7305H246.203V43.7305V33.7305H224.332V43.7305Z" fill="white" mask="url(#path-1-outside-1_3990_1418)"/>
</g>
<defs>
<filter id="filter0_d_3990_1418" x="0" y="0" width="263.855" height="68.0898" filterUnits="userSpaceOnUse" color-interpolation-filters="sRGB">
<feFlood flood-opacity="0" result="BackgroundImageFix"/>
<feColorMatrix in="SourceAlpha" type="matrix" values="0 0 0 0 0 0 0 0 0 0 0 0 0 0 0 0 0 0 127 0" result="hardAlpha"/>
<feOffset dy="4"/>
<feGaussianBlur stdDeviation="2"/>
<feComposite in2="hardAlpha" operator="out"/>
<feColorMatrix type="matrix" values="0 0 0 0 0 0 0 0 0 0 0 0 0 0 0 0 0 0 0.07 0"/>
<feBlend mode="normal" in2="BackgroundImageFix" result="effect1_dropShadow_3990_1418"/>
<feBlend mode="normal" in="SourceGraphic" in2="effect1_dropShadow_3990_1418" result="shape"/>
</filter>
</defs>
</svg>
